<svg xmlns="http://www.w3.org/2000/svg" xmlns:xlink="http://www.w3.org/1999/xlink" width="600" height="400" viewBox="0 0 2400 1600">
<defs>
  <clipPath id="clip240">
    <rect x="0" y="0" width="2400" height="1600"></rect>
  </clipPath>
</defs>
<path clip-path="url(#clip240)" d="M0 1600 L2400 1600 L2400 0 L0 0  Z" fill="#ffffff" fill-rule="evenodd" fill-opacity="1"></path>
<defs>
  <clipPath id="clip241">
    <rect x="480" y="0" width="1681" height="1600"></rect>
  </clipPath>
</defs>
<path clip-path="url(#clip240)" d="M210.376 1423.18 L2352.76 1423.18 L2352.76 123.472 L210.376 123.472  Z" fill="#ffffff" fill-rule="evenodd" fill-opacity="1"></path>
<defs>
  <clipPath id="clip242">
    <rect x="210" y="123" width="2143" height="1301"></rect>
  </clipPath>
</defs>
<polyline clip-path="url(#clip242)" style="stroke:#000000; stroke-linecap:round; stroke-linejoin:round; stroke-width:2; stroke-opacity:0.1; fill:none" points="271.009,1423.18 271.009,123.472 "></polyline>
<polyline clip-path="url(#clip242)" style="stroke:#000000; stroke-linecap:round; stroke-linejoin:round; stroke-width:2; stroke-opacity:0.1; fill:none" points="776.287,1423.18 776.287,123.472 "></polyline>
<polyline clip-path="url(#clip242)" style="stroke:#000000; stroke-linecap:round; stroke-linejoin:round; stroke-width:2; stroke-opacity:0.1; fill:none" points="1281.57,1423.18 1281.57,123.472 "></polyline>
<polyline clip-path="url(#clip242)" style="stroke:#000000; stroke-linecap:round; stroke-linejoin:round; stroke-width:2; stroke-opacity:0.1; fill:none" points="1786.84,1423.18 1786.84,123.472 "></polyline>
<polyline clip-path="url(#clip242)" style="stroke:#000000; stroke-linecap:round; stroke-linejoin:round; stroke-width:2; stroke-opacity:0.1; fill:none" points="2292.12,1423.18 2292.12,123.472 "></polyline>
<polyline clip-path="url(#clip242)" style="stroke:#000000; stroke-linecap:round; stroke-linejoin:round; stroke-width:2; stroke-opacity:0.1; fill:none" points="210.376,1310.64 2352.76,1310.64 "></polyline>
<polyline clip-path="url(#clip242)" style="stroke:#000000; stroke-linecap:round; stroke-linejoin:round; stroke-width:2; stroke-opacity:0.1; fill:none" points="210.376,1072.36 2352.76,1072.36 "></polyline>
<polyline clip-path="url(#clip242)" style="stroke:#000000; stroke-linecap:round; stroke-linejoin:round; stroke-width:2; stroke-opacity:0.1; fill:none" points="210.376,834.074 2352.76,834.074 "></polyline>
<polyline clip-path="url(#clip242)" style="stroke:#000000; stroke-linecap:round; stroke-linejoin:round; stroke-width:2; stroke-opacity:0.1; fill:none" points="210.376,595.792 2352.76,595.792 "></polyline>
<polyline clip-path="url(#clip242)" style="stroke:#000000; stroke-linecap:round; stroke-linejoin:round; stroke-width:2; stroke-opacity:0.1; fill:none" points="210.376,357.51 2352.76,357.51 "></polyline>
<polyline clip-path="url(#clip240)" style="stroke:#000000; stroke-linecap:round; stroke-linejoin:round; stroke-width:4; stroke-opacity:1; fill:none" points="210.376,1423.18 2352.76,1423.18 "></polyline>
<polyline clip-path="url(#clip240)" style="stroke:#000000; stroke-linecap:round; stroke-linejoin:round; stroke-width:4; stroke-opacity:1; fill:none" points="271.009,1423.18 271.009,1404.28 "></polyline>
<polyline clip-path="url(#clip240)" style="stroke:#000000; stroke-linecap:round; stroke-linejoin:round; stroke-width:4; stroke-opacity:1; fill:none" points="776.287,1423.18 776.287,1404.28 "></polyline>
<polyline clip-path="url(#clip240)" style="stroke:#000000; stroke-linecap:round; stroke-linejoin:round; stroke-width:4; stroke-opacity:1; fill:none" points="1281.57,1423.18 1281.57,1404.28 "></polyline>
<polyline clip-path="url(#clip240)" style="stroke:#000000; stroke-linecap:round; stroke-linejoin:round; stroke-width:4; stroke-opacity:1; fill:none" points="1786.84,1423.18 1786.84,1404.28 "></polyline>
<polyline clip-path="url(#clip240)" style="stroke:#000000; stroke-linecap:round; stroke-linejoin:round; stroke-width:4; stroke-opacity:1; fill:none" points="2292.12,1423.18 2292.12,1404.28 "></polyline>
<path clip-path="url(#clip240)" d="M271.009 1454.1 Q267.398 1454.1 265.569 1457.66 Q263.764 1461.2 263.764 1468.33 Q263.764 1475.44 265.569 1479.01 Q267.398 1482.55 271.009 1482.55 Q274.643 1482.55 276.449 1479.01 Q278.277 1475.44 278.277 1468.33 Q278.277 1461.2 276.449 1457.66 Q274.643 1454.1 271.009 1454.1 M271.009 1450.39 Q276.819 1450.39 279.875 1455 Q282.953 1459.58 282.953 1468.33 Q282.953 1477.06 279.875 1481.67 Q276.819 1486.25 271.009 1486.25 Q265.199 1486.25 262.12 1481.67 Q259.065 1477.06 259.065 1468.33 Q259.065 1459.58 262.12 1455 Q265.199 1450.39 271.009 1450.39 Z" fill="#000000" fill-rule="nonzero" fill-opacity="1"></path><path clip-path="url(#clip240)" d="M766.669 1481.64 L774.308 1481.64 L774.308 1455.28 L765.998 1456.95 L765.998 1452.69 L774.262 1451.02 L778.938 1451.02 L778.938 1481.64 L786.577 1481.64 L786.577 1485.58 L766.669 1485.58 L766.669 1481.64 Z" fill="#000000" fill-rule="nonzero" fill-opacity="1"></path><path clip-path="url(#clip240)" d="M1276.22 1481.64 L1292.54 1481.64 L1292.54 1485.58 L1270.59 1485.58 L1270.59 1481.64 Q1273.26 1478.89 1277.84 1474.26 Q1282.45 1469.61 1283.63 1468.27 Q1285.87 1465.74 1286.75 1464.01 Q1287.65 1462.25 1287.65 1460.56 Q1287.65 1457.8 1285.71 1456.07 Q1283.79 1454.33 1280.69 1454.33 Q1278.49 1454.33 1276.03 1455.09 Q1273.6 1455.86 1270.83 1457.41 L1270.83 1452.69 Q1273.65 1451.55 1276.1 1450.97 Q1278.56 1450.39 1280.59 1450.39 Q1285.96 1450.39 1289.16 1453.08 Q1292.35 1455.77 1292.35 1460.26 Q1292.35 1462.39 1291.54 1464.31 Q1290.76 1466.2 1288.65 1468.8 Q1288.07 1469.47 1284.97 1472.69 Q1281.87 1475.88 1276.22 1481.64 Z" fill="#000000" fill-rule="nonzero" fill-opacity="1"></path><path clip-path="url(#clip240)" d="M1791.09 1466.95 Q1794.45 1467.66 1796.32 1469.93 Q1798.22 1472.2 1798.22 1475.53 Q1798.22 1480.65 1794.7 1483.45 Q1791.18 1486.25 1784.7 1486.25 Q1782.53 1486.25 1780.21 1485.81 Q1777.92 1485.39 1775.47 1484.54 L1775.47 1480.02 Q1777.41 1481.16 1779.73 1481.74 Q1782.04 1482.32 1784.56 1482.32 Q1788.96 1482.32 1791.25 1480.58 Q1793.57 1478.84 1793.57 1475.53 Q1793.57 1472.48 1791.42 1470.77 Q1789.29 1469.03 1785.47 1469.03 L1781.44 1469.03 L1781.44 1465.19 L1785.65 1465.19 Q1789.1 1465.19 1790.93 1463.82 Q1792.76 1462.43 1792.76 1459.84 Q1792.76 1457.18 1790.86 1455.77 Q1788.99 1454.33 1785.47 1454.33 Q1783.55 1454.33 1781.35 1454.75 Q1779.15 1455.16 1776.51 1456.04 L1776.51 1451.88 Q1779.17 1451.14 1781.49 1450.77 Q1783.82 1450.39 1785.88 1450.39 Q1791.21 1450.39 1794.31 1452.83 Q1797.41 1455.23 1797.41 1459.35 Q1797.41 1462.22 1795.77 1464.21 Q1794.12 1466.18 1791.09 1466.95 Z" fill="#000000" fill-rule="nonzero" fill-opacity="1"></path><path clip-path="url(#clip240)" d="M2295.13 1455.09 L2283.33 1473.54 L2295.13 1473.54 L2295.13 1455.09 M2293.9 1451.02 L2299.78 1451.02 L2299.78 1473.54 L2304.72 1473.54 L2304.72 1477.43 L2299.78 1477.43 L2299.78 1485.58 L2295.13 1485.58 L2295.13 1477.43 L2279.53 1477.43 L2279.53 1472.92 L2293.9 1451.02 Z" fill="#000000" fill-rule="nonzero" fill-opacity="1"></path><path clip-path="url(#clip240)" d="M1179.38 1522.27 L1179.38 1532.4 L1191.44 1532.4 L1191.44 1536.95 L1179.38 1536.95 L1179.38 1556.3 Q1179.38 1560.66 1180.56 1561.9 Q1181.77 1563.14 1185.43 1563.14 L1191.44 1563.14 L1191.44 1568.04 L1185.43 1568.04 Q1178.65 1568.04 1176.07 1565.53 Q1173.49 1562.98 1173.49 1556.3 L1173.49 1536.95 L1169.2 1536.95 L1169.2 1532.4 L1173.49 1532.4 L1173.49 1522.27 L1179.38 1522.27 Z" fill="#000000" fill-rule="nonzero" fill-opacity="1"></path><path clip-path="url(#clip240)" d="M1199.15 1532.4 L1205 1532.4 L1205 1568.04 L1199.15 1568.04 L1199.15 1532.4 M1199.15 1518.52 L1205 1518.52 L1205 1525.93 L1199.15 1525.93 L1199.15 1518.52 Z" fill="#000000" fill-rule="nonzero" fill-opacity="1"></path><path clip-path="url(#clip240)" d="M1245.01 1539.24 Q1247.21 1535.29 1250.26 1533.41 Q1253.32 1531.54 1257.46 1531.54 Q1263.03 1531.54 1266.05 1535.45 Q1269.07 1539.33 1269.07 1546.53 L1269.07 1568.04 L1263.18 1568.04 L1263.18 1546.72 Q1263.18 1541.59 1261.37 1539.11 Q1259.56 1536.63 1255.83 1536.63 Q1251.28 1536.63 1248.64 1539.65 Q1246 1542.68 1246 1547.9 L1246 1568.04 L1240.11 1568.04 L1240.11 1546.72 Q1240.11 1541.56 1238.29 1539.11 Q1236.48 1536.63 1232.69 1536.63 Q1228.21 1536.63 1225.56 1539.68 Q1222.92 1542.71 1222.92 1547.9 L1222.92 1568.04 L1217.03 1568.04 L1217.03 1532.4 L1222.92 1532.4 L1222.92 1537.93 Q1224.93 1534.66 1227.73 1533.1 Q1230.53 1531.54 1234.38 1531.54 Q1238.26 1531.54 1240.97 1533.51 Q1243.71 1535.48 1245.01 1539.24 Z" fill="#000000" fill-rule="nonzero" fill-opacity="1"></path><path clip-path="url(#clip240)" d="M1311.25 1548.76 L1311.25 1551.62 L1284.32 1551.62 Q1284.7 1557.67 1287.95 1560.85 Q1291.23 1564 1297.05 1564 Q1300.42 1564 1303.58 1563.17 Q1306.76 1562.35 1309.88 1560.69 L1309.88 1566.23 Q1306.73 1567.57 1303.42 1568.27 Q1300.11 1568.97 1296.7 1568.97 Q1288.17 1568.97 1283.17 1564 Q1278.21 1559.04 1278.21 1550.57 Q1278.21 1541.82 1282.92 1536.69 Q1287.66 1531.54 1295.68 1531.54 Q1302.87 1531.54 1307.04 1536.18 Q1311.25 1540.8 1311.25 1548.76 M1305.39 1547.04 Q1305.33 1542.23 1302.68 1539.37 Q1300.07 1536.5 1295.75 1536.5 Q1290.84 1536.5 1287.88 1539.27 Q1284.96 1542.04 1284.51 1547.07 L1305.39 1547.04 Z" fill="#000000" fill-rule="nonzero" fill-opacity="1"></path><path clip-path="url(#clip240)" d="M1334.93 1518.58 Q1330.66 1525.9 1328.59 1533.06 Q1326.52 1540.23 1326.52 1547.58 Q1326.52 1554.93 1328.59 1562.16 Q1330.69 1569.35 1334.93 1576.64 L1329.83 1576.64 Q1325.06 1569.16 1322.67 1561.93 Q1320.32 1554.71 1320.32 1547.58 Q1320.32 1540.48 1322.67 1533.29 Q1325.03 1526.09 1329.83 1518.58 L1334.93 1518.58 Z" fill="#000000" fill-rule="nonzero" fill-opacity="1"></path><path clip-path="url(#clip240)" d="M1369.01 1533.45 L1369.01 1538.98 Q1366.53 1537.71 1363.86 1537.07 Q1361.18 1536.44 1358.32 1536.44 Q1353.96 1536.44 1351.76 1537.77 Q1349.6 1539.11 1349.6 1541.79 Q1349.6 1543.82 1351.16 1545 Q1352.72 1546.15 1357.43 1547.2 L1359.43 1547.64 Q1365.67 1548.98 1368.28 1551.43 Q1370.92 1553.85 1370.92 1558.21 Q1370.92 1563.17 1366.98 1566.07 Q1363.06 1568.97 1356.19 1568.97 Q1353.32 1568.97 1350.2 1568.39 Q1347.12 1567.85 1343.68 1566.74 L1343.68 1560.69 Q1346.93 1562.38 1350.08 1563.24 Q1353.23 1564.07 1356.32 1564.07 Q1360.45 1564.07 1362.68 1562.66 Q1364.91 1561.23 1364.91 1558.65 Q1364.91 1556.27 1363.29 1554.99 Q1361.69 1553.72 1356.25 1552.54 L1354.21 1552.07 Q1348.77 1550.92 1346.35 1548.56 Q1343.93 1546.18 1343.93 1542.04 Q1343.93 1537.01 1347.5 1534.27 Q1351.06 1531.54 1357.62 1531.54 Q1360.87 1531.54 1363.73 1532.01 Q1366.6 1532.49 1369.01 1533.45 Z" fill="#000000" fill-rule="nonzero" fill-opacity="1"></path><path clip-path="url(#clip240)" d="M1379.33 1518.58 L1384.42 1518.58 Q1389.19 1526.09 1391.55 1533.29 Q1393.94 1540.48 1393.94 1547.58 Q1393.94 1554.71 1391.55 1561.93 Q1389.19 1569.16 1384.42 1576.64 L1379.33 1576.64 Q1383.56 1569.35 1385.63 1562.16 Q1387.73 1554.93 1387.73 1547.58 Q1387.73 1540.23 1385.63 1533.06 Q1383.56 1525.9 1379.33 1518.58 Z" fill="#000000" fill-rule="nonzero" fill-opacity="1"></path><polyline clip-path="url(#clip240)" style="stroke:#000000; stroke-linecap:round; stroke-linejoin:round; stroke-width:4; stroke-opacity:1; fill:none" points="210.376,1423.18 210.376,123.472 "></polyline>
<polyline clip-path="url(#clip240)" style="stroke:#000000; stroke-linecap:round; stroke-linejoin:round; stroke-width:4; stroke-opacity:1; fill:none" points="210.376,1310.64 229.273,1310.64 "></polyline>
<polyline clip-path="url(#clip240)" style="stroke:#000000; stroke-linecap:round; stroke-linejoin:round; stroke-width:4; stroke-opacity:1; fill:none" points="210.376,1072.36 229.273,1072.36 "></polyline>
<polyline clip-path="url(#clip240)" style="stroke:#000000; stroke-linecap:round; stroke-linejoin:round; stroke-width:4; stroke-opacity:1; fill:none" points="210.376,834.074 229.273,834.074 "></polyline>
<polyline clip-path="url(#clip240)" style="stroke:#000000; stroke-linecap:round; stroke-linejoin:round; stroke-width:4; stroke-opacity:1; fill:none" points="210.376,595.792 229.273,595.792 "></polyline>
<polyline clip-path="url(#clip240)" style="stroke:#000000; stroke-linecap:round; stroke-linejoin:round; stroke-width:4; stroke-opacity:1; fill:none" points="210.376,357.51 229.273,357.51 "></polyline>
<path clip-path="url(#clip240)" d="M114.26 1311.09 L143.936 1311.09 L143.936 1315.02 L114.26 1315.02 L114.26 1311.09 Z" fill="#000000" fill-rule="nonzero" fill-opacity="1"></path><path clip-path="url(#clip240)" d="M158.056 1323.98 L174.376 1323.98 L174.376 1327.92 L152.431 1327.92 L152.431 1323.98 Q155.093 1321.23 159.677 1316.6 Q164.283 1311.95 165.464 1310.6 Q167.709 1308.08 168.589 1306.34 Q169.491 1304.58 169.491 1302.89 Q169.491 1300.14 167.547 1298.4 Q165.626 1296.67 162.524 1296.67 Q160.325 1296.67 157.871 1297.43 Q155.44 1298.2 152.663 1299.75 L152.663 1295.02 Q155.487 1293.89 157.94 1293.31 Q160.394 1292.73 162.431 1292.73 Q167.802 1292.73 170.996 1295.42 Q174.19 1298.1 174.19 1302.59 Q174.19 1304.72 173.38 1306.64 Q172.593 1308.54 170.487 1311.13 Q169.908 1311.81 166.806 1315.02 Q163.704 1318.22 158.056 1323.98 Z" fill="#000000" fill-rule="nonzero" fill-opacity="1"></path><path clip-path="url(#clip240)" d="M162.431 1058.15 Q158.82 1058.15 156.991 1061.72 Q155.186 1065.26 155.186 1072.39 Q155.186 1079.5 156.991 1083.06 Q158.82 1086.6 162.431 1086.6 Q166.065 1086.6 167.871 1083.06 Q169.7 1079.5 169.7 1072.39 Q169.7 1065.26 167.871 1061.72 Q166.065 1058.15 162.431 1058.15 M162.431 1054.45 Q168.241 1054.45 171.297 1059.06 Q174.376 1063.64 174.376 1072.39 Q174.376 1081.12 171.297 1085.72 Q168.241 1090.31 162.431 1090.31 Q156.621 1090.31 153.542 1085.72 Q150.487 1081.12 150.487 1072.39 Q150.487 1063.64 153.542 1059.06 Q156.621 1054.45 162.431 1054.45 Z" fill="#000000" fill-rule="nonzero" fill-opacity="1"></path><path clip-path="url(#clip240)" d="M158.056 847.419 L174.376 847.419 L174.376 851.354 L152.431 851.354 L152.431 847.419 Q155.093 844.664 159.677 840.034 Q164.283 835.382 165.464 834.039 Q167.709 831.516 168.589 829.78 Q169.491 828.021 169.491 826.331 Q169.491 823.576 167.547 821.84 Q165.626 820.104 162.524 820.104 Q160.325 820.104 157.871 820.868 Q155.44 821.632 152.663 823.183 L152.663 818.46 Q155.487 817.326 157.94 816.747 Q160.394 816.169 162.431 816.169 Q167.802 816.169 170.996 818.854 Q174.19 821.539 174.19 826.03 Q174.19 828.159 173.38 830.081 Q172.593 831.979 170.487 834.571 Q169.908 835.243 166.806 838.46 Q163.704 841.655 158.056 847.419 Z" fill="#000000" fill-rule="nonzero" fill-opacity="1"></path><path clip-path="url(#clip240)" d="M164.792 582.586 L152.987 601.035 L164.792 601.035 L164.792 582.586 M163.565 578.512 L169.445 578.512 L169.445 601.035 L174.376 601.035 L174.376 604.924 L169.445 604.924 L169.445 613.072 L164.792 613.072 L164.792 604.924 L149.191 604.924 L149.191 600.41 L163.565 578.512 Z" fill="#000000" fill-rule="nonzero" fill-opacity="1"></path><path clip-path="url(#clip240)" d="M162.848 355.647 Q159.7 355.647 157.848 357.8 Q156.019 359.953 156.019 363.702 Q156.019 367.429 157.848 369.605 Q159.7 371.758 162.848 371.758 Q165.996 371.758 167.825 369.605 Q169.677 367.429 169.677 363.702 Q169.677 359.953 167.825 357.8 Q165.996 355.647 162.848 355.647 M172.13 340.994 L172.13 345.254 Q170.371 344.42 168.565 343.98 Q166.783 343.541 165.024 343.541 Q160.394 343.541 157.94 346.666 Q155.51 349.791 155.163 356.11 Q156.528 354.096 158.589 353.031 Q160.649 351.943 163.126 351.943 Q168.334 351.943 171.343 355.115 Q174.376 358.263 174.376 363.702 Q174.376 369.027 171.227 372.244 Q168.079 375.462 162.848 375.462 Q156.853 375.462 153.681 370.878 Q150.51 366.272 150.51 357.545 Q150.51 349.351 154.399 344.49 Q158.288 339.605 164.839 339.605 Q166.598 339.605 168.38 339.953 Q170.186 340.3 172.13 340.994 Z" fill="#000000" fill-rule="nonzero" fill-opacity="1"></path><path clip-path="url(#clip240)" d="M28.3562 756.711 L45.7028 769.602 L64.0042 756.043 L64.0042 762.95 L49.9996 773.326 L64.0042 783.702 L64.0042 790.609 L45.3526 776.763 L28.3562 789.431 L28.3562 782.524 L41.0558 773.071 L28.3562 763.618 L28.3562 756.711 Z" fill="#000000" fill-rule="nonzero" fill-opacity="1"></path><path clip-path="url(#clip240)" d="M675.226 16.7545 L675.226 25.383 Q671.094 21.5346 666.395 19.6307 Q661.737 17.7268 656.471 17.7268 Q646.1 17.7268 640.591 24.0867 Q635.082 30.4061 635.082 42.3968 Q635.082 54.3469 640.591 60.7069 Q646.1 67.0263 656.471 67.0263 Q661.737 67.0263 666.395 65.1223 Q671.094 63.2184 675.226 59.3701 L675.226 67.9175 Q670.932 70.8341 666.112 72.2924 Q661.332 73.7508 655.985 73.7508 Q642.252 73.7508 634.353 65.3654 Q626.454 56.9395 626.454 42.3968 Q626.454 27.8135 634.353 19.4281 Q642.252 11.0023 655.985 11.0023 Q661.413 11.0023 666.193 12.4606 Q671.013 13.8784 675.226 16.7545 Z" fill="#000000" fill-rule="nonzero" fill-opacity="1"></path><path clip-path="url(#clip240)" d="M708.16 49.7694 Q699.127 49.7694 695.643 51.8354 Q692.159 53.9013 692.159 58.8839 Q692.159 62.8538 694.752 65.2034 Q697.385 67.5124 701.881 67.5124 Q708.079 67.5124 711.806 63.1374 Q715.573 58.7219 715.573 51.4303 L715.573 49.7694 L708.16 49.7694 M723.027 46.6907 L723.027 72.576 L715.573 72.576 L715.573 65.6895 Q713.021 69.8214 709.213 71.8063 Q705.406 73.7508 699.896 73.7508 Q692.929 73.7508 688.797 69.8619 Q684.706 65.9325 684.706 59.3701 Q684.706 51.7138 689.81 47.825 Q694.954 43.9361 705.122 43.9361 L715.573 43.9361 L715.573 43.2069 Q715.573 38.0623 712.171 35.2672 Q708.808 32.4315 702.692 32.4315 Q698.803 32.4315 695.116 33.3632 Q691.43 34.295 688.027 36.1584 L688.027 29.2718 Q692.119 27.692 695.967 26.9223 Q699.815 26.1121 703.461 26.1121 Q713.305 26.1121 718.166 31.2163 Q723.027 36.3204 723.027 46.6907 Z" fill="#000000" fill-rule="nonzero" fill-opacity="1"></path><path clip-path="url(#clip240)" d="M764.67 34.1734 Q763.415 33.4443 761.916 33.1202 Q760.457 32.7556 758.675 32.7556 Q752.356 32.7556 748.953 36.8875 Q745.591 40.9789 745.591 48.6757 L745.591 72.576 L738.096 72.576 L738.096 27.2059 L745.591 27.2059 L745.591 34.2544 Q747.94 30.1225 751.707 28.1376 Q755.475 26.1121 760.863 26.1121 Q761.632 26.1121 762.564 26.2337 Q763.496 26.3147 764.63 26.5172 L764.67 34.1734 Z" fill="#000000" fill-rule="nonzero" fill-opacity="1"></path><path clip-path="url(#clip240)" d="M779.861 14.324 L779.861 27.2059 L795.214 27.2059 L795.214 32.9987 L779.861 32.9987 L779.861 57.6282 Q779.861 63.1779 781.36 64.7578 Q782.899 66.3376 787.558 66.3376 L795.214 66.3376 L795.214 72.576 L787.558 72.576 Q778.93 72.576 775.648 69.3758 Q772.367 66.1351 772.367 57.6282 L772.367 32.9987 L766.898 32.9987 L766.898 27.2059 L772.367 27.2059 L772.367 14.324 L779.861 14.324 Z" fill="#000000" fill-rule="nonzero" fill-opacity="1"></path><path clip-path="url(#clip240)" d="M812.228 65.7705 L812.228 89.8329 L804.734 89.8329 L804.734 27.2059 L812.228 27.2059 L812.228 34.0924 Q814.578 30.0415 818.142 28.0971 Q821.748 26.1121 826.73 26.1121 Q834.994 26.1121 840.139 32.6746 Q845.324 39.2371 845.324 49.9314 Q845.324 60.6258 840.139 67.1883 Q834.994 73.7508 826.73 73.7508 Q821.748 73.7508 818.142 71.8063 Q814.578 69.8214 812.228 65.7705 M837.587 49.9314 Q837.587 41.7081 834.184 37.0496 Q830.822 32.3505 824.907 32.3505 Q818.993 32.3505 815.59 37.0496 Q812.228 41.7081 812.228 49.9314 Q812.228 58.1548 815.59 62.8538 Q818.993 67.5124 824.907 67.5124 Q830.822 67.5124 834.184 62.8538 Q837.587 58.1548 837.587 49.9314 Z" fill="#000000" fill-rule="nonzero" fill-opacity="1"></path><path clip-path="url(#clip240)" d="M875.26 32.4315 Q869.265 32.4315 865.781 37.1306 Q862.297 41.7891 862.297 49.9314 Q862.297 58.0738 865.74 62.7728 Q869.224 67.4314 875.26 67.4314 Q881.215 67.4314 884.699 62.7323 Q888.182 58.0333 888.182 49.9314 Q888.182 41.8701 884.699 37.1711 Q881.215 32.4315 875.26 32.4315 M875.26 26.1121 Q884.982 26.1121 890.532 32.4315 Q896.082 38.7509 896.082 49.9314 Q896.082 61.0714 890.532 67.4314 Q884.982 73.7508 875.26 73.7508 Q865.497 73.7508 859.948 67.4314 Q854.438 61.0714 854.438 49.9314 Q854.438 38.7509 859.948 32.4315 Q865.497 26.1121 875.26 26.1121 Z" fill="#000000" fill-rule="nonzero" fill-opacity="1"></path><path clip-path="url(#clip240)" d="M908.437 9.54393 L915.891 9.54393 L915.891 72.576 L908.437 72.576 L908.437 9.54393 Z" fill="#000000" fill-rule="nonzero" fill-opacity="1"></path><path clip-path="url(#clip240)" d="M970.294 48.0275 L970.294 51.6733 L936.024 51.6733 Q936.51 59.3701 940.642 63.421 Q944.814 67.4314 952.227 67.4314 Q956.521 67.4314 960.532 66.3781 Q964.582 65.3249 968.552 63.2184 L968.552 70.267 Q964.542 71.9684 960.329 72.8596 Q956.116 73.7508 951.782 73.7508 Q940.925 73.7508 934.565 67.4314 Q928.246 61.1119 928.246 50.3365 Q928.246 39.1965 934.241 32.6746 Q940.277 26.1121 950.485 26.1121 Q959.64 26.1121 964.947 32.0264 Q970.294 37.9003 970.294 48.0275 M962.841 45.84 Q962.76 39.7232 959.397 36.0774 Q956.076 32.4315 950.566 32.4315 Q944.328 32.4315 940.561 35.9558 Q936.834 39.4801 936.267 45.8805 L962.841 45.84 Z" fill="#000000" fill-rule="nonzero" fill-opacity="1"></path><path clip-path="url(#clip240)" d="M1000.84 12.096 L1052 12.096 L1052 18.9825 L1030.53 18.9825 L1030.53 72.576 L1022.31 72.576 L1022.31 18.9825 L1000.84 18.9825 L1000.84 12.096 Z" fill="#000000" fill-rule="nonzero" fill-opacity="1"></path><path clip-path="url(#clip240)" d="M1075.5 72.576 L1052.41 12.096 L1060.95 12.096 L1080.11 63.0159 L1099.32 12.096 L1107.82 12.096 L1084.77 72.576 L1075.5 72.576 Z" fill="#000000" fill-rule="nonzero" fill-opacity="1"></path><path clip-path="url(#clip240)" d="M1116.65 12.096 L1124.84 12.096 L1124.84 65.6895 L1154.29 65.6895 L1154.29 72.576 L1116.65 72.576 L1116.65 12.096 Z" fill="#000000" fill-rule="nonzero" fill-opacity="1"></path><path clip-path="url(#clip240)" d="M1187.42 17.6457 Q1178.51 17.6457 1173.24 24.2892 Q1168.02 30.9327 1168.02 42.3968 Q1168.02 53.8203 1173.24 60.4638 Q1178.51 67.1073 1187.42 67.1073 Q1196.33 67.1073 1201.52 60.4638 Q1206.75 53.8203 1206.75 42.3968 Q1206.75 30.9327 1201.52 24.2892 Q1196.33 17.6457 1187.42 17.6457 M1198.89 71.4823 L1209.66 83.2704 L1199.78 83.2704 L1190.83 73.5887 Q1189.49 73.6697 1188.76 73.7103 Q1188.07 73.7508 1187.42 73.7508 Q1174.66 73.7508 1167.01 65.2439 Q1159.39 56.6965 1159.39 42.3968 Q1159.39 28.0566 1167.01 19.5497 Q1174.66 11.0023 1187.42 11.0023 Q1200.14 11.0023 1207.76 19.5497 Q1215.37 28.0566 1215.37 42.3968 Q1215.37 52.9291 1211.12 60.4233 Q1206.91 67.9175 1198.89 71.4823 Z" fill="#000000" fill-rule="nonzero" fill-opacity="1"></path><path clip-path="url(#clip240)" d="M1256.86 44.2197 Q1259.49 45.1109 1261.96 48.0275 Q1264.47 50.9442 1266.98 56.0483 L1275.29 72.576 L1266.5 72.576 L1258.76 57.061 Q1255.76 50.9847 1252.93 48.9997 Q1250.13 47.0148 1245.27 47.0148 L1236.36 47.0148 L1236.36 72.576 L1228.17 72.576 L1228.17 12.096 L1246.65 12.096 Q1257.02 12.096 1262.12 16.4305 Q1267.23 20.7649 1267.23 29.5149 Q1267.23 35.2267 1264.55 38.994 Q1261.92 42.7613 1256.86 44.2197 M1236.36 18.8205 L1236.36 40.2903 L1246.65 40.2903 Q1252.56 40.2903 1255.56 37.5762 Q1258.6 34.8216 1258.6 29.5149 Q1258.6 24.2082 1255.56 21.5346 Q1252.56 18.8205 1246.65 18.8205 L1236.36 18.8205 Z" fill="#000000" fill-rule="nonzero" fill-opacity="1"></path><path clip-path="url(#clip240)" d="M1329.77 9.62495 Q1324.34 18.942 1321.71 28.0566 Q1319.08 37.1711 1319.08 46.5287 Q1319.08 55.8863 1321.71 65.0818 Q1324.38 74.2369 1329.77 83.5134 L1323.29 83.5134 Q1317.21 73.9938 1314.18 64.7983 Q1311.18 55.6027 1311.18 46.5287 Q1311.18 37.4952 1314.18 28.3401 Q1317.17 19.1851 1323.29 9.62495 L1329.77 9.62495 Z" fill="#000000" fill-rule="nonzero" fill-opacity="1"></path><path clip-path="url(#clip240)" d="M1340.47 46.5287 L1362.3 46.5287 L1362.3 53.1722 L1340.47 53.1722 L1340.47 46.5287 Z" fill="#000000" fill-rule="nonzero" fill-opacity="1"></path><path clip-path="url(#clip240)" d="M1370.4 46.5287 L1392.24 46.5287 L1392.24 53.1722 L1370.4 53.1722 L1370.4 46.5287 Z" fill="#000000" fill-rule="nonzero" fill-opacity="1"></path><path clip-path="url(#clip240)" d="M1430.48 27.2059 L1437.93 27.2059 L1437.93 72.576 L1430.48 72.576 L1430.48 27.2059 M1430.48 9.54393 L1437.93 9.54393 L1437.93 18.9825 L1430.48 18.9825 L1430.48 9.54393 Z" fill="#000000" fill-rule="nonzero" fill-opacity="1"></path><path clip-path="url(#clip240)" d="M1482.45 28.5427 L1482.45 35.5912 Q1479.29 33.9709 1475.89 33.1607 Q1472.48 32.3505 1468.84 32.3505 Q1463.29 32.3505 1460.49 34.0519 Q1457.74 35.7533 1457.74 39.156 Q1457.74 41.7486 1459.72 43.2475 Q1461.71 44.7058 1467.7 46.0426 L1470.26 46.6097 Q1478.2 48.3111 1481.52 51.4303 Q1484.88 54.509 1484.88 60.0587 Q1484.88 66.3781 1479.86 70.0644 Q1474.87 73.7508 1466.12 73.7508 Q1462.48 73.7508 1458.51 73.0216 Q1454.58 72.3329 1450.2 70.9151 L1450.2 63.2184 Q1454.34 65.3654 1458.35 66.4591 Q1462.36 67.5124 1466.29 67.5124 Q1471.55 67.5124 1474.39 65.73 Q1477.22 63.9071 1477.22 60.6258 Q1477.22 57.5877 1475.16 55.9673 Q1473.13 54.3469 1466.21 52.8481 L1463.61 52.2405 Q1456.69 50.7821 1453.61 47.7845 Q1450.53 44.7463 1450.53 39.4801 Q1450.53 33.0797 1455.07 29.5959 Q1459.6 26.1121 1467.95 26.1121 Q1472.08 26.1121 1475.73 26.7198 Q1479.37 27.3274 1482.45 28.5427 Z" fill="#000000" fill-rule="nonzero" fill-opacity="1"></path><path clip-path="url(#clip240)" d="M1549.41 34.1734 Q1548.16 33.4443 1546.66 33.1202 Q1545.2 32.7556 1543.42 32.7556 Q1537.1 32.7556 1533.69 36.8875 Q1530.33 40.9789 1530.33 48.6757 L1530.33 72.576 L1522.84 72.576 L1522.84 27.2059 L1530.33 27.2059 L1530.33 34.2544 Q1532.68 30.1225 1536.45 28.1376 Q1540.22 26.1121 1545.6 26.1121 Q1546.37 26.1121 1547.31 26.2337 Q1548.24 26.3147 1549.37 26.5172 L1549.41 34.1734 Z" fill="#000000" fill-rule="nonzero" fill-opacity="1"></path><path clip-path="url(#clip240)" d="M1594.21 48.0275 L1594.21 51.6733 L1559.94 51.6733 Q1560.43 59.3701 1564.56 63.421 Q1568.73 67.4314 1576.15 67.4314 Q1580.44 67.4314 1584.45 66.3781 Q1588.5 65.3249 1592.47 63.2184 L1592.47 70.267 Q1588.46 71.9684 1584.25 72.8596 Q1580.04 73.7508 1575.7 73.7508 Q1564.85 73.7508 1558.49 67.4314 Q1552.17 61.1119 1552.17 50.3365 Q1552.17 39.1965 1558.16 32.6746 Q1564.2 26.1121 1574.41 26.1121 Q1583.56 26.1121 1588.87 32.0264 Q1594.21 37.9003 1594.21 48.0275 M1586.76 45.84 Q1586.68 39.7232 1583.32 36.0774 Q1580 32.4315 1574.49 32.4315 Q1568.25 32.4315 1564.48 35.9558 Q1560.75 39.4801 1560.19 45.8805 L1586.76 45.84 Z" fill="#000000" fill-rule="nonzero" fill-opacity="1"></path><path clip-path="url(#clip240)" d="M1629.42 9.54393 L1629.42 15.7418 L1622.29 15.7418 Q1618.28 15.7418 1616.7 17.3622 Q1615.16 18.9825 1615.16 23.1955 L1615.16 27.2059 L1627.43 27.2059 L1627.43 32.9987 L1615.16 32.9987 L1615.16 72.576 L1607.66 72.576 L1607.66 32.9987 L1600.53 32.9987 L1600.53 27.2059 L1607.66 27.2059 L1607.66 24.0462 Q1607.66 16.471 1611.19 13.0277 Q1614.71 9.54393 1622.37 9.54393 L1629.42 9.54393 Z" fill="#000000" fill-rule="nonzero" fill-opacity="1"></path><path clip-path="url(#clip240)" d="M1674.46 48.0275 L1674.46 51.6733 L1640.19 51.6733 Q1640.68 59.3701 1644.81 63.421 Q1648.98 67.4314 1656.4 67.4314 Q1660.69 67.4314 1664.7 66.3781 Q1668.75 65.3249 1672.72 63.2184 L1672.72 70.267 Q1668.71 71.9684 1664.5 72.8596 Q1660.28 73.7508 1655.95 73.7508 Q1645.09 73.7508 1638.73 67.4314 Q1632.41 61.1119 1632.41 50.3365 Q1632.41 39.1965 1638.41 32.6746 Q1644.45 26.1121 1654.65 26.1121 Q1663.81 26.1121 1669.12 32.0264 Q1674.46 37.9003 1674.46 48.0275 M1667.01 45.84 Q1666.93 39.7232 1663.57 36.0774 Q1660.24 32.4315 1654.74 32.4315 Q1648.5 32.4315 1644.73 35.9558 Q1641 39.4801 1640.44 45.8805 L1667.01 45.84 Z" fill="#000000" fill-rule="nonzero" fill-opacity="1"></path><path clip-path="url(#clip240)" d="M1712.99 34.1734 Q1711.73 33.4443 1710.23 33.1202 Q1708.77 32.7556 1706.99 32.7556 Q1700.67 32.7556 1697.27 36.8875 Q1693.91 40.9789 1693.91 48.6757 L1693.91 72.576 L1686.41 72.576 L1686.41 27.2059 L1693.91 27.2059 L1693.91 34.2544 Q1696.26 30.1225 1700.02 28.1376 Q1703.79 26.1121 1709.18 26.1121 Q1709.95 26.1121 1710.88 26.2337 Q1711.81 26.3147 1712.95 26.5172 L1712.99 34.1734 Z" fill="#000000" fill-rule="nonzero" fill-opacity="1"></path><path clip-path="url(#clip240)" d="M1757.79 48.0275 L1757.79 51.6733 L1723.52 51.6733 Q1724.01 59.3701 1728.14 63.421 Q1732.31 67.4314 1739.72 67.4314 Q1744.02 67.4314 1748.03 66.3781 Q1752.08 65.3249 1756.05 63.2184 L1756.05 70.267 Q1752.04 71.9684 1747.82 72.8596 Q1743.61 73.7508 1739.28 73.7508 Q1728.42 73.7508 1722.06 67.4314 Q1715.74 61.1119 1715.74 50.3365 Q1715.74 39.1965 1721.74 32.6746 Q1727.77 26.1121 1737.98 26.1121 Q1747.14 26.1121 1752.44 32.0264 Q1757.79 37.9003 1757.79 48.0275 M1750.34 45.84 Q1750.26 39.7232 1746.89 36.0774 Q1743.57 32.4315 1738.06 32.4315 Q1731.82 32.4315 1728.06 35.9558 Q1724.33 39.4801 1723.76 45.8805 L1750.34 45.84 Z" fill="#000000" fill-rule="nonzero" fill-opacity="1"></path><path clip-path="url(#clip240)" d="M1807.74 45.1919 L1807.74 72.576 L1800.28 72.576 L1800.28 45.4349 Q1800.28 38.994 1797.77 35.7938 Q1795.26 32.5936 1790.24 32.5936 Q1784.2 32.5936 1780.72 36.4419 Q1777.23 40.2903 1777.23 46.9338 L1777.23 72.576 L1769.74 72.576 L1769.74 27.2059 L1777.23 27.2059 L1777.23 34.2544 Q1779.91 30.163 1783.51 28.1376 Q1787.16 26.1121 1791.9 26.1121 Q1799.72 26.1121 1803.73 30.9732 Q1807.74 35.7938 1807.74 45.1919 Z" fill="#000000" fill-rule="nonzero" fill-opacity="1"></path><path clip-path="url(#clip240)" d="M1855.25 28.9478 L1855.25 35.9153 Q1852.1 34.1734 1848.89 33.3227 Q1845.74 32.4315 1842.49 32.4315 Q1835.24 32.4315 1831.23 37.0496 Q1827.22 41.6271 1827.22 49.9314 Q1827.22 58.2358 1831.23 62.8538 Q1835.24 67.4314 1842.49 67.4314 Q1845.74 67.4314 1848.89 66.5807 Q1852.1 65.6895 1855.25 63.9476 L1855.25 70.8341 Q1852.14 72.2924 1848.77 73.0216 Q1845.45 73.7508 1841.68 73.7508 Q1831.44 73.7508 1825.4 67.3098 Q1819.36 60.8689 1819.36 49.9314 Q1819.36 38.832 1825.44 32.472 Q1831.56 26.1121 1842.17 26.1121 Q1845.61 26.1121 1848.89 26.8413 Q1852.18 27.5299 1855.25 28.9478 Z" fill="#000000" fill-rule="nonzero" fill-opacity="1"></path><path clip-path="url(#clip240)" d="M1907.03 48.0275 L1907.03 51.6733 L1872.75 51.6733 Q1873.24 59.3701 1877.37 63.421 Q1881.55 67.4314 1888.96 67.4314 Q1893.25 67.4314 1897.26 66.3781 Q1901.31 65.3249 1905.28 63.2184 L1905.28 70.267 Q1901.27 71.9684 1897.06 72.8596 Q1892.85 73.7508 1888.51 73.7508 Q1877.66 73.7508 1871.3 67.4314 Q1864.98 61.1119 1864.98 50.3365 Q1864.98 39.1965 1870.97 32.6746 Q1877.01 26.1121 1887.22 26.1121 Q1896.37 26.1121 1901.68 32.0264 Q1907.03 37.9003 1907.03 48.0275 M1899.57 45.84 Q1899.49 39.7232 1896.13 36.0774 Q1892.81 32.4315 1887.3 32.4315 Q1881.06 32.4315 1877.29 35.9558 Q1873.56 39.4801 1873 45.8805 L1899.57 45.84 Z" fill="#000000" fill-rule="nonzero" fill-opacity="1"></path><path clip-path="url(#clip240)" d="M1918.08 9.62495 L1924.57 9.62495 Q1930.64 19.1851 1933.64 28.3401 Q1936.68 37.4952 1936.68 46.5287 Q1936.68 55.6027 1933.64 64.7983 Q1930.64 73.9938 1924.57 83.5134 L1918.08 83.5134 Q1923.47 74.2369 1926.11 65.0818 Q1928.78 55.8863 1928.78 46.5287 Q1928.78 37.1711 1926.11 28.0566 Q1923.47 18.942 1918.08 9.62495 Z" fill="#000000" fill-rule="nonzero" fill-opacity="1"></path><polyline clip-path="url(#clip242)" style="stroke:#ff0000; stroke-linecap:round; stroke-linejoin:round; stroke-width:4; stroke-opacity:1; fill:none" stroke-dasharray="16, 10" points="271.009,1072.36 296.273,1070.92 321.537,1066.79 346.801,1060.38 372.065,1052.26 397.329,1043.1 422.592,1033.54 447.856,1024.13 473.12,1015.34 498.384,1007.58 523.648,1001.34 548.912,997.257 574.176,996.13 599.44,998.84 624.704,1005.86 649.968,1016.51 675.232,1029.05 700.496,1041.74 725.76,1053.56 751.023,1064.05 776.287,1073.05 801.551,1080.6 826.815,1086.82 852.079,1091.84 877.343,1095.83 902.607,1098.93 927.871,1101.29 953.135,1103.03 978.399,1104.25 1003.66,1105.02 1028.93,1105.44 1054.19,1105.54 1079.45,1105.39 1104.72,1105.02 1129.98,1104.47 1155.25,1103.76 1180.51,1102.94 1205.77,1102 1231.04,1100.99 1256.3,1099.91 1281.57,1098.77 1306.83,1097.6 1332.09,1096.4 1357.36,1095.18 1382.62,1093.96 1407.89,1092.73 1433.15,1091.52 1458.41,1090.32 1483.68,1089.14 1508.94,1087.98 1534.2,1086.85 1559.47,1085.76 1584.73,1084.7 1610,1083.68 1635.26,1082.69 1660.52,1081.75 1685.79,1080.85 1711.05,1079.99 1736.32,1079.17 1761.58,1078.4 1786.84,1077.66 1812.11,1076.97 1837.37,1076.32 1862.64,1075.72 1887.9,1075.15 1913.16,1074.62 1938.43,1074.12 1963.69,1073.66 1988.96,1073.24 2014.22,1072.85 2039.48,1072.49 2064.75,1072.16 2090.01,1071.86 2115.28,1071.59 2140.54,1071.34 2165.8,1071.12 2191.07,1070.91 2216.33,1070.74 2241.59,1070.58 2266.86,1070.43 2292.12,1070.31 "></polyline>
<polyline clip-path="url(#clip242)" style="stroke:#008000; stroke-linecap:round; stroke-linejoin:round; stroke-width:4; stroke-opacity:1; fill:none" stroke-dasharray="16, 10" points="271.009,1072.36 296.273,1075.2 321.537,1083.29 346.801,1095.37 372.065,1109.66 397.329,1124.15 422.592,1136.92 447.856,1146.43 473.12,1151.56 498.384,1151.47 523.648,1145.39 548.912,1132.44 574.176,1111.48 599.44,1081.42 624.704,1042.41 649.968,997.859 675.232,953.526 700.496,913.727 725.76,879.904 751.023,851.757 776.287,828.401 801.551,808.914 826.815,792.523 852.079,778.634 877.343,766.801 902.607,756.685 927.871,748.025 953.135,740.61 978.399,734.261 1003.66,728.831 1028.93,724.188 1054.19,720.219 1079.45,716.827 1104.72,713.926 1129.98,711.443 1155.25,709.316 1180.51,707.49 1205.77,705.922 1231.04,704.572 1256.3,703.407 1281.57,702.402 1306.83,701.532 1332.09,700.779 1357.36,700.127 1382.62,699.562 1407.89,699.072 1433.15,698.649 1458.41,698.283 1483.68,697.968 1508.94,697.697 1534.2,697.466 1559.47,697.271 1584.73,697.106 1610,696.97 1635.26,696.858 1660.52,696.768 1685.79,696.698 1711.05,696.646 1736.32,696.609 1761.58,696.585 1786.84,696.574 1812.11,696.574 1837.37,696.583 1862.64,696.6 1887.9,696.624 1913.16,696.653 1938.43,696.688 1963.69,696.727 1988.96,696.77 2014.22,696.815 2039.48,696.862 2064.75,696.91 2090.01,696.959 2115.28,697.008 2140.54,697.056 2165.8,697.104 2191.07,697.15 2216.33,697.193 2241.59,697.232 2266.86,697.267 2292.12,697.294 "></polyline>
<polyline clip-path="url(#clip242)" style="stroke:#0000ff; stroke-linecap:round; stroke-linejoin:round; stroke-width:4; stroke-opacity:1; fill:none" stroke-dasharray="16, 10" points="271.009,1072.36 296.273,1015.18 321.537,964.497 346.801,923.956 372.065,896.297 397.329,882.195 422.592,880.214 447.856,888.157 473.12,904.602 498.384,929.769 523.648,965.697 548.912,1015.91 574.176,1083.96 599.44,1168.66 624.704,1254.59 649.968,1313.3 675.232,1331.85 700.496,1321.59 725.76,1297.26 751.023,1267.78 776.287,1237.75 801.551,1209.45 826.815,1183.96 852.079,1161.67 877.343,1142.56 902.607,1126.37 927.871,1112.77 953.135,1101.38 978.399,1091.85 1003.66,1083.89 1028.93,1077.21 1054.19,1071.61 1079.45,1066.91 1104.72,1062.97 1129.98,1059.67 1155.25,1056.92 1180.51,1054.64 1205.77,1052.78 1231.04,1051.28 1256.3,1050.1 1281.57,1049.21 1306.83,1048.56 1332.09,1048.13 1357.36,1047.9 1382.62,1047.84 1407.89,1047.94 1433.15,1048.17 1458.41,1048.51 1483.68,1048.96 1508.94,1049.5 1534.2,1050.11 1559.47,1050.79 1584.73,1051.51 1610,1052.28 1635.26,1053.08 1660.52,1053.9 1685.79,1054.74 1711.05,1055.59 1736.32,1056.44 1761.58,1057.29 1786.84,1058.13 1812.11,1058.97 1837.37,1059.78 1862.64,1060.58 1887.9,1061.36 1913.16,1062.11 1938.43,1062.84 1963.69,1063.54 1988.96,1064.22 2014.22,1064.86 2039.48,1065.48 2064.75,1066.07 2090.01,1066.63 2115.28,1067.16 2140.54,1067.65 2165.8,1068.12 2191.07,1068.56 2216.33,1068.97 2241.59,1069.34 2266.86,1069.68 2292.12,1069.98 "></polyline>
<polyline clip-path="url(#clip242)" style="stroke:#000000; stroke-linecap:round; stroke-linejoin:round; stroke-width:4; stroke-opacity:1; fill:none" stroke-dasharray="16, 10" points="271.009,1072.36 296.273,1185.76 321.537,1280.59 346.801,1344.51 372.065,1368.9 397.329,1352.41 422.592,1300.92 447.856,1223.2 473.12,1126.53 498.384,1014.6 523.648,887.028 548.912,739.75 574.176,567.908 599.44,378.483 624.704,217.416 649.968,160.256 675.232,219.12 700.496,334.444 725.76,455.318 751.023,560.82 776.287,646.88 801.551,715.701 826.815,770.956 852.079,816.003 877.343,853.402 902.607,884.94 927.871,911.828 953.135,934.891 978.399,954.714 1003.66,971.745 1028.93,986.352 1054.19,998.848 1079.45,1009.51 1104.72,1018.6 1129.98,1026.32 1155.25,1032.88 1180.51,1038.46 1205.77,1043.2 1231.04,1047.24 1256.3,1050.68 1281.57,1053.62 1306.83,1056.14 1332.09,1058.31 1357.36,1060.18 1382.62,1061.81 1407.89,1063.22 1433.15,1064.46 1458.41,1065.54 1483.68,1066.5 1508.94,1067.34 1534.2,1068.09 1559.47,1068.76 1584.73,1069.35 1610,1069.87 1635.26,1070.34 1660.52,1070.76 1685.79,1071.13 1711.05,1071.46 1736.32,1071.76 1761.58,1072.02 1786.84,1072.25 1812.11,1072.45 1837.37,1072.62 1862.64,1072.77 1887.9,1072.9 1913.16,1073.01 1938.43,1073.1 1963.69,1073.18 1988.96,1073.24 2014.22,1073.28 2039.48,1073.31 2064.75,1073.33 2090.01,1073.34 2115.28,1073.34 2140.54,1073.33 2165.8,1073.3 2191.07,1073.25 2216.33,1073.19 2241.59,1073.1 2266.86,1072.99 2292.12,1072.82 "></polyline>
<polyline clip-path="url(#clip242)" style="stroke:#ff0000; stroke-linecap:round; stroke-linejoin:round; stroke-width:4; stroke-opacity:1; fill:none" points="271.009,1072.36 296.273,1071.16 321.537,1067.65 346.801,1062.02 372.065,1054.67 397.329,1046.07 422.592,1036.79 447.856,1027.36 473.12,1018.26 498.384,1009.97 523.648,1002.96 548.912,997.835 574.176,995.344 599.44,996.389 624.704,1001.8 649.968,1011.86 675.232,1025.68 700.496,1041.18 725.76,1055.9 751.023,1068.62 776.287,1079.6 801.551,1089.46 826.815,1098.74 852.079,1107.74 877.343,1116.62 902.607,1125.36 927.871,1133.89 953.135,1142.07 978.399,1149.77 1003.66,1156.84 1028.93,1163.15 1054.19,1168.59 1079.45,1173.07 1104.72,1176.53 1129.98,1178.95 1155.25,1180.32 1180.51,1180.67 1205.77,1180.05 1231.04,1178.52 1256.3,1176.18 1281.57,1173.12 1306.83,1169.46 1332.09,1165.29 1357.36,1160.72 1382.62,1155.87 1407.89,1150.83 1433.15,1145.68 1458.41,1140.51 1483.68,1135.39 1508.94,1130.37 1534.2,1125.5 1559.47,1120.82 1584.73,1116.36 1610,1112.14 1635.26,1108.18 1660.52,1104.49 1685.79,1101.06 1711.05,1097.9 1736.32,1095 1761.58,1092.34 1786.84,1089.92 1812.11,1087.72 1837.37,1085.73 1862.64,1083.93 1887.9,1082.3 1913.16,1080.84 1938.43,1079.51 1963.69,1078.32 1988.96,1077.24 2014.22,1076.27 2039.48,1075.39 2064.75,1074.6 2090.01,1073.88 2115.28,1073.23 2140.54,1072.64 2165.8,1072.1 2191.07,1071.6 2216.33,1071.15 2241.59,1070.73 2266.86,1070.34 2292.12,1069.98 "></polyline>
<polyline clip-path="url(#clip242)" style="stroke:#008000; stroke-linecap:round; stroke-linejoin:round; stroke-width:4; stroke-opacity:1; fill:none" points="271.009,1072.36 296.273,1074.52 321.537,1080.78 346.801,1090.49 372.065,1102.5 397.329,1115.35 422.592,1127.51 447.856,1137.55 473.12,1144.32 498.384,1146.9 523.648,1144.47 548.912,1136.21 574.176,1121.13 599.44,1098.04 624.704,1066.11 649.968,1026.14 675.232,981.829 700.496,938.743 725.76,900.788 751.023,868.529 776.287,841.124 801.551,817.975 826.815,798.763 852.079,783.212 877.343,770.966 902.607,761.582 927.871,754.566 953.135,749.429 978.399,745.713 1003.66,743.016 1028.93,740.993 1054.19,739.361 1079.45,737.897 1104.72,736.431 1129.98,734.842 1155.25,733.052 1180.51,731.021 1205.77,728.739 1231.04,726.224 1256.3,723.511 1281.57,720.651 1306.83,717.702 1332.09,714.725 1357.36,711.781 1382.62,708.925 1407.89,706.206 1433.15,703.663 1458.41,701.328 1483.68,699.22 1508.94,697.352 1534.2,695.73 1559.47,694.352 1584.73,693.211 1610,692.294 1635.26,691.588 1660.52,691.075 1685.79,690.736 1711.05,690.552 1736.32,690.501 1761.58,690.564 1786.84,690.722 1812.11,690.955 1837.37,691.246 1862.64,691.58 1887.9,691.941 1913.16,692.319 1938.43,692.703 1963.69,693.083 1988.96,693.453 2014.22,693.809 2039.48,694.145 2064.75,694.459 2090.01,694.749 2115.28,695.013 2140.54,695.249 2165.8,695.455 2191.07,695.629 2216.33,695.768 2241.59,695.867 2266.86,695.92 2292.12,695.919 "></polyline>
<polyline clip-path="url(#clip242)" style="stroke:#0000ff; stroke-linecap:round; stroke-linejoin:round; stroke-width:4; stroke-opacity:1; fill:none" points="271.009,1072.36 296.273,1024.68 321.537,979.543 346.801,940.372 372.065,910.187 397.329,890.853 422.592,882.665 447.856,884.763 473.12,896.158 498.384,916.725 523.648,947.765 548.912,992.057 574.176,1053.22 599.44,1133.33 624.704,1227.29 649.968,1317.51 675.232,1378.19 700.496,1386.4 725.76,1348.16 751.023,1306.39 776.287,1277.9 801.551,1261.84 826.815,1254.23 852.079,1250.96 877.343,1248.8 902.607,1245.61 927.871,1240.16 953.135,1231.91 978.399,1220.73 1003.66,1206.75 1028.93,1190.32 1054.19,1171.89 1079.45,1152.01 1104.72,1131.24 1129.98,1110.17 1155.25,1089.35 1180.51,1069.29 1205.77,1050.46 1231.04,1033.22 1256.3,1017.85 1281.57,1004.55 1306.83,993.43 1332.09,984.498 1357.36,977.702 1382.62,972.93 1407.89,970.027 1433.15,968.807 1458.41,969.068 1483.68,970.604 1508.94,973.208 1534.2,976.684 1559.47,980.843 1584.73,985.517 1610,990.549 1635.26,995.799 1660.52,1001.15 1685.79,1006.49 1711.05,1011.73 1736.32,1016.81 1761.58,1021.66 1786.84,1026.25 1812.11,1030.54 1837.37,1034.51 1862.64,1038.16 1887.9,1041.5 1913.16,1044.52 1938.43,1047.26 1963.69,1049.72 1988.96,1051.93 2014.22,1053.91 2039.48,1055.69 2064.75,1057.27 2090.01,1058.69 2115.28,1059.96 2140.54,1061.08 2165.8,1062.07 2191.07,1062.93 2216.33,1063.68 2241.59,1064.31 2266.86,1064.82 2292.12,1065.22 "></polyline>
<polyline clip-path="url(#clip242)" style="stroke:#000000; stroke-linecap:round; stroke-linejoin:round; stroke-width:4; stroke-opacity:1; fill:none" points="271.009,1072.36 296.273,1158.4 321.537,1235.94 346.801,1295.12 372.065,1327.62 397.329,1329.04 422.592,1300.05 447.856,1245.14 473.12,1169.73 498.384,1077.69 523.648,970.061 548.912,844.719 574.176,697.209 599.44,525.875 624.704,346.917 649.968,209.897 675.232,174.598 700.496,251.392 725.76,372.689 751.023,478.207 776.287,567.652 801.551,649.106 826.815,725.446 852.079,795.707 877.343,857.822 902.607,910.321 927.871,952.789 953.135,985.653 978.399,1009.84 1003.66,1026.52 1028.93,1036.92 1054.19,1042.25 1079.45,1043.65 1104.72,1042.16 1129.98,1038.7 1155.25,1034.09 1180.51,1029.01 1205.77,1024.04 1231.04,1019.62 1256.3,1016.11 1281.57,1013.7 1306.83,1012.53 1332.09,1012.6 1357.36,1013.85 1382.62,1016.15 1407.89,1019.34 1433.15,1023.24 1458.41,1027.65 1483.68,1032.39 1508.94,1037.31 1534.2,1042.25 1559.47,1047.1 1584.73,1051.75 1610,1056.14 1635.26,1060.2 1660.52,1063.9 1685.79,1067.2 1711.05,1070.1 1736.32,1072.58 1761.58,1074.67 1786.84,1076.37 1812.11,1077.7 1837.37,1078.71 1862.64,1079.41 1887.9,1079.84 1913.16,1080.05 1938.43,1080.06 1963.69,1079.92 1988.96,1079.67 2014.22,1079.32 2039.48,1078.9 2064.75,1078.43 2090.01,1077.92 2115.28,1077.38 2140.54,1076.81 2165.8,1076.19 2191.07,1075.52 2216.33,1074.77 2241.59,1073.91 2266.86,1072.92 2292.12,1071.74 "></polyline>
<path clip-path="url(#clip240)" d="M2043.31 633.356 L2281.34 633.356 L2281.34 166.796 L2043.31 166.796  Z" fill="#ffffff" fill-rule="evenodd" fill-opacity="1"></path>
<polyline clip-path="url(#clip240)" style="stroke:#000000; stroke-linecap:round; stroke-linejoin:round; stroke-width:4; stroke-opacity:1; fill:none" points="2043.31,633.356 2281.34,633.356 2281.34,166.796 2043.31,166.796 2043.31,633.356 "></polyline>
<polyline clip-path="url(#clip240)" style="stroke:#ff0000; stroke-linecap:round; stroke-linejoin:round; stroke-width:4; stroke-opacity:1; fill:none" stroke-dasharray="16, 10" points="2067.11,218.636 2209.94,218.636 "></polyline>
<path clip-path="url(#clip240)" d="M2238.03 232.027 L2238.03 245.777 L2233.74 245.777 L2233.74 209.99 L2238.03 209.99 L2238.03 213.925 Q2239.37 211.61 2241.4 210.499 Q2243.47 209.365 2246.31 209.365 Q2251.03 209.365 2253.97 213.115 Q2256.94 216.865 2256.94 222.976 Q2256.94 229.087 2253.97 232.837 Q2251.03 236.587 2246.31 236.587 Q2243.47 236.587 2241.4 235.476 Q2239.37 234.342 2238.03 232.027 M2252.52 222.976 Q2252.52 218.277 2250.57 215.615 Q2248.65 212.93 2245.27 212.93 Q2241.89 212.93 2239.95 215.615 Q2238.03 218.277 2238.03 222.976 Q2238.03 227.675 2239.95 230.36 Q2241.89 233.022 2245.27 233.022 Q2248.65 233.022 2250.57 230.36 Q2252.52 227.675 2252.52 222.976 Z" fill="#000000" fill-rule="nonzero" fill-opacity="1"></path><path clip-path="url(#clip240)" d="M2240.85 200.592 L2254.69 200.592 L2254.69 204.018 L2240.85 204.018 L2240.85 200.592 Z" fill="#000000" fill-rule="nonzero" fill-opacity="1"></path><polyline clip-path="url(#clip240)" style="stroke:#008000; stroke-linecap:round; stroke-linejoin:round; stroke-width:4; stroke-opacity:1; fill:none" stroke-dasharray="16, 10" points="2067.11,270.476 2209.94,270.476 "></polyline>
<path clip-path="url(#clip240)" d="M2253 271.321 L2238.26 271.321 Q2238.6 278.242 2240.2 281.182 Q2242.19 284.793 2245.64 284.793 Q2249.11 284.793 2251.03 281.159 Q2252.72 277.964 2253 271.321 M2252.93 267.385 Q2252.28 260.811 2251.03 258.497 Q2249.04 254.839 2245.64 254.839 Q2242.1 254.839 2240.22 258.45 Q2238.74 261.367 2238.3 267.385 L2252.93 267.385 M2245.64 251.367 Q2251.2 251.367 2254.37 256.274 Q2257.54 261.159 2257.54 269.816 Q2257.54 278.45 2254.37 283.358 Q2251.2 288.288 2245.64 288.288 Q2240.06 288.288 2236.91 283.358 Q2233.74 278.45 2233.74 269.816 Q2233.74 261.159 2236.91 256.274 Q2240.06 251.367 2245.64 251.367 Z" fill="#000000" fill-rule="nonzero" fill-opacity="1"></path><path clip-path="url(#clip240)" d="M2241.45 252.432 L2255.29 252.432 L2255.29 255.858 L2241.45 255.858 L2241.45 252.432 Z" fill="#000000" fill-rule="nonzero" fill-opacity="1"></path><polyline clip-path="url(#clip240)" style="stroke:#0000ff; stroke-linecap:round; stroke-linejoin:round; stroke-width:4; stroke-opacity:1; fill:none" stroke-dasharray="16, 10" points="2067.11,322.316 2209.94,322.316 "></polyline>
<path clip-path="url(#clip240)" d="M2238.03 335.707 L2238.03 349.457 L2233.74 349.457 L2233.74 313.67 L2238.03 313.67 L2238.03 317.605 Q2239.37 315.29 2241.4 314.179 Q2243.47 313.045 2246.31 313.045 Q2251.03 313.045 2253.97 316.795 Q2256.94 320.545 2256.94 326.656 Q2256.94 332.767 2253.97 336.517 Q2251.03 340.267 2246.31 340.267 Q2243.47 340.267 2241.4 339.156 Q2239.37 338.022 2238.03 335.707 M2252.52 326.656 Q2252.52 321.957 2250.57 319.295 Q2248.65 316.61 2245.27 316.61 Q2241.89 316.61 2239.95 319.295 Q2238.03 321.957 2238.03 326.656 Q2238.03 331.355 2239.95 334.04 Q2241.89 336.702 2245.27 336.702 Q2248.65 336.702 2250.57 334.04 Q2252.52 331.355 2252.52 326.656 Z" fill="#000000" fill-rule="nonzero" fill-opacity="1"></path><path clip-path="url(#clip240)" d="M2245.5 303.577 L2249.76 303.577 L2249.76 308.971 L2245.5 308.971 L2245.5 303.577 M2247.68 313.045 L2247.68 313.045 Z" fill="#000000" fill-rule="nonzero" fill-opacity="1"></path><path clip-path="url(#clip240)" d="M2240.85 304.272 L2254.69 304.272 L2254.69 307.698 L2240.85 307.698 L2240.85 304.272 Z" fill="#000000" fill-rule="nonzero" fill-opacity="1"></path><polyline clip-path="url(#clip240)" style="stroke:#000000; stroke-linecap:round; stroke-linejoin:round; stroke-width:4; stroke-opacity:1; fill:none" stroke-dasharray="16, 10" points="2067.11,374.156 2209.94,374.156 "></polyline>
<path clip-path="url(#clip240)" d="M2253 375.001 L2238.26 375.001 Q2238.6 381.922 2240.2 384.862 Q2242.19 388.473 2245.64 388.473 Q2249.11 388.473 2251.03 384.839 Q2252.72 381.644 2253 375.001 M2252.93 371.065 Q2252.28 364.491 2251.03 362.177 Q2249.04 358.519 2245.64 358.519 Q2242.1 358.519 2240.22 362.13 Q2238.74 365.047 2238.3 371.065 L2252.93 371.065 M2245.64 355.047 Q2251.2 355.047 2254.37 359.954 Q2257.54 364.839 2257.54 373.496 Q2257.54 382.13 2254.37 387.038 Q2251.2 391.968 2245.64 391.968 Q2240.06 391.968 2236.91 387.038 Q2233.74 382.13 2233.74 373.496 Q2233.74 364.839 2236.91 359.954 Q2240.06 355.047 2245.64 355.047 Z" fill="#000000" fill-rule="nonzero" fill-opacity="1"></path><path clip-path="url(#clip240)" d="M2246.1 355.417 L2250.36 355.417 L2250.36 360.811 L2246.1 360.811 L2246.1 355.417 M2248.28 364.885 L2248.28 364.885 Z" fill="#000000" fill-rule="nonzero" fill-opacity="1"></path><path clip-path="url(#clip240)" d="M2241.45 356.112 L2255.29 356.112 L2255.29 359.538 L2241.45 359.538 L2241.45 356.112 Z" fill="#000000" fill-rule="nonzero" fill-opacity="1"></path><polyline clip-path="url(#clip240)" style="stroke:#ff0000; stroke-linecap:round; stroke-linejoin:round; stroke-width:4; stroke-opacity:1; fill:none" points="2067.11,425.996 2209.94,425.996 "></polyline>
<path clip-path="url(#clip240)" d="M2238.03 439.387 L2238.03 453.137 L2233.74 453.137 L2233.74 417.35 L2238.03 417.35 L2238.03 421.285 Q2239.37 418.97 2241.4 417.859 Q2243.47 416.725 2246.31 416.725 Q2251.03 416.725 2253.97 420.475 Q2256.94 424.225 2256.94 430.336 Q2256.94 436.447 2253.97 440.197 Q2251.03 443.947 2246.31 443.947 Q2243.47 443.947 2241.4 442.836 Q2239.37 441.702 2238.03 439.387 M2252.52 430.336 Q2252.52 425.637 2250.57 422.975 Q2248.65 420.29 2245.27 420.29 Q2241.89 420.29 2239.95 422.975 Q2238.03 425.637 2238.03 430.336 Q2238.03 435.035 2239.95 437.72 Q2241.89 440.382 2245.27 440.382 Q2248.65 440.382 2250.57 437.72 Q2252.52 435.035 2252.52 430.336 Z" fill="#000000" fill-rule="nonzero" fill-opacity="1"></path><polyline clip-path="url(#clip240)" style="stroke:#008000; stroke-linecap:round; stroke-linejoin:round; stroke-width:4; stroke-opacity:1; fill:none" points="2067.11,477.836 2209.94,477.836 "></polyline>
<path clip-path="url(#clip240)" d="M2253 478.681 L2238.26 478.681 Q2238.6 485.602 2240.2 488.542 Q2242.19 492.153 2245.64 492.153 Q2249.11 492.153 2251.03 488.519 Q2252.72 485.324 2253 478.681 M2252.93 474.745 Q2252.28 468.171 2251.03 465.857 Q2249.04 462.199 2245.64 462.199 Q2242.1 462.199 2240.22 465.81 Q2238.74 468.727 2238.3 474.745 L2252.93 474.745 M2245.64 458.727 Q2251.2 458.727 2254.37 463.634 Q2257.54 468.519 2257.54 477.176 Q2257.54 485.81 2254.37 490.718 Q2251.2 495.648 2245.64 495.648 Q2240.06 495.648 2236.91 490.718 Q2233.74 485.81 2233.74 477.176 Q2233.74 468.519 2236.91 463.634 Q2240.06 458.727 2245.64 458.727 Z" fill="#000000" fill-rule="nonzero" fill-opacity="1"></path><polyline clip-path="url(#clip240)" style="stroke:#0000ff; stroke-linecap:round; stroke-linejoin:round; stroke-width:4; stroke-opacity:1; fill:none" points="2067.11,529.676 2209.94,529.676 "></polyline>
<path clip-path="url(#clip240)" d="M2238.03 543.067 L2238.03 556.817 L2233.74 556.817 L2233.74 521.03 L2238.03 521.03 L2238.03 524.965 Q2239.37 522.65 2241.4 521.539 Q2243.47 520.405 2246.31 520.405 Q2251.03 520.405 2253.97 524.155 Q2256.94 527.905 2256.94 534.016 Q2256.94 540.127 2253.97 543.877 Q2251.03 547.627 2246.31 547.627 Q2243.47 547.627 2241.4 546.516 Q2239.37 545.382 2238.03 543.067 M2252.52 534.016 Q2252.52 529.317 2250.57 526.655 Q2248.65 523.97 2245.27 523.97 Q2241.89 523.97 2239.95 526.655 Q2238.03 529.317 2238.03 534.016 Q2238.03 538.715 2239.95 541.4 Q2241.89 544.062 2245.27 544.062 Q2248.65 544.062 2250.57 541.4 Q2252.52 538.715 2252.52 534.016 Z" fill="#000000" fill-rule="nonzero" fill-opacity="1"></path><path clip-path="url(#clip240)" d="M2245.5 510.937 L2249.76 510.937 L2249.76 516.331 L2245.5 516.331 L2245.5 510.937 M2247.68 520.405 L2247.68 520.405 Z" fill="#000000" fill-rule="nonzero" fill-opacity="1"></path><polyline clip-path="url(#clip240)" style="stroke:#000000; stroke-linecap:round; stroke-linejoin:round; stroke-width:4; stroke-opacity:1; fill:none" points="2067.11,581.516 2209.94,581.516 "></polyline>
<path clip-path="url(#clip240)" d="M2253 582.361 L2238.26 582.361 Q2238.6 589.282 2240.2 592.222 Q2242.19 595.833 2245.64 595.833 Q2249.11 595.833 2251.03 592.199 Q2252.72 589.004 2253 582.361 M2252.93 578.425 Q2252.28 571.851 2251.03 569.537 Q2249.04 565.879 2245.64 565.879 Q2242.1 565.879 2240.22 569.49 Q2238.74 572.407 2238.3 578.425 L2252.93 578.425 M2245.64 562.407 Q2251.2 562.407 2254.37 567.314 Q2257.54 572.199 2257.54 580.856 Q2257.54 589.49 2254.37 594.398 Q2251.2 599.328 2245.64 599.328 Q2240.06 599.328 2236.91 594.398 Q2233.74 589.49 2233.74 580.856 Q2233.74 572.199 2236.91 567.314 Q2240.06 562.407 2245.64 562.407 Z" fill="#000000" fill-rule="nonzero" fill-opacity="1"></path><path clip-path="url(#clip240)" d="M2246.1 562.777 L2250.36 562.777 L2250.36 568.171 L2246.1 568.171 L2246.1 562.777 M2248.28 572.245 L2248.28 572.245 Z" fill="#000000" fill-rule="nonzero" fill-opacity="1"></path></svg>