<svg xmlns="http://www.w3.org/2000/svg" xmlns:xlink="http://www.w3.org/1999/xlink" width="600" height="400" viewBox="0 0 2400 1600">
<defs>
  <clipPath id="clip650">
    <rect x="0" y="0" width="2400" height="1600"></rect>
  </clipPath>
</defs>
<path clip-path="url(#clip650)" d="M0 1600 L2400 1600 L2400 0 L0 0  Z" fill="#ffffff" fill-rule="evenodd" fill-opacity="1"></path>
<defs>
  <clipPath id="clip651">
    <rect x="480" y="0" width="1681" height="1600"></rect>
  </clipPath>
</defs>
<path clip-path="url(#clip650)" d="M175.445 1423.18 L2352.76 1423.18 L2352.76 123.472 L175.445 123.472  Z" fill="#ffffff" fill-rule="evenodd" fill-opacity="1"></path>
<defs>
  <clipPath id="clip652">
    <rect x="175" y="123" width="2178" height="1301"></rect>
  </clipPath>
</defs>
<polyline clip-path="url(#clip652)" style="stroke:#000000; stroke-linecap:round; stroke-linejoin:round; stroke-width:2; stroke-opacity:0.1; fill:none" points="245.933,1423.18 245.933,123.472 "></polyline>
<polyline clip-path="url(#clip652)" style="stroke:#000000; stroke-linecap:round; stroke-linejoin:round; stroke-width:2; stroke-opacity:0.1; fill:none" points="633.691,1423.18 633.691,123.472 "></polyline>
<polyline clip-path="url(#clip652)" style="stroke:#000000; stroke-linecap:round; stroke-linejoin:round; stroke-width:2; stroke-opacity:0.1; fill:none" points="1021.45,1423.18 1021.45,123.472 "></polyline>
<polyline clip-path="url(#clip652)" style="stroke:#000000; stroke-linecap:round; stroke-linejoin:round; stroke-width:2; stroke-opacity:0.1; fill:none" points="1409.21,1423.18 1409.21,123.472 "></polyline>
<polyline clip-path="url(#clip652)" style="stroke:#000000; stroke-linecap:round; stroke-linejoin:round; stroke-width:2; stroke-opacity:0.1; fill:none" points="1796.96,1423.18 1796.96,123.472 "></polyline>
<polyline clip-path="url(#clip652)" style="stroke:#000000; stroke-linecap:round; stroke-linejoin:round; stroke-width:2; stroke-opacity:0.1; fill:none" points="2184.72,1423.18 2184.72,123.472 "></polyline>
<polyline clip-path="url(#clip652)" style="stroke:#000000; stroke-linecap:round; stroke-linejoin:round; stroke-width:2; stroke-opacity:0.1; fill:none" points="175.445,1374.01 2352.76,1374.01 "></polyline>
<polyline clip-path="url(#clip652)" style="stroke:#000000; stroke-linecap:round; stroke-linejoin:round; stroke-width:2; stroke-opacity:0.1; fill:none" points="175.445,1027.23 2352.76,1027.23 "></polyline>
<polyline clip-path="url(#clip652)" style="stroke:#000000; stroke-linecap:round; stroke-linejoin:round; stroke-width:2; stroke-opacity:0.1; fill:none" points="175.445,680.438 2352.76,680.438 "></polyline>
<polyline clip-path="url(#clip652)" style="stroke:#000000; stroke-linecap:round; stroke-linejoin:round; stroke-width:2; stroke-opacity:0.1; fill:none" points="175.445,333.65 2352.76,333.65 "></polyline>
<polyline clip-path="url(#clip650)" style="stroke:#000000; stroke-linecap:round; stroke-linejoin:round; stroke-width:4; stroke-opacity:1; fill:none" points="175.445,1423.18 2352.76,1423.18 "></polyline>
<polyline clip-path="url(#clip650)" style="stroke:#000000; stroke-linecap:round; stroke-linejoin:round; stroke-width:4; stroke-opacity:1; fill:none" points="245.933,1423.18 245.933,1404.28 "></polyline>
<polyline clip-path="url(#clip650)" style="stroke:#000000; stroke-linecap:round; stroke-linejoin:round; stroke-width:4; stroke-opacity:1; fill:none" points="633.691,1423.18 633.691,1404.28 "></polyline>
<polyline clip-path="url(#clip650)" style="stroke:#000000; stroke-linecap:round; stroke-linejoin:round; stroke-width:4; stroke-opacity:1; fill:none" points="1021.45,1423.18 1021.45,1404.28 "></polyline>
<polyline clip-path="url(#clip650)" style="stroke:#000000; stroke-linecap:round; stroke-linejoin:round; stroke-width:4; stroke-opacity:1; fill:none" points="1409.21,1423.18 1409.21,1404.28 "></polyline>
<polyline clip-path="url(#clip650)" style="stroke:#000000; stroke-linecap:round; stroke-linejoin:round; stroke-width:4; stroke-opacity:1; fill:none" points="1796.96,1423.18 1796.96,1404.28 "></polyline>
<polyline clip-path="url(#clip650)" style="stroke:#000000; stroke-linecap:round; stroke-linejoin:round; stroke-width:4; stroke-opacity:1; fill:none" points="2184.72,1423.18 2184.72,1404.28 "></polyline>
<path clip-path="url(#clip650)" d="M245.933 1454.1 Q242.322 1454.1 240.493 1457.66 Q238.687 1461.2 238.687 1468.33 Q238.687 1475.44 240.493 1479.01 Q242.322 1482.55 245.933 1482.55 Q249.567 1482.55 251.373 1479.01 Q253.201 1475.44 253.201 1468.33 Q253.201 1461.2 251.373 1457.66 Q249.567 1454.1 245.933 1454.1 M245.933 1450.39 Q251.743 1450.39 254.799 1455 Q257.877 1459.58 257.877 1468.33 Q257.877 1477.06 254.799 1481.67 Q251.743 1486.25 245.933 1486.25 Q240.123 1486.25 237.044 1481.67 Q233.988 1477.06 233.988 1468.33 Q233.988 1459.58 237.044 1455 Q240.123 1450.39 245.933 1450.39 Z" fill="#000000" fill-rule="nonzero" fill-opacity="1"></path><path clip-path="url(#clip650)" d="M624.073 1481.64 L631.711 1481.64 L631.711 1455.28 L623.401 1456.95 L623.401 1452.69 L631.665 1451.02 L636.341 1451.02 L636.341 1481.64 L643.98 1481.64 L643.98 1485.58 L624.073 1485.58 L624.073 1481.64 Z" fill="#000000" fill-rule="nonzero" fill-opacity="1"></path><path clip-path="url(#clip650)" d="M1016.1 1481.64 L1032.42 1481.64 L1032.42 1485.58 L1010.48 1485.58 L1010.48 1481.64 Q1013.14 1478.89 1017.72 1474.26 Q1022.33 1469.61 1023.51 1468.27 Q1025.75 1465.74 1026.63 1464.01 Q1027.54 1462.25 1027.54 1460.56 Q1027.54 1457.8 1025.59 1456.07 Q1023.67 1454.33 1020.57 1454.33 Q1018.37 1454.33 1015.92 1455.09 Q1013.49 1455.86 1010.71 1457.41 L1010.71 1452.69 Q1013.53 1451.55 1015.99 1450.97 Q1018.44 1450.39 1020.48 1450.39 Q1025.85 1450.39 1029.04 1453.08 Q1032.24 1455.77 1032.24 1460.26 Q1032.24 1462.39 1031.43 1464.31 Q1030.64 1466.2 1028.53 1468.8 Q1027.95 1469.47 1024.85 1472.69 Q1021.75 1475.88 1016.1 1481.64 Z" fill="#000000" fill-rule="nonzero" fill-opacity="1"></path><path clip-path="url(#clip650)" d="M1413.45 1466.95 Q1416.81 1467.66 1418.69 1469.93 Q1420.58 1472.2 1420.58 1475.53 Q1420.58 1480.65 1417.06 1483.45 Q1413.55 1486.25 1407.06 1486.25 Q1404.89 1486.25 1402.57 1485.81 Q1400.28 1485.39 1397.83 1484.54 L1397.83 1480.02 Q1399.77 1481.16 1402.09 1481.74 Q1404.4 1482.32 1406.93 1482.32 Q1411.32 1482.32 1413.62 1480.58 Q1415.93 1478.84 1415.93 1475.53 Q1415.93 1472.48 1413.78 1470.77 Q1411.65 1469.03 1407.83 1469.03 L1403.8 1469.03 L1403.8 1465.19 L1408.01 1465.19 Q1411.46 1465.19 1413.29 1463.82 Q1415.12 1462.43 1415.12 1459.84 Q1415.12 1457.18 1413.22 1455.77 Q1411.35 1454.33 1407.83 1454.33 Q1405.91 1454.33 1403.71 1454.75 Q1401.51 1455.16 1398.87 1456.04 L1398.87 1451.88 Q1401.53 1451.14 1403.85 1450.77 Q1406.19 1450.39 1408.25 1450.39 Q1413.57 1450.39 1416.67 1452.83 Q1419.77 1455.23 1419.77 1459.35 Q1419.77 1462.22 1418.13 1464.21 Q1416.49 1466.18 1413.45 1466.95 Z" fill="#000000" fill-rule="nonzero" fill-opacity="1"></path><path clip-path="url(#clip650)" d="M1799.97 1455.09 L1788.17 1473.54 L1799.97 1473.54 L1799.97 1455.09 M1798.75 1451.02 L1804.63 1451.02 L1804.63 1473.54 L1809.56 1473.54 L1809.56 1477.43 L1804.63 1477.43 L1804.63 1485.58 L1799.97 1485.58 L1799.97 1477.43 L1784.37 1477.43 L1784.37 1472.92 L1798.75 1451.02 Z" fill="#000000" fill-rule="nonzero" fill-opacity="1"></path><path clip-path="url(#clip650)" d="M2175 1451.02 L2193.36 1451.02 L2193.36 1454.96 L2179.28 1454.96 L2179.28 1463.43 Q2180.3 1463.08 2181.32 1462.92 Q2182.34 1462.73 2183.36 1462.73 Q2189.14 1462.73 2192.52 1465.9 Q2195.9 1469.08 2195.9 1474.49 Q2195.9 1480.07 2192.43 1483.17 Q2188.96 1486.25 2182.64 1486.25 Q2180.46 1486.25 2178.19 1485.88 Q2175.95 1485.51 2173.54 1484.77 L2173.54 1480.07 Q2175.62 1481.2 2177.85 1481.76 Q2180.07 1482.32 2182.55 1482.32 Q2186.55 1482.32 2188.89 1480.21 Q2191.23 1478.1 2191.23 1474.49 Q2191.23 1470.88 2188.89 1468.77 Q2186.55 1466.67 2182.55 1466.67 Q2180.67 1466.67 2178.8 1467.08 Q2176.94 1467.5 2175 1468.38 L2175 1451.02 Z" fill="#000000" fill-rule="nonzero" fill-opacity="1"></path><path clip-path="url(#clip650)" d="M1268.37 1532.4 L1255.48 1549.74 L1269.03 1568.04 L1262.13 1568.04 L1251.75 1554.04 L1241.37 1568.04 L1234.47 1568.04 L1248.31 1549.39 L1235.65 1532.4 L1242.55 1532.4 L1252.01 1545.1 L1261.46 1532.4 L1268.37 1532.4 Z" fill="#000000" fill-rule="nonzero" fill-opacity="1"></path><path clip-path="url(#clip650)" d="M1276.13 1564.54 L1282.62 1564.54 L1282.62 1545.1 L1275.53 1546.4 L1275.53 1542.71 L1282.85 1541.47 L1287.21 1541.47 L1287.21 1564.54 L1293.73 1564.54 L1293.73 1568.04 L1276.13 1568.04 L1276.13 1564.54 Z" fill="#000000" fill-rule="nonzero" fill-opacity="1"></path><polyline clip-path="url(#clip650)" style="stroke:#000000; stroke-linecap:round; stroke-linejoin:round; stroke-width:4; stroke-opacity:1; fill:none" points="175.445,1423.18 175.445,123.472 "></polyline>
<polyline clip-path="url(#clip650)" style="stroke:#000000; stroke-linecap:round; stroke-linejoin:round; stroke-width:4; stroke-opacity:1; fill:none" points="175.445,1374.01 194.343,1374.01 "></polyline>
<polyline clip-path="url(#clip650)" style="stroke:#000000; stroke-linecap:round; stroke-linejoin:round; stroke-width:4; stroke-opacity:1; fill:none" points="175.445,1027.23 194.343,1027.23 "></polyline>
<polyline clip-path="url(#clip650)" style="stroke:#000000; stroke-linecap:round; stroke-linejoin:round; stroke-width:4; stroke-opacity:1; fill:none" points="175.445,680.438 194.343,680.438 "></polyline>
<polyline clip-path="url(#clip650)" style="stroke:#000000; stroke-linecap:round; stroke-linejoin:round; stroke-width:4; stroke-opacity:1; fill:none" points="175.445,333.65 194.343,333.65 "></polyline>
<path clip-path="url(#clip650)" d="M127.501 1359.81 Q123.89 1359.81 122.061 1363.38 Q120.255 1366.92 120.255 1374.05 Q120.255 1381.16 122.061 1384.72 Q123.89 1388.26 127.501 1388.26 Q131.135 1388.26 132.941 1384.72 Q134.769 1381.16 134.769 1374.05 Q134.769 1366.92 132.941 1363.38 Q131.135 1359.81 127.501 1359.81 M127.501 1356.11 Q133.311 1356.11 136.367 1360.72 Q139.445 1365.3 139.445 1374.05 Q139.445 1382.78 136.367 1387.38 Q133.311 1391.97 127.501 1391.97 Q121.691 1391.97 118.612 1387.38 Q115.556 1382.78 115.556 1374.05 Q115.556 1365.3 118.612 1360.72 Q121.691 1356.11 127.501 1356.11 Z" fill="#000000" fill-rule="nonzero" fill-opacity="1"></path><path clip-path="url(#clip650)" d="M123.126 1040.57 L139.445 1040.57 L139.445 1044.51 L117.501 1044.51 L117.501 1040.57 Q120.163 1037.82 124.746 1033.19 Q129.353 1028.53 130.533 1027.19 Q132.779 1024.67 133.658 1022.93 Q134.561 1021.17 134.561 1019.48 Q134.561 1016.73 132.617 1014.99 Q130.695 1013.26 127.593 1013.26 Q125.394 1013.26 122.941 1014.02 Q120.51 1014.78 117.732 1016.33 L117.732 1011.61 Q120.556 1010.48 123.01 1009.9 Q125.464 1009.32 127.501 1009.32 Q132.871 1009.32 136.066 1012.01 Q139.26 1014.69 139.26 1019.18 Q139.26 1021.31 138.45 1023.23 Q137.663 1025.13 135.556 1027.72 Q134.978 1028.4 131.876 1031.61 Q128.774 1034.81 123.126 1040.57 Z" fill="#000000" fill-rule="nonzero" fill-opacity="1"></path><path clip-path="url(#clip650)" d="M129.862 667.232 L118.056 685.681 L129.862 685.681 L129.862 667.232 M128.635 663.158 L134.515 663.158 L134.515 685.681 L139.445 685.681 L139.445 689.57 L134.515 689.57 L134.515 697.718 L129.862 697.718 L129.862 689.57 L114.26 689.57 L114.26 685.056 L128.635 663.158 Z" fill="#000000" fill-rule="nonzero" fill-opacity="1"></path><path clip-path="url(#clip650)" d="M127.917 331.787 Q124.769 331.787 122.918 333.94 Q121.089 336.092 121.089 339.842 Q121.089 343.569 122.918 345.745 Q124.769 347.898 127.917 347.898 Q131.066 347.898 132.894 345.745 Q134.746 343.569 134.746 339.842 Q134.746 336.092 132.894 333.94 Q131.066 331.787 127.917 331.787 M137.2 317.134 L137.2 321.393 Q135.441 320.56 133.635 320.12 Q131.853 319.68 130.093 319.68 Q125.464 319.68 123.01 322.805 Q120.58 325.93 120.232 332.25 Q121.598 330.236 123.658 329.171 Q125.718 328.083 128.195 328.083 Q133.404 328.083 136.413 331.254 Q139.445 334.403 139.445 339.842 Q139.445 345.166 136.297 348.384 Q133.149 351.602 127.917 351.602 Q121.922 351.602 118.751 347.018 Q115.58 342.412 115.58 333.685 Q115.58 325.491 119.468 320.63 Q123.357 315.745 129.908 315.745 Q131.667 315.745 133.45 316.092 Q135.255 316.44 137.2 317.134 Z" fill="#000000" fill-rule="nonzero" fill-opacity="1"></path><path clip-path="url(#clip650)" d="M28.3562 768.79 L45.7028 781.681 L64.0042 768.122 L64.0042 775.029 L49.9996 785.405 L64.0042 795.781 L64.0042 802.688 L45.3526 788.842 L28.3562 801.51 L28.3562 794.603 L41.0558 785.15 L28.3562 775.697 L28.3562 768.79 Z" fill="#000000" fill-rule="nonzero" fill-opacity="1"></path><path clip-path="url(#clip650)" d="M60.3757 757.459 L60.3757 743.964 L64.0042 743.964 L64.0042 762.998 L60.503 762.998 Q59.5163 761.915 57.7339 759.91 Q48.0262 748.961 45.0344 748.961 Q42.9337 748.961 41.6605 750.616 Q40.3556 752.271 40.3556 754.977 Q40.3556 756.632 40.9285 758.573 Q41.4696 760.515 42.5836 762.807 L38.6686 762.807 Q37.7774 760.356 37.3318 758.255 Q36.8862 756.123 36.8862 754.308 Q36.8862 749.693 38.9869 746.924 Q41.0876 744.155 44.5251 744.155 Q48.9493 744.155 57.9886 754.69 Q59.5163 756.473 60.3757 757.459 Z" fill="#000000" fill-rule="nonzero" fill-opacity="1"></path><path clip-path="url(#clip650)" d="M747.793 12.096 L798.955 12.096 L798.955 18.9825 L777.486 18.9825 L777.486 72.576 L769.262 72.576 L769.262 18.9825 L747.793 18.9825 L747.793 12.096 Z" fill="#000000" fill-rule="nonzero" fill-opacity="1"></path><path clip-path="url(#clip650)" d="M820.628 34.1734 Q819.372 33.4443 817.873 33.1202 Q816.415 32.7556 814.632 32.7556 Q808.313 32.7556 804.91 36.8875 Q801.548 40.9789 801.548 48.6757 L801.548 72.576 L794.054 72.576 L794.054 27.2059 L801.548 27.2059 L801.548 34.2544 Q803.898 30.1225 807.665 28.1376 Q811.432 26.1121 816.82 26.1121 Q817.59 26.1121 818.521 26.2337 Q819.453 26.3147 820.587 26.5172 L820.628 34.1734 Z" fill="#000000" fill-rule="nonzero" fill-opacity="1"></path><path clip-path="url(#clip650)" d="M849.065 49.7694 Q840.032 49.7694 836.548 51.8354 Q833.064 53.9013 833.064 58.8839 Q833.064 62.8538 835.657 65.2034 Q838.29 67.5124 842.786 67.5124 Q848.984 67.5124 852.711 63.1374 Q856.478 58.7219 856.478 51.4303 L856.478 49.7694 L849.065 49.7694 M863.932 46.6907 L863.932 72.576 L856.478 72.576 L856.478 65.6895 Q853.926 69.8214 850.118 71.8063 Q846.311 73.7508 840.801 73.7508 Q833.834 73.7508 829.702 69.8619 Q825.61 65.9325 825.61 59.3701 Q825.61 51.7138 830.715 47.825 Q835.859 43.9361 846.027 43.9361 L856.478 43.9361 L856.478 43.2069 Q856.478 38.0623 853.076 35.2672 Q849.713 32.4315 843.596 32.4315 Q839.708 32.4315 836.021 33.3632 Q832.335 34.295 828.932 36.1584 L828.932 29.2718 Q833.024 27.692 836.872 26.9223 Q840.72 26.1121 844.366 26.1121 Q854.21 26.1121 859.071 31.2163 Q863.932 36.3204 863.932 46.6907 Z" fill="#000000" fill-rule="nonzero" fill-opacity="1"></path><path clip-path="url(#clip650)" d="M879.285 27.2059 L886.739 27.2059 L886.739 73.3862 Q886.739 82.0551 883.417 85.944 Q880.136 89.8329 872.803 89.8329 L869.968 89.8329 L869.968 83.5134 L871.953 83.5134 Q876.206 83.5134 877.746 81.5285 Q879.285 79.5841 879.285 73.3862 L879.285 27.2059 M879.285 9.54393 L886.739 9.54393 L886.739 18.9825 L879.285 18.9825 L879.285 9.54393 Z" fill="#000000" fill-rule="nonzero" fill-opacity="1"></path><path clip-path="url(#clip650)" d="M941.142 48.0275 L941.142 51.6733 L906.872 51.6733 Q907.358 59.3701 911.49 63.421 Q915.662 67.4314 923.075 67.4314 Q927.369 67.4314 931.38 66.3781 Q935.43 65.3249 939.4 63.2184 L939.4 70.267 Q935.39 71.9684 931.177 72.8596 Q926.964 73.7508 922.63 73.7508 Q911.773 73.7508 905.413 67.4314 Q899.094 61.1119 899.094 50.3365 Q899.094 39.1965 905.089 32.6746 Q911.125 26.1121 921.333 26.1121 Q930.488 26.1121 935.795 32.0264 Q941.142 37.9003 941.142 48.0275 M933.689 45.84 Q933.608 39.7232 930.245 36.0774 Q926.924 32.4315 921.414 32.4315 Q915.176 32.4315 911.409 35.9558 Q907.682 39.4801 907.115 45.8805 L933.689 45.84 Z" fill="#000000" fill-rule="nonzero" fill-opacity="1"></path><path clip-path="url(#clip650)" d="M986.026 28.9478 L986.026 35.9153 Q982.867 34.1734 979.666 33.3227 Q976.507 32.4315 973.266 32.4315 Q966.015 32.4315 962.004 37.0496 Q957.994 41.6271 957.994 49.9314 Q957.994 58.2358 962.004 62.8538 Q966.015 67.4314 973.266 67.4314 Q976.507 67.4314 979.666 66.5807 Q982.867 65.6895 986.026 63.9476 L986.026 70.8341 Q982.907 72.2924 979.545 73.0216 Q976.223 73.7508 972.456 73.7508 Q962.207 73.7508 956.171 67.3098 Q950.135 60.8689 950.135 49.9314 Q950.135 38.832 956.212 32.472 Q962.328 26.1121 972.942 26.1121 Q976.385 26.1121 979.666 26.8413 Q982.948 27.5299 986.026 28.9478 Z" fill="#000000" fill-rule="nonzero" fill-opacity="1"></path><path clip-path="url(#clip650)" d="M1006.36 14.324 L1006.36 27.2059 L1021.71 27.2059 L1021.71 32.9987 L1006.36 32.9987 L1006.36 57.6282 Q1006.36 63.1779 1007.86 64.7578 Q1009.4 66.3376 1014.06 66.3376 L1021.71 66.3376 L1021.71 72.576 L1014.06 72.576 Q1005.43 72.576 1002.15 69.3758 Q998.868 66.1351 998.868 57.6282 L998.868 32.9987 L993.399 32.9987 L993.399 27.2059 L998.868 27.2059 L998.868 14.324 L1006.36 14.324 Z" fill="#000000" fill-rule="nonzero" fill-opacity="1"></path><path clip-path="url(#clip650)" d="M1049.1 32.4315 Q1043.1 32.4315 1039.62 37.1306 Q1036.14 41.7891 1036.14 49.9314 Q1036.14 58.0738 1039.58 62.7728 Q1043.06 67.4314 1049.1 67.4314 Q1055.05 67.4314 1058.54 62.7323 Q1062.02 58.0333 1062.02 49.9314 Q1062.02 41.8701 1058.54 37.1711 Q1055.05 32.4315 1049.1 32.4315 M1049.1 26.1121 Q1058.82 26.1121 1064.37 32.4315 Q1069.92 38.7509 1069.92 49.9314 Q1069.92 61.0714 1064.37 67.4314 Q1058.82 73.7508 1049.1 73.7508 Q1039.34 73.7508 1033.79 67.4314 Q1028.28 61.0714 1028.28 49.9314 Q1028.28 38.7509 1033.79 32.4315 Q1039.34 26.1121 1049.1 26.1121 Z" fill="#000000" fill-rule="nonzero" fill-opacity="1"></path><path clip-path="url(#clip650)" d="M1108.57 34.1734 Q1107.31 33.4443 1105.81 33.1202 Q1104.35 32.7556 1102.57 32.7556 Q1096.25 32.7556 1092.85 36.8875 Q1089.49 40.9789 1089.49 48.6757 L1089.49 72.576 L1081.99 72.576 L1081.99 27.2059 L1089.49 27.2059 L1089.49 34.2544 Q1091.84 30.1225 1095.6 28.1376 Q1099.37 26.1121 1104.76 26.1121 Q1105.53 26.1121 1106.46 26.2337 Q1107.39 26.3147 1108.53 26.5172 L1108.57 34.1734 Z" fill="#000000" fill-rule="nonzero" fill-opacity="1"></path><path clip-path="url(#clip650)" d="M1135.26 76.7889 Q1132.1 84.8907 1129.1 87.3618 Q1126.11 89.8329 1121.08 89.8329 L1115.13 89.8329 L1115.13 83.5945 L1119.5 83.5945 Q1122.58 83.5945 1124.28 82.1361 Q1125.98 80.6778 1128.05 75.2496 L1129.39 71.8468 L1111.04 27.2059 L1118.94 27.2059 L1133.11 62.6918 L1147.29 27.2059 L1155.19 27.2059 L1135.26 76.7889 Z" fill="#000000" fill-rule="nonzero" fill-opacity="1"></path><path clip-path="url(#clip650)" d="M1191.85 27.2059 L1199.31 27.2059 L1199.31 72.576 L1191.85 72.576 L1191.85 27.2059 M1191.85 9.54393 L1199.31 9.54393 L1199.31 18.9825 L1191.85 18.9825 L1191.85 9.54393 Z" fill="#000000" fill-rule="nonzero" fill-opacity="1"></path><path clip-path="url(#clip650)" d="M1252.62 45.1919 L1252.62 72.576 L1245.16 72.576 L1245.16 45.4349 Q1245.16 38.994 1242.65 35.7938 Q1240.14 32.5936 1235.12 32.5936 Q1229.08 32.5936 1225.6 36.4419 Q1222.11 40.2903 1222.11 46.9338 L1222.11 72.576 L1214.62 72.576 L1214.62 27.2059 L1222.11 27.2059 L1222.11 34.2544 Q1224.79 30.163 1228.39 28.1376 Q1232.04 26.1121 1236.78 26.1121 Q1244.6 26.1121 1248.61 30.9732 Q1252.62 35.7938 1252.62 45.1919 Z" fill="#000000" fill-rule="nonzero" fill-opacity="1"></path><path clip-path="url(#clip650)" d="M1330.43 14.0809 L1330.43 22.0612 Q1325.78 19.8332 1321.64 18.7395 Q1317.51 17.6457 1313.66 17.6457 Q1306.98 17.6457 1303.33 20.2383 Q1299.73 22.8309 1299.73 27.611 Q1299.73 31.6214 1302.12 33.6873 Q1304.55 35.7128 1311.27 36.9686 L1316.22 37.9813 Q1325.37 39.7232 1329.7 44.1387 Q1334.08 48.5136 1334.08 55.8863 Q1334.08 64.6767 1328.17 69.2137 Q1322.29 73.7508 1310.91 73.7508 Q1306.61 73.7508 1301.75 72.7785 Q1296.93 71.8063 1291.75 69.9024 L1291.75 61.4765 Q1296.73 64.2716 1301.51 65.6895 Q1306.29 67.1073 1310.91 67.1073 Q1317.92 67.1073 1321.72 64.3527 Q1325.53 61.598 1325.53 56.4939 Q1325.53 52.0379 1322.78 49.5264 Q1320.06 47.0148 1313.83 45.759 L1308.84 44.7868 Q1299.69 42.9639 1295.6 39.075 Q1291.5 35.1862 1291.5 28.2591 Q1291.5 20.2383 1297.14 15.6203 Q1302.81 11.0023 1312.73 11.0023 Q1316.99 11.0023 1321.4 11.7719 Q1325.82 12.5416 1330.43 14.0809 Z" fill="#000000" fill-rule="nonzero" fill-opacity="1"></path><path clip-path="url(#clip650)" d="M1353.89 14.324 L1353.89 27.2059 L1369.24 27.2059 L1369.24 32.9987 L1353.89 32.9987 L1353.89 57.6282 Q1353.89 63.1779 1355.39 64.7578 Q1356.93 66.3376 1361.59 66.3376 L1369.24 66.3376 L1369.24 72.576 L1361.59 72.576 Q1352.96 72.576 1349.68 69.3758 Q1346.39 66.1351 1346.39 57.6282 L1346.39 32.9987 L1340.93 32.9987 L1340.93 27.2059 L1346.39 27.2059 L1346.39 14.324 L1353.89 14.324 Z" fill="#000000" fill-rule="nonzero" fill-opacity="1"></path><path clip-path="url(#clip650)" d="M1399.66 49.7694 Q1390.63 49.7694 1387.15 51.8354 Q1383.66 53.9013 1383.66 58.8839 Q1383.66 62.8538 1386.26 65.2034 Q1388.89 67.5124 1393.39 67.5124 Q1399.58 67.5124 1403.31 63.1374 Q1407.08 58.7219 1407.08 51.4303 L1407.08 49.7694 L1399.66 49.7694 M1414.53 46.6907 L1414.53 72.576 L1407.08 72.576 L1407.08 65.6895 Q1404.53 69.8214 1400.72 71.8063 Q1396.91 73.7508 1391.4 73.7508 Q1384.43 73.7508 1380.3 69.8619 Q1376.21 65.9325 1376.21 59.3701 Q1376.21 51.7138 1381.31 47.825 Q1386.46 43.9361 1396.63 43.9361 L1407.08 43.9361 L1407.08 43.2069 Q1407.08 38.0623 1403.67 35.2672 Q1400.31 32.4315 1394.2 32.4315 Q1390.31 32.4315 1386.62 33.3632 Q1382.93 34.295 1379.53 36.1584 L1379.53 29.2718 Q1383.62 27.692 1387.47 26.9223 Q1391.32 26.1121 1394.97 26.1121 Q1404.81 26.1121 1409.67 31.2163 Q1414.53 36.3204 1414.53 46.6907 Z" fill="#000000" fill-rule="nonzero" fill-opacity="1"></path><path clip-path="url(#clip650)" d="M1437.26 14.324 L1437.26 27.2059 L1452.61 27.2059 L1452.61 32.9987 L1437.26 32.9987 L1437.26 57.6282 Q1437.26 63.1779 1438.76 64.7578 Q1440.29 66.3376 1444.95 66.3376 L1452.61 66.3376 L1452.61 72.576 L1444.95 72.576 Q1436.32 72.576 1433.04 69.3758 Q1429.76 66.1351 1429.76 57.6282 L1429.76 32.9987 L1424.29 32.9987 L1424.29 27.2059 L1429.76 27.2059 L1429.76 14.324 L1437.26 14.324 Z" fill="#000000" fill-rule="nonzero" fill-opacity="1"></path><path clip-path="url(#clip650)" d="M1501.22 48.0275 L1501.22 51.6733 L1466.95 51.6733 Q1467.44 59.3701 1471.57 63.421 Q1475.74 67.4314 1483.15 67.4314 Q1487.45 67.4314 1491.46 66.3781 Q1495.51 65.3249 1499.48 63.2184 L1499.48 70.267 Q1495.47 71.9684 1491.26 72.8596 Q1487.04 73.7508 1482.71 73.7508 Q1471.85 73.7508 1465.49 67.4314 Q1459.17 61.1119 1459.17 50.3365 Q1459.17 39.1965 1465.17 32.6746 Q1471.2 26.1121 1481.41 26.1121 Q1490.57 26.1121 1495.87 32.0264 Q1501.22 37.9003 1501.22 48.0275 M1493.77 45.84 Q1493.69 39.7232 1490.32 36.0774 Q1487 32.4315 1481.49 32.4315 Q1475.25 32.4315 1471.49 35.9558 Q1467.76 39.4801 1467.19 45.8805 L1493.77 45.84 Z" fill="#000000" fill-rule="nonzero" fill-opacity="1"></path><path clip-path="url(#clip650)" d="M1576.41 14.0809 L1576.41 22.0612 Q1571.75 19.8332 1567.61 18.7395 Q1563.48 17.6457 1559.63 17.6457 Q1552.95 17.6457 1549.3 20.2383 Q1545.7 22.8309 1545.7 27.611 Q1545.7 31.6214 1548.09 33.6873 Q1550.52 35.7128 1557.24 36.9686 L1562.19 37.9813 Q1571.34 39.7232 1575.68 44.1387 Q1580.05 48.5136 1580.05 55.8863 Q1580.05 64.6767 1574.14 69.2137 Q1568.26 73.7508 1556.88 73.7508 Q1552.59 73.7508 1547.72 72.7785 Q1542.9 71.8063 1537.72 69.9024 L1537.72 61.4765 Q1542.7 64.2716 1547.48 65.6895 Q1552.26 67.1073 1556.88 67.1073 Q1563.89 67.1073 1567.7 64.3527 Q1571.5 61.598 1571.5 56.4939 Q1571.5 52.0379 1568.75 49.5264 Q1566.03 47.0148 1559.8 45.759 L1554.81 44.7868 Q1545.66 42.9639 1541.57 39.075 Q1537.48 35.1862 1537.48 28.2591 Q1537.48 20.2383 1543.11 15.6203 Q1548.78 11.0023 1558.7 11.0023 Q1562.96 11.0023 1567.37 11.7719 Q1571.79 12.5416 1576.41 14.0809 Z" fill="#000000" fill-rule="nonzero" fill-opacity="1"></path><path clip-path="url(#clip650)" d="M1599.7 65.7705 L1599.7 89.8329 L1592.2 89.8329 L1592.2 27.2059 L1599.7 27.2059 L1599.7 34.0924 Q1602.05 30.0415 1605.61 28.0971 Q1609.22 26.1121 1614.2 26.1121 Q1622.46 26.1121 1627.61 32.6746 Q1632.79 39.2371 1632.79 49.9314 Q1632.79 60.6258 1627.61 67.1883 Q1622.46 73.7508 1614.2 73.7508 Q1609.22 73.7508 1605.61 71.8063 Q1602.05 69.8214 1599.7 65.7705 M1625.06 49.9314 Q1625.06 41.7081 1621.65 37.0496 Q1618.29 32.3505 1612.38 32.3505 Q1606.46 32.3505 1603.06 37.0496 Q1599.7 41.7081 1599.7 49.9314 Q1599.7 58.1548 1603.06 62.8538 Q1606.46 67.5124 1612.38 67.5124 Q1618.29 67.5124 1621.65 62.8538 Q1625.06 58.1548 1625.06 49.9314 Z" fill="#000000" fill-rule="nonzero" fill-opacity="1"></path><path clip-path="url(#clip650)" d="M1665.77 49.7694 Q1656.73 49.7694 1653.25 51.8354 Q1649.77 53.9013 1649.77 58.8839 Q1649.77 62.8538 1652.36 65.2034 Q1654.99 67.5124 1659.49 67.5124 Q1665.69 67.5124 1669.41 63.1374 Q1673.18 58.7219 1673.18 51.4303 L1673.18 49.7694 L1665.77 49.7694 M1680.63 46.6907 L1680.63 72.576 L1673.18 72.576 L1673.18 65.6895 Q1670.63 69.8214 1666.82 71.8063 Q1663.01 73.7508 1657.5 73.7508 Q1650.54 73.7508 1646.4 69.8619 Q1642.31 65.9325 1642.31 59.3701 Q1642.31 51.7138 1647.42 47.825 Q1652.56 43.9361 1662.73 43.9361 L1673.18 43.9361 L1673.18 43.2069 Q1673.18 38.0623 1669.78 35.2672 Q1666.42 32.4315 1660.3 32.4315 Q1656.41 32.4315 1652.72 33.3632 Q1649.04 34.295 1645.63 36.1584 L1645.63 29.2718 Q1649.73 27.692 1653.57 26.9223 Q1657.42 26.1121 1661.07 26.1121 Q1670.91 26.1121 1675.77 31.2163 Q1680.63 36.3204 1680.63 46.6907 Z" fill="#000000" fill-rule="nonzero" fill-opacity="1"></path><path clip-path="url(#clip650)" d="M1728.64 28.9478 L1728.64 35.9153 Q1725.48 34.1734 1722.28 33.3227 Q1719.12 32.4315 1715.88 32.4315 Q1708.63 32.4315 1704.62 37.0496 Q1700.61 41.6271 1700.61 49.9314 Q1700.61 58.2358 1704.62 62.8538 Q1708.63 67.4314 1715.88 67.4314 Q1719.12 67.4314 1722.28 66.5807 Q1725.48 65.6895 1728.64 63.9476 L1728.64 70.8341 Q1725.52 72.2924 1722.16 73.0216 Q1718.83 73.7508 1715.07 73.7508 Q1704.82 73.7508 1698.78 67.3098 Q1692.75 60.8689 1692.75 49.9314 Q1692.75 38.832 1698.82 32.472 Q1704.94 26.1121 1715.55 26.1121 Q1719 26.1121 1722.28 26.8413 Q1725.56 27.5299 1728.64 28.9478 Z" fill="#000000" fill-rule="nonzero" fill-opacity="1"></path><path clip-path="url(#clip650)" d="M1780.41 48.0275 L1780.41 51.6733 L1746.14 51.6733 Q1746.62 59.3701 1750.76 63.421 Q1754.93 67.4314 1762.34 67.4314 Q1766.64 67.4314 1770.65 66.3781 Q1774.7 65.3249 1778.67 63.2184 L1778.67 70.267 Q1774.66 71.9684 1770.44 72.8596 Q1766.23 73.7508 1761.9 73.7508 Q1751.04 73.7508 1744.68 67.4314 Q1738.36 61.1119 1738.36 50.3365 Q1738.36 39.1965 1744.36 32.6746 Q1750.39 26.1121 1760.6 26.1121 Q1769.75 26.1121 1775.06 32.0264 Q1780.41 37.9003 1780.41 48.0275 M1772.95 45.84 Q1772.87 39.7232 1769.51 36.0774 Q1766.19 32.4315 1760.68 32.4315 Q1754.44 32.4315 1750.67 35.9558 Q1746.95 39.4801 1746.38 45.8805 L1772.95 45.84 Z" fill="#000000" fill-rule="nonzero" fill-opacity="1"></path><polyline clip-path="url(#clip652)" style="stroke:#009af9; stroke-linecap:round; stroke-linejoin:round; stroke-width:20; stroke-opacity:1; fill:none" stroke-dasharray="10, 20" points="1388.13,910.838 1311.02,948.119 1236.4,983.38 1164.57,1016.62 1095.73,1047.86 1030.05,1077.13 967.603,1104.48 908.455,1129.97 852.615,1153.66 800.061,1175.63 750.744,1195.94 704.591,1214.69 661.511,1231.95 621.398,1247.82 584.132,1262.36 549.586,1275.67 517.626,1287.83 488.113,1298.92 460.904,1309.02 435.858,1318.2 412.831,1326.54 391.681,1334.1 372.269,1340.97 354.458,1347.19 338.114,1352.84 323.108,1357.97 309.313,1362.63 296.609,1366.89 284.878,1370.79 274.009,1374.37 263.894,1377.68 254.43,1380.76 245.519,1383.66 237.068,1386.4 "></polyline>
<polyline clip-path="url(#clip652)" style="stroke:#e26f46; stroke-linecap:round; stroke-linejoin:round; stroke-width:4; stroke-opacity:1; fill:none" points="2184.72,160.256 2247.05,188.11 2281.12,222.406 2291.13,261.807 2280.81,305.14 2253.48,351.381 2212.1,399.644 2159.28,449.166 2097.33,499.292 2028.26,549.466 1953.85,599.221 1875.62,648.167 1794.9,695.984 1712.82,742.414 1630.35,787.252 1548.31,830.34 1467.38,871.562 1388.13,910.838 1311.02,948.119 1236.4,983.38 1164.57,1016.62 1095.73,1047.86 1030.05,1077.13 967.603,1104.48 908.456,1129.97 852.616,1153.66 800.062,1175.63 750.744,1195.94 704.592,1214.69 661.512,1231.96 621.398,1247.82 584.132,1262.36 549.586,1275.67 517.626,1287.83 488.113,1298.92 460.904,1309.02 435.858,1318.2 412.831,1326.54 391.681,1334.1 372.269,1340.97 354.458,1347.19 338.114,1352.84 323.108,1357.97 309.313,1362.64 296.608,1366.89 284.877,1370.79 274.008,1374.37 263.893,1377.68 254.429,1380.76 245.518,1383.66 237.067,1386.4 "></polyline>
<path clip-path="url(#clip650)" d="M248.022 322.316 L971.561 322.316 L971.561 166.796 L248.022 166.796  Z" fill="#ffffff" fill-rule="evenodd" fill-opacity="1"></path>
<polyline clip-path="url(#clip650)" style="stroke:#000000; stroke-linecap:round; stroke-linejoin:round; stroke-width:4; stroke-opacity:1; fill:none" points="248.022,322.316 971.561,322.316 971.561,166.796 248.022,166.796 248.022,322.316 "></polyline>
<polyline clip-path="url(#clip650)" style="stroke:#009af9; stroke-linecap:round; stroke-linejoin:round; stroke-width:20; stroke-opacity:1; fill:none" stroke-dasharray="10, 20" points="272.215,218.636 417.369,218.636 "></polyline>
<path clip-path="url(#clip650)" d="M453.459 212.976 Q450.033 212.976 448.042 215.661 Q446.052 218.323 446.052 222.976 Q446.052 227.629 448.019 230.314 Q450.01 232.976 453.459 232.976 Q456.862 232.976 458.853 230.291 Q460.843 227.606 460.843 222.976 Q460.843 218.37 458.853 215.684 Q456.862 212.976 453.459 212.976 M453.459 209.365 Q459.015 209.365 462.186 212.976 Q465.357 216.587 465.357 222.976 Q465.357 229.342 462.186 232.976 Q459.015 236.587 453.459 236.587 Q447.88 236.587 444.709 232.976 Q441.561 229.342 441.561 222.976 Q441.561 216.587 444.709 212.976 Q447.88 209.365 453.459 209.365 Z" fill="#000000" fill-rule="nonzero" fill-opacity="1"></path><path clip-path="url(#clip650)" d="M476.538 232.027 L476.538 245.777 L472.255 245.777 L472.255 209.99 L476.538 209.99 L476.538 213.925 Q477.88 211.61 479.917 210.499 Q481.977 209.365 484.825 209.365 Q489.547 209.365 492.487 213.115 Q495.45 216.865 495.45 222.976 Q495.45 229.087 492.487 232.837 Q489.547 236.587 484.825 236.587 Q481.977 236.587 479.917 235.476 Q477.88 234.342 476.538 232.027 M491.028 222.976 Q491.028 218.277 489.084 215.615 Q487.163 212.93 483.783 212.93 Q480.403 212.93 478.459 215.615 Q476.538 218.277 476.538 222.976 Q476.538 227.675 478.459 230.36 Q480.403 233.022 483.783 233.022 Q487.163 233.022 489.084 230.36 Q491.028 227.675 491.028 222.976 Z" fill="#000000" fill-rule="nonzero" fill-opacity="1"></path><path clip-path="url(#clip650)" d="M506.723 202.629 L506.723 209.99 L515.496 209.99 L515.496 213.3 L506.723 213.3 L506.723 227.374 Q506.723 230.545 507.579 231.448 Q508.459 232.351 511.121 232.351 L515.496 232.351 L515.496 235.916 L511.121 235.916 Q506.19 235.916 504.315 234.087 Q502.44 232.235 502.44 227.374 L502.44 213.3 L499.315 213.3 L499.315 209.99 L502.44 209.99 L502.44 202.629 L506.723 202.629 Z" fill="#000000" fill-rule="nonzero" fill-opacity="1"></path><path clip-path="url(#clip650)" d="M521.098 209.99 L525.357 209.99 L525.357 235.916 L521.098 235.916 L521.098 209.99 M521.098 199.897 L525.357 199.897 L525.357 205.291 L521.098 205.291 L521.098 199.897 Z" fill="#000000" fill-rule="nonzero" fill-opacity="1"></path><path clip-path="url(#clip650)" d="M554.454 214.967 Q556.051 212.096 558.273 210.731 Q560.496 209.365 563.505 209.365 Q567.556 209.365 569.755 212.212 Q571.954 215.036 571.954 220.268 L571.954 235.916 L567.671 235.916 L567.671 220.407 Q567.671 216.68 566.352 214.874 Q565.033 213.069 562.324 213.069 Q559.014 213.069 557.093 215.268 Q555.171 217.467 555.171 221.263 L555.171 235.916 L550.889 235.916 L550.889 220.407 Q550.889 216.657 549.57 214.874 Q548.25 213.069 545.496 213.069 Q542.232 213.069 540.31 215.291 Q538.389 217.49 538.389 221.263 L538.389 235.916 L534.107 235.916 L534.107 209.99 L538.389 209.99 L538.389 214.018 Q539.847 211.633 541.884 210.499 Q543.922 209.365 546.722 209.365 Q549.546 209.365 551.514 210.8 Q553.505 212.235 554.454 214.967 Z" fill="#000000" fill-rule="nonzero" fill-opacity="1"></path><path clip-path="url(#clip650)" d="M592.231 222.883 Q587.069 222.883 585.079 224.064 Q583.088 225.244 583.088 228.092 Q583.088 230.36 584.569 231.703 Q586.074 233.022 588.644 233.022 Q592.185 233.022 594.315 230.522 Q596.468 227.999 596.468 223.832 L596.468 222.883 L592.231 222.883 M600.727 221.124 L600.727 235.916 L596.468 235.916 L596.468 231.981 Q595.009 234.342 592.833 235.476 Q590.657 236.587 587.509 236.587 Q583.528 236.587 581.167 234.365 Q578.829 232.119 578.829 228.369 Q578.829 223.994 581.745 221.772 Q584.685 219.55 590.495 219.55 L596.468 219.55 L596.468 219.133 Q596.468 216.194 594.523 214.596 Q592.602 212.976 589.106 212.976 Q586.884 212.976 584.778 213.508 Q582.671 214.041 580.727 215.106 L580.727 211.17 Q583.065 210.268 585.264 209.828 Q587.463 209.365 589.546 209.365 Q595.171 209.365 597.949 212.282 Q600.727 215.198 600.727 221.124 Z" fill="#000000" fill-rule="nonzero" fill-opacity="1"></path><path clip-path="url(#clip650)" d="M609.5 199.897 L613.759 199.897 L613.759 235.916 L609.5 235.916 L609.5 199.897 Z" fill="#000000" fill-rule="nonzero" fill-opacity="1"></path><path clip-path="url(#clip650)" d="M654.268 210.754 L654.268 214.782 Q652.463 213.856 650.518 213.393 Q648.574 212.93 646.49 212.93 Q643.319 212.93 641.722 213.902 Q640.148 214.874 640.148 216.819 Q640.148 218.3 641.282 219.157 Q642.416 219.99 645.842 220.754 L647.301 221.078 Q651.838 222.05 653.736 223.832 Q655.657 225.592 655.657 228.763 Q655.657 232.374 652.787 234.481 Q649.939 236.587 644.939 236.587 Q642.856 236.587 640.588 236.17 Q638.342 235.777 635.842 234.967 L635.842 230.569 Q638.203 231.795 640.495 232.42 Q642.787 233.022 645.032 233.022 Q648.041 233.022 649.662 232.004 Q651.282 230.962 651.282 229.087 Q651.282 227.351 650.102 226.425 Q648.944 225.499 644.986 224.643 L643.504 224.295 Q639.546 223.462 637.787 221.749 Q636.028 220.013 636.028 217.004 Q636.028 213.346 638.62 211.356 Q641.213 209.365 645.981 209.365 Q648.342 209.365 650.426 209.712 Q652.509 210.059 654.268 210.754 Z" fill="#000000" fill-rule="nonzero" fill-opacity="1"></path><path clip-path="url(#clip650)" d="M662 225.684 L662 209.99 L666.259 209.99 L666.259 225.522 Q666.259 229.203 667.694 231.055 Q669.129 232.883 672 232.883 Q675.449 232.883 677.439 230.684 Q679.453 228.485 679.453 224.689 L679.453 209.99 L683.712 209.99 L683.712 235.916 L679.453 235.916 L679.453 231.934 Q677.902 234.295 675.842 235.453 Q673.805 236.587 671.097 236.587 Q666.629 236.587 664.314 233.809 Q662 231.031 662 225.684 M672.717 209.365 L672.717 209.365 Z" fill="#000000" fill-rule="nonzero" fill-opacity="1"></path><path clip-path="url(#clip650)" d="M711.097 222.976 Q711.097 218.277 709.152 215.615 Q707.231 212.93 703.851 212.93 Q700.472 212.93 698.527 215.615 Q696.606 218.277 696.606 222.976 Q696.606 227.675 698.527 230.36 Q700.472 233.022 703.851 233.022 Q707.231 233.022 709.152 230.36 Q711.097 227.675 711.097 222.976 M696.606 213.925 Q697.948 211.61 699.986 210.499 Q702.046 209.365 704.893 209.365 Q709.615 209.365 712.555 213.115 Q715.518 216.865 715.518 222.976 Q715.518 229.087 712.555 232.837 Q709.615 236.587 704.893 236.587 Q702.046 236.587 699.986 235.476 Q697.948 234.342 696.606 232.027 L696.606 235.916 L692.324 235.916 L692.324 199.897 L696.606 199.897 L696.606 213.925 Z" fill="#000000" fill-rule="nonzero" fill-opacity="1"></path><path clip-path="url(#clip650)" d="M726.791 202.629 L726.791 209.99 L735.564 209.99 L735.564 213.3 L726.791 213.3 L726.791 227.374 Q726.791 230.545 727.647 231.448 Q728.527 232.351 731.189 232.351 L735.564 232.351 L735.564 235.916 L731.189 235.916 Q726.259 235.916 724.384 234.087 Q722.509 232.235 722.509 227.374 L722.509 213.3 L719.384 213.3 L719.384 209.99 L722.509 209.99 L722.509 202.629 L726.791 202.629 Z" fill="#000000" fill-rule="nonzero" fill-opacity="1"></path><path clip-path="url(#clip650)" d="M756.189 213.971 Q755.471 213.555 754.615 213.37 Q753.782 213.161 752.763 213.161 Q749.152 213.161 747.207 215.522 Q745.286 217.86 745.286 222.258 L745.286 235.916 L741.004 235.916 L741.004 209.99 L745.286 209.99 L745.286 214.018 Q746.629 211.657 748.782 210.522 Q750.934 209.365 754.013 209.365 Q754.453 209.365 754.985 209.434 Q755.518 209.481 756.166 209.596 L756.189 213.971 Z" fill="#000000" fill-rule="nonzero" fill-opacity="1"></path><path clip-path="url(#clip650)" d="M772.439 222.883 Q767.277 222.883 765.286 224.064 Q763.295 225.244 763.295 228.092 Q763.295 230.36 764.777 231.703 Q766.281 233.022 768.851 233.022 Q772.393 233.022 774.522 230.522 Q776.675 227.999 776.675 223.832 L776.675 222.883 L772.439 222.883 M780.934 221.124 L780.934 235.916 L776.675 235.916 L776.675 231.981 Q775.217 234.342 773.041 235.476 Q770.865 236.587 767.717 236.587 Q763.735 236.587 761.374 234.365 Q759.036 232.119 759.036 228.369 Q759.036 223.994 761.953 221.772 Q764.893 219.55 770.703 219.55 L776.675 219.55 L776.675 219.133 Q776.675 216.194 774.73 214.596 Q772.809 212.976 769.314 212.976 Q767.092 212.976 764.985 213.508 Q762.879 214.041 760.934 215.106 L760.934 211.17 Q763.272 210.268 765.471 209.828 Q767.67 209.365 769.754 209.365 Q775.379 209.365 778.156 212.282 Q780.934 215.198 780.934 221.124 Z" fill="#000000" fill-rule="nonzero" fill-opacity="1"></path><path clip-path="url(#clip650)" d="M789.707 209.99 L793.966 209.99 L793.966 236.379 Q793.966 241.332 792.068 243.555 Q790.193 245.777 786.004 245.777 L784.383 245.777 L784.383 242.166 L785.517 242.166 Q787.948 242.166 788.828 241.031 Q789.707 239.92 789.707 236.379 L789.707 209.99 M789.707 199.897 L793.966 199.897 L793.966 205.291 L789.707 205.291 L789.707 199.897 Z" fill="#000000" fill-rule="nonzero" fill-opacity="1"></path><path clip-path="url(#clip650)" d="M825.054 221.888 L825.054 223.971 L805.471 223.971 Q805.749 228.369 808.11 230.684 Q810.494 232.976 814.73 232.976 Q817.184 232.976 819.476 232.374 Q821.79 231.772 824.059 230.569 L824.059 234.596 Q821.767 235.568 819.36 236.078 Q816.952 236.587 814.476 236.587 Q808.272 236.587 804.638 232.976 Q801.027 229.365 801.027 223.207 Q801.027 216.842 804.453 213.115 Q807.902 209.365 813.735 209.365 Q818.966 209.365 821.999 212.745 Q825.054 216.101 825.054 221.888 M820.795 220.638 Q820.749 217.143 818.827 215.059 Q816.929 212.976 813.781 212.976 Q810.216 212.976 808.064 214.99 Q805.934 217.004 805.61 220.661 L820.795 220.638 Z" fill="#000000" fill-rule="nonzero" fill-opacity="1"></path><path clip-path="url(#clip650)" d="M850.702 210.985 L850.702 214.967 Q848.897 213.971 847.068 213.485 Q845.263 212.976 843.411 212.976 Q839.267 212.976 836.976 215.615 Q834.684 218.231 834.684 222.976 Q834.684 227.721 836.976 230.36 Q839.267 232.976 843.411 232.976 Q845.263 232.976 847.068 232.49 Q848.897 231.981 850.702 230.985 L850.702 234.92 Q848.92 235.754 846.999 236.17 Q845.1 236.587 842.948 236.587 Q837.091 236.587 833.642 232.906 Q830.193 229.226 830.193 222.976 Q830.193 216.633 833.665 212.999 Q837.161 209.365 843.225 209.365 Q845.193 209.365 847.068 209.782 Q848.943 210.175 850.702 210.985 Z" fill="#000000" fill-rule="nonzero" fill-opacity="1"></path><path clip-path="url(#clip650)" d="M862.323 202.629 L862.323 209.99 L871.096 209.99 L871.096 213.3 L862.323 213.3 L862.323 227.374 Q862.323 230.545 863.179 231.448 Q864.059 232.351 866.721 232.351 L871.096 232.351 L871.096 235.916 L866.721 235.916 Q861.79 235.916 859.915 234.087 Q858.04 232.235 858.04 227.374 L858.04 213.3 L854.915 213.3 L854.915 209.99 L858.04 209.99 L858.04 202.629 L862.323 202.629 Z" fill="#000000" fill-rule="nonzero" fill-opacity="1"></path><path clip-path="url(#clip650)" d="M886.744 212.976 Q883.318 212.976 881.327 215.661 Q879.336 218.323 879.336 222.976 Q879.336 227.629 881.304 230.314 Q883.295 232.976 886.744 232.976 Q890.147 232.976 892.137 230.291 Q894.128 227.606 894.128 222.976 Q894.128 218.37 892.137 215.684 Q890.147 212.976 886.744 212.976 M886.744 209.365 Q892.299 209.365 895.471 212.976 Q898.642 216.587 898.642 222.976 Q898.642 229.342 895.471 232.976 Q892.299 236.587 886.744 236.587 Q881.165 236.587 877.994 232.976 Q874.846 229.342 874.846 222.976 Q874.846 216.587 877.994 212.976 Q881.165 209.365 886.744 209.365 Z" fill="#000000" fill-rule="nonzero" fill-opacity="1"></path><path clip-path="url(#clip650)" d="M920.725 213.971 Q920.007 213.555 919.151 213.37 Q918.318 213.161 917.299 213.161 Q913.688 213.161 911.744 215.522 Q909.822 217.86 909.822 222.258 L909.822 235.916 L905.54 235.916 L905.54 209.99 L909.822 209.99 L909.822 214.018 Q911.165 211.657 913.318 210.522 Q915.47 209.365 918.549 209.365 Q918.989 209.365 919.521 209.434 Q920.054 209.481 920.702 209.596 L920.725 213.971 Z" fill="#000000" fill-rule="nonzero" fill-opacity="1"></path><path clip-path="url(#clip650)" d="M935.98 238.323 Q934.174 242.953 932.461 244.365 Q930.748 245.777 927.878 245.777 L924.475 245.777 L924.475 242.212 L926.975 242.212 Q928.734 242.212 929.706 241.379 Q930.679 240.545 931.859 237.443 L932.623 235.499 L922.137 209.99 L926.651 209.99 L934.753 230.268 L942.855 209.99 L947.368 209.99 L935.98 238.323 Z" fill="#000000" fill-rule="nonzero" fill-opacity="1"></path><polyline clip-path="url(#clip650)" style="stroke:#e26f46; stroke-linecap:round; stroke-linejoin:round; stroke-width:4; stroke-opacity:1; fill:none" points="272.215,270.476 417.369,270.476 "></polyline>
<path clip-path="url(#clip650)" d="M458.066 251.737 L458.066 255.279 L453.991 255.279 Q451.7 255.279 450.797 256.205 Q449.917 257.131 449.917 259.538 L449.917 261.83 L456.931 261.83 L456.931 265.14 L449.917 265.14 L449.917 287.756 L445.635 287.756 L445.635 265.14 L441.561 265.14 L441.561 261.83 L445.635 261.83 L445.635 260.024 Q445.635 255.696 447.649 253.728 Q449.663 251.737 454.038 251.737 L458.066 251.737 Z" fill="#000000" fill-rule="nonzero" fill-opacity="1"></path><path clip-path="url(#clip650)" d="M461.19 277.524 L461.19 261.83 L465.45 261.83 L465.45 277.362 Q465.45 281.043 466.885 282.895 Q468.32 284.723 471.19 284.723 Q474.639 284.723 476.63 282.524 Q478.644 280.325 478.644 276.529 L478.644 261.83 L482.903 261.83 L482.903 287.756 L478.644 287.756 L478.644 283.774 Q477.093 286.135 475.033 287.293 Q472.996 288.427 470.288 288.427 Q465.82 288.427 463.505 285.649 Q461.19 282.871 461.19 277.524 M471.908 261.205 L471.908 261.205 Z" fill="#000000" fill-rule="nonzero" fill-opacity="1"></path><path clip-path="url(#clip650)" d="M491.676 251.737 L495.936 251.737 L495.936 287.756 L491.676 287.756 L491.676 251.737 Z" fill="#000000" fill-rule="nonzero" fill-opacity="1"></path><path clip-path="url(#clip650)" d="M504.848 251.737 L509.107 251.737 L509.107 287.756 L504.848 287.756 L504.848 251.737 Z" fill="#000000" fill-rule="nonzero" fill-opacity="1"></path><path clip-path="url(#clip650)" d="M537.301 254.469 L537.301 261.83 L546.074 261.83 L546.074 265.14 L537.301 265.14 L537.301 279.214 Q537.301 282.385 538.158 283.288 Q539.037 284.191 541.699 284.191 L546.074 284.191 L546.074 287.756 L541.699 287.756 Q536.769 287.756 534.894 285.927 Q533.019 284.075 533.019 279.214 L533.019 265.14 L529.894 265.14 L529.894 261.83 L533.019 261.83 L533.019 254.469 L537.301 254.469 Z" fill="#000000" fill-rule="nonzero" fill-opacity="1"></path><path clip-path="url(#clip650)" d="M566.699 265.811 Q565.982 265.395 565.125 265.21 Q564.292 265.001 563.273 265.001 Q559.662 265.001 557.718 267.362 Q555.796 269.7 555.796 274.098 L555.796 287.756 L551.514 287.756 L551.514 261.83 L555.796 261.83 L555.796 265.858 Q557.139 263.497 559.292 262.362 Q561.445 261.205 564.523 261.205 Q564.963 261.205 565.495 261.274 Q566.028 261.321 566.676 261.436 L566.699 265.811 Z" fill="#000000" fill-rule="nonzero" fill-opacity="1"></path><path clip-path="url(#clip650)" d="M582.949 274.723 Q577.787 274.723 575.796 275.904 Q573.806 277.084 573.806 279.932 Q573.806 282.2 575.287 283.543 Q576.792 284.862 579.361 284.862 Q582.903 284.862 585.032 282.362 Q587.185 279.839 587.185 275.672 L587.185 274.723 L582.949 274.723 M591.444 272.964 L591.444 287.756 L587.185 287.756 L587.185 283.821 Q585.727 286.182 583.551 287.316 Q581.375 288.427 578.227 288.427 Q574.245 288.427 571.884 286.205 Q569.546 283.959 569.546 280.209 Q569.546 275.834 572.463 273.612 Q575.403 271.39 581.213 271.39 L587.185 271.39 L587.185 270.973 Q587.185 268.034 585.241 266.436 Q583.319 264.816 579.824 264.816 Q577.602 264.816 575.495 265.348 Q573.389 265.881 571.445 266.946 L571.445 263.01 Q573.782 262.108 575.982 261.668 Q578.181 261.205 580.264 261.205 Q585.889 261.205 588.667 264.122 Q591.444 267.038 591.444 272.964 Z" fill="#000000" fill-rule="nonzero" fill-opacity="1"></path><path clip-path="url(#clip650)" d="M600.218 261.83 L604.477 261.83 L604.477 288.219 Q604.477 293.172 602.579 295.395 Q600.704 297.617 596.514 297.617 L594.893 297.617 L594.893 294.006 L596.028 294.006 Q598.458 294.006 599.338 292.871 Q600.218 291.76 600.218 288.219 L600.218 261.83 M600.218 251.737 L604.477 251.737 L604.477 257.131 L600.218 257.131 L600.218 251.737 Z" fill="#000000" fill-rule="nonzero" fill-opacity="1"></path><path clip-path="url(#clip650)" d="M635.565 273.728 L635.565 275.811 L615.981 275.811 Q616.259 280.209 618.62 282.524 Q621.004 284.816 625.241 284.816 Q627.694 284.816 629.986 284.214 Q632.301 283.612 634.569 282.409 L634.569 286.436 Q632.278 287.408 629.87 287.918 Q627.463 288.427 624.986 288.427 Q618.782 288.427 615.148 284.816 Q611.537 281.205 611.537 275.047 Q611.537 268.682 614.963 264.955 Q618.412 261.205 624.245 261.205 Q629.477 261.205 632.509 264.585 Q635.565 267.941 635.565 273.728 M631.305 272.478 Q631.259 268.983 629.338 266.899 Q627.44 264.816 624.291 264.816 Q620.727 264.816 618.574 266.83 Q616.444 268.844 616.12 272.501 L631.305 272.478 Z" fill="#000000" fill-rule="nonzero" fill-opacity="1"></path><path clip-path="url(#clip650)" d="M661.213 262.825 L661.213 266.807 Q659.407 265.811 657.578 265.325 Q655.773 264.816 653.921 264.816 Q649.777 264.816 647.486 267.455 Q645.194 270.071 645.194 274.816 Q645.194 279.561 647.486 282.2 Q649.777 284.816 653.921 284.816 Q655.773 284.816 657.578 284.33 Q659.407 283.821 661.213 282.825 L661.213 286.76 Q659.43 287.594 657.509 288.01 Q655.611 288.427 653.458 288.427 Q647.602 288.427 644.152 284.746 Q640.703 281.066 640.703 274.816 Q640.703 268.473 644.176 264.839 Q647.671 261.205 653.736 261.205 Q655.703 261.205 657.578 261.622 Q659.453 262.015 661.213 262.825 Z" fill="#000000" fill-rule="nonzero" fill-opacity="1"></path><path clip-path="url(#clip650)" d="M672.833 254.469 L672.833 261.83 L681.606 261.83 L681.606 265.14 L672.833 265.14 L672.833 279.214 Q672.833 282.385 673.689 283.288 Q674.569 284.191 677.231 284.191 L681.606 284.191 L681.606 287.756 L677.231 287.756 Q672.3 287.756 670.425 285.927 Q668.55 284.075 668.55 279.214 L668.55 265.14 L665.426 265.14 L665.426 261.83 L668.55 261.83 L668.55 254.469 L672.833 254.469 Z" fill="#000000" fill-rule="nonzero" fill-opacity="1"></path><path clip-path="url(#clip650)" d="M697.254 264.816 Q693.828 264.816 691.837 267.501 Q689.847 270.163 689.847 274.816 Q689.847 279.469 691.814 282.154 Q693.805 284.816 697.254 284.816 Q700.657 284.816 702.648 282.131 Q704.638 279.446 704.638 274.816 Q704.638 270.21 702.648 267.524 Q700.657 264.816 697.254 264.816 M697.254 261.205 Q702.81 261.205 705.981 264.816 Q709.152 268.427 709.152 274.816 Q709.152 281.182 705.981 284.816 Q702.81 288.427 697.254 288.427 Q691.675 288.427 688.504 284.816 Q685.356 281.182 685.356 274.816 Q685.356 268.427 688.504 264.816 Q691.675 261.205 697.254 261.205 Z" fill="#000000" fill-rule="nonzero" fill-opacity="1"></path><path clip-path="url(#clip650)" d="M731.235 265.811 Q730.518 265.395 729.661 265.21 Q728.828 265.001 727.809 265.001 Q724.198 265.001 722.254 267.362 Q720.333 269.7 720.333 274.098 L720.333 287.756 L716.05 287.756 L716.05 261.83 L720.333 261.83 L720.333 265.858 Q721.675 263.497 723.828 262.362 Q725.981 261.205 729.059 261.205 Q729.499 261.205 730.032 261.274 Q730.564 261.321 731.212 261.436 L731.235 265.811 Z" fill="#000000" fill-rule="nonzero" fill-opacity="1"></path><path clip-path="url(#clip650)" d="M746.49 290.163 Q744.684 294.793 742.971 296.205 Q741.258 297.617 738.388 297.617 L734.985 297.617 L734.985 294.052 L737.485 294.052 Q739.245 294.052 740.217 293.219 Q741.189 292.385 742.37 289.283 L743.133 287.339 L732.647 261.83 L737.161 261.83 L745.263 282.108 L753.365 261.83 L757.879 261.83 L746.49 290.163 Z" fill="#000000" fill-rule="nonzero" fill-opacity="1"></path></svg>