<svg xmlns="http://www.w3.org/2000/svg" xmlns:xlink="http://www.w3.org/1999/xlink" width="600" height="400" viewBox="0 0 2400 1600">
<defs>
  <clipPath id="clip200">
    <rect x="0" y="0" width="2400" height="1600"></rect>
  </clipPath>
</defs>
<path clip-path="url(#clip200)" d="M0 1600 L2400 1600 L2400 0 L0 0  Z" fill="#ffffff" fill-rule="evenodd" fill-opacity="1"></path>
<defs>
  <clipPath id="clip201">
    <rect x="480" y="0" width="1681" height="1600"></rect>
  </clipPath>
</defs>
<path clip-path="url(#clip200)" d="M174.149 1423.18 L2352.76 1423.18 L2352.76 123.472 L174.149 123.472  Z" fill="#ffffff" fill-rule="evenodd" fill-opacity="1"></path>
<defs>
  <clipPath id="clip202">
    <rect x="174" y="123" width="2180" height="1301"></rect>
  </clipPath>
</defs>
<polyline clip-path="url(#clip202)" style="stroke:#000000; stroke-linecap:round; stroke-linejoin:round; stroke-width:2; stroke-opacity:0.1; fill:none" points="235.808,1423.18 235.808,123.472 "></polyline>
<polyline clip-path="url(#clip202)" style="stroke:#000000; stroke-linecap:round; stroke-linejoin:round; stroke-width:2; stroke-opacity:0.1; fill:none" points="646.866,1423.18 646.866,123.472 "></polyline>
<polyline clip-path="url(#clip202)" style="stroke:#000000; stroke-linecap:round; stroke-linejoin:round; stroke-width:2; stroke-opacity:0.1; fill:none" points="1057.92,1423.18 1057.92,123.472 "></polyline>
<polyline clip-path="url(#clip202)" style="stroke:#000000; stroke-linecap:round; stroke-linejoin:round; stroke-width:2; stroke-opacity:0.1; fill:none" points="1468.98,1423.18 1468.98,123.472 "></polyline>
<polyline clip-path="url(#clip202)" style="stroke:#000000; stroke-linecap:round; stroke-linejoin:round; stroke-width:2; stroke-opacity:0.1; fill:none" points="1880.04,1423.18 1880.04,123.472 "></polyline>
<polyline clip-path="url(#clip202)" style="stroke:#000000; stroke-linecap:round; stroke-linejoin:round; stroke-width:2; stroke-opacity:0.1; fill:none" points="2291.1,1423.18 2291.1,123.472 "></polyline>
<polyline clip-path="url(#clip202)" style="stroke:#000000; stroke-linecap:round; stroke-linejoin:round; stroke-width:2; stroke-opacity:0.1; fill:none" points="174.149,1172.66 2352.76,1172.66 "></polyline>
<polyline clip-path="url(#clip202)" style="stroke:#000000; stroke-linecap:round; stroke-linejoin:round; stroke-width:2; stroke-opacity:0.1; fill:none" points="174.149,866.442 2352.76,866.442 "></polyline>
<polyline clip-path="url(#clip202)" style="stroke:#000000; stroke-linecap:round; stroke-linejoin:round; stroke-width:2; stroke-opacity:0.1; fill:none" points="174.149,560.227 2352.76,560.227 "></polyline>
<polyline clip-path="url(#clip202)" style="stroke:#000000; stroke-linecap:round; stroke-linejoin:round; stroke-width:2; stroke-opacity:0.1; fill:none" points="174.149,254.011 2352.76,254.011 "></polyline>
<polyline clip-path="url(#clip200)" style="stroke:#000000; stroke-linecap:round; stroke-linejoin:round; stroke-width:4; stroke-opacity:1; fill:none" points="174.149,1423.18 2352.76,1423.18 "></polyline>
<polyline clip-path="url(#clip200)" style="stroke:#000000; stroke-linecap:round; stroke-linejoin:round; stroke-width:4; stroke-opacity:1; fill:none" points="235.808,1423.18 235.808,1404.28 "></polyline>
<polyline clip-path="url(#clip200)" style="stroke:#000000; stroke-linecap:round; stroke-linejoin:round; stroke-width:4; stroke-opacity:1; fill:none" points="646.866,1423.18 646.866,1404.28 "></polyline>
<polyline clip-path="url(#clip200)" style="stroke:#000000; stroke-linecap:round; stroke-linejoin:round; stroke-width:4; stroke-opacity:1; fill:none" points="1057.92,1423.18 1057.92,1404.28 "></polyline>
<polyline clip-path="url(#clip200)" style="stroke:#000000; stroke-linecap:round; stroke-linejoin:round; stroke-width:4; stroke-opacity:1; fill:none" points="1468.98,1423.18 1468.98,1404.28 "></polyline>
<polyline clip-path="url(#clip200)" style="stroke:#000000; stroke-linecap:round; stroke-linejoin:round; stroke-width:4; stroke-opacity:1; fill:none" points="1880.04,1423.18 1880.04,1404.28 "></polyline>
<polyline clip-path="url(#clip200)" style="stroke:#000000; stroke-linecap:round; stroke-linejoin:round; stroke-width:4; stroke-opacity:1; fill:none" points="2291.1,1423.18 2291.1,1404.28 "></polyline>
<path clip-path="url(#clip200)" d="M235.808 1454.1 Q232.197 1454.1 230.368 1457.66 Q228.562 1461.2 228.562 1468.33 Q228.562 1475.44 230.368 1479.01 Q232.197 1482.55 235.808 1482.55 Q239.442 1482.55 241.247 1479.01 Q243.076 1475.44 243.076 1468.33 Q243.076 1461.2 241.247 1457.66 Q239.442 1454.1 235.808 1454.1 M235.808 1450.39 Q241.618 1450.39 244.673 1455 Q247.752 1459.58 247.752 1468.33 Q247.752 1477.06 244.673 1481.67 Q241.618 1486.25 235.808 1486.25 Q229.997 1486.25 226.919 1481.67 Q223.863 1477.06 223.863 1468.33 Q223.863 1459.58 226.919 1455 Q229.997 1450.39 235.808 1450.39 Z" fill="#000000" fill-rule="nonzero" fill-opacity="1"></path><path clip-path="url(#clip200)" d="M637.248 1481.64 L644.886 1481.64 L644.886 1455.28 L636.576 1456.95 L636.576 1452.69 L644.84 1451.02 L649.516 1451.02 L649.516 1481.64 L657.155 1481.64 L657.155 1485.58 L637.248 1485.58 L637.248 1481.64 Z" fill="#000000" fill-rule="nonzero" fill-opacity="1"></path><path clip-path="url(#clip200)" d="M1052.58 1481.64 L1068.9 1481.64 L1068.9 1485.58 L1046.95 1485.58 L1046.95 1481.64 Q1049.61 1478.89 1054.2 1474.26 Q1058.8 1469.61 1059.98 1468.27 Q1062.23 1465.74 1063.11 1464.01 Q1064.01 1462.25 1064.01 1460.56 Q1064.01 1457.8 1062.07 1456.07 Q1060.15 1454.33 1057.04 1454.33 Q1054.84 1454.33 1052.39 1455.09 Q1049.96 1455.86 1047.18 1457.41 L1047.18 1452.69 Q1050.01 1451.55 1052.46 1450.97 Q1054.91 1450.39 1056.95 1450.39 Q1062.32 1450.39 1065.52 1453.08 Q1068.71 1455.77 1068.71 1460.26 Q1068.71 1462.39 1067.9 1464.31 Q1067.11 1466.2 1065.01 1468.8 Q1064.43 1469.47 1061.33 1472.69 Q1058.22 1475.88 1052.58 1481.64 Z" fill="#000000" fill-rule="nonzero" fill-opacity="1"></path><path clip-path="url(#clip200)" d="M1473.23 1466.95 Q1476.59 1467.66 1478.46 1469.93 Q1480.36 1472.2 1480.36 1475.53 Q1480.36 1480.65 1476.84 1483.45 Q1473.32 1486.25 1466.84 1486.25 Q1464.66 1486.25 1462.35 1485.81 Q1460.06 1485.39 1457.6 1484.54 L1457.6 1480.02 Q1459.55 1481.16 1461.86 1481.74 Q1464.18 1482.32 1466.7 1482.32 Q1471.1 1482.32 1473.39 1480.58 Q1475.71 1478.84 1475.71 1475.53 Q1475.71 1472.48 1473.55 1470.77 Q1471.42 1469.03 1467.6 1469.03 L1463.58 1469.03 L1463.58 1465.19 L1467.79 1465.19 Q1471.24 1465.19 1473.07 1463.82 Q1474.9 1462.43 1474.9 1459.84 Q1474.9 1457.18 1473 1455.77 Q1471.12 1454.33 1467.6 1454.33 Q1465.68 1454.33 1463.48 1454.75 Q1461.28 1455.16 1458.65 1456.04 L1458.65 1451.88 Q1461.31 1451.14 1463.62 1450.77 Q1465.96 1450.39 1468.02 1450.39 Q1473.34 1450.39 1476.45 1452.83 Q1479.55 1455.23 1479.55 1459.35 Q1479.55 1462.22 1477.9 1464.21 Q1476.26 1466.18 1473.23 1466.95 Z" fill="#000000" fill-rule="nonzero" fill-opacity="1"></path><path clip-path="url(#clip200)" d="M1883.05 1455.09 L1871.24 1473.54 L1883.05 1473.54 L1883.05 1455.09 M1881.82 1451.02 L1887.7 1451.02 L1887.7 1473.54 L1892.63 1473.54 L1892.63 1477.43 L1887.7 1477.43 L1887.7 1485.58 L1883.05 1485.58 L1883.05 1477.43 L1867.45 1477.43 L1867.45 1472.92 L1881.82 1451.02 Z" fill="#000000" fill-rule="nonzero" fill-opacity="1"></path><path clip-path="url(#clip200)" d="M2281.38 1451.02 L2299.73 1451.02 L2299.73 1454.96 L2285.66 1454.96 L2285.66 1463.43 Q2286.68 1463.08 2287.69 1462.92 Q2288.71 1462.73 2289.73 1462.73 Q2295.52 1462.73 2298.9 1465.9 Q2302.28 1469.08 2302.28 1474.49 Q2302.28 1480.07 2298.81 1483.17 Q2295.33 1486.25 2289.01 1486.25 Q2286.84 1486.25 2284.57 1485.88 Q2282.32 1485.51 2279.92 1484.77 L2279.92 1480.07 Q2282 1481.2 2284.22 1481.76 Q2286.44 1482.32 2288.92 1482.32 Q2292.93 1482.32 2295.26 1480.21 Q2297.6 1478.1 2297.6 1474.49 Q2297.6 1470.88 2295.26 1468.77 Q2292.93 1466.67 2288.92 1466.67 Q2287.05 1466.67 2285.17 1467.08 Q2283.32 1467.5 2281.38 1468.38 L2281.38 1451.02 Z" fill="#000000" fill-rule="nonzero" fill-opacity="1"></path><path clip-path="url(#clip200)" d="M1161.27 1522.27 L1161.27 1532.4 L1173.33 1532.4 L1173.33 1536.95 L1161.27 1536.95 L1161.27 1556.3 Q1161.27 1560.66 1162.44 1561.9 Q1163.65 1563.14 1167.31 1563.14 L1173.33 1563.14 L1173.33 1568.04 L1167.31 1568.04 Q1160.53 1568.04 1157.96 1565.53 Q1155.38 1562.98 1155.38 1556.3 L1155.38 1536.95 L1151.08 1536.95 L1151.08 1532.4 L1155.38 1532.4 L1155.38 1522.27 L1161.27 1522.27 Z" fill="#000000" fill-rule="nonzero" fill-opacity="1"></path><path clip-path="url(#clip200)" d="M1181.03 1532.4 L1186.89 1532.4 L1186.89 1568.04 L1181.03 1568.04 L1181.03 1532.4 M1181.03 1518.52 L1186.89 1518.52 L1186.89 1525.93 L1181.03 1525.93 L1181.03 1518.52 Z" fill="#000000" fill-rule="nonzero" fill-opacity="1"></path><path clip-path="url(#clip200)" d="M1226.9 1539.24 Q1229.09 1535.29 1232.15 1533.41 Q1235.2 1531.54 1239.34 1531.54 Q1244.91 1531.54 1247.94 1535.45 Q1250.96 1539.33 1250.96 1546.53 L1250.96 1568.04 L1245.07 1568.04 L1245.07 1546.72 Q1245.07 1541.59 1243.26 1539.11 Q1241.44 1536.63 1237.72 1536.63 Q1233.17 1536.63 1230.53 1539.65 Q1227.88 1542.68 1227.88 1547.9 L1227.88 1568.04 L1222 1568.04 L1222 1546.72 Q1222 1541.56 1220.18 1539.11 Q1218.37 1536.63 1214.58 1536.63 Q1210.09 1536.63 1207.45 1539.68 Q1204.81 1542.71 1204.81 1547.9 L1204.81 1568.04 L1198.92 1568.04 L1198.92 1532.4 L1204.81 1532.4 L1204.81 1537.93 Q1206.81 1534.66 1209.61 1533.1 Q1212.42 1531.54 1216.27 1531.54 Q1220.15 1531.54 1222.86 1533.51 Q1225.59 1535.48 1226.9 1539.24 Z" fill="#000000" fill-rule="nonzero" fill-opacity="1"></path><path clip-path="url(#clip200)" d="M1293.13 1548.76 L1293.13 1551.62 L1266.21 1551.62 Q1266.59 1557.67 1269.83 1560.85 Q1273.11 1564 1278.94 1564 Q1282.31 1564 1285.46 1563.17 Q1288.64 1562.35 1291.76 1560.69 L1291.76 1566.23 Q1288.61 1567.57 1285.3 1568.27 Q1281.99 1568.97 1278.59 1568.97 Q1270.06 1568.97 1265.06 1564 Q1260.09 1559.04 1260.09 1550.57 Q1260.09 1541.82 1264.81 1536.69 Q1269.55 1531.54 1277.57 1531.54 Q1284.76 1531.54 1288.93 1536.18 Q1293.13 1540.8 1293.13 1548.76 M1287.28 1547.04 Q1287.21 1542.23 1284.57 1539.37 Q1281.96 1536.5 1277.63 1536.5 Q1272.73 1536.5 1269.77 1539.27 Q1266.84 1542.04 1266.4 1547.07 L1287.28 1547.04 Z" fill="#000000" fill-rule="nonzero" fill-opacity="1"></path><path clip-path="url(#clip200)" d="M1316.81 1518.58 Q1312.55 1525.9 1310.48 1533.06 Q1308.41 1540.23 1308.41 1547.58 Q1308.41 1554.93 1310.48 1562.16 Q1312.58 1569.35 1316.81 1576.64 L1311.72 1576.64 Q1306.95 1569.16 1304.56 1561.93 Q1302.2 1554.71 1302.2 1547.58 Q1302.2 1540.48 1304.56 1533.29 Q1306.91 1526.09 1311.72 1518.58 L1316.81 1518.58 Z" fill="#000000" fill-rule="nonzero" fill-opacity="1"></path><path clip-path="url(#clip200)" d="M1350.9 1533.45 L1350.9 1538.98 Q1348.42 1537.71 1345.75 1537.07 Q1343.07 1536.44 1340.21 1536.44 Q1335.85 1536.44 1333.65 1537.77 Q1331.49 1539.11 1331.49 1541.79 Q1331.49 1543.82 1333.05 1545 Q1334.61 1546.15 1339.32 1547.2 L1341.32 1547.64 Q1347.56 1548.98 1350.17 1551.43 Q1352.81 1553.85 1352.81 1558.21 Q1352.81 1563.17 1348.86 1566.07 Q1344.95 1568.97 1338.07 1568.97 Q1335.21 1568.97 1332.09 1568.39 Q1329 1567.85 1325.57 1566.74 L1325.57 1560.69 Q1328.81 1562.38 1331.96 1563.24 Q1335.11 1564.07 1338.2 1564.07 Q1342.34 1564.07 1344.57 1562.66 Q1346.8 1561.23 1346.8 1558.65 Q1346.8 1556.27 1345.17 1554.99 Q1343.58 1553.72 1338.14 1552.54 L1336.1 1552.07 Q1330.66 1550.92 1328.24 1548.56 Q1325.82 1546.18 1325.82 1542.04 Q1325.82 1537.01 1329.39 1534.27 Q1332.95 1531.54 1339.51 1531.54 Q1342.75 1531.54 1345.62 1532.01 Q1348.48 1532.49 1350.9 1533.45 Z" fill="#000000" fill-rule="nonzero" fill-opacity="1"></path><path clip-path="url(#clip200)" d="M1361.21 1518.58 L1366.31 1518.58 Q1371.08 1526.09 1373.44 1533.29 Q1375.82 1540.48 1375.82 1547.58 Q1375.82 1554.71 1373.44 1561.93 Q1371.08 1569.16 1366.31 1576.64 L1361.21 1576.64 Q1365.45 1569.35 1367.52 1562.16 Q1369.62 1554.93 1369.62 1547.58 Q1369.62 1540.23 1367.52 1533.06 Q1365.45 1525.9 1361.21 1518.58 Z" fill="#000000" fill-rule="nonzero" fill-opacity="1"></path><polyline clip-path="url(#clip200)" style="stroke:#000000; stroke-linecap:round; stroke-linejoin:round; stroke-width:4; stroke-opacity:1; fill:none" points="174.149,1423.18 174.149,123.472 "></polyline>
<polyline clip-path="url(#clip200)" style="stroke:#000000; stroke-linecap:round; stroke-linejoin:round; stroke-width:4; stroke-opacity:1; fill:none" points="174.149,1172.66 193.047,1172.66 "></polyline>
<polyline clip-path="url(#clip200)" style="stroke:#000000; stroke-linecap:round; stroke-linejoin:round; stroke-width:4; stroke-opacity:1; fill:none" points="174.149,866.442 193.047,866.442 "></polyline>
<polyline clip-path="url(#clip200)" style="stroke:#000000; stroke-linecap:round; stroke-linejoin:round; stroke-width:4; stroke-opacity:1; fill:none" points="174.149,560.227 193.047,560.227 "></polyline>
<polyline clip-path="url(#clip200)" style="stroke:#000000; stroke-linecap:round; stroke-linejoin:round; stroke-width:4; stroke-opacity:1; fill:none" points="174.149,254.011 193.047,254.011 "></polyline>
<path clip-path="url(#clip200)" d="M126.205 1158.46 Q122.593 1158.46 120.765 1162.02 Q118.959 1165.56 118.959 1172.69 Q118.959 1179.8 120.765 1183.36 Q122.593 1186.9 126.205 1186.9 Q129.839 1186.9 131.644 1183.36 Q133.473 1179.8 133.473 1172.69 Q133.473 1165.56 131.644 1162.02 Q129.839 1158.46 126.205 1158.46 M126.205 1154.75 Q132.015 1154.75 135.07 1159.36 Q138.149 1163.94 138.149 1172.69 Q138.149 1181.42 135.07 1186.03 Q132.015 1190.61 126.205 1190.61 Q120.394 1190.61 117.316 1186.03 Q114.26 1181.42 114.26 1172.69 Q114.26 1163.94 117.316 1159.36 Q120.394 1154.75 126.205 1154.75 Z" fill="#000000" fill-rule="nonzero" fill-opacity="1"></path><path clip-path="url(#clip200)" d="M118.242 879.787 L125.88 879.787 L125.88 853.421 L117.57 855.088 L117.57 850.828 L125.834 849.162 L130.51 849.162 L130.51 879.787 L138.149 879.787 L138.149 883.722 L118.242 883.722 L118.242 879.787 Z" fill="#000000" fill-rule="nonzero" fill-opacity="1"></path><path clip-path="url(#clip200)" d="M121.83 573.571 L138.149 573.571 L138.149 577.507 L116.205 577.507 L116.205 573.571 Q118.867 570.817 123.45 566.187 Q128.056 561.534 129.237 560.192 Q131.482 557.669 132.362 555.933 Q133.265 554.173 133.265 552.484 Q133.265 549.729 131.32 547.993 Q129.399 546.257 126.297 546.257 Q124.098 546.257 121.644 547.021 Q119.214 547.785 116.436 549.335 L116.436 544.613 Q119.26 543.479 121.714 542.9 Q124.168 542.322 126.205 542.322 Q131.575 542.322 134.769 545.007 Q137.964 547.692 137.964 552.183 Q137.964 554.312 137.154 556.234 Q136.367 558.132 134.26 560.724 Q133.681 561.396 130.58 564.613 Q127.478 567.808 121.83 573.571 Z" fill="#000000" fill-rule="nonzero" fill-opacity="1"></path><path clip-path="url(#clip200)" d="M131.019 252.657 Q134.376 253.375 136.251 255.643 Q138.149 257.912 138.149 261.245 Q138.149 266.361 134.63 269.162 Q131.112 271.963 124.63 271.963 Q122.455 271.963 120.14 271.523 Q117.848 271.106 115.394 270.25 L115.394 265.736 Q117.339 266.87 119.654 267.449 Q121.968 268.028 124.492 268.028 Q128.89 268.028 131.181 266.291 Q133.496 264.555 133.496 261.245 Q133.496 258.19 131.343 256.477 Q129.214 254.741 125.394 254.741 L121.367 254.741 L121.367 250.898 L125.58 250.898 Q129.029 250.898 130.857 249.532 Q132.686 248.143 132.686 245.551 Q132.686 242.889 130.788 241.477 Q128.913 240.042 125.394 240.042 Q123.473 240.042 121.274 240.458 Q119.075 240.875 116.436 241.755 L116.436 237.588 Q119.098 236.847 121.413 236.477 Q123.751 236.106 125.811 236.106 Q131.135 236.106 134.237 238.537 Q137.339 240.944 137.339 245.065 Q137.339 247.935 135.695 249.926 Q134.052 251.893 131.019 252.657 Z" fill="#000000" fill-rule="nonzero" fill-opacity="1"></path><path clip-path="url(#clip200)" d="M28.3562 756.711 L45.7028 769.602 L64.0042 756.043 L64.0042 762.95 L49.9996 773.326 L64.0042 783.702 L64.0042 790.609 L45.3526 776.763 L28.3562 789.431 L28.3562 782.524 L41.0558 773.071 L28.3562 763.618 L28.3562 756.711 Z" fill="#000000" fill-rule="nonzero" fill-opacity="1"></path><path clip-path="url(#clip200)" d="M1133.54 28.9478 L1133.54 35.9153 Q1130.38 34.1734 1127.18 33.3227 Q1124.02 32.4315 1120.78 32.4315 Q1113.53 32.4315 1109.52 37.0496 Q1105.51 41.6271 1105.51 49.9314 Q1105.51 58.2358 1109.52 62.8538 Q1113.53 67.4314 1120.78 67.4314 Q1124.02 67.4314 1127.18 66.5807 Q1130.38 65.6895 1133.54 63.9476 L1133.54 70.8341 Q1130.42 72.2924 1127.06 73.0216 Q1123.74 73.7508 1119.97 73.7508 Q1109.72 73.7508 1103.68 67.3098 Q1097.65 60.8689 1097.65 49.9314 Q1097.65 38.832 1103.73 32.472 Q1109.84 26.1121 1120.46 26.1121 Q1123.9 26.1121 1127.18 26.8413 Q1130.46 27.5299 1133.54 28.9478 Z" fill="#000000" fill-rule="nonzero" fill-opacity="1"></path><path clip-path="url(#clip200)" d="M1167.12 49.7694 Q1158.09 49.7694 1154.6 51.8354 Q1151.12 53.9013 1151.12 58.8839 Q1151.12 62.8538 1153.71 65.2034 Q1156.35 67.5124 1160.84 67.5124 Q1167.04 67.5124 1170.77 63.1374 Q1174.54 58.7219 1174.54 51.4303 L1174.54 49.7694 L1167.12 49.7694 M1181.99 46.6907 L1181.99 72.576 L1174.54 72.576 L1174.54 65.6895 Q1171.98 69.8214 1168.18 71.8063 Q1164.37 73.7508 1158.86 73.7508 Q1151.89 73.7508 1147.76 69.8619 Q1143.67 65.9325 1143.67 59.3701 Q1143.67 51.7138 1148.77 47.825 Q1153.92 43.9361 1164.08 43.9361 L1174.54 43.9361 L1174.54 43.2069 Q1174.54 38.0623 1171.13 35.2672 Q1167.77 32.4315 1161.65 32.4315 Q1157.76 32.4315 1154.08 33.3632 Q1150.39 34.295 1146.99 36.1584 L1146.99 29.2718 Q1151.08 27.692 1154.93 26.9223 Q1158.78 26.1121 1162.42 26.1121 Q1172.27 26.1121 1177.13 31.2163 Q1181.99 36.3204 1181.99 46.6907 Z" fill="#000000" fill-rule="nonzero" fill-opacity="1"></path><path clip-path="url(#clip200)" d="M1223.63 34.1734 Q1222.38 33.4443 1220.88 33.1202 Q1219.42 32.7556 1217.64 32.7556 Q1211.32 32.7556 1207.91 36.8875 Q1204.55 40.9789 1204.55 48.6757 L1204.55 72.576 L1197.06 72.576 L1197.06 27.2059 L1204.55 27.2059 L1204.55 34.2544 Q1206.9 30.1225 1210.67 28.1376 Q1214.44 26.1121 1219.82 26.1121 Q1220.59 26.1121 1221.53 26.2337 Q1222.46 26.3147 1223.59 26.5172 L1223.63 34.1734 Z" fill="#000000" fill-rule="nonzero" fill-opacity="1"></path><path clip-path="url(#clip200)" d="M1238.82 14.324 L1238.82 27.2059 L1254.18 27.2059 L1254.18 32.9987 L1238.82 32.9987 L1238.82 57.6282 Q1238.82 63.1779 1240.32 64.7578 Q1241.86 66.3376 1246.52 66.3376 L1254.18 66.3376 L1254.18 72.576 L1246.52 72.576 Q1237.89 72.576 1234.61 69.3758 Q1231.33 66.1351 1231.33 57.6282 L1231.33 32.9987 L1225.86 32.9987 L1225.86 27.2059 L1231.33 27.2059 L1231.33 14.324 L1238.82 14.324 Z" fill="#000000" fill-rule="nonzero" fill-opacity="1"></path><path clip-path="url(#clip200)" d="M1271.19 65.7705 L1271.19 89.8329 L1263.7 89.8329 L1263.7 27.2059 L1271.19 27.2059 L1271.19 34.0924 Q1273.54 30.0415 1277.1 28.0971 Q1280.71 26.1121 1285.69 26.1121 Q1293.96 26.1121 1299.1 32.6746 Q1304.29 39.2371 1304.29 49.9314 Q1304.29 60.6258 1299.1 67.1883 Q1293.96 73.7508 1285.69 73.7508 Q1280.71 73.7508 1277.1 71.8063 Q1273.54 69.8214 1271.19 65.7705 M1296.55 49.9314 Q1296.55 41.7081 1293.15 37.0496 Q1289.78 32.3505 1283.87 32.3505 Q1277.95 32.3505 1274.55 37.0496 Q1271.19 41.7081 1271.19 49.9314 Q1271.19 58.1548 1274.55 62.8538 Q1277.95 67.5124 1283.87 67.5124 Q1289.78 67.5124 1293.15 62.8538 Q1296.55 58.1548 1296.55 49.9314 Z" fill="#000000" fill-rule="nonzero" fill-opacity="1"></path><path clip-path="url(#clip200)" d="M1334.22 32.4315 Q1328.23 32.4315 1324.74 37.1306 Q1321.26 41.7891 1321.26 49.9314 Q1321.26 58.0738 1324.7 62.7728 Q1328.19 67.4314 1334.22 67.4314 Q1340.18 67.4314 1343.66 62.7323 Q1347.14 58.0333 1347.14 49.9314 Q1347.14 41.8701 1343.66 37.1711 Q1340.18 32.4315 1334.22 32.4315 M1334.22 26.1121 Q1343.94 26.1121 1349.49 32.4315 Q1355.04 38.7509 1355.04 49.9314 Q1355.04 61.0714 1349.49 67.4314 Q1343.94 73.7508 1334.22 73.7508 Q1324.46 73.7508 1318.91 67.4314 Q1313.4 61.0714 1313.4 49.9314 Q1313.4 38.7509 1318.91 32.4315 Q1324.46 26.1121 1334.22 26.1121 Z" fill="#000000" fill-rule="nonzero" fill-opacity="1"></path><path clip-path="url(#clip200)" d="M1367.4 9.54393 L1374.85 9.54393 L1374.85 72.576 L1367.4 72.576 L1367.4 9.54393 Z" fill="#000000" fill-rule="nonzero" fill-opacity="1"></path><path clip-path="url(#clip200)" d="M1429.26 48.0275 L1429.26 51.6733 L1394.99 51.6733 Q1395.47 59.3701 1399.6 63.421 Q1403.78 67.4314 1411.19 67.4314 Q1415.48 67.4314 1419.49 66.3781 Q1423.54 65.3249 1427.51 63.2184 L1427.51 70.267 Q1423.5 71.9684 1419.29 72.8596 Q1415.08 73.7508 1410.74 73.7508 Q1399.89 73.7508 1393.53 67.4314 Q1387.21 61.1119 1387.21 50.3365 Q1387.21 39.1965 1393.2 32.6746 Q1399.24 26.1121 1409.45 26.1121 Q1418.6 26.1121 1423.91 32.0264 Q1429.26 37.9003 1429.26 48.0275 M1421.8 45.84 Q1421.72 39.7232 1418.36 36.0774 Q1415.04 32.4315 1409.53 32.4315 Q1403.29 32.4315 1399.52 35.9558 Q1395.8 39.4801 1395.23 45.8805 L1421.8 45.84 Z" fill="#000000" fill-rule="nonzero" fill-opacity="1"></path><polyline clip-path="url(#clip202)" style="stroke:#009af9; stroke-linecap:round; stroke-linejoin:round; stroke-width:4; stroke-opacity:1; fill:none" points="235.808,1019.55 276.913,1006.89 318.019,987.264 359.125,960.606 400.231,927.251 441.337,889.739 482.442,851.913 523.548,816.681 564.654,786.053 605.76,761.266 646.866,742.938 687.971,731.201 729.077,725.823 770.183,726.306 811.289,731.976 852.394,742.063 893.5,755.761 934.606,772.283 975.712,790.895 1016.82,810.939 1057.92,831.844 1099.03,853.132 1140.14,874.409 1181.24,895.363 1222.35,915.752 1263.45,935.397 1304.56,954.168 1345.66,971.982 1386.77,988.786 1427.88,1004.56 1468.98,1019.29 1510.09,1033.01 1551.19,1045.74 1592.3,1057.51 1633.4,1068.37 1674.51,1078.37 1715.62,1087.54 1756.72,1095.95 1797.83,1103.64 1838.93,1110.65 1880.04,1117.04 1921.15,1122.86 1962.25,1128.14 2003.36,1132.92 2044.46,1137.25 2085.57,1141.16 2126.67,1144.69 2167.78,1147.87 2208.89,1150.73 2249.99,1153.29 2291.1,1155.59 "></polyline>
<polyline clip-path="url(#clip202)" style="stroke:#e26f46; stroke-linecap:round; stroke-linejoin:round; stroke-width:4; stroke-opacity:1; fill:none" points="235.808,264.098 276.913,262.599 318.019,257.789 359.125,248.654 400.231,234.123 441.337,216.194 482.442,198.69 523.548,183.801 564.654,172.514 605.76,165.033 646.866,161.108 687.971,160.256 729.077,161.896 770.183,165.424 811.289,170.262 852.394,175.888 893.5,181.855 934.606,187.803 975.712,193.465 1016.82,198.655 1057.92,203.262 1099.03,207.238 1140.14,210.576 1181.24,213.304 1222.35,215.471 1263.45,217.136 1304.56,218.365 1345.66,219.222 1386.77,219.768 1427.88,220.059 1468.98,220.147 1510.09,220.074 1551.19,219.877 1592.3,219.588 1633.4,219.233 1674.51,218.832 1715.62,218.403 1756.72,217.958 1797.83,217.508 1838.93,217.061 1880.04,216.622 1921.15,216.197 1962.25,215.788 2003.36,215.397 2044.46,215.025 2085.57,214.674 2126.67,214.343 2167.78,214.033 2208.89,213.744 2249.99,213.473 2291.1,213.222 "></polyline>
<polyline clip-path="url(#clip202)" style="stroke:#3da44d; stroke-linecap:round; stroke-linejoin:round; stroke-width:4; stroke-opacity:1; fill:none" points="235.808,1080.79 276.913,1011.3 318.019,941.389 359.125,870.542 400.231,807.36 441.337,787.308 482.442,801.104 523.548,839.243 564.654,893.248 605.76,956.16 646.866,1022.5 687.971,1088.06 729.077,1149.72 770.183,1205.32 811.289,1253.51 852.394,1293.67 893.5,1325.75 934.606,1350.14 975.712,1367.53 1016.82,1378.77 1057.92,1384.76 1099.03,1386.4 1140.14,1384.53 1181.24,1379.92 1222.35,1373.23 1263.45,1365.02 1304.56,1355.76 1345.66,1345.84 1386.77,1335.57 1427.88,1325.19 1468.98,1314.89 1510.09,1304.81 1551.19,1295.06 1592.3,1285.7 1633.4,1276.8 1674.51,1268.37 1715.62,1260.44 1756.72,1253 1797.83,1246.05 1838.93,1239.58 1880.04,1233.57 1921.15,1228.01 1962.25,1222.87 2003.36,1218.13 2044.46,1213.77 2085.57,1209.78 2126.67,1206.11 2167.78,1202.76 2208.89,1199.7 2249.99,1196.91 2291.1,1194.37 "></polyline>
<polyline clip-path="url(#clip202)" style="stroke:#c271d2; stroke-linecap:round; stroke-linejoin:round; stroke-width:4; stroke-opacity:1; fill:none" points="235.808,1172.66 276.913,1142.17 318.019,1105.27 359.125,1054.17 400.231,995.496 441.337,985.089 482.442,1004.14 523.548,1038.23 564.654,1077.4 605.76,1115.66 646.866,1149.76 687.971,1178.2 729.077,1200.47 770.183,1216.63 811.289,1227.12 852.394,1232.64 893.5,1234.06 934.606,1232.28 975.712,1228.21 1016.82,1222.68 1057.92,1216.37 1099.03,1209.81 1140.14,1203.41 1181.24,1197.41 1222.35,1191.99 1263.45,1187.21 1304.56,1183.1 1345.66,1179.64 1386.77,1176.78 1427.88,1174.47 1468.98,1172.63 1510.09,1171.2 1551.19,1170.12 1592.3,1169.32 1633.4,1168.76 1674.51,1168.4 1715.62,1168.18 1756.72,1168.08 1797.83,1168.08 1838.93,1168.14 1880.04,1168.25 1921.15,1168.41 1962.25,1168.58 2003.36,1168.78 2044.46,1168.98 2085.57,1169.19 2126.67,1169.4 2167.78,1169.61 2208.89,1169.81 2249.99,1170.01 2291.1,1170.2 "></polyline>
<path clip-path="url(#clip200)" d="M246.769 1379.86 L488.426 1379.86 L488.426 1120.66 L246.769 1120.66  Z" fill="#ffffff" fill-rule="evenodd" fill-opacity="1"></path>
<polyline clip-path="url(#clip200)" style="stroke:#000000; stroke-linecap:round; stroke-linejoin:round; stroke-width:4; stroke-opacity:1; fill:none" points="246.769,1379.86 488.426,1379.86 488.426,1120.66 246.769,1120.66 246.769,1379.86 "></polyline>
<polyline clip-path="url(#clip200)" style="stroke:#009af9; stroke-linecap:round; stroke-linejoin:round; stroke-width:4; stroke-opacity:1; fill:none" points="270.976,1172.5 416.216,1172.5 "></polyline>
<path clip-path="url(#clip200)" d="M444.705 1185.89 L444.705 1199.64 L440.423 1199.64 L440.423 1163.85 L444.705 1163.85 L444.705 1167.79 Q446.048 1165.47 448.085 1164.36 Q450.145 1163.23 452.992 1163.23 Q457.715 1163.23 460.654 1166.98 Q463.617 1170.73 463.617 1176.84 Q463.617 1182.95 460.654 1186.7 Q457.715 1190.45 452.992 1190.45 Q450.145 1190.45 448.085 1189.34 Q446.048 1188.2 444.705 1185.89 M459.196 1176.84 Q459.196 1172.14 457.252 1169.48 Q455.33 1166.79 451.951 1166.79 Q448.571 1166.79 446.627 1169.48 Q444.705 1172.14 444.705 1176.84 Q444.705 1181.54 446.627 1184.22 Q448.571 1186.88 451.951 1186.88 Q455.33 1186.88 457.252 1184.22 Q459.196 1181.54 459.196 1176.84 Z" fill="#000000" fill-rule="nonzero" fill-opacity="1"></path><polyline clip-path="url(#clip200)" style="stroke:#e26f46; stroke-linecap:round; stroke-linejoin:round; stroke-width:4; stroke-opacity:1; fill:none" points="270.976,1224.34 416.216,1224.34 "></polyline>
<path clip-path="url(#clip200)" d="M459.682 1225.18 L444.937 1225.18 Q445.284 1232.1 446.881 1235.04 Q448.872 1238.65 452.321 1238.65 Q455.793 1238.65 457.715 1235.02 Q459.404 1231.82 459.682 1225.18 M459.613 1221.25 Q458.965 1214.67 457.715 1212.36 Q455.724 1208.7 452.321 1208.7 Q448.78 1208.7 446.905 1212.31 Q445.423 1215.23 444.983 1221.25 L459.613 1221.25 M452.321 1205.23 Q457.877 1205.23 461.048 1210.13 Q464.219 1215.02 464.219 1223.68 Q464.219 1232.31 461.048 1237.22 Q457.877 1242.15 452.321 1242.15 Q446.743 1242.15 443.594 1237.22 Q440.423 1232.31 440.423 1223.68 Q440.423 1215.02 443.594 1210.13 Q446.743 1205.23 452.321 1205.23 Z" fill="#000000" fill-rule="nonzero" fill-opacity="1"></path><polyline clip-path="url(#clip200)" style="stroke:#3da44d; stroke-linecap:round; stroke-linejoin:round; stroke-width:4; stroke-opacity:1; fill:none" points="270.976,1276.18 416.216,1276.18 "></polyline>
<path clip-path="url(#clip200)" d="M444.705 1289.57 L444.705 1303.32 L440.423 1303.32 L440.423 1267.53 L444.705 1267.53 L444.705 1271.47 Q446.048 1269.15 448.085 1268.04 Q450.145 1266.91 452.992 1266.91 Q457.715 1266.91 460.654 1270.66 Q463.617 1274.41 463.617 1280.52 Q463.617 1286.63 460.654 1290.38 Q457.715 1294.13 452.992 1294.13 Q450.145 1294.13 448.085 1293.02 Q446.048 1291.88 444.705 1289.57 M459.196 1280.52 Q459.196 1275.82 457.252 1273.16 Q455.33 1270.47 451.951 1270.47 Q448.571 1270.47 446.627 1273.16 Q444.705 1275.82 444.705 1280.52 Q444.705 1285.22 446.627 1287.9 Q448.571 1290.56 451.951 1290.56 Q455.33 1290.56 457.252 1287.9 Q459.196 1285.22 459.196 1280.52 Z" fill="#000000" fill-rule="nonzero" fill-opacity="1"></path><path clip-path="url(#clip200)" d="M452.182 1257.44 L456.442 1257.44 L456.442 1262.83 L452.182 1262.83 L452.182 1257.44 M454.358 1266.91 L454.358 1266.91 Z" fill="#000000" fill-rule="nonzero" fill-opacity="1"></path><polyline clip-path="url(#clip200)" style="stroke:#c271d2; stroke-linecap:round; stroke-linejoin:round; stroke-width:4; stroke-opacity:1; fill:none" points="270.976,1328.02 416.216,1328.02 "></polyline>
<path clip-path="url(#clip200)" d="M459.682 1328.86 L444.937 1328.86 Q445.284 1335.78 446.881 1338.72 Q448.872 1342.33 452.321 1342.33 Q455.793 1342.33 457.715 1338.7 Q459.404 1335.5 459.682 1328.86 M459.613 1324.93 Q458.965 1318.35 457.715 1316.04 Q455.724 1312.38 452.321 1312.38 Q448.78 1312.38 446.905 1315.99 Q445.423 1318.91 444.983 1324.93 L459.613 1324.93 M452.321 1308.91 Q457.877 1308.91 461.048 1313.81 Q464.219 1318.7 464.219 1327.36 Q464.219 1335.99 461.048 1340.9 Q457.877 1345.83 452.321 1345.83 Q446.743 1345.83 443.594 1340.9 Q440.423 1335.99 440.423 1327.36 Q440.423 1318.7 443.594 1313.81 Q446.743 1308.91 452.321 1308.91 Z" fill="#000000" fill-rule="nonzero" fill-opacity="1"></path><path clip-path="url(#clip200)" d="M452.784 1309.28 L457.043 1309.28 L457.043 1314.67 L452.784 1314.67 L452.784 1309.28 M454.96 1318.75 L454.96 1318.75 Z" fill="#000000" fill-rule="nonzero" fill-opacity="1"></path></svg>