<svg xmlns="http://www.w3.org/2000/svg" xmlns:xlink="http://www.w3.org/1999/xlink" width="600" height="400" viewBox="0 0 2400 1600">
<defs>
  <clipPath id="clip690">
    <rect x="0" y="0" width="2400" height="1600"></rect>
  </clipPath>
</defs>
<path clip-path="url(#clip690)" d="M0 1600 L2400 1600 L2400 0 L0 0  Z" fill="#ffffff" fill-rule="evenodd" fill-opacity="1"></path>
<defs>
  <clipPath id="clip691">
    <rect x="480" y="0" width="1681" height="1600"></rect>
  </clipPath>
</defs>
<path clip-path="url(#clip690)" d="M175.445 1423.18 L2352.76 1423.18 L2352.76 123.472 L175.445 123.472  Z" fill="#ffffff" fill-rule="evenodd" fill-opacity="1"></path>
<defs>
  <clipPath id="clip692">
    <rect x="175" y="123" width="2178" height="1301"></rect>
  </clipPath>
</defs>
<polyline clip-path="url(#clip692)" style="stroke:#000000; stroke-linecap:round; stroke-linejoin:round; stroke-width:2; stroke-opacity:0.1; fill:none" points="245.933,1423.18 245.933,123.472 "></polyline>
<polyline clip-path="url(#clip692)" style="stroke:#000000; stroke-linecap:round; stroke-linejoin:round; stroke-width:2; stroke-opacity:0.1; fill:none" points="633.69,1423.18 633.69,123.472 "></polyline>
<polyline clip-path="url(#clip692)" style="stroke:#000000; stroke-linecap:round; stroke-linejoin:round; stroke-width:2; stroke-opacity:0.1; fill:none" points="1021.45,1423.18 1021.45,123.472 "></polyline>
<polyline clip-path="url(#clip692)" style="stroke:#000000; stroke-linecap:round; stroke-linejoin:round; stroke-width:2; stroke-opacity:0.1; fill:none" points="1409.21,1423.18 1409.21,123.472 "></polyline>
<polyline clip-path="url(#clip692)" style="stroke:#000000; stroke-linecap:round; stroke-linejoin:round; stroke-width:2; stroke-opacity:0.1; fill:none" points="1796.96,1423.18 1796.96,123.472 "></polyline>
<polyline clip-path="url(#clip692)" style="stroke:#000000; stroke-linecap:round; stroke-linejoin:round; stroke-width:2; stroke-opacity:0.1; fill:none" points="2184.72,1423.18 2184.72,123.472 "></polyline>
<polyline clip-path="url(#clip692)" style="stroke:#000000; stroke-linecap:round; stroke-linejoin:round; stroke-width:2; stroke-opacity:0.1; fill:none" points="175.445,1374.01 2352.76,1374.01 "></polyline>
<polyline clip-path="url(#clip692)" style="stroke:#000000; stroke-linecap:round; stroke-linejoin:round; stroke-width:2; stroke-opacity:0.1; fill:none" points="175.445,1027.23 2352.76,1027.23 "></polyline>
<polyline clip-path="url(#clip692)" style="stroke:#000000; stroke-linecap:round; stroke-linejoin:round; stroke-width:2; stroke-opacity:0.1; fill:none" points="175.445,680.438 2352.76,680.438 "></polyline>
<polyline clip-path="url(#clip692)" style="stroke:#000000; stroke-linecap:round; stroke-linejoin:round; stroke-width:2; stroke-opacity:0.1; fill:none" points="175.445,333.65 2352.76,333.65 "></polyline>
<polyline clip-path="url(#clip690)" style="stroke:#000000; stroke-linecap:round; stroke-linejoin:round; stroke-width:4; stroke-opacity:1; fill:none" points="175.445,1423.18 2352.76,1423.18 "></polyline>
<polyline clip-path="url(#clip690)" style="stroke:#000000; stroke-linecap:round; stroke-linejoin:round; stroke-width:4; stroke-opacity:1; fill:none" points="245.933,1423.18 245.933,1404.28 "></polyline>
<polyline clip-path="url(#clip690)" style="stroke:#000000; stroke-linecap:round; stroke-linejoin:round; stroke-width:4; stroke-opacity:1; fill:none" points="633.69,1423.18 633.69,1404.28 "></polyline>
<polyline clip-path="url(#clip690)" style="stroke:#000000; stroke-linecap:round; stroke-linejoin:round; stroke-width:4; stroke-opacity:1; fill:none" points="1021.45,1423.18 1021.45,1404.28 "></polyline>
<polyline clip-path="url(#clip690)" style="stroke:#000000; stroke-linecap:round; stroke-linejoin:round; stroke-width:4; stroke-opacity:1; fill:none" points="1409.21,1423.18 1409.21,1404.28 "></polyline>
<polyline clip-path="url(#clip690)" style="stroke:#000000; stroke-linecap:round; stroke-linejoin:round; stroke-width:4; stroke-opacity:1; fill:none" points="1796.96,1423.18 1796.96,1404.28 "></polyline>
<polyline clip-path="url(#clip690)" style="stroke:#000000; stroke-linecap:round; stroke-linejoin:round; stroke-width:4; stroke-opacity:1; fill:none" points="2184.72,1423.18 2184.72,1404.28 "></polyline>
<path clip-path="url(#clip690)" d="M245.933 1454.1 Q242.322 1454.1 240.493 1457.66 Q238.687 1461.2 238.687 1468.33 Q238.687 1475.44 240.493 1479.01 Q242.322 1482.55 245.933 1482.55 Q249.567 1482.55 251.373 1479.01 Q253.201 1475.44 253.201 1468.33 Q253.201 1461.2 251.373 1457.66 Q249.567 1454.1 245.933 1454.1 M245.933 1450.39 Q251.743 1450.39 254.799 1455 Q257.877 1459.58 257.877 1468.33 Q257.877 1477.06 254.799 1481.67 Q251.743 1486.25 245.933 1486.25 Q240.123 1486.25 237.044 1481.67 Q233.988 1477.06 233.988 1468.33 Q233.988 1459.58 237.044 1455 Q240.123 1450.39 245.933 1450.39 Z" fill="#000000" fill-rule="nonzero" fill-opacity="1"></path><path clip-path="url(#clip690)" d="M624.072 1481.64 L631.711 1481.64 L631.711 1455.28 L623.401 1456.95 L623.401 1452.69 L631.665 1451.02 L636.341 1451.02 L636.341 1481.64 L643.98 1481.64 L643.98 1485.58 L624.072 1485.58 L624.072 1481.64 Z" fill="#000000" fill-rule="nonzero" fill-opacity="1"></path><path clip-path="url(#clip690)" d="M1016.1 1481.64 L1032.42 1481.64 L1032.42 1485.58 L1010.48 1485.58 L1010.48 1481.64 Q1013.14 1478.89 1017.72 1474.26 Q1022.33 1469.61 1023.51 1468.27 Q1025.75 1465.74 1026.63 1464.01 Q1027.54 1462.25 1027.54 1460.56 Q1027.54 1457.8 1025.59 1456.07 Q1023.67 1454.33 1020.57 1454.33 Q1018.37 1454.33 1015.92 1455.09 Q1013.49 1455.86 1010.71 1457.41 L1010.71 1452.69 Q1013.53 1451.55 1015.99 1450.97 Q1018.44 1450.39 1020.48 1450.39 Q1025.85 1450.39 1029.04 1453.08 Q1032.23 1455.77 1032.23 1460.26 Q1032.23 1462.39 1031.42 1464.31 Q1030.64 1466.2 1028.53 1468.8 Q1027.95 1469.47 1024.85 1472.69 Q1021.75 1475.88 1016.1 1481.64 Z" fill="#000000" fill-rule="nonzero" fill-opacity="1"></path><path clip-path="url(#clip690)" d="M1413.45 1466.95 Q1416.81 1467.66 1418.68 1469.93 Q1420.58 1472.2 1420.58 1475.53 Q1420.58 1480.65 1417.06 1483.45 Q1413.55 1486.25 1407.06 1486.25 Q1404.89 1486.25 1402.57 1485.81 Q1400.28 1485.39 1397.83 1484.54 L1397.83 1480.02 Q1399.77 1481.16 1402.09 1481.74 Q1404.4 1482.32 1406.93 1482.32 Q1411.32 1482.32 1413.62 1480.58 Q1415.93 1478.84 1415.93 1475.53 Q1415.93 1472.48 1413.78 1470.77 Q1411.65 1469.03 1407.83 1469.03 L1403.8 1469.03 L1403.8 1465.19 L1408.01 1465.19 Q1411.46 1465.19 1413.29 1463.82 Q1415.12 1462.43 1415.12 1459.84 Q1415.12 1457.18 1413.22 1455.77 Q1411.35 1454.33 1407.83 1454.33 Q1405.91 1454.33 1403.71 1454.75 Q1401.51 1455.16 1398.87 1456.04 L1398.87 1451.88 Q1401.53 1451.14 1403.85 1450.77 Q1406.18 1450.39 1408.24 1450.39 Q1413.57 1450.39 1416.67 1452.83 Q1419.77 1455.23 1419.77 1459.35 Q1419.77 1462.22 1418.13 1464.21 Q1416.49 1466.18 1413.45 1466.95 Z" fill="#000000" fill-rule="nonzero" fill-opacity="1"></path><path clip-path="url(#clip690)" d="M1799.97 1455.09 L1788.17 1473.54 L1799.97 1473.54 L1799.97 1455.09 M1798.75 1451.02 L1804.63 1451.02 L1804.63 1473.54 L1809.56 1473.54 L1809.56 1477.43 L1804.63 1477.43 L1804.63 1485.58 L1799.97 1485.58 L1799.97 1477.43 L1784.37 1477.43 L1784.37 1472.92 L1798.75 1451.02 Z" fill="#000000" fill-rule="nonzero" fill-opacity="1"></path><path clip-path="url(#clip690)" d="M2175 1451.02 L2193.35 1451.02 L2193.35 1454.96 L2179.28 1454.96 L2179.28 1463.43 Q2180.3 1463.08 2181.32 1462.92 Q2182.34 1462.73 2183.35 1462.73 Q2189.14 1462.73 2192.52 1465.9 Q2195.9 1469.08 2195.9 1474.49 Q2195.9 1480.07 2192.43 1483.17 Q2188.96 1486.25 2182.64 1486.25 Q2180.46 1486.25 2178.19 1485.88 Q2175.95 1485.51 2173.54 1484.77 L2173.54 1480.07 Q2175.62 1481.2 2177.85 1481.76 Q2180.07 1482.32 2182.54 1482.32 Q2186.55 1482.32 2188.89 1480.21 Q2191.23 1478.1 2191.23 1474.49 Q2191.23 1470.88 2188.89 1468.77 Q2186.55 1466.67 2182.54 1466.67 Q2180.67 1466.67 2178.79 1467.08 Q2176.94 1467.5 2175 1468.38 L2175 1451.02 Z" fill="#000000" fill-rule="nonzero" fill-opacity="1"></path><path clip-path="url(#clip690)" d="M1268.37 1532.4 L1255.48 1549.74 L1269.03 1568.04 L1262.13 1568.04 L1251.75 1554.04 L1241.37 1568.04 L1234.47 1568.04 L1248.31 1549.39 L1235.65 1532.4 L1242.55 1532.4 L1252.01 1545.1 L1261.46 1532.4 L1268.37 1532.4 Z" fill="#000000" fill-rule="nonzero" fill-opacity="1"></path><path clip-path="url(#clip690)" d="M1276.13 1564.54 L1282.62 1564.54 L1282.62 1545.1 L1275.53 1546.4 L1275.53 1542.71 L1282.85 1541.47 L1287.21 1541.47 L1287.21 1564.54 L1293.73 1564.54 L1293.73 1568.04 L1276.13 1568.04 L1276.13 1564.54 Z" fill="#000000" fill-rule="nonzero" fill-opacity="1"></path><polyline clip-path="url(#clip690)" style="stroke:#000000; stroke-linecap:round; stroke-linejoin:round; stroke-width:4; stroke-opacity:1; fill:none" points="175.445,1423.18 175.445,123.472 "></polyline>
<polyline clip-path="url(#clip690)" style="stroke:#000000; stroke-linecap:round; stroke-linejoin:round; stroke-width:4; stroke-opacity:1; fill:none" points="175.445,1374.01 194.343,1374.01 "></polyline>
<polyline clip-path="url(#clip690)" style="stroke:#000000; stroke-linecap:round; stroke-linejoin:round; stroke-width:4; stroke-opacity:1; fill:none" points="175.445,1027.23 194.343,1027.23 "></polyline>
<polyline clip-path="url(#clip690)" style="stroke:#000000; stroke-linecap:round; stroke-linejoin:round; stroke-width:4; stroke-opacity:1; fill:none" points="175.445,680.438 194.343,680.438 "></polyline>
<polyline clip-path="url(#clip690)" style="stroke:#000000; stroke-linecap:round; stroke-linejoin:round; stroke-width:4; stroke-opacity:1; fill:none" points="175.445,333.65 194.343,333.65 "></polyline>
<path clip-path="url(#clip690)" d="M127.501 1359.81 Q123.89 1359.81 122.061 1363.38 Q120.255 1366.92 120.255 1374.05 Q120.255 1381.16 122.061 1384.72 Q123.89 1388.26 127.501 1388.26 Q131.135 1388.26 132.941 1384.72 Q134.769 1381.16 134.769 1374.05 Q134.769 1366.92 132.941 1363.38 Q131.135 1359.81 127.501 1359.81 M127.501 1356.11 Q133.311 1356.11 136.367 1360.72 Q139.445 1365.3 139.445 1374.05 Q139.445 1382.78 136.367 1387.38 Q133.311 1391.97 127.501 1391.97 Q121.691 1391.97 118.612 1387.38 Q115.556 1382.78 115.556 1374.05 Q115.556 1365.3 118.612 1360.72 Q121.691 1356.11 127.501 1356.11 Z" fill="#000000" fill-rule="nonzero" fill-opacity="1"></path><path clip-path="url(#clip690)" d="M123.126 1040.57 L139.445 1040.57 L139.445 1044.51 L117.501 1044.51 L117.501 1040.57 Q120.163 1037.82 124.746 1033.19 Q129.353 1028.53 130.533 1027.19 Q132.779 1024.67 133.658 1022.93 Q134.561 1021.17 134.561 1019.48 Q134.561 1016.73 132.617 1014.99 Q130.695 1013.26 127.593 1013.26 Q125.394 1013.26 122.941 1014.02 Q120.51 1014.78 117.732 1016.33 L117.732 1011.61 Q120.556 1010.48 123.01 1009.9 Q125.464 1009.32 127.501 1009.32 Q132.871 1009.32 136.066 1012.01 Q139.26 1014.69 139.26 1019.18 Q139.26 1021.31 138.45 1023.23 Q137.663 1025.13 135.556 1027.72 Q134.978 1028.4 131.876 1031.61 Q128.774 1034.81 123.126 1040.57 Z" fill="#000000" fill-rule="nonzero" fill-opacity="1"></path><path clip-path="url(#clip690)" d="M129.862 667.232 L118.056 685.681 L129.862 685.681 L129.862 667.232 M128.635 663.158 L134.515 663.158 L134.515 685.681 L139.445 685.681 L139.445 689.57 L134.515 689.57 L134.515 697.718 L129.862 697.718 L129.862 689.57 L114.26 689.57 L114.26 685.056 L128.635 663.158 Z" fill="#000000" fill-rule="nonzero" fill-opacity="1"></path><path clip-path="url(#clip690)" d="M127.917 331.787 Q124.769 331.787 122.918 333.94 Q121.089 336.092 121.089 339.842 Q121.089 343.569 122.918 345.745 Q124.769 347.898 127.917 347.898 Q131.066 347.898 132.894 345.745 Q134.746 343.569 134.746 339.842 Q134.746 336.092 132.894 333.94 Q131.066 331.787 127.917 331.787 M137.2 317.134 L137.2 321.393 Q135.441 320.56 133.635 320.12 Q131.853 319.68 130.093 319.68 Q125.464 319.68 123.01 322.805 Q120.58 325.93 120.232 332.25 Q121.598 330.236 123.658 329.171 Q125.718 328.083 128.195 328.083 Q133.404 328.083 136.413 331.254 Q139.445 334.403 139.445 339.842 Q139.445 345.166 136.297 348.384 Q133.149 351.602 127.917 351.602 Q121.922 351.602 118.751 347.018 Q115.58 342.412 115.58 333.685 Q115.58 325.491 119.468 320.63 Q123.357 315.745 129.908 315.745 Q131.667 315.745 133.45 316.092 Q135.255 316.44 137.2 317.134 Z" fill="#000000" fill-rule="nonzero" fill-opacity="1"></path><path clip-path="url(#clip690)" d="M28.3562 768.79 L45.7028 781.681 L64.0042 768.122 L64.0042 775.029 L49.9996 785.405 L64.0042 795.781 L64.0042 802.688 L45.3526 788.842 L28.3562 801.51 L28.3562 794.603 L41.0558 785.15 L28.3562 775.697 L28.3562 768.79 Z" fill="#000000" fill-rule="nonzero" fill-opacity="1"></path><path clip-path="url(#clip690)" d="M60.3757 757.459 L60.3757 743.964 L64.0042 743.964 L64.0042 762.998 L60.503 762.998 Q59.5163 761.915 57.7339 759.91 Q48.0262 748.961 45.0344 748.961 Q42.9337 748.961 41.6605 750.616 Q40.3556 752.271 40.3556 754.977 Q40.3556 756.632 40.9285 758.573 Q41.4696 760.515 42.5836 762.807 L38.6686 762.807 Q37.7774 760.356 37.3318 758.255 Q36.8862 756.123 36.8862 754.308 Q36.8862 749.693 38.9869 746.924 Q41.0876 744.155 44.5251 744.155 Q48.9493 744.155 57.9886 754.69 Q59.5163 756.473 60.3757 757.459 Z" fill="#000000" fill-rule="nonzero" fill-opacity="1"></path><path clip-path="url(#clip690)" d="M747.793 12.096 L798.955 12.096 L798.955 18.9825 L777.486 18.9825 L777.486 72.576 L769.262 72.576 L769.262 18.9825 L747.793 18.9825 L747.793 12.096 Z" fill="#000000" fill-rule="nonzero" fill-opacity="1"></path><path clip-path="url(#clip690)" d="M820.628 34.1734 Q819.372 33.4443 817.873 33.1202 Q816.415 32.7556 814.632 32.7556 Q808.313 32.7556 804.91 36.8875 Q801.548 40.9789 801.548 48.6757 L801.548 72.576 L794.054 72.576 L794.054 27.2059 L801.548 27.2059 L801.548 34.2544 Q803.898 30.1225 807.665 28.1376 Q811.432 26.1121 816.82 26.1121 Q817.59 26.1121 818.521 26.2337 Q819.453 26.3147 820.587 26.5172 L820.628 34.1734 Z" fill="#000000" fill-rule="nonzero" fill-opacity="1"></path><path clip-path="url(#clip690)" d="M849.065 49.7694 Q840.032 49.7694 836.548 51.8354 Q833.064 53.9013 833.064 58.8839 Q833.064 62.8538 835.657 65.2034 Q838.29 67.5124 842.786 67.5124 Q848.984 67.5124 852.711 63.1374 Q856.478 58.7219 856.478 51.4303 L856.478 49.7694 L849.065 49.7694 M863.932 46.6907 L863.932 72.576 L856.478 72.576 L856.478 65.6895 Q853.926 69.8214 850.118 71.8063 Q846.311 73.7508 840.801 73.7508 Q833.834 73.7508 829.702 69.8619 Q825.61 65.9325 825.61 59.3701 Q825.61 51.7138 830.715 47.825 Q835.859 43.9361 846.027 43.9361 L856.478 43.9361 L856.478 43.2069 Q856.478 38.0623 853.076 35.2672 Q849.713 32.4315 843.596 32.4315 Q839.708 32.4315 836.021 33.3632 Q832.335 34.295 828.932 36.1584 L828.932 29.2718 Q833.024 27.692 836.872 26.9223 Q840.72 26.1121 844.366 26.1121 Q854.21 26.1121 859.071 31.2163 Q863.932 36.3204 863.932 46.6907 Z" fill="#000000" fill-rule="nonzero" fill-opacity="1"></path><path clip-path="url(#clip690)" d="M879.285 27.2059 L886.739 27.2059 L886.739 73.3862 Q886.739 82.0551 883.417 85.944 Q880.136 89.8329 872.803 89.8329 L869.968 89.8329 L869.968 83.5134 L871.953 83.5134 Q876.206 83.5134 877.746 81.5285 Q879.285 79.5841 879.285 73.3862 L879.285 27.2059 M879.285 9.54393 L886.739 9.54393 L886.739 18.9825 L879.285 18.9825 L879.285 9.54393 Z" fill="#000000" fill-rule="nonzero" fill-opacity="1"></path><path clip-path="url(#clip690)" d="M941.142 48.0275 L941.142 51.6733 L906.872 51.6733 Q907.358 59.3701 911.49 63.421 Q915.662 67.4314 923.075 67.4314 Q927.369 67.4314 931.38 66.3781 Q935.43 65.3249 939.4 63.2184 L939.4 70.267 Q935.39 71.9684 931.177 72.8596 Q926.964 73.7508 922.63 73.7508 Q911.773 73.7508 905.413 67.4314 Q899.094 61.1119 899.094 50.3365 Q899.094 39.1965 905.089 32.6746 Q911.125 26.1121 921.333 26.1121 Q930.488 26.1121 935.795 32.0264 Q941.142 37.9003 941.142 48.0275 M933.689 45.84 Q933.608 39.7232 930.245 36.0774 Q926.924 32.4315 921.414 32.4315 Q915.176 32.4315 911.409 35.9558 Q907.682 39.4801 907.115 45.8805 L933.689 45.84 Z" fill="#000000" fill-rule="nonzero" fill-opacity="1"></path><path clip-path="url(#clip690)" d="M986.026 28.9478 L986.026 35.9153 Q982.867 34.1734 979.666 33.3227 Q976.507 32.4315 973.266 32.4315 Q966.015 32.4315 962.004 37.0496 Q957.994 41.6271 957.994 49.9314 Q957.994 58.2358 962.004 62.8538 Q966.015 67.4314 973.266 67.4314 Q976.507 67.4314 979.666 66.5807 Q982.867 65.6895 986.026 63.9476 L986.026 70.8341 Q982.907 72.2924 979.545 73.0216 Q976.223 73.7508 972.456 73.7508 Q962.207 73.7508 956.171 67.3098 Q950.135 60.8689 950.135 49.9314 Q950.135 38.832 956.212 32.472 Q962.328 26.1121 972.942 26.1121 Q976.385 26.1121 979.666 26.8413 Q982.948 27.5299 986.026 28.9478 Z" fill="#000000" fill-rule="nonzero" fill-opacity="1"></path><path clip-path="url(#clip690)" d="M1006.36 14.324 L1006.36 27.2059 L1021.71 27.2059 L1021.71 32.9987 L1006.36 32.9987 L1006.36 57.6282 Q1006.36 63.1779 1007.86 64.7578 Q1009.4 66.3376 1014.06 66.3376 L1021.71 66.3376 L1021.71 72.576 L1014.06 72.576 Q1005.43 72.576 1002.15 69.3758 Q998.868 66.1351 998.868 57.6282 L998.868 32.9987 L993.399 32.9987 L993.399 27.2059 L998.868 27.2059 L998.868 14.324 L1006.36 14.324 Z" fill="#000000" fill-rule="nonzero" fill-opacity="1"></path><path clip-path="url(#clip690)" d="M1049.1 32.4315 Q1043.1 32.4315 1039.62 37.1306 Q1036.14 41.7891 1036.14 49.9314 Q1036.14 58.0738 1039.58 62.7728 Q1043.06 67.4314 1049.1 67.4314 Q1055.05 67.4314 1058.54 62.7323 Q1062.02 58.0333 1062.02 49.9314 Q1062.02 41.8701 1058.54 37.1711 Q1055.05 32.4315 1049.1 32.4315 M1049.1 26.1121 Q1058.82 26.1121 1064.37 32.4315 Q1069.92 38.7509 1069.92 49.9314 Q1069.92 61.0714 1064.37 67.4314 Q1058.82 73.7508 1049.1 73.7508 Q1039.34 73.7508 1033.79 67.4314 Q1028.28 61.0714 1028.28 49.9314 Q1028.28 38.7509 1033.79 32.4315 Q1039.34 26.1121 1049.1 26.1121 Z" fill="#000000" fill-rule="nonzero" fill-opacity="1"></path><path clip-path="url(#clip690)" d="M1108.57 34.1734 Q1107.31 33.4443 1105.81 33.1202 Q1104.35 32.7556 1102.57 32.7556 Q1096.25 32.7556 1092.85 36.8875 Q1089.49 40.9789 1089.49 48.6757 L1089.49 72.576 L1081.99 72.576 L1081.99 27.2059 L1089.49 27.2059 L1089.49 34.2544 Q1091.84 30.1225 1095.6 28.1376 Q1099.37 26.1121 1104.76 26.1121 Q1105.53 26.1121 1106.46 26.2337 Q1107.39 26.3147 1108.53 26.5172 L1108.57 34.1734 Z" fill="#000000" fill-rule="nonzero" fill-opacity="1"></path><path clip-path="url(#clip690)" d="M1135.26 76.7889 Q1132.1 84.8907 1129.1 87.3618 Q1126.11 89.8329 1121.08 89.8329 L1115.13 89.8329 L1115.13 83.5945 L1119.5 83.5945 Q1122.58 83.5945 1124.28 82.1361 Q1125.98 80.6778 1128.05 75.2496 L1129.39 71.8468 L1111.04 27.2059 L1118.94 27.2059 L1133.11 62.6918 L1147.29 27.2059 L1155.19 27.2059 L1135.26 76.7889 Z" fill="#000000" fill-rule="nonzero" fill-opacity="1"></path><path clip-path="url(#clip690)" d="M1191.85 27.2059 L1199.31 27.2059 L1199.31 72.576 L1191.85 72.576 L1191.85 27.2059 M1191.85 9.54393 L1199.31 9.54393 L1199.31 18.9825 L1191.85 18.9825 L1191.85 9.54393 Z" fill="#000000" fill-rule="nonzero" fill-opacity="1"></path><path clip-path="url(#clip690)" d="M1252.62 45.1919 L1252.62 72.576 L1245.16 72.576 L1245.16 45.4349 Q1245.16 38.994 1242.65 35.7938 Q1240.14 32.5936 1235.12 32.5936 Q1229.08 32.5936 1225.6 36.4419 Q1222.11 40.2903 1222.11 46.9338 L1222.11 72.576 L1214.62 72.576 L1214.62 27.2059 L1222.11 27.2059 L1222.11 34.2544 Q1224.79 30.163 1228.39 28.1376 Q1232.04 26.1121 1236.78 26.1121 Q1244.6 26.1121 1248.61 30.9732 Q1252.62 35.7938 1252.62 45.1919 Z" fill="#000000" fill-rule="nonzero" fill-opacity="1"></path><path clip-path="url(#clip690)" d="M1330.43 14.0809 L1330.43 22.0612 Q1325.78 19.8332 1321.64 18.7395 Q1317.51 17.6457 1313.66 17.6457 Q1306.98 17.6457 1303.33 20.2383 Q1299.73 22.8309 1299.73 27.611 Q1299.73 31.6214 1302.12 33.6873 Q1304.55 35.7128 1311.27 36.9686 L1316.22 37.9813 Q1325.37 39.7232 1329.7 44.1387 Q1334.08 48.5136 1334.08 55.8863 Q1334.08 64.6767 1328.17 69.2137 Q1322.29 73.7508 1310.91 73.7508 Q1306.61 73.7508 1301.75 72.7785 Q1296.93 71.8063 1291.75 69.9024 L1291.75 61.4765 Q1296.73 64.2716 1301.51 65.6895 Q1306.29 67.1073 1310.91 67.1073 Q1317.92 67.1073 1321.72 64.3527 Q1325.53 61.598 1325.53 56.4939 Q1325.53 52.0379 1322.78 49.5264 Q1320.06 47.0148 1313.83 45.759 L1308.84 44.7868 Q1299.69 42.9639 1295.6 39.075 Q1291.5 35.1862 1291.5 28.2591 Q1291.5 20.2383 1297.14 15.6203 Q1302.81 11.0023 1312.73 11.0023 Q1316.99 11.0023 1321.4 11.7719 Q1325.82 12.5416 1330.43 14.0809 Z" fill="#000000" fill-rule="nonzero" fill-opacity="1"></path><path clip-path="url(#clip690)" d="M1353.89 14.324 L1353.89 27.2059 L1369.24 27.2059 L1369.24 32.9987 L1353.89 32.9987 L1353.89 57.6282 Q1353.89 63.1779 1355.39 64.7578 Q1356.93 66.3376 1361.59 66.3376 L1369.24 66.3376 L1369.24 72.576 L1361.59 72.576 Q1352.96 72.576 1349.68 69.3758 Q1346.39 66.1351 1346.39 57.6282 L1346.39 32.9987 L1340.93 32.9987 L1340.93 27.2059 L1346.39 27.2059 L1346.39 14.324 L1353.89 14.324 Z" fill="#000000" fill-rule="nonzero" fill-opacity="1"></path><path clip-path="url(#clip690)" d="M1399.66 49.7694 Q1390.63 49.7694 1387.15 51.8354 Q1383.66 53.9013 1383.66 58.8839 Q1383.66 62.8538 1386.26 65.2034 Q1388.89 67.5124 1393.39 67.5124 Q1399.58 67.5124 1403.31 63.1374 Q1407.08 58.7219 1407.08 51.4303 L1407.08 49.7694 L1399.66 49.7694 M1414.53 46.6907 L1414.53 72.576 L1407.08 72.576 L1407.08 65.6895 Q1404.53 69.8214 1400.72 71.8063 Q1396.91 73.7508 1391.4 73.7508 Q1384.43 73.7508 1380.3 69.8619 Q1376.21 65.9325 1376.21 59.3701 Q1376.21 51.7138 1381.31 47.825 Q1386.46 43.9361 1396.63 43.9361 L1407.08 43.9361 L1407.08 43.2069 Q1407.08 38.0623 1403.67 35.2672 Q1400.31 32.4315 1394.2 32.4315 Q1390.31 32.4315 1386.62 33.3632 Q1382.93 34.295 1379.53 36.1584 L1379.53 29.2718 Q1383.62 27.692 1387.47 26.9223 Q1391.32 26.1121 1394.97 26.1121 Q1404.81 26.1121 1409.67 31.2163 Q1414.53 36.3204 1414.53 46.6907 Z" fill="#000000" fill-rule="nonzero" fill-opacity="1"></path><path clip-path="url(#clip690)" d="M1437.26 14.324 L1437.26 27.2059 L1452.61 27.2059 L1452.61 32.9987 L1437.26 32.9987 L1437.26 57.6282 Q1437.26 63.1779 1438.76 64.7578 Q1440.29 66.3376 1444.95 66.3376 L1452.61 66.3376 L1452.61 72.576 L1444.95 72.576 Q1436.32 72.576 1433.04 69.3758 Q1429.76 66.1351 1429.76 57.6282 L1429.76 32.9987 L1424.29 32.9987 L1424.29 27.2059 L1429.76 27.2059 L1429.76 14.324 L1437.26 14.324 Z" fill="#000000" fill-rule="nonzero" fill-opacity="1"></path><path clip-path="url(#clip690)" d="M1501.22 48.0275 L1501.22 51.6733 L1466.95 51.6733 Q1467.44 59.3701 1471.57 63.421 Q1475.74 67.4314 1483.15 67.4314 Q1487.45 67.4314 1491.46 66.3781 Q1495.51 65.3249 1499.48 63.2184 L1499.48 70.267 Q1495.47 71.9684 1491.26 72.8596 Q1487.04 73.7508 1482.71 73.7508 Q1471.85 73.7508 1465.49 67.4314 Q1459.17 61.1119 1459.17 50.3365 Q1459.17 39.1965 1465.17 32.6746 Q1471.2 26.1121 1481.41 26.1121 Q1490.57 26.1121 1495.87 32.0264 Q1501.22 37.9003 1501.22 48.0275 M1493.77 45.84 Q1493.69 39.7232 1490.32 36.0774 Q1487 32.4315 1481.49 32.4315 Q1475.25 32.4315 1471.49 35.9558 Q1467.76 39.4801 1467.19 45.8805 L1493.77 45.84 Z" fill="#000000" fill-rule="nonzero" fill-opacity="1"></path><path clip-path="url(#clip690)" d="M1576.41 14.0809 L1576.41 22.0612 Q1571.75 19.8332 1567.61 18.7395 Q1563.48 17.6457 1559.63 17.6457 Q1552.95 17.6457 1549.3 20.2383 Q1545.7 22.8309 1545.7 27.611 Q1545.7 31.6214 1548.09 33.6873 Q1550.52 35.7128 1557.24 36.9686 L1562.19 37.9813 Q1571.34 39.7232 1575.68 44.1387 Q1580.05 48.5136 1580.05 55.8863 Q1580.05 64.6767 1574.14 69.2137 Q1568.26 73.7508 1556.88 73.7508 Q1552.59 73.7508 1547.72 72.7785 Q1542.9 71.8063 1537.72 69.9024 L1537.72 61.4765 Q1542.7 64.2716 1547.48 65.6895 Q1552.26 67.1073 1556.88 67.1073 Q1563.89 67.1073 1567.7 64.3527 Q1571.5 61.598 1571.5 56.4939 Q1571.5 52.0379 1568.75 49.5264 Q1566.03 47.0148 1559.8 45.759 L1554.81 44.7868 Q1545.66 42.9639 1541.57 39.075 Q1537.48 35.1862 1537.48 28.2591 Q1537.48 20.2383 1543.11 15.6203 Q1548.78 11.0023 1558.7 11.0023 Q1562.96 11.0023 1567.37 11.7719 Q1571.79 12.5416 1576.41 14.0809 Z" fill="#000000" fill-rule="nonzero" fill-opacity="1"></path><path clip-path="url(#clip690)" d="M1599.7 65.7705 L1599.7 89.8329 L1592.2 89.8329 L1592.2 27.2059 L1599.7 27.2059 L1599.7 34.0924 Q1602.05 30.0415 1605.61 28.0971 Q1609.22 26.1121 1614.2 26.1121 Q1622.46 26.1121 1627.61 32.6746 Q1632.79 39.2371 1632.79 49.9314 Q1632.79 60.6258 1627.61 67.1883 Q1622.46 73.7508 1614.2 73.7508 Q1609.22 73.7508 1605.61 71.8063 Q1602.05 69.8214 1599.7 65.7705 M1625.06 49.9314 Q1625.06 41.7081 1621.65 37.0496 Q1618.29 32.3505 1612.38 32.3505 Q1606.46 32.3505 1603.06 37.0496 Q1599.7 41.7081 1599.7 49.9314 Q1599.7 58.1548 1603.06 62.8538 Q1606.46 67.5124 1612.38 67.5124 Q1618.29 67.5124 1621.65 62.8538 Q1625.06 58.1548 1625.06 49.9314 Z" fill="#000000" fill-rule="nonzero" fill-opacity="1"></path><path clip-path="url(#clip690)" d="M1665.77 49.7694 Q1656.73 49.7694 1653.25 51.8354 Q1649.77 53.9013 1649.77 58.8839 Q1649.77 62.8538 1652.36 65.2034 Q1654.99 67.5124 1659.49 67.5124 Q1665.69 67.5124 1669.41 63.1374 Q1673.18 58.7219 1673.18 51.4303 L1673.18 49.7694 L1665.77 49.7694 M1680.63 46.6907 L1680.63 72.576 L1673.18 72.576 L1673.18 65.6895 Q1670.63 69.8214 1666.82 71.8063 Q1663.01 73.7508 1657.5 73.7508 Q1650.54 73.7508 1646.4 69.8619 Q1642.31 65.9325 1642.31 59.3701 Q1642.31 51.7138 1647.42 47.825 Q1652.56 43.9361 1662.73 43.9361 L1673.18 43.9361 L1673.18 43.2069 Q1673.18 38.0623 1669.78 35.2672 Q1666.42 32.4315 1660.3 32.4315 Q1656.41 32.4315 1652.72 33.3632 Q1649.04 34.295 1645.63 36.1584 L1645.63 29.2718 Q1649.73 27.692 1653.57 26.9223 Q1657.42 26.1121 1661.07 26.1121 Q1670.91 26.1121 1675.77 31.2163 Q1680.63 36.3204 1680.63 46.6907 Z" fill="#000000" fill-rule="nonzero" fill-opacity="1"></path><path clip-path="url(#clip690)" d="M1728.64 28.9478 L1728.64 35.9153 Q1725.48 34.1734 1722.28 33.3227 Q1719.12 32.4315 1715.88 32.4315 Q1708.63 32.4315 1704.62 37.0496 Q1700.61 41.6271 1700.61 49.9314 Q1700.61 58.2358 1704.62 62.8538 Q1708.63 67.4314 1715.88 67.4314 Q1719.12 67.4314 1722.28 66.5807 Q1725.48 65.6895 1728.64 63.9476 L1728.64 70.8341 Q1725.52 72.2924 1722.16 73.0216 Q1718.83 73.7508 1715.07 73.7508 Q1704.82 73.7508 1698.78 67.3098 Q1692.75 60.8689 1692.75 49.9314 Q1692.75 38.832 1698.82 32.472 Q1704.94 26.1121 1715.55 26.1121 Q1719 26.1121 1722.28 26.8413 Q1725.56 27.5299 1728.64 28.9478 Z" fill="#000000" fill-rule="nonzero" fill-opacity="1"></path><path clip-path="url(#clip690)" d="M1780.41 48.0275 L1780.41 51.6733 L1746.14 51.6733 Q1746.62 59.3701 1750.76 63.421 Q1754.93 67.4314 1762.34 67.4314 Q1766.64 67.4314 1770.65 66.3781 Q1774.7 65.3249 1778.67 63.2184 L1778.67 70.267 Q1774.66 71.9684 1770.44 72.8596 Q1766.23 73.7508 1761.9 73.7508 Q1751.04 73.7508 1744.68 67.4314 Q1738.36 61.1119 1738.36 50.3365 Q1738.36 39.1965 1744.36 32.6746 Q1750.39 26.1121 1760.6 26.1121 Q1769.75 26.1121 1775.06 32.0264 Q1780.41 37.9003 1780.41 48.0275 M1772.95 45.84 Q1772.87 39.7232 1769.51 36.0774 Q1766.19 32.4315 1760.68 32.4315 Q1754.44 32.4315 1750.67 35.9558 Q1746.95 39.4801 1746.38 45.8805 L1772.95 45.84 Z" fill="#000000" fill-rule="nonzero" fill-opacity="1"></path><polyline clip-path="url(#clip692)" style="stroke:#009af9; stroke-linecap:round; stroke-linejoin:round; stroke-width:16; stroke-opacity:1; fill:none" stroke-dasharray="8, 16" points="2184.72,160.256 2247.05,188.11 2281.12,222.406 2291.13,261.807 2280.81,305.14 2253.48,351.381 2212.1,399.644 2159.28,449.166 2097.33,499.292 2028.26,549.466 1953.85,599.221 1875.62,648.167 1794.89,695.984 1712.82,742.414 1630.35,787.252 1548.31,830.34 1467.38,871.562 1388.13,910.838 1311.02,948.119 1236.4,983.38 1164.57,1016.62 1095.73,1047.86 1030.05,1077.13 967.603,1104.48 908.455,1129.97 852.615,1153.66 800.061,1175.63 750.744,1195.94 704.591,1214.69 661.511,1231.96 621.398,1247.82 584.132,1262.36 549.586,1275.67 517.626,1287.83 488.113,1298.92 460.904,1309.02 435.858,1318.2 412.831,1326.54 391.681,1334.1 372.269,1340.97 354.458,1347.19 338.114,1352.84 323.108,1357.97 309.313,1362.64 296.608,1366.89 284.877,1370.79 274.008,1374.37 263.893,1377.68 254.429,1380.76 245.518,1383.66 237.067,1386.4 "></polyline>
<polyline clip-path="url(#clip692)" style="stroke:#e26f46; stroke-linecap:round; stroke-linejoin:round; stroke-width:8; stroke-opacity:1; fill:none" points="2184.72,160.256 2247.05,188.11 2281.12,222.406 2291.13,261.807 2280.81,305.139 2253.48,351.381 2212.1,399.644 2159.28,449.166 2097.33,499.292 2028.27,549.466 1953.85,599.22 1875.62,648.166 1794.9,695.984 1712.82,742.414 1630.35,787.251 1548.31,830.34 1467.38,871.562 1388.13,910.838 1311.02,948.119 1236.4,983.38 1164.57,1016.62 1095.73,1047.86 1030.05,1077.13 967.603,1104.48 908.456,1129.97 852.616,1153.66 800.062,1175.63 750.745,1195.94 704.592,1214.69 661.512,1231.96 621.398,1247.82 584.132,1262.36 549.587,1275.67 517.626,1287.83 488.113,1298.92 460.905,1309.02 435.858,1318.2 412.831,1326.54 391.681,1334.1 372.269,1340.97 354.458,1347.19 338.114,1352.84 323.108,1357.97 309.313,1362.64 296.609,1366.89 284.878,1370.79 274.009,1374.37 263.893,1377.68 254.429,1380.76 245.519,1383.66 237.068,1386.4 "></polyline>
<path clip-path="url(#clip690)" d="M248.022 322.316 L789.64 322.316 L789.64 166.796 L248.022 166.796  Z" fill="#ffffff" fill-rule="evenodd" fill-opacity="1"></path>
<polyline clip-path="url(#clip690)" style="stroke:#000000; stroke-linecap:round; stroke-linejoin:round; stroke-width:4; stroke-opacity:1; fill:none" points="248.022,322.316 789.64,322.316 789.64,166.796 248.022,166.796 248.022,322.316 "></polyline>
<polyline clip-path="url(#clip690)" style="stroke:#009af9; stroke-linecap:round; stroke-linejoin:round; stroke-width:16; stroke-opacity:1; fill:none" stroke-dasharray="8, 16" points="272.215,218.636 417.369,218.636 "></polyline>
<path clip-path="url(#clip690)" d="M462.07 210.985 L462.07 214.967 Q460.265 213.971 458.436 213.485 Q456.63 212.976 454.778 212.976 Q450.635 212.976 448.343 215.615 Q446.052 218.231 446.052 222.976 Q446.052 227.721 448.343 230.36 Q450.635 232.976 454.778 232.976 Q456.63 232.976 458.436 232.49 Q460.265 231.981 462.07 230.985 L462.07 234.92 Q460.288 235.754 458.366 236.17 Q456.468 236.587 454.316 236.587 Q448.459 236.587 445.01 232.906 Q441.561 229.226 441.561 222.976 Q441.561 216.633 445.033 212.999 Q448.529 209.365 454.593 209.365 Q456.561 209.365 458.436 209.782 Q460.311 210.175 462.07 210.985 Z" fill="#000000" fill-rule="nonzero" fill-opacity="1"></path><path clip-path="url(#clip690)" d="M466.422 209.99 L470.936 209.99 L479.038 231.749 L487.139 209.99 L491.653 209.99 L481.931 235.916 L476.144 235.916 L466.422 209.99 Z" fill="#000000" fill-rule="nonzero" fill-opacity="1"></path><path clip-path="url(#clip690)" d="M519.084 209.99 L509.709 222.606 L519.57 235.916 L514.547 235.916 L507 225.731 L499.454 235.916 L494.431 235.916 L504.5 222.351 L495.288 209.99 L500.311 209.99 L507.186 219.226 L514.061 209.99 L519.084 209.99 Z" fill="#000000" fill-rule="nonzero" fill-opacity="1"></path><path clip-path="url(#clip690)" d="M544.871 202.629 L544.871 209.99 L553.644 209.99 L553.644 213.3 L544.871 213.3 L544.871 227.374 Q544.871 230.545 545.727 231.448 Q546.607 232.351 549.269 232.351 L553.644 232.351 L553.644 235.916 L549.269 235.916 Q544.338 235.916 542.463 234.087 Q540.588 232.235 540.588 227.374 L540.588 213.3 L537.463 213.3 L537.463 209.99 L540.588 209.99 L540.588 202.629 L544.871 202.629 Z" fill="#000000" fill-rule="nonzero" fill-opacity="1"></path><path clip-path="url(#clip690)" d="M574.269 213.971 Q573.551 213.555 572.695 213.37 Q571.861 213.161 570.843 213.161 Q567.232 213.161 565.287 215.522 Q563.366 217.86 563.366 222.258 L563.366 235.916 L559.083 235.916 L559.083 209.99 L563.366 209.99 L563.366 214.018 Q564.708 211.657 566.861 210.522 Q569.014 209.365 572.093 209.365 Q572.532 209.365 573.065 209.434 Q573.597 209.481 574.245 209.596 L574.269 213.971 Z" fill="#000000" fill-rule="nonzero" fill-opacity="1"></path><path clip-path="url(#clip690)" d="M590.518 222.883 Q585.356 222.883 583.366 224.064 Q581.375 225.244 581.375 228.092 Q581.375 230.36 582.856 231.703 Q584.361 233.022 586.931 233.022 Q590.472 233.022 592.602 230.522 Q594.755 227.999 594.755 223.832 L594.755 222.883 L590.518 222.883 M599.014 221.124 L599.014 235.916 L594.755 235.916 L594.755 231.981 Q593.296 234.342 591.12 235.476 Q588.944 236.587 585.796 236.587 Q581.815 236.587 579.454 234.365 Q577.116 232.119 577.116 228.369 Q577.116 223.994 580.032 221.772 Q582.972 219.55 588.782 219.55 L594.755 219.55 L594.755 219.133 Q594.755 216.194 592.81 214.596 Q590.889 212.976 587.394 212.976 Q585.171 212.976 583.065 213.508 Q580.958 214.041 579.014 215.106 L579.014 211.17 Q581.352 210.268 583.551 209.828 Q585.75 209.365 587.833 209.365 Q593.458 209.365 596.236 212.282 Q599.014 215.198 599.014 221.124 Z" fill="#000000" fill-rule="nonzero" fill-opacity="1"></path><path clip-path="url(#clip690)" d="M607.787 209.99 L612.046 209.99 L612.046 236.379 Q612.046 241.332 610.148 243.555 Q608.273 245.777 604.083 245.777 L602.463 245.777 L602.463 242.166 L603.597 242.166 Q606.028 242.166 606.907 241.031 Q607.787 239.92 607.787 236.379 L607.787 209.99 M607.787 199.897 L612.046 199.897 L612.046 205.291 L607.787 205.291 L607.787 199.897 Z" fill="#000000" fill-rule="nonzero" fill-opacity="1"></path><path clip-path="url(#clip690)" d="M643.134 221.888 L643.134 223.971 L623.551 223.971 Q623.829 228.369 626.19 230.684 Q628.574 232.976 632.81 232.976 Q635.264 232.976 637.555 232.374 Q639.87 231.772 642.139 230.569 L642.139 234.596 Q639.847 235.568 637.44 236.078 Q635.032 236.587 632.555 236.587 Q626.352 236.587 622.717 232.976 Q619.106 229.365 619.106 223.207 Q619.106 216.842 622.532 213.115 Q625.981 209.365 631.815 209.365 Q637.046 209.365 640.078 212.745 Q643.134 216.101 643.134 221.888 M638.875 220.638 Q638.828 217.143 636.907 215.059 Q635.009 212.976 631.861 212.976 Q628.296 212.976 626.143 214.99 Q624.014 217.004 623.69 220.661 L638.875 220.638 Z" fill="#000000" fill-rule="nonzero" fill-opacity="1"></path><path clip-path="url(#clip690)" d="M668.782 210.985 L668.782 214.967 Q666.976 213.971 665.148 213.485 Q663.342 212.976 661.49 212.976 Q657.347 212.976 655.055 215.615 Q652.764 218.231 652.764 222.976 Q652.764 227.721 655.055 230.36 Q657.347 232.976 661.49 232.976 Q663.342 232.976 665.148 232.49 Q666.976 231.981 668.782 230.985 L668.782 234.92 Q667 235.754 665.078 236.17 Q663.18 236.587 661.027 236.587 Q655.171 236.587 651.722 232.906 Q648.273 229.226 648.273 222.976 Q648.273 216.633 651.745 212.999 Q655.24 209.365 661.305 209.365 Q663.273 209.365 665.148 209.782 Q667.023 210.175 668.782 210.985 Z" fill="#000000" fill-rule="nonzero" fill-opacity="1"></path><path clip-path="url(#clip690)" d="M680.402 202.629 L680.402 209.99 L689.175 209.99 L689.175 213.3 L680.402 213.3 L680.402 227.374 Q680.402 230.545 681.259 231.448 Q682.138 232.351 684.8 232.351 L689.175 232.351 L689.175 235.916 L684.8 235.916 Q679.87 235.916 677.995 234.087 Q676.12 232.235 676.12 227.374 L676.12 213.3 L672.995 213.3 L672.995 209.99 L676.12 209.99 L676.12 202.629 L680.402 202.629 Z" fill="#000000" fill-rule="nonzero" fill-opacity="1"></path><path clip-path="url(#clip690)" d="M704.823 212.976 Q701.398 212.976 699.407 215.661 Q697.416 218.323 697.416 222.976 Q697.416 227.629 699.384 230.314 Q701.374 232.976 704.823 232.976 Q708.226 232.976 710.217 230.291 Q712.208 227.606 712.208 222.976 Q712.208 218.37 710.217 215.684 Q708.226 212.976 704.823 212.976 M704.823 209.365 Q710.379 209.365 713.55 212.976 Q716.722 216.587 716.722 222.976 Q716.722 229.342 713.55 232.976 Q710.379 236.587 704.823 236.587 Q699.245 236.587 696.073 232.976 Q692.925 229.342 692.925 222.976 Q692.925 216.587 696.073 212.976 Q699.245 209.365 704.823 209.365 Z" fill="#000000" fill-rule="nonzero" fill-opacity="1"></path><path clip-path="url(#clip690)" d="M738.805 213.971 Q738.087 213.555 737.231 213.37 Q736.397 213.161 735.379 213.161 Q731.768 213.161 729.823 215.522 Q727.902 217.86 727.902 222.258 L727.902 235.916 L723.62 235.916 L723.62 209.99 L727.902 209.99 L727.902 214.018 Q729.245 211.657 731.397 210.522 Q733.55 209.365 736.629 209.365 Q737.069 209.365 737.601 209.434 Q738.133 209.481 738.782 209.596 L738.805 213.971 Z" fill="#000000" fill-rule="nonzero" fill-opacity="1"></path><path clip-path="url(#clip690)" d="M754.059 238.323 Q752.254 242.953 750.541 244.365 Q748.828 245.777 745.957 245.777 L742.555 245.777 L742.555 242.212 L745.055 242.212 Q746.814 242.212 747.786 241.379 Q748.758 240.545 749.939 237.443 L750.703 235.499 L740.217 209.99 L744.731 209.99 L752.832 230.268 L760.934 209.99 L765.448 209.99 L754.059 238.323 Z" fill="#000000" fill-rule="nonzero" fill-opacity="1"></path><polyline clip-path="url(#clip690)" style="stroke:#e26f46; stroke-linecap:round; stroke-linejoin:round; stroke-width:8; stroke-opacity:1; fill:none" points="272.215,270.476 417.369,270.476 "></polyline>
<path clip-path="url(#clip690)" d="M441.561 251.737 L445.82 251.737 L445.82 287.756 L441.561 287.756 L441.561 251.737 Z" fill="#000000" fill-rule="nonzero" fill-opacity="1"></path><path clip-path="url(#clip690)" d="M457.278 274.816 Q457.278 279.515 459.2 282.2 Q461.144 284.862 464.524 284.862 Q467.903 284.862 469.848 282.2 Q471.792 279.515 471.792 274.816 Q471.792 270.117 469.848 267.455 Q467.903 264.77 464.524 264.77 Q461.144 264.77 459.2 267.455 Q457.278 270.117 457.278 274.816 M471.792 283.867 Q470.45 286.182 468.39 287.316 Q466.352 288.427 463.482 288.427 Q458.783 288.427 455.82 284.677 Q452.88 280.927 452.88 274.816 Q452.88 268.705 455.82 264.955 Q458.783 261.205 463.482 261.205 Q466.352 261.205 468.39 262.339 Q470.45 263.45 471.792 265.765 L471.792 261.83 L476.052 261.83 L476.052 297.617 L471.792 297.617 L471.792 283.867 Z" fill="#000000" fill-rule="nonzero" fill-opacity="1"></path><path clip-path="url(#clip690)" d="M499.848 265.811 Q499.13 265.395 498.274 265.21 Q497.44 265.001 496.422 265.001 Q492.811 265.001 490.866 267.362 Q488.945 269.7 488.945 274.098 L488.945 287.756 L484.663 287.756 L484.663 261.83 L488.945 261.83 L488.945 265.858 Q490.288 263.497 492.44 262.362 Q494.593 261.205 497.672 261.205 Q498.112 261.205 498.644 261.274 Q499.176 261.321 499.825 261.436 L499.848 265.811 Z" fill="#000000" fill-rule="nonzero" fill-opacity="1"></path><path clip-path="url(#clip690)" d="M523.598 254.469 L523.598 261.83 L532.371 261.83 L532.371 265.14 L523.598 265.14 L523.598 279.214 Q523.598 282.385 524.454 283.288 Q525.334 284.191 527.996 284.191 L532.371 284.191 L532.371 287.756 L527.996 287.756 Q523.065 287.756 521.19 285.927 Q519.315 284.075 519.315 279.214 L519.315 265.14 L516.19 265.14 L516.19 261.83 L519.315 261.83 L519.315 254.469 L523.598 254.469 Z" fill="#000000" fill-rule="nonzero" fill-opacity="1"></path><path clip-path="url(#clip690)" d="M552.996 265.811 Q552.278 265.395 551.421 265.21 Q550.588 265.001 549.57 265.001 Q545.959 265.001 544.014 267.362 Q542.093 269.7 542.093 274.098 L542.093 287.756 L537.81 287.756 L537.81 261.83 L542.093 261.83 L542.093 265.858 Q543.435 263.497 545.588 262.362 Q547.741 261.205 550.82 261.205 Q551.259 261.205 551.792 261.274 Q552.324 261.321 552.972 261.436 L552.996 265.811 Z" fill="#000000" fill-rule="nonzero" fill-opacity="1"></path><path clip-path="url(#clip690)" d="M569.245 274.723 Q564.083 274.723 562.093 275.904 Q560.102 277.084 560.102 279.932 Q560.102 282.2 561.583 283.543 Q563.088 284.862 565.658 284.862 Q569.199 284.862 571.329 282.362 Q573.482 279.839 573.482 275.672 L573.482 274.723 L569.245 274.723 M577.741 272.964 L577.741 287.756 L573.482 287.756 L573.482 283.821 Q572.023 286.182 569.847 287.316 Q567.671 288.427 564.523 288.427 Q560.542 288.427 558.181 286.205 Q555.843 283.959 555.843 280.209 Q555.843 275.834 558.759 273.612 Q561.699 271.39 567.509 271.39 L573.482 271.39 L573.482 270.973 Q573.482 268.034 571.537 266.436 Q569.616 264.816 566.12 264.816 Q563.898 264.816 561.792 265.348 Q559.685 265.881 557.741 266.946 L557.741 263.01 Q560.079 262.108 562.278 261.668 Q564.477 261.205 566.56 261.205 Q572.185 261.205 574.963 264.122 Q577.741 267.038 577.741 272.964 Z" fill="#000000" fill-rule="nonzero" fill-opacity="1"></path><path clip-path="url(#clip690)" d="M586.514 261.83 L590.773 261.83 L590.773 288.219 Q590.773 293.172 588.875 295.395 Q587 297.617 582.81 297.617 L581.19 297.617 L581.19 294.006 L582.324 294.006 Q584.755 294.006 585.634 292.871 Q586.514 291.76 586.514 288.219 L586.514 261.83 M586.514 251.737 L590.773 251.737 L590.773 257.131 L586.514 257.131 L586.514 251.737 Z" fill="#000000" fill-rule="nonzero" fill-opacity="1"></path><path clip-path="url(#clip690)" d="M621.861 273.728 L621.861 275.811 L602.278 275.811 Q602.555 280.209 604.917 282.524 Q607.301 284.816 611.537 284.816 Q613.991 284.816 616.282 284.214 Q618.597 283.612 620.866 282.409 L620.866 286.436 Q618.574 287.408 616.167 287.918 Q613.759 288.427 611.282 288.427 Q605.079 288.427 601.444 284.816 Q597.833 281.205 597.833 275.047 Q597.833 268.682 601.259 264.955 Q604.708 261.205 610.542 261.205 Q615.773 261.205 618.805 264.585 Q621.861 267.941 621.861 273.728 M617.602 272.478 Q617.555 268.983 615.634 266.899 Q613.736 264.816 610.588 264.816 Q607.023 264.816 604.87 266.83 Q602.741 268.844 602.417 272.501 L617.602 272.478 Z" fill="#000000" fill-rule="nonzero" fill-opacity="1"></path><path clip-path="url(#clip690)" d="M647.509 262.825 L647.509 266.807 Q645.703 265.811 643.875 265.325 Q642.069 264.816 640.217 264.816 Q636.074 264.816 633.782 267.455 Q631.49 270.071 631.49 274.816 Q631.49 279.561 633.782 282.2 Q636.074 284.816 640.217 284.816 Q642.069 284.816 643.875 284.33 Q645.703 283.821 647.509 282.825 L647.509 286.76 Q645.727 287.594 643.805 288.01 Q641.907 288.427 639.754 288.427 Q633.898 288.427 630.449 284.746 Q627 281.066 627 274.816 Q627 268.473 630.472 264.839 Q633.967 261.205 640.032 261.205 Q642 261.205 643.875 261.622 Q645.75 262.015 647.509 262.825 Z" fill="#000000" fill-rule="nonzero" fill-opacity="1"></path><path clip-path="url(#clip690)" d="M659.129 254.469 L659.129 261.83 L667.902 261.83 L667.902 265.14 L659.129 265.14 L659.129 279.214 Q659.129 282.385 659.986 283.288 Q660.865 284.191 663.527 284.191 L667.902 284.191 L667.902 287.756 L663.527 287.756 Q658.597 287.756 656.722 285.927 Q654.847 284.075 654.847 279.214 L654.847 265.14 L651.722 265.14 L651.722 261.83 L654.847 261.83 L654.847 254.469 L659.129 254.469 Z" fill="#000000" fill-rule="nonzero" fill-opacity="1"></path><path clip-path="url(#clip690)" d="M683.55 264.816 Q680.124 264.816 678.134 267.501 Q676.143 270.163 676.143 274.816 Q676.143 279.469 678.111 282.154 Q680.101 284.816 683.55 284.816 Q686.953 284.816 688.944 282.131 Q690.935 279.446 690.935 274.816 Q690.935 270.21 688.944 267.524 Q686.953 264.816 683.55 264.816 M683.55 261.205 Q689.106 261.205 692.277 264.816 Q695.448 268.427 695.448 274.816 Q695.448 281.182 692.277 284.816 Q689.106 288.427 683.55 288.427 Q677.972 288.427 674.8 284.816 Q671.652 281.182 671.652 274.816 Q671.652 268.427 674.8 264.816 Q677.972 261.205 683.55 261.205 Z" fill="#000000" fill-rule="nonzero" fill-opacity="1"></path><path clip-path="url(#clip690)" d="M717.532 265.811 Q716.814 265.395 715.958 265.21 Q715.124 265.001 714.106 265.001 Q710.495 265.001 708.55 267.362 Q706.629 269.7 706.629 274.098 L706.629 287.756 L702.347 287.756 L702.347 261.83 L706.629 261.83 L706.629 265.858 Q707.972 263.497 710.124 262.362 Q712.277 261.205 715.356 261.205 Q715.796 261.205 716.328 261.274 Q716.86 261.321 717.509 261.436 L717.532 265.811 Z" fill="#000000" fill-rule="nonzero" fill-opacity="1"></path><path clip-path="url(#clip690)" d="M732.786 290.163 Q730.981 294.793 729.268 296.205 Q727.555 297.617 724.684 297.617 L721.282 297.617 L721.282 294.052 L723.782 294.052 Q725.541 294.052 726.513 293.219 Q727.485 292.385 728.666 289.283 L729.43 287.339 L718.944 261.83 L723.458 261.83 L731.559 282.108 L739.661 261.83 L744.175 261.83 L732.786 290.163 Z" fill="#000000" fill-rule="nonzero" fill-opacity="1"></path></svg>