<svg xmlns="http://www.w3.org/2000/svg" xmlns:xlink="http://www.w3.org/1999/xlink" width="600" height="400" viewBox="0 0 2400 1600">
<defs>
  <clipPath id="clip730">
    <rect x="0" y="0" width="2400" height="1600"></rect>
  </clipPath>
</defs>
<path clip-path="url(#clip730)" d="M0 1600 L2400 1600 L2400 0 L0 0  Z" fill="#ffffff" fill-rule="evenodd" fill-opacity="1"></path>
<defs>
  <clipPath id="clip731">
    <rect x="480" y="0" width="1681" height="1600"></rect>
  </clipPath>
</defs>
<path clip-path="url(#clip730)" d="M242.135 1423.18 L2352.76 1423.18 L2352.76 123.472 L242.135 123.472  Z" fill="#ffffff" fill-rule="evenodd" fill-opacity="1"></path>
<defs>
  <clipPath id="clip732">
    <rect x="242" y="123" width="2112" height="1301"></rect>
  </clipPath>
</defs>
<polyline clip-path="url(#clip732)" style="stroke:#000000; stroke-linecap:round; stroke-linejoin:round; stroke-width:2; stroke-opacity:0.1; fill:none" points="555.16,1423.18 555.16,123.472 "></polyline>
<polyline clip-path="url(#clip732)" style="stroke:#000000; stroke-linecap:round; stroke-linejoin:round; stroke-width:2; stroke-opacity:0.1; fill:none" points="962.672,1423.18 962.672,123.472 "></polyline>
<polyline clip-path="url(#clip732)" style="stroke:#000000; stroke-linecap:round; stroke-linejoin:round; stroke-width:2; stroke-opacity:0.1; fill:none" points="1370.18,1423.18 1370.18,123.472 "></polyline>
<polyline clip-path="url(#clip732)" style="stroke:#000000; stroke-linecap:round; stroke-linejoin:round; stroke-width:2; stroke-opacity:0.1; fill:none" points="1777.7,1423.18 1777.7,123.472 "></polyline>
<polyline clip-path="url(#clip732)" style="stroke:#000000; stroke-linecap:round; stroke-linejoin:round; stroke-width:2; stroke-opacity:0.1; fill:none" points="2185.21,1423.18 2185.21,123.472 "></polyline>
<polyline clip-path="url(#clip732)" style="stroke:#000000; stroke-linecap:round; stroke-linejoin:round; stroke-width:2; stroke-opacity:0.1; fill:none" points="242.135,1318.85 2352.76,1318.85 "></polyline>
<polyline clip-path="url(#clip732)" style="stroke:#000000; stroke-linecap:round; stroke-linejoin:round; stroke-width:2; stroke-opacity:0.1; fill:none" points="242.135,996.728 2352.76,996.728 "></polyline>
<polyline clip-path="url(#clip732)" style="stroke:#000000; stroke-linecap:round; stroke-linejoin:round; stroke-width:2; stroke-opacity:0.1; fill:none" points="242.135,674.602 2352.76,674.602 "></polyline>
<polyline clip-path="url(#clip732)" style="stroke:#000000; stroke-linecap:round; stroke-linejoin:round; stroke-width:2; stroke-opacity:0.1; fill:none" points="242.135,352.477 2352.76,352.477 "></polyline>
<polyline clip-path="url(#clip730)" style="stroke:#000000; stroke-linecap:round; stroke-linejoin:round; stroke-width:4; stroke-opacity:1; fill:none" points="242.135,1423.18 2352.76,1423.18 "></polyline>
<polyline clip-path="url(#clip730)" style="stroke:#000000; stroke-linecap:round; stroke-linejoin:round; stroke-width:4; stroke-opacity:1; fill:none" points="555.16,1423.18 555.16,1404.28 "></polyline>
<polyline clip-path="url(#clip730)" style="stroke:#000000; stroke-linecap:round; stroke-linejoin:round; stroke-width:4; stroke-opacity:1; fill:none" points="962.672,1423.18 962.672,1404.28 "></polyline>
<polyline clip-path="url(#clip730)" style="stroke:#000000; stroke-linecap:round; stroke-linejoin:round; stroke-width:4; stroke-opacity:1; fill:none" points="1370.18,1423.18 1370.18,1404.28 "></polyline>
<polyline clip-path="url(#clip730)" style="stroke:#000000; stroke-linecap:round; stroke-linejoin:round; stroke-width:4; stroke-opacity:1; fill:none" points="1777.7,1423.18 1777.7,1404.28 "></polyline>
<polyline clip-path="url(#clip730)" style="stroke:#000000; stroke-linecap:round; stroke-linejoin:round; stroke-width:4; stroke-opacity:1; fill:none" points="2185.21,1423.18 2185.21,1404.28 "></polyline>
<path clip-path="url(#clip730)" d="M524.223 1468.75 L553.898 1468.75 L553.898 1472.69 L524.223 1472.69 L524.223 1468.75 Z" fill="#000000" fill-rule="nonzero" fill-opacity="1"></path><path clip-path="url(#clip730)" d="M574.57 1466.44 Q571.422 1466.44 569.57 1468.59 Q567.741 1470.74 567.741 1474.49 Q567.741 1478.22 569.57 1480.39 Q571.422 1482.55 574.57 1482.55 Q577.718 1482.55 579.546 1480.39 Q581.398 1478.22 581.398 1474.49 Q581.398 1470.74 579.546 1468.59 Q577.718 1466.44 574.57 1466.44 M583.852 1451.78 L583.852 1456.04 Q582.093 1455.21 580.287 1454.77 Q578.505 1454.33 576.746 1454.33 Q572.116 1454.33 569.662 1457.45 Q567.232 1460.58 566.885 1466.9 Q568.25 1464.89 570.31 1463.82 Q572.371 1462.73 574.847 1462.73 Q580.056 1462.73 583.065 1465.9 Q586.097 1469.05 586.097 1474.49 Q586.097 1479.82 582.949 1483.03 Q579.801 1486.25 574.57 1486.25 Q568.574 1486.25 565.403 1481.67 Q562.232 1477.06 562.232 1468.33 Q562.232 1460.14 566.121 1455.28 Q570.01 1450.39 576.56 1450.39 Q578.32 1450.39 580.102 1450.74 Q581.908 1451.09 583.852 1451.78 Z" fill="#000000" fill-rule="nonzero" fill-opacity="1"></path><path clip-path="url(#clip730)" d="M932.14 1468.75 L961.816 1468.75 L961.816 1472.69 L932.14 1472.69 L932.14 1468.75 Z" fill="#000000" fill-rule="nonzero" fill-opacity="1"></path><path clip-path="url(#clip730)" d="M986.075 1466.95 Q989.431 1467.66 991.306 1469.93 Q993.205 1472.2 993.205 1475.53 Q993.205 1480.65 989.686 1483.45 Q986.168 1486.25 979.686 1486.25 Q977.51 1486.25 975.195 1485.81 Q972.904 1485.39 970.45 1484.54 L970.45 1480.02 Q972.394 1481.16 974.709 1481.74 Q977.024 1482.32 979.547 1482.32 Q983.945 1482.32 986.237 1480.58 Q988.552 1478.84 988.552 1475.53 Q988.552 1472.48 986.399 1470.77 Q984.269 1469.03 980.45 1469.03 L976.422 1469.03 L976.422 1465.19 L980.635 1465.19 Q984.084 1465.19 985.913 1463.82 Q987.742 1462.43 987.742 1459.84 Q987.742 1457.18 985.843 1455.77 Q983.969 1454.33 980.45 1454.33 Q978.529 1454.33 976.33 1454.75 Q974.131 1455.16 971.492 1456.04 L971.492 1451.88 Q974.154 1451.14 976.469 1450.77 Q978.806 1450.39 980.867 1450.39 Q986.191 1450.39 989.293 1452.83 Q992.394 1455.23 992.394 1459.35 Q992.394 1462.22 990.751 1464.21 Q989.107 1466.18 986.075 1466.95 Z" fill="#000000" fill-rule="nonzero" fill-opacity="1"></path><path clip-path="url(#clip730)" d="M1370.18 1454.1 Q1366.57 1454.1 1364.74 1457.66 Q1362.94 1461.2 1362.94 1468.33 Q1362.94 1475.44 1364.74 1479.01 Q1366.57 1482.55 1370.18 1482.55 Q1373.82 1482.55 1375.62 1479.01 Q1377.45 1475.44 1377.45 1468.33 Q1377.45 1461.2 1375.62 1457.66 Q1373.82 1454.1 1370.18 1454.1 M1370.18 1450.39 Q1375.99 1450.39 1379.05 1455 Q1382.13 1459.58 1382.13 1468.33 Q1382.13 1477.06 1379.05 1481.67 Q1375.99 1486.25 1370.18 1486.25 Q1364.37 1486.25 1361.3 1481.67 Q1358.24 1477.06 1358.24 1468.33 Q1358.24 1459.58 1361.3 1455 Q1364.37 1450.39 1370.18 1450.39 Z" fill="#000000" fill-rule="nonzero" fill-opacity="1"></path><path clip-path="url(#clip730)" d="M1781.94 1466.95 Q1785.3 1467.66 1787.18 1469.93 Q1789.07 1472.2 1789.07 1475.53 Q1789.07 1480.65 1785.56 1483.45 Q1782.04 1486.25 1775.56 1486.25 Q1773.38 1486.25 1771.06 1485.81 Q1768.77 1485.39 1766.32 1484.54 L1766.32 1480.02 Q1768.26 1481.16 1770.58 1481.74 Q1772.89 1482.32 1775.42 1482.32 Q1779.81 1482.32 1782.11 1480.58 Q1784.42 1478.84 1784.42 1475.53 Q1784.42 1472.48 1782.27 1470.77 Q1780.14 1469.03 1776.32 1469.03 L1772.29 1469.03 L1772.29 1465.19 L1776.5 1465.19 Q1779.95 1465.19 1781.78 1463.82 Q1783.61 1462.43 1783.61 1459.84 Q1783.61 1457.18 1781.71 1455.77 Q1779.84 1454.33 1776.32 1454.33 Q1774.4 1454.33 1772.2 1454.75 Q1770 1455.16 1767.36 1456.04 L1767.36 1451.88 Q1770.02 1451.14 1772.34 1450.77 Q1774.68 1450.39 1776.74 1450.39 Q1782.06 1450.39 1785.16 1452.83 Q1788.26 1455.23 1788.26 1459.35 Q1788.26 1462.22 1786.62 1464.21 Q1784.98 1466.18 1781.94 1466.95 Z" fill="#000000" fill-rule="nonzero" fill-opacity="1"></path><path clip-path="url(#clip730)" d="M2185.61 1466.44 Q2182.47 1466.44 2180.61 1468.59 Q2178.79 1470.74 2178.79 1474.49 Q2178.79 1478.22 2180.61 1480.39 Q2182.47 1482.55 2185.61 1482.55 Q2188.76 1482.55 2190.59 1480.39 Q2192.44 1478.22 2192.44 1474.49 Q2192.44 1470.74 2190.59 1468.59 Q2188.76 1466.44 2185.61 1466.44 M2194.9 1451.78 L2194.9 1456.04 Q2193.14 1455.21 2191.33 1454.77 Q2189.55 1454.33 2187.79 1454.33 Q2183.16 1454.33 2180.71 1457.45 Q2178.28 1460.58 2177.93 1466.9 Q2179.29 1464.89 2181.35 1463.82 Q2183.42 1462.73 2185.89 1462.73 Q2191.1 1462.73 2194.11 1465.9 Q2197.14 1469.05 2197.14 1474.49 Q2197.14 1479.82 2193.99 1483.03 Q2190.85 1486.25 2185.61 1486.25 Q2179.62 1486.25 2176.45 1481.67 Q2173.28 1477.06 2173.28 1468.33 Q2173.28 1460.14 2177.17 1455.28 Q2181.05 1450.39 2187.6 1450.39 Q2189.36 1450.39 2191.15 1450.74 Q2192.95 1451.09 2194.9 1451.78 Z" fill="#000000" fill-rule="nonzero" fill-opacity="1"></path><path clip-path="url(#clip730)" d="M1301.71 1532.4 L1288.82 1549.74 L1302.38 1568.04 L1295.47 1568.04 L1285.1 1554.04 L1274.72 1568.04 L1267.81 1568.04 L1281.66 1549.39 L1268.99 1532.4 L1275.9 1532.4 L1285.35 1545.1 L1294.8 1532.4 L1301.71 1532.4 Z" fill="#000000" fill-rule="nonzero" fill-opacity="1"></path><path clip-path="url(#clip730)" d="M1309.48 1564.54 L1315.97 1564.54 L1315.97 1545.1 L1308.87 1546.4 L1308.87 1542.71 L1316.19 1541.47 L1320.55 1541.47 L1320.55 1564.54 L1327.08 1564.54 L1327.08 1568.04 L1309.48 1568.04 L1309.48 1564.54 Z" fill="#000000" fill-rule="nonzero" fill-opacity="1"></path><polyline clip-path="url(#clip730)" style="stroke:#000000; stroke-linecap:round; stroke-linejoin:round; stroke-width:4; stroke-opacity:1; fill:none" points="242.135,1423.18 242.135,123.472 "></polyline>
<polyline clip-path="url(#clip730)" style="stroke:#000000; stroke-linecap:round; stroke-linejoin:round; stroke-width:4; stroke-opacity:1; fill:none" points="242.135,1318.85 261.032,1318.85 "></polyline>
<polyline clip-path="url(#clip730)" style="stroke:#000000; stroke-linecap:round; stroke-linejoin:round; stroke-width:4; stroke-opacity:1; fill:none" points="242.135,996.728 261.032,996.728 "></polyline>
<polyline clip-path="url(#clip730)" style="stroke:#000000; stroke-linecap:round; stroke-linejoin:round; stroke-width:4; stroke-opacity:1; fill:none" points="242.135,674.602 261.032,674.602 "></polyline>
<polyline clip-path="url(#clip730)" style="stroke:#000000; stroke-linecap:round; stroke-linejoin:round; stroke-width:4; stroke-opacity:1; fill:none" points="242.135,352.477 261.032,352.477 "></polyline>
<path clip-path="url(#clip730)" d="M114.26 1319.31 L143.936 1319.31 L143.936 1323.24 L114.26 1323.24 L114.26 1319.31 Z" fill="#000000" fill-rule="nonzero" fill-opacity="1"></path><path clip-path="url(#clip730)" d="M154.839 1332.2 L162.477 1332.2 L162.477 1305.83 L154.167 1307.5 L154.167 1303.24 L162.431 1301.57 L167.107 1301.57 L167.107 1332.2 L174.746 1332.2 L174.746 1336.13 L154.839 1336.13 L154.839 1332.2 Z" fill="#000000" fill-rule="nonzero" fill-opacity="1"></path><path clip-path="url(#clip730)" d="M194.19 1304.65 Q190.579 1304.65 188.75 1308.22 Q186.945 1311.76 186.945 1318.89 Q186.945 1325.99 188.75 1329.56 Q190.579 1333.1 194.19 1333.1 Q197.825 1333.1 199.63 1329.56 Q201.459 1325.99 201.459 1318.89 Q201.459 1311.76 199.63 1308.22 Q197.825 1304.65 194.19 1304.65 M194.19 1300.95 Q200 1300.95 203.056 1305.56 Q206.135 1310.14 206.135 1318.89 Q206.135 1327.62 203.056 1332.22 Q200 1336.8 194.19 1336.8 Q188.38 1336.8 185.301 1332.22 Q182.246 1327.62 182.246 1318.89 Q182.246 1310.14 185.301 1305.56 Q188.38 1300.95 194.19 1300.95 Z" fill="#000000" fill-rule="nonzero" fill-opacity="1"></path><path clip-path="url(#clip730)" d="M145.417 997.179 L175.093 997.179 L175.093 1001.11 L145.417 1001.11 L145.417 997.179 Z" fill="#000000" fill-rule="nonzero" fill-opacity="1"></path><path clip-path="url(#clip730)" d="M185.232 979.448 L203.588 979.448 L203.588 983.383 L189.514 983.383 L189.514 991.855 Q190.533 991.508 191.551 991.346 Q192.57 991.161 193.588 991.161 Q199.375 991.161 202.755 994.332 Q206.135 997.504 206.135 1002.92 Q206.135 1008.5 202.662 1011.6 Q199.19 1014.68 192.871 1014.68 Q190.695 1014.68 188.426 1014.31 Q186.181 1013.94 183.774 1013.2 L183.774 1008.5 Q185.857 1009.63 188.079 1010.19 Q190.301 1010.74 192.778 1010.74 Q196.783 1010.74 199.121 1008.64 Q201.459 1006.53 201.459 1002.92 Q201.459 999.309 199.121 997.203 Q196.783 995.096 192.778 995.096 Q190.903 995.096 189.028 995.513 Q187.176 995.929 185.232 996.809 L185.232 979.448 Z" fill="#000000" fill-rule="nonzero" fill-opacity="1"></path><path clip-path="url(#clip730)" d="M194.19 660.401 Q190.579 660.401 188.75 663.966 Q186.945 667.508 186.945 674.637 Q186.945 681.744 188.75 685.308 Q190.579 688.85 194.19 688.85 Q197.825 688.85 199.63 685.308 Q201.459 681.744 201.459 674.637 Q201.459 667.508 199.63 663.966 Q197.825 660.401 194.19 660.401 M194.19 656.697 Q200 656.697 203.056 661.304 Q206.135 665.887 206.135 674.637 Q206.135 683.364 203.056 687.97 Q200 692.554 194.19 692.554 Q188.38 692.554 185.301 687.97 Q182.246 683.364 182.246 674.637 Q182.246 665.887 185.301 661.304 Q188.38 656.697 194.19 656.697 Z" fill="#000000" fill-rule="nonzero" fill-opacity="1"></path><path clip-path="url(#clip730)" d="M185.232 335.197 L203.588 335.197 L203.588 339.132 L189.514 339.132 L189.514 347.604 Q190.533 347.257 191.551 347.095 Q192.57 346.91 193.588 346.91 Q199.375 346.91 202.755 350.081 Q206.135 353.252 206.135 358.669 Q206.135 364.248 202.662 367.349 Q199.19 370.428 192.871 370.428 Q190.695 370.428 188.426 370.058 Q186.181 369.687 183.774 368.947 L183.774 364.248 Q185.857 365.382 188.079 365.937 Q190.301 366.493 192.778 366.493 Q196.783 366.493 199.121 364.387 Q201.459 362.28 201.459 358.669 Q201.459 355.058 199.121 352.951 Q196.783 350.845 192.778 350.845 Q190.903 350.845 189.028 351.262 Q187.176 351.678 185.232 352.558 L185.232 335.197 Z" fill="#000000" fill-rule="nonzero" fill-opacity="1"></path><path clip-path="url(#clip730)" d="M28.3562 768.79 L45.7028 781.681 L64.0042 768.122 L64.0042 775.029 L49.9996 785.405 L64.0042 795.781 L64.0042 802.688 L45.3526 788.842 L28.3562 801.51 L28.3562 794.603 L41.0558 785.15 L28.3562 775.697 L28.3562 768.79 Z" fill="#000000" fill-rule="nonzero" fill-opacity="1"></path><path clip-path="url(#clip730)" d="M60.3757 757.459 L60.3757 743.964 L64.0042 743.964 L64.0042 762.998 L60.503 762.998 Q59.5163 761.915 57.7339 759.91 Q48.0262 748.961 45.0344 748.961 Q42.9337 748.961 41.6605 750.616 Q40.3556 752.271 40.3556 754.977 Q40.3556 756.632 40.9285 758.573 Q41.4696 760.515 42.5836 762.807 L38.6686 762.807 Q37.7774 760.356 37.3318 758.255 Q36.8862 756.123 36.8862 754.308 Q36.8862 749.693 38.9869 746.924 Q41.0876 744.155 44.5251 744.155 Q48.9493 744.155 57.9886 754.69 Q59.5163 756.473 60.3757 757.459 Z" fill="#000000" fill-rule="nonzero" fill-opacity="1"></path><path clip-path="url(#clip730)" d="M1107.8 28.9478 L1107.8 35.9153 Q1104.64 34.1734 1101.44 33.3227 Q1098.28 32.4315 1095.04 32.4315 Q1087.79 32.4315 1083.78 37.0496 Q1079.77 41.6271 1079.77 49.9314 Q1079.77 58.2358 1083.78 62.8538 Q1087.79 67.4314 1095.04 67.4314 Q1098.28 67.4314 1101.44 66.5807 Q1104.64 65.6895 1107.8 63.9476 L1107.8 70.8341 Q1104.68 72.2924 1101.32 73.0216 Q1098 73.7508 1094.23 73.7508 Q1083.98 73.7508 1077.95 67.3098 Q1071.91 60.8689 1071.91 49.9314 Q1071.91 38.832 1077.99 32.472 Q1084.1 26.1121 1094.72 26.1121 Q1098.16 26.1121 1101.44 26.8413 Q1104.72 27.5299 1107.8 28.9478 Z" fill="#000000" fill-rule="nonzero" fill-opacity="1"></path><path clip-path="url(#clip730)" d="M1115.42 27.2059 L1123.32 27.2059 L1137.5 65.2844 L1151.67 27.2059 L1159.57 27.2059 L1142.56 72.576 L1132.43 72.576 L1115.42 27.2059 Z" fill="#000000" fill-rule="nonzero" fill-opacity="1"></path><path clip-path="url(#clip730)" d="M1207.58 27.2059 L1191.17 49.2833 L1208.43 72.576 L1199.64 72.576 L1186.43 54.752 L1173.22 72.576 L1164.43 72.576 L1182.06 48.8377 L1165.93 27.2059 L1174.72 27.2059 L1186.75 43.369 L1198.79 27.2059 L1207.58 27.2059 Z" fill="#000000" fill-rule="nonzero" fill-opacity="1"></path><path clip-path="url(#clip730)" d="M1239.98 27.2059 L1247.88 27.2059 L1262.06 65.2844 L1276.24 27.2059 L1284.14 27.2059 L1267.12 72.576 L1257 72.576 L1239.98 27.2059 Z" fill="#000000" fill-rule="nonzero" fill-opacity="1"></path><path clip-path="url(#clip730)" d="M1323.35 28.5427 L1323.35 35.5912 Q1320.19 33.9709 1316.79 33.1607 Q1313.39 32.3505 1309.74 32.3505 Q1304.19 32.3505 1301.39 34.0519 Q1298.64 35.7533 1298.64 39.156 Q1298.64 41.7486 1300.63 43.2475 Q1302.61 44.7058 1308.61 46.0426 L1311.16 46.6097 Q1319.1 48.3111 1322.42 51.4303 Q1325.78 54.509 1325.78 60.0587 Q1325.78 66.3781 1320.76 70.0644 Q1315.78 73.7508 1307.03 73.7508 Q1303.38 73.7508 1299.41 73.0216 Q1295.48 72.3329 1291.11 70.9151 L1291.11 63.2184 Q1295.24 65.3654 1299.25 66.4591 Q1303.26 67.5124 1307.19 67.5124 Q1312.45 67.5124 1315.29 65.73 Q1318.13 63.9071 1318.13 60.6258 Q1318.13 57.5877 1316.06 55.9673 Q1314.03 54.3469 1307.11 52.8481 L1304.51 52.2405 Q1297.59 50.7821 1294.51 47.7845 Q1291.43 44.7463 1291.43 39.4801 Q1291.43 33.0797 1295.97 29.5959 Q1300.5 26.1121 1308.85 26.1121 Q1312.98 26.1121 1316.63 26.7198 Q1320.27 27.3274 1323.35 28.5427 Z" fill="#000000" fill-rule="nonzero" fill-opacity="1"></path><path clip-path="url(#clip730)" d="M1364.35 12.096 L1372.53 12.096 L1372.53 65.6895 L1401.98 65.6895 L1401.98 72.576 L1364.35 72.576 L1364.35 12.096 Z" fill="#000000" fill-rule="nonzero" fill-opacity="1"></path><path clip-path="url(#clip730)" d="M1435.12 17.6457 Q1426.2 17.6457 1420.94 24.2892 Q1415.71 30.9327 1415.71 42.3968 Q1415.71 53.8203 1420.94 60.4638 Q1426.2 67.1073 1435.12 67.1073 Q1444.03 67.1073 1449.21 60.4638 Q1454.44 53.8203 1454.44 42.3968 Q1454.44 30.9327 1449.21 24.2892 Q1444.03 17.6457 1435.12 17.6457 M1446.58 71.4823 L1457.35 83.2704 L1447.47 83.2704 L1438.52 73.5887 Q1437.18 73.6697 1436.45 73.7103 Q1435.76 73.7508 1435.12 73.7508 Q1422.35 73.7508 1414.7 65.2439 Q1407.08 56.6965 1407.08 42.3968 Q1407.08 28.0566 1414.7 19.5497 Q1422.35 11.0023 1435.12 11.0023 Q1447.84 11.0023 1455.45 19.5497 Q1463.07 28.0566 1463.07 42.3968 Q1463.07 52.9291 1458.81 60.4233 Q1454.6 67.9175 1446.58 71.4823 Z" fill="#000000" fill-rule="nonzero" fill-opacity="1"></path><path clip-path="url(#clip730)" d="M1504.55 44.2197 Q1507.18 45.1109 1509.65 48.0275 Q1512.16 50.9442 1514.68 56.0483 L1522.98 72.576 L1514.19 72.576 L1506.45 57.061 Q1503.45 50.9847 1500.62 48.9997 Q1497.82 47.0148 1492.96 47.0148 L1484.05 47.0148 L1484.05 72.576 L1475.87 72.576 L1475.87 12.096 L1494.34 12.096 Q1504.71 12.096 1509.81 16.4305 Q1514.92 20.7649 1514.92 29.5149 Q1514.92 35.2267 1512.24 38.994 Q1509.61 42.7613 1504.55 44.2197 M1484.05 18.8205 L1484.05 40.2903 L1494.34 40.2903 Q1500.25 40.2903 1503.25 37.5762 Q1506.29 34.8216 1506.29 29.5149 Q1506.29 24.2082 1503.25 21.5346 Q1500.25 18.8205 1494.34 18.8205 L1484.05 18.8205 Z" fill="#000000" fill-rule="nonzero" fill-opacity="1"></path><polyline clip-path="url(#clip732)" style="stroke:#009af9; stroke-linecap:round; stroke-linejoin:round; stroke-width:16; stroke-opacity:1; fill:none" stroke-dasharray="8, 16" points="1322.25,503.4 1312.4,489.65 1304.65,479.78 1298.73,473.264 1294.41,469.629 1291.47,468.45 1289.72,469.346 1288.98,471.981 1289.1,476.053 1289.95,481.296 1291.4,487.477 1293.33,494.388 1295.67,501.852 1298.31,509.711 1301.19,517.83 1304.25,526.095 1307.42,534.405 1310.67,542.678 1313.94,550.844 1317.21,558.845 1320.44,566.634 1323.61,574.175 1326.71,581.437 1329.71,588.399 1332.6,595.045 1335.38,601.365 1338.04,607.355 1340.57,613.012 1342.97,618.338 1345.24,623.34 1347.38,628.023 1349.4,632.397 1351.28,636.473 1353.05,640.263 1354.69,643.78 1356.23,647.038 1357.66,650.051 1358.98,652.834 1360.21,655.401 1361.34,657.768 1362.4,659.948 1363.37,661.957 1364.27,663.808 1365.1,665.516 1365.88,667.094 1366.6,668.555 1367.26,669.912 1367.89,671.178 1368.48,672.364 1369.03,673.482 1369.56,674.543 "></polyline>
<polyline clip-path="url(#clip732)" style="stroke:#e26f46; stroke-linecap:round; stroke-linejoin:round; stroke-width:8; stroke-opacity:1; fill:none" points="1322.25,503.4 1312.4,489.65 1304.65,479.78 1298.73,473.264 1294.41,469.629 1291.47,468.449 1289.72,469.346 1288.98,471.981 1289.1,476.053 1289.95,481.296 1291.4,487.477 1293.33,494.389 1295.67,501.852 1298.31,509.711 1301.19,517.831 1304.25,526.095 1307.42,534.405 1310.67,542.678 1313.94,550.844 1317.21,558.845 1320.44,566.635 1323.61,574.175 1326.71,581.437 1329.71,588.399 1332.6,595.045 1335.38,601.366 1338.04,607.355 1340.57,613.012 1342.97,618.339 1345.24,623.34 1347.38,628.023 1349.4,632.397 1351.28,636.473 1353.05,640.263 1354.7,643.78 1356.23,647.038 1357.66,650.052 1358.98,652.834 1360.21,655.402 1361.34,657.768 1362.4,659.948 1363.37,661.957 1364.27,663.808 1365.1,665.516 1365.88,667.094 1366.6,668.555 1367.26,669.912 1367.89,671.178 1368.48,672.364 1369.03,673.482 1369.56,674.543 "></polyline>
<polyline clip-path="url(#clip732)" style="stroke:#3da44d; stroke-linecap:round; stroke-linejoin:round; stroke-width:16; stroke-opacity:1; fill:none" stroke-dasharray="8, 16" points="2161.35,588.413 2179.55,593.695 2187.44,598.878 2186.59,603.933 2178.39,608.831 2164.09,613.554 2144.78,618.086 2121.45,622.415 2094.94,626.535 2066.01,630.44 2035.3,634.13 2003.38,637.604 1970.73,640.866 1937.77,643.918 1904.85,646.766 1872.27,649.417 1840.27,651.878 1809.04,654.156 1778.77,656.26 1749.55,658.199 1721.51,659.98 1694.7,661.612 1669.18,663.105 1644.97,664.468 1622.08,665.707 1600.51,666.833 1580.25,667.852 1561.26,668.773 1543.53,669.604 1527,670.35 1511.63,671.019 1497.37,671.618 1484.17,672.152 1471.98,672.628 1460.74,673.051 1450.38,673.425 1440.87,673.756 1432.13,674.048 1424.11,674.305 1416.76,674.531 1410.02,674.729 1403.85,674.904 1398.19,675.057 1392.99,675.193 1388.2,675.312 1383.79,675.418 1379.7,675.513 1375.9,675.599 1372.35,675.678 1369,675.751 1365.83,675.819 "></polyline>
<polyline clip-path="url(#clip732)" style="stroke:#c271d2; stroke-linecap:round; stroke-linejoin:round; stroke-width:8; stroke-opacity:1; fill:none" points="2161.35,588.413 2179.55,593.695 2187.44,598.878 2186.59,603.933 2178.39,608.831 2164.08,613.554 2144.78,618.086 2121.45,622.415 2094.94,626.535 2066.01,630.44 2035.3,634.13 2003.38,637.604 1970.73,640.865 1937.77,643.918 1904.85,646.766 1872.27,649.417 1840.27,651.878 1809.04,654.156 1778.76,656.26 1749.55,658.199 1721.51,659.98 1694.7,661.612 1669.18,663.105 1644.97,664.468 1622.08,665.707 1600.51,666.833 1580.25,667.852 1561.26,668.773 1543.53,669.604 1527,670.35 1511.63,671.019 1497.37,671.618 1484.17,672.152 1471.98,672.628 1460.74,673.051 1450.38,673.425 1440.86,673.756 1432.13,674.048 1424.11,674.305 1416.76,674.531 1410.02,674.729 1403.85,674.904 1398.19,675.057 1392.99,675.193 1388.2,675.312 1383.79,675.418 1379.7,675.513 1375.9,675.599 1372.35,675.678 1369,675.751 1365.83,675.819 "></polyline>
<polyline clip-path="url(#clip732)" style="stroke:#ac8d18; stroke-linecap:round; stroke-linejoin:round; stroke-width:16; stroke-opacity:1; fill:none" stroke-dasharray="8, 16" points="661.961,780.625 659.191,773.145 663.379,765.951 673.379,759.063 688.176,752.495 706.871,746.257 728.673,740.354 752.888,734.786 778.91,729.552 806.213,724.646 834.344,720.06 862.912,715.787 891.587,711.815 920.088,708.134 948.182,704.73 975.677,701.59 1002.42,698.702 1028.27,696.051 1053.15,693.625 1076.99,691.409 1099.72,689.39 1121.32,687.556 1141.77,685.894 1161.07,684.391 1179.22,683.035 1196.25,681.816 1212.18,680.723 1227.04,679.745 1240.86,678.873 1253.7,678.098 1265.58,677.41 1276.57,676.803 1286.7,676.268 1296.03,675.798 1304.6,675.387 1312.47,675.028 1319.67,674.717 1326.27,674.447 1332.3,674.214 1337.8,674.014 1342.84,673.842 1347.44,673.695 1351.64,673.569 1355.5,673.461 1359.03,673.368 1362.28,673.288 1365.29,673.218 1368.08,673.157 1370.69,673.102 1373.14,673.052 1375.47,673.005 "></polyline>
<polyline clip-path="url(#clip732)" style="stroke:#00a9ad; stroke-linecap:round; stroke-linejoin:round; stroke-width:8; stroke-opacity:1; fill:none" points="661.961,780.625 659.191,773.145 663.379,765.951 673.379,759.063 688.176,752.495 706.871,746.257 728.673,740.354 752.888,734.786 778.91,729.552 806.214,724.646 834.344,720.06 862.913,715.787 891.587,711.815 920.088,708.134 948.182,704.73 975.677,701.59 1002.42,698.702 1028.27,696.051 1053.15,693.625 1076.99,691.409 1099.72,689.39 1121.32,687.556 1141.77,685.894 1161.07,684.391 1179.22,683.035 1196.25,681.816 1212.18,680.723 1227.04,679.745 1240.86,678.873 1253.7,678.098 1265.58,677.41 1276.57,676.803 1286.7,676.268 1296.03,675.798 1304.6,675.387 1312.47,675.028 1319.67,674.717 1326.27,674.447 1332.3,674.214 1337.8,674.014 1342.84,673.842 1347.44,673.695 1351.64,673.569 1355.5,673.461 1359.03,673.368 1362.28,673.288 1365.29,673.218 1368.08,673.157 1370.69,673.102 1373.14,673.052 1375.47,673.005 "></polyline>
<polyline clip-path="url(#clip732)" style="stroke:#ed5d92; stroke-linecap:round; stroke-linejoin:round; stroke-width:16; stroke-opacity:1; fill:none" stroke-dasharray="8, 16" points="1696.66,675.427 1713.06,672.275 1723.71,669.646 1729.43,667.48 1730.94,665.724 1728.91,664.328 1723.92,663.248 1716.48,662.443 1707.05,661.878 1696.03,661.519 1683.78,661.337 1670.6,661.305 1656.77,661.4 1642.51,661.601 1628.02,661.888 1613.48,662.246 1599.02,662.661 1584.76,663.118 1570.8,663.608 1557.23,664.121 1544.09,664.647 1531.46,665.181 1519.35,665.717 1507.8,666.248 1496.82,666.771 1486.42,667.283 1476.61,667.78 1467.37,668.261 1458.7,668.724 1450.59,669.167 1443.02,669.589 1435.97,669.991 1429.42,670.371 1423.34,670.731 1417.72,671.069 1412.53,671.387 1407.74,671.685 1403.32,671.964 1399.26,672.225 1395.52,672.468 1392.09,672.695 1388.93,672.905 1386.03,673.102 1383.36,673.285 1380.89,673.455 1378.61,673.614 1376.5,673.762 1374.53,673.902 1372.68,674.033 1370.94,674.156 1369.29,674.274 "></polyline>
<polyline clip-path="url(#clip732)" style="stroke:#c68125; stroke-linecap:round; stroke-linejoin:round; stroke-width:8; stroke-opacity:1; fill:none" points="1696.66,675.427 1713.06,672.275 1723.71,669.646 1729.43,667.48 1730.94,665.724 1728.91,664.328 1723.92,663.248 1716.48,662.444 1707.04,661.878 1696.03,661.519 1683.78,661.337 1670.6,661.305 1656.77,661.4 1642.51,661.601 1628.02,661.888 1613.48,662.247 1599.01,662.661 1584.76,663.118 1570.8,663.608 1557.22,664.121 1544.09,664.647 1531.46,665.181 1519.35,665.717 1507.8,666.248 1496.82,666.771 1486.42,667.283 1476.61,667.78 1467.37,668.261 1458.7,668.724 1450.59,669.167 1443.02,669.589 1435.97,669.991 1429.42,670.371 1423.34,670.731 1417.72,671.069 1412.53,671.387 1407.74,671.685 1403.32,671.964 1399.26,672.225 1395.52,672.468 1392.09,672.695 1388.93,672.906 1386.03,673.102 1383.36,673.285 1380.89,673.455 1378.61,673.614 1376.5,673.762 1374.53,673.902 1372.68,674.033 1370.94,674.156 1369.29,674.274 "></polyline>
<polyline clip-path="url(#clip732)" style="stroke:#00a98d; stroke-linecap:round; stroke-linejoin:round; stroke-width:16; stroke-opacity:1; fill:none" stroke-dasharray="8, 16" points="1535.8,668.081 1530.64,667.565 1524.82,667.195 1518.51,666.952 1511.84,666.818 1504.94,666.776 1497.89,666.813 1490.8,666.915 1483.73,667.072 1476.74,667.272 1469.89,667.508 1463.21,667.771 1456.74,668.055 1450.51,668.354 1444.53,668.663 1438.82,668.977 1433.38,669.292 1428.24,669.606 1423.37,669.916 1418.8,670.219 1414.5,670.515 1410.48,670.801 1406.73,671.076 1403.24,671.34 1399.99,671.592 1396.99,671.831 1394.22,672.058 1391.66,672.272 1389.31,672.474 1387.15,672.663 1385.18,672.841 1383.37,673.006 1381.73,673.161 1380.23,673.304 1378.87,673.437 1377.63,673.56 1376.51,673.675 1375.5,673.78 1374.58,673.877 1373.75,673.966 1373,674.049 1372.33,674.125 1371.71,674.195 1371.16,674.26 1370.65,674.319 1370.19,674.375 1369.77,674.426 1369.38,674.474 1369.02,674.519 1368.68,674.561 1368.36,674.601 "></polyline>
<polyline clip-path="url(#clip732)" style="stroke:#8e971d; stroke-linecap:round; stroke-linejoin:round; stroke-width:8; stroke-opacity:1; fill:none" points="1535.8,668.081 1530.64,667.565 1524.82,667.195 1518.51,666.952 1511.84,666.818 1504.94,666.776 1497.89,666.813 1490.8,666.915 1483.73,667.072 1476.74,667.272 1469.89,667.508 1463.21,667.771 1456.74,668.055 1450.51,668.354 1444.53,668.663 1438.82,668.977 1433.38,669.292 1428.24,669.606 1423.37,669.916 1418.8,670.219 1414.5,670.515 1410.48,670.801 1406.73,671.076 1403.24,671.34 1399.99,671.592 1396.99,671.831 1394.22,672.058 1391.66,672.272 1389.31,672.474 1387.15,672.663 1385.18,672.841 1383.37,673.006 1381.73,673.161 1380.23,673.304 1378.87,673.437 1377.63,673.56 1376.51,673.675 1375.5,673.78 1374.58,673.877 1373.75,673.966 1373,674.049 1372.33,674.125 1371.71,674.195 1371.16,674.26 1370.65,674.319 1370.19,674.375 1369.77,674.426 1369.38,674.474 1369.02,674.519 1368.68,674.561 1368.36,674.601 "></polyline>
<polyline clip-path="url(#clip732)" style="stroke:#00a8cb; stroke-linecap:round; stroke-linejoin:round; stroke-width:16; stroke-opacity:1; fill:none" stroke-dasharray="8, 16" points="1912.13,1075.73 1903.35,1069.53 1891.09,1060.69 1875.99,1049.72 1858.66,1037.05 1839.61,1023.08 1819.29,1008.13 1798.08,992.502 1776.32,976.445 1754.29,960.174 1732.25,943.873 1710.4,927.696 1688.9,911.771 1667.89,896.204 1647.5,881.081 1627.81,866.47 1608.89,852.422 1590.79,838.978 1573.54,826.164 1557.17,813.997 1541.68,802.485 1527.08,791.629 1513.37,781.423 1500.51,771.857 1488.5,762.916 1477.3,754.581 1466.9,746.831 1457.25,739.643 1448.32,732.992 1440.08,726.851 1432.49,721.193 1425.52,715.992 1419.12,711.22 1413.26,706.849 1407.9,702.853 1403.02,699.205 1398.56,695.879 1394.5,692.851 1390.82,690.095 1387.46,687.59 1384.41,685.312 1381.64,683.239 1379.12,681.353 1376.81,679.633 1374.71,678.06 1372.78,676.618 1371.01,675.29 1369.36,674.06 1367.83,672.913 1366.39,671.837 1365.03,670.817 "></polyline>
<polyline clip-path="url(#clip732)" style="stroke:#9b7fe8; stroke-linecap:round; stroke-linejoin:round; stroke-width:8; stroke-opacity:1; fill:none" points="1912.13,1075.73 1903.35,1069.53 1891.09,1060.69 1875.99,1049.72 1858.66,1037.05 1839.61,1023.08 1819.29,1008.13 1798.08,992.502 1776.32,976.445 1754.29,960.174 1732.25,943.873 1710.4,927.696 1688.9,911.771 1667.89,896.204 1647.5,881.081 1627.81,866.47 1608.89,852.422 1590.79,838.978 1573.54,826.164 1557.17,813.997 1541.68,802.485 1527.08,791.629 1513.37,781.423 1500.51,771.857 1488.5,762.916 1477.3,754.581 1466.9,746.831 1457.25,739.643 1448.32,732.992 1440.08,726.851 1432.49,721.193 1425.52,715.992 1419.12,711.22 1413.26,706.849 1407.9,702.853 1403.02,699.205 1398.56,695.879 1394.5,692.851 1390.82,690.095 1387.46,687.59 1384.41,685.312 1381.64,683.239 1379.12,681.353 1376.81,679.633 1374.71,678.06 1372.78,676.618 1371.01,675.29 1369.36,674.06 1367.83,672.913 1366.39,671.837 1365.03,670.817 "></polyline>
<polyline clip-path="url(#clip732)" style="stroke:#608cf6; stroke-linecap:round; stroke-linejoin:round; stroke-width:16; stroke-opacity:1; fill:none" stroke-dasharray="8, 16" points="1025.83,174.469 1037.73,164.208 1050.79,160.256 1064.7,161.646 1079.19,167.516 1094.05,177.1 1109.08,189.72 1124.12,204.776 1139.01,221.744 1153.66,240.163 1167.97,259.635 1181.85,279.813 1195.26,300.4 1208.13,321.142 1220.45,341.825 1232.18,362.268 1243.31,382.323 1253.83,401.868 1263.75,420.804 1273.07,439.056 1281.8,456.566 1289.96,473.292 1297.55,489.206 1304.61,504.293 1311.15,518.547 1317.2,531.971 1322.78,544.577 1327.91,556.38 1332.62,567.404 1336.94,577.672 1340.89,587.215 1344.49,596.064 1347.77,604.253 1350.75,611.814 1353.45,618.785 1355.9,625.201 1358.12,631.096 1360.12,636.508 1361.93,641.47 1363.56,646.018 1365.03,650.184 1366.36,654.001 1367.56,657.501 1368.65,660.714 1369.63,663.67 1370.53,666.396 1371.36,668.92 1372.12,671.266 1372.82,673.46 1373.48,675.525 1374.11,677.483 "></polyline>
<polyline clip-path="url(#clip732)" style="stroke:#f05f73; stroke-linecap:round; stroke-linejoin:round; stroke-width:8; stroke-opacity:1; fill:none" points="1025.83,174.469 1037.73,164.208 1050.79,160.256 1064.7,161.647 1079.19,167.517 1094.05,177.101 1109.08,189.72 1124.12,204.776 1139.01,221.744 1153.66,240.164 1167.97,259.635 1181.85,279.813 1195.26,300.4 1208.13,321.143 1220.45,341.825 1232.18,362.269 1243.31,382.324 1253.83,401.868 1263.75,420.804 1273.07,439.056 1281.8,456.566 1289.96,473.292 1297.55,489.206 1304.61,504.293 1311.15,518.547 1317.2,531.971 1322.78,544.577 1327.91,556.38 1332.62,567.404 1336.94,577.672 1340.89,587.216 1344.49,596.065 1347.77,604.253 1350.75,611.815 1353.45,618.785 1355.9,625.201 1358.12,631.096 1360.12,636.508 1361.93,641.47 1363.56,646.018 1365.03,650.184 1366.36,654.001 1367.56,657.501 1368.65,660.714 1369.63,663.67 1370.53,666.396 1371.36,668.92 1372.12,671.266 1372.82,673.46 1373.48,675.525 1374.11,677.483 "></polyline>
<polyline clip-path="url(#clip732)" style="stroke:#dd64b5; stroke-linecap:round; stroke-linejoin:round; stroke-width:16; stroke-opacity:1; fill:none" stroke-dasharray="8, 16" points="301.869,1122.39 317.584,1123.17 340.45,1119.7 369.119,1112.71 402.407,1102.82 439.273,1090.57 478.811,1076.46 520.233,1060.9 562.859,1044.28 606.108,1026.92 649.484,1009.09 692.569,991.025 735.014,972.934 776.533,954.986 816.891,937.323 855.905,920.06 893.43,903.292 929.36,887.094 963.621,871.523 996.164,856.623 1026.97,842.421 1056.02,828.938 1083.35,816.181 1108.96,804.15 1132.92,792.841 1155.25,782.239 1176.02,772.329 1195.29,763.09 1213.13,754.497 1229.6,746.524 1244.78,739.144 1258.74,732.327 1271.55,726.042 1283.29,720.259 1294.02,714.948 1303.82,710.077 1312.76,705.616 1320.89,701.536 1328.3,697.807 1335.04,694.401 1341.17,691.291 1346.74,688.45 1351.82,685.853 1356.44,683.476 1360.68,681.295 1364.56,679.288 1368.14,677.434 1371.45,675.713 1374.54,674.106 1377.44,672.595 1380.18,671.163 "></polyline>
<polyline clip-path="url(#clip732)" style="stroke:#6b9e32; stroke-linecap:round; stroke-linejoin:round; stroke-width:8; stroke-opacity:1; fill:none" points="301.869,1122.39 317.584,1123.17 340.45,1119.7 369.119,1112.71 402.407,1102.82 439.273,1090.57 478.811,1076.46 520.233,1060.9 562.859,1044.28 606.108,1026.92 649.484,1009.09 692.569,991.025 735.014,972.934 776.532,954.986 816.891,937.323 855.905,920.06 893.43,903.292 929.36,887.094 963.621,871.523 996.164,856.623 1026.97,842.421 1056.02,828.938 1083.35,816.181 1108.96,804.15 1132.92,792.841 1155.25,782.239 1176.02,772.329 1195.29,763.09 1213.13,754.497 1229.6,746.524 1244.78,739.144 1258.74,732.327 1271.55,726.042 1283.29,720.259 1294.02,714.948 1303.82,710.077 1312.76,705.616 1320.89,701.536 1328.3,697.807 1335.04,694.401 1341.17,691.291 1346.74,688.45 1351.82,685.853 1356.44,683.476 1360.68,681.295 1364.56,679.288 1368.14,677.434 1371.45,675.713 1374.54,674.106 1377.44,672.595 1380.18,671.163 "></polyline>
<polyline clip-path="url(#clip732)" style="stroke:#009af9; stroke-linecap:round; stroke-linejoin:round; stroke-width:16; stroke-opacity:1; fill:none" stroke-dasharray="8, 16" points="2030.37,176.464 2020.06,175.98 2005.43,180.143 1987.3,188.177 1966.4,199.391 1943.35,213.178 1918.72,229.002 1892.97,246.394 1866.53,264.946 1839.74,284.302 1812.91,304.157 1786.28,324.25 1760.08,344.359 1734.47,364.298 1709.59,383.909 1685.55,403.067 1662.45,421.667 1640.34,439.629 1619.26,456.888 1599.26,473.4 1580.33,489.133 1562.48,504.066 1545.7,518.191 1529.97,531.508 1515.27,544.025 1501.57,555.756 1488.84,566.719 1477.02,576.938 1466.09,586.44 1456,595.255 1446.7,603.413 1438.15,610.948 1430.31,617.893 1423.13,624.282 1416.56,630.149 1410.57,635.529 1405.11,640.455 1400.13,644.96 1395.61,649.076 1391.49,652.836 1387.75,656.268 1384.34,659.402 1381.25,662.268 1378.42,664.89 1375.84,667.295 1373.47,669.509 1371.29,671.553 1369.27,673.45 1367.39,675.222 1365.62,676.888 1363.94,678.467 "></polyline>
<polyline clip-path="url(#clip732)" style="stroke:#e26f46; stroke-linecap:round; stroke-linejoin:round; stroke-width:8; stroke-opacity:1; fill:none" points="2030.37,176.464 2020.06,175.98 2005.43,180.143 1987.3,188.177 1966.4,199.391 1943.35,213.178 1918.72,229.002 1892.98,246.395 1866.53,264.946 1839.74,284.302 1812.91,304.157 1786.28,324.25 1760.08,344.359 1734.47,364.297 1709.59,383.909 1685.55,403.067 1662.45,421.667 1640.34,439.628 1619.26,456.888 1599.26,473.4 1580.33,489.132 1562.48,504.066 1545.7,518.191 1529.97,531.508 1515.27,544.025 1501.57,555.755 1488.84,566.718 1477.02,576.938 1466.09,586.44 1456,595.255 1446.7,603.413 1438.15,610.948 1430.31,617.893 1423.13,624.282 1416.56,630.149 1410.57,635.529 1405.11,640.455 1400.13,644.96 1395.61,649.076 1391.49,652.836 1387.75,656.268 1384.34,659.403 1381.25,662.268 1378.42,664.89 1375.84,667.296 1373.47,669.509 1371.29,671.553 1369.27,673.45 1367.39,675.222 1365.62,676.888 1363.94,678.467 "></polyline>
<polyline clip-path="url(#clip732)" style="stroke:#3da44d; stroke-linecap:round; stroke-linejoin:round; stroke-width:16; stroke-opacity:1; fill:none" stroke-dasharray="8, 16" points="1104.27,486.348 1105.1,496.667 1108.22,506.978 1113.25,517.185 1119.84,527.214 1127.67,536.999 1136.48,546.491 1146.03,555.648 1156.12,564.44 1166.57,572.844 1177.22,580.845 1187.94,588.434 1198.63,595.607 1209.2,602.364 1219.56,608.709 1229.65,614.65 1239.42,620.196 1248.84,625.361 1257.88,630.156 1266.51,634.598 1274.71,638.702 1282.49,642.484 1289.84,645.96 1296.76,649.149 1303.25,652.067 1309.33,654.731 1315.01,657.156 1320.29,659.36 1325.2,661.358 1329.75,663.165 1333.95,664.795 1337.83,666.263 1341.4,667.582 1344.69,668.763 1347.7,669.82 1350.46,670.764 1352.98,671.605 1355.29,672.353 1357.39,673.018 1359.31,673.608 1361.07,674.131 1362.66,674.596 1364.12,675.009 1365.46,675.376 1366.68,675.705 1367.81,676 1368.85,676.266 1369.81,676.509 1370.71,676.732 1371.56,676.94 1372.36,677.136 "></polyline>
<polyline clip-path="url(#clip732)" style="stroke:#c271d2; stroke-linecap:round; stroke-linejoin:round; stroke-width:8; stroke-opacity:1; fill:none" points="1104.27,486.348 1105.1,496.667 1108.22,506.978 1113.25,517.185 1119.84,527.214 1127.67,536.999 1136.48,546.491 1146.03,555.648 1156.12,564.44 1166.57,572.844 1177.22,580.845 1187.94,588.434 1198.63,595.607 1209.2,602.364 1219.56,608.709 1229.65,614.65 1239.42,620.196 1248.84,625.361 1257.88,630.156 1266.51,634.598 1274.71,638.702 1282.49,642.484 1289.84,645.961 1296.76,649.149 1303.25,652.067 1309.33,654.731 1315.01,657.156 1320.29,659.36 1325.2,661.358 1329.75,663.165 1333.95,664.795 1337.83,666.263 1341.4,667.582 1344.69,668.763 1347.7,669.82 1350.46,670.764 1352.98,671.605 1355.29,672.353 1357.39,673.018 1359.31,673.608 1361.07,674.131 1362.66,674.596 1364.12,675.009 1365.46,675.376 1366.68,675.705 1367.81,676 1368.85,676.266 1369.81,676.509 1370.71,676.732 1371.56,676.94 1372.36,677.136 "></polyline>
<polyline clip-path="url(#clip732)" style="stroke:#ac8d18; stroke-linecap:round; stroke-linejoin:round; stroke-width:16; stroke-opacity:1; fill:none" stroke-dasharray="8, 16" points="849.962,285.275 842.952,290.596 841.889,298.592 845.837,308.763 853.962,320.67 865.527,333.929 879.878,348.202 896.441,363.197 914.711,378.663 934.251,394.382 954.678,410.17 975.665,425.872 996.93,441.357 1018.23,456.518 1039.38,471.267 1060.19,485.535 1080.53,499.267 1100.29,512.424 1119.39,524.976 1137.75,536.906 1155.32,548.202 1172.07,558.863 1187.97,568.892 1203.02,578.3 1217.21,587.099 1230.56,595.307 1243.07,602.943 1254.77,610.03 1265.68,616.592 1275.83,622.654 1285.25,628.242 1293.97,633.382 1302.04,638.101 1309.47,642.425 1316.32,646.381 1322.61,649.995 1328.39,653.291 1333.68,656.294 1338.53,659.028 1342.97,661.515 1347.04,663.778 1350.76,665.837 1354.16,667.712 1357.29,669.424 1360.16,670.989 1362.81,672.424 1365.26,673.747 1367.53,674.973 1369.66,676.115 1371.66,677.188 1373.56,678.205 "></polyline>
<polyline clip-path="url(#clip732)" style="stroke:#00a9ad; stroke-linecap:round; stroke-linejoin:round; stroke-width:8; stroke-opacity:1; fill:none" points="849.962,285.275 842.952,290.596 841.889,298.592 845.837,308.763 853.963,320.67 865.528,333.929 879.879,348.202 896.441,363.198 914.712,378.663 934.252,394.383 954.679,410.171 975.666,425.872 996.931,441.357 1018.24,456.518 1039.38,471.267 1060.19,485.535 1080.53,499.268 1100.29,512.424 1119.39,524.977 1137.75,536.906 1155.32,548.202 1172.07,558.863 1187.97,568.893 1203.02,578.3 1217.21,587.099 1230.56,595.307 1243.07,602.943 1254.77,610.03 1265.68,616.592 1275.83,622.654 1285.25,628.242 1293.97,633.382 1302.04,638.101 1309.47,642.425 1316.32,646.381 1322.61,649.995 1328.39,653.291 1333.68,656.294 1338.53,659.028 1342.97,661.515 1347.04,663.778 1350.76,665.837 1354.16,667.712 1357.29,669.424 1360.16,670.989 1362.81,672.424 1365.26,673.747 1367.53,674.973 1369.66,676.115 1371.66,677.188 1373.56,678.205 "></polyline>
<polyline clip-path="url(#clip732)" style="stroke:#ed5d92; stroke-linecap:round; stroke-linejoin:round; stroke-width:16; stroke-opacity:1; fill:none" stroke-dasharray="8, 16" points="1268.94,698.457 1282.83,694.893 1295.31,691.71 1306.5,688.876 1316.49,686.361 1325.38,684.138 1333.28,682.181 1340.25,680.466 1346.4,678.969 1351.78,677.67 1356.48,676.549 1360.56,675.589 1364.07,674.772 1367.09,674.083 1369.66,673.508 1371.82,673.034 1373.62,672.65 1375.11,672.344 1376.32,672.107 1377.28,671.931 1378.03,671.807 1378.58,671.727 1378.97,671.687 1379.22,671.679 1379.35,671.698 1379.38,671.741 1379.32,671.802 1379.19,671.879 1379,671.969 1378.76,672.067 1378.48,672.173 1378.18,672.283 1377.85,672.396 1377.51,672.511 1377.16,672.627 1376.8,672.741 1376.44,672.854 1376.08,672.964 1375.73,673.071 1375.39,673.175 1375.06,673.275 1374.74,673.371 1374.43,673.462 1374.13,673.55 1373.85,673.633 1373.57,673.712 1373.32,673.787 1373.07,673.858 1372.83,673.925 1372.61,673.99 1372.4,674.051 "></polyline>
<polyline clip-path="url(#clip732)" style="stroke:#c68125; stroke-linecap:round; stroke-linejoin:round; stroke-width:8; stroke-opacity:1; fill:none" points="1268.94,698.457 1282.83,694.893 1295.31,691.71 1306.5,688.876 1316.49,686.361 1325.38,684.138 1333.28,682.181 1340.25,680.466 1346.4,678.969 1351.78,677.67 1356.48,676.549 1360.56,675.589 1364.07,674.772 1367.09,674.083 1369.66,673.508 1371.82,673.034 1373.62,672.65 1375.11,672.344 1376.32,672.107 1377.28,671.931 1378.03,671.807 1378.58,671.727 1378.97,671.687 1379.22,671.679 1379.35,671.698 1379.38,671.741 1379.32,671.802 1379.19,671.879 1379,671.969 1378.76,672.067 1378.48,672.173 1378.18,672.283 1377.85,672.396 1377.51,672.511 1377.16,672.627 1376.8,672.741 1376.44,672.854 1376.08,672.964 1375.73,673.071 1375.39,673.175 1375.06,673.275 1374.74,673.371 1374.43,673.462 1374.13,673.55 1373.85,673.633 1373.57,673.712 1373.32,673.787 1373.07,673.858 1372.83,673.925 1372.61,673.99 1372.4,674.051 "></polyline>
<polyline clip-path="url(#clip732)" style="stroke:#00a98d; stroke-linecap:round; stroke-linejoin:round; stroke-width:16; stroke-opacity:1; fill:none" stroke-dasharray="8, 16" points="1689.47,1211.44 1685.97,1217.24 1680.13,1217.14 1672.38,1212.08 1663.09,1202.91 1652.59,1190.35 1641.17,1175.06 1629.09,1157.61 1616.55,1138.51 1603.75,1118.2 1590.84,1097.05 1577.97,1075.4 1565.23,1053.51 1552.74,1031.63 1540.55,1009.96 1528.74,988.663 1517.36,967.873 1506.44,947.701 1496,928.232 1486.07,909.534 1476.65,891.655 1467.76,874.626 1459.38,858.469 1451.51,843.191 1444.15,828.791 1437.27,815.261 1430.87,802.583 1424.92,790.737 1419.41,779.696 1414.31,769.431 1409.61,759.909 1405.28,751.096 1401.3,742.956 1397.66,735.452 1394.32,728.546 1391.26,722.201 1388.48,716.379 1385.94,711.045 1383.62,706.161 1381.51,701.693 1379.59,697.605 1377.84,693.865 1376.25,690.441 1374.8,687.302 1373.47,684.418 1372.24,681.761 1371.12,679.303 1370.07,677.02 1369.1,674.887 1368.19,672.88 1367.32,670.977 "></polyline>
<polyline clip-path="url(#clip732)" style="stroke:#8e971d; stroke-linecap:round; stroke-linejoin:round; stroke-width:8; stroke-opacity:1; fill:none" points="1689.47,1211.44 1685.97,1217.24 1680.13,1217.14 1672.38,1212.08 1663.09,1202.91 1652.59,1190.35 1641.17,1175.06 1629.09,1157.61 1616.55,1138.51 1603.75,1118.2 1590.84,1097.05 1577.97,1075.4 1565.23,1053.51 1552.73,1031.63 1540.55,1009.96 1528.74,988.662 1517.36,967.872 1506.44,947.7 1496,928.232 1486.07,909.534 1476.65,891.654 1467.76,874.626 1459.38,858.468 1451.51,843.19 1444.15,828.791 1437.27,815.26 1430.87,802.583 1424.92,790.737 1419.41,779.696 1414.31,769.431 1409.61,759.909 1405.28,751.096 1401.3,742.956 1397.66,735.451 1394.32,728.545 1391.26,722.201 1388.48,716.379 1385.94,711.045 1383.62,706.161 1381.51,701.692 1379.59,697.605 1377.84,693.865 1376.25,690.441 1374.8,687.302 1373.47,684.418 1372.24,681.761 1371.12,679.303 1370.07,677.02 1369.1,674.887 1368.19,672.88 1367.32,670.977 "></polyline>
<polyline clip-path="url(#clip732)" style="stroke:#00a8cb; stroke-linecap:round; stroke-linejoin:round; stroke-width:16; stroke-opacity:1; fill:none" stroke-dasharray="8, 16" points="1208.53,1118.9 1188.18,1131.1 1172.73,1137.18 1161.55,1138.05 1154.06,1134.53 1149.74,1127.36 1148.12,1117.19 1148.8,1104.57 1151.39,1090.02 1155.58,1073.98 1161.07,1056.82 1167.6,1038.9 1174.94,1020.48 1182.91,1001.83 1191.32,983.141 1200.04,964.598 1208.92,946.347 1217.88,928.508 1226.8,911.178 1235.61,894.436 1244.26,878.34 1252.68,862.934 1260.85,848.25 1268.71,834.306 1276.26,821.111 1283.47,808.666 1290.33,796.963 1296.83,785.99 1302.98,775.73 1308.77,766.159 1314.21,757.255 1319.31,748.989 1324.08,741.331 1328.52,734.251 1332.65,727.718 1336.49,721.699 1340.05,716.162 1343.35,711.074 1346.4,706.404 1349.22,702.12 1351.82,698.192 1354.22,694.589 1356.44,691.283 1358.49,688.246 1360.38,685.449 1362.14,682.868 1363.78,680.478 1365.31,678.254 1366.74,676.174 1368.09,674.215 1369.38,672.358 "></polyline>
<polyline clip-path="url(#clip732)" style="stroke:#9b7fe8; stroke-linecap:round; stroke-linejoin:round; stroke-width:8; stroke-opacity:1; fill:none" points="1208.53,1118.9 1188.18,1131.1 1172.73,1137.18 1161.55,1138.05 1154.06,1134.53 1149.74,1127.36 1148.12,1117.18 1148.8,1104.57 1151.39,1090.02 1155.58,1073.97 1161.07,1056.82 1167.6,1038.9 1174.94,1020.48 1182.91,1001.83 1191.32,983.14 1200.04,964.598 1208.93,946.347 1217.88,928.507 1226.8,911.178 1235.61,894.435 1244.26,878.339 1252.69,862.934 1260.85,848.25 1268.71,834.306 1276.26,821.111 1283.47,808.665 1290.33,796.963 1296.83,785.99 1302.98,775.729 1308.77,766.159 1314.21,757.255 1319.31,748.988 1324.08,741.331 1328.52,734.251 1332.65,727.718 1336.49,721.699 1340.05,716.162 1343.35,711.074 1346.4,706.404 1349.22,702.12 1351.82,698.192 1354.22,694.589 1356.44,691.283 1358.49,688.246 1360.38,685.449 1362.14,682.868 1363.78,680.478 1365.31,678.254 1366.74,676.174 1368.09,674.215 1369.38,672.358 "></polyline>
<polyline clip-path="url(#clip732)" style="stroke:#608cf6; stroke-linecap:round; stroke-linejoin:round; stroke-width:16; stroke-opacity:1; fill:none" stroke-dasharray="8, 16" points="1991.97,188.131 1979.68,191.137 1963.75,198.097 1944.92,208.318 1923.81,221.188 1900.98,236.168 1876.92,252.784 1852.03,270.625 1826.69,289.332 1801.19,308.595 1775.8,328.15 1750.72,347.771 1726.15,367.268 1702.21,386.481 1679.04,405.281 1656.73,423.559 1635.33,441.233 1614.9,458.236 1595.48,474.519 1577.08,490.049 1559.7,504.802 1543.35,518.769 1528,531.947 1513.65,544.341 1500.25,555.965 1487.78,566.834 1476.2,576.972 1465.48,586.402 1455.58,595.154 1446.45,603.258 1438.05,610.744 1430.34,617.645 1423.27,623.994 1416.81,629.825 1410.91,635.171 1405.54,640.064 1400.64,644.536 1396.19,648.62 1392.15,652.345 1388.47,655.741 1385.14,658.836 1382.11,661.659 1379.36,664.235 1376.85,666.59 1374.56,668.746 1372.46,670.728 1370.53,672.557 1368.75,674.253 1367.08,675.835 1365.52,677.322 1364.04,678.732 "></polyline>
<polyline clip-path="url(#clip732)" style="stroke:#f05f73; stroke-linecap:round; stroke-linejoin:round; stroke-width:8; stroke-opacity:1; fill:none" points="1991.97,188.131 1979.68,191.137 1963.75,198.097 1944.92,208.318 1923.81,221.188 1900.98,236.168 1876.92,252.784 1852.03,270.625 1826.69,289.332 1801.19,308.595 1775.8,328.15 1750.72,347.771 1726.15,367.268 1702.21,386.481 1679.04,405.28 1656.73,423.559 1635.33,441.233 1614.9,458.235 1595.48,474.519 1577.08,490.048 1559.7,504.802 1543.35,518.769 1528,531.947 1513.65,544.341 1500.25,555.965 1487.78,566.834 1476.2,576.972 1465.48,586.402 1455.58,595.154 1446.45,603.258 1438.05,610.744 1430.34,617.645 1423.27,623.994 1416.81,629.825 1410.91,635.171 1405.54,640.064 1400.64,644.536 1396.19,648.62 1392.15,652.345 1388.47,655.741 1385.14,658.836 1382.11,661.659 1379.36,664.235 1376.85,666.59 1374.56,668.746 1372.46,670.728 1370.53,672.557 1368.75,674.253 1367.08,675.835 1365.52,677.322 1364.04,678.731 "></polyline>
<polyline clip-path="url(#clip732)" style="stroke:#dd64b5; stroke-linecap:round; stroke-linejoin:round; stroke-width:16; stroke-opacity:1; fill:none" stroke-dasharray="8, 16" points="959.814,1386.4 972.772,1378.34 987.315,1365.11 1003.05,1347.66 1019.66,1326.81 1036.84,1303.3 1054.34,1277.76 1071.95,1250.76 1089.5,1222.77 1106.83,1194.2 1123.82,1165.41 1140.37,1136.71 1156.39,1108.33 1171.83,1080.49 1186.63,1053.35 1200.76,1027.06 1214.19,1001.72 1226.93,977.404 1238.95,954.18 1250.26,932.084 1260.88,911.139 1270.82,891.351 1280.08,872.718 1288.71,855.225 1296.72,838.85 1304.13,823.562 1310.98,809.328 1317.29,796.106 1323.09,783.856 1328.41,772.53 1333.28,762.083 1337.74,752.466 1341.8,743.631 1345.49,735.528 1348.85,728.111 1351.9,721.331 1354.65,715.143 1357.15,709.501 1359.41,704.361 1361.45,699.681 1363.29,695.421 1364.96,691.542 1366.47,688.006 1367.84,684.778 1369.08,681.825 1370.21,679.113 1371.25,676.614 1372.21,674.298 1373.11,672.138 1373.94,670.109 1374.73,668.187 "></polyline>
<polyline clip-path="url(#clip732)" style="stroke:#6b9e32; stroke-linecap:round; stroke-linejoin:round; stroke-width:8; stroke-opacity:1; fill:none" points="959.814,1386.4 972.773,1378.34 987.315,1365.11 1003.05,1347.66 1019.66,1326.81 1036.84,1303.3 1054.34,1277.76 1071.95,1250.76 1089.5,1222.77 1106.83,1194.2 1123.82,1165.41 1140.37,1136.71 1156.39,1108.33 1171.83,1080.49 1186.63,1053.35 1200.76,1027.06 1214.19,1001.72 1226.93,977.404 1238.95,954.18 1250.26,932.084 1260.88,911.139 1270.82,891.351 1280.08,872.718 1288.71,855.225 1296.72,838.85 1304.13,823.562 1310.98,809.328 1317.29,796.107 1323.09,783.856 1328.41,772.531 1333.28,762.083 1337.74,752.466 1341.8,743.631 1345.49,735.528 1348.85,728.111 1351.9,721.331 1354.65,715.143 1357.15,709.501 1359.41,704.361 1361.45,699.681 1363.29,695.421 1364.96,691.542 1366.47,688.006 1367.84,684.778 1369.08,681.825 1370.21,679.113 1371.25,676.614 1372.21,674.298 1373.11,672.138 1373.94,670.109 1374.73,668.187 "></polyline>
<polyline clip-path="url(#clip732)" style="stroke:#009af9; stroke-linecap:round; stroke-linejoin:round; stroke-width:16; stroke-opacity:1; fill:none" stroke-dasharray="8, 16" points="1182.03,439.27 1158.06,430.493 1139.84,425.348 1126.63,423.305 1117.75,423.889 1112.59,426.678 1110.62,431.296 1111.33,437.409 1114.31,444.723 1119.15,452.98 1125.52,461.955 1133.12,471.452 1141.68,481.299 1150.98,491.352 1160.8,501.485 1170.98,511.593 1181.36,521.587 1191.82,531.394 1202.26,540.954 1212.57,550.218 1222.68,559.15 1232.54,567.72 1242.09,575.908 1251.3,583.701 1260.13,591.089 1268.57,598.072 1276.6,604.649 1284.22,610.826 1291.41,616.613 1298.2,622.018 1304.57,627.054 1310.54,631.737 1316.12,636.081 1321.33,640.103 1326.17,643.819 1330.67,647.247 1334.84,650.405 1338.71,653.311 1342.28,655.981 1345.58,658.433 1348.63,660.684 1351.45,662.751 1354.05,664.65 1356.45,666.396 1358.67,668.005 1360.74,669.492 1362.65,670.869 1364.45,672.152 1366.13,673.352 1367.71,674.483 1369.21,675.555 "></polyline>
<polyline clip-path="url(#clip732)" style="stroke:#e26f46; stroke-linecap:round; stroke-linejoin:round; stroke-width:8; stroke-opacity:1; fill:none" points="1182.03,439.27 1158.06,430.493 1139.84,425.348 1126.63,423.305 1117.75,423.89 1112.59,426.679 1110.62,431.296 1111.33,437.409 1114.31,444.723 1119.15,452.981 1125.52,461.956 1133.12,471.452 1141.68,481.299 1150.98,491.352 1160.8,501.485 1170.98,511.593 1181.36,521.587 1191.83,531.394 1202.26,540.954 1212.57,550.219 1222.68,559.15 1232.54,567.72 1242.09,575.909 1251.3,583.701 1260.13,591.089 1268.57,598.072 1276.6,604.649 1284.22,610.827 1291.42,616.613 1298.2,622.018 1304.57,627.054 1310.54,631.737 1316.12,636.081 1321.33,640.103 1326.17,643.819 1330.67,647.247 1334.84,650.405 1338.71,653.311 1342.28,655.981 1345.58,658.433 1348.63,660.684 1351.45,662.751 1354.05,664.65 1356.45,666.396 1358.67,668.005 1360.74,669.492 1362.65,670.869 1364.45,672.152 1366.13,673.352 1367.71,674.483 1369.21,675.555 "></polyline>
<polyline clip-path="url(#clip732)" style="stroke:#3da44d; stroke-linecap:round; stroke-linejoin:round; stroke-width:16; stroke-opacity:1; fill:none" stroke-dasharray="8, 16" points="1881.65,618.659 1883.96,616.276 1881.19,614.806 1874.18,614.119 1863.66,614.094 1850.29,614.628 1834.65,615.627 1817.24,617.007 1798.5,618.695 1778.81,620.628 1758.51,622.747 1737.88,625.005 1717.16,627.358 1696.56,629.77 1676.24,632.208 1656.34,634.648 1636.99,637.066 1618.27,639.443 1600.25,641.764 1582.98,644.017 1566.51,646.192 1550.86,648.282 1536.03,650.281 1522.04,652.186 1508.88,653.993 1496.53,655.703 1484.98,657.315 1474.2,658.83 1464.17,660.251 1454.85,661.579 1446.23,662.817 1438.25,663.969 1430.9,665.039 1424.12,666.029 1417.9,666.946 1412.19,667.791 1406.95,668.571 1402.16,669.288 1397.78,669.948 1393.78,670.555 1390.12,671.112 1386.78,671.623 1383.72,672.094 1380.92,672.526 1378.35,672.925 1375.99,673.294 1373.8,673.636 1371.77,673.954 1369.88,674.252 1368.09,674.532 1366.4,674.799 "></polyline>
<polyline clip-path="url(#clip732)" style="stroke:#c271d2; stroke-linecap:round; stroke-linejoin:round; stroke-width:8; stroke-opacity:1; fill:none" points="1881.65,618.659 1883.96,616.276 1881.19,614.806 1874.18,614.119 1863.66,614.094 1850.29,614.628 1834.65,615.627 1817.24,617.007 1798.5,618.695 1778.81,620.628 1758.51,622.747 1737.88,625.005 1717.16,627.358 1696.55,629.77 1676.23,632.209 1656.34,634.648 1636.99,637.066 1618.27,639.443 1600.25,641.764 1582.98,644.017 1566.51,646.192 1550.86,648.282 1536.03,650.281 1522.04,652.186 1508.88,653.993 1496.53,655.703 1484.98,657.315 1474.2,658.83 1464.17,660.251 1454.85,661.579 1446.23,662.817 1438.25,663.969 1430.9,665.039 1424.12,666.029 1417.9,666.946 1412.19,667.791 1406.95,668.571 1402.16,669.288 1397.78,669.948 1393.78,670.555 1390.12,671.112 1386.78,671.623 1383.72,672.094 1380.92,672.526 1378.35,672.925 1375.99,673.294 1373.8,673.636 1371.77,673.954 1369.88,674.252 1368.09,674.532 1366.4,674.799 "></polyline>
<polyline clip-path="url(#clip732)" style="stroke:#ac8d18; stroke-linecap:round; stroke-linejoin:round; stroke-width:16; stroke-opacity:1; fill:none" stroke-dasharray="8, 16" points="2269.05,650.107 2286.63,651.15 2293.02,652.243 2289.94,653.366 2278.91,654.506 2261.31,655.649 2238.34,656.784 2211.07,657.902 2180.43,658.995 2147.24,660.057 2112.2,661.084 2075.94,662.072 2038.97,663.017 2001.75,663.919 1964.67,664.775 1928.03,665.585 1892.11,666.349 1857.12,667.067 1823.23,667.74 1790.57,668.369 1759.25,668.956 1729.34,669.501 1700.89,670.007 1673.93,670.474 1648.46,670.906 1624.48,671.303 1601.96,671.667 1580.89,672.001 1561.2,672.307 1542.87,672.585 1525.84,672.839 1510.05,673.069 1495.44,673.278 1481.95,673.467 1469.52,673.637 1458.08,673.791 1447.56,673.93 1437.92,674.054 1429.07,674.166 1420.97,674.267 1413.54,674.357 1406.74,674.438 1400.5,674.511 1394.78,674.576 1389.52,674.636 1384.66,674.69 1380.17,674.739 1375.99,674.784 1372.08,674.825 1368.41,674.865 1364.92,674.901 "></polyline>
<polyline clip-path="url(#clip732)" style="stroke:#00a9ad; stroke-linecap:round; stroke-linejoin:round; stroke-width:8; stroke-opacity:1; fill:none" points="2269.05,650.107 2286.63,651.15 2293.02,652.243 2289.93,653.366 2278.91,654.506 2261.31,655.649 2238.34,656.784 2211.07,657.902 2180.43,658.995 2147.23,660.057 2112.2,661.084 2075.93,662.072 2038.97,663.017 2001.75,663.919 1964.67,664.775 1928.03,665.585 1892.11,666.349 1857.12,667.067 1823.22,667.74 1790.57,668.369 1759.25,668.956 1729.34,669.501 1700.89,670.007 1673.93,670.474 1648.46,670.906 1624.48,671.303 1601.96,671.667 1580.88,672.001 1561.2,672.307 1542.87,672.585 1525.84,672.839 1510.05,673.069 1495.44,673.278 1481.95,673.467 1469.52,673.637 1458.08,673.791 1447.56,673.93 1437.92,674.054 1429.07,674.166 1420.97,674.267 1413.54,674.357 1406.74,674.438 1400.5,674.511 1394.78,674.576 1389.52,674.636 1384.66,674.69 1380.17,674.739 1375.99,674.784 1372.08,674.825 1368.4,674.865 1364.92,674.901 "></polyline>
<polyline clip-path="url(#clip732)" style="stroke:#ed5d92; stroke-linecap:round; stroke-linejoin:round; stroke-width:16; stroke-opacity:1; fill:none" stroke-dasharray="8, 16" points="1762.17,524.592 1764.6,525.305 1763.04,527.273 1758.12,530.278 1750.43,534.129 1740.48,538.655 1728.71,543.708 1715.53,549.156 1701.28,554.889 1686.26,560.807 1670.74,566.827 1654.93,572.877 1639.02,578.898 1623.18,584.839 1607.54,590.657 1592.21,596.32 1577.28,601.8 1562.83,607.076 1548.91,612.133 1535.56,616.958 1522.82,621.545 1510.71,625.89 1499.23,629.992 1488.39,633.851 1478.18,637.472 1468.61,640.86 1459.64,644.021 1451.28,646.963 1443.49,649.694 1436.25,652.224 1429.55,654.562 1423.35,656.719 1417.63,658.703 1412.36,660.526 1407.52,662.198 1403.07,663.729 1398.99,665.129 1395.26,666.408 1391.85,667.575 1388.73,668.639 1385.88,669.609 1383.27,670.494 1380.88,671.302 1378.7,672.041 1376.69,672.718 1374.84,673.34 1373.14,673.914 1371.55,674.447 1370.07,674.944 1368.67,675.411 1367.35,675.854 "></polyline>
<polyline clip-path="url(#clip732)" style="stroke:#c68125; stroke-linecap:round; stroke-linejoin:round; stroke-width:8; stroke-opacity:1; fill:none" points="1762.17,524.592 1764.6,525.305 1763.04,527.273 1758.12,530.278 1750.43,534.129 1740.48,538.655 1728.71,543.708 1715.53,549.156 1701.28,554.889 1686.26,560.807 1670.74,566.827 1654.92,572.877 1639.02,578.898 1623.18,584.839 1607.54,590.657 1592.21,596.32 1577.28,601.8 1562.83,607.077 1548.91,612.133 1535.56,616.958 1522.82,621.545 1510.71,625.89 1499.23,629.992 1488.39,633.851 1478.18,637.473 1468.61,640.86 1459.64,644.021 1451.28,646.963 1443.49,649.695 1436.25,652.224 1429.55,654.562 1423.35,656.719 1417.63,658.703 1412.36,660.526 1407.52,662.198 1403.07,663.729 1398.99,665.129 1395.26,666.408 1391.85,667.575 1388.73,668.639 1385.88,669.609 1383.27,670.494 1380.88,671.302 1378.7,672.041 1376.69,672.718 1374.84,673.34 1373.14,673.914 1371.55,674.447 1370.07,674.944 1368.67,675.411 1367.35,675.854 "></polyline>
</svg>