<svg xmlns="http://www.w3.org/2000/svg" xmlns:xlink="http://www.w3.org/1999/xlink" width="600" height="400" viewBox="0 0 2400 1600">
<defs>
  <clipPath id="clip810">
    <rect x="0" y="0" width="2400" height="1600"></rect>
  </clipPath>
</defs>
<path clip-path="url(#clip810)" d="M0 1600 L2400 1600 L2400 0 L0 0  Z" fill="#ffffff" fill-rule="evenodd" fill-opacity="1"></path>
<defs>
  <clipPath id="clip811">
    <rect x="480" y="0" width="1681" height="1600"></rect>
  </clipPath>
</defs>
<path clip-path="url(#clip810)" d="M175.445 1423.18 L2352.76 1423.18 L2352.76 123.472 L175.445 123.472  Z" fill="#ffffff" fill-rule="evenodd" fill-opacity="1"></path>
<defs>
  <clipPath id="clip812">
    <rect x="175" y="123" width="2178" height="1301"></rect>
  </clipPath>
</defs>
<polyline clip-path="url(#clip812)" style="stroke:#000000; stroke-linecap:round; stroke-linejoin:round; stroke-width:2; stroke-opacity:0.1; fill:none" points="237.067,1423.18 237.067,123.472 "></polyline>
<polyline clip-path="url(#clip812)" style="stroke:#000000; stroke-linecap:round; stroke-linejoin:round; stroke-width:2; stroke-opacity:0.1; fill:none" points="823.943,1423.18 823.943,123.472 "></polyline>
<polyline clip-path="url(#clip812)" style="stroke:#000000; stroke-linecap:round; stroke-linejoin:round; stroke-width:2; stroke-opacity:0.1; fill:none" points="1410.82,1423.18 1410.82,123.472 "></polyline>
<polyline clip-path="url(#clip812)" style="stroke:#000000; stroke-linecap:round; stroke-linejoin:round; stroke-width:2; stroke-opacity:0.1; fill:none" points="1997.7,1423.18 1997.7,123.472 "></polyline>
<polyline clip-path="url(#clip812)" style="stroke:#000000; stroke-linecap:round; stroke-linejoin:round; stroke-width:2; stroke-opacity:0.1; fill:none" points="175.445,1391.72 2352.76,1391.72 "></polyline>
<polyline clip-path="url(#clip812)" style="stroke:#000000; stroke-linecap:round; stroke-linejoin:round; stroke-width:2; stroke-opacity:0.1; fill:none" points="175.445,1105.41 2352.76,1105.41 "></polyline>
<polyline clip-path="url(#clip812)" style="stroke:#000000; stroke-linecap:round; stroke-linejoin:round; stroke-width:2; stroke-opacity:0.1; fill:none" points="175.445,819.101 2352.76,819.101 "></polyline>
<polyline clip-path="url(#clip812)" style="stroke:#000000; stroke-linecap:round; stroke-linejoin:round; stroke-width:2; stroke-opacity:0.1; fill:none" points="175.445,532.792 2352.76,532.792 "></polyline>
<polyline clip-path="url(#clip812)" style="stroke:#000000; stroke-linecap:round; stroke-linejoin:round; stroke-width:2; stroke-opacity:0.1; fill:none" points="175.445,246.482 2352.76,246.482 "></polyline>
<polyline clip-path="url(#clip810)" style="stroke:#000000; stroke-linecap:round; stroke-linejoin:round; stroke-width:4; stroke-opacity:1; fill:none" points="175.445,1423.18 2352.76,1423.18 "></polyline>
<polyline clip-path="url(#clip810)" style="stroke:#000000; stroke-linecap:round; stroke-linejoin:round; stroke-width:4; stroke-opacity:1; fill:none" points="237.067,1423.18 237.067,1404.28 "></polyline>
<polyline clip-path="url(#clip810)" style="stroke:#000000; stroke-linecap:round; stroke-linejoin:round; stroke-width:4; stroke-opacity:1; fill:none" points="823.943,1423.18 823.943,1404.28 "></polyline>
<polyline clip-path="url(#clip810)" style="stroke:#000000; stroke-linecap:round; stroke-linejoin:round; stroke-width:4; stroke-opacity:1; fill:none" points="1410.82,1423.18 1410.82,1404.28 "></polyline>
<polyline clip-path="url(#clip810)" style="stroke:#000000; stroke-linecap:round; stroke-linejoin:round; stroke-width:4; stroke-opacity:1; fill:none" points="1997.7,1423.18 1997.7,1404.28 "></polyline>
<path clip-path="url(#clip810)" d="M237.067 1454.1 Q233.456 1454.1 231.627 1457.66 Q229.822 1461.2 229.822 1468.33 Q229.822 1475.44 231.627 1479.01 Q233.456 1482.55 237.067 1482.55 Q240.701 1482.55 242.507 1479.01 Q244.336 1475.44 244.336 1468.33 Q244.336 1461.2 242.507 1457.66 Q240.701 1454.1 237.067 1454.1 M237.067 1450.39 Q242.877 1450.39 245.933 1455 Q249.012 1459.58 249.012 1468.33 Q249.012 1477.06 245.933 1481.67 Q242.877 1486.25 237.067 1486.25 Q231.257 1486.25 228.178 1481.67 Q225.123 1477.06 225.123 1468.33 Q225.123 1459.58 228.178 1455 Q231.257 1450.39 237.067 1450.39 Z" fill="#000000" fill-rule="nonzero" fill-opacity="1"></path><path clip-path="url(#clip810)" d="M818.596 1481.64 L834.916 1481.64 L834.916 1485.58 L812.971 1485.58 L812.971 1481.64 Q815.633 1478.89 820.217 1474.26 Q824.823 1469.61 826.004 1468.27 Q828.249 1465.74 829.129 1464.01 Q830.031 1462.25 830.031 1460.56 Q830.031 1457.8 828.087 1456.07 Q826.166 1454.33 823.064 1454.33 Q820.865 1454.33 818.411 1455.09 Q815.98 1455.86 813.203 1457.41 L813.203 1452.69 Q816.027 1451.55 818.48 1450.97 Q820.934 1450.39 822.971 1450.39 Q828.342 1450.39 831.536 1453.08 Q834.73 1455.77 834.73 1460.26 Q834.73 1462.39 833.92 1464.31 Q833.133 1466.2 831.027 1468.8 Q830.448 1469.47 827.346 1472.69 Q824.244 1475.88 818.596 1481.64 Z" fill="#000000" fill-rule="nonzero" fill-opacity="1"></path><path clip-path="url(#clip810)" d="M1413.83 1455.09 L1402.02 1473.54 L1413.83 1473.54 L1413.83 1455.09 M1412.6 1451.02 L1418.48 1451.02 L1418.48 1473.54 L1423.41 1473.54 L1423.41 1477.43 L1418.48 1477.43 L1418.48 1485.58 L1413.83 1485.58 L1413.83 1477.43 L1398.23 1477.43 L1398.23 1472.92 L1412.6 1451.02 Z" fill="#000000" fill-rule="nonzero" fill-opacity="1"></path><path clip-path="url(#clip810)" d="M1998.1 1466.44 Q1994.95 1466.44 1993.1 1468.59 Q1991.27 1470.74 1991.27 1474.49 Q1991.27 1478.22 1993.1 1480.39 Q1994.95 1482.55 1998.1 1482.55 Q2001.25 1482.55 2003.08 1480.39 Q2004.93 1478.22 2004.93 1474.49 Q2004.93 1470.74 2003.08 1468.59 Q2001.25 1466.44 1998.1 1466.44 M2007.38 1451.78 L2007.38 1456.04 Q2005.62 1455.21 2003.82 1454.77 Q2002.04 1454.33 2000.28 1454.33 Q1995.65 1454.33 1993.19 1457.45 Q1990.76 1460.58 1990.42 1466.9 Q1991.78 1464.89 1993.84 1463.82 Q1995.9 1462.73 1998.38 1462.73 Q2003.59 1462.73 2006.6 1465.9 Q2009.63 1469.05 2009.63 1474.49 Q2009.63 1479.82 2006.48 1483.03 Q2003.33 1486.25 1998.1 1486.25 Q1992.11 1486.25 1988.93 1481.67 Q1985.76 1477.06 1985.76 1468.33 Q1985.76 1460.14 1989.65 1455.28 Q1993.54 1450.39 2000.09 1450.39 Q2001.85 1450.39 2003.63 1450.74 Q2005.44 1451.09 2007.38 1451.78 Z" fill="#000000" fill-rule="nonzero" fill-opacity="1"></path><path clip-path="url(#clip810)" d="M1151.55 1522.27 L1151.55 1532.4 L1163.62 1532.4 L1163.62 1536.95 L1151.55 1536.95 L1151.55 1556.3 Q1151.55 1560.66 1152.73 1561.9 Q1153.94 1563.14 1157.6 1563.14 L1163.62 1563.14 L1163.62 1568.04 L1157.6 1568.04 Q1150.82 1568.04 1148.24 1565.53 Q1145.67 1562.98 1145.67 1556.3 L1145.67 1536.95 L1141.37 1536.95 L1141.37 1532.4 L1145.67 1532.4 L1145.67 1522.27 L1151.55 1522.27 Z" fill="#000000" fill-rule="nonzero" fill-opacity="1"></path><path clip-path="url(#clip810)" d="M1171.32 1532.4 L1177.18 1532.4 L1177.18 1568.04 L1171.32 1568.04 L1171.32 1532.4 M1171.32 1518.52 L1177.18 1518.52 L1177.18 1525.93 L1171.32 1525.93 L1171.32 1518.52 Z" fill="#000000" fill-rule="nonzero" fill-opacity="1"></path><path clip-path="url(#clip810)" d="M1217.19 1539.24 Q1219.38 1535.29 1222.44 1533.41 Q1225.49 1531.54 1229.63 1531.54 Q1235.2 1531.54 1238.22 1535.45 Q1241.25 1539.33 1241.25 1546.53 L1241.25 1568.04 L1235.36 1568.04 L1235.36 1546.72 Q1235.36 1541.59 1233.55 1539.11 Q1231.73 1536.63 1228.01 1536.63 Q1223.46 1536.63 1220.81 1539.65 Q1218.17 1542.68 1218.17 1547.9 L1218.17 1568.04 L1212.28 1568.04 L1212.28 1546.72 Q1212.28 1541.56 1210.47 1539.11 Q1208.66 1536.63 1204.87 1536.63 Q1200.38 1536.63 1197.74 1539.68 Q1195.1 1542.71 1195.1 1547.9 L1195.1 1568.04 L1189.21 1568.04 L1189.21 1532.4 L1195.1 1532.4 L1195.1 1537.93 Q1197.1 1534.66 1199.9 1533.1 Q1202.7 1531.54 1206.55 1531.54 Q1210.44 1531.54 1213.14 1533.51 Q1215.88 1535.48 1217.19 1539.24 Z" fill="#000000" fill-rule="nonzero" fill-opacity="1"></path><path clip-path="url(#clip810)" d="M1283.42 1548.76 L1283.42 1551.62 L1256.49 1551.62 Q1256.88 1557.67 1260.12 1560.85 Q1263.4 1564 1269.22 1564 Q1272.6 1564 1275.75 1563.17 Q1278.93 1562.35 1282.05 1560.69 L1282.05 1566.23 Q1278.9 1567.57 1275.59 1568.27 Q1272.28 1568.97 1268.87 1568.97 Q1260.34 1568.97 1255.35 1564 Q1250.38 1559.04 1250.38 1550.57 Q1250.38 1541.82 1255.09 1536.69 Q1259.84 1531.54 1267.86 1531.54 Q1275.05 1531.54 1279.22 1536.18 Q1283.42 1540.8 1283.42 1548.76 M1277.56 1547.04 Q1277.5 1542.23 1274.86 1539.37 Q1272.25 1536.5 1267.92 1536.5 Q1263.02 1536.5 1260.06 1539.27 Q1257.13 1542.04 1256.68 1547.07 L1277.56 1547.04 Z" fill="#000000" fill-rule="nonzero" fill-opacity="1"></path><path clip-path="url(#clip810)" d="M1327.82 1518.58 Q1323.56 1525.9 1321.49 1533.06 Q1319.42 1540.23 1319.42 1547.58 Q1319.42 1554.93 1321.49 1562.16 Q1323.59 1569.35 1327.82 1576.64 L1322.73 1576.64 Q1317.95 1569.16 1315.57 1561.93 Q1313.21 1554.71 1313.21 1547.58 Q1313.21 1540.48 1315.57 1533.29 Q1317.92 1526.09 1322.73 1518.58 L1327.82 1518.58 Z" fill="#000000" fill-rule="nonzero" fill-opacity="1"></path><path clip-path="url(#clip810)" d="M1361.91 1533.45 L1361.91 1538.98 Q1359.43 1537.71 1356.75 1537.07 Q1354.08 1536.44 1351.22 1536.44 Q1346.85 1536.44 1344.66 1537.77 Q1342.49 1539.11 1342.49 1541.79 Q1342.49 1543.82 1344.05 1545 Q1345.61 1546.15 1350.32 1547.2 L1352.33 1547.64 Q1358.57 1548.98 1361.18 1551.43 Q1363.82 1553.85 1363.82 1558.21 Q1363.82 1563.17 1359.87 1566.07 Q1355.96 1568.97 1349.08 1568.97 Q1346.22 1568.97 1343.1 1568.39 Q1340.01 1567.85 1336.57 1566.74 L1336.57 1560.69 Q1339.82 1562.38 1342.97 1563.24 Q1346.12 1564.07 1349.21 1564.07 Q1353.35 1564.07 1355.58 1562.66 Q1357.8 1561.23 1357.8 1558.65 Q1357.8 1556.27 1356.18 1554.99 Q1354.59 1553.72 1349.15 1552.54 L1347.11 1552.07 Q1341.67 1550.92 1339.25 1548.56 Q1336.83 1546.18 1336.83 1542.04 Q1336.83 1537.01 1340.39 1534.27 Q1343.96 1531.54 1350.52 1531.54 Q1353.76 1531.54 1356.63 1532.01 Q1359.49 1532.49 1361.91 1533.45 Z" fill="#000000" fill-rule="nonzero" fill-opacity="1"></path><path clip-path="url(#clip810)" d="M1372.22 1518.58 L1377.31 1518.58 Q1382.09 1526.09 1384.44 1533.29 Q1386.83 1540.48 1386.83 1547.58 Q1386.83 1554.71 1384.44 1561.93 Q1382.09 1569.16 1377.31 1576.64 L1372.22 1576.64 Q1376.46 1569.35 1378.52 1562.16 Q1380.62 1554.93 1380.62 1547.58 Q1380.62 1540.23 1378.52 1533.06 Q1376.46 1525.9 1372.22 1518.58 Z" fill="#000000" fill-rule="nonzero" fill-opacity="1"></path><polyline clip-path="url(#clip810)" style="stroke:#000000; stroke-linecap:round; stroke-linejoin:round; stroke-width:4; stroke-opacity:1; fill:none" points="175.445,1423.18 175.445,123.472 "></polyline>
<polyline clip-path="url(#clip810)" style="stroke:#000000; stroke-linecap:round; stroke-linejoin:round; stroke-width:4; stroke-opacity:1; fill:none" points="175.445,1391.72 194.343,1391.72 "></polyline>
<polyline clip-path="url(#clip810)" style="stroke:#000000; stroke-linecap:round; stroke-linejoin:round; stroke-width:4; stroke-opacity:1; fill:none" points="175.445,1105.41 194.343,1105.41 "></polyline>
<polyline clip-path="url(#clip810)" style="stroke:#000000; stroke-linecap:round; stroke-linejoin:round; stroke-width:4; stroke-opacity:1; fill:none" points="175.445,819.101 194.343,819.101 "></polyline>
<polyline clip-path="url(#clip810)" style="stroke:#000000; stroke-linecap:round; stroke-linejoin:round; stroke-width:4; stroke-opacity:1; fill:none" points="175.445,532.792 194.343,532.792 "></polyline>
<polyline clip-path="url(#clip810)" style="stroke:#000000; stroke-linecap:round; stroke-linejoin:round; stroke-width:4; stroke-opacity:1; fill:none" points="175.445,246.482 194.343,246.482 "></polyline>
<path clip-path="url(#clip810)" d="M127.501 1377.52 Q123.89 1377.52 122.061 1381.08 Q120.255 1384.63 120.255 1391.76 Q120.255 1398.86 122.061 1402.43 Q123.89 1405.97 127.501 1405.97 Q131.135 1405.97 132.941 1402.43 Q134.769 1398.86 134.769 1391.76 Q134.769 1384.63 132.941 1381.08 Q131.135 1377.52 127.501 1377.52 M127.501 1373.82 Q133.311 1373.82 136.367 1378.42 Q139.445 1383.01 139.445 1391.76 Q139.445 1400.48 136.367 1405.09 Q133.311 1409.67 127.501 1409.67 Q121.691 1409.67 118.612 1405.09 Q115.556 1400.48 115.556 1391.76 Q115.556 1383.01 118.612 1378.42 Q121.691 1373.82 127.501 1373.82 Z" fill="#000000" fill-rule="nonzero" fill-opacity="1"></path><path clip-path="url(#clip810)" d="M123.126 1118.76 L139.445 1118.76 L139.445 1122.69 L117.501 1122.69 L117.501 1118.76 Q120.163 1116 124.746 1111.37 Q129.353 1106.72 130.533 1105.38 Q132.779 1102.85 133.658 1101.12 Q134.561 1099.36 134.561 1097.67 Q134.561 1094.91 132.617 1093.18 Q130.695 1091.44 127.593 1091.44 Q125.394 1091.44 122.941 1092.21 Q120.51 1092.97 117.732 1094.52 L117.732 1089.8 Q120.556 1088.66 123.01 1088.08 Q125.464 1087.51 127.501 1087.51 Q132.871 1087.51 136.066 1090.19 Q139.26 1092.88 139.26 1097.37 Q139.26 1099.5 138.45 1101.42 Q137.663 1103.32 135.556 1105.91 Q134.978 1106.58 131.876 1109.8 Q128.774 1112.99 123.126 1118.76 Z" fill="#000000" fill-rule="nonzero" fill-opacity="1"></path><path clip-path="url(#clip810)" d="M129.862 805.895 L118.056 824.344 L129.862 824.344 L129.862 805.895 M128.635 801.821 L134.515 801.821 L134.515 824.344 L139.445 824.344 L139.445 828.233 L134.515 828.233 L134.515 836.381 L129.862 836.381 L129.862 828.233 L114.26 828.233 L114.26 823.719 L128.635 801.821 Z" fill="#000000" fill-rule="nonzero" fill-opacity="1"></path><path clip-path="url(#clip810)" d="M127.917 530.928 Q124.769 530.928 122.918 533.081 Q121.089 535.234 121.089 538.984 Q121.089 542.711 122.918 544.887 Q124.769 547.039 127.917 547.039 Q131.066 547.039 132.894 544.887 Q134.746 542.711 134.746 538.984 Q134.746 535.234 132.894 533.081 Q131.066 530.928 127.917 530.928 M137.2 516.276 L137.2 520.535 Q135.441 519.702 133.635 519.262 Q131.853 518.822 130.093 518.822 Q125.464 518.822 123.01 521.947 Q120.58 525.072 120.232 531.391 Q121.598 529.377 123.658 528.313 Q125.718 527.225 128.195 527.225 Q133.404 527.225 136.413 530.396 Q139.445 533.544 139.445 538.984 Q139.445 544.308 136.297 547.525 Q133.149 550.743 127.917 550.743 Q121.922 550.743 118.751 546.16 Q115.58 541.553 115.58 532.826 Q115.58 524.632 119.468 519.771 Q123.357 514.887 129.908 514.887 Q131.667 514.887 133.45 515.234 Q135.255 515.581 137.2 516.276 Z" fill="#000000" fill-rule="nonzero" fill-opacity="1"></path><path clip-path="url(#clip810)" d="M127.593 247.35 Q124.26 247.35 122.339 249.133 Q120.441 250.915 120.441 254.04 Q120.441 257.165 122.339 258.947 Q124.26 260.73 127.593 260.73 Q130.927 260.73 132.848 258.947 Q134.769 257.142 134.769 254.04 Q134.769 250.915 132.848 249.133 Q130.95 247.35 127.593 247.35 M122.918 245.359 Q119.908 244.619 118.218 242.558 Q116.552 240.498 116.552 237.535 Q116.552 233.392 119.492 230.984 Q122.455 228.577 127.593 228.577 Q132.755 228.577 135.695 230.984 Q138.635 233.392 138.635 237.535 Q138.635 240.498 136.945 242.558 Q135.279 244.619 132.292 245.359 Q135.672 246.146 137.547 248.438 Q139.445 250.73 139.445 254.04 Q139.445 259.063 136.367 261.748 Q133.311 264.433 127.593 264.433 Q121.876 264.433 118.797 261.748 Q115.742 259.063 115.742 254.04 Q115.742 250.73 117.64 248.438 Q119.538 246.146 122.918 245.359 M121.205 237.975 Q121.205 240.66 122.871 242.165 Q124.561 243.67 127.593 243.67 Q130.603 243.67 132.292 242.165 Q134.005 240.66 134.005 237.975 Q134.005 235.29 132.292 233.785 Q130.603 232.281 127.593 232.281 Q124.561 232.281 122.871 233.785 Q121.205 235.29 121.205 237.975 Z" fill="#000000" fill-rule="nonzero" fill-opacity="1"></path><path clip-path="url(#clip810)" d="M14.1925 922.315 L79.3773 922.315 L79.3773 927.726 L14.1925 927.726 L14.1925 922.315 Z" fill="#000000" fill-rule="nonzero" fill-opacity="1"></path><path clip-path="url(#clip810)" d="M28.3562 878.265 L45.7028 891.155 L64.0042 877.596 L64.0042 884.503 L49.9996 894.879 L64.0042 905.255 L64.0042 912.162 L45.3526 898.317 L28.3562 910.984 L28.3562 904.078 L41.0558 894.625 L28.3562 885.171 L28.3562 878.265 Z" fill="#000000" fill-rule="nonzero" fill-opacity="1"></path><path clip-path="url(#clip810)" d="M43.5384 851.561 L43.5384 834.405 L48.7583 834.405 L48.7583 851.561 L43.5384 851.561 Z" fill="#000000" fill-rule="nonzero" fill-opacity="1"></path><path clip-path="url(#clip810)" d="M28.3562 774.726 L45.7028 787.617 L64.0042 774.058 L64.0042 780.965 L49.9996 791.341 L64.0042 801.717 L64.0042 808.624 L45.3526 794.778 L28.3562 807.446 L28.3562 800.539 L41.0558 791.086 L28.3562 781.633 L28.3562 774.726 Z" fill="#000000" fill-rule="nonzero" fill-opacity="1"></path><path clip-path="url(#clip810)" d="M45.7664 742.325 Q39.4007 742.325 35.8996 744.967 Q32.3984 747.577 32.3984 752.319 Q32.3984 757.03 35.8996 759.672 Q39.4007 762.281 45.7664 762.281 Q52.1003 762.281 55.6014 759.672 Q59.1026 757.03 59.1026 752.319 Q59.1026 747.577 55.6014 744.967 Q52.1003 742.325 45.7664 742.325 M59.58 736.469 Q68.683 736.469 73.1071 740.511 Q77.5631 744.553 77.5631 752.892 Q77.5631 755.979 77.0857 758.717 Q76.6401 761.454 75.6852 764.032 L69.9879 764.032 Q71.3884 761.454 72.0568 758.939 Q72.7252 756.425 72.7252 753.815 Q72.7252 748.054 69.7015 745.19 Q66.7096 742.325 60.6303 742.325 L57.7339 742.325 Q60.885 744.139 62.4446 746.972 Q64.0042 749.805 64.0042 753.751 Q64.0042 760.308 59.0071 764.319 Q54.01 768.329 45.7664 768.329 Q37.491 768.329 32.4939 764.319 Q27.4968 760.308 27.4968 753.751 Q27.4968 749.805 29.0564 746.972 Q30.616 744.139 33.7671 742.325 L28.3562 742.325 L28.3562 736.469 L59.58 736.469 Z" fill="#000000" fill-rule="nonzero" fill-opacity="1"></path><path clip-path="url(#clip810)" d="M32.4621 710.592 Q32.4621 715.303 36.1542 718.04 Q39.8145 720.777 46.212 720.777 Q52.6095 720.777 56.3017 718.072 Q59.9619 715.334 59.9619 710.592 Q59.9619 705.913 56.2698 703.176 Q52.5777 700.439 46.212 700.439 Q39.8781 700.439 36.186 703.176 Q32.4621 705.913 32.4621 710.592 M27.4968 710.592 Q27.4968 702.953 32.4621 698.593 Q37.4273 694.232 46.212 694.232 Q54.9649 694.232 59.9619 698.593 Q64.9272 702.953 64.9272 710.592 Q64.9272 718.263 59.9619 722.623 Q54.9649 726.952 46.212 726.952 Q37.4273 726.952 32.4621 722.623 Q27.4968 718.263 27.4968 710.592 Z" fill="#000000" fill-rule="nonzero" fill-opacity="1"></path><path clip-path="url(#clip810)" d="M46.0847 668.324 Q46.0847 675.421 47.7079 678.159 Q49.3312 680.896 53.2461 680.896 Q56.3653 680.896 58.2114 678.859 Q60.0256 676.79 60.0256 673.257 Q60.0256 668.387 56.5881 665.459 Q53.1188 662.499 47.3897 662.499 L46.0847 662.499 L46.0847 668.324 M43.6657 656.643 L64.0042 656.643 L64.0042 662.499 L58.5933 662.499 Q61.8398 664.504 63.3994 667.496 Q64.9272 670.488 64.9272 674.817 Q64.9272 680.291 61.8716 683.538 Q58.7843 686.752 53.6281 686.752 Q47.6125 686.752 44.5569 682.742 Q41.5014 678.7 41.5014 670.711 L41.5014 662.499 L40.9285 662.499 Q36.8862 662.499 34.6901 665.173 Q32.4621 667.814 32.4621 672.621 Q32.4621 675.676 33.1941 678.572 Q33.9262 681.469 35.3903 684.142 L29.9795 684.142 Q28.7381 680.928 28.1334 677.904 Q27.4968 674.88 27.4968 672.016 Q27.4968 664.281 31.5072 660.462 Q35.5176 656.643 43.6657 656.643 Z" fill="#000000" fill-rule="nonzero" fill-opacity="1"></path><path clip-path="url(#clip810)" d="M14.479 644.58 L14.479 638.723 L64.0042 638.723 L64.0042 644.58 L14.479 644.58 Z" fill="#000000" fill-rule="nonzero" fill-opacity="1"></path><path clip-path="url(#clip810)" d="M14.1925 618.926 L79.3773 618.926 L79.3773 624.337 L14.1925 624.337 L14.1925 618.926 Z" fill="#000000" fill-rule="nonzero" fill-opacity="1"></path><path clip-path="url(#clip810)" d="M466.964 12.096 L505.204 12.096 L505.204 18.9825 L475.146 18.9825 L475.146 36.8875 L503.948 36.8875 L503.948 43.7741 L475.146 43.7741 L475.146 65.6895 L505.933 65.6895 L505.933 72.576 L466.964 72.576 L466.964 12.096 Z" fill="#000000" fill-rule="nonzero" fill-opacity="1"></path><path clip-path="url(#clip810)" d="M545.349 34.1734 Q544.093 33.4443 542.594 33.1202 Q541.136 32.7556 539.353 32.7556 Q533.034 32.7556 529.631 36.8875 Q526.269 40.9789 526.269 48.6757 L526.269 72.576 L518.775 72.576 L518.775 27.2059 L526.269 27.2059 L526.269 34.2544 Q528.618 30.1225 532.386 28.1376 Q536.153 26.1121 541.541 26.1121 Q542.31 26.1121 543.242 26.2337 Q544.174 26.3147 545.308 26.5172 L545.349 34.1734 Z" fill="#000000" fill-rule="nonzero" fill-opacity="1"></path><path clip-path="url(#clip810)" d="M577.999 34.1734 Q576.743 33.4443 575.244 33.1202 Q573.786 32.7556 572.004 32.7556 Q565.684 32.7556 562.281 36.8875 Q558.919 40.9789 558.919 48.6757 L558.919 72.576 L551.425 72.576 L551.425 27.2059 L558.919 27.2059 L558.919 34.2544 Q561.269 30.1225 565.036 28.1376 Q568.803 26.1121 574.191 26.1121 Q574.961 26.1121 575.892 26.2337 Q576.824 26.3147 577.958 26.5172 L577.999 34.1734 Z" fill="#000000" fill-rule="nonzero" fill-opacity="1"></path><path clip-path="url(#clip810)" d="M601.575 32.4315 Q595.58 32.4315 592.096 37.1306 Q588.612 41.7891 588.612 49.9314 Q588.612 58.0738 592.056 62.7728 Q595.539 67.4314 601.575 67.4314 Q607.53 67.4314 611.014 62.7323 Q614.498 58.0333 614.498 49.9314 Q614.498 41.8701 611.014 37.1711 Q607.53 32.4315 601.575 32.4315 M601.575 26.1121 Q611.297 26.1121 616.847 32.4315 Q622.397 38.7509 622.397 49.9314 Q622.397 61.0714 616.847 67.4314 Q611.297 73.7508 601.575 73.7508 Q591.812 73.7508 586.263 67.4314 Q580.754 61.0714 580.754 49.9314 Q580.754 38.7509 586.263 32.4315 Q591.812 26.1121 601.575 26.1121 Z" fill="#000000" fill-rule="nonzero" fill-opacity="1"></path><path clip-path="url(#clip810)" d="M661.042 34.1734 Q659.787 33.4443 658.288 33.1202 Q656.83 32.7556 655.047 32.7556 Q648.728 32.7556 645.325 36.8875 Q641.963 40.9789 641.963 48.6757 L641.963 72.576 L634.469 72.576 L634.469 27.2059 L641.963 27.2059 L641.963 34.2544 Q644.312 30.1225 648.08 28.1376 Q651.847 26.1121 657.235 26.1121 Q658.004 26.1121 658.936 26.2337 Q659.868 26.3147 661.002 26.5172 L661.042 34.1734 Z" fill="#000000" fill-rule="nonzero" fill-opacity="1"></path><path clip-path="url(#clip810)" d="M718.201 9.54393 L718.201 15.7418 L711.071 15.7418 Q707.061 15.7418 705.481 17.3622 Q703.942 18.9825 703.942 23.1955 L703.942 27.2059 L716.216 27.2059 L716.216 32.9987 L703.942 32.9987 L703.942 72.576 L696.447 72.576 L696.447 32.9987 L689.318 32.9987 L689.318 27.2059 L696.447 27.2059 L696.447 24.0462 Q696.447 16.471 699.972 13.0277 Q703.496 9.54393 711.152 9.54393 L718.201 9.54393 Z" fill="#000000" fill-rule="nonzero" fill-opacity="1"></path><path clip-path="url(#clip810)" d="M742.02 32.4315 Q736.025 32.4315 732.541 37.1306 Q729.057 41.7891 729.057 49.9314 Q729.057 58.0738 732.5 62.7728 Q735.984 67.4314 742.02 67.4314 Q747.975 67.4314 751.459 62.7323 Q754.942 58.0333 754.942 49.9314 Q754.942 41.8701 751.459 37.1711 Q747.975 32.4315 742.02 32.4315 M742.02 26.1121 Q751.742 26.1121 757.292 32.4315 Q762.842 38.7509 762.842 49.9314 Q762.842 61.0714 757.292 67.4314 Q751.742 73.7508 742.02 73.7508 Q732.257 73.7508 726.708 67.4314 Q721.198 61.0714 721.198 49.9314 Q721.198 38.7509 726.708 32.4315 Q732.257 26.1121 742.02 26.1121 Z" fill="#000000" fill-rule="nonzero" fill-opacity="1"></path><path clip-path="url(#clip810)" d="M801.487 34.1734 Q800.232 33.4443 798.733 33.1202 Q797.274 32.7556 795.492 32.7556 Q789.173 32.7556 785.77 36.8875 Q782.408 40.9789 782.408 48.6757 L782.408 72.576 L774.913 72.576 L774.913 27.2059 L782.408 27.2059 L782.408 34.2544 Q784.757 30.1225 788.524 28.1376 Q792.292 26.1121 797.679 26.1121 Q798.449 26.1121 799.381 26.2337 Q800.313 26.3147 801.447 26.5172 L801.487 34.1734 Z" fill="#000000" fill-rule="nonzero" fill-opacity="1"></path><path clip-path="url(#clip810)" d="M881.29 16.7545 L881.29 25.383 Q877.158 21.5346 872.459 19.6307 Q867.801 17.7268 862.534 17.7268 Q852.164 17.7268 846.655 24.0867 Q841.146 30.4061 841.146 42.3968 Q841.146 54.3469 846.655 60.7069 Q852.164 67.0263 862.534 67.0263 Q867.801 67.0263 872.459 65.1223 Q877.158 63.2184 881.29 59.3701 L881.29 67.9175 Q876.996 70.8341 872.176 72.2924 Q867.396 73.7508 862.048 73.7508 Q848.316 73.7508 840.416 65.3654 Q832.517 56.9395 832.517 42.3968 Q832.517 27.8135 840.416 19.4281 Q848.316 11.0023 862.048 11.0023 Q867.477 11.0023 872.257 12.4606 Q877.077 13.8784 881.29 16.7545 Z" fill="#000000" fill-rule="nonzero" fill-opacity="1"></path><path clip-path="url(#clip810)" d="M909.525 72.576 L886.435 12.096 L894.982 12.096 L914.143 63.0159 L933.344 12.096 L941.851 12.096 L918.801 72.576 L909.525 72.576 Z" fill="#000000" fill-rule="nonzero" fill-opacity="1"></path><path clip-path="url(#clip810)" d="M947.765 12.096 L956.556 12.096 L971.585 34.5785 L986.695 12.096 L995.485 12.096 L976.041 41.141 L996.781 72.576 L987.991 72.576 L970.977 46.8528 L953.842 72.576 L945.011 72.576 L966.602 40.2903 L947.765 12.096 Z" fill="#000000" fill-rule="nonzero" fill-opacity="1"></path><path clip-path="url(#clip810)" d="M1028.22 27.2059 L1036.12 27.2059 L1050.29 65.2844 L1064.47 27.2059 L1072.37 27.2059 L1055.36 72.576 L1045.23 72.576 L1028.22 27.2059 Z" fill="#000000" fill-rule="nonzero" fill-opacity="1"></path><path clip-path="url(#clip810)" d="M1111.58 28.5427 L1111.58 35.5912 Q1108.42 33.9709 1105.02 33.1607 Q1101.62 32.3505 1097.97 32.3505 Q1092.42 32.3505 1089.63 34.0519 Q1086.87 35.7533 1086.87 39.156 Q1086.87 41.7486 1088.86 43.2475 Q1090.84 44.7058 1096.84 46.0426 L1099.39 46.6097 Q1107.33 48.3111 1110.65 51.4303 Q1114.01 54.509 1114.01 60.0587 Q1114.01 66.3781 1108.99 70.0644 Q1104.01 73.7508 1095.26 73.7508 Q1091.61 73.7508 1087.64 73.0216 Q1083.71 72.3329 1079.34 70.9151 L1079.34 63.2184 Q1083.47 65.3654 1087.48 66.4591 Q1091.49 67.5124 1095.42 67.5124 Q1100.69 67.5124 1103.52 65.73 Q1106.36 63.9071 1106.36 60.6258 Q1106.36 57.5877 1104.29 55.9673 Q1102.27 54.3469 1095.34 52.8481 L1092.75 52.2405 Q1085.82 50.7821 1082.74 47.7845 Q1079.66 44.7463 1079.66 39.4801 Q1079.66 33.0797 1084.2 29.5959 Q1088.74 26.1121 1097.08 26.1121 Q1101.21 26.1121 1104.86 26.7198 Q1108.51 27.3274 1111.58 28.5427 Z" fill="#000000" fill-rule="nonzero" fill-opacity="1"></path><path clip-path="url(#clip810)" d="M1152.58 12.096 L1160.76 12.096 L1160.76 65.6895 L1190.21 65.6895 L1190.21 72.576 L1152.58 72.576 L1152.58 12.096 Z" fill="#000000" fill-rule="nonzero" fill-opacity="1"></path><path clip-path="url(#clip810)" d="M1223.35 17.6457 Q1214.44 17.6457 1209.17 24.2892 Q1203.94 30.9327 1203.94 42.3968 Q1203.94 53.8203 1209.17 60.4638 Q1214.44 67.1073 1223.35 67.1073 Q1232.26 67.1073 1237.45 60.4638 Q1242.67 53.8203 1242.67 42.3968 Q1242.67 30.9327 1237.45 24.2892 Q1232.26 17.6457 1223.35 17.6457 M1234.81 71.4823 L1245.59 83.2704 L1235.7 83.2704 L1226.75 73.5887 Q1225.41 73.6697 1224.69 73.7103 Q1224 73.7508 1223.35 73.7508 Q1210.59 73.7508 1202.93 65.2439 Q1195.32 56.6965 1195.32 42.3968 Q1195.32 28.0566 1202.93 19.5497 Q1210.59 11.0023 1223.35 11.0023 Q1236.07 11.0023 1243.68 19.5497 Q1251.3 28.0566 1251.3 42.3968 Q1251.3 52.9291 1247.05 60.4233 Q1242.83 67.9175 1234.81 71.4823 Z" fill="#000000" fill-rule="nonzero" fill-opacity="1"></path><path clip-path="url(#clip810)" d="M1292.78 44.2197 Q1295.41 45.1109 1297.89 48.0275 Q1300.4 50.9442 1302.91 56.0483 L1311.21 72.576 L1302.42 72.576 L1294.68 57.061 Q1291.69 50.9847 1288.85 48.9997 Q1286.06 47.0148 1281.2 47.0148 L1272.28 47.0148 L1272.28 72.576 L1264.1 72.576 L1264.1 12.096 L1282.57 12.096 Q1292.94 12.096 1298.05 16.4305 Q1303.15 20.7649 1303.15 29.5149 Q1303.15 35.2267 1300.48 38.994 Q1297.84 42.7613 1292.78 44.2197 M1272.28 18.8205 L1272.28 40.2903 L1282.57 40.2903 Q1288.49 40.2903 1291.48 37.5762 Q1294.52 34.8216 1294.52 29.5149 Q1294.52 24.2082 1291.48 21.5346 Q1288.49 18.8205 1282.57 18.8205 L1272.28 18.8205 Z" fill="#000000" fill-rule="nonzero" fill-opacity="1"></path><path clip-path="url(#clip810)" d="M1365.7 9.62495 Q1360.27 18.942 1357.64 28.0566 Q1355 37.1711 1355 46.5287 Q1355 55.8863 1357.64 65.0818 Q1360.31 74.2369 1365.7 83.5134 L1359.22 83.5134 Q1353.14 73.9938 1350.1 64.7983 Q1347.1 55.6027 1347.1 46.5287 Q1347.1 37.4952 1350.1 28.3401 Q1353.1 19.1851 1359.22 9.62495 L1365.7 9.62495 Z" fill="#000000" fill-rule="nonzero" fill-opacity="1"></path><path clip-path="url(#clip810)" d="M1380.48 12.096 L1391.5 12.096 L1418.32 62.6918 L1418.32 12.096 L1426.26 12.096 L1426.26 72.576 L1415.24 72.576 L1388.42 21.9802 L1388.42 72.576 L1380.48 72.576 L1380.48 12.096 Z" fill="#000000" fill-rule="nonzero" fill-opacity="1"></path><path clip-path="url(#clip810)" d="M1459.8 32.4315 Q1453.8 32.4315 1450.32 37.1306 Q1446.84 41.7891 1446.84 49.9314 Q1446.84 58.0738 1450.28 62.7728 Q1453.76 67.4314 1459.8 67.4314 Q1465.75 67.4314 1469.24 62.7323 Q1472.72 58.0333 1472.72 49.9314 Q1472.72 41.8701 1469.24 37.1711 Q1465.75 32.4315 1459.8 32.4315 M1459.8 26.1121 Q1469.52 26.1121 1475.07 32.4315 Q1480.62 38.7509 1480.62 49.9314 Q1480.62 61.0714 1475.07 67.4314 Q1469.52 73.7508 1459.8 73.7508 Q1450.04 73.7508 1444.49 67.4314 Q1438.98 61.0714 1438.98 49.9314 Q1438.98 38.7509 1444.49 32.4315 Q1450.04 26.1121 1459.8 26.1121 Z" fill="#000000" fill-rule="nonzero" fill-opacity="1"></path><path clip-path="url(#clip810)" d="M1492.98 27.2059 L1500.43 27.2059 L1500.43 72.576 L1492.98 72.576 L1492.98 27.2059 M1492.98 9.54393 L1500.43 9.54393 L1500.43 18.9825 L1492.98 18.9825 L1492.98 9.54393 Z" fill="#000000" fill-rule="nonzero" fill-opacity="1"></path><path clip-path="url(#clip810)" d="M1544.95 28.5427 L1544.95 35.5912 Q1541.79 33.9709 1538.39 33.1607 Q1534.98 32.3505 1531.34 32.3505 Q1525.79 32.3505 1522.99 34.0519 Q1520.24 35.7533 1520.24 39.156 Q1520.24 41.7486 1522.22 43.2475 Q1524.21 44.7058 1530.2 46.0426 L1532.76 46.6097 Q1540.7 48.3111 1544.02 51.4303 Q1547.38 54.509 1547.38 60.0587 Q1547.38 66.3781 1542.36 70.0644 Q1537.37 73.7508 1528.62 73.7508 Q1524.98 73.7508 1521.01 73.0216 Q1517.08 72.3329 1512.7 70.9151 L1512.7 63.2184 Q1516.84 65.3654 1520.85 66.4591 Q1524.86 67.5124 1528.79 67.5124 Q1534.05 67.5124 1536.89 65.73 Q1539.72 63.9071 1539.72 60.6258 Q1539.72 57.5877 1537.66 55.9673 Q1535.63 54.3469 1528.71 52.8481 L1526.11 52.2405 Q1519.19 50.7821 1516.11 47.7845 Q1513.03 44.7463 1513.03 39.4801 Q1513.03 33.0797 1517.57 29.5959 Q1522.1 26.1121 1530.45 26.1121 Q1534.58 26.1121 1538.23 26.7198 Q1541.87 27.3274 1544.95 28.5427 Z" fill="#000000" fill-rule="nonzero" fill-opacity="1"></path><path clip-path="url(#clip810)" d="M1578.13 76.7889 Q1574.97 84.8907 1571.97 87.3618 Q1568.97 89.8329 1563.95 89.8329 L1557.99 89.8329 L1557.99 83.5945 L1562.37 83.5945 Q1565.45 83.5945 1567.15 82.1361 Q1568.85 80.6778 1570.92 75.2496 L1572.25 71.8468 L1553.9 27.2059 L1561.8 27.2059 L1575.98 62.6918 L1590.16 27.2059 L1598.06 27.2059 L1578.13 76.7889 Z" fill="#000000" fill-rule="nonzero" fill-opacity="1"></path><path clip-path="url(#clip810)" d="M1643.22 18.8205 L1643.22 65.8515 L1653.11 65.8515 Q1665.63 65.8515 1671.42 60.1802 Q1677.25 54.509 1677.25 42.2752 Q1677.25 30.1225 1671.42 24.4918 Q1665.63 18.8205 1653.11 18.8205 L1643.22 18.8205 M1635.04 12.096 L1651.85 12.096 Q1669.43 12.096 1677.66 19.4281 Q1685.88 26.7198 1685.88 42.2752 Q1685.88 57.9117 1677.62 65.2439 Q1669.35 72.576 1651.85 72.576 L1635.04 72.576 L1635.04 12.096 Z" fill="#000000" fill-rule="nonzero" fill-opacity="1"></path><path clip-path="url(#clip810)" d="M1717.48 76.7889 Q1714.32 84.8907 1711.32 87.3618 Q1708.32 89.8329 1703.3 89.8329 L1697.34 89.8329 L1697.34 83.5945 L1701.72 83.5945 Q1704.8 83.5945 1706.5 82.1361 Q1708.2 80.6778 1710.27 75.2496 L1711.6 71.8468 L1693.25 27.2059 L1701.15 27.2059 L1715.33 62.6918 L1729.51 27.2059 L1737.41 27.2059 L1717.48 76.7889 Z" fill="#000000" fill-rule="nonzero" fill-opacity="1"></path><path clip-path="url(#clip810)" d="M1785.41 45.1919 L1785.41 72.576 L1777.96 72.576 L1777.96 45.4349 Q1777.96 38.994 1775.45 35.7938 Q1772.93 32.5936 1767.91 32.5936 Q1761.88 32.5936 1758.39 36.4419 Q1754.91 40.2903 1754.91 46.9338 L1754.91 72.576 L1747.41 72.576 L1747.41 27.2059 L1754.91 27.2059 L1754.91 34.2544 Q1757.58 30.163 1761.19 28.1376 Q1764.83 26.1121 1769.57 26.1121 Q1777.39 26.1121 1781.4 30.9732 Q1785.41 35.7938 1785.41 45.1919 Z" fill="#000000" fill-rule="nonzero" fill-opacity="1"></path><path clip-path="url(#clip810)" d="M1820.9 49.7694 Q1811.86 49.7694 1808.38 51.8354 Q1804.9 53.9013 1804.9 58.8839 Q1804.9 62.8538 1807.49 65.2034 Q1810.12 67.5124 1814.62 67.5124 Q1820.82 67.5124 1824.54 63.1374 Q1828.31 58.7219 1828.31 51.4303 L1828.31 49.7694 L1820.9 49.7694 M1835.76 46.6907 L1835.76 72.576 L1828.31 72.576 L1828.31 65.6895 Q1825.76 69.8214 1821.95 71.8063 Q1818.14 73.7508 1812.63 73.7508 Q1805.67 73.7508 1801.53 69.8619 Q1797.44 65.9325 1797.44 59.3701 Q1797.44 51.7138 1802.55 47.825 Q1807.69 43.9361 1817.86 43.9361 L1828.31 43.9361 L1828.31 43.2069 Q1828.31 38.0623 1824.91 35.2672 Q1821.55 32.4315 1815.43 32.4315 Q1811.54 32.4315 1807.85 33.3632 Q1804.17 34.295 1800.76 36.1584 L1800.76 29.2718 Q1804.86 27.692 1808.7 26.9223 Q1812.55 26.1121 1816.2 26.1121 Q1826.04 26.1121 1830.9 31.2163 Q1835.76 36.3204 1835.76 46.6907 Z" fill="#000000" fill-rule="nonzero" fill-opacity="1"></path><path clip-path="url(#clip810)" d="M1886.44 35.9153 Q1889.24 30.8922 1893.12 28.5022 Q1897.01 26.1121 1902.28 26.1121 Q1909.37 26.1121 1913.22 31.0947 Q1917.07 36.0368 1917.07 45.1919 L1917.07 72.576 L1909.57 72.576 L1909.57 45.4349 Q1909.57 38.913 1907.26 35.7533 Q1904.95 32.5936 1900.21 32.5936 Q1894.42 32.5936 1891.06 36.4419 Q1887.7 40.2903 1887.7 46.9338 L1887.7 72.576 L1880.2 72.576 L1880.2 45.4349 Q1880.2 38.8725 1877.89 35.7533 Q1875.58 32.5936 1870.76 32.5936 Q1865.05 32.5936 1861.69 36.4824 Q1858.33 40.3308 1858.33 46.9338 L1858.33 72.576 L1850.83 72.576 L1850.83 27.2059 L1858.33 27.2059 L1858.33 34.2544 Q1860.88 30.082 1864.44 28.0971 Q1868.01 26.1121 1872.91 26.1121 Q1877.85 26.1121 1881.3 28.6237 Q1884.78 31.1352 1886.44 35.9153 Z" fill="#000000" fill-rule="nonzero" fill-opacity="1"></path><path clip-path="url(#clip810)" d="M1931.93 27.2059 L1939.39 27.2059 L1939.39 72.576 L1931.93 72.576 L1931.93 27.2059 M1931.93 9.54393 L1939.39 9.54393 L1939.39 18.9825 L1931.93 18.9825 L1931.93 9.54393 Z" fill="#000000" fill-rule="nonzero" fill-opacity="1"></path><path clip-path="url(#clip810)" d="M1987.63 28.9478 L1987.63 35.9153 Q1984.47 34.1734 1981.27 33.3227 Q1978.11 32.4315 1974.87 32.4315 Q1967.62 32.4315 1963.61 37.0496 Q1959.6 41.6271 1959.6 49.9314 Q1959.6 58.2358 1963.61 62.8538 Q1967.62 67.4314 1974.87 67.4314 Q1978.11 67.4314 1981.27 66.5807 Q1984.47 65.6895 1987.63 63.9476 L1987.63 70.8341 Q1984.51 72.2924 1981.15 73.0216 Q1977.83 73.7508 1974.06 73.7508 Q1963.81 73.7508 1957.78 67.3098 Q1951.74 60.8689 1951.74 49.9314 Q1951.74 38.832 1957.82 32.472 Q1963.93 26.1121 1974.55 26.1121 Q1977.99 26.1121 1981.27 26.8413 Q1984.55 27.5299 1987.63 28.9478 Z" fill="#000000" fill-rule="nonzero" fill-opacity="1"></path><path clip-path="url(#clip810)" d="M2029.52 28.5427 L2029.52 35.5912 Q2026.36 33.9709 2022.96 33.1607 Q2019.55 32.3505 2015.91 32.3505 Q2010.36 32.3505 2007.56 34.0519 Q2004.81 35.7533 2004.81 39.156 Q2004.81 41.7486 2006.79 43.2475 Q2008.78 44.7058 2014.77 46.0426 L2017.33 46.6097 Q2025.27 48.3111 2028.59 51.4303 Q2031.95 54.509 2031.95 60.0587 Q2031.95 66.3781 2026.93 70.0644 Q2021.94 73.7508 2013.19 73.7508 Q2009.55 73.7508 2005.58 73.0216 Q2001.65 72.3329 1997.27 70.9151 L1997.27 63.2184 Q2001.41 65.3654 2005.42 66.4591 Q2009.43 67.5124 2013.36 67.5124 Q2018.62 67.5124 2021.46 65.73 Q2024.29 63.9071 2024.29 60.6258 Q2024.29 57.5877 2022.23 55.9673 Q2020.2 54.3469 2013.27 52.8481 L2010.68 52.2405 Q2003.76 50.7821 2000.68 47.7845 Q1997.6 44.7463 1997.6 39.4801 Q1997.6 33.0797 2002.13 29.5959 Q2006.67 26.1121 2015.02 26.1121 Q2019.15 26.1121 2022.79 26.7198 Q2026.44 27.3274 2029.52 28.5427 Z" fill="#000000" fill-rule="nonzero" fill-opacity="1"></path><path clip-path="url(#clip810)" d="M2042.64 9.62495 L2049.13 9.62495 Q2055.2 19.1851 2058.2 28.3401 Q2061.24 37.4952 2061.24 46.5287 Q2061.24 55.6027 2058.2 64.7983 Q2055.2 73.9938 2049.13 83.5134 L2042.64 83.5134 Q2048.03 74.2369 2050.66 65.0818 Q2053.34 55.8863 2053.34 46.5287 Q2053.34 37.1711 2050.66 28.0566 Q2048.03 18.942 2042.64 9.62495 Z" fill="#000000" fill-rule="nonzero" fill-opacity="1"></path><polyline clip-path="url(#clip812)" style="stroke:#009af9; stroke-linecap:round; stroke-linejoin:round; stroke-width:4; stroke-opacity:1; fill:none" points="237.067,160.256 266.411,164.904 295.755,177.095 325.099,198.689 354.442,225.893 383.786,257.519 413.13,294.922 442.474,335.195 471.818,377.86 501.161,420.121 530.505,465.561 559.849,513.619 589.193,563.612 618.537,612.176 647.881,661.862 677.224,712.178 706.568,763.932 735.912,810.207 765.256,854.57 794.6,895.712 823.943,933.388 853.287,970.327 882.631,1007.49 911.975,1044.07 941.319,1076.82 970.662,1108.47 1000.01,1137.03 1029.35,1164.52 1058.69,1186.42 1088.04,1206.54 1117.38,1227.9 1146.73,1246.67 1176.07,1262.65 1205.41,1278.32 1234.76,1293.15 1264.1,1307.17 1293.44,1318.15 1322.79,1330.3 1352.13,1339.6 1381.48,1348.44 1410.82,1354.95 1440.16,1357.94 1469.51,1359.96 1498.85,1360.59 1528.19,1360.01 1557.54,1359.79 1586.88,1359.58 1616.23,1359.22 1645.57,1361.28 1674.91,1362.42 1704.26,1362.83 1733.6,1362.45 1762.95,1361.16 1792.29,1361.5 1821.63,1364.7 1850.98,1366.21 1880.32,1370.18 1909.66,1373.82 1939.01,1380.41 1968.35,1385.52 1997.7,1386.4 2027.04,1382.83 2056.38,1379.63 2085.73,1375.77 2115.07,1373.11 2144.41,1370.68 2173.76,1369.5 2203.1,1369.74 2232.45,1371.34 2261.79,1372.64 2291.13,1372.09 "></polyline>
<polyline clip-path="url(#clip812)" style="stroke:#e26f46; stroke-linecap:round; stroke-linejoin:round; stroke-width:4; stroke-opacity:1; fill:none" points="237.067,160.256 266.411,164.904 295.755,176.926 325.099,197.993 354.442,224.236 383.786,254.302 413.13,289.482 442.474,326.936 471.818,365.991 501.161,403.695 530.505,443.71 559.849,485.746 589.193,529.452 618.537,571.514 647.881,614.518 677.224,658.457 706.568,704.552 735.912,745.669 765.256,785.098 794.6,821.598 823.943,854.769 853.287,887.067 882.631,919.309 911.975,951.823 941.319,981.379 970.662,1010.29 1000.01,1037.24 1029.35,1063.39 1058.69,1083.98 1088.04,1102.42 1117.38,1121.81 1146.73,1138.67 1176.07,1152.14 1205.41,1166.46 1234.76,1178.6 1264.1,1189.84 1293.44,1199.85 1322.79,1209.14 1352.13,1216.23 1381.48,1220.72 1410.82,1225.03 1440.16,1224.08 1469.51,1221.51 1498.85,1218.33 1528.19,1211.42 1557.54,1206.15 1586.88,1201.19 1616.23,1194.99 1645.57,1188.43 1674.91,1181.72 1704.26,1173.87 1733.6,1164.66 1762.95,1156.26 1792.29,1147.52 1821.63,1141.6 1850.98,1134.79 1880.32,1130.47 1909.66,1125.6 1939.01,1124.3 1968.35,1125.04 1997.7,1122.39 2027.04,1120.56 2056.38,1118.56 2085.73,1117.81 2115.07,1116.3 2144.41,1115.02 2173.76,1112.56 2203.1,1108.7 2232.45,1103.33 2261.79,1098.99 2291.13,1096.18 "></polyline>
<path clip-path="url(#clip810)" d="M1342.52 322.316 L2280.18 322.316 L2280.18 166.796 L1342.52 166.796  Z" fill="#ffffff" fill-rule="evenodd" fill-opacity="1"></path>
<polyline clip-path="url(#clip810)" style="stroke:#000000; stroke-linecap:round; stroke-linejoin:round; stroke-width:4; stroke-opacity:1; fill:none" points="1342.52,322.316 2280.18,322.316 2280.18,166.796 1342.52,166.796 1342.52,322.316 "></polyline>
<polyline clip-path="url(#clip810)" style="stroke:#009af9; stroke-linecap:round; stroke-linejoin:round; stroke-width:4; stroke-opacity:1; fill:none" points="1366.71,218.636 1511.87,218.636 "></polyline>
<path clip-path="url(#clip810)" d="M1536.06 201.356 L1540.74 201.356 L1540.74 231.981 L1557.56 231.981 L1557.56 235.916 L1536.06 235.916 L1536.06 201.356 Z" fill="#000000" fill-rule="nonzero" fill-opacity="1"></path><path clip-path="url(#clip810)" d="M1576.5 204.527 Q1571.41 204.527 1568.4 208.323 Q1565.41 212.12 1565.41 218.67 Q1565.41 225.198 1568.4 228.994 Q1571.41 232.791 1576.5 232.791 Q1581.59 232.791 1584.55 228.994 Q1587.54 225.198 1587.54 218.67 Q1587.54 212.12 1584.55 208.323 Q1581.59 204.527 1576.5 204.527 M1583.05 235.291 L1589.21 242.027 L1583.56 242.027 L1578.44 236.494 Q1577.68 236.541 1577.26 236.564 Q1576.87 236.587 1576.5 236.587 Q1569.21 236.587 1564.83 231.726 Q1560.48 226.842 1560.48 218.67 Q1560.48 210.476 1564.83 205.615 Q1569.21 200.731 1576.5 200.731 Q1583.77 200.731 1588.12 205.615 Q1592.47 210.476 1592.47 218.67 Q1592.47 224.689 1590.04 228.971 Q1587.63 233.254 1583.05 235.291 Z" fill="#000000" fill-rule="nonzero" fill-opacity="1"></path><path clip-path="url(#clip810)" d="M1616.18 219.712 Q1617.68 220.221 1619.09 221.888 Q1620.53 223.555 1621.96 226.471 L1626.71 235.916 L1621.68 235.916 L1617.26 227.05 Q1615.55 223.578 1613.93 222.444 Q1612.33 221.309 1609.55 221.309 L1604.46 221.309 L1604.46 235.916 L1599.79 235.916 L1599.79 201.356 L1610.34 201.356 Q1616.27 201.356 1619.18 203.833 Q1622.1 206.309 1622.1 211.309 Q1622.1 214.573 1620.57 216.726 Q1619.07 218.879 1616.18 219.712 M1604.46 205.198 L1604.46 217.467 L1610.34 217.467 Q1613.72 217.467 1615.43 215.916 Q1617.17 214.342 1617.17 211.309 Q1617.17 208.277 1615.43 206.749 Q1613.72 205.198 1610.34 205.198 L1604.46 205.198 Z" fill="#000000" fill-rule="nonzero" fill-opacity="1"></path><path clip-path="url(#clip810)" d="M1643 201.356 L1672.24 201.356 L1672.24 205.291 L1659.97 205.291 L1659.97 235.916 L1655.27 235.916 L1655.27 205.291 L1643 205.291 L1643 201.356 Z" fill="#000000" fill-rule="nonzero" fill-opacity="1"></path><path clip-path="url(#clip810)" d="M1684.62 213.971 Q1683.91 213.555 1683.05 213.37 Q1682.22 213.161 1681.2 213.161 Q1677.59 213.161 1675.64 215.522 Q1673.72 217.86 1673.72 222.258 L1673.72 235.916 L1669.44 235.916 L1669.44 209.99 L1673.72 209.99 L1673.72 214.018 Q1675.06 211.657 1677.22 210.522 Q1679.37 209.365 1682.45 209.365 Q1682.89 209.365 1683.42 209.434 Q1683.95 209.481 1684.6 209.596 L1684.62 213.971 Z" fill="#000000" fill-rule="nonzero" fill-opacity="1"></path><path clip-path="url(#clip810)" d="M1700.87 222.883 Q1695.71 222.883 1693.72 224.064 Q1691.73 225.244 1691.73 228.092 Q1691.73 230.36 1693.21 231.703 Q1694.72 233.022 1697.29 233.022 Q1700.83 233.022 1702.96 230.522 Q1705.11 227.999 1705.11 223.832 L1705.11 222.883 L1700.87 222.883 M1709.37 221.124 L1709.37 235.916 L1705.11 235.916 L1705.11 231.981 Q1703.65 234.342 1701.48 235.476 Q1699.3 236.587 1696.15 236.587 Q1692.17 236.587 1689.81 234.365 Q1687.47 232.119 1687.47 228.369 Q1687.47 223.994 1690.39 221.772 Q1693.33 219.55 1699.14 219.55 L1705.11 219.55 L1705.11 219.133 Q1705.11 216.194 1703.17 214.596 Q1701.24 212.976 1697.75 212.976 Q1695.53 212.976 1693.42 213.508 Q1691.31 214.041 1689.37 215.106 L1689.37 211.17 Q1691.71 210.268 1693.91 209.828 Q1696.11 209.365 1698.19 209.365 Q1703.81 209.365 1706.59 212.282 Q1709.37 215.198 1709.37 221.124 Z" fill="#000000" fill-rule="nonzero" fill-opacity="1"></path><path clip-path="url(#clip810)" d="M1718.14 209.99 L1722.4 209.99 L1722.4 236.379 Q1722.4 241.332 1720.5 243.555 Q1718.63 245.777 1714.44 245.777 L1712.82 245.777 L1712.82 242.166 L1713.95 242.166 Q1716.38 242.166 1717.26 241.031 Q1718.14 239.92 1718.14 236.379 L1718.14 209.99 M1718.14 199.897 L1722.4 199.897 L1722.4 205.291 L1718.14 205.291 L1718.14 199.897 Z" fill="#000000" fill-rule="nonzero" fill-opacity="1"></path><path clip-path="url(#clip810)" d="M1753.49 221.888 L1753.49 223.971 L1733.91 223.971 Q1734.18 228.369 1736.54 230.684 Q1738.93 232.976 1743.17 232.976 Q1745.62 232.976 1747.91 232.374 Q1750.23 231.772 1752.49 230.569 L1752.49 234.596 Q1750.2 235.568 1747.79 236.078 Q1745.39 236.587 1742.91 236.587 Q1736.71 236.587 1733.07 232.976 Q1729.46 229.365 1729.46 223.207 Q1729.46 216.842 1732.89 213.115 Q1736.34 209.365 1742.17 209.365 Q1747.4 209.365 1750.43 212.745 Q1753.49 216.101 1753.49 221.888 M1749.23 220.638 Q1749.18 217.143 1747.26 215.059 Q1745.36 212.976 1742.22 212.976 Q1738.65 212.976 1736.5 214.99 Q1734.37 217.004 1734.04 220.661 L1749.23 220.638 Z" fill="#000000" fill-rule="nonzero" fill-opacity="1"></path><path clip-path="url(#clip810)" d="M1779.14 210.985 L1779.14 214.967 Q1777.33 213.971 1775.5 213.485 Q1773.7 212.976 1771.85 212.976 Q1767.7 212.976 1765.41 215.615 Q1763.12 218.231 1763.12 222.976 Q1763.12 227.721 1765.41 230.36 Q1767.7 232.976 1771.85 232.976 Q1773.7 232.976 1775.5 232.49 Q1777.33 231.981 1779.14 230.985 L1779.14 234.92 Q1777.35 235.754 1775.43 236.17 Q1773.54 236.587 1771.38 236.587 Q1765.53 236.587 1762.08 232.906 Q1758.63 229.226 1758.63 222.976 Q1758.63 216.633 1762.1 212.999 Q1765.6 209.365 1771.66 209.365 Q1773.63 209.365 1775.5 209.782 Q1777.38 210.175 1779.14 210.985 Z" fill="#000000" fill-rule="nonzero" fill-opacity="1"></path><path clip-path="url(#clip810)" d="M1790.76 202.629 L1790.76 209.99 L1799.53 209.99 L1799.53 213.3 L1790.76 213.3 L1790.76 227.374 Q1790.76 230.545 1791.61 231.448 Q1792.49 232.351 1795.16 232.351 L1799.53 232.351 L1799.53 235.916 L1795.16 235.916 Q1790.23 235.916 1788.35 234.087 Q1786.48 232.235 1786.48 227.374 L1786.48 213.3 L1783.35 213.3 L1783.35 209.99 L1786.48 209.99 L1786.48 202.629 L1790.76 202.629 Z" fill="#000000" fill-rule="nonzero" fill-opacity="1"></path><path clip-path="url(#clip810)" d="M1815.18 212.976 Q1811.75 212.976 1809.76 215.661 Q1807.77 218.323 1807.77 222.976 Q1807.77 227.629 1809.74 230.314 Q1811.73 232.976 1815.18 232.976 Q1818.58 232.976 1820.57 230.291 Q1822.56 227.606 1822.56 222.976 Q1822.56 218.37 1820.57 215.684 Q1818.58 212.976 1815.18 212.976 M1815.18 209.365 Q1820.73 209.365 1823.91 212.976 Q1827.08 216.587 1827.08 222.976 Q1827.08 229.342 1823.91 232.976 Q1820.73 236.587 1815.18 236.587 Q1809.6 236.587 1806.43 232.976 Q1803.28 229.342 1803.28 222.976 Q1803.28 216.587 1806.43 212.976 Q1809.6 209.365 1815.18 209.365 Z" fill="#000000" fill-rule="nonzero" fill-opacity="1"></path><path clip-path="url(#clip810)" d="M1849.16 213.971 Q1848.44 213.555 1847.59 213.37 Q1846.75 213.161 1845.73 213.161 Q1842.12 213.161 1840.18 215.522 Q1838.26 217.86 1838.26 222.258 L1838.26 235.916 L1833.97 235.916 L1833.97 209.99 L1838.26 209.99 L1838.26 214.018 Q1839.6 211.657 1841.75 210.522 Q1843.91 209.365 1846.98 209.365 Q1847.42 209.365 1847.96 209.434 Q1848.49 209.481 1849.14 209.596 L1849.16 213.971 Z" fill="#000000" fill-rule="nonzero" fill-opacity="1"></path><path clip-path="url(#clip810)" d="M1864.41 238.323 Q1862.61 242.953 1860.9 244.365 Q1859.18 245.777 1856.31 245.777 L1852.91 245.777 L1852.91 242.212 L1855.41 242.212 Q1857.17 242.212 1858.14 241.379 Q1859.11 240.545 1860.29 237.443 L1861.06 235.499 L1850.57 209.99 L1855.09 209.99 L1863.19 230.268 L1871.29 209.99 L1875.8 209.99 L1864.41 238.323 Z" fill="#000000" fill-rule="nonzero" fill-opacity="1"></path><polyline clip-path="url(#clip810)" style="stroke:#e26f46; stroke-linecap:round; stroke-linejoin:round; stroke-width:4; stroke-opacity:1; fill:none" points="1366.71,270.476 1511.87,270.476 "></polyline>
<path clip-path="url(#clip810)" d="M1563.93 255.858 L1563.93 260.788 Q1561.57 258.589 1558.88 257.501 Q1556.22 256.413 1553.21 256.413 Q1547.29 256.413 1544.14 260.048 Q1540.99 263.659 1540.99 270.51 Q1540.99 277.339 1544.14 280.973 Q1547.29 284.584 1553.21 284.584 Q1556.22 284.584 1558.88 283.496 Q1561.57 282.409 1563.93 280.209 L1563.93 285.094 Q1561.48 286.76 1558.72 287.594 Q1555.99 288.427 1552.93 288.427 Q1545.09 288.427 1540.57 283.635 Q1536.06 278.821 1536.06 270.51 Q1536.06 262.177 1540.57 257.386 Q1545.09 252.571 1552.93 252.571 Q1556.04 252.571 1558.77 253.404 Q1561.52 254.214 1563.93 255.858 Z" fill="#000000" fill-rule="nonzero" fill-opacity="1"></path><path clip-path="url(#clip810)" d="M1580.06 287.756 L1566.87 253.196 L1571.75 253.196 L1582.7 282.293 L1593.68 253.196 L1598.54 253.196 L1585.37 287.756 L1580.06 287.756 Z" fill="#000000" fill-rule="nonzero" fill-opacity="1"></path><path clip-path="url(#clip810)" d="M1601.92 253.196 L1606.94 253.196 L1615.53 266.043 L1624.16 253.196 L1629.18 253.196 L1618.07 269.793 L1629.93 287.756 L1624.9 287.756 L1615.18 273.057 L1605.39 287.756 L1600.34 287.756 L1612.68 269.307 L1601.92 253.196 Z" fill="#000000" fill-rule="nonzero" fill-opacity="1"></path><path clip-path="url(#clip810)" d="M1646.34 253.196 L1675.57 253.196 L1675.57 257.131 L1663.3 257.131 L1663.3 287.756 L1658.61 287.756 L1658.61 257.131 L1646.34 257.131 L1646.34 253.196 Z" fill="#000000" fill-rule="nonzero" fill-opacity="1"></path><path clip-path="url(#clip810)" d="M1687.96 265.811 Q1687.24 265.395 1686.38 265.21 Q1685.55 265.001 1684.53 265.001 Q1680.92 265.001 1678.98 267.362 Q1677.05 269.7 1677.05 274.098 L1677.05 287.756 L1672.77 287.756 L1672.77 261.83 L1677.05 261.83 L1677.05 265.858 Q1678.4 263.497 1680.55 262.362 Q1682.7 261.205 1685.78 261.205 Q1686.22 261.205 1686.75 261.274 Q1687.29 261.321 1687.93 261.436 L1687.96 265.811 Z" fill="#000000" fill-rule="nonzero" fill-opacity="1"></path><path clip-path="url(#clip810)" d="M1704.21 274.723 Q1699.05 274.723 1697.05 275.904 Q1695.06 277.084 1695.06 279.932 Q1695.06 282.2 1696.55 283.543 Q1698.05 284.862 1700.62 284.862 Q1704.16 284.862 1706.29 282.362 Q1708.44 279.839 1708.44 275.672 L1708.44 274.723 L1704.21 274.723 M1712.7 272.964 L1712.7 287.756 L1708.44 287.756 L1708.44 283.821 Q1706.98 286.182 1704.81 287.316 Q1702.63 288.427 1699.48 288.427 Q1695.5 288.427 1693.14 286.205 Q1690.8 283.959 1690.8 280.209 Q1690.8 275.834 1693.72 273.612 Q1696.66 271.39 1702.47 271.39 L1708.44 271.39 L1708.44 270.973 Q1708.44 268.034 1706.5 266.436 Q1704.58 264.816 1701.08 264.816 Q1698.86 264.816 1696.75 265.348 Q1694.65 265.881 1692.7 266.946 L1692.7 263.01 Q1695.04 262.108 1697.24 261.668 Q1699.44 261.205 1701.52 261.205 Q1707.15 261.205 1709.92 264.122 Q1712.7 267.038 1712.7 272.964 Z" fill="#000000" fill-rule="nonzero" fill-opacity="1"></path><path clip-path="url(#clip810)" d="M1721.48 261.83 L1725.73 261.83 L1725.73 288.219 Q1725.73 293.172 1723.84 295.395 Q1721.96 297.617 1717.77 297.617 L1716.15 297.617 L1716.15 294.006 L1717.29 294.006 Q1719.72 294.006 1720.6 292.871 Q1721.48 291.76 1721.48 288.219 L1721.48 261.83 M1721.48 251.737 L1725.73 251.737 L1725.73 257.131 L1721.48 257.131 L1721.48 251.737 Z" fill="#000000" fill-rule="nonzero" fill-opacity="1"></path><path clip-path="url(#clip810)" d="M1756.82 273.728 L1756.82 275.811 L1737.24 275.811 Q1737.52 280.209 1739.88 282.524 Q1742.26 284.816 1746.5 284.816 Q1748.95 284.816 1751.24 284.214 Q1753.56 283.612 1755.83 282.409 L1755.83 286.436 Q1753.54 287.408 1751.13 287.918 Q1748.72 288.427 1746.24 288.427 Q1740.04 288.427 1736.41 284.816 Q1732.79 281.205 1732.79 275.047 Q1732.79 268.682 1736.22 264.955 Q1739.67 261.205 1745.5 261.205 Q1750.73 261.205 1753.77 264.585 Q1756.82 267.941 1756.82 273.728 M1752.56 272.478 Q1752.52 268.983 1750.6 266.899 Q1748.7 264.816 1745.55 264.816 Q1741.98 264.816 1739.83 266.83 Q1737.7 268.844 1737.38 272.501 L1752.56 272.478 Z" fill="#000000" fill-rule="nonzero" fill-opacity="1"></path><path clip-path="url(#clip810)" d="M1782.47 262.825 L1782.47 266.807 Q1780.67 265.811 1778.84 265.325 Q1777.03 264.816 1775.18 264.816 Q1771.04 264.816 1768.74 267.455 Q1766.45 270.071 1766.45 274.816 Q1766.45 279.561 1768.74 282.2 Q1771.04 284.816 1775.18 284.816 Q1777.03 284.816 1778.84 284.33 Q1780.67 283.821 1782.47 282.825 L1782.47 286.76 Q1780.69 287.594 1778.77 288.01 Q1776.87 288.427 1774.72 288.427 Q1768.86 288.427 1765.41 284.746 Q1761.96 281.066 1761.96 274.816 Q1761.96 268.473 1765.43 264.839 Q1768.93 261.205 1774.99 261.205 Q1776.96 261.205 1778.84 261.622 Q1780.71 262.015 1782.47 262.825 Z" fill="#000000" fill-rule="nonzero" fill-opacity="1"></path><path clip-path="url(#clip810)" d="M1794.09 254.469 L1794.09 261.83 L1802.86 261.83 L1802.86 265.14 L1794.09 265.14 L1794.09 279.214 Q1794.09 282.385 1794.95 283.288 Q1795.83 284.191 1798.49 284.191 L1802.86 284.191 L1802.86 287.756 L1798.49 287.756 Q1793.56 287.756 1791.68 285.927 Q1789.81 284.075 1789.81 279.214 L1789.81 265.14 L1786.68 265.14 L1786.68 261.83 L1789.81 261.83 L1789.81 254.469 L1794.09 254.469 Z" fill="#000000" fill-rule="nonzero" fill-opacity="1"></path><path clip-path="url(#clip810)" d="M1818.51 264.816 Q1815.09 264.816 1813.1 267.501 Q1811.1 270.163 1811.1 274.816 Q1811.1 279.469 1813.07 282.154 Q1815.06 284.816 1818.51 284.816 Q1821.91 284.816 1823.91 282.131 Q1825.9 279.446 1825.9 274.816 Q1825.9 270.21 1823.91 267.524 Q1821.91 264.816 1818.51 264.816 M1818.51 261.205 Q1824.07 261.205 1827.24 264.816 Q1830.41 268.427 1830.41 274.816 Q1830.41 281.182 1827.24 284.816 Q1824.07 288.427 1818.51 288.427 Q1812.93 288.427 1809.76 284.816 Q1806.61 281.182 1806.61 274.816 Q1806.61 268.427 1809.76 264.816 Q1812.93 261.205 1818.51 261.205 Z" fill="#000000" fill-rule="nonzero" fill-opacity="1"></path><path clip-path="url(#clip810)" d="M1852.49 265.811 Q1851.78 265.395 1850.92 265.21 Q1850.09 265.001 1849.07 265.001 Q1845.46 265.001 1843.51 267.362 Q1841.59 269.7 1841.59 274.098 L1841.59 287.756 L1837.31 287.756 L1837.31 261.83 L1841.59 261.83 L1841.59 265.858 Q1842.93 263.497 1845.09 262.362 Q1847.24 261.205 1850.32 261.205 Q1850.76 261.205 1851.29 261.274 Q1851.82 261.321 1852.47 261.436 L1852.49 265.811 Z" fill="#000000" fill-rule="nonzero" fill-opacity="1"></path><path clip-path="url(#clip810)" d="M1867.75 290.163 Q1865.94 294.793 1864.23 296.205 Q1862.52 297.617 1859.65 297.617 L1856.24 297.617 L1856.24 294.052 L1858.74 294.052 Q1860.5 294.052 1861.47 293.219 Q1862.45 292.385 1863.63 289.283 L1864.39 287.339 L1853.91 261.83 L1858.42 261.83 L1866.52 282.108 L1874.62 261.83 L1879.14 261.83 L1867.75 290.163 Z" fill="#000000" fill-rule="nonzero" fill-opacity="1"></path><path clip-path="url(#clip810)" d="M1910.32 251.784 Q1907.22 257.108 1905.71 262.316 Q1904.21 267.524 1904.21 272.872 Q1904.21 278.219 1905.71 283.473 Q1907.24 288.705 1910.32 294.006 L1906.61 294.006 Q1903.14 288.566 1901.41 283.311 Q1899.69 278.057 1899.69 272.872 Q1899.69 267.71 1901.41 262.478 Q1903.12 257.247 1906.61 251.784 L1910.32 251.784 Z" fill="#000000" fill-rule="nonzero" fill-opacity="1"></path><path clip-path="url(#clip810)" d="M1940.13 272.108 L1940.13 287.756 L1935.87 287.756 L1935.87 272.247 Q1935.87 268.566 1934.44 266.737 Q1933 264.909 1930.13 264.909 Q1926.68 264.909 1924.69 267.108 Q1922.7 269.307 1922.7 273.103 L1922.7 287.756 L1918.42 287.756 L1918.42 261.83 L1922.7 261.83 L1922.7 265.858 Q1924.23 263.52 1926.29 262.362 Q1928.37 261.205 1931.08 261.205 Q1935.55 261.205 1937.84 263.983 Q1940.13 266.737 1940.13 272.108 Z" fill="#000000" fill-rule="nonzero" fill-opacity="1"></path><path clip-path="url(#clip810)" d="M1958.67 264.816 Q1955.25 264.816 1953.26 267.501 Q1951.27 270.163 1951.27 274.816 Q1951.27 279.469 1953.23 282.154 Q1955.22 284.816 1958.67 284.816 Q1962.08 284.816 1964.07 282.131 Q1966.06 279.446 1966.06 274.816 Q1966.06 270.21 1964.07 267.524 Q1962.08 264.816 1958.67 264.816 M1958.67 261.205 Q1964.23 261.205 1967.4 264.816 Q1970.57 268.427 1970.57 274.816 Q1970.57 281.182 1967.4 284.816 Q1964.23 288.427 1958.67 288.427 Q1953.09 288.427 1949.92 284.816 Q1946.78 281.182 1946.78 274.816 Q1946.78 268.427 1949.92 264.816 Q1953.09 261.205 1958.67 261.205 Z" fill="#000000" fill-rule="nonzero" fill-opacity="1"></path><path clip-path="url(#clip810)" d="M2007.72 265.811 Q2007.01 265.395 2006.15 265.21 Q2005.32 265.001 2004.3 265.001 Q2000.69 265.001 1998.74 267.362 Q1996.82 269.7 1996.82 274.098 L1996.82 287.756 L1992.54 287.756 L1992.54 261.83 L1996.82 261.83 L1996.82 265.858 Q1998.16 263.497 2000.32 262.362 Q2002.47 261.205 2005.55 261.205 Q2005.99 261.205 2006.52 261.274 Q2007.05 261.321 2007.7 261.436 L2007.72 265.811 Z" fill="#000000" fill-rule="nonzero" fill-opacity="1"></path><path clip-path="url(#clip810)" d="M2033.33 273.728 L2033.33 275.811 L2013.74 275.811 Q2014.02 280.209 2016.38 282.524 Q2018.77 284.816 2023 284.816 Q2025.46 284.816 2027.75 284.214 Q2030.06 283.612 2032.33 282.409 L2032.33 286.436 Q2030.04 287.408 2027.63 287.918 Q2025.22 288.427 2022.75 288.427 Q2016.54 288.427 2012.91 284.816 Q2009.3 281.205 2009.3 275.047 Q2009.3 268.682 2012.72 264.955 Q2016.17 261.205 2022.01 261.205 Q2027.24 261.205 2030.27 264.585 Q2033.33 267.941 2033.33 273.728 M2029.07 272.478 Q2029.02 268.983 2027.1 266.899 Q2025.2 264.816 2022.05 264.816 Q2018.49 264.816 2016.34 266.83 Q2014.21 268.844 2013.88 272.501 L2029.07 272.478 Z" fill="#000000" fill-rule="nonzero" fill-opacity="1"></path><path clip-path="url(#clip810)" d="M2044.44 283.867 L2044.44 297.617 L2040.15 297.617 L2040.15 261.83 L2044.44 261.83 L2044.44 265.765 Q2045.78 263.45 2047.82 262.339 Q2049.88 261.205 2052.72 261.205 Q2057.45 261.205 2060.39 264.955 Q2063.35 268.705 2063.35 274.816 Q2063.35 280.927 2060.39 284.677 Q2057.45 288.427 2052.72 288.427 Q2049.88 288.427 2047.82 287.316 Q2045.78 286.182 2044.44 283.867 M2058.93 274.816 Q2058.93 270.117 2056.98 267.455 Q2055.06 264.77 2051.68 264.77 Q2048.3 264.77 2046.36 267.455 Q2044.44 270.117 2044.44 274.816 Q2044.44 279.515 2046.36 282.2 Q2048.3 284.862 2051.68 284.862 Q2055.06 284.862 2056.98 282.2 Q2058.93 279.515 2058.93 274.816 Z" fill="#000000" fill-rule="nonzero" fill-opacity="1"></path><path clip-path="url(#clip810)" d="M2070.41 251.737 L2074.67 251.737 L2074.67 287.756 L2070.41 287.756 L2070.41 251.737 Z" fill="#000000" fill-rule="nonzero" fill-opacity="1"></path><path clip-path="url(#clip810)" d="M2095.36 274.723 Q2090.2 274.723 2088.21 275.904 Q2086.22 277.084 2086.22 279.932 Q2086.22 282.2 2087.7 283.543 Q2089.21 284.862 2091.77 284.862 Q2095.32 284.862 2097.45 282.362 Q2099.6 279.839 2099.6 275.672 L2099.6 274.723 L2095.36 274.723 M2103.86 272.964 L2103.86 287.756 L2099.6 287.756 L2099.6 283.821 Q2098.14 286.182 2095.96 287.316 Q2093.79 288.427 2090.64 288.427 Q2086.66 288.427 2084.3 286.205 Q2081.96 283.959 2081.96 280.209 Q2081.96 275.834 2084.88 273.612 Q2087.82 271.39 2093.63 271.39 L2099.6 271.39 L2099.6 270.973 Q2099.6 268.034 2097.65 266.436 Q2095.73 264.816 2092.24 264.816 Q2090.02 264.816 2087.91 265.348 Q2085.8 265.881 2083.86 266.946 L2083.86 263.01 Q2086.2 262.108 2088.39 261.668 Q2090.59 261.205 2092.68 261.205 Q2098.3 261.205 2101.08 264.122 Q2103.86 267.038 2103.86 272.964 Z" fill="#000000" fill-rule="nonzero" fill-opacity="1"></path><path clip-path="url(#clip810)" d="M2134.18 272.108 L2134.18 287.756 L2129.92 287.756 L2129.92 272.247 Q2129.92 268.566 2128.49 266.737 Q2127.05 264.909 2124.18 264.909 Q2120.73 264.909 2118.74 267.108 Q2116.75 269.307 2116.75 273.103 L2116.75 287.756 L2112.47 287.756 L2112.47 261.83 L2116.75 261.83 L2116.75 265.858 Q2118.28 263.52 2120.34 262.362 Q2122.42 261.205 2125.13 261.205 Q2129.6 261.205 2131.89 263.983 Q2134.18 266.737 2134.18 272.108 Z" fill="#000000" fill-rule="nonzero" fill-opacity="1"></path><path clip-path="url(#clip810)" d="M2164.23 272.108 L2164.23 287.756 L2159.97 287.756 L2159.97 272.247 Q2159.97 268.566 2158.53 266.737 Q2157.1 264.909 2154.23 264.909 Q2150.78 264.909 2148.79 267.108 Q2146.8 269.307 2146.8 273.103 L2146.8 287.756 L2142.51 287.756 L2142.51 261.83 L2146.8 261.83 L2146.8 265.858 Q2148.33 263.52 2150.39 262.362 Q2152.47 261.205 2155.18 261.205 Q2159.64 261.205 2161.94 263.983 Q2164.23 266.737 2164.23 272.108 Z" fill="#000000" fill-rule="nonzero" fill-opacity="1"></path><path clip-path="url(#clip810)" d="M2172.72 261.83 L2176.98 261.83 L2176.98 287.756 L2172.72 287.756 L2172.72 261.83 M2172.72 251.737 L2176.98 251.737 L2176.98 257.131 L2172.72 257.131 L2172.72 251.737 Z" fill="#000000" fill-rule="nonzero" fill-opacity="1"></path><path clip-path="url(#clip810)" d="M2207.45 272.108 L2207.45 287.756 L2203.19 287.756 L2203.19 272.247 Q2203.19 268.566 2201.75 266.737 Q2200.32 264.909 2197.45 264.909 Q2194 264.909 2192.01 267.108 Q2190.01 269.307 2190.01 273.103 L2190.01 287.756 L2185.73 287.756 L2185.73 261.83 L2190.01 261.83 L2190.01 265.858 Q2191.54 263.52 2193.6 262.362 Q2195.69 261.205 2198.39 261.205 Q2202.86 261.205 2205.15 263.983 Q2207.45 266.737 2207.45 272.108 Z" fill="#000000" fill-rule="nonzero" fill-opacity="1"></path><path clip-path="url(#clip810)" d="M2233 274.492 Q2233 269.862 2231.08 267.316 Q2229.18 264.77 2225.73 264.77 Q2222.31 264.77 2220.38 267.316 Q2218.49 269.862 2218.49 274.492 Q2218.49 279.098 2220.38 281.645 Q2222.31 284.191 2225.73 284.191 Q2229.18 284.191 2231.08 281.645 Q2233 279.098 2233 274.492 M2237.26 284.538 Q2237.26 291.158 2234.32 294.376 Q2231.38 297.617 2225.32 297.617 Q2223.07 297.617 2221.08 297.27 Q2219.09 296.945 2217.21 296.251 L2217.21 292.108 Q2219.09 293.126 2220.92 293.612 Q2222.75 294.098 2224.64 294.098 Q2228.83 294.098 2230.92 291.899 Q2233 289.723 2233 285.302 L2233 283.196 Q2231.68 285.487 2229.62 286.621 Q2227.56 287.756 2224.69 287.756 Q2219.92 287.756 2217.01 284.121 Q2214.09 280.487 2214.09 274.492 Q2214.09 268.473 2217.01 264.839 Q2219.92 261.205 2224.69 261.205 Q2227.56 261.205 2229.62 262.339 Q2231.68 263.473 2233 265.765 L2233 261.83 L2237.26 261.83 L2237.26 284.538 Z" fill="#000000" fill-rule="nonzero" fill-opacity="1"></path><path clip-path="url(#clip810)" d="M2245.36 251.784 L2249.07 251.784 Q2252.54 257.247 2254.25 262.478 Q2255.99 267.71 2255.99 272.872 Q2255.99 278.057 2254.25 283.311 Q2252.54 288.566 2249.07 294.006 L2245.36 294.006 Q2248.44 288.705 2249.94 283.473 Q2251.47 278.219 2251.47 272.872 Q2251.47 267.524 2249.94 262.316 Q2248.44 257.108 2245.36 251.784 Z" fill="#000000" fill-rule="nonzero" fill-opacity="1"></path></svg>