<svg xmlns="http://www.w3.org/2000/svg" xmlns:xlink="http://www.w3.org/1999/xlink" width="600" height="400" viewBox="0 0 2400 1600">
<defs>
  <clipPath id="clip850">
    <rect x="0" y="0" width="2400" height="1600"></rect>
  </clipPath>
</defs>
<path clip-path="url(#clip850)" d="M0 1600 L2400 1600 L2400 0 L0 0  Z" fill="#ffffff" fill-rule="evenodd" fill-opacity="1"></path>
<defs>
  <clipPath id="clip851">
    <rect x="480" y="0" width="1681" height="1600"></rect>
  </clipPath>
</defs>
<path clip-path="url(#clip850)" d="M210.376 1423.18 L2352.76 1423.18 L2352.76 123.472 L210.376 123.472  Z" fill="#ffffff" fill-rule="evenodd" fill-opacity="1"></path>
<defs>
  <clipPath id="clip852">
    <rect x="210" y="123" width="2143" height="1301"></rect>
  </clipPath>
</defs>
<polyline clip-path="url(#clip852)" style="stroke:#000000; stroke-linecap:round; stroke-linejoin:round; stroke-width:2; stroke-opacity:0.1; fill:none" points="627.241,1423.18 627.241,123.472 "></polyline>
<polyline clip-path="url(#clip852)" style="stroke:#000000; stroke-linecap:round; stroke-linejoin:round; stroke-width:2; stroke-opacity:0.1; fill:none" points="1090.54,1423.18 1090.54,123.472 "></polyline>
<polyline clip-path="url(#clip852)" style="stroke:#000000; stroke-linecap:round; stroke-linejoin:round; stroke-width:2; stroke-opacity:0.1; fill:none" points="1553.84,1423.18 1553.84,123.472 "></polyline>
<polyline clip-path="url(#clip852)" style="stroke:#000000; stroke-linecap:round; stroke-linejoin:round; stroke-width:2; stroke-opacity:0.1; fill:none" points="2017.14,1423.18 2017.14,123.472 "></polyline>
<polyline clip-path="url(#clip852)" style="stroke:#000000; stroke-linecap:round; stroke-linejoin:round; stroke-width:2; stroke-opacity:0.1; fill:none" points="210.376,1206.63 2352.76,1206.63 "></polyline>
<polyline clip-path="url(#clip852)" style="stroke:#000000; stroke-linecap:round; stroke-linejoin:round; stroke-width:2; stroke-opacity:0.1; fill:none" points="210.376,974.105 2352.76,974.105 "></polyline>
<polyline clip-path="url(#clip852)" style="stroke:#000000; stroke-linecap:round; stroke-linejoin:round; stroke-width:2; stroke-opacity:0.1; fill:none" points="210.376,741.577 2352.76,741.577 "></polyline>
<polyline clip-path="url(#clip852)" style="stroke:#000000; stroke-linecap:round; stroke-linejoin:round; stroke-width:2; stroke-opacity:0.1; fill:none" points="210.376,509.049 2352.76,509.049 "></polyline>
<polyline clip-path="url(#clip852)" style="stroke:#000000; stroke-linecap:round; stroke-linejoin:round; stroke-width:2; stroke-opacity:0.1; fill:none" points="210.376,276.52 2352.76,276.52 "></polyline>
<polyline clip-path="url(#clip850)" style="stroke:#000000; stroke-linecap:round; stroke-linejoin:round; stroke-width:4; stroke-opacity:1; fill:none" points="210.376,1423.18 2352.76,1423.18 "></polyline>
<polyline clip-path="url(#clip850)" style="stroke:#000000; stroke-linecap:round; stroke-linejoin:round; stroke-width:4; stroke-opacity:1; fill:none" points="627.241,1423.18 627.241,1404.28 "></polyline>
<polyline clip-path="url(#clip850)" style="stroke:#000000; stroke-linecap:round; stroke-linejoin:round; stroke-width:4; stroke-opacity:1; fill:none" points="1090.54,1423.18 1090.54,1404.28 "></polyline>
<polyline clip-path="url(#clip850)" style="stroke:#000000; stroke-linecap:round; stroke-linejoin:round; stroke-width:4; stroke-opacity:1; fill:none" points="1553.84,1423.18 1553.84,1404.28 "></polyline>
<polyline clip-path="url(#clip850)" style="stroke:#000000; stroke-linecap:round; stroke-linejoin:round; stroke-width:4; stroke-opacity:1; fill:none" points="2017.14,1423.18 2017.14,1404.28 "></polyline>
<path clip-path="url(#clip850)" d="M597.184 1468.75 L626.859 1468.75 L626.859 1472.69 L597.184 1472.69 L597.184 1468.75 Z" fill="#000000" fill-rule="nonzero" fill-opacity="1"></path><path clip-path="url(#clip850)" d="M640.98 1481.64 L657.299 1481.64 L657.299 1485.58 L635.355 1485.58 L635.355 1481.64 Q638.017 1478.89 642.6 1474.26 Q647.207 1469.61 648.387 1468.27 Q650.632 1465.74 651.512 1464.01 Q652.415 1462.25 652.415 1460.56 Q652.415 1457.8 650.47 1456.07 Q648.549 1454.33 645.447 1454.33 Q643.248 1454.33 640.795 1455.09 Q638.364 1455.86 635.586 1457.41 L635.586 1452.69 Q638.41 1451.55 640.864 1450.97 Q643.318 1450.39 645.355 1450.39 Q650.725 1450.39 653.919 1453.08 Q657.114 1455.77 657.114 1460.26 Q657.114 1462.39 656.304 1464.31 Q655.517 1466.2 653.41 1468.8 Q652.832 1469.47 649.73 1472.69 Q646.628 1475.88 640.98 1481.64 Z" fill="#000000" fill-rule="nonzero" fill-opacity="1"></path><path clip-path="url(#clip850)" d="M1090.54 1454.1 Q1086.93 1454.1 1085.1 1457.66 Q1083.3 1461.2 1083.3 1468.33 Q1083.3 1475.44 1085.1 1479.01 Q1086.93 1482.55 1090.54 1482.55 Q1094.18 1482.55 1095.98 1479.01 Q1097.81 1475.44 1097.81 1468.33 Q1097.81 1461.2 1095.98 1457.66 Q1094.18 1454.1 1090.54 1454.1 M1090.54 1450.39 Q1096.35 1450.39 1099.41 1455 Q1102.49 1459.58 1102.49 1468.33 Q1102.49 1477.06 1099.41 1481.67 Q1096.35 1486.25 1090.54 1486.25 Q1084.73 1486.25 1081.65 1481.67 Q1078.6 1477.06 1078.6 1468.33 Q1078.6 1459.58 1081.65 1455 Q1084.73 1450.39 1090.54 1450.39 Z" fill="#000000" fill-rule="nonzero" fill-opacity="1"></path><path clip-path="url(#clip850)" d="M1548.49 1481.64 L1564.81 1481.64 L1564.81 1485.58 L1542.87 1485.58 L1542.87 1481.64 Q1545.53 1478.89 1550.11 1474.26 Q1554.72 1469.61 1555.9 1468.27 Q1558.15 1465.74 1559.03 1464.01 Q1559.93 1462.25 1559.93 1460.56 Q1559.93 1457.8 1557.98 1456.07 Q1556.06 1454.33 1552.96 1454.33 Q1550.76 1454.33 1548.31 1455.09 Q1545.88 1455.86 1543.1 1457.41 L1543.1 1452.69 Q1545.92 1451.55 1548.38 1450.97 Q1550.83 1450.39 1552.87 1450.39 Q1558.24 1450.39 1561.43 1453.08 Q1564.63 1455.77 1564.63 1460.26 Q1564.63 1462.39 1563.82 1464.31 Q1563.03 1466.2 1560.92 1468.8 Q1560.35 1469.47 1557.24 1472.69 Q1554.14 1475.88 1548.49 1481.64 Z" fill="#000000" fill-rule="nonzero" fill-opacity="1"></path><path clip-path="url(#clip850)" d="M2020.15 1455.09 L2008.34 1473.54 L2020.15 1473.54 L2020.15 1455.09 M2018.92 1451.02 L2024.8 1451.02 L2024.8 1473.54 L2029.73 1473.54 L2029.73 1477.43 L2024.8 1477.43 L2024.8 1485.58 L2020.15 1485.58 L2020.15 1477.43 L2004.55 1477.43 L2004.55 1472.92 L2018.92 1451.02 Z" fill="#000000" fill-rule="nonzero" fill-opacity="1"></path><path clip-path="url(#clip850)" d="M1285.83 1532.4 L1272.94 1549.74 L1286.5 1568.04 L1279.59 1568.04 L1269.22 1554.04 L1258.84 1568.04 L1251.93 1568.04 L1265.78 1549.39 L1253.11 1532.4 L1260.02 1532.4 L1269.47 1545.1 L1278.92 1532.4 L1285.83 1532.4 Z" fill="#000000" fill-rule="nonzero" fill-opacity="1"></path><path clip-path="url(#clip850)" d="M1293.6 1564.54 L1300.09 1564.54 L1300.09 1545.1 L1292.99 1546.4 L1292.99 1542.71 L1300.31 1541.47 L1304.67 1541.47 L1304.67 1564.54 L1311.2 1564.54 L1311.2 1568.04 L1293.6 1568.04 L1293.6 1564.54 Z" fill="#000000" fill-rule="nonzero" fill-opacity="1"></path><polyline clip-path="url(#clip850)" style="stroke:#000000; stroke-linecap:round; stroke-linejoin:round; stroke-width:4; stroke-opacity:1; fill:none" points="210.376,1423.18 210.376,123.472 "></polyline>
<polyline clip-path="url(#clip850)" style="stroke:#000000; stroke-linecap:round; stroke-linejoin:round; stroke-width:4; stroke-opacity:1; fill:none" points="210.376,1206.63 229.273,1206.63 "></polyline>
<polyline clip-path="url(#clip850)" style="stroke:#000000; stroke-linecap:round; stroke-linejoin:round; stroke-width:4; stroke-opacity:1; fill:none" points="210.376,974.105 229.273,974.105 "></polyline>
<polyline clip-path="url(#clip850)" style="stroke:#000000; stroke-linecap:round; stroke-linejoin:round; stroke-width:4; stroke-opacity:1; fill:none" points="210.376,741.577 229.273,741.577 "></polyline>
<polyline clip-path="url(#clip850)" style="stroke:#000000; stroke-linecap:round; stroke-linejoin:round; stroke-width:4; stroke-opacity:1; fill:none" points="210.376,509.049 229.273,509.049 "></polyline>
<polyline clip-path="url(#clip850)" style="stroke:#000000; stroke-linecap:round; stroke-linejoin:round; stroke-width:4; stroke-opacity:1; fill:none" points="210.376,276.52 229.273,276.52 "></polyline>
<path clip-path="url(#clip850)" d="M114.26 1207.08 L143.936 1207.08 L143.936 1211.02 L114.26 1211.02 L114.26 1207.08 Z" fill="#000000" fill-rule="nonzero" fill-opacity="1"></path><path clip-path="url(#clip850)" d="M158.056 1219.98 L174.376 1219.98 L174.376 1223.91 L152.431 1223.91 L152.431 1219.98 Q155.093 1217.22 159.677 1212.59 Q164.283 1207.94 165.464 1206.6 Q167.709 1204.08 168.589 1202.34 Q169.491 1200.58 169.491 1198.89 Q169.491 1196.14 167.547 1194.4 Q165.626 1192.66 162.524 1192.66 Q160.325 1192.66 157.871 1193.43 Q155.44 1194.19 152.663 1195.74 L152.663 1191.02 Q155.487 1189.89 157.94 1189.31 Q160.394 1188.73 162.431 1188.73 Q167.802 1188.73 170.996 1191.41 Q174.19 1194.1 174.19 1198.59 Q174.19 1200.72 173.38 1202.64 Q172.593 1204.54 170.487 1207.13 Q169.908 1207.8 166.806 1211.02 Q163.704 1214.21 158.056 1219.98 Z" fill="#000000" fill-rule="nonzero" fill-opacity="1"></path><path clip-path="url(#clip850)" d="M162.431 959.904 Q158.82 959.904 156.991 963.469 Q155.186 967.01 155.186 974.14 Q155.186 981.246 156.991 984.811 Q158.82 988.353 162.431 988.353 Q166.065 988.353 167.871 984.811 Q169.7 981.246 169.7 974.14 Q169.7 967.01 167.871 963.469 Q166.065 959.904 162.431 959.904 M162.431 956.2 Q168.241 956.2 171.297 960.807 Q174.376 965.39 174.376 974.14 Q174.376 982.867 171.297 987.473 Q168.241 992.056 162.431 992.056 Q156.621 992.056 153.542 987.473 Q150.487 982.867 150.487 974.14 Q150.487 965.39 153.542 960.807 Q156.621 956.2 162.431 956.2 Z" fill="#000000" fill-rule="nonzero" fill-opacity="1"></path><path clip-path="url(#clip850)" d="M158.056 754.922 L174.376 754.922 L174.376 758.857 L152.431 758.857 L152.431 754.922 Q155.093 752.167 159.677 747.538 Q164.283 742.885 165.464 741.542 Q167.709 739.019 168.589 737.283 Q169.491 735.524 169.491 733.834 Q169.491 731.079 167.547 729.343 Q165.626 727.607 162.524 727.607 Q160.325 727.607 157.871 728.371 Q155.44 729.135 152.663 730.686 L152.663 725.964 Q155.487 724.829 157.94 724.251 Q160.394 723.672 162.431 723.672 Q167.802 723.672 170.996 726.357 Q174.19 729.042 174.19 733.533 Q174.19 735.663 173.38 737.584 Q172.593 739.482 170.487 742.075 Q169.908 742.746 166.806 745.963 Q163.704 749.158 158.056 754.922 Z" fill="#000000" fill-rule="nonzero" fill-opacity="1"></path><path clip-path="url(#clip850)" d="M164.792 495.843 L152.987 514.292 L164.792 514.292 L164.792 495.843 M163.565 491.769 L169.445 491.769 L169.445 514.292 L174.376 514.292 L174.376 518.181 L169.445 518.181 L169.445 526.329 L164.792 526.329 L164.792 518.181 L149.191 518.181 L149.191 513.667 L163.565 491.769 Z" fill="#000000" fill-rule="nonzero" fill-opacity="1"></path><path clip-path="url(#clip850)" d="M162.848 274.657 Q159.7 274.657 157.848 276.81 Q156.019 278.963 156.019 282.713 Q156.019 286.439 157.848 288.615 Q159.7 290.768 162.848 290.768 Q165.996 290.768 167.825 288.615 Q169.677 286.439 169.677 282.713 Q169.677 278.963 167.825 276.81 Q165.996 274.657 162.848 274.657 M172.13 260.004 L172.13 264.264 Q170.371 263.43 168.565 262.99 Q166.783 262.551 165.024 262.551 Q160.394 262.551 157.94 265.676 Q155.51 268.801 155.163 275.12 Q156.528 273.106 158.589 272.041 Q160.649 270.953 163.126 270.953 Q168.334 270.953 171.343 274.125 Q174.376 277.273 174.376 282.713 Q174.376 288.037 171.227 291.254 Q168.079 294.472 162.848 294.472 Q156.853 294.472 153.681 289.888 Q150.51 285.282 150.51 276.555 Q150.51 268.361 154.399 263.5 Q158.288 258.615 164.839 258.615 Q166.598 258.615 168.38 258.963 Q170.186 259.31 172.13 260.004 Z" fill="#000000" fill-rule="nonzero" fill-opacity="1"></path><path clip-path="url(#clip850)" d="M28.3562 768.79 L45.7028 781.681 L64.0042 768.122 L64.0042 775.029 L49.9996 785.405 L64.0042 795.781 L64.0042 802.688 L45.3526 788.842 L28.3562 801.51 L28.3562 794.603 L41.0558 785.15 L28.3562 775.697 L28.3562 768.79 Z" fill="#000000" fill-rule="nonzero" fill-opacity="1"></path><path clip-path="url(#clip850)" d="M60.3757 757.459 L60.3757 743.964 L64.0042 743.964 L64.0042 762.998 L60.503 762.998 Q59.5163 761.915 57.7339 759.91 Q48.0262 748.961 45.0344 748.961 Q42.9337 748.961 41.6605 750.616 Q40.3556 752.271 40.3556 754.977 Q40.3556 756.632 40.9285 758.573 Q41.4696 760.515 42.5836 762.807 L38.6686 762.807 Q37.7774 760.356 37.3318 758.255 Q36.8862 756.123 36.8862 754.308 Q36.8862 749.693 38.9869 746.924 Q41.0876 744.155 44.5251 744.155 Q48.9493 744.155 57.9886 754.69 Q59.5163 756.473 60.3757 757.459 Z" fill="#000000" fill-rule="nonzero" fill-opacity="1"></path><path clip-path="url(#clip850)" d="M765.258 12.096 L816.421 12.096 L816.421 18.9825 L794.951 18.9825 L794.951 72.576 L786.728 72.576 L786.728 18.9825 L765.258 18.9825 L765.258 12.096 Z" fill="#000000" fill-rule="nonzero" fill-opacity="1"></path><path clip-path="url(#clip850)" d="M838.093 34.1734 Q836.837 33.4443 835.338 33.1202 Q833.88 32.7556 832.098 32.7556 Q825.778 32.7556 822.375 36.8875 Q819.013 40.9789 819.013 48.6757 L819.013 72.576 L811.519 72.576 L811.519 27.2059 L819.013 27.2059 L819.013 34.2544 Q821.363 30.1225 825.13 28.1376 Q828.897 26.1121 834.285 26.1121 Q835.055 26.1121 835.987 26.2337 Q836.918 26.3147 838.052 26.5172 L838.093 34.1734 Z" fill="#000000" fill-rule="nonzero" fill-opacity="1"></path><path clip-path="url(#clip850)" d="M866.53 49.7694 Q857.497 49.7694 854.013 51.8354 Q850.529 53.9013 850.529 58.8839 Q850.529 62.8538 853.122 65.2034 Q855.755 67.5124 860.251 67.5124 Q866.449 67.5124 870.176 63.1374 Q873.944 58.7219 873.944 51.4303 L873.944 49.7694 L866.53 49.7694 M881.397 46.6907 L881.397 72.576 L873.944 72.576 L873.944 65.6895 Q871.391 69.8214 867.584 71.8063 Q863.776 73.7508 858.267 73.7508 Q851.299 73.7508 847.167 69.8619 Q843.076 65.9325 843.076 59.3701 Q843.076 51.7138 848.18 47.825 Q853.324 43.9361 863.492 43.9361 L873.944 43.9361 L873.944 43.2069 Q873.944 38.0623 870.541 35.2672 Q867.178 32.4315 861.062 32.4315 Q857.173 32.4315 853.486 33.3632 Q849.8 34.295 846.397 36.1584 L846.397 29.2718 Q850.489 27.692 854.337 26.9223 Q858.185 26.1121 861.831 26.1121 Q871.675 26.1121 876.536 31.2163 Q881.397 36.3204 881.397 46.6907 Z" fill="#000000" fill-rule="nonzero" fill-opacity="1"></path><path clip-path="url(#clip850)" d="M896.75 27.2059 L904.204 27.2059 L904.204 73.3862 Q904.204 82.0551 900.882 85.944 Q897.601 89.8329 890.269 89.8329 L887.433 89.8329 L887.433 83.5134 L889.418 83.5134 Q893.671 83.5134 895.211 81.5285 Q896.75 79.5841 896.75 73.3862 L896.75 27.2059 M896.75 9.54393 L904.204 9.54393 L904.204 18.9825 L896.75 18.9825 L896.75 9.54393 Z" fill="#000000" fill-rule="nonzero" fill-opacity="1"></path><path clip-path="url(#clip850)" d="M958.607 48.0275 L958.607 51.6733 L924.337 51.6733 Q924.823 59.3701 928.955 63.421 Q933.127 67.4314 940.54 67.4314 Q944.834 67.4314 948.845 66.3781 Q952.896 65.3249 956.866 63.2184 L956.866 70.267 Q952.855 71.9684 948.642 72.8596 Q944.429 73.7508 940.095 73.7508 Q929.238 73.7508 922.878 67.4314 Q916.559 61.1119 916.559 50.3365 Q916.559 39.1965 922.554 32.6746 Q928.59 26.1121 938.798 26.1121 Q947.954 26.1121 953.26 32.0264 Q958.607 37.9003 958.607 48.0275 M951.154 45.84 Q951.073 39.7232 947.71 36.0774 Q944.389 32.4315 938.879 32.4315 Q932.641 32.4315 928.874 35.9558 Q925.147 39.4801 924.58 45.8805 L951.154 45.84 Z" fill="#000000" fill-rule="nonzero" fill-opacity="1"></path><path clip-path="url(#clip850)" d="M1003.49 28.9478 L1003.49 35.9153 Q1000.33 34.1734 997.132 33.3227 Q993.972 32.4315 990.731 32.4315 Q983.48 32.4315 979.47 37.0496 Q975.459 41.6271 975.459 49.9314 Q975.459 58.2358 979.47 62.8538 Q983.48 67.4314 990.731 67.4314 Q993.972 67.4314 997.132 66.5807 Q1000.33 65.6895 1003.49 63.9476 L1003.49 70.8341 Q1000.37 72.2924 997.01 73.0216 Q993.688 73.7508 989.921 73.7508 Q979.672 73.7508 973.636 67.3098 Q967.6 60.8689 967.6 49.9314 Q967.6 38.832 973.677 32.472 Q979.794 26.1121 990.407 26.1121 Q993.85 26.1121 997.132 26.8413 Q1000.41 27.5299 1003.49 28.9478 Z" fill="#000000" fill-rule="nonzero" fill-opacity="1"></path><path clip-path="url(#clip850)" d="M1023.83 14.324 L1023.83 27.2059 L1039.18 27.2059 L1039.18 32.9987 L1023.83 32.9987 L1023.83 57.6282 Q1023.83 63.1779 1025.33 64.7578 Q1026.87 66.3376 1031.52 66.3376 L1039.18 66.3376 L1039.18 72.576 L1031.52 72.576 Q1022.9 72.576 1019.61 69.3758 Q1016.33 66.1351 1016.33 57.6282 L1016.33 32.9987 L1010.86 32.9987 L1010.86 27.2059 L1016.33 27.2059 L1016.33 14.324 L1023.83 14.324 Z" fill="#000000" fill-rule="nonzero" fill-opacity="1"></path><path clip-path="url(#clip850)" d="M1066.56 32.4315 Q1060.57 32.4315 1057.08 37.1306 Q1053.6 41.7891 1053.6 49.9314 Q1053.6 58.0738 1057.04 62.7728 Q1060.53 67.4314 1066.56 67.4314 Q1072.52 67.4314 1076 62.7323 Q1079.49 58.0333 1079.49 49.9314 Q1079.49 41.8701 1076 37.1711 Q1072.52 32.4315 1066.56 32.4315 M1066.56 26.1121 Q1076.29 26.1121 1081.84 32.4315 Q1087.39 38.7509 1087.39 49.9314 Q1087.39 61.0714 1081.84 67.4314 Q1076.29 73.7508 1066.56 73.7508 Q1056.8 73.7508 1051.25 67.4314 Q1045.74 61.0714 1045.74 49.9314 Q1045.74 38.7509 1051.25 32.4315 Q1056.8 26.1121 1066.56 26.1121 Z" fill="#000000" fill-rule="nonzero" fill-opacity="1"></path><path clip-path="url(#clip850)" d="M1126.03 34.1734 Q1124.78 33.4443 1123.28 33.1202 Q1121.82 32.7556 1120.04 32.7556 Q1113.72 32.7556 1110.31 36.8875 Q1106.95 40.9789 1106.95 48.6757 L1106.95 72.576 L1099.46 72.576 L1099.46 27.2059 L1106.95 27.2059 L1106.95 34.2544 Q1109.3 30.1225 1113.07 28.1376 Q1116.84 26.1121 1122.22 26.1121 Q1122.99 26.1121 1123.92 26.2337 Q1124.86 26.3147 1125.99 26.5172 L1126.03 34.1734 Z" fill="#000000" fill-rule="nonzero" fill-opacity="1"></path><path clip-path="url(#clip850)" d="M1152.73 76.7889 Q1149.57 84.8907 1146.57 87.3618 Q1143.57 89.8329 1138.55 89.8329 L1132.59 89.8329 L1132.59 83.5945 L1136.97 83.5945 Q1140.05 83.5945 1141.75 82.1361 Q1143.45 80.6778 1145.52 75.2496 L1146.85 71.8468 L1128.5 27.2059 L1136.4 27.2059 L1150.58 62.6918 L1164.76 27.2059 L1172.66 27.2059 L1152.73 76.7889 Z" fill="#000000" fill-rule="nonzero" fill-opacity="1"></path><path clip-path="url(#clip850)" d="M1209.32 27.2059 L1216.77 27.2059 L1216.77 72.576 L1209.32 72.576 L1209.32 27.2059 M1209.32 9.54393 L1216.77 9.54393 L1216.77 18.9825 L1209.32 18.9825 L1209.32 9.54393 Z" fill="#000000" fill-rule="nonzero" fill-opacity="1"></path><path clip-path="url(#clip850)" d="M1270.08 45.1919 L1270.08 72.576 L1262.63 72.576 L1262.63 45.4349 Q1262.63 38.994 1260.12 35.7938 Q1257.6 32.5936 1252.58 32.5936 Q1246.55 32.5936 1243.06 36.4419 Q1239.58 40.2903 1239.58 46.9338 L1239.58 72.576 L1232.08 72.576 L1232.08 27.2059 L1239.58 27.2059 L1239.58 34.2544 Q1242.25 30.163 1245.86 28.1376 Q1249.5 26.1121 1254.24 26.1121 Q1262.06 26.1121 1266.07 30.9732 Q1270.08 35.7938 1270.08 45.1919 Z" fill="#000000" fill-rule="nonzero" fill-opacity="1"></path><path clip-path="url(#clip850)" d="M1347.9 14.0809 L1347.9 22.0612 Q1343.24 19.8332 1339.11 18.7395 Q1334.98 17.6457 1331.13 17.6457 Q1324.44 17.6457 1320.8 20.2383 Q1317.19 22.8309 1317.19 27.611 Q1317.19 31.6214 1319.58 33.6873 Q1322.01 35.7128 1328.74 36.9686 L1333.68 37.9813 Q1342.84 39.7232 1347.17 44.1387 Q1351.55 48.5136 1351.55 55.8863 Q1351.55 64.6767 1345.63 69.2137 Q1339.76 73.7508 1328.37 73.7508 Q1324.08 73.7508 1319.22 72.7785 Q1314.4 71.8063 1309.21 69.9024 L1309.21 61.4765 Q1314.2 64.2716 1318.98 65.6895 Q1323.76 67.1073 1328.37 67.1073 Q1335.38 67.1073 1339.19 64.3527 Q1343 61.598 1343 56.4939 Q1343 52.0379 1340.24 49.5264 Q1337.53 47.0148 1331.29 45.759 L1326.31 44.7868 Q1317.15 42.9639 1313.06 39.075 Q1308.97 35.1862 1308.97 28.2591 Q1308.97 20.2383 1314.6 15.6203 Q1320.27 11.0023 1330.2 11.0023 Q1334.45 11.0023 1338.87 11.7719 Q1343.28 12.5416 1347.9 14.0809 Z" fill="#000000" fill-rule="nonzero" fill-opacity="1"></path><path clip-path="url(#clip850)" d="M1371.35 14.324 L1371.35 27.2059 L1386.71 27.2059 L1386.71 32.9987 L1371.35 32.9987 L1371.35 57.6282 Q1371.35 63.1779 1372.85 64.7578 Q1374.39 66.3376 1379.05 66.3376 L1386.71 66.3376 L1386.71 72.576 L1379.05 72.576 Q1370.42 72.576 1367.14 69.3758 Q1363.86 66.1351 1363.86 57.6282 L1363.86 32.9987 L1358.39 32.9987 L1358.39 27.2059 L1363.86 27.2059 L1363.86 14.324 L1371.35 14.324 Z" fill="#000000" fill-rule="nonzero" fill-opacity="1"></path><path clip-path="url(#clip850)" d="M1417.13 49.7694 Q1408.1 49.7694 1404.61 51.8354 Q1401.13 53.9013 1401.13 58.8839 Q1401.13 62.8538 1403.72 65.2034 Q1406.35 67.5124 1410.85 67.5124 Q1417.05 67.5124 1420.78 63.1374 Q1424.54 58.7219 1424.54 51.4303 L1424.54 49.7694 L1417.13 49.7694 M1432 46.6907 L1432 72.576 L1424.54 72.576 L1424.54 65.6895 Q1421.99 69.8214 1418.18 71.8063 Q1414.37 73.7508 1408.87 73.7508 Q1401.9 73.7508 1397.77 69.8619 Q1393.67 65.9325 1393.67 59.3701 Q1393.67 51.7138 1398.78 47.825 Q1403.92 43.9361 1414.09 43.9361 L1424.54 43.9361 L1424.54 43.2069 Q1424.54 38.0623 1421.14 35.2672 Q1417.78 32.4315 1411.66 32.4315 Q1407.77 32.4315 1404.09 33.3632 Q1400.4 34.295 1397 36.1584 L1397 29.2718 Q1401.09 27.692 1404.94 26.9223 Q1408.78 26.1121 1412.43 26.1121 Q1422.27 26.1121 1427.13 31.2163 Q1432 36.3204 1432 46.6907 Z" fill="#000000" fill-rule="nonzero" fill-opacity="1"></path><path clip-path="url(#clip850)" d="M1454.72 14.324 L1454.72 27.2059 L1470.07 27.2059 L1470.07 32.9987 L1454.72 32.9987 L1454.72 57.6282 Q1454.72 63.1779 1456.22 64.7578 Q1457.76 66.3376 1462.42 66.3376 L1470.07 66.3376 L1470.07 72.576 L1462.42 72.576 Q1453.79 72.576 1450.51 69.3758 Q1447.23 66.1351 1447.23 57.6282 L1447.23 32.9987 L1441.76 32.9987 L1441.76 27.2059 L1447.23 27.2059 L1447.23 14.324 L1454.72 14.324 Z" fill="#000000" fill-rule="nonzero" fill-opacity="1"></path><path clip-path="url(#clip850)" d="M1518.69 48.0275 L1518.69 51.6733 L1484.41 51.6733 Q1484.9 59.3701 1489.03 63.421 Q1493.21 67.4314 1500.62 67.4314 Q1504.91 67.4314 1508.92 66.3781 Q1512.97 65.3249 1516.94 63.2184 L1516.94 70.267 Q1512.93 71.9684 1508.72 72.8596 Q1504.51 73.7508 1500.17 73.7508 Q1489.32 73.7508 1482.96 67.4314 Q1476.64 61.1119 1476.64 50.3365 Q1476.64 39.1965 1482.63 32.6746 Q1488.67 26.1121 1498.88 26.1121 Q1508.03 26.1121 1513.34 32.0264 Q1518.69 37.9003 1518.69 48.0275 M1511.23 45.84 Q1511.15 39.7232 1507.79 36.0774 Q1504.47 32.4315 1498.96 32.4315 Q1492.72 32.4315 1488.95 35.9558 Q1485.22 39.4801 1484.66 45.8805 L1511.23 45.84 Z" fill="#000000" fill-rule="nonzero" fill-opacity="1"></path><path clip-path="url(#clip850)" d="M1593.87 14.0809 L1593.87 22.0612 Q1589.21 19.8332 1585.08 18.7395 Q1580.95 17.6457 1577.1 17.6457 Q1570.42 17.6457 1566.77 20.2383 Q1563.16 22.8309 1563.16 27.611 Q1563.16 31.6214 1565.55 33.6873 Q1567.98 35.7128 1574.71 36.9686 L1579.65 37.9813 Q1588.81 39.7232 1593.14 44.1387 Q1597.52 48.5136 1597.52 55.8863 Q1597.52 64.6767 1591.6 69.2137 Q1585.73 73.7508 1574.34 73.7508 Q1570.05 73.7508 1565.19 72.7785 Q1560.37 71.8063 1555.18 69.9024 L1555.18 61.4765 Q1560.17 64.2716 1564.95 65.6895 Q1569.73 67.1073 1574.34 67.1073 Q1581.35 67.1073 1585.16 64.3527 Q1588.97 61.598 1588.97 56.4939 Q1588.97 52.0379 1586.21 49.5264 Q1583.5 47.0148 1577.26 45.759 L1572.28 44.7868 Q1563.12 42.9639 1559.03 39.075 Q1554.94 35.1862 1554.94 28.2591 Q1554.94 20.2383 1560.57 15.6203 Q1566.24 11.0023 1576.17 11.0023 Q1580.42 11.0023 1584.84 11.7719 Q1589.25 12.5416 1593.87 14.0809 Z" fill="#000000" fill-rule="nonzero" fill-opacity="1"></path><path clip-path="url(#clip850)" d="M1617.16 65.7705 L1617.16 89.8329 L1609.67 89.8329 L1609.67 27.2059 L1617.16 27.2059 L1617.16 34.0924 Q1619.51 30.0415 1623.08 28.0971 Q1626.68 26.1121 1631.67 26.1121 Q1639.93 26.1121 1645.07 32.6746 Q1650.26 39.2371 1650.26 49.9314 Q1650.26 60.6258 1645.07 67.1883 Q1639.93 73.7508 1631.67 73.7508 Q1626.68 73.7508 1623.08 71.8063 Q1619.51 69.8214 1617.16 65.7705 M1642.52 49.9314 Q1642.52 41.7081 1639.12 37.0496 Q1635.76 32.3505 1629.84 32.3505 Q1623.93 32.3505 1620.53 37.0496 Q1617.16 41.7081 1617.16 49.9314 Q1617.16 58.1548 1620.53 62.8538 Q1623.93 67.5124 1629.84 67.5124 Q1635.76 67.5124 1639.12 62.8538 Q1642.52 58.1548 1642.52 49.9314 Z" fill="#000000" fill-rule="nonzero" fill-opacity="1"></path><path clip-path="url(#clip850)" d="M1683.23 49.7694 Q1674.2 49.7694 1670.72 51.8354 Q1667.23 53.9013 1667.23 58.8839 Q1667.23 62.8538 1669.82 65.2034 Q1672.46 67.5124 1676.95 67.5124 Q1683.15 67.5124 1686.88 63.1374 Q1690.65 58.7219 1690.65 51.4303 L1690.65 49.7694 L1683.23 49.7694 M1698.1 46.6907 L1698.1 72.576 L1690.65 72.576 L1690.65 65.6895 Q1688.09 69.8214 1684.29 71.8063 Q1680.48 73.7508 1674.97 73.7508 Q1668 73.7508 1663.87 69.8619 Q1659.78 65.9325 1659.78 59.3701 Q1659.78 51.7138 1664.88 47.825 Q1670.03 43.9361 1680.19 43.9361 L1690.65 43.9361 L1690.65 43.2069 Q1690.65 38.0623 1687.24 35.2672 Q1683.88 32.4315 1677.76 32.4315 Q1673.88 32.4315 1670.19 33.3632 Q1666.5 34.295 1663.1 36.1584 L1663.1 29.2718 Q1667.19 27.692 1671.04 26.9223 Q1674.89 26.1121 1678.53 26.1121 Q1688.38 26.1121 1693.24 31.2163 Q1698.1 36.3204 1698.1 46.6907 Z" fill="#000000" fill-rule="nonzero" fill-opacity="1"></path><path clip-path="url(#clip850)" d="M1746.1 28.9478 L1746.1 35.9153 Q1742.94 34.1734 1739.74 33.3227 Q1736.58 32.4315 1733.34 32.4315 Q1726.09 32.4315 1722.08 37.0496 Q1718.07 41.6271 1718.07 49.9314 Q1718.07 58.2358 1722.08 62.8538 Q1726.09 67.4314 1733.34 67.4314 Q1736.58 67.4314 1739.74 66.5807 Q1742.94 65.6895 1746.1 63.9476 L1746.1 70.8341 Q1742.98 72.2924 1739.62 73.0216 Q1736.3 73.7508 1732.53 73.7508 Q1722.28 73.7508 1716.25 67.3098 Q1710.21 60.8689 1710.21 49.9314 Q1710.21 38.832 1716.29 32.472 Q1722.41 26.1121 1733.02 26.1121 Q1736.46 26.1121 1739.74 26.8413 Q1743.02 27.5299 1746.1 28.9478 Z" fill="#000000" fill-rule="nonzero" fill-opacity="1"></path><path clip-path="url(#clip850)" d="M1797.87 48.0275 L1797.87 51.6733 L1763.6 51.6733 Q1764.09 59.3701 1768.22 63.421 Q1772.39 67.4314 1779.81 67.4314 Q1784.1 67.4314 1788.11 66.3781 Q1792.16 65.3249 1796.13 63.2184 L1796.13 70.267 Q1792.12 71.9684 1787.91 72.8596 Q1783.7 73.7508 1779.36 73.7508 Q1768.5 73.7508 1762.14 67.4314 Q1755.83 61.1119 1755.83 50.3365 Q1755.83 39.1965 1761.82 32.6746 Q1767.86 26.1121 1778.06 26.1121 Q1787.22 26.1121 1792.53 32.0264 Q1797.87 37.9003 1797.87 48.0275 M1790.42 45.84 Q1790.34 39.7232 1786.98 36.0774 Q1783.66 32.4315 1778.15 32.4315 Q1771.91 32.4315 1768.14 35.9558 Q1764.41 39.4801 1763.85 45.8805 L1790.42 45.84 Z" fill="#000000" fill-rule="nonzero" fill-opacity="1"></path><circle clip-path="url(#clip852)" cx="279.767" cy="1381.03" r="14.4" fill="#009af9" fill-rule="evenodd" fill-opacity="1" stroke="#000000" stroke-opacity="1" stroke-width="3.2"></circle>
<polyline clip-path="url(#clip852)" style="stroke:#e26f46; stroke-linecap:round; stroke-linejoin:round; stroke-width:8; stroke-opacity:1; fill:none" points="2248.79,160.256 2282.3,180.8 2292.12,209.085 2281.93,243.62 2254.99,283.097 2214.22,326.366 2162.19,372.429 2101.17,420.418 2033.15,469.589 1959.86,519.3 1882.82,569.012 1803.32,618.268 1722.49,666.688 1641.27,713.962 1560.48,759.838 1480.79,804.117 1402.76,846.648 1326.83,887.319 1253.37,926.051 1182.66,962.799 1114.91,997.54 1050.27,1030.28 988.843,1061.02 930.677,1089.82 875.789,1116.7 824.161,1141.74 775.747,1164.99 730.482,1186.53 688.279,1206.43 649.039,1224.76 612.651,1241.61 578.995,1257.06 547.945,1271.2 519.372,1284.09 493.144,1295.82 469.128,1306.47 447.194,1316.11 427.211,1324.81 409.053,1332.65 392.596,1339.68 377.721,1345.97 364.312,1351.59 352.259,1356.58 341.458,1361 331.808,1364.91 323.214,1368.34 315.589,1371.34 308.847,1373.95 302.91,1376.22 297.705,1378.16 293.163,1379.83 289.22,1381.24 285.817,1382.42 282.9,1383.41 280.418,1384.21 278.324,1384.86 276.576,1385.37 275.136,1385.76 273.967,1386.04 273.037,1386.23 272.316,1386.35 271.779,1386.4 271.4,1386.39 271.158,1386.33 271.034,1386.23 271.009,1386.1 271.069,1385.95 271.198,1385.77 271.386,1385.58 271.621,1385.38 271.893,1385.17 272.194,1384.96 272.517,1384.74 272.855,1384.52 273.203,1384.31 273.555,1384.1 273.908,1383.89 274.259,1383.7 274.605,1383.5 274.943,1383.32 275.272,1383.15 275.589,1382.98 275.895,1382.82 276.187,1382.67 276.466,1382.53 276.73,1382.4 276.981,1382.27 277.217,1382.16 277.439,1382.05 277.647,1381.95 277.841,1381.86 278.023,1381.77 278.191,1381.7 278.347,1381.62 278.491,1381.56 278.624,1381.5 278.747,1381.44 278.859,1381.39 278.962,1381.35 279.055,1381.3 279.141,1381.27 279.218,1381.23 279.289,1381.2 279.352,1381.18 279.409,1381.15 279.461,1381.13 279.507,1381.11 279.548,1381.1 279.584,1381.08 279.617,1381.07 279.645,1381.06 279.671,1381.05 279.693,1381.04 279.712,1381.03 279.729,1381.03 279.743,1381.02 279.755,1381.02 279.766,1381.02 279.775,1381.01 279.782,1381.01 279.788,1381.01 279.793,1381.01 279.797,1381.01 279.8,1381.01 279.802,1381.01 279.803,1381.01 279.804,1381.01 279.805,1381.01 279.805,1381.01 279.804,1381.01 279.804,1381.01 279.803,1381.01 279.802,1381.01 279.801,1381.01 279.799,1381.01 279.798,1381.01 279.796,1381.01 279.795,1381.02 279.793,1381.02 279.792,1381.02 279.79,1381.02 279.789,1381.02 279.787,1381.02 279.786,1381.02 279.785,1381.02 279.783,1381.02 279.782,1381.02 279.781,1381.02 279.78,1381.02 279.779,1381.02 279.778,1381.02 279.777,1381.03 279.776,1381.03 279.775,1381.03 279.774,1381.03 279.773,1381.03 279.773,1381.03 279.772,1381.03 279.772,1381.03 279.771,1381.03 279.771,1381.03 279.77,1381.03 279.77,1381.03 279.769,1381.03 279.769,1381.03 279.769,1381.03 279.768,1381.03 279.768,1381.03 279.768,1381.03 279.768,1381.03 279.768,1381.03 279.767,1381.03 279.767,1381.03 279.767,1381.03 279.767,1381.03 279.767,1381.03 279.767,1381.03 279.767,1381.03 279.767,1381.03 279.767,1381.03 279.767,1381.03 279.767,1381.03 279.767,1381.03 279.767,1381.03 279.767,1381.03 279.767,1381.03 279.767,1381.03 279.767,1381.03 279.767,1381.03 279.767,1381.03 279.767,1381.03 279.767,1381.03 279.767,1381.03 279.767,1381.03 279.767,1381.03 279.767,1381.03 279.767,1381.03 279.767,1381.03 279.767,1381.03 279.767,1381.03 279.767,1381.03 "></polyline>
<path clip-path="url(#clip850)" d="M281.788 322.316 L835.77 322.316 L835.77 166.796 L281.788 166.796  Z" fill="#ffffff" fill-rule="evenodd" fill-opacity="1"></path>
<polyline clip-path="url(#clip850)" style="stroke:#000000; stroke-linecap:round; stroke-linejoin:round; stroke-width:4; stroke-opacity:1; fill:none" points="281.788,322.316 835.77,322.316 835.77,166.796 281.788,166.796 281.788,322.316 "></polyline>
<circle clip-path="url(#clip850)" cx="377.005" cy="218.636" r="20.48" fill="#009af9" fill-rule="evenodd" fill-opacity="1" stroke="#000000" stroke-opacity="1" stroke-width="4.55111"></circle>
<path clip-path="url(#clip850)" d="M491.134 222.652 Q491.134 218.022 489.213 215.476 Q487.315 212.93 483.866 212.93 Q480.44 212.93 478.518 215.476 Q476.62 218.022 476.62 222.652 Q476.62 227.258 478.518 229.805 Q480.44 232.351 483.866 232.351 Q487.315 232.351 489.213 229.805 Q491.134 227.258 491.134 222.652 M495.393 232.698 Q495.393 239.318 492.453 242.536 Q489.514 245.777 483.449 245.777 Q481.203 245.777 479.213 245.43 Q477.222 245.105 475.347 244.411 L475.347 240.268 Q477.222 241.286 479.051 241.772 Q480.879 242.258 482.778 242.258 Q486.967 242.258 489.051 240.059 Q491.134 237.883 491.134 233.462 L491.134 231.356 Q489.815 233.647 487.754 234.781 Q485.694 235.916 482.824 235.916 Q478.055 235.916 475.139 232.281 Q472.222 228.647 472.222 222.652 Q472.222 216.633 475.139 212.999 Q478.055 209.365 482.824 209.365 Q485.694 209.365 487.754 210.499 Q489.815 211.633 491.134 213.925 L491.134 209.99 L495.393 209.99 L495.393 232.698 Z" fill="#000000" fill-rule="nonzero" fill-opacity="1"></path><path clip-path="url(#clip850)" d="M514.213 212.976 Q510.787 212.976 508.796 215.661 Q506.805 218.323 506.805 222.976 Q506.805 227.629 508.773 230.314 Q510.764 232.976 514.213 232.976 Q517.615 232.976 519.606 230.291 Q521.597 227.606 521.597 222.976 Q521.597 218.37 519.606 215.684 Q517.615 212.976 514.213 212.976 M514.213 209.365 Q519.768 209.365 522.939 212.976 Q526.111 216.587 526.111 222.976 Q526.111 229.342 522.939 232.976 Q519.768 236.587 514.213 236.587 Q508.634 236.587 505.463 232.976 Q502.314 229.342 502.314 222.976 Q502.314 216.587 505.463 212.976 Q508.634 209.365 514.213 209.365 Z" fill="#000000" fill-rule="nonzero" fill-opacity="1"></path><path clip-path="url(#clip850)" d="M544.953 222.883 Q539.791 222.883 537.8 224.064 Q535.81 225.244 535.81 228.092 Q535.81 230.36 537.291 231.703 Q538.796 233.022 541.365 233.022 Q544.907 233.022 547.036 230.522 Q549.189 227.999 549.189 223.832 L549.189 222.883 L544.953 222.883 M553.448 221.124 L553.448 235.916 L549.189 235.916 L549.189 231.981 Q547.731 234.342 545.555 235.476 Q543.379 236.587 540.231 236.587 Q536.249 236.587 533.888 234.365 Q531.55 232.119 531.55 228.369 Q531.55 223.994 534.467 221.772 Q537.407 219.55 543.217 219.55 L549.189 219.55 L549.189 219.133 Q549.189 216.194 547.245 214.596 Q545.324 212.976 541.828 212.976 Q539.606 212.976 537.499 213.508 Q535.393 214.041 533.449 215.106 L533.449 211.17 Q535.787 210.268 537.986 209.828 Q540.185 209.365 542.268 209.365 Q547.893 209.365 550.671 212.282 Q553.448 215.198 553.448 221.124 Z" fill="#000000" fill-rule="nonzero" fill-opacity="1"></path><path clip-path="url(#clip850)" d="M562.222 199.897 L566.481 199.897 L566.481 235.916 L562.222 235.916 L562.222 199.897 Z" fill="#000000" fill-rule="nonzero" fill-opacity="1"></path><path clip-path="url(#clip850)" d="M606.99 210.754 L606.99 214.782 Q605.184 213.856 603.24 213.393 Q601.295 212.93 599.212 212.93 Q596.041 212.93 594.444 213.902 Q592.87 214.874 592.87 216.819 Q592.87 218.3 594.004 219.157 Q595.138 219.99 598.564 220.754 L600.022 221.078 Q604.559 222.05 606.457 223.832 Q608.379 225.592 608.379 228.763 Q608.379 232.374 605.508 234.481 Q602.661 236.587 597.661 236.587 Q595.578 236.587 593.309 236.17 Q591.064 235.777 588.564 234.967 L588.564 230.569 Q590.925 231.795 593.217 232.42 Q595.508 233.022 597.754 233.022 Q600.763 233.022 602.383 232.004 Q604.004 230.962 604.004 229.087 Q604.004 227.351 602.823 226.425 Q601.666 225.499 597.707 224.643 L596.226 224.295 Q592.268 223.462 590.508 221.749 Q588.749 220.013 588.749 217.004 Q588.749 213.346 591.342 211.356 Q593.934 209.365 598.703 209.365 Q601.064 209.365 603.147 209.712 Q605.231 210.059 606.99 210.754 Z" fill="#000000" fill-rule="nonzero" fill-opacity="1"></path><path clip-path="url(#clip850)" d="M619.374 202.629 L619.374 209.99 L628.147 209.99 L628.147 213.3 L619.374 213.3 L619.374 227.374 Q619.374 230.545 620.231 231.448 Q621.11 232.351 623.772 232.351 L628.147 232.351 L628.147 235.916 L623.772 235.916 Q618.842 235.916 616.967 234.087 Q615.092 232.235 615.092 227.374 L615.092 213.3 L611.967 213.3 L611.967 209.99 L615.092 209.99 L615.092 202.629 L619.374 202.629 Z" fill="#000000" fill-rule="nonzero" fill-opacity="1"></path><path clip-path="url(#clip850)" d="M645.531 222.883 Q640.369 222.883 638.379 224.064 Q636.388 225.244 636.388 228.092 Q636.388 230.36 637.869 231.703 Q639.374 233.022 641.943 233.022 Q645.485 233.022 647.615 230.522 Q649.767 227.999 649.767 223.832 L649.767 222.883 L645.531 222.883 M654.027 221.124 L654.027 235.916 L649.767 235.916 L649.767 231.981 Q648.309 234.342 646.133 235.476 Q643.957 236.587 640.809 236.587 Q636.828 236.587 634.467 234.365 Q632.129 232.119 632.129 228.369 Q632.129 223.994 635.045 221.772 Q637.985 219.55 643.795 219.55 L649.767 219.55 L649.767 219.133 Q649.767 216.194 647.823 214.596 Q645.902 212.976 642.406 212.976 Q640.184 212.976 638.078 213.508 Q635.971 214.041 634.027 215.106 L634.027 211.17 Q636.365 210.268 638.564 209.828 Q640.763 209.365 642.846 209.365 Q648.471 209.365 651.249 212.282 Q654.027 215.198 654.027 221.124 Z" fill="#000000" fill-rule="nonzero" fill-opacity="1"></path><path clip-path="url(#clip850)" d="M667.013 202.629 L667.013 209.99 L675.786 209.99 L675.786 213.3 L667.013 213.3 L667.013 227.374 Q667.013 230.545 667.869 231.448 Q668.749 232.351 671.411 232.351 L675.786 232.351 L675.786 235.916 L671.411 235.916 Q666.48 235.916 664.605 234.087 Q662.73 232.235 662.73 227.374 L662.73 213.3 L659.605 213.3 L659.605 209.99 L662.73 209.99 L662.73 202.629 L667.013 202.629 Z" fill="#000000" fill-rule="nonzero" fill-opacity="1"></path><path clip-path="url(#clip850)" d="M703.563 221.888 L703.563 223.971 L683.98 223.971 Q684.258 228.369 686.619 230.684 Q689.003 232.976 693.239 232.976 Q695.693 232.976 697.985 232.374 Q700.3 231.772 702.568 230.569 L702.568 234.596 Q700.276 235.568 697.869 236.078 Q695.462 236.587 692.985 236.587 Q686.781 236.587 683.147 232.976 Q679.536 229.365 679.536 223.207 Q679.536 216.842 682.962 213.115 Q686.411 209.365 692.244 209.365 Q697.475 209.365 700.508 212.745 Q703.563 216.101 703.563 221.888 M699.304 220.638 Q699.258 217.143 697.337 215.059 Q695.438 212.976 692.29 212.976 Q688.726 212.976 686.573 214.99 Q684.443 217.004 684.119 220.661 L699.304 220.638 Z" fill="#000000" fill-rule="nonzero" fill-opacity="1"></path><polyline clip-path="url(#clip850)" style="stroke:#e26f46; stroke-linecap:round; stroke-linejoin:round; stroke-width:8; stroke-opacity:1; fill:none" points="305.592,270.476 448.418,270.476 "></polyline>
<path clip-path="url(#clip850)" d="M472.222 253.196 L476.898 253.196 L476.898 283.821 L493.727 283.821 L493.727 287.756 L472.222 287.756 L472.222 253.196 Z" fill="#000000" fill-rule="nonzero" fill-opacity="1"></path><path clip-path="url(#clip850)" d="M512.662 256.367 Q507.569 256.367 504.56 260.163 Q501.574 263.96 501.574 270.51 Q501.574 277.038 504.56 280.834 Q507.569 284.631 512.662 284.631 Q517.754 284.631 520.717 280.834 Q523.703 277.038 523.703 270.51 Q523.703 263.96 520.717 260.163 Q517.754 256.367 512.662 256.367 M519.213 287.131 L525.37 293.867 L519.722 293.867 L514.606 288.334 Q513.842 288.381 513.426 288.404 Q513.032 288.427 512.662 288.427 Q505.37 288.427 500.995 283.566 Q496.643 278.682 496.643 270.51 Q496.643 262.316 500.995 257.455 Q505.37 252.571 512.662 252.571 Q519.93 252.571 524.282 257.455 Q528.634 262.316 528.634 270.51 Q528.634 276.529 526.203 280.811 Q523.796 285.094 519.213 287.131 Z" fill="#000000" fill-rule="nonzero" fill-opacity="1"></path><path clip-path="url(#clip850)" d="M552.337 271.552 Q553.842 272.061 555.254 273.728 Q556.689 275.395 558.124 278.311 L562.87 287.756 L557.847 287.756 L553.425 278.89 Q551.712 275.418 550.092 274.284 Q548.495 273.149 545.717 273.149 L540.624 273.149 L540.624 287.756 L535.949 287.756 L535.949 253.196 L546.504 253.196 Q552.43 253.196 555.347 255.673 Q558.263 258.149 558.263 263.149 Q558.263 266.413 556.735 268.566 Q555.231 270.719 552.337 271.552 M540.624 257.038 L540.624 269.307 L546.504 269.307 Q549.884 269.307 551.597 267.756 Q553.333 266.182 553.333 263.149 Q553.333 260.117 551.597 258.589 Q549.884 257.038 546.504 257.038 L540.624 257.038 Z" fill="#000000" fill-rule="nonzero" fill-opacity="1"></path><path clip-path="url(#clip850)" d="M579.166 253.196 L608.402 253.196 L608.402 257.131 L596.133 257.131 L596.133 287.756 L591.434 287.756 L591.434 257.131 L579.166 257.131 L579.166 253.196 Z" fill="#000000" fill-rule="nonzero" fill-opacity="1"></path><path clip-path="url(#clip850)" d="M620.786 265.811 Q620.068 265.395 619.212 265.21 Q618.379 265.001 617.36 265.001 Q613.749 265.001 611.805 267.362 Q609.883 269.7 609.883 274.098 L609.883 287.756 L605.601 287.756 L605.601 261.83 L609.883 261.83 L609.883 265.858 Q611.226 263.497 613.379 262.362 Q615.531 261.205 618.61 261.205 Q619.05 261.205 619.582 261.274 Q620.115 261.321 620.763 261.436 L620.786 265.811 Z" fill="#000000" fill-rule="nonzero" fill-opacity="1"></path><path clip-path="url(#clip850)" d="M637.036 274.723 Q631.874 274.723 629.883 275.904 Q627.893 277.084 627.893 279.932 Q627.893 282.2 629.374 283.543 Q630.879 284.862 633.448 284.862 Q636.99 284.862 639.119 282.362 Q641.272 279.839 641.272 275.672 L641.272 274.723 L637.036 274.723 M645.531 272.964 L645.531 287.756 L641.272 287.756 L641.272 283.821 Q639.814 286.182 637.638 287.316 Q635.462 288.427 632.314 288.427 Q628.332 288.427 625.971 286.205 Q623.633 283.959 623.633 280.209 Q623.633 275.834 626.55 273.612 Q629.49 271.39 635.3 271.39 L641.272 271.39 L641.272 270.973 Q641.272 268.034 639.328 266.436 Q637.406 264.816 633.911 264.816 Q631.689 264.816 629.582 265.348 Q627.476 265.881 625.531 266.946 L625.531 263.01 Q627.869 262.108 630.068 261.668 Q632.267 261.205 634.351 261.205 Q639.976 261.205 642.754 264.122 Q645.531 267.038 645.531 272.964 Z" fill="#000000" fill-rule="nonzero" fill-opacity="1"></path><path clip-path="url(#clip850)" d="M654.304 261.83 L658.564 261.83 L658.564 288.219 Q658.564 293.172 656.666 295.395 Q654.791 297.617 650.601 297.617 L648.98 297.617 L648.98 294.006 L650.115 294.006 Q652.545 294.006 653.425 292.871 Q654.304 291.76 654.304 288.219 L654.304 261.83 M654.304 251.737 L658.564 251.737 L658.564 257.131 L654.304 257.131 L654.304 251.737 Z" fill="#000000" fill-rule="nonzero" fill-opacity="1"></path><path clip-path="url(#clip850)" d="M689.651 273.728 L689.651 275.811 L670.068 275.811 Q670.346 280.209 672.707 282.524 Q675.091 284.816 679.327 284.816 Q681.781 284.816 684.073 284.214 Q686.388 283.612 688.656 282.409 L688.656 286.436 Q686.364 287.408 683.957 287.918 Q681.55 288.427 679.073 288.427 Q672.869 288.427 669.235 284.816 Q665.624 281.205 665.624 275.047 Q665.624 268.682 669.05 264.955 Q672.499 261.205 678.332 261.205 Q683.564 261.205 686.596 264.585 Q689.651 267.941 689.651 273.728 M685.392 272.478 Q685.346 268.983 683.425 266.899 Q681.526 264.816 678.378 264.816 Q674.814 264.816 672.661 266.83 Q670.531 268.844 670.207 272.501 L685.392 272.478 Z" fill="#000000" fill-rule="nonzero" fill-opacity="1"></path><path clip-path="url(#clip850)" d="M715.299 262.825 L715.299 266.807 Q713.494 265.811 711.665 265.325 Q709.86 264.816 708.008 264.816 Q703.864 264.816 701.573 267.455 Q699.281 270.071 699.281 274.816 Q699.281 279.561 701.573 282.2 Q703.864 284.816 708.008 284.816 Q709.86 284.816 711.665 284.33 Q713.494 283.821 715.299 282.825 L715.299 286.76 Q713.517 287.594 711.596 288.01 Q709.698 288.427 707.545 288.427 Q701.688 288.427 698.239 284.746 Q694.79 281.066 694.79 274.816 Q694.79 268.473 698.263 264.839 Q701.758 261.205 707.823 261.205 Q709.79 261.205 711.665 261.622 Q713.54 262.015 715.299 262.825 Z" fill="#000000" fill-rule="nonzero" fill-opacity="1"></path><path clip-path="url(#clip850)" d="M726.92 254.469 L726.92 261.83 L735.693 261.83 L735.693 265.14 L726.92 265.14 L726.92 279.214 Q726.92 282.385 727.776 283.288 Q728.656 284.191 731.318 284.191 L735.693 284.191 L735.693 287.756 L731.318 287.756 Q726.387 287.756 724.512 285.927 Q722.637 284.075 722.637 279.214 L722.637 265.14 L719.512 265.14 L719.512 261.83 L722.637 261.83 L722.637 254.469 L726.92 254.469 Z" fill="#000000" fill-rule="nonzero" fill-opacity="1"></path><path clip-path="url(#clip850)" d="M751.341 264.816 Q747.915 264.816 745.924 267.501 Q743.934 270.163 743.934 274.816 Q743.934 279.469 745.901 282.154 Q747.892 284.816 751.341 284.816 Q754.744 284.816 756.734 282.131 Q758.725 279.446 758.725 274.816 Q758.725 270.21 756.734 267.524 Q754.744 264.816 751.341 264.816 M751.341 261.205 Q756.896 261.205 760.068 264.816 Q763.239 268.427 763.239 274.816 Q763.239 281.182 760.068 284.816 Q756.896 288.427 751.341 288.427 Q745.762 288.427 742.591 284.816 Q739.443 281.182 739.443 274.816 Q739.443 268.427 742.591 264.816 Q745.762 261.205 751.341 261.205 Z" fill="#000000" fill-rule="nonzero" fill-opacity="1"></path><path clip-path="url(#clip850)" d="M785.322 265.811 Q784.605 265.395 783.748 265.21 Q782.915 265.001 781.896 265.001 Q778.285 265.001 776.341 267.362 Q774.42 269.7 774.42 274.098 L774.42 287.756 L770.137 287.756 L770.137 261.83 L774.42 261.83 L774.42 265.858 Q775.762 263.497 777.915 262.362 Q780.068 261.205 783.146 261.205 Q783.586 261.205 784.119 261.274 Q784.651 261.321 785.299 261.436 L785.322 265.811 Z" fill="#000000" fill-rule="nonzero" fill-opacity="1"></path><path clip-path="url(#clip850)" d="M800.577 290.163 Q798.771 294.793 797.058 296.205 Q795.345 297.617 792.475 297.617 L789.072 297.617 L789.072 294.052 L791.572 294.052 Q793.331 294.052 794.304 293.219 Q795.276 292.385 796.456 289.283 L797.22 287.339 L786.734 261.83 L791.248 261.83 L799.35 282.108 L807.452 261.83 L811.966 261.83 L800.577 290.163 Z" fill="#000000" fill-rule="nonzero" fill-opacity="1"></path></svg>