<svg xmlns="http://www.w3.org/2000/svg" xmlns:xlink="http://www.w3.org/1999/xlink" width="600" height="400" viewBox="0 0 2400 1600">
<defs>
  <clipPath id="clip670">
    <rect x="0" y="0" width="2400" height="1600"></rect>
  </clipPath>
</defs>
<path clip-path="url(#clip670)" d="M0 1600 L2400 1600 L2400 0 L0 0  Z" fill="#ffffff" fill-rule="evenodd" fill-opacity="1"></path>
<defs>
  <clipPath id="clip671">
    <rect x="480" y="0" width="1681" height="1600"></rect>
  </clipPath>
</defs>
<path clip-path="url(#clip670)" d="M156.112 1423.18 L2352.76 1423.18 L2352.76 123.472 L156.112 123.472  Z" fill="#ffffff" fill-rule="evenodd" fill-opacity="1"></path>
<defs>
  <clipPath id="clip672">
    <rect x="156" y="123" width="2198" height="1301"></rect>
  </clipPath>
</defs>
<polyline clip-path="url(#clip672)" style="stroke:#000000; stroke-linecap:round; stroke-linejoin:round; stroke-width:2; stroke-opacity:0.1; fill:none" points="218.281,1423.18 218.281,123.472 "></polyline>
<polyline clip-path="url(#clip672)" style="stroke:#000000; stroke-linecap:round; stroke-linejoin:round; stroke-width:2; stroke-opacity:0.1; fill:none" points="741.591,1423.18 741.591,123.472 "></polyline>
<polyline clip-path="url(#clip672)" style="stroke:#000000; stroke-linecap:round; stroke-linejoin:round; stroke-width:2; stroke-opacity:0.1; fill:none" points="1264.9,1423.18 1264.9,123.472 "></polyline>
<polyline clip-path="url(#clip672)" style="stroke:#000000; stroke-linecap:round; stroke-linejoin:round; stroke-width:2; stroke-opacity:0.1; fill:none" points="1788.21,1423.18 1788.21,123.472 "></polyline>
<polyline clip-path="url(#clip672)" style="stroke:#000000; stroke-linecap:round; stroke-linejoin:round; stroke-width:2; stroke-opacity:0.1; fill:none" points="2311.52,1423.18 2311.52,123.472 "></polyline>
<polyline clip-path="url(#clip672)" style="stroke:#000000; stroke-linecap:round; stroke-linejoin:round; stroke-width:2; stroke-opacity:0.1; fill:none" points="156.112,1313.41 2352.76,1313.41 "></polyline>
<polyline clip-path="url(#clip672)" style="stroke:#000000; stroke-linecap:round; stroke-linejoin:round; stroke-width:2; stroke-opacity:0.1; fill:none" points="156.112,1030.04 2352.76,1030.04 "></polyline>
<polyline clip-path="url(#clip672)" style="stroke:#000000; stroke-linecap:round; stroke-linejoin:round; stroke-width:2; stroke-opacity:0.1; fill:none" points="156.112,746.683 2352.76,746.683 "></polyline>
<polyline clip-path="url(#clip672)" style="stroke:#000000; stroke-linecap:round; stroke-linejoin:round; stroke-width:2; stroke-opacity:0.1; fill:none" points="156.112,463.32 2352.76,463.32 "></polyline>
<polyline clip-path="url(#clip672)" style="stroke:#000000; stroke-linecap:round; stroke-linejoin:round; stroke-width:2; stroke-opacity:0.1; fill:none" points="156.112,179.958 2352.76,179.958 "></polyline>
<polyline clip-path="url(#clip670)" style="stroke:#000000; stroke-linecap:round; stroke-linejoin:round; stroke-width:4; stroke-opacity:1; fill:none" points="156.112,1423.18 2352.76,1423.18 "></polyline>
<polyline clip-path="url(#clip670)" style="stroke:#000000; stroke-linecap:round; stroke-linejoin:round; stroke-width:4; stroke-opacity:1; fill:none" points="218.281,1423.18 218.281,1404.28 "></polyline>
<polyline clip-path="url(#clip670)" style="stroke:#000000; stroke-linecap:round; stroke-linejoin:round; stroke-width:4; stroke-opacity:1; fill:none" points="741.591,1423.18 741.591,1404.28 "></polyline>
<polyline clip-path="url(#clip670)" style="stroke:#000000; stroke-linecap:round; stroke-linejoin:round; stroke-width:4; stroke-opacity:1; fill:none" points="1264.9,1423.18 1264.9,1404.28 "></polyline>
<polyline clip-path="url(#clip670)" style="stroke:#000000; stroke-linecap:round; stroke-linejoin:round; stroke-width:4; stroke-opacity:1; fill:none" points="1788.21,1423.18 1788.21,1404.28 "></polyline>
<polyline clip-path="url(#clip670)" style="stroke:#000000; stroke-linecap:round; stroke-linejoin:round; stroke-width:4; stroke-opacity:1; fill:none" points="2311.52,1423.18 2311.52,1404.28 "></polyline>
<path clip-path="url(#clip670)" d="M195.666 1454.1 Q192.055 1454.1 190.226 1457.66 Q188.42 1461.2 188.42 1468.33 Q188.42 1475.44 190.226 1479.01 Q192.055 1482.55 195.666 1482.55 Q199.3 1482.55 201.105 1479.01 Q202.934 1475.44 202.934 1468.33 Q202.934 1461.2 201.105 1457.66 Q199.3 1454.1 195.666 1454.1 M195.666 1450.39 Q201.476 1450.39 204.531 1455 Q207.61 1459.58 207.61 1468.33 Q207.61 1477.06 204.531 1481.67 Q201.476 1486.25 195.666 1486.25 Q189.856 1486.25 186.777 1481.67 Q183.721 1477.06 183.721 1468.33 Q183.721 1459.58 186.777 1455 Q189.856 1450.39 195.666 1450.39 Z" fill="#000000" fill-rule="nonzero" fill-opacity="1"></path><path clip-path="url(#clip670)" d="M215.828 1479.7 L220.712 1479.7 L220.712 1485.58 L215.828 1485.58 L215.828 1479.7 Z" fill="#000000" fill-rule="nonzero" fill-opacity="1"></path><path clip-path="url(#clip670)" d="M240.897 1454.1 Q237.286 1454.1 235.457 1457.66 Q233.652 1461.2 233.652 1468.33 Q233.652 1475.44 235.457 1479.01 Q237.286 1482.55 240.897 1482.55 Q244.531 1482.55 246.337 1479.01 Q248.165 1475.44 248.165 1468.33 Q248.165 1461.2 246.337 1457.66 Q244.531 1454.1 240.897 1454.1 M240.897 1450.39 Q246.707 1450.39 249.763 1455 Q252.841 1459.58 252.841 1468.33 Q252.841 1477.06 249.763 1481.67 Q246.707 1486.25 240.897 1486.25 Q235.087 1486.25 232.008 1481.67 Q228.953 1477.06 228.953 1468.33 Q228.953 1459.58 232.008 1455 Q235.087 1450.39 240.897 1450.39 Z" fill="#000000" fill-rule="nonzero" fill-opacity="1"></path><path clip-path="url(#clip670)" d="M713.327 1481.64 L729.646 1481.64 L729.646 1485.58 L707.702 1485.58 L707.702 1481.64 Q710.364 1478.89 714.947 1474.26 Q719.554 1469.61 720.734 1468.27 Q722.98 1465.74 723.859 1464.01 Q724.762 1462.25 724.762 1460.56 Q724.762 1457.8 722.818 1456.07 Q720.896 1454.33 717.795 1454.33 Q715.596 1454.33 713.142 1455.09 Q710.711 1455.86 707.934 1457.41 L707.934 1452.69 Q710.758 1451.55 713.211 1450.97 Q715.665 1450.39 717.702 1450.39 Q723.072 1450.39 726.267 1453.08 Q729.461 1455.77 729.461 1460.26 Q729.461 1462.39 728.651 1464.31 Q727.864 1466.2 725.757 1468.8 Q725.179 1469.47 722.077 1472.69 Q718.975 1475.88 713.327 1481.64 Z" fill="#000000" fill-rule="nonzero" fill-opacity="1"></path><path clip-path="url(#clip670)" d="M739.461 1479.7 L744.345 1479.7 L744.345 1485.58 L739.461 1485.58 L739.461 1479.7 Z" fill="#000000" fill-rule="nonzero" fill-opacity="1"></path><path clip-path="url(#clip670)" d="M754.577 1451.02 L772.933 1451.02 L772.933 1454.96 L758.859 1454.96 L758.859 1463.43 Q759.878 1463.08 760.896 1462.92 Q761.915 1462.73 762.933 1462.73 Q768.72 1462.73 772.1 1465.9 Q775.479 1469.08 775.479 1474.49 Q775.479 1480.07 772.007 1483.17 Q768.535 1486.25 762.216 1486.25 Q760.04 1486.25 757.771 1485.88 Q755.526 1485.51 753.118 1484.77 L753.118 1480.07 Q755.202 1481.2 757.424 1481.76 Q759.646 1482.32 762.123 1482.32 Q766.128 1482.32 768.466 1480.21 Q770.804 1478.1 770.804 1474.49 Q770.804 1470.88 768.466 1468.77 Q766.128 1466.67 762.123 1466.67 Q760.248 1466.67 758.373 1467.08 Q756.521 1467.5 754.577 1468.38 L754.577 1451.02 Z" fill="#000000" fill-rule="nonzero" fill-opacity="1"></path><path clip-path="url(#clip670)" d="M1232.06 1451.02 L1250.42 1451.02 L1250.42 1454.96 L1236.35 1454.96 L1236.35 1463.43 Q1237.37 1463.08 1238.38 1462.92 Q1239.4 1462.73 1240.42 1462.73 Q1246.21 1462.73 1249.59 1465.9 Q1252.97 1469.08 1252.97 1474.49 Q1252.97 1480.07 1249.5 1483.17 Q1246.02 1486.25 1239.7 1486.25 Q1237.53 1486.25 1235.26 1485.88 Q1233.01 1485.51 1230.61 1484.77 L1230.61 1480.07 Q1232.69 1481.2 1234.91 1481.76 Q1237.13 1482.32 1239.61 1482.32 Q1243.62 1482.32 1245.95 1480.21 Q1248.29 1478.1 1248.29 1474.49 Q1248.29 1470.88 1245.95 1468.77 Q1243.62 1466.67 1239.61 1466.67 Q1237.74 1466.67 1235.86 1467.08 Q1234.01 1467.5 1232.06 1468.38 L1232.06 1451.02 Z" fill="#000000" fill-rule="nonzero" fill-opacity="1"></path><path clip-path="url(#clip670)" d="M1262.18 1479.7 L1267.06 1479.7 L1267.06 1485.58 L1262.18 1485.58 L1262.18 1479.7 Z" fill="#000000" fill-rule="nonzero" fill-opacity="1"></path><path clip-path="url(#clip670)" d="M1287.25 1454.1 Q1283.64 1454.1 1281.81 1457.66 Q1280 1461.2 1280 1468.33 Q1280 1475.44 1281.81 1479.01 Q1283.64 1482.55 1287.25 1482.55 Q1290.88 1482.55 1292.69 1479.01 Q1294.52 1475.44 1294.52 1468.33 Q1294.52 1461.2 1292.69 1457.66 Q1290.88 1454.1 1287.25 1454.1 M1287.25 1450.39 Q1293.06 1450.39 1296.12 1455 Q1299.19 1459.58 1299.19 1468.33 Q1299.19 1477.06 1296.12 1481.67 Q1293.06 1486.25 1287.25 1486.25 Q1281.44 1486.25 1278.36 1481.67 Q1275.31 1477.06 1275.31 1468.33 Q1275.31 1459.58 1278.36 1455 Q1281.44 1450.39 1287.25 1450.39 Z" fill="#000000" fill-rule="nonzero" fill-opacity="1"></path><path clip-path="url(#clip670)" d="M1754.53 1451.02 L1776.75 1451.02 L1776.75 1453.01 L1764.21 1485.58 L1759.32 1485.58 L1771.13 1454.96 L1754.53 1454.96 L1754.53 1451.02 Z" fill="#000000" fill-rule="nonzero" fill-opacity="1"></path><path clip-path="url(#clip670)" d="M1785.87 1479.7 L1790.76 1479.7 L1790.76 1485.58 L1785.87 1485.58 L1785.87 1479.7 Z" fill="#000000" fill-rule="nonzero" fill-opacity="1"></path><path clip-path="url(#clip670)" d="M1800.99 1451.02 L1819.34 1451.02 L1819.34 1454.96 L1805.27 1454.96 L1805.27 1463.43 Q1806.29 1463.08 1807.31 1462.92 Q1808.33 1462.73 1809.34 1462.73 Q1815.13 1462.73 1818.51 1465.9 Q1821.89 1469.08 1821.89 1474.49 Q1821.89 1480.07 1818.42 1483.17 Q1814.95 1486.25 1808.63 1486.25 Q1806.45 1486.25 1804.18 1485.88 Q1801.94 1485.51 1799.53 1484.77 L1799.53 1480.07 Q1801.61 1481.2 1803.83 1481.76 Q1806.06 1482.32 1808.53 1482.32 Q1812.54 1482.32 1814.88 1480.21 Q1817.21 1478.1 1817.21 1474.49 Q1817.21 1470.88 1814.88 1468.77 Q1812.54 1466.67 1808.53 1466.67 Q1806.66 1466.67 1804.78 1467.08 Q1802.93 1467.5 1800.99 1468.38 L1800.99 1451.02 Z" fill="#000000" fill-rule="nonzero" fill-opacity="1"></path><path clip-path="url(#clip670)" d="M2263.59 1481.64 L2271.23 1481.64 L2271.23 1455.28 L2262.92 1456.95 L2262.92 1452.69 L2271.18 1451.02 L2275.86 1451.02 L2275.86 1481.64 L2283.5 1481.64 L2283.5 1485.58 L2263.59 1485.58 L2263.59 1481.64 Z" fill="#000000" fill-rule="nonzero" fill-opacity="1"></path><path clip-path="url(#clip670)" d="M2302.94 1454.1 Q2299.33 1454.1 2297.5 1457.66 Q2295.7 1461.2 2295.7 1468.33 Q2295.7 1475.44 2297.5 1479.01 Q2299.33 1482.55 2302.94 1482.55 Q2306.58 1482.55 2308.38 1479.01 Q2310.21 1475.44 2310.21 1468.33 Q2310.21 1461.2 2308.38 1457.66 Q2306.58 1454.1 2302.94 1454.1 M2302.94 1450.39 Q2308.75 1450.39 2311.81 1455 Q2314.89 1459.58 2314.89 1468.33 Q2314.89 1477.06 2311.81 1481.67 Q2308.75 1486.25 2302.94 1486.25 Q2297.13 1486.25 2294.05 1481.67 Q2291 1477.06 2291 1468.33 Q2291 1459.58 2294.05 1455 Q2297.13 1450.39 2302.94 1450.39 Z" fill="#000000" fill-rule="nonzero" fill-opacity="1"></path><path clip-path="url(#clip670)" d="M2323.1 1479.7 L2327.99 1479.7 L2327.99 1485.58 L2323.1 1485.58 L2323.1 1479.7 Z" fill="#000000" fill-rule="nonzero" fill-opacity="1"></path><path clip-path="url(#clip670)" d="M2348.17 1454.1 Q2344.56 1454.1 2342.73 1457.66 Q2340.93 1461.2 2340.93 1468.33 Q2340.93 1475.44 2342.73 1479.01 Q2344.56 1482.55 2348.17 1482.55 Q2351.81 1482.55 2353.61 1479.01 Q2355.44 1475.44 2355.44 1468.33 Q2355.44 1461.2 2353.61 1457.66 Q2351.81 1454.1 2348.17 1454.1 M2348.17 1450.39 Q2353.98 1450.39 2357.04 1455 Q2360.12 1459.58 2360.12 1468.33 Q2360.12 1477.06 2357.04 1481.67 Q2353.98 1486.25 2348.17 1486.25 Q2342.36 1486.25 2339.29 1481.67 Q2336.23 1477.06 2336.23 1468.33 Q2336.23 1459.58 2339.29 1455 Q2342.36 1450.39 2348.17 1450.39 Z" fill="#000000" fill-rule="nonzero" fill-opacity="1"></path><path clip-path="url(#clip670)" d="M1152.25 1522.27 L1152.25 1532.4 L1164.31 1532.4 L1164.31 1536.95 L1152.25 1536.95 L1152.25 1556.3 Q1152.25 1560.66 1153.43 1561.9 Q1154.64 1563.14 1158.3 1563.14 L1164.31 1563.14 L1164.31 1568.04 L1158.3 1568.04 Q1151.52 1568.04 1148.94 1565.53 Q1146.36 1562.98 1146.36 1556.3 L1146.36 1536.95 L1142.06 1536.95 L1142.06 1532.4 L1146.36 1532.4 L1146.36 1522.27 L1152.25 1522.27 Z" fill="#000000" fill-rule="nonzero" fill-opacity="1"></path><path clip-path="url(#clip670)" d="M1172.01 1532.4 L1177.87 1532.4 L1177.87 1568.04 L1172.01 1568.04 L1172.01 1532.4 M1172.01 1518.52 L1177.87 1518.52 L1177.87 1525.93 L1172.01 1525.93 L1172.01 1518.52 Z" fill="#000000" fill-rule="nonzero" fill-opacity="1"></path><path clip-path="url(#clip670)" d="M1217.88 1539.24 Q1220.08 1535.29 1223.13 1533.41 Q1226.19 1531.54 1230.32 1531.54 Q1235.89 1531.54 1238.92 1535.45 Q1241.94 1539.33 1241.94 1546.53 L1241.94 1568.04 L1236.05 1568.04 L1236.05 1546.72 Q1236.05 1541.59 1234.24 1539.11 Q1232.42 1536.63 1228.7 1536.63 Q1224.15 1536.63 1221.51 1539.65 Q1218.87 1542.68 1218.87 1547.9 L1218.87 1568.04 L1212.98 1568.04 L1212.98 1546.72 Q1212.98 1541.56 1211.16 1539.11 Q1209.35 1536.63 1205.56 1536.63 Q1201.07 1536.63 1198.43 1539.68 Q1195.79 1542.71 1195.79 1547.9 L1195.79 1568.04 L1189.9 1568.04 L1189.9 1532.4 L1195.79 1532.4 L1195.79 1537.93 Q1197.8 1534.66 1200.6 1533.1 Q1203.4 1531.54 1207.25 1531.54 Q1211.13 1531.54 1213.84 1533.51 Q1216.57 1535.48 1217.88 1539.24 Z" fill="#000000" fill-rule="nonzero" fill-opacity="1"></path><path clip-path="url(#clip670)" d="M1284.11 1548.76 L1284.11 1551.62 L1257.19 1551.62 Q1257.57 1557.67 1260.82 1560.85 Q1264.09 1564 1269.92 1564 Q1273.29 1564 1276.44 1563.17 Q1279.63 1562.35 1282.75 1560.69 L1282.75 1566.23 Q1279.59 1567.57 1276.28 1568.27 Q1272.97 1568.97 1269.57 1568.97 Q1261.04 1568.97 1256.04 1564 Q1251.08 1559.04 1251.08 1550.57 Q1251.08 1541.82 1255.79 1536.69 Q1260.53 1531.54 1268.55 1531.54 Q1275.74 1531.54 1279.91 1536.18 Q1284.11 1540.8 1284.11 1548.76 M1278.26 1547.04 Q1278.19 1542.23 1275.55 1539.37 Q1272.94 1536.5 1268.61 1536.5 Q1263.71 1536.5 1260.75 1539.27 Q1257.82 1542.04 1257.38 1547.07 L1278.26 1547.04 Z" fill="#000000" fill-rule="nonzero" fill-opacity="1"></path><path clip-path="url(#clip670)" d="M1307.79 1518.58 Q1303.53 1525.9 1301.46 1533.06 Q1299.39 1540.23 1299.39 1547.58 Q1299.39 1554.93 1301.46 1562.16 Q1303.56 1569.35 1307.79 1576.64 L1302.7 1576.64 Q1297.93 1569.16 1295.54 1561.93 Q1293.19 1554.71 1293.19 1547.58 Q1293.19 1540.48 1295.54 1533.29 Q1297.9 1526.09 1302.7 1518.58 L1307.79 1518.58 Z" fill="#000000" fill-rule="nonzero" fill-opacity="1"></path><path clip-path="url(#clip670)" d="M1341.88 1533.45 L1341.88 1538.98 Q1339.4 1537.71 1336.73 1537.07 Q1334.05 1536.44 1331.19 1536.44 Q1326.83 1536.44 1324.63 1537.77 Q1322.47 1539.11 1322.47 1541.79 Q1322.47 1543.82 1324.03 1545 Q1325.59 1546.15 1330.3 1547.2 L1332.3 1547.64 Q1338.54 1548.98 1341.15 1551.43 Q1343.79 1553.85 1343.79 1558.21 Q1343.79 1563.17 1339.85 1566.07 Q1335.93 1568.97 1329.06 1568.97 Q1326.19 1568.97 1323.07 1568.39 Q1319.98 1567.85 1316.55 1566.74 L1316.55 1560.69 Q1319.79 1562.38 1322.94 1563.24 Q1326.1 1564.07 1329.18 1564.07 Q1333.32 1564.07 1335.55 1562.66 Q1337.78 1561.23 1337.78 1558.65 Q1337.78 1556.27 1336.15 1554.99 Q1334.56 1553.72 1329.12 1552.54 L1327.08 1552.07 Q1321.64 1550.92 1319.22 1548.56 Q1316.8 1546.18 1316.8 1542.04 Q1316.8 1537.01 1320.37 1534.27 Q1323.93 1531.54 1330.49 1531.54 Q1333.73 1531.54 1336.6 1532.01 Q1339.46 1532.49 1341.88 1533.45 Z" fill="#000000" fill-rule="nonzero" fill-opacity="1"></path><path clip-path="url(#clip670)" d="M1352.2 1518.58 L1357.29 1518.58 Q1362.06 1526.09 1364.42 1533.29 Q1366.8 1540.48 1366.8 1547.58 Q1366.8 1554.71 1364.42 1561.93 Q1362.06 1569.16 1357.29 1576.64 L1352.2 1576.64 Q1356.43 1569.35 1358.5 1562.16 Q1360.6 1554.93 1360.6 1547.58 Q1360.6 1540.23 1358.5 1533.06 Q1356.43 1525.9 1352.2 1518.58 Z" fill="#000000" fill-rule="nonzero" fill-opacity="1"></path><polyline clip-path="url(#clip670)" style="stroke:#000000; stroke-linecap:round; stroke-linejoin:round; stroke-width:4; stroke-opacity:1; fill:none" points="156.112,1423.18 156.112,123.472 "></polyline>
<polyline clip-path="url(#clip670)" style="stroke:#000000; stroke-linecap:round; stroke-linejoin:round; stroke-width:4; stroke-opacity:1; fill:none" points="156.112,1313.41 175.01,1313.41 "></polyline>
<polyline clip-path="url(#clip670)" style="stroke:#000000; stroke-linecap:round; stroke-linejoin:round; stroke-width:4; stroke-opacity:1; fill:none" points="156.112,1030.04 175.01,1030.04 "></polyline>
<polyline clip-path="url(#clip670)" style="stroke:#000000; stroke-linecap:round; stroke-linejoin:round; stroke-width:4; stroke-opacity:1; fill:none" points="156.112,746.683 175.01,746.683 "></polyline>
<polyline clip-path="url(#clip670)" style="stroke:#000000; stroke-linecap:round; stroke-linejoin:round; stroke-width:4; stroke-opacity:1; fill:none" points="156.112,463.32 175.01,463.32 "></polyline>
<polyline clip-path="url(#clip670)" style="stroke:#000000; stroke-linecap:round; stroke-linejoin:round; stroke-width:4; stroke-opacity:1; fill:none" points="156.112,179.958 175.01,179.958 "></polyline>
<path clip-path="url(#clip670)" d="M62.9365 1299.21 Q59.3254 1299.21 57.4967 1302.77 Q55.6912 1306.31 55.6912 1313.44 Q55.6912 1320.55 57.4967 1324.11 Q59.3254 1327.65 62.9365 1327.65 Q66.5707 1327.65 68.3763 1324.11 Q70.205 1320.55 70.205 1313.44 Q70.205 1306.31 68.3763 1302.77 Q66.5707 1299.21 62.9365 1299.21 M62.9365 1295.5 Q68.7467 1295.5 71.8022 1300.11 Q74.8809 1304.69 74.8809 1313.44 Q74.8809 1322.17 71.8022 1326.78 Q68.7467 1331.36 62.9365 1331.36 Q57.1264 1331.36 54.0477 1326.78 Q50.9921 1322.17 50.9921 1313.44 Q50.9921 1304.69 54.0477 1300.11 Q57.1264 1295.5 62.9365 1295.5 Z" fill="#000000" fill-rule="nonzero" fill-opacity="1"></path><path clip-path="url(#clip670)" d="M83.0984 1324.81 L87.9827 1324.81 L87.9827 1330.69 L83.0984 1330.69 L83.0984 1324.81 Z" fill="#000000" fill-rule="nonzero" fill-opacity="1"></path><path clip-path="url(#clip670)" d="M108.168 1299.21 Q104.557 1299.21 102.728 1302.77 Q100.922 1306.31 100.922 1313.44 Q100.922 1320.55 102.728 1324.11 Q104.557 1327.65 108.168 1327.65 Q111.802 1327.65 113.608 1324.11 Q115.436 1320.55 115.436 1313.44 Q115.436 1306.31 113.608 1302.77 Q111.802 1299.21 108.168 1299.21 M108.168 1295.5 Q113.978 1295.5 117.033 1300.11 Q120.112 1304.69 120.112 1313.44 Q120.112 1322.17 117.033 1326.78 Q113.978 1331.36 108.168 1331.36 Q102.358 1331.36 99.2789 1326.78 Q96.2234 1322.17 96.2234 1313.44 Q96.2234 1304.69 99.2789 1300.11 Q102.358 1295.5 108.168 1295.5 Z" fill="#000000" fill-rule="nonzero" fill-opacity="1"></path><path clip-path="url(#clip670)" d="M63.9319 1015.84 Q60.3208 1015.84 58.4921 1019.41 Q56.6865 1022.95 56.6865 1030.08 Q56.6865 1037.19 58.4921 1040.75 Q60.3208 1044.29 63.9319 1044.29 Q67.5661 1044.29 69.3717 1040.75 Q71.2004 1037.19 71.2004 1030.08 Q71.2004 1022.95 69.3717 1019.41 Q67.5661 1015.84 63.9319 1015.84 M63.9319 1012.14 Q69.742 1012.14 72.7976 1016.75 Q75.8763 1021.33 75.8763 1030.08 Q75.8763 1038.81 72.7976 1043.41 Q69.742 1048 63.9319 1048 Q58.1217 1048 55.043 1043.41 Q51.9875 1038.81 51.9875 1030.08 Q51.9875 1021.33 55.043 1016.75 Q58.1217 1012.14 63.9319 1012.14 Z" fill="#000000" fill-rule="nonzero" fill-opacity="1"></path><path clip-path="url(#clip670)" d="M84.0938 1041.45 L88.978 1041.45 L88.978 1047.32 L84.0938 1047.32 L84.0938 1041.45 Z" fill="#000000" fill-rule="nonzero" fill-opacity="1"></path><path clip-path="url(#clip670)" d="M99.2095 1012.76 L117.566 1012.76 L117.566 1016.7 L103.492 1016.7 L103.492 1025.17 Q104.51 1024.83 105.529 1024.66 Q106.547 1024.48 107.566 1024.48 Q113.353 1024.48 116.733 1027.65 Q120.112 1030.82 120.112 1036.24 Q120.112 1041.82 116.64 1044.92 Q113.168 1048 106.848 1048 Q104.672 1048 102.404 1047.63 Q100.159 1047.26 97.7511 1046.51 L97.7511 1041.82 Q99.8345 1042.95 102.057 1043.51 Q104.279 1044.06 106.756 1044.06 Q110.76 1044.06 113.098 1041.95 Q115.436 1039.85 115.436 1036.24 Q115.436 1032.63 113.098 1030.52 Q110.76 1028.41 106.756 1028.41 Q104.881 1028.41 103.006 1028.83 Q101.154 1029.25 99.2095 1030.13 L99.2095 1012.76 Z" fill="#000000" fill-rule="nonzero" fill-opacity="1"></path><path clip-path="url(#clip670)" d="M53.7467 760.028 L61.3856 760.028 L61.3856 733.662 L53.0754 735.329 L53.0754 731.069 L61.3393 729.403 L66.0152 729.403 L66.0152 760.028 L73.654 760.028 L73.654 763.963 L53.7467 763.963 L53.7467 760.028 Z" fill="#000000" fill-rule="nonzero" fill-opacity="1"></path><path clip-path="url(#clip670)" d="M83.0984 758.083 L87.9827 758.083 L87.9827 763.963 L83.0984 763.963 L83.0984 758.083 Z" fill="#000000" fill-rule="nonzero" fill-opacity="1"></path><path clip-path="url(#clip670)" d="M108.168 732.481 Q104.557 732.481 102.728 736.046 Q100.922 739.588 100.922 746.717 Q100.922 753.824 102.728 757.389 Q104.557 760.93 108.168 760.93 Q111.802 760.93 113.608 757.389 Q115.436 753.824 115.436 746.717 Q115.436 739.588 113.608 736.046 Q111.802 732.481 108.168 732.481 M108.168 728.778 Q113.978 728.778 117.033 733.384 Q120.112 737.967 120.112 746.717 Q120.112 755.444 117.033 760.051 Q113.978 764.634 108.168 764.634 Q102.358 764.634 99.2789 760.051 Q96.2234 755.444 96.2234 746.717 Q96.2234 737.967 99.2789 733.384 Q102.358 728.778 108.168 728.778 Z" fill="#000000" fill-rule="nonzero" fill-opacity="1"></path><path clip-path="url(#clip670)" d="M54.7421 476.665 L62.381 476.665 L62.381 450.3 L54.0708 451.966 L54.0708 447.707 L62.3347 446.04 L67.0106 446.04 L67.0106 476.665 L74.6494 476.665 L74.6494 480.6 L54.7421 480.6 L54.7421 476.665 Z" fill="#000000" fill-rule="nonzero" fill-opacity="1"></path><path clip-path="url(#clip670)" d="M84.0938 474.721 L88.978 474.721 L88.978 480.6 L84.0938 480.6 L84.0938 474.721 Z" fill="#000000" fill-rule="nonzero" fill-opacity="1"></path><path clip-path="url(#clip670)" d="M99.2095 446.04 L117.566 446.04 L117.566 449.976 L103.492 449.976 L103.492 458.448 Q104.51 458.101 105.529 457.938 Q106.547 457.753 107.566 457.753 Q113.353 457.753 116.733 460.925 Q120.112 464.096 120.112 469.512 Q120.112 475.091 116.64 478.193 Q113.168 481.272 106.848 481.272 Q104.672 481.272 102.404 480.901 Q100.159 480.531 97.7511 479.79 L97.7511 475.091 Q99.8345 476.225 102.057 476.781 Q104.279 477.337 106.756 477.337 Q110.76 477.337 113.098 475.23 Q115.436 473.124 115.436 469.512 Q115.436 465.901 113.098 463.795 Q110.76 461.688 106.756 461.688 Q104.881 461.688 103.006 462.105 Q101.154 462.522 99.2095 463.401 L99.2095 446.04 Z" fill="#000000" fill-rule="nonzero" fill-opacity="1"></path><path clip-path="url(#clip670)" d="M56.9643 193.303 L73.2837 193.303 L73.2837 197.238 L51.3393 197.238 L51.3393 193.303 Q54.0014 190.548 58.5847 185.919 Q63.1911 181.266 64.3717 179.923 Q66.617 177.4 67.4967 175.664 Q68.3994 173.905 68.3994 172.215 Q68.3994 169.46 66.455 167.724 Q64.5337 165.988 61.4319 165.988 Q59.2328 165.988 56.7791 166.752 Q54.3486 167.516 51.5708 169.067 L51.5708 164.345 Q54.3949 163.211 56.8486 162.632 Q59.3023 162.053 61.3393 162.053 Q66.7096 162.053 69.9041 164.738 Q73.0985 167.423 73.0985 171.914 Q73.0985 174.044 72.2883 175.965 Q71.5013 177.863 69.3948 180.456 Q68.8161 181.127 65.7143 184.345 Q62.6124 187.539 56.9643 193.303 Z" fill="#000000" fill-rule="nonzero" fill-opacity="1"></path><path clip-path="url(#clip670)" d="M83.0984 191.358 L87.9827 191.358 L87.9827 197.238 L83.0984 197.238 L83.0984 191.358 Z" fill="#000000" fill-rule="nonzero" fill-opacity="1"></path><path clip-path="url(#clip670)" d="M108.168 165.757 Q104.557 165.757 102.728 169.322 Q100.922 172.863 100.922 179.993 Q100.922 187.099 102.728 190.664 Q104.557 194.206 108.168 194.206 Q111.802 194.206 113.608 190.664 Q115.436 187.099 115.436 179.993 Q115.436 172.863 113.608 169.322 Q111.802 165.757 108.168 165.757 M108.168 162.053 Q113.978 162.053 117.033 166.66 Q120.112 171.243 120.112 179.993 Q120.112 188.72 117.033 193.326 Q113.978 197.909 108.168 197.909 Q102.358 197.909 99.2789 193.326 Q96.2234 188.72 96.2234 179.993 Q96.2234 171.243 99.2789 166.66 Q102.358 162.053 108.168 162.053 Z" fill="#000000" fill-rule="nonzero" fill-opacity="1"></path><path clip-path="url(#clip670)" d="M993.13 63.9476 L993.13 47.7034 L979.762 47.7034 L979.762 40.9789 L1001.23 40.9789 L1001.23 66.9452 Q996.493 70.3075 990.781 72.0494 Q985.069 73.7508 978.588 73.7508 Q964.41 73.7508 956.389 65.4869 Q948.408 57.1826 948.408 42.3968 Q948.408 27.5705 956.389 19.3066 Q964.41 11.0023 978.588 11.0023 Q984.502 11.0023 989.809 12.4606 Q995.156 13.9189 999.652 16.7545 L999.652 25.464 Q995.115 21.6156 990.011 19.6712 Q984.907 17.7268 979.276 17.7268 Q968.177 17.7268 962.587 23.9246 Q957.037 30.1225 957.037 42.3968 Q957.037 54.6305 962.587 60.8284 Q968.177 67.0263 979.276 67.0263 Q983.611 67.0263 987.014 66.2971 Q990.416 65.5274 993.13 63.9476 Z" fill="#000000" fill-rule="nonzero" fill-opacity="1"></path><path clip-path="url(#clip670)" d="M1036.48 49.7694 Q1027.44 49.7694 1023.96 51.8354 Q1020.47 53.9013 1020.47 58.8839 Q1020.47 62.8538 1023.07 65.2034 Q1025.7 67.5124 1030.2 67.5124 Q1036.39 67.5124 1040.12 63.1374 Q1043.89 58.7219 1043.89 51.4303 L1043.89 49.7694 L1036.48 49.7694 M1051.34 46.6907 L1051.34 72.576 L1043.89 72.576 L1043.89 65.6895 Q1041.34 69.8214 1037.53 71.8063 Q1033.72 73.7508 1028.21 73.7508 Q1021.24 73.7508 1017.11 69.8619 Q1013.02 65.9325 1013.02 59.3701 Q1013.02 51.7138 1018.12 47.825 Q1023.27 43.9361 1033.44 43.9361 L1043.89 43.9361 L1043.89 43.2069 Q1043.89 38.0623 1040.49 35.2672 Q1037.12 32.4315 1031.01 32.4315 Q1027.12 32.4315 1023.43 33.3632 Q1019.74 34.295 1016.34 36.1584 L1016.34 29.2718 Q1020.43 27.692 1024.28 26.9223 Q1028.13 26.1121 1031.78 26.1121 Q1041.62 26.1121 1046.48 31.2163 Q1051.34 36.3204 1051.34 46.6907 Z" fill="#000000" fill-rule="nonzero" fill-opacity="1"></path><path clip-path="url(#clip670)" d="M1066.69 27.2059 L1074.15 27.2059 L1074.15 72.576 L1066.69 72.576 L1066.69 27.2059 M1066.69 9.54393 L1074.15 9.54393 L1074.15 18.9825 L1066.69 18.9825 L1066.69 9.54393 Z" fill="#000000" fill-rule="nonzero" fill-opacity="1"></path><path clip-path="url(#clip670)" d="M1127.46 45.1919 L1127.46 72.576 L1120 72.576 L1120 45.4349 Q1120 38.994 1117.49 35.7938 Q1114.98 32.5936 1109.96 32.5936 Q1103.92 32.5936 1100.44 36.4419 Q1096.96 40.2903 1096.96 46.9338 L1096.96 72.576 L1089.46 72.576 L1089.46 27.2059 L1096.96 27.2059 L1096.96 34.2544 Q1099.63 30.163 1103.23 28.1376 Q1106.88 26.1121 1111.62 26.1121 Q1119.44 26.1121 1123.45 30.9732 Q1127.46 35.7938 1127.46 45.1919 Z" fill="#000000" fill-rule="nonzero" fill-opacity="1"></path><path clip-path="url(#clip670)" d="M1169.02 12.096 L1181.21 12.096 L1196.65 53.2532 L1212.16 12.096 L1224.36 12.096 L1224.36 72.576 L1216.38 72.576 L1216.38 19.4686 L1200.78 60.9499 L1192.56 60.9499 L1176.96 19.4686 L1176.96 72.576 L1169.02 72.576 L1169.02 12.096 Z" fill="#000000" fill-rule="nonzero" fill-opacity="1"></path><path clip-path="url(#clip670)" d="M1260.9 49.7694 Q1251.86 49.7694 1248.38 51.8354 Q1244.89 53.9013 1244.89 58.8839 Q1244.89 62.8538 1247.49 65.2034 Q1250.12 67.5124 1254.62 67.5124 Q1260.81 67.5124 1264.54 63.1374 Q1268.31 58.7219 1268.31 51.4303 L1268.31 49.7694 L1260.9 49.7694 M1275.76 46.6907 L1275.76 72.576 L1268.31 72.576 L1268.31 65.6895 Q1265.76 69.8214 1261.95 71.8063 Q1258.14 73.7508 1252.63 73.7508 Q1245.66 73.7508 1241.53 69.8619 Q1237.44 65.9325 1237.44 59.3701 Q1237.44 51.7138 1242.54 47.825 Q1247.69 43.9361 1257.86 43.9361 L1268.31 43.9361 L1268.31 43.2069 Q1268.31 38.0623 1264.91 35.2672 Q1261.54 32.4315 1255.43 32.4315 Q1251.54 32.4315 1247.85 33.3632 Q1244.16 34.295 1240.76 36.1584 L1240.76 29.2718 Q1244.85 27.692 1248.7 26.9223 Q1252.55 26.1121 1256.2 26.1121 Q1266.04 26.1121 1270.9 31.2163 Q1275.76 36.3204 1275.76 46.6907 Z" fill="#000000" fill-rule="nonzero" fill-opacity="1"></path><path clip-path="url(#clip670)" d="M1298.49 14.324 L1298.49 27.2059 L1313.84 27.2059 L1313.84 32.9987 L1298.49 32.9987 L1298.49 57.6282 Q1298.49 63.1779 1299.99 64.7578 Q1301.53 66.3376 1306.18 66.3376 L1313.84 66.3376 L1313.84 72.576 L1306.18 72.576 Q1297.56 72.576 1294.27 69.3758 Q1290.99 66.1351 1290.99 57.6282 L1290.99 32.9987 L1285.52 32.9987 L1285.52 27.2059 L1290.99 27.2059 L1290.99 14.324 L1298.49 14.324 Z" fill="#000000" fill-rule="nonzero" fill-opacity="1"></path><path clip-path="url(#clip670)" d="M1349.93 34.1734 Q1348.68 33.4443 1347.18 33.1202 Q1345.72 32.7556 1343.94 32.7556 Q1337.62 32.7556 1334.22 36.8875 Q1330.85 40.9789 1330.85 48.6757 L1330.85 72.576 L1323.36 72.576 L1323.36 27.2059 L1330.85 27.2059 L1330.85 34.2544 Q1333.2 30.1225 1336.97 28.1376 Q1340.74 26.1121 1346.13 26.1121 Q1346.9 26.1121 1347.83 26.2337 Q1348.76 26.3147 1349.89 26.5172 L1349.93 34.1734 Z" fill="#000000" fill-rule="nonzero" fill-opacity="1"></path><path clip-path="url(#clip670)" d="M1357.75 27.2059 L1365.21 27.2059 L1365.21 72.576 L1357.75 72.576 L1357.75 27.2059 M1357.75 9.54393 L1365.21 9.54393 L1365.21 18.9825 L1357.75 18.9825 L1357.75 9.54393 Z" fill="#000000" fill-rule="nonzero" fill-opacity="1"></path><path clip-path="url(#clip670)" d="M1418.52 27.2059 L1402.11 49.2833 L1419.37 72.576 L1410.58 72.576 L1397.37 54.752 L1384.16 72.576 L1375.37 72.576 L1393 48.8377 L1376.87 27.2059 L1385.66 27.2059 L1397.69 43.369 L1409.73 27.2059 L1418.52 27.2059 Z" fill="#000000" fill-rule="nonzero" fill-opacity="1"></path><path clip-path="url(#clip670)" d="M1474.18 9.62495 Q1468.75 18.942 1466.11 28.0566 Q1463.48 37.1711 1463.48 46.5287 Q1463.48 55.8863 1466.11 65.0818 Q1468.79 74.2369 1474.18 83.5134 L1467.69 83.5134 Q1461.62 73.9938 1458.58 64.7983 Q1455.58 55.6027 1455.58 46.5287 Q1455.58 37.4952 1458.58 28.3401 Q1461.58 19.1851 1467.69 9.62495 L1474.18 9.62495 Z" fill="#000000" fill-rule="nonzero" fill-opacity="1"></path><path clip-path="url(#clip670)" d="M1488.96 12.096 L1497.14 12.096 L1497.14 37.6572 L1524.29 12.096 L1534.82 12.096 L1504.8 40.2903 L1536.96 72.576 L1526.19 72.576 L1497.14 43.45 L1497.14 72.576 L1488.96 72.576 L1488.96 12.096 Z" fill="#000000" fill-rule="nonzero" fill-opacity="1"></path><path clip-path="url(#clip670)" d="M1541.87 9.62495 L1548.35 9.62495 Q1554.42 19.1851 1557.42 28.3401 Q1560.46 37.4952 1560.46 46.5287 Q1560.46 55.6027 1557.42 64.7983 Q1554.42 73.9938 1548.35 83.5134 L1541.87 83.5134 Q1547.25 74.2369 1549.89 65.0818 Q1552.56 55.8863 1552.56 46.5287 Q1552.56 37.1711 1549.89 28.0566 Q1547.25 18.942 1541.87 9.62495 Z" fill="#000000" fill-rule="nonzero" fill-opacity="1"></path><polyline clip-path="url(#clip672)" style="stroke:#009af9; stroke-linecap:round; stroke-linejoin:round; stroke-width:4; stroke-opacity:1; fill:none" points="218.281,595.269 239.214,595.269 260.146,595.269 281.078,595.269 302.011,595.269 322.943,595.269 343.876,595.269 364.808,595.269 385.74,595.269 406.673,595.269 427.605,595.269 448.537,595.269 469.47,595.269 490.402,595.269 511.335,595.269 532.267,595.269 553.199,595.269 574.132,595.269 595.064,595.269 615.996,595.269 636.929,595.269 657.861,595.269 678.794,595.269 699.726,595.269 720.658,595.269 741.591,595.269 762.523,595.269 783.456,595.269 804.388,595.269 825.32,595.269 846.253,595.269 867.185,595.269 888.117,595.269 909.05,595.269 929.982,595.269 950.915,595.269 971.847,595.269 992.779,595.269 1013.71,595.268 1034.64,595.267 1055.58,595.266 1076.51,595.265 1097.44,595.264 1118.37,595.262 1139.31,595.259 1160.24,595.256 1181.17,595.252 1202.1,595.248 1223.04,595.242 1243.97,595.236 1264.9,595.228 1285.83,595.22 1306.76,595.211 1327.7,595.202 1348.63,595.192 1369.56,595.184 1390.49,595.178 1411.43,595.176 1432.36,595.181 1453.29,595.197 1474.22,595.23 1495.16,595.285 1516.09,595.374 1537.02,595.508 1557.95,595.705 1578.89,595.986 1599.82,596.379 1620.75,596.92 1641.68,597.656 1662.62,598.643 1683.55,599.955 1704.48,601.68 1725.41,603.93 1746.34,606.839 1767.28,610.569 1788.21,615.315 1809.14,621.303 1830.07,628.798 1851.01,638.098 1871.94,649.536 1892.87,663.47 1913.8,680.273 1934.74,700.313 1955.67,723.928 1976.6,751.398 1997.53,782.902 2018.47,818.483 2039.4,858.013 2060.33,901.162 2081.26,947.389 2102.2,995.948 2123.13,1045.93 2144.06,1096.29 2164.99,1145.97 2185.92,1193.92 2206.86,1239.2 2227.79,1281.09 2248.72,1319.13 2269.65,1353.27 2290.59,1384.1 "></polyline>
<polyline clip-path="url(#clip672)" style="stroke:#e26f46; stroke-linecap:round; stroke-linejoin:round; stroke-width:4; stroke-opacity:1; fill:none" points="218.281,1313.41 239.214,1313.41 260.146,1313.41 281.078,1313.41 302.011,1313.41 322.943,1313.41 343.876,1313.41 364.808,1313.41 385.74,1313.41 406.673,1313.41 427.605,1313.41 448.537,1313.41 469.47,1313.41 490.402,1313.41 511.335,1313.41 532.267,1313.41 553.199,1313.41 574.132,1313.41 595.064,1313.41 615.996,1313.41 636.929,1313.41 657.861,1313.41 678.794,1313.41 699.726,1313.41 720.658,1313.41 741.591,1313.41 762.523,1313.41 783.456,1313.41 804.388,1313.41 825.32,1313.41 846.253,1313.41 867.185,1313.41 888.117,1313.41 909.05,1313.41 929.982,1313.41 950.915,1313.41 971.847,1313.41 992.779,1313.41 1013.71,1313.41 1034.64,1313.41 1055.58,1313.41 1076.51,1313.41 1097.44,1313.41 1118.37,1313.41 1139.31,1313.41 1160.24,1313.41 1181.17,1313.4 1202.1,1313.4 1223.04,1313.4 1243.97,1313.4 1264.9,1313.4 1285.83,1313.39 1306.76,1313.39 1327.7,1313.38 1348.63,1313.38 1369.56,1313.37 1390.49,1313.36 1411.43,1313.35 1432.36,1313.33 1453.29,1313.31 1474.22,1313.29 1495.16,1313.27 1516.09,1313.24 1537.02,1313.2 1557.95,1313.17 1578.89,1313.12 1599.82,1313.07 1620.75,1313.02 1641.68,1312.97 1662.62,1312.91 1683.55,1312.86 1704.48,1312.82 1725.41,1312.79 1746.34,1312.79 1767.28,1312.83 1788.21,1312.92 1809.14,1313.09 1830.07,1313.37 1851.01,1313.8 1871.94,1314.4 1892.87,1315.24 1913.8,1316.37 1934.74,1317.85 1955.67,1319.75 1976.6,1322.13 1997.53,1325.04 2018.47,1328.53 2039.4,1332.6 2060.33,1337.23 2081.26,1342.35 2102.2,1347.85 2123.13,1353.57 2144.06,1359.31 2164.99,1364.86 2185.92,1370 2206.86,1374.58 2227.79,1378.47 2248.72,1381.66 2269.65,1384.23 2290.59,1386.4 "></polyline>
<polyline clip-path="url(#clip672)" style="stroke:#3da44d; stroke-linecap:round; stroke-linejoin:round; stroke-width:4; stroke-opacity:1; fill:none" points="218.281,1313.41 239.214,1313.41 260.146,1313.41 281.078,1313.41 302.011,1313.41 322.943,1313.41 343.876,1313.41 364.808,1313.41 385.74,1313.41 406.673,1313.41 427.605,1313.41 448.537,1313.41 469.47,1313.41 490.402,1313.41 511.335,1313.41 532.267,1313.41 553.199,1313.41 574.132,1313.41 595.064,1313.41 615.996,1313.41 636.929,1313.41 657.861,1313.41 678.794,1313.41 699.726,1313.41 720.658,1313.41 741.591,1313.41 762.523,1313.41 783.456,1313.41 804.388,1313.41 825.32,1313.41 846.253,1313.41 867.185,1313.41 888.117,1313.41 909.05,1313.41 929.982,1313.41 950.915,1313.41 971.847,1313.41 992.779,1313.41 1013.71,1313.41 1034.64,1313.41 1055.58,1313.41 1076.51,1313.41 1097.44,1313.41 1118.37,1313.41 1139.31,1313.4 1160.24,1313.4 1181.17,1313.4 1202.1,1313.4 1223.04,1313.4 1243.97,1313.4 1264.9,1313.39 1285.83,1313.39 1306.76,1313.38 1327.7,1313.38 1348.63,1313.37 1369.56,1313.36 1390.49,1313.35 1411.43,1313.33 1432.36,1313.31 1453.29,1313.29 1474.22,1313.26 1495.16,1313.23 1516.09,1313.19 1537.02,1313.15 1557.95,1313.1 1578.89,1313.03 1599.82,1312.97 1620.75,1312.89 1641.68,1312.8 1662.62,1312.7 1683.55,1312.6 1704.48,1312.5 1725.41,1312.39 1746.34,1312.29 1767.28,1312.21 1788.21,1312.16 1809.14,1312.15 1830.07,1312.21 1851.01,1312.35 1871.94,1312.62 1892.87,1313.06 1913.8,1313.7 1934.74,1314.59 1955.67,1315.78 1976.6,1317.33 1997.53,1319.26 2018.47,1321.6 2039.4,1324.36 2060.33,1327.51 2081.26,1330.98 2102.2,1334.67 2123.13,1338.46 2144.06,1342.2 2164.99,1345.76 2185.92,1349.03 2206.86,1352.02 2227.79,1354.84 2248.72,1357.8 2269.65,1361.51 2290.59,1367.01 "></polyline>
<polyline clip-path="url(#clip672)" style="stroke:#c271d2; stroke-linecap:round; stroke-linejoin:round; stroke-width:4; stroke-opacity:1; fill:none" points="218.281,595.269 239.214,595.269 260.146,595.269 281.078,595.269 302.011,595.269 322.943,595.269 343.876,595.269 364.808,595.269 385.74,595.269 406.673,595.269 427.605,595.269 448.537,595.269 469.47,595.269 490.402,595.269 511.335,595.269 532.267,595.269 553.199,595.269 574.132,595.269 595.064,595.269 615.996,595.269 636.929,595.269 657.861,595.269 678.794,595.269 699.726,595.269 720.658,595.269 741.591,595.269 762.523,595.269 783.456,595.269 804.388,595.269 825.32,595.269 846.253,595.27 867.185,595.27 888.117,595.27 909.05,595.27 929.982,595.27 950.915,595.27 971.847,595.271 992.779,595.271 1013.71,595.272 1034.64,595.272 1055.58,595.273 1076.51,595.273 1097.44,595.274 1118.37,595.275 1139.31,595.277 1160.24,595.278 1181.17,595.28 1202.1,595.282 1223.04,595.284 1243.97,595.287 1264.9,595.291 1285.83,595.295 1306.76,595.299 1327.7,595.305 1348.63,595.312 1369.56,595.32 1390.49,595.33 1411.43,595.342 1432.36,595.358 1453.29,595.377 1474.22,595.401 1495.16,595.432 1516.09,595.471 1537.02,595.522 1557.95,595.589 1578.89,595.675 1599.82,595.788 1620.75,595.936 1641.68,596.131 1662.62,596.388 1683.55,596.725 1704.48,597.169 1725.41,597.752 1746.34,598.517 1767.28,599.517 1788.21,600.824 1809.14,602.526 1830.07,604.734 1851.01,607.592 1871.94,611.276 1892.87,616.004 1913.8,622.046 1934.74,629.727 1955.67,639.436 1976.6,651.628 1997.53,666.828 2018.47,685.619 2039.4,708.627 2060.33,736.492 2081.26,769.818 2102.2,809.112 2123.13,854.701 2144.06,906.643 2164.99,964.646 2185.92,1028 2206.86,1095.57 2227.79,1165.81 2248.72,1236.88 2269.65,1306.77 2290.59,1373.52 "></polyline>
<polyline clip-path="url(#clip672)" style="stroke:#ac8d18; stroke-linecap:round; stroke-linejoin:round; stroke-width:4; stroke-opacity:1; fill:none" points="218.281,160.283 239.214,160.283 260.146,160.283 281.078,160.283 302.011,160.283 322.943,160.283 343.876,160.283 364.808,160.283 385.74,160.283 406.673,160.283 427.605,160.283 448.537,160.283 469.47,160.283 490.402,160.283 511.335,160.283 532.267,160.283 553.199,160.283 574.132,160.283 595.064,160.283 615.996,160.283 636.929,160.283 657.861,160.283 678.794,160.283 699.726,160.283 720.658,160.283 741.591,160.283 762.523,160.283 783.456,160.283 804.388,160.283 825.32,160.283 846.253,160.283 867.185,160.283 888.117,160.283 909.05,160.283 929.982,160.283 950.915,160.282 971.847,160.282 992.779,160.282 1013.71,160.281 1034.64,160.281 1055.58,160.28 1076.51,160.279 1097.44,160.277 1118.37,160.276 1139.31,160.274 1160.24,160.272 1181.17,160.27 1202.1,160.267 1223.04,160.264 1243.97,160.262 1264.9,160.259 1285.83,160.257 1306.76,160.256 1327.7,160.257 1348.63,160.261 1369.56,160.269 1390.49,160.283 1411.43,160.307 1432.36,160.342 1453.29,160.395 1474.22,160.471 1495.16,160.579 1516.09,160.727 1537.02,160.93 1557.95,161.204 1578.89,161.571 1599.82,162.055 1620.75,162.691 1641.68,163.518 1662.62,164.586 1683.55,165.956 1704.48,167.7 1725.41,169.905 1746.34,172.674 1767.28,176.127 1788.21,180.402 1809.14,185.654 1830.07,192.055 1851.01,199.788 1871.94,209.042 1892.87,220.003 1913.8,232.837 1934.74,247.671 1955.67,264.57 1976.6,283.509 1997.53,304.336 2018.47,326.749 2039.4,350.26 2060.33,374.173 2081.26,397.578 2102.2,419.334 2123.13,438.076 2144.06,452.197 2164.99,459.812 2185.92,458.655 2206.86,445.878 2227.79,417.644 2248.72,368.368 2269.65,289.206 2290.59,164.876 "></polyline>
<polyline clip-path="url(#clip672)" style="stroke:#00a9ad; stroke-linecap:round; stroke-linejoin:round; stroke-width:4; stroke-opacity:1; fill:none" points="218.281,1313.41 239.214,1313.41 260.146,1313.41 281.078,1313.41 302.011,1313.41 322.943,1313.41 343.876,1313.41 364.808,1313.41 385.74,1313.41 406.673,1313.41 427.605,1313.41 448.537,1313.41 469.47,1313.41 490.402,1313.41 511.335,1313.41 532.267,1313.41 553.199,1313.41 574.132,1313.41 595.064,1313.41 615.996,1313.41 636.929,1313.41 657.861,1313.41 678.794,1313.41 699.726,1313.41 720.658,1313.41 741.591,1313.41 762.523,1313.41 783.456,1313.41 804.388,1313.41 825.32,1313.41 846.253,1313.41 867.185,1313.41 888.117,1313.41 909.05,1313.41 929.982,1313.41 950.915,1313.41 971.847,1313.41 992.779,1313.41 1013.71,1313.41 1034.64,1313.41 1055.58,1313.41 1076.51,1313.41 1097.44,1313.41 1118.37,1313.41 1139.31,1313.4 1160.24,1313.4 1181.17,1313.4 1202.1,1313.4 1223.04,1313.4 1243.97,1313.4 1264.9,1313.4 1285.83,1313.39 1306.76,1313.39 1327.7,1313.38 1348.63,1313.38 1369.56,1313.37 1390.49,1313.36 1411.43,1313.35 1432.36,1313.34 1453.29,1313.33 1474.22,1313.31 1495.16,1313.29 1516.09,1313.27 1537.02,1313.25 1557.95,1313.22 1578.89,1313.2 1599.82,1313.17 1620.75,1313.14 1641.68,1313.12 1662.62,1313.1 1683.55,1313.1 1704.48,1313.1 1725.41,1313.13 1746.34,1313.19 1767.28,1313.29 1788.21,1313.45 1809.14,1313.68 1830.07,1314 1851.01,1314.44 1871.94,1315.03 1892.87,1315.78 1913.8,1316.74 1934.74,1317.94 1955.67,1319.38 1976.6,1321.09 1997.53,1323.06 2018.47,1325.25 2039.4,1327.61 2060.33,1330.02 2081.26,1332.35 2102.2,1334.37 2123.13,1335.86 2144.06,1336.52 2164.99,1336.02 2185.92,1334.01 2206.86,1330.11 2227.79,1323.86 2248.72,1314.67 2269.65,1301.67 2290.59,1283.35 "></polyline>
<polyline clip-path="url(#clip672)" style="stroke:#ed5d92; stroke-linecap:round; stroke-linejoin:round; stroke-width:4; stroke-opacity:1; fill:none" points="218.281,1313.41 239.214,1313.41 260.146,1313.41 281.078,1313.41 302.011,1313.41 322.943,1313.41 343.876,1313.41 364.808,1313.41 385.74,1313.41 406.673,1313.41 427.605,1313.41 448.537,1313.41 469.47,1313.41 490.402,1313.41 511.335,1313.41 532.267,1313.41 553.199,1313.41 574.132,1313.41 595.064,1313.41 615.996,1313.41 636.929,1313.41 657.861,1313.41 678.794,1313.41 699.726,1313.41 720.658,1313.41 741.591,1313.41 762.523,1313.41 783.456,1313.41 804.388,1313.41 825.32,1313.41 846.253,1313.41 867.185,1313.41 888.117,1313.41 909.05,1313.41 929.982,1313.41 950.915,1313.41 971.847,1313.41 992.779,1313.41 1013.71,1313.41 1034.64,1313.41 1055.58,1313.41 1076.51,1313.41 1097.44,1313.41 1118.37,1313.41 1139.31,1313.4 1160.24,1313.4 1181.17,1313.4 1202.1,1313.4 1223.04,1313.4 1243.97,1313.4 1264.9,1313.4 1285.83,1313.39 1306.76,1313.39 1327.7,1313.38 1348.63,1313.38 1369.56,1313.37 1390.49,1313.36 1411.43,1313.35 1432.36,1313.34 1453.29,1313.32 1474.22,1313.31 1495.16,1313.29 1516.09,1313.27 1537.02,1313.25 1557.95,1313.22 1578.89,1313.19 1599.82,1313.17 1620.75,1313.14 1641.68,1313.11 1662.62,1313.09 1683.55,1313.08 1704.48,1313.09 1725.41,1313.11 1746.34,1313.17 1767.28,1313.26 1788.21,1313.41 1809.14,1313.63 1830.07,1313.94 1851.01,1314.37 1871.94,1314.94 1892.87,1315.67 1913.8,1316.61 1934.74,1317.77 1955.67,1319.18 1976.6,1320.85 1997.53,1322.77 2018.47,1324.9 2039.4,1327.2 2060.33,1329.54 2081.26,1331.78 2102.2,1333.72 2123.13,1335.11 2144.06,1335.66 2164.99,1335.07 2185.92,1332.97 2206.86,1328.98 2227.79,1322.68 2248.72,1313.48 2269.65,1300.54 2290.59,1282.38 "></polyline>
<polyline clip-path="url(#clip672)" style="stroke:#c68125; stroke-linecap:round; stroke-linejoin:round; stroke-width:4; stroke-opacity:1; fill:none" points="218.281,160.283 239.214,160.283 260.146,160.283 281.078,160.283 302.011,160.283 322.943,160.283 343.876,160.283 364.808,160.283 385.74,160.283 406.673,160.283 427.605,160.283 448.537,160.283 469.47,160.283 490.402,160.283 511.335,160.283 532.267,160.283 553.199,160.283 574.132,160.283 595.064,160.283 615.996,160.283 636.929,160.283 657.861,160.283 678.794,160.283 699.726,160.283 720.658,160.283 741.591,160.283 762.523,160.283 783.456,160.283 804.388,160.283 825.32,160.283 846.253,160.283 867.185,160.283 888.117,160.284 909.05,160.284 929.982,160.284 950.915,160.284 971.847,160.284 992.779,160.285 1013.71,160.285 1034.64,160.285 1055.58,160.286 1076.51,160.286 1097.44,160.287 1118.37,160.288 1139.31,160.289 1160.24,160.29 1181.17,160.291 1202.1,160.293 1223.04,160.295 1243.97,160.297 1264.9,160.3 1285.83,160.303 1306.76,160.307 1327.7,160.313 1348.63,160.319 1369.56,160.327 1390.49,160.337 1411.43,160.35 1432.36,160.366 1453.29,160.388 1474.22,160.415 1495.16,160.451 1516.09,160.497 1537.02,160.557 1557.95,160.636 1578.89,160.739 1599.82,160.874 1620.75,161.05 1641.68,161.28 1662.62,161.581 1683.55,161.972 1704.48,162.482 1725.41,163.143 1746.34,164 1767.28,165.107 1788.21,166.533 1809.14,168.366 1830.07,170.712 1851.01,173.706 1871.94,177.513 1892.87,182.334 1913.8,188.412 1934.74,196.036 1955.67,205.546 1976.6,217.335 1997.53,231.845 2018.47,249.558 2039.4,270.981 2060.33,296.617 2081.26,326.923 2102.2,362.259 2123.13,402.823 2144.06,448.587 2164.99,499.244 2185.92,554.17 2206.86,612.434 2227.79,672.855 2248.72,734.094 2269.65,794.785 2290.59,853.653 "></polyline>
</svg>