<svg xmlns="http://www.w3.org/2000/svg" xmlns:xlink="http://www.w3.org/1999/xlink" width="600" height="400" viewBox="0 0 2400 1600">
<defs>
  <clipPath id="clip630">
    <rect x="0" y="0" width="2400" height="1600"></rect>
  </clipPath>
</defs>
<path clip-path="url(#clip630)" d="M0 1600 L2400 1600 L2400 0 L0 0  Z" fill="#ffffff" fill-rule="evenodd" fill-opacity="1"></path>
<defs>
  <clipPath id="clip631">
    <rect x="480" y="0" width="1681" height="1600"></rect>
  </clipPath>
</defs>
<path clip-path="url(#clip630)" d="M138.959 1423.18 L2352.76 1423.18 L2352.76 123.472 L138.959 123.472  Z" fill="#ffffff" fill-rule="evenodd" fill-opacity="1"></path>
<defs>
  <clipPath id="clip632">
    <rect x="138" y="123" width="2215" height="1301"></rect>
  </clipPath>
</defs>
<polyline clip-path="url(#clip632)" style="stroke:#000000; stroke-linecap:round; stroke-linejoin:round; stroke-width:2; stroke-opacity:0.1; fill:none" points="201.614,1423.18 201.614,123.472 "></polyline>
<polyline clip-path="url(#clip632)" style="stroke:#000000; stroke-linecap:round; stroke-linejoin:round; stroke-width:2; stroke-opacity:0.1; fill:none" points="723.736,1423.18 723.736,123.472 "></polyline>
<polyline clip-path="url(#clip632)" style="stroke:#000000; stroke-linecap:round; stroke-linejoin:round; stroke-width:2; stroke-opacity:0.1; fill:none" points="1245.86,1423.18 1245.86,123.472 "></polyline>
<polyline clip-path="url(#clip632)" style="stroke:#000000; stroke-linecap:round; stroke-linejoin:round; stroke-width:2; stroke-opacity:0.1; fill:none" points="1767.98,1423.18 1767.98,123.472 "></polyline>
<polyline clip-path="url(#clip632)" style="stroke:#000000; stroke-linecap:round; stroke-linejoin:round; stroke-width:2; stroke-opacity:0.1; fill:none" points="2290.1,1423.18 2290.1,123.472 "></polyline>
<polyline clip-path="url(#clip632)" style="stroke:#000000; stroke-linecap:round; stroke-linejoin:round; stroke-width:2; stroke-opacity:0.1; fill:none" points="138.959,1324.07 2352.76,1324.07 "></polyline>
<polyline clip-path="url(#clip632)" style="stroke:#000000; stroke-linecap:round; stroke-linejoin:round; stroke-width:2; stroke-opacity:0.1; fill:none" points="138.959,961.731 2352.76,961.731 "></polyline>
<polyline clip-path="url(#clip632)" style="stroke:#000000; stroke-linecap:round; stroke-linejoin:round; stroke-width:2; stroke-opacity:0.1; fill:none" points="138.959,599.387 2352.76,599.387 "></polyline>
<polyline clip-path="url(#clip632)" style="stroke:#000000; stroke-linecap:round; stroke-linejoin:round; stroke-width:2; stroke-opacity:0.1; fill:none" points="138.959,237.044 2352.76,237.044 "></polyline>
<polyline clip-path="url(#clip630)" style="stroke:#000000; stroke-linecap:round; stroke-linejoin:round; stroke-width:4; stroke-opacity:1; fill:none" points="138.959,1423.18 2352.76,1423.18 "></polyline>
<polyline clip-path="url(#clip630)" style="stroke:#000000; stroke-linecap:round; stroke-linejoin:round; stroke-width:4; stroke-opacity:1; fill:none" points="201.614,1423.18 201.614,1404.28 "></polyline>
<polyline clip-path="url(#clip630)" style="stroke:#000000; stroke-linecap:round; stroke-linejoin:round; stroke-width:4; stroke-opacity:1; fill:none" points="723.736,1423.18 723.736,1404.28 "></polyline>
<polyline clip-path="url(#clip630)" style="stroke:#000000; stroke-linecap:round; stroke-linejoin:round; stroke-width:4; stroke-opacity:1; fill:none" points="1245.86,1423.18 1245.86,1404.28 "></polyline>
<polyline clip-path="url(#clip630)" style="stroke:#000000; stroke-linecap:round; stroke-linejoin:round; stroke-width:4; stroke-opacity:1; fill:none" points="1767.98,1423.18 1767.98,1404.28 "></polyline>
<polyline clip-path="url(#clip630)" style="stroke:#000000; stroke-linecap:round; stroke-linejoin:round; stroke-width:4; stroke-opacity:1; fill:none" points="2290.1,1423.18 2290.1,1404.28 "></polyline>
<path clip-path="url(#clip630)" d="M178.998 1454.1 Q175.387 1454.1 173.559 1457.66 Q171.753 1461.2 171.753 1468.33 Q171.753 1475.44 173.559 1479.01 Q175.387 1482.55 178.998 1482.55 Q182.633 1482.55 184.438 1479.01 Q186.267 1475.44 186.267 1468.33 Q186.267 1461.2 184.438 1457.66 Q182.633 1454.1 178.998 1454.1 M178.998 1450.39 Q184.809 1450.39 187.864 1455 Q190.943 1459.58 190.943 1468.33 Q190.943 1477.06 187.864 1481.67 Q184.809 1486.25 178.998 1486.25 Q173.188 1486.25 170.11 1481.67 Q167.054 1477.06 167.054 1468.33 Q167.054 1459.58 170.11 1455 Q173.188 1450.39 178.998 1450.39 Z" fill="#000000" fill-rule="nonzero" fill-opacity="1"></path><path clip-path="url(#clip630)" d="M199.16 1479.7 L204.045 1479.7 L204.045 1485.58 L199.16 1485.58 L199.16 1479.7 Z" fill="#000000" fill-rule="nonzero" fill-opacity="1"></path><path clip-path="url(#clip630)" d="M224.23 1454.1 Q220.619 1454.1 218.79 1457.66 Q216.984 1461.2 216.984 1468.33 Q216.984 1475.44 218.79 1479.01 Q220.619 1482.55 224.23 1482.55 Q227.864 1482.55 229.669 1479.01 Q231.498 1475.44 231.498 1468.33 Q231.498 1461.2 229.669 1457.66 Q227.864 1454.1 224.23 1454.1 M224.23 1450.39 Q230.04 1450.39 233.095 1455 Q236.174 1459.58 236.174 1468.33 Q236.174 1477.06 233.095 1481.67 Q230.04 1486.25 224.23 1486.25 Q218.42 1486.25 215.341 1481.67 Q212.285 1477.06 212.285 1468.33 Q212.285 1459.58 215.341 1455 Q218.42 1450.39 224.23 1450.39 Z" fill="#000000" fill-rule="nonzero" fill-opacity="1"></path><path clip-path="url(#clip630)" d="M695.472 1481.64 L711.791 1481.64 L711.791 1485.58 L689.847 1485.58 L689.847 1481.64 Q692.509 1478.89 697.092 1474.26 Q701.699 1469.61 702.879 1468.27 Q705.125 1465.74 706.004 1464.01 Q706.907 1462.25 706.907 1460.56 Q706.907 1457.8 704.963 1456.07 Q703.042 1454.33 699.94 1454.33 Q697.741 1454.33 695.287 1455.09 Q692.856 1455.86 690.079 1457.41 L690.079 1452.69 Q692.903 1451.55 695.356 1450.97 Q697.81 1450.39 699.847 1450.39 Q705.217 1450.39 708.412 1453.08 Q711.606 1455.77 711.606 1460.26 Q711.606 1462.39 710.796 1464.31 Q710.009 1466.2 707.903 1468.8 Q707.324 1469.47 704.222 1472.69 Q701.12 1475.88 695.472 1481.64 Z" fill="#000000" fill-rule="nonzero" fill-opacity="1"></path><path clip-path="url(#clip630)" d="M721.606 1479.7 L726.49 1479.7 L726.49 1485.58 L721.606 1485.58 L721.606 1479.7 Z" fill="#000000" fill-rule="nonzero" fill-opacity="1"></path><path clip-path="url(#clip630)" d="M736.722 1451.02 L755.078 1451.02 L755.078 1454.96 L741.004 1454.96 L741.004 1463.43 Q742.023 1463.08 743.041 1462.92 Q744.06 1462.73 745.078 1462.73 Q750.865 1462.73 754.245 1465.9 Q757.625 1469.08 757.625 1474.49 Q757.625 1480.07 754.152 1483.17 Q750.68 1486.25 744.361 1486.25 Q742.185 1486.25 739.916 1485.88 Q737.671 1485.51 735.264 1484.77 L735.264 1480.07 Q737.347 1481.2 739.569 1481.76 Q741.791 1482.32 744.268 1482.32 Q748.273 1482.32 750.611 1480.21 Q752.949 1478.1 752.949 1474.49 Q752.949 1470.88 750.611 1468.77 Q748.273 1466.67 744.268 1466.67 Q742.393 1466.67 740.518 1467.08 Q738.666 1467.5 736.722 1468.38 L736.722 1451.02 Z" fill="#000000" fill-rule="nonzero" fill-opacity="1"></path><path clip-path="url(#clip630)" d="M1213.02 1451.02 L1231.38 1451.02 L1231.38 1454.96 L1217.3 1454.96 L1217.3 1463.43 Q1218.32 1463.08 1219.34 1462.92 Q1220.36 1462.73 1221.38 1462.73 Q1227.17 1462.73 1230.55 1465.9 Q1233.92 1469.08 1233.92 1474.49 Q1233.92 1480.07 1230.45 1483.17 Q1226.98 1486.25 1220.66 1486.25 Q1218.49 1486.25 1216.22 1485.88 Q1213.97 1485.51 1211.56 1484.77 L1211.56 1480.07 Q1213.65 1481.2 1215.87 1481.76 Q1218.09 1482.32 1220.57 1482.32 Q1224.57 1482.32 1226.91 1480.21 Q1229.25 1478.1 1229.25 1474.49 Q1229.25 1470.88 1226.91 1468.77 Q1224.57 1466.67 1220.57 1466.67 Q1218.69 1466.67 1216.82 1467.08 Q1214.97 1467.5 1213.02 1468.38 L1213.02 1451.02 Z" fill="#000000" fill-rule="nonzero" fill-opacity="1"></path><path clip-path="url(#clip630)" d="M1243.14 1479.7 L1248.02 1479.7 L1248.02 1485.58 L1243.14 1485.58 L1243.14 1479.7 Z" fill="#000000" fill-rule="nonzero" fill-opacity="1"></path><path clip-path="url(#clip630)" d="M1268.21 1454.1 Q1264.6 1454.1 1262.77 1457.66 Q1260.96 1461.2 1260.96 1468.33 Q1260.96 1475.44 1262.77 1479.01 Q1264.6 1482.55 1268.21 1482.55 Q1271.84 1482.55 1273.65 1479.01 Q1275.48 1475.44 1275.48 1468.33 Q1275.48 1461.2 1273.65 1457.66 Q1271.84 1454.1 1268.21 1454.1 M1268.21 1450.39 Q1274.02 1450.39 1277.07 1455 Q1280.15 1459.58 1280.15 1468.33 Q1280.15 1477.06 1277.07 1481.67 Q1274.02 1486.25 1268.21 1486.25 Q1262.4 1486.25 1259.32 1481.67 Q1256.26 1477.06 1256.26 1468.33 Q1256.26 1459.58 1259.32 1455 Q1262.4 1450.39 1268.21 1450.39 Z" fill="#000000" fill-rule="nonzero" fill-opacity="1"></path><path clip-path="url(#clip630)" d="M1734.3 1451.02 L1756.52 1451.02 L1756.52 1453.01 L1743.97 1485.58 L1739.09 1485.58 L1750.9 1454.96 L1734.3 1454.96 L1734.3 1451.02 Z" fill="#000000" fill-rule="nonzero" fill-opacity="1"></path><path clip-path="url(#clip630)" d="M1765.64 1479.7 L1770.53 1479.7 L1770.53 1485.58 L1765.64 1485.58 L1765.64 1479.7 Z" fill="#000000" fill-rule="nonzero" fill-opacity="1"></path><path clip-path="url(#clip630)" d="M1780.76 1451.02 L1799.11 1451.02 L1799.11 1454.96 L1785.04 1454.96 L1785.04 1463.43 Q1786.06 1463.08 1787.08 1462.92 Q1788.1 1462.73 1789.11 1462.73 Q1794.9 1462.73 1798.28 1465.9 Q1801.66 1469.08 1801.66 1474.49 Q1801.66 1480.07 1798.19 1483.17 Q1794.72 1486.25 1788.4 1486.25 Q1786.22 1486.25 1783.95 1485.88 Q1781.71 1485.51 1779.3 1484.77 L1779.3 1480.07 Q1781.38 1481.2 1783.6 1481.76 Q1785.83 1482.32 1788.3 1482.32 Q1792.31 1482.32 1794.65 1480.21 Q1796.98 1478.1 1796.98 1474.49 Q1796.98 1470.88 1794.65 1468.77 Q1792.31 1466.67 1788.3 1466.67 Q1786.43 1466.67 1784.55 1467.08 Q1782.7 1467.5 1780.76 1468.38 L1780.76 1451.02 Z" fill="#000000" fill-rule="nonzero" fill-opacity="1"></path><path clip-path="url(#clip630)" d="M2242.17 1481.64 L2249.81 1481.64 L2249.81 1455.28 L2241.5 1456.95 L2241.5 1452.69 L2249.77 1451.02 L2254.44 1451.02 L2254.44 1481.64 L2262.08 1481.64 L2262.08 1485.58 L2242.17 1485.58 L2242.17 1481.64 Z" fill="#000000" fill-rule="nonzero" fill-opacity="1"></path><path clip-path="url(#clip630)" d="M2281.52 1454.1 Q2277.91 1454.1 2276.09 1457.66 Q2274.28 1461.2 2274.28 1468.33 Q2274.28 1475.44 2276.09 1479.01 Q2277.91 1482.55 2281.52 1482.55 Q2285.16 1482.55 2286.96 1479.01 Q2288.79 1475.44 2288.79 1468.33 Q2288.79 1461.2 2286.96 1457.66 Q2285.16 1454.1 2281.52 1454.1 M2281.52 1450.39 Q2287.34 1450.39 2290.39 1455 Q2293.47 1459.58 2293.47 1468.33 Q2293.47 1477.06 2290.39 1481.67 Q2287.34 1486.25 2281.52 1486.25 Q2275.71 1486.25 2272.64 1481.67 Q2269.58 1477.06 2269.58 1468.33 Q2269.58 1459.58 2272.64 1455 Q2275.71 1450.39 2281.52 1450.39 Z" fill="#000000" fill-rule="nonzero" fill-opacity="1"></path><path clip-path="url(#clip630)" d="M2301.69 1479.7 L2306.57 1479.7 L2306.57 1485.58 L2301.69 1485.58 L2301.69 1479.7 Z" fill="#000000" fill-rule="nonzero" fill-opacity="1"></path><path clip-path="url(#clip630)" d="M2326.76 1454.1 Q2323.15 1454.1 2321.32 1457.66 Q2319.51 1461.2 2319.51 1468.33 Q2319.51 1475.44 2321.32 1479.01 Q2323.15 1482.55 2326.76 1482.55 Q2330.39 1482.55 2332.2 1479.01 Q2334.02 1475.44 2334.02 1468.33 Q2334.02 1461.2 2332.2 1457.66 Q2330.39 1454.1 2326.76 1454.1 M2326.76 1450.39 Q2332.57 1450.39 2335.62 1455 Q2338.7 1459.58 2338.7 1468.33 Q2338.7 1477.06 2335.62 1481.67 Q2332.57 1486.25 2326.76 1486.25 Q2320.95 1486.25 2317.87 1481.67 Q2314.81 1477.06 2314.81 1468.33 Q2314.81 1459.58 2317.87 1455 Q2320.95 1450.39 2326.76 1450.39 Z" fill="#000000" fill-rule="nonzero" fill-opacity="1"></path><path clip-path="url(#clip630)" d="M1143.67 1522.27 L1143.67 1532.4 L1155.74 1532.4 L1155.74 1536.95 L1143.67 1536.95 L1143.67 1556.3 Q1143.67 1560.66 1144.85 1561.9 Q1146.06 1563.14 1149.72 1563.14 L1155.74 1563.14 L1155.74 1568.04 L1149.72 1568.04 Q1142.94 1568.04 1140.36 1565.53 Q1137.78 1562.98 1137.78 1556.3 L1137.78 1536.95 L1133.49 1536.95 L1133.49 1532.4 L1137.78 1532.4 L1137.78 1522.27 L1143.67 1522.27 Z" fill="#000000" fill-rule="nonzero" fill-opacity="1"></path><path clip-path="url(#clip630)" d="M1163.44 1532.4 L1169.29 1532.4 L1169.29 1568.04 L1163.44 1568.04 L1163.44 1532.4 M1163.44 1518.52 L1169.29 1518.52 L1169.29 1525.93 L1163.44 1525.93 L1163.44 1518.52 Z" fill="#000000" fill-rule="nonzero" fill-opacity="1"></path><path clip-path="url(#clip630)" d="M1209.3 1539.24 Q1211.5 1535.29 1214.55 1533.41 Q1217.61 1531.54 1221.75 1531.54 Q1227.32 1531.54 1230.34 1535.45 Q1233.36 1539.33 1233.36 1546.53 L1233.36 1568.04 L1227.48 1568.04 L1227.48 1546.72 Q1227.48 1541.59 1225.66 1539.11 Q1223.85 1536.63 1220.12 1536.63 Q1215.57 1536.63 1212.93 1539.65 Q1210.29 1542.68 1210.29 1547.9 L1210.29 1568.04 L1204.4 1568.04 L1204.4 1546.72 Q1204.4 1541.56 1202.59 1539.11 Q1200.77 1536.63 1196.98 1536.63 Q1192.5 1536.63 1189.86 1539.68 Q1187.21 1542.71 1187.21 1547.9 L1187.21 1568.04 L1181.33 1568.04 L1181.33 1532.4 L1187.21 1532.4 L1187.21 1537.93 Q1189.22 1534.66 1192.02 1533.1 Q1194.82 1531.54 1198.67 1531.54 Q1202.55 1531.54 1205.26 1533.51 Q1208 1535.48 1209.3 1539.24 Z" fill="#000000" fill-rule="nonzero" fill-opacity="1"></path><path clip-path="url(#clip630)" d="M1275.54 1548.76 L1275.54 1551.62 L1248.61 1551.62 Q1248.99 1557.67 1252.24 1560.85 Q1255.52 1564 1261.34 1564 Q1264.72 1564 1267.87 1563.17 Q1271.05 1562.35 1274.17 1560.69 L1274.17 1566.23 Q1271.02 1567.57 1267.71 1568.27 Q1264.4 1568.97 1260.99 1568.97 Q1252.46 1568.97 1247.47 1564 Q1242.5 1559.04 1242.5 1550.57 Q1242.5 1541.82 1247.21 1536.69 Q1251.95 1531.54 1259.97 1531.54 Q1267.17 1531.54 1271.34 1536.18 Q1275.54 1540.8 1275.54 1548.76 M1269.68 1547.04 Q1269.62 1542.23 1266.98 1539.37 Q1264.37 1536.5 1260.04 1536.5 Q1255.14 1536.5 1252.18 1539.27 Q1249.25 1542.04 1248.8 1547.07 L1269.68 1547.04 Z" fill="#000000" fill-rule="nonzero" fill-opacity="1"></path><path clip-path="url(#clip630)" d="M1299.22 1518.58 Q1294.95 1525.9 1292.88 1533.06 Q1290.82 1540.23 1290.82 1547.58 Q1290.82 1554.93 1292.88 1562.16 Q1294.99 1569.35 1299.22 1576.64 L1294.13 1576.64 Q1289.35 1569.16 1286.96 1561.93 Q1284.61 1554.71 1284.61 1547.58 Q1284.61 1540.48 1286.96 1533.29 Q1289.32 1526.09 1294.13 1518.58 L1299.22 1518.58 Z" fill="#000000" fill-rule="nonzero" fill-opacity="1"></path><path clip-path="url(#clip630)" d="M1333.31 1533.45 L1333.31 1538.98 Q1330.82 1537.71 1328.15 1537.07 Q1325.48 1536.44 1322.61 1536.44 Q1318.25 1536.44 1316.06 1537.77 Q1313.89 1539.11 1313.89 1541.79 Q1313.89 1543.82 1315.45 1545 Q1317.01 1546.15 1321.72 1547.2 L1323.73 1547.64 Q1329.96 1548.98 1332.57 1551.43 Q1335.22 1553.85 1335.22 1558.21 Q1335.22 1563.17 1331.27 1566.07 Q1327.35 1568.97 1320.48 1568.97 Q1317.62 1568.97 1314.5 1568.39 Q1311.41 1567.85 1307.97 1566.74 L1307.97 1560.69 Q1311.22 1562.38 1314.37 1563.24 Q1317.52 1564.07 1320.61 1564.07 Q1324.74 1564.07 1326.97 1562.66 Q1329.2 1561.23 1329.2 1558.65 Q1329.2 1556.27 1327.58 1554.99 Q1325.99 1553.72 1320.54 1552.54 L1318.51 1552.07 Q1313.06 1550.92 1310.64 1548.56 Q1308.23 1546.18 1308.23 1542.04 Q1308.23 1537.01 1311.79 1534.27 Q1315.36 1531.54 1321.91 1531.54 Q1325.16 1531.54 1328.02 1532.01 Q1330.89 1532.49 1333.31 1533.45 Z" fill="#000000" fill-rule="nonzero" fill-opacity="1"></path><path clip-path="url(#clip630)" d="M1343.62 1518.58 L1348.71 1518.58 Q1353.49 1526.09 1355.84 1533.29 Q1358.23 1540.48 1358.23 1547.58 Q1358.23 1554.71 1355.84 1561.93 Q1353.49 1569.16 1348.71 1576.64 L1343.62 1576.64 Q1347.85 1569.35 1349.92 1562.16 Q1352.02 1554.93 1352.02 1547.58 Q1352.02 1540.23 1349.92 1533.06 Q1347.85 1525.9 1343.62 1518.58 Z" fill="#000000" fill-rule="nonzero" fill-opacity="1"></path><polyline clip-path="url(#clip630)" style="stroke:#000000; stroke-linecap:round; stroke-linejoin:round; stroke-width:4; stroke-opacity:1; fill:none" points="138.959,1423.18 138.959,123.472 "></polyline>
<polyline clip-path="url(#clip630)" style="stroke:#000000; stroke-linecap:round; stroke-linejoin:round; stroke-width:4; stroke-opacity:1; fill:none" points="138.959,1324.07 157.857,1324.07 "></polyline>
<polyline clip-path="url(#clip630)" style="stroke:#000000; stroke-linecap:round; stroke-linejoin:round; stroke-width:4; stroke-opacity:1; fill:none" points="138.959,961.731 157.857,961.731 "></polyline>
<polyline clip-path="url(#clip630)" style="stroke:#000000; stroke-linecap:round; stroke-linejoin:round; stroke-width:4; stroke-opacity:1; fill:none" points="138.959,599.387 157.857,599.387 "></polyline>
<polyline clip-path="url(#clip630)" style="stroke:#000000; stroke-linecap:round; stroke-linejoin:round; stroke-width:4; stroke-opacity:1; fill:none" points="138.959,237.044 157.857,237.044 "></polyline>
<path clip-path="url(#clip630)" d="M91.0151 1309.87 Q87.404 1309.87 85.5753 1313.44 Q83.7697 1316.98 83.7697 1324.11 Q83.7697 1331.22 85.5753 1334.78 Q87.404 1338.32 91.0151 1338.32 Q94.6493 1338.32 96.4548 1334.78 Q98.2835 1331.22 98.2835 1324.11 Q98.2835 1316.98 96.4548 1313.44 Q94.6493 1309.87 91.0151 1309.87 M91.0151 1306.17 Q96.8252 1306.17 99.8808 1310.78 Q102.959 1315.36 102.959 1324.11 Q102.959 1332.84 99.8808 1337.44 Q96.8252 1342.03 91.0151 1342.03 Q85.2049 1342.03 82.1262 1337.44 Q79.0707 1332.84 79.0707 1324.11 Q79.0707 1315.36 82.1262 1310.78 Q85.2049 1306.17 91.0151 1306.17 Z" fill="#000000" fill-rule="nonzero" fill-opacity="1"></path><path clip-path="url(#clip630)" d="M82.0568 944.451 L100.413 944.451 L100.413 948.386 L86.3392 948.386 L86.3392 956.858 Q87.3577 956.511 88.3762 956.349 Q89.3947 956.163 90.4132 956.163 Q96.2002 956.163 99.5798 959.335 Q102.959 962.506 102.959 967.923 Q102.959 973.501 99.4872 976.603 Q96.015 979.682 89.6956 979.682 Q87.5197 979.682 85.2512 979.311 Q83.0058 978.941 80.5984 978.2 L80.5984 973.501 Q82.6818 974.636 84.904 975.191 Q87.1262 975.747 89.603 975.747 Q93.6076 975.747 95.9456 973.64 Q98.2835 971.534 98.2835 967.923 Q98.2835 964.312 95.9456 962.205 Q93.6076 960.099 89.603 960.099 Q87.728 960.099 85.8531 960.515 Q84.0012 960.932 82.0568 961.812 L82.0568 944.451 Z" fill="#000000" fill-rule="nonzero" fill-opacity="1"></path><path clip-path="url(#clip630)" d="M51.6634 612.732 L59.3023 612.732 L59.3023 586.366 L50.9921 588.033 L50.9921 583.774 L59.256 582.107 L63.9319 582.107 L63.9319 612.732 L71.5707 612.732 L71.5707 616.667 L51.6634 616.667 L51.6634 612.732 Z" fill="#000000" fill-rule="nonzero" fill-opacity="1"></path><path clip-path="url(#clip630)" d="M91.0151 585.186 Q87.404 585.186 85.5753 588.751 Q83.7697 592.292 83.7697 599.422 Q83.7697 606.528 85.5753 610.093 Q87.404 613.635 91.0151 613.635 Q94.6493 613.635 96.4548 610.093 Q98.2835 606.528 98.2835 599.422 Q98.2835 592.292 96.4548 588.751 Q94.6493 585.186 91.0151 585.186 M91.0151 581.482 Q96.8252 581.482 99.8808 586.089 Q102.959 590.672 102.959 599.422 Q102.959 608.149 99.8808 612.755 Q96.8252 617.338 91.0151 617.338 Q85.2049 617.338 82.1262 612.755 Q79.0707 608.149 79.0707 599.422 Q79.0707 590.672 82.1262 586.089 Q85.2049 581.482 91.0151 581.482 Z" fill="#000000" fill-rule="nonzero" fill-opacity="1"></path><path clip-path="url(#clip630)" d="M52.6588 250.389 L60.2976 250.389 L60.2976 224.023 L51.9875 225.69 L51.9875 221.43 L60.2513 219.764 L64.9272 219.764 L64.9272 250.389 L72.5661 250.389 L72.5661 254.324 L52.6588 254.324 L52.6588 250.389 Z" fill="#000000" fill-rule="nonzero" fill-opacity="1"></path><path clip-path="url(#clip630)" d="M82.0568 219.764 L100.413 219.764 L100.413 223.699 L86.3392 223.699 L86.3392 232.171 Q87.3577 231.824 88.3762 231.662 Q89.3947 231.477 90.4132 231.477 Q96.2002 231.477 99.5798 234.648 Q102.959 237.819 102.959 243.236 Q102.959 248.814 99.4872 251.916 Q96.015 254.995 89.6956 254.995 Q87.5197 254.995 85.2512 254.625 Q83.0058 254.254 80.5984 253.513 L80.5984 248.814 Q82.6818 249.949 84.904 250.504 Q87.1262 251.06 89.603 251.06 Q93.6076 251.06 95.9456 248.953 Q98.2835 246.847 98.2835 243.236 Q98.2835 239.625 95.9456 237.518 Q93.6076 235.412 89.603 235.412 Q87.728 235.412 85.8531 235.828 Q84.0012 236.245 82.0568 237.125 L82.0568 219.764 Z" fill="#000000" fill-rule="nonzero" fill-opacity="1"></path><path clip-path="url(#clip630)" d="M869.893 16.7545 L869.893 25.383 Q865.761 21.5346 861.062 19.6307 Q856.404 17.7268 851.138 17.7268 Q840.767 17.7268 835.258 24.0867 Q829.749 30.4061 829.749 42.3968 Q829.749 54.3469 835.258 60.7069 Q840.767 67.0263 851.138 67.0263 Q856.404 67.0263 861.062 65.1223 Q865.761 63.2184 869.893 59.3701 L869.893 67.9175 Q865.599 70.8341 860.779 72.2924 Q855.999 73.7508 850.651 73.7508 Q836.919 73.7508 829.02 65.3654 Q821.12 56.9395 821.12 42.3968 Q821.12 27.8135 829.02 19.4281 Q836.919 11.0023 850.651 11.0023 Q856.08 11.0023 860.86 12.4606 Q865.68 13.8784 869.893 16.7545 Z" fill="#000000" fill-rule="nonzero" fill-opacity="1"></path><path clip-path="url(#clip630)" d="M899.789 32.4315 Q893.794 32.4315 890.31 37.1306 Q886.826 41.7891 886.826 49.9314 Q886.826 58.0738 890.269 62.7728 Q893.753 67.4314 899.789 67.4314 Q905.744 67.4314 909.228 62.7323 Q912.711 58.0333 912.711 49.9314 Q912.711 41.8701 909.228 37.1711 Q905.744 32.4315 899.789 32.4315 M899.789 26.1121 Q909.511 26.1121 915.061 32.4315 Q920.611 38.7509 920.611 49.9314 Q920.611 61.0714 915.061 67.4314 Q909.511 73.7508 899.789 73.7508 Q890.026 73.7508 884.477 67.4314 Q878.967 61.0714 878.967 49.9314 Q878.967 38.7509 884.477 32.4315 Q890.026 26.1121 899.789 26.1121 Z" fill="#000000" fill-rule="nonzero" fill-opacity="1"></path><path clip-path="url(#clip630)" d="M961.889 28.5427 L961.889 35.5912 Q958.73 33.9709 955.327 33.1607 Q951.924 32.3505 948.278 32.3505 Q942.729 32.3505 939.933 34.0519 Q937.179 35.7533 937.179 39.156 Q937.179 41.7486 939.164 43.2475 Q941.149 44.7058 947.144 46.0426 L949.696 46.6097 Q957.636 48.3111 960.958 51.4303 Q964.32 54.509 964.32 60.0587 Q964.32 66.3781 959.297 70.0644 Q954.314 73.7508 945.564 73.7508 Q941.918 73.7508 937.948 73.0216 Q934.019 72.3329 929.644 70.9151 L929.644 63.2184 Q933.776 65.3654 937.786 66.4591 Q941.797 67.5124 945.726 67.5124 Q950.992 67.5124 953.828 65.73 Q956.664 63.9071 956.664 60.6258 Q956.664 57.5877 954.598 55.9673 Q952.572 54.3469 945.645 52.8481 L943.053 52.2405 Q936.126 50.7821 933.047 47.7845 Q929.968 44.7463 929.968 39.4801 Q929.968 33.0797 934.505 29.5959 Q939.042 26.1121 947.387 26.1121 Q951.519 26.1121 955.165 26.7198 Q958.811 27.3274 961.889 28.5427 Z" fill="#000000" fill-rule="nonzero" fill-opacity="1"></path><path clip-path="url(#clip630)" d="M983.562 14.324 L983.562 27.2059 L998.915 27.2059 L998.915 32.9987 L983.562 32.9987 L983.562 57.6282 Q983.562 63.1779 985.06 64.7578 Q986.6 66.3376 991.258 66.3376 L998.915 66.3376 L998.915 72.576 L991.258 72.576 Q982.63 72.576 979.349 69.3758 Q976.067 66.1351 976.067 57.6282 L976.067 32.9987 L970.599 32.9987 L970.599 27.2059 L976.067 27.2059 L976.067 14.324 L983.562 14.324 Z" fill="#000000" fill-rule="nonzero" fill-opacity="1"></path><path clip-path="url(#clip630)" d="M1004.95 46.5287 L1026.78 46.5287 L1026.78 53.1722 L1004.95 53.1722 L1004.95 46.5287 Z" fill="#000000" fill-rule="nonzero" fill-opacity="1"></path><path clip-path="url(#clip630)" d="M1046.03 14.324 L1046.03 27.2059 L1061.38 27.2059 L1061.38 32.9987 L1046.03 32.9987 L1046.03 57.6282 Q1046.03 63.1779 1047.53 64.7578 Q1049.06 66.3376 1053.72 66.3376 L1061.38 66.3376 L1061.38 72.576 L1053.72 72.576 Q1045.09 72.576 1041.81 69.3758 Q1038.53 66.1351 1038.53 57.6282 L1038.53 32.9987 L1033.06 32.9987 L1033.06 27.2059 L1038.53 27.2059 L1038.53 14.324 L1046.03 14.324 Z" fill="#000000" fill-rule="nonzero" fill-opacity="1"></path><path clip-path="url(#clip630)" d="M1088.76 32.4315 Q1082.77 32.4315 1079.28 37.1306 Q1075.8 41.7891 1075.8 49.9314 Q1075.8 58.0738 1079.24 62.7728 Q1082.73 67.4314 1088.76 67.4314 Q1094.72 67.4314 1098.2 62.7323 Q1101.69 58.0333 1101.69 49.9314 Q1101.69 41.8701 1098.2 37.1711 Q1094.72 32.4315 1088.76 32.4315 M1088.76 26.1121 Q1098.49 26.1121 1104.04 32.4315 Q1109.59 38.7509 1109.59 49.9314 Q1109.59 61.0714 1104.04 67.4314 Q1098.49 73.7508 1088.76 73.7508 Q1079 73.7508 1073.45 67.4314 Q1067.94 61.0714 1067.94 49.9314 Q1067.94 38.7509 1073.45 32.4315 Q1079 26.1121 1088.76 26.1121 Z" fill="#000000" fill-rule="nonzero" fill-opacity="1"></path><path clip-path="url(#clip630)" d="M1119.71 46.5287 L1141.55 46.5287 L1141.55 53.1722 L1119.71 53.1722 L1119.71 46.5287 Z" fill="#000000" fill-rule="nonzero" fill-opacity="1"></path><path clip-path="url(#clip630)" d="M1183.27 49.3643 Q1183.27 41.2625 1179.91 36.8065 Q1176.59 32.3505 1170.55 32.3505 Q1164.56 32.3505 1161.19 36.8065 Q1157.87 41.2625 1157.87 49.3643 Q1157.87 57.4256 1161.19 61.8816 Q1164.56 66.3376 1170.55 66.3376 Q1176.59 66.3376 1179.91 61.8816 Q1183.27 57.4256 1183.27 49.3643 M1190.72 66.9452 Q1190.72 78.5308 1185.58 84.1616 Q1180.44 89.8329 1169.82 89.8329 Q1165.89 89.8329 1162.41 89.2252 Q1158.93 88.6581 1155.64 87.4428 L1155.64 80.1917 Q1158.93 81.9741 1162.13 82.8248 Q1165.33 83.6755 1168.65 83.6755 Q1175.98 83.6755 1179.63 79.8271 Q1183.27 76.0193 1183.27 68.282 L1183.27 64.5957 Q1180.96 68.6061 1177.36 70.5911 Q1173.75 72.576 1168.73 72.576 Q1160.38 72.576 1155.28 66.2161 Q1150.18 59.8562 1150.18 49.3643 Q1150.18 38.832 1155.28 32.472 Q1160.38 26.1121 1168.73 26.1121 Q1173.75 26.1121 1177.36 28.0971 Q1180.96 30.082 1183.27 34.0924 L1183.27 27.2059 L1190.72 27.2059 L1190.72 66.9452 Z" fill="#000000" fill-rule="nonzero" fill-opacity="1"></path><path clip-path="url(#clip630)" d="M1223.66 32.4315 Q1217.66 32.4315 1214.18 37.1306 Q1210.7 41.7891 1210.7 49.9314 Q1210.7 58.0738 1214.14 62.7728 Q1217.62 67.4314 1223.66 67.4314 Q1229.61 67.4314 1233.1 62.7323 Q1236.58 58.0333 1236.58 49.9314 Q1236.58 41.8701 1233.1 37.1711 Q1229.61 32.4315 1223.66 32.4315 M1223.66 26.1121 Q1233.38 26.1121 1238.93 32.4315 Q1244.48 38.7509 1244.48 49.9314 Q1244.48 61.0714 1238.93 67.4314 Q1233.38 73.7508 1223.66 73.7508 Q1213.9 73.7508 1208.35 67.4314 Q1202.84 61.0714 1202.84 49.9314 Q1202.84 38.7509 1208.35 32.4315 Q1213.9 26.1121 1223.66 26.1121 Z" fill="#000000" fill-rule="nonzero" fill-opacity="1"></path><path clip-path="url(#clip630)" d="M1283.53 12.096 L1295.72 12.096 L1311.16 53.2532 L1326.67 12.096 L1338.87 12.096 L1338.87 72.576 L1330.89 72.576 L1330.89 19.4686 L1315.29 60.9499 L1307.07 60.9499 L1291.47 19.4686 L1291.47 72.576 L1283.53 72.576 L1283.53 12.096 Z" fill="#000000" fill-rule="nonzero" fill-opacity="1"></path><path clip-path="url(#clip630)" d="M1375.41 49.7694 Q1366.37 49.7694 1362.89 51.8354 Q1359.4 53.9013 1359.4 58.8839 Q1359.4 62.8538 1362 65.2034 Q1364.63 67.5124 1369.13 67.5124 Q1375.32 67.5124 1379.05 63.1374 Q1382.82 58.7219 1382.82 51.4303 L1382.82 49.7694 L1375.41 49.7694 M1390.27 46.6907 L1390.27 72.576 L1382.82 72.576 L1382.82 65.6895 Q1380.27 69.8214 1376.46 71.8063 Q1372.65 73.7508 1367.14 73.7508 Q1360.17 73.7508 1356.04 69.8619 Q1351.95 65.9325 1351.95 59.3701 Q1351.95 51.7138 1357.05 47.825 Q1362.2 43.9361 1372.37 43.9361 L1382.82 43.9361 L1382.82 43.2069 Q1382.82 38.0623 1379.42 35.2672 Q1376.05 32.4315 1369.94 32.4315 Q1366.05 32.4315 1362.36 33.3632 Q1358.68 34.295 1355.27 36.1584 L1355.27 29.2718 Q1359.36 27.692 1363.21 26.9223 Q1367.06 26.1121 1370.71 26.1121 Q1380.55 26.1121 1385.41 31.2163 Q1390.27 36.3204 1390.27 46.6907 Z" fill="#000000" fill-rule="nonzero" fill-opacity="1"></path><path clip-path="url(#clip630)" d="M1413 14.324 L1413 27.2059 L1428.35 27.2059 L1428.35 32.9987 L1413 32.9987 L1413 57.6282 Q1413 63.1779 1414.5 64.7578 Q1416.04 66.3376 1420.69 66.3376 L1428.35 66.3376 L1428.35 72.576 L1420.69 72.576 Q1412.07 72.576 1408.79 69.3758 Q1405.5 66.1351 1405.5 57.6282 L1405.5 32.9987 L1400.04 32.9987 L1400.04 27.2059 L1405.5 27.2059 L1405.5 14.324 L1413 14.324 Z" fill="#000000" fill-rule="nonzero" fill-opacity="1"></path><path clip-path="url(#clip630)" d="M1464.44 34.1734 Q1463.19 33.4443 1461.69 33.1202 Q1460.23 32.7556 1458.45 32.7556 Q1452.13 32.7556 1448.73 36.8875 Q1445.36 40.9789 1445.36 48.6757 L1445.36 72.576 L1437.87 72.576 L1437.87 27.2059 L1445.36 27.2059 L1445.36 34.2544 Q1447.71 30.1225 1451.48 28.1376 Q1455.25 26.1121 1460.64 26.1121 Q1461.41 26.1121 1462.34 26.2337 Q1463.27 26.3147 1464.4 26.5172 L1464.44 34.1734 Z" fill="#000000" fill-rule="nonzero" fill-opacity="1"></path><path clip-path="url(#clip630)" d="M1472.26 27.2059 L1479.72 27.2059 L1479.72 72.576 L1472.26 72.576 L1472.26 27.2059 M1472.26 9.54393 L1479.72 9.54393 L1479.72 18.9825 L1472.26 18.9825 L1472.26 9.54393 Z" fill="#000000" fill-rule="nonzero" fill-opacity="1"></path><path clip-path="url(#clip630)" d="M1533.03 27.2059 L1516.62 49.2833 L1533.88 72.576 L1525.09 72.576 L1511.88 54.752 L1498.67 72.576 L1489.88 72.576 L1507.51 48.8377 L1491.38 27.2059 L1500.17 27.2059 L1512.2 43.369 L1524.24 27.2059 L1533.03 27.2059 Z" fill="#000000" fill-rule="nonzero" fill-opacity="1"></path><path clip-path="url(#clip630)" d="M1588.69 9.62495 Q1583.26 18.942 1580.62 28.0566 Q1577.99 37.1711 1577.99 46.5287 Q1577.99 55.8863 1580.62 65.0818 Q1583.3 74.2369 1588.69 83.5134 L1582.2 83.5134 Q1576.13 73.9938 1573.09 64.7983 Q1570.09 55.6027 1570.09 46.5287 Q1570.09 37.4952 1573.09 28.3401 Q1576.09 19.1851 1582.2 9.62495 L1588.69 9.62495 Z" fill="#000000" fill-rule="nonzero" fill-opacity="1"></path><path clip-path="url(#clip630)" d="M1611.65 18.8205 L1611.65 41.5461 L1621.94 41.5461 Q1627.66 41.5461 1630.77 38.5889 Q1633.89 35.6318 1633.89 30.163 Q1633.89 24.7348 1630.77 21.7777 Q1627.66 18.8205 1621.94 18.8205 L1611.65 18.8205 M1603.47 12.096 L1621.94 12.096 Q1632.11 12.096 1637.3 16.714 Q1642.52 21.2916 1642.52 30.163 Q1642.52 39.1155 1637.3 43.6931 Q1632.11 48.2706 1621.94 48.2706 L1611.65 48.2706 L1611.65 72.576 L1603.47 72.576 L1603.47 12.096 Z" fill="#000000" fill-rule="nonzero" fill-opacity="1"></path><path clip-path="url(#clip630)" d="M1652 9.62495 L1658.48 9.62495 Q1664.56 19.1851 1667.56 28.3401 Q1670.59 37.4952 1670.59 46.5287 Q1670.59 55.6027 1667.56 64.7983 Q1664.56 73.9938 1658.48 83.5134 L1652 83.5134 Q1657.39 74.2369 1660.02 65.0818 Q1662.7 55.8863 1662.7 46.5287 Q1662.7 37.1711 1660.02 28.0566 Q1657.39 18.942 1652 9.62495 Z" fill="#000000" fill-rule="nonzero" fill-opacity="1"></path><polyline clip-path="url(#clip632)" style="stroke:#009af9; stroke-linecap:round; stroke-linejoin:round; stroke-width:4; stroke-opacity:1; fill:none" points="201.614,160.434 222.499,160.434 243.384,160.434 264.269,160.434 285.154,160.434 306.038,160.434 326.923,160.434 347.808,160.434 368.693,160.434 389.578,160.434 410.463,160.434 431.348,160.434 452.233,160.434 473.117,160.434 494.002,160.434 514.887,160.434 535.772,160.434 556.657,160.435 577.542,160.435 598.427,160.435 619.312,160.435 640.196,160.435 661.081,160.435 681.966,160.435 702.851,160.435 723.736,160.435 744.621,160.435 765.506,160.435 786.39,160.435 807.275,160.435 828.16,160.435 849.045,160.435 869.93,160.435 890.815,160.435 911.7,160.435 932.585,160.436 953.469,160.436 974.354,160.436 995.239,160.435 1016.12,160.435 1037.01,160.435 1057.89,160.434 1078.78,160.433 1099.66,160.432 1120.55,160.431 1141.43,160.429 1162.32,160.426 1183.2,160.422 1204.09,160.418 1224.97,160.412 1245.86,160.405 1266.74,160.397 1287.63,160.386 1308.51,160.374 1329.4,160.36 1350.28,160.344 1371.17,160.327 1392.05,160.309 1412.94,160.29 1433.82,160.274 1454.71,160.261 1475.59,160.256 1496.48,160.264 1517.36,160.292 1538.25,160.351 1559.13,160.453 1580.02,160.618 1600.9,160.869 1621.79,161.238 1642.67,161.768 1663.56,162.513 1684.44,163.541 1705.32,164.94 1726.21,166.82 1747.09,169.317 1767.98,172.602 1788.86,176.877 1809.75,182.391 1830.63,189.432 1851.52,198.34 1872.4,209.499 1893.29,223.335 1914.17,240.307 1935.06,260.89 1955.94,285.552 1976.83,314.722 1997.71,348.758 2018.6,387.906 2039.48,432.267 2060.37,481.767 2081.25,536.153 2102.14,594.995 2123.02,657.716 2143.91,723.637 2164.79,792.031 2185.68,862.183 2206.56,933.434 2227.45,1005.22 2248.33,1077.1 2269.22,1148.73 2290.1,1219.83 "></polyline>
<polyline clip-path="url(#clip632)" style="stroke:#e26f46; stroke-linecap:round; stroke-linejoin:round; stroke-width:4; stroke-opacity:1; fill:none" points="201.614,1324.07 222.499,1324.07 243.384,1324.07 264.269,1324.07 285.154,1324.07 306.038,1324.07 326.923,1324.07 347.808,1324.07 368.693,1324.07 389.578,1324.07 410.463,1324.07 431.348,1324.07 452.233,1324.07 473.117,1324.07 494.002,1324.07 514.887,1324.07 535.772,1324.07 556.657,1324.07 577.542,1324.07 598.427,1324.07 619.312,1324.07 640.196,1324.07 661.081,1324.07 681.966,1324.07 702.851,1324.07 723.736,1324.07 744.621,1324.07 765.506,1324.07 786.39,1324.07 807.275,1324.07 828.16,1324.07 849.045,1324.07 869.93,1324.07 890.815,1324.07 911.7,1324.07 932.585,1324.07 953.469,1324.07 974.354,1324.07 995.239,1324.07 1016.12,1324.07 1037.01,1324.07 1057.89,1324.07 1078.78,1324.07 1099.66,1324.07 1120.55,1324.07 1141.43,1324.07 1162.32,1324.07 1183.2,1324.07 1204.09,1324.07 1224.97,1324.07 1245.86,1324.07 1266.74,1324.06 1287.63,1324.06 1308.51,1324.06 1329.4,1324.05 1350.28,1324.04 1371.17,1324.03 1392.05,1324.02 1412.94,1324.01 1433.82,1323.99 1454.71,1323.97 1475.59,1323.94 1496.48,1323.91 1517.36,1323.87 1538.25,1323.82 1559.13,1323.76 1580.02,1323.69 1600.9,1323.61 1621.79,1323.51 1642.67,1323.4 1663.56,1323.28 1684.44,1323.14 1705.32,1322.98 1726.21,1322.82 1747.09,1322.64 1767.98,1322.46 1788.86,1322.29 1809.75,1322.15 1830.63,1322.04 1851.52,1321.99 1872.4,1322.04 1893.29,1322.22 1914.17,1322.57 1935.06,1323.15 1955.94,1324 1976.83,1325.19 1997.71,1326.74 2018.6,1328.71 2039.48,1331.08 2060.37,1333.85 2081.25,1336.95 2102.14,1340.28 2123.02,1343.7 2143.91,1347.06 2164.79,1350.17 2185.68,1352.85 2206.56,1354.95 2227.45,1356.35 2248.33,1356.97 2269.22,1356.76 2290.1,1355.68 "></polyline>
<polyline clip-path="url(#clip632)" style="stroke:#3da44d; stroke-linecap:round; stroke-linejoin:round; stroke-width:4; stroke-opacity:1; fill:none" points="201.614,810.363 222.499,810.363 243.384,810.363 264.269,810.363 285.154,810.363 306.038,810.363 326.923,810.363 347.808,810.363 368.693,810.363 389.578,810.363 410.463,810.363 431.348,810.363 452.233,810.363 473.117,810.363 494.002,810.363 514.887,810.364 535.772,810.364 556.657,810.364 577.542,810.364 598.427,810.364 619.312,810.364 640.196,810.364 661.081,810.364 681.966,810.364 702.851,810.364 723.736,810.364 744.621,810.364 765.506,810.364 786.39,810.364 807.275,810.364 828.16,810.364 849.045,810.364 869.93,810.364 890.815,810.364 911.7,810.364 932.585,810.364 953.469,810.363 974.354,810.363 995.239,810.363 1016.12,810.362 1037.01,810.362 1057.89,810.361 1078.78,810.36 1099.66,810.359 1120.55,810.357 1141.43,810.355 1162.32,810.352 1183.2,810.349 1204.09,810.346 1224.97,810.341 1245.86,810.336 1266.74,810.33 1287.63,810.324 1308.51,810.317 1329.4,810.311 1350.28,810.304 1371.17,810.3 1392.05,810.298 1412.94,810.3 1433.82,810.31 1454.71,810.33 1475.59,810.365 1496.48,810.422 1517.36,810.509 1538.25,810.638 1559.13,810.823 1580.02,811.082 1600.9,811.441 1621.79,811.93 1642.67,812.587 1663.56,813.463 1684.44,814.618 1705.32,816.126 1726.21,818.08 1747.09,820.59 1767.98,823.788 1788.86,827.831 1809.75,832.898 1830.63,839.197 1851.52,846.955 1872.4,856.422 1893.29,867.857 1914.17,881.518 1935.06,897.646 1955.94,916.442 1976.83,938.043 1997.71,962.495 2018.6,989.726 2039.48,1019.53 2060.37,1051.56 2081.25,1085.33 2102.14,1120.23 2123.02,1155.56 2143.91,1190.62 2164.79,1224.7 2185.68,1257.16 2206.56,1287.5 2227.45,1315.41 2248.33,1340.83 2269.22,1364.13 2290.1,1386.4 "></polyline>
<polyline clip-path="url(#clip632)" style="stroke:#c271d2; stroke-linecap:round; stroke-linejoin:round; stroke-width:4; stroke-opacity:1; fill:none" points="201.614,1324.07 222.499,1324.07 243.384,1324.07 264.269,1324.07 285.154,1324.07 306.038,1324.07 326.923,1324.07 347.808,1324.07 368.693,1324.07 389.578,1324.07 410.463,1324.07 431.348,1324.07 452.233,1324.07 473.117,1324.07 494.002,1324.07 514.887,1324.07 535.772,1324.07 556.657,1324.07 577.542,1324.07 598.427,1324.07 619.312,1324.07 640.196,1324.07 661.081,1324.07 681.966,1324.07 702.851,1324.07 723.736,1324.07 744.621,1324.07 765.506,1324.07 786.39,1324.07 807.275,1324.07 828.16,1324.07 849.045,1324.07 869.93,1324.07 890.815,1324.07 911.7,1324.07 932.585,1324.07 953.469,1324.07 974.354,1324.07 995.239,1324.07 1016.12,1324.07 1037.01,1324.07 1057.89,1324.07 1078.78,1324.07 1099.66,1324.07 1120.55,1324.07 1141.43,1324.07 1162.32,1324.07 1183.2,1324.07 1204.09,1324.07 1224.97,1324.07 1245.86,1324.07 1266.74,1324.06 1287.63,1324.06 1308.51,1324.06 1329.4,1324.05 1350.28,1324.05 1371.17,1324.04 1392.05,1324.03 1412.94,1324.02 1433.82,1324.01 1454.71,1324 1475.59,1323.98 1496.48,1323.96 1517.36,1323.93 1538.25,1323.91 1559.13,1323.88 1580.02,1323.84 1600.9,1323.8 1621.79,1323.76 1642.67,1323.72 1663.56,1323.69 1684.44,1323.65 1705.32,1323.63 1726.21,1323.62 1747.09,1323.63 1767.98,1323.68 1788.86,1323.79 1809.75,1323.96 1830.63,1324.22 1851.52,1324.6 1872.4,1325.14 1893.29,1325.87 1914.17,1326.84 1935.06,1328.08 1955.94,1329.65 1976.83,1331.57 1997.71,1333.88 2018.6,1336.58 2039.48,1339.66 2060.37,1343.07 2081.25,1346.74 2102.14,1350.56 2123.02,1354.41 2143.91,1358.12 2164.79,1361.56 2185.68,1364.62 2206.56,1367.22 2227.45,1369.33 2248.33,1371 2269.22,1372.37 2290.1,1373.68 "></polyline>
<polyline clip-path="url(#clip632)" style="stroke:#ac8d18; stroke-linecap:round; stroke-linejoin:round; stroke-width:4; stroke-opacity:1; fill:none" points="201.614,160.434 222.499,160.434 243.384,160.434 264.269,160.434 285.154,160.434 306.038,160.434 326.923,160.434 347.808,160.434 368.693,160.434 389.578,160.434 410.463,160.434 431.348,160.434 452.233,160.434 473.117,160.434 494.002,160.434 514.887,160.434 535.772,160.434 556.657,160.434 577.542,160.434 598.427,160.434 619.312,160.434 640.196,160.434 661.081,160.435 681.966,160.435 702.851,160.435 723.736,160.435 744.621,160.435 765.506,160.435 786.39,160.435 807.275,160.435 828.16,160.435 849.045,160.435 869.93,160.435 890.815,160.435 911.7,160.435 932.585,160.436 953.469,160.436 974.354,160.436 995.239,160.437 1016.12,160.437 1037.01,160.438 1057.89,160.439 1078.78,160.44 1099.66,160.441 1120.55,160.442 1141.43,160.444 1162.32,160.446 1183.2,160.448 1204.09,160.451 1224.97,160.454 1245.86,160.458 1266.74,160.463 1287.63,160.468 1308.51,160.475 1329.4,160.482 1350.28,160.492 1371.17,160.503 1392.05,160.516 1412.94,160.532 1433.82,160.551 1454.71,160.574 1475.59,160.603 1496.48,160.638 1517.36,160.682 1538.25,160.738 1559.13,160.807 1580.02,160.896 1600.9,161.01 1621.79,161.156 1642.67,161.345 1663.56,161.59 1684.44,161.909 1705.32,162.326 1726.21,162.869 1747.09,163.579 1767.98,164.506 1788.86,165.716 1809.75,167.293 1830.63,169.345 1851.52,172.007 1872.4,175.451 1893.29,179.89 1914.17,185.586 1935.06,192.861 1955.94,202.098 1976.83,213.748 1997.71,228.328 2018.6,246.416 2039.48,268.626 2060.37,295.584 2081.25,327.872 2102.14,365.974 2123.02,410.199 2143.91,460.608 2164.79,516.959 2185.68,578.668 2206.56,644.837 2227.45,714.306 2248.33,785.773 2269.22,857.918 2290.1,929.529 "></polyline>
<polyline clip-path="url(#clip632)" style="stroke:#00a9ad; stroke-linecap:round; stroke-linejoin:round; stroke-width:4; stroke-opacity:1; fill:none" points="201.614,1324.07 222.499,1324.07 243.384,1324.07 264.269,1324.07 285.154,1324.07 306.038,1324.07 326.923,1324.07 347.808,1324.07 368.693,1324.07 389.578,1324.07 410.463,1324.07 431.348,1324.07 452.233,1324.07 473.117,1324.07 494.002,1324.07 514.887,1324.07 535.772,1324.07 556.657,1324.07 577.542,1324.07 598.427,1324.07 619.312,1324.07 640.196,1324.07 661.081,1324.07 681.966,1324.07 702.851,1324.07 723.736,1324.07 744.621,1324.07 765.506,1324.07 786.39,1324.07 807.275,1324.07 828.16,1324.07 849.045,1324.07 869.93,1324.07 890.815,1324.07 911.7,1324.07 932.585,1324.07 953.469,1324.07 974.354,1324.07 995.239,1324.07 1016.12,1324.07 1037.01,1324.07 1057.89,1324.07 1078.78,1324.07 1099.66,1324.07 1120.55,1324.07 1141.43,1324.07 1162.32,1324.07 1183.2,1324.07 1204.09,1324.07 1224.97,1324.07 1245.86,1324.06 1266.74,1324.06 1287.63,1324.06 1308.51,1324.05 1329.4,1324.05 1350.28,1324.04 1371.17,1324.03 1392.05,1324.02 1412.94,1324.01 1433.82,1324 1454.71,1323.98 1475.59,1323.95 1496.48,1323.93 1517.36,1323.9 1538.25,1323.86 1559.13,1323.82 1580.02,1323.77 1600.9,1323.72 1621.79,1323.66 1642.67,1323.59 1663.56,1323.52 1684.44,1323.44 1705.32,1323.37 1726.21,1323.3 1747.09,1323.24 1767.98,1323.19 1788.86,1323.18 1809.75,1323.21 1830.63,1323.3 1851.52,1323.47 1872.4,1323.75 1893.29,1324.17 1914.17,1324.75 1935.06,1325.55 1955.94,1326.58 1976.83,1327.87 1997.71,1329.45 2018.6,1331.31 2039.48,1333.44 2060.37,1335.8 2081.25,1338.31 2102.14,1340.9 2123.02,1343.47 2143.91,1345.91 2164.79,1348.16 2185.68,1350.2 2206.56,1352.11 2227.45,1354.07 2248.33,1356.47 2269.22,1359.98 2290.1,1365.82 "></polyline>
<polyline clip-path="url(#clip632)" style="stroke:#ed5d92; stroke-linecap:round; stroke-linejoin:round; stroke-width:4; stroke-opacity:1; fill:none" points="201.614,810.363 222.499,810.363 243.384,810.363 264.269,810.363 285.154,810.363 306.038,810.363 326.923,810.363 347.808,810.363 368.693,810.363 389.578,810.363 410.463,810.363 431.348,810.363 452.233,810.363 473.117,810.363 494.002,810.363 514.887,810.363 535.772,810.363 556.657,810.363 577.542,810.363 598.427,810.363 619.312,810.364 640.196,810.364 661.081,810.364 681.966,810.364 702.851,810.364 723.736,810.364 744.621,810.364 765.506,810.364 786.39,810.364 807.275,810.364 828.16,810.364 849.045,810.364 869.93,810.364 890.815,810.364 911.7,810.364 932.585,810.364 953.469,810.365 974.354,810.365 995.239,810.365 1016.12,810.366 1037.01,810.366 1057.89,810.367 1078.78,810.367 1099.66,810.368 1120.55,810.369 1141.43,810.37 1162.32,810.371 1183.2,810.372 1204.09,810.374 1224.97,810.376 1245.86,810.378 1266.74,810.381 1287.63,810.385 1308.51,810.389 1329.4,810.393 1350.28,810.399 1371.17,810.406 1392.05,810.415 1412.94,810.425 1433.82,810.438 1454.71,810.455 1475.59,810.476 1496.48,810.503 1517.36,810.538 1538.25,810.583 1559.13,810.642 1580.02,810.718 1600.9,810.819 1621.79,810.951 1642.67,811.124 1663.56,811.352 1684.44,811.652 1705.32,812.046 1726.21,812.562 1747.09,813.237 1767.98,814.119 1788.86,815.267 1809.75,816.758 1830.63,818.688 1851.52,821.176 1872.4,824.372 1893.29,828.457 1914.17,833.652 1935.06,840.223 1955.94,848.481 1976.83,858.781 1997.71,871.525 2018.6,887.139 2039.48,906.066 2060.37,928.721 2081.25,955.459 2102.14,986.512 2123.02,1021.93 2143.91,1061.54 2164.79,1104.86 2185.68,1151.15 2206.56,1199.37 2227.45,1248.28 2248.33,1296.54 2269.22,1342.83 2290.1,1385.94 "></polyline>
<polyline clip-path="url(#clip632)" style="stroke:#c68125; stroke-linecap:round; stroke-linejoin:round; stroke-width:4; stroke-opacity:1; fill:none" points="201.614,488.653 222.499,488.653 243.384,488.653 264.269,488.653 285.154,488.653 306.038,488.653 326.923,488.653 347.808,488.653 368.693,488.653 389.578,488.653 410.463,488.653 431.348,488.653 452.233,488.653 473.117,488.653 494.002,488.653 514.887,488.653 535.772,488.653 556.657,488.653 577.542,488.653 598.427,488.653 619.312,488.653 640.196,488.653 661.081,488.653 681.966,488.653 702.851,488.653 723.736,488.653 744.621,488.653 765.506,488.653 786.39,488.653 807.275,488.653 828.16,488.653 849.045,488.653 869.93,488.653 890.815,488.653 911.7,488.653 932.585,488.653 953.469,488.653 974.354,488.652 995.239,488.652 1016.12,488.652 1037.01,488.651 1057.89,488.65 1078.78,488.65 1099.66,488.649 1120.55,488.647 1141.43,488.646 1162.32,488.644 1183.2,488.643 1204.09,488.641 1224.97,488.639 1245.86,488.637 1266.74,488.635 1287.63,488.634 1308.51,488.635 1329.4,488.637 1350.28,488.641 1371.17,488.65 1392.05,488.665 1412.94,488.688 1433.82,488.722 1454.71,488.772 1475.59,488.842 1496.48,488.94 1517.36,489.074 1538.25,489.256 1559.13,489.5 1580.02,489.822 1600.9,490.247 1621.79,490.8 1642.67,491.516 1663.56,492.435 1684.44,493.608 1705.32,495.093 1726.21,496.962 1747.09,499.295 1767.98,502.188 1788.86,505.748 1809.75,510.094 1830.63,515.353 1851.52,521.658 1872.4,529.139 1893.29,537.916 1914.17,548.084 1935.06,559.695 1955.94,572.743 1976.83,587.14 1997.71,602.693 2018.6,619.086 2039.48,635.866 2060.37,652.431 2081.25,668.029 2102.14,681.757 2123.02,692.553 2143.91,699.174 2164.79,700.138 2185.68,693.592 2206.56,677.058 2227.45,646.948 2248.33,597.606 2269.22,519.278 2290.1,393.349 "></polyline>
<polyline clip-path="url(#clip632)" style="stroke:#00a98d; stroke-linecap:round; stroke-linejoin:round; stroke-width:4; stroke-opacity:1; fill:none" points="201.614,1324.07 222.499,1324.07 243.384,1324.07 264.269,1324.07 285.154,1324.07 306.038,1324.07 326.923,1324.07 347.808,1324.07 368.693,1324.07 389.578,1324.07 410.463,1324.07 431.348,1324.07 452.233,1324.07 473.117,1324.07 494.002,1324.07 514.887,1324.07 535.772,1324.07 556.657,1324.07 577.542,1324.07 598.427,1324.07 619.312,1324.07 640.196,1324.07 661.081,1324.07 681.966,1324.07 702.851,1324.07 723.736,1324.07 744.621,1324.07 765.506,1324.07 786.39,1324.07 807.275,1324.07 828.16,1324.07 849.045,1324.07 869.93,1324.07 890.815,1324.07 911.7,1324.07 932.585,1324.07 953.469,1324.07 974.354,1324.07 995.239,1324.07 1016.12,1324.07 1037.01,1324.07 1057.89,1324.07 1078.78,1324.07 1099.66,1324.07 1120.55,1324.07 1141.43,1324.07 1162.32,1324.07 1183.2,1324.07 1204.09,1324.07 1224.97,1324.07 1245.86,1324.07 1266.74,1324.06 1287.63,1324.06 1308.51,1324.06 1329.4,1324.05 1350.28,1324.05 1371.17,1324.04 1392.05,1324.04 1412.94,1324.03 1433.82,1324.02 1454.71,1324.01 1475.59,1323.99 1496.48,1323.98 1517.36,1323.96 1538.25,1323.95 1559.13,1323.93 1580.02,1323.91 1600.9,1323.89 1621.79,1323.87 1642.67,1323.86 1663.56,1323.85 1684.44,1323.85 1705.32,1323.86 1726.21,1323.9 1747.09,1323.96 1767.98,1324.06 1788.86,1324.2 1809.75,1324.41 1830.63,1324.7 1851.52,1325.08 1872.4,1325.58 1893.29,1326.21 1914.17,1327 1935.06,1327.97 1955.94,1329.11 1976.83,1330.43 1997.71,1331.91 2018.6,1333.52 2039.48,1335.17 2060.37,1336.77 2081.25,1338.19 2102.14,1339.27 2123.02,1339.82 2143.91,1339.62 2164.79,1338.45 2185.68,1336.06 2206.56,1332.16 2227.45,1326.38 2248.33,1318.19 2269.22,1306.65 2290.1,1289.97 "></polyline>
<polyline clip-path="url(#clip632)" style="stroke:#8e971d; stroke-linecap:round; stroke-linejoin:round; stroke-width:4; stroke-opacity:1; fill:none" points="201.614,488.653 222.499,488.653 243.384,488.653 264.269,488.653 285.154,488.653 306.038,488.653 326.923,488.653 347.808,488.653 368.693,488.653 389.578,488.653 410.463,488.653 431.348,488.653 452.233,488.653 473.117,488.653 494.002,488.653 514.887,488.653 535.772,488.653 556.657,488.653 577.542,488.653 598.427,488.653 619.312,488.653 640.196,488.653 661.081,488.653 681.966,488.653 702.851,488.653 723.736,488.653 744.621,488.653 765.506,488.653 786.39,488.653 807.275,488.653 828.16,488.654 849.045,488.654 869.93,488.654 890.815,488.654 911.7,488.654 932.585,488.654 953.469,488.654 974.354,488.654 995.239,488.655 1016.12,488.655 1037.01,488.655 1057.89,488.656 1078.78,488.656 1099.66,488.657 1120.55,488.657 1141.43,488.658 1162.32,488.659 1183.2,488.66 1204.09,488.661 1224.97,488.663 1245.86,488.665 1266.74,488.667 1287.63,488.67 1308.51,488.673 1329.4,488.678 1350.28,488.683 1371.17,488.69 1392.05,488.699 1412.94,488.71 1433.82,488.724 1454.71,488.742 1475.59,488.766 1496.48,488.797 1517.36,488.837 1538.25,488.89 1559.13,488.959 1580.02,489.049 1600.9,489.166 1621.79,489.32 1642.67,489.521 1663.56,489.783 1684.44,490.124 1705.32,490.566 1726.21,491.14 1747.09,491.881 1767.98,492.837 1788.86,494.066 1809.75,495.641 1830.63,497.652 1851.52,500.21 1872.4,503.453 1893.29,507.543 1914.17,512.677 1935.06,519.086 1955.94,527.036 1976.83,536.828 1997.71,548.79 2018.6,563.268 2039.48,580.605 2060.37,601.115 2081.25,625.044 2102.14,652.532 2123.02,683.563 2143.91,717.932 2164.79,755.215 2185.68,794.782 2206.56,835.824 2227.45,877.423 2248.33,918.64 2269.22,958.592 2290.1,996.504 "></polyline>
</svg>