<svg xmlns="http://www.w3.org/2000/svg" xmlns:xlink="http://www.w3.org/1999/xlink" width="600" height="400" viewBox="0 0 2400 1600">
<defs>
  <clipPath id="clip770">
    <rect x="0" y="0" width="2400" height="1600"></rect>
  </clipPath>
</defs>
<path clip-path="url(#clip770)" d="M0 1600 L2400 1600 L2400 0 L0 0  Z" fill="#ffffff" fill-rule="evenodd" fill-opacity="1"></path>
<defs>
  <clipPath id="clip771">
    <rect x="480" y="0" width="1681" height="1600"></rect>
  </clipPath>
</defs>
<path clip-path="url(#clip770)" d="M175.445 1423.18 L2352.76 1423.18 L2352.76 123.472 L175.445 123.472  Z" fill="#ffffff" fill-rule="evenodd" fill-opacity="1"></path>
<defs>
  <clipPath id="clip772">
    <rect x="175" y="123" width="2178" height="1301"></rect>
  </clipPath>
</defs>
<polyline clip-path="url(#clip772)" style="stroke:#000000; stroke-linecap:round; stroke-linejoin:round; stroke-width:2; stroke-opacity:0.1; fill:none" points="249.661,1423.18 249.661,123.472 "></polyline>
<polyline clip-path="url(#clip772)" style="stroke:#000000; stroke-linecap:round; stroke-linejoin:round; stroke-width:2; stroke-opacity:0.1; fill:none" points="636.521,1423.18 636.521,123.472 "></polyline>
<polyline clip-path="url(#clip772)" style="stroke:#000000; stroke-linecap:round; stroke-linejoin:round; stroke-width:2; stroke-opacity:0.1; fill:none" points="1023.38,1423.18 1023.38,123.472 "></polyline>
<polyline clip-path="url(#clip772)" style="stroke:#000000; stroke-linecap:round; stroke-linejoin:round; stroke-width:2; stroke-opacity:0.1; fill:none" points="1410.24,1423.18 1410.24,123.472 "></polyline>
<polyline clip-path="url(#clip772)" style="stroke:#000000; stroke-linecap:round; stroke-linejoin:round; stroke-width:2; stroke-opacity:0.1; fill:none" points="1797.1,1423.18 1797.1,123.472 "></polyline>
<polyline clip-path="url(#clip772)" style="stroke:#000000; stroke-linecap:round; stroke-linejoin:round; stroke-width:2; stroke-opacity:0.1; fill:none" points="2183.96,1423.18 2183.96,123.472 "></polyline>
<polyline clip-path="url(#clip772)" style="stroke:#000000; stroke-linecap:round; stroke-linejoin:round; stroke-width:2; stroke-opacity:0.1; fill:none" points="175.445,1359.84 2352.76,1359.84 "></polyline>
<polyline clip-path="url(#clip772)" style="stroke:#000000; stroke-linecap:round; stroke-linejoin:round; stroke-width:2; stroke-opacity:0.1; fill:none" points="175.445,1017.1 2352.76,1017.1 "></polyline>
<polyline clip-path="url(#clip772)" style="stroke:#000000; stroke-linecap:round; stroke-linejoin:round; stroke-width:2; stroke-opacity:0.1; fill:none" points="175.445,674.364 2352.76,674.364 "></polyline>
<polyline clip-path="url(#clip772)" style="stroke:#000000; stroke-linecap:round; stroke-linejoin:round; stroke-width:2; stroke-opacity:0.1; fill:none" points="175.445,331.625 2352.76,331.625 "></polyline>
<polyline clip-path="url(#clip770)" style="stroke:#000000; stroke-linecap:round; stroke-linejoin:round; stroke-width:4; stroke-opacity:1; fill:none" points="175.445,1423.18 2352.76,1423.18 "></polyline>
<polyline clip-path="url(#clip770)" style="stroke:#000000; stroke-linecap:round; stroke-linejoin:round; stroke-width:4; stroke-opacity:1; fill:none" points="249.661,1423.18 249.661,1404.28 "></polyline>
<polyline clip-path="url(#clip770)" style="stroke:#000000; stroke-linecap:round; stroke-linejoin:round; stroke-width:4; stroke-opacity:1; fill:none" points="636.521,1423.18 636.521,1404.28 "></polyline>
<polyline clip-path="url(#clip770)" style="stroke:#000000; stroke-linecap:round; stroke-linejoin:round; stroke-width:4; stroke-opacity:1; fill:none" points="1023.38,1423.18 1023.38,1404.28 "></polyline>
<polyline clip-path="url(#clip770)" style="stroke:#000000; stroke-linecap:round; stroke-linejoin:round; stroke-width:4; stroke-opacity:1; fill:none" points="1410.24,1423.18 1410.24,1404.28 "></polyline>
<polyline clip-path="url(#clip770)" style="stroke:#000000; stroke-linecap:round; stroke-linejoin:round; stroke-width:4; stroke-opacity:1; fill:none" points="1797.1,1423.18 1797.1,1404.28 "></polyline>
<polyline clip-path="url(#clip770)" style="stroke:#000000; stroke-linecap:round; stroke-linejoin:round; stroke-width:4; stroke-opacity:1; fill:none" points="2183.96,1423.18 2183.96,1404.28 "></polyline>
<path clip-path="url(#clip770)" d="M249.661 1454.1 Q246.05 1454.1 244.222 1457.66 Q242.416 1461.2 242.416 1468.33 Q242.416 1475.44 244.222 1479.01 Q246.05 1482.55 249.661 1482.55 Q253.296 1482.55 255.101 1479.01 Q256.93 1475.44 256.93 1468.33 Q256.93 1461.2 255.101 1457.66 Q253.296 1454.1 249.661 1454.1 M249.661 1450.39 Q255.471 1450.39 258.527 1455 Q261.606 1459.58 261.606 1468.33 Q261.606 1477.06 258.527 1481.67 Q255.471 1486.25 249.661 1486.25 Q243.851 1486.25 240.772 1481.67 Q237.717 1477.06 237.717 1468.33 Q237.717 1459.58 240.772 1455 Q243.851 1450.39 249.661 1450.39 Z" fill="#000000" fill-rule="nonzero" fill-opacity="1"></path><path clip-path="url(#clip770)" d="M626.903 1481.64 L634.542 1481.64 L634.542 1455.28 L626.232 1456.95 L626.232 1452.69 L634.496 1451.02 L639.172 1451.02 L639.172 1481.64 L646.81 1481.64 L646.81 1485.58 L626.903 1485.58 L626.903 1481.64 Z" fill="#000000" fill-rule="nonzero" fill-opacity="1"></path><path clip-path="url(#clip770)" d="M1018.03 1481.64 L1034.35 1481.64 L1034.35 1485.58 L1012.41 1485.58 L1012.41 1481.64 Q1015.07 1478.89 1019.65 1474.26 Q1024.26 1469.61 1025.44 1468.27 Q1027.69 1465.74 1028.57 1464.01 Q1029.47 1462.25 1029.47 1460.56 Q1029.47 1457.8 1027.52 1456.07 Q1025.6 1454.33 1022.5 1454.33 Q1020.3 1454.33 1017.85 1455.09 Q1015.42 1455.86 1012.64 1457.41 L1012.64 1452.69 Q1015.46 1451.55 1017.92 1450.97 Q1020.37 1450.39 1022.41 1450.39 Q1027.78 1450.39 1030.97 1453.08 Q1034.17 1455.77 1034.17 1460.26 Q1034.17 1462.39 1033.36 1464.31 Q1032.57 1466.2 1030.46 1468.8 Q1029.89 1469.47 1026.78 1472.69 Q1023.68 1475.88 1018.03 1481.64 Z" fill="#000000" fill-rule="nonzero" fill-opacity="1"></path><path clip-path="url(#clip770)" d="M1414.49 1466.95 Q1417.84 1467.66 1419.72 1469.93 Q1421.62 1472.2 1421.62 1475.53 Q1421.62 1480.65 1418.1 1483.45 Q1414.58 1486.25 1408.1 1486.25 Q1405.92 1486.25 1403.61 1485.81 Q1401.32 1485.39 1398.86 1484.54 L1398.86 1480.02 Q1400.81 1481.16 1403.12 1481.74 Q1405.44 1482.32 1407.96 1482.32 Q1412.36 1482.32 1414.65 1480.58 Q1416.97 1478.84 1416.97 1475.53 Q1416.97 1472.48 1414.81 1470.77 Q1412.68 1469.03 1408.86 1469.03 L1404.84 1469.03 L1404.84 1465.19 L1409.05 1465.19 Q1412.5 1465.19 1414.33 1463.82 Q1416.15 1462.43 1416.15 1459.84 Q1416.15 1457.18 1414.26 1455.77 Q1412.38 1454.33 1408.86 1454.33 Q1406.94 1454.33 1404.74 1454.75 Q1402.54 1455.16 1399.9 1456.04 L1399.9 1451.88 Q1402.57 1451.14 1404.88 1450.77 Q1407.22 1450.39 1409.28 1450.39 Q1414.6 1450.39 1417.71 1452.83 Q1420.81 1455.23 1420.81 1459.35 Q1420.81 1462.22 1419.16 1464.21 Q1417.52 1466.18 1414.49 1466.95 Z" fill="#000000" fill-rule="nonzero" fill-opacity="1"></path><path clip-path="url(#clip770)" d="M1800.11 1455.09 L1788.3 1473.54 L1800.11 1473.54 L1800.11 1455.09 M1798.88 1451.02 L1804.76 1451.02 L1804.76 1473.54 L1809.69 1473.54 L1809.69 1477.43 L1804.76 1477.43 L1804.76 1485.58 L1800.11 1485.58 L1800.11 1477.43 L1784.51 1477.43 L1784.51 1472.92 L1798.88 1451.02 Z" fill="#000000" fill-rule="nonzero" fill-opacity="1"></path><path clip-path="url(#clip770)" d="M2174.24 1451.02 L2192.59 1451.02 L2192.59 1454.96 L2178.52 1454.96 L2178.52 1463.43 Q2179.54 1463.08 2180.56 1462.92 Q2181.58 1462.73 2182.59 1462.73 Q2188.38 1462.73 2191.76 1465.9 Q2195.14 1469.08 2195.14 1474.49 Q2195.14 1480.07 2191.67 1483.17 Q2188.2 1486.25 2181.88 1486.25 Q2179.7 1486.25 2177.43 1485.88 Q2175.19 1485.51 2172.78 1484.77 L2172.78 1480.07 Q2174.86 1481.2 2177.09 1481.76 Q2179.31 1482.32 2181.78 1482.32 Q2185.79 1482.32 2188.13 1480.21 Q2190.46 1478.1 2190.46 1474.49 Q2190.46 1470.88 2188.13 1468.77 Q2185.79 1466.67 2181.78 1466.67 Q2179.91 1466.67 2178.03 1467.08 Q2176.18 1467.5 2174.24 1468.38 L2174.24 1451.02 Z" fill="#000000" fill-rule="nonzero" fill-opacity="1"></path><path clip-path="url(#clip770)" d="M1268.37 1532.4 L1255.48 1549.74 L1269.03 1568.04 L1262.13 1568.04 L1251.75 1554.04 L1241.37 1568.04 L1234.47 1568.04 L1248.31 1549.39 L1235.65 1532.4 L1242.55 1532.4 L1252.01 1545.1 L1261.46 1532.4 L1268.37 1532.4 Z" fill="#000000" fill-rule="nonzero" fill-opacity="1"></path><path clip-path="url(#clip770)" d="M1276.13 1564.54 L1282.62 1564.54 L1282.62 1545.1 L1275.53 1546.4 L1275.53 1542.71 L1282.85 1541.47 L1287.21 1541.47 L1287.21 1564.54 L1293.73 1564.54 L1293.73 1568.04 L1276.13 1568.04 L1276.13 1564.54 Z" fill="#000000" fill-rule="nonzero" fill-opacity="1"></path><polyline clip-path="url(#clip770)" style="stroke:#000000; stroke-linecap:round; stroke-linejoin:round; stroke-width:4; stroke-opacity:1; fill:none" points="175.445,1423.18 175.445,123.472 "></polyline>
<polyline clip-path="url(#clip770)" style="stroke:#000000; stroke-linecap:round; stroke-linejoin:round; stroke-width:4; stroke-opacity:1; fill:none" points="175.445,1359.84 194.343,1359.84 "></polyline>
<polyline clip-path="url(#clip770)" style="stroke:#000000; stroke-linecap:round; stroke-linejoin:round; stroke-width:4; stroke-opacity:1; fill:none" points="175.445,1017.1 194.343,1017.1 "></polyline>
<polyline clip-path="url(#clip770)" style="stroke:#000000; stroke-linecap:round; stroke-linejoin:round; stroke-width:4; stroke-opacity:1; fill:none" points="175.445,674.364 194.343,674.364 "></polyline>
<polyline clip-path="url(#clip770)" style="stroke:#000000; stroke-linecap:round; stroke-linejoin:round; stroke-width:4; stroke-opacity:1; fill:none" points="175.445,331.625 194.343,331.625 "></polyline>
<path clip-path="url(#clip770)" d="M127.501 1345.64 Q123.89 1345.64 122.061 1349.2 Q120.255 1352.75 120.255 1359.87 Q120.255 1366.98 122.061 1370.55 Q123.89 1374.09 127.501 1374.09 Q131.135 1374.09 132.941 1370.55 Q134.769 1366.98 134.769 1359.87 Q134.769 1352.75 132.941 1349.2 Q131.135 1345.64 127.501 1345.64 M127.501 1341.93 Q133.311 1341.93 136.367 1346.54 Q139.445 1351.12 139.445 1359.87 Q139.445 1368.6 136.367 1373.21 Q133.311 1377.79 127.501 1377.79 Q121.691 1377.79 118.612 1373.21 Q115.556 1368.6 115.556 1359.87 Q115.556 1351.12 118.612 1346.54 Q121.691 1341.93 127.501 1341.93 Z" fill="#000000" fill-rule="nonzero" fill-opacity="1"></path><path clip-path="url(#clip770)" d="M123.126 1030.45 L139.445 1030.45 L139.445 1034.38 L117.501 1034.38 L117.501 1030.45 Q120.163 1027.69 124.746 1023.06 Q129.353 1018.41 130.533 1017.07 Q132.779 1014.54 133.658 1012.81 Q134.561 1011.05 134.561 1009.36 Q134.561 1006.6 132.617 1004.87 Q130.695 1003.13 127.593 1003.13 Q125.394 1003.13 122.941 1003.9 Q120.51 1004.66 117.732 1006.21 L117.732 1001.49 Q120.556 1000.35 123.01 999.775 Q125.464 999.197 127.501 999.197 Q132.871 999.197 136.066 1001.88 Q139.26 1004.57 139.26 1009.06 Q139.26 1011.19 138.45 1013.11 Q137.663 1015.01 135.556 1017.6 Q134.978 1018.27 131.876 1021.49 Q128.774 1024.68 123.126 1030.45 Z" fill="#000000" fill-rule="nonzero" fill-opacity="1"></path><path clip-path="url(#clip770)" d="M129.862 661.158 L118.056 679.607 L129.862 679.607 L129.862 661.158 M128.635 657.084 L134.515 657.084 L134.515 679.607 L139.445 679.607 L139.445 683.495 L134.515 683.495 L134.515 691.644 L129.862 691.644 L129.862 683.495 L114.26 683.495 L114.26 678.982 L128.635 657.084 Z" fill="#000000" fill-rule="nonzero" fill-opacity="1"></path><path clip-path="url(#clip770)" d="M127.917 329.762 Q124.769 329.762 122.918 331.915 Q121.089 334.068 121.089 337.817 Q121.089 341.544 122.918 343.72 Q124.769 345.873 127.917 345.873 Q131.066 345.873 132.894 343.72 Q134.746 341.544 134.746 337.817 Q134.746 334.068 132.894 331.915 Q131.066 329.762 127.917 329.762 M137.2 315.109 L137.2 319.369 Q135.441 318.535 133.635 318.095 Q131.853 317.656 130.093 317.656 Q125.464 317.656 123.01 320.781 Q120.58 323.906 120.232 330.225 Q121.598 328.211 123.658 327.146 Q125.718 326.058 128.195 326.058 Q133.404 326.058 136.413 329.23 Q139.445 332.378 139.445 337.817 Q139.445 343.142 136.297 346.359 Q133.149 349.577 127.917 349.577 Q121.922 349.577 118.751 344.993 Q115.58 340.387 115.58 331.66 Q115.58 323.466 119.468 318.605 Q123.357 313.72 129.908 313.72 Q131.667 313.72 133.45 314.068 Q135.255 314.415 137.2 315.109 Z" fill="#000000" fill-rule="nonzero" fill-opacity="1"></path><path clip-path="url(#clip770)" d="M28.3562 768.79 L45.7028 781.681 L64.0042 768.122 L64.0042 775.029 L49.9996 785.405 L64.0042 795.781 L64.0042 802.688 L45.3526 788.842 L28.3562 801.51 L28.3562 794.603 L41.0558 785.15 L28.3562 775.697 L28.3562 768.79 Z" fill="#000000" fill-rule="nonzero" fill-opacity="1"></path><path clip-path="url(#clip770)" d="M60.3757 757.459 L60.3757 743.964 L64.0042 743.964 L64.0042 762.998 L60.503 762.998 Q59.5163 761.915 57.7339 759.91 Q48.0262 748.961 45.0344 748.961 Q42.9337 748.961 41.6605 750.616 Q40.3556 752.271 40.3556 754.977 Q40.3556 756.632 40.9285 758.573 Q41.4696 760.515 42.5836 762.807 L38.6686 762.807 Q37.7774 760.356 37.3318 758.255 Q36.8862 756.123 36.8862 754.308 Q36.8862 749.693 38.9869 746.924 Q41.0876 744.155 44.5251 744.155 Q48.9493 744.155 57.9886 754.69 Q59.5163 756.473 60.3757 757.459 Z" fill="#000000" fill-rule="nonzero" fill-opacity="1"></path><path clip-path="url(#clip770)" d="M371.767 12.096 L422.93 12.096 L422.93 18.9825 L401.461 18.9825 L401.461 72.576 L393.237 72.576 L393.237 18.9825 L371.767 18.9825 L371.767 12.096 Z" fill="#000000" fill-rule="nonzero" fill-opacity="1"></path><path clip-path="url(#clip770)" d="M444.603 34.1734 Q443.347 33.4443 441.848 33.1202 Q440.39 32.7556 438.607 32.7556 Q432.288 32.7556 428.885 36.8875 Q425.523 40.9789 425.523 48.6757 L425.523 72.576 L418.029 72.576 L418.029 27.2059 L425.523 27.2059 L425.523 34.2544 Q427.872 30.1225 431.64 28.1376 Q435.407 26.1121 440.795 26.1121 Q441.564 26.1121 442.496 26.2337 Q443.428 26.3147 444.562 26.5172 L444.603 34.1734 Z" fill="#000000" fill-rule="nonzero" fill-opacity="1"></path><path clip-path="url(#clip770)" d="M473.04 49.7694 Q464.006 49.7694 460.523 51.8354 Q457.039 53.9013 457.039 58.8839 Q457.039 62.8538 459.631 65.2034 Q462.265 67.5124 466.761 67.5124 Q472.959 67.5124 476.686 63.1374 Q480.453 58.7219 480.453 51.4303 L480.453 49.7694 L473.04 49.7694 M487.907 46.6907 L487.907 72.576 L480.453 72.576 L480.453 65.6895 Q477.901 69.8214 474.093 71.8063 Q470.285 73.7508 464.776 73.7508 Q457.809 73.7508 453.677 69.8619 Q449.585 65.9325 449.585 59.3701 Q449.585 51.7138 454.689 47.825 Q459.834 43.9361 470.002 43.9361 L480.453 43.9361 L480.453 43.2069 Q480.453 38.0623 477.05 35.2672 Q473.688 32.4315 467.571 32.4315 Q463.682 32.4315 459.996 33.3632 Q456.31 34.295 452.907 36.1584 L452.907 29.2718 Q456.998 27.692 460.847 26.9223 Q464.695 26.1121 468.341 26.1121 Q478.185 26.1121 483.046 31.2163 Q487.907 36.3204 487.907 46.6907 Z" fill="#000000" fill-rule="nonzero" fill-opacity="1"></path><path clip-path="url(#clip770)" d="M503.26 27.2059 L510.713 27.2059 L510.713 73.3862 Q510.713 82.0551 507.392 85.944 Q504.11 89.8329 496.778 89.8329 L493.943 89.8329 L493.943 83.5134 L495.928 83.5134 Q500.181 83.5134 501.72 81.5285 Q503.26 79.5841 503.26 73.3862 L503.26 27.2059 M503.26 9.54393 L510.713 9.54393 L510.713 18.9825 L503.26 18.9825 L503.26 9.54393 Z" fill="#000000" fill-rule="nonzero" fill-opacity="1"></path><path clip-path="url(#clip770)" d="M565.117 48.0275 L565.117 51.6733 L530.846 51.6733 Q531.332 59.3701 535.464 63.421 Q539.637 67.4314 547.05 67.4314 Q551.344 67.4314 555.354 66.3781 Q559.405 65.3249 563.375 63.2184 L563.375 70.267 Q559.365 71.9684 555.152 72.8596 Q550.939 73.7508 546.604 73.7508 Q535.748 73.7508 529.388 67.4314 Q523.069 61.1119 523.069 50.3365 Q523.069 39.1965 529.064 32.6746 Q535.1 26.1121 545.308 26.1121 Q554.463 26.1121 559.77 32.0264 Q565.117 37.9003 565.117 48.0275 M557.663 45.84 Q557.582 39.7232 554.22 36.0774 Q550.898 32.4315 545.389 32.4315 Q539.151 32.4315 535.383 35.9558 Q531.657 39.4801 531.089 45.8805 L557.663 45.84 Z" fill="#000000" fill-rule="nonzero" fill-opacity="1"></path><path clip-path="url(#clip770)" d="M610.001 28.9478 L610.001 35.9153 Q606.841 34.1734 603.641 33.3227 Q600.481 32.4315 597.241 32.4315 Q589.99 32.4315 585.979 37.0496 Q581.969 41.6271 581.969 49.9314 Q581.969 58.2358 585.979 62.8538 Q589.99 67.4314 597.241 67.4314 Q600.481 67.4314 603.641 66.5807 Q606.841 65.6895 610.001 63.9476 L610.001 70.8341 Q606.882 72.2924 603.52 73.0216 Q600.198 73.7508 596.431 73.7508 Q586.182 73.7508 580.146 67.3098 Q574.11 60.8689 574.11 49.9314 Q574.11 38.832 580.186 32.472 Q586.303 26.1121 596.917 26.1121 Q600.36 26.1121 603.641 26.8413 Q606.922 27.5299 610.001 28.9478 Z" fill="#000000" fill-rule="nonzero" fill-opacity="1"></path><path clip-path="url(#clip770)" d="M630.337 14.324 L630.337 27.2059 L645.69 27.2059 L645.69 32.9987 L630.337 32.9987 L630.337 57.6282 Q630.337 63.1779 631.835 64.7578 Q633.375 66.3376 638.033 66.3376 L645.69 66.3376 L645.69 72.576 L638.033 72.576 Q629.405 72.576 626.124 69.3758 Q622.842 66.1351 622.842 57.6282 L622.842 32.9987 L617.374 32.9987 L617.374 27.2059 L622.842 27.2059 L622.842 14.324 L630.337 14.324 Z" fill="#000000" fill-rule="nonzero" fill-opacity="1"></path><path clip-path="url(#clip770)" d="M673.074 32.4315 Q667.078 32.4315 663.595 37.1306 Q660.111 41.7891 660.111 49.9314 Q660.111 58.0738 663.554 62.7728 Q667.038 67.4314 673.074 67.4314 Q679.028 67.4314 682.512 62.7323 Q685.996 58.0333 685.996 49.9314 Q685.996 41.8701 682.512 37.1711 Q679.028 32.4315 673.074 32.4315 M673.074 26.1121 Q682.796 26.1121 688.346 32.4315 Q693.895 38.7509 693.895 49.9314 Q693.895 61.0714 688.346 67.4314 Q682.796 73.7508 673.074 73.7508 Q663.311 73.7508 657.761 67.4314 Q652.252 61.0714 652.252 49.9314 Q652.252 38.7509 657.761 32.4315 Q663.311 26.1121 673.074 26.1121 Z" fill="#000000" fill-rule="nonzero" fill-opacity="1"></path><path clip-path="url(#clip770)" d="M732.541 34.1734 Q731.285 33.4443 729.786 33.1202 Q728.328 32.7556 726.546 32.7556 Q720.226 32.7556 716.823 36.8875 Q713.461 40.9789 713.461 48.6757 L713.461 72.576 L705.967 72.576 L705.967 27.2059 L713.461 27.2059 L713.461 34.2544 Q715.811 30.1225 719.578 28.1376 Q723.345 26.1121 728.733 26.1121 Q729.503 26.1121 730.434 26.2337 Q731.366 26.3147 732.5 26.5172 L732.541 34.1734 Z" fill="#000000" fill-rule="nonzero" fill-opacity="1"></path><path clip-path="url(#clip770)" d="M759.236 76.7889 Q756.077 84.8907 753.079 87.3618 Q750.081 89.8329 745.058 89.8329 L739.103 89.8329 L739.103 83.5945 L743.478 83.5945 Q746.557 83.5945 748.258 82.1361 Q749.96 80.6778 752.026 75.2496 L753.363 71.8468 L735.012 27.2059 L742.911 27.2059 L757.089 62.6918 L771.268 27.2059 L779.167 27.2059 L759.236 76.7889 Z" fill="#000000" fill-rule="nonzero" fill-opacity="1"></path><path clip-path="url(#clip770)" d="M815.827 27.2059 L823.281 27.2059 L823.281 72.576 L815.827 72.576 L815.827 27.2059 M815.827 9.54393 L823.281 9.54393 L823.281 18.9825 L815.827 18.9825 L815.827 9.54393 Z" fill="#000000" fill-rule="nonzero" fill-opacity="1"></path><path clip-path="url(#clip770)" d="M876.591 45.1919 L876.591 72.576 L869.137 72.576 L869.137 45.4349 Q869.137 38.994 866.626 35.7938 Q864.114 32.5936 859.091 32.5936 Q853.055 32.5936 849.572 36.4419 Q846.088 40.2903 846.088 46.9338 L846.088 72.576 L838.594 72.576 L838.594 27.2059 L846.088 27.2059 L846.088 34.2544 Q848.761 30.163 852.367 28.1376 Q856.012 26.1121 860.752 26.1121 Q868.57 26.1121 872.581 30.9732 Q876.591 35.7938 876.591 45.1919 Z" fill="#000000" fill-rule="nonzero" fill-opacity="1"></path><path clip-path="url(#clip770)" d="M954.409 14.0809 L954.409 22.0612 Q949.75 19.8332 945.618 18.7395 Q941.487 17.6457 937.638 17.6457 Q930.954 17.6457 927.308 20.2383 Q923.703 22.8309 923.703 27.611 Q923.703 31.6214 926.093 33.6873 Q928.524 35.7128 935.248 36.9686 L940.19 37.9813 Q949.345 39.7232 953.68 44.1387 Q958.055 48.5136 958.055 55.8863 Q958.055 64.6767 952.14 69.2137 Q946.267 73.7508 934.884 73.7508 Q930.59 73.7508 925.729 72.7785 Q920.908 71.8063 915.723 69.9024 L915.723 61.4765 Q920.705 64.2716 925.485 65.6895 Q930.266 67.1073 934.884 67.1073 Q941.892 67.1073 945.699 64.3527 Q949.507 61.598 949.507 56.4939 Q949.507 52.0379 946.753 49.5264 Q944.039 47.0148 937.8 45.759 L932.818 44.7868 Q923.663 42.9639 919.571 39.075 Q915.48 35.1862 915.48 28.2591 Q915.48 20.2383 921.11 15.6203 Q926.782 11.0023 936.706 11.0023 Q940.96 11.0023 945.375 11.7719 Q949.791 12.5416 954.409 14.0809 Z" fill="#000000" fill-rule="nonzero" fill-opacity="1"></path><path clip-path="url(#clip770)" d="M977.864 14.324 L977.864 27.2059 L993.217 27.2059 L993.217 32.9987 L977.864 32.9987 L977.864 57.6282 Q977.864 63.1779 979.362 64.7578 Q980.902 66.3376 985.56 66.3376 L993.217 66.3376 L993.217 72.576 L985.56 72.576 Q976.932 72.576 973.651 69.3758 Q970.369 66.1351 970.369 57.6282 L970.369 32.9987 L964.901 32.9987 L964.901 27.2059 L970.369 27.2059 L970.369 14.324 L977.864 14.324 Z" fill="#000000" fill-rule="nonzero" fill-opacity="1"></path><path clip-path="url(#clip770)" d="M1023.64 49.7694 Q1014.61 49.7694 1011.12 51.8354 Q1007.64 53.9013 1007.64 58.8839 Q1007.64 62.8538 1010.23 65.2034 Q1012.86 67.5124 1017.36 67.5124 Q1023.56 67.5124 1027.28 63.1374 Q1031.05 58.7219 1031.05 51.4303 L1031.05 49.7694 L1023.64 49.7694 M1038.51 46.6907 L1038.51 72.576 L1031.05 72.576 L1031.05 65.6895 Q1028.5 69.8214 1024.69 71.8063 Q1020.88 73.7508 1015.38 73.7508 Q1008.41 73.7508 1004.28 69.8619 Q1000.18 65.9325 1000.18 59.3701 Q1000.18 51.7138 1005.29 47.825 Q1010.43 43.9361 1020.6 43.9361 L1031.05 43.9361 L1031.05 43.2069 Q1031.05 38.0623 1027.65 35.2672 Q1024.29 32.4315 1018.17 32.4315 Q1014.28 32.4315 1010.59 33.3632 Q1006.91 34.295 1003.51 36.1584 L1003.51 29.2718 Q1007.6 27.692 1011.45 26.9223 Q1015.29 26.1121 1018.94 26.1121 Q1028.78 26.1121 1033.64 31.2163 Q1038.51 36.3204 1038.51 46.6907 Z" fill="#000000" fill-rule="nonzero" fill-opacity="1"></path><path clip-path="url(#clip770)" d="M1061.23 14.324 L1061.23 27.2059 L1076.58 27.2059 L1076.58 32.9987 L1061.23 32.9987 L1061.23 57.6282 Q1061.23 63.1779 1062.73 64.7578 Q1064.27 66.3376 1068.93 66.3376 L1076.58 66.3376 L1076.58 72.576 L1068.93 72.576 Q1060.3 72.576 1057.02 69.3758 Q1053.74 66.1351 1053.74 57.6282 L1053.74 32.9987 L1048.27 32.9987 L1048.27 27.2059 L1053.74 27.2059 L1053.74 14.324 L1061.23 14.324 Z" fill="#000000" fill-rule="nonzero" fill-opacity="1"></path><path clip-path="url(#clip770)" d="M1125.2 48.0275 L1125.2 51.6733 L1090.92 51.6733 Q1091.41 59.3701 1095.54 63.421 Q1099.71 67.4314 1107.13 67.4314 Q1111.42 67.4314 1115.43 66.3781 Q1119.48 65.3249 1123.45 63.2184 L1123.45 70.267 Q1119.44 71.9684 1115.23 72.8596 Q1111.02 73.7508 1106.68 73.7508 Q1095.83 73.7508 1089.47 67.4314 Q1083.15 61.1119 1083.15 50.3365 Q1083.15 39.1965 1089.14 32.6746 Q1095.18 26.1121 1105.39 26.1121 Q1114.54 26.1121 1119.85 32.0264 Q1125.2 37.9003 1125.2 48.0275 M1117.74 45.84 Q1117.66 39.7232 1114.3 36.0774 Q1110.98 32.4315 1105.47 32.4315 Q1099.23 32.4315 1095.46 35.9558 Q1091.73 39.4801 1091.17 45.8805 L1117.74 45.84 Z" fill="#000000" fill-rule="nonzero" fill-opacity="1"></path><path clip-path="url(#clip770)" d="M1200.38 14.0809 L1200.38 22.0612 Q1195.72 19.8332 1191.59 18.7395 Q1187.46 17.6457 1183.61 17.6457 Q1176.93 17.6457 1173.28 20.2383 Q1169.67 22.8309 1169.67 27.611 Q1169.67 31.6214 1172.06 33.6873 Q1174.49 35.7128 1181.22 36.9686 L1186.16 37.9813 Q1195.32 39.7232 1199.65 44.1387 Q1204.03 48.5136 1204.03 55.8863 Q1204.03 64.6767 1198.11 69.2137 Q1192.24 73.7508 1180.85 73.7508 Q1176.56 73.7508 1171.7 72.7785 Q1166.88 71.8063 1161.69 69.9024 L1161.69 61.4765 Q1166.68 64.2716 1171.46 65.6895 Q1176.24 67.1073 1180.85 67.1073 Q1187.86 67.1073 1191.67 64.3527 Q1195.48 61.598 1195.48 56.4939 Q1195.48 52.0379 1192.72 49.5264 Q1190.01 47.0148 1183.77 45.759 L1178.79 44.7868 Q1169.63 42.9639 1165.54 39.075 Q1161.45 35.1862 1161.45 28.2591 Q1161.45 20.2383 1167.08 15.6203 Q1172.75 11.0023 1182.68 11.0023 Q1186.93 11.0023 1191.35 11.7719 Q1195.76 12.5416 1200.38 14.0809 Z" fill="#000000" fill-rule="nonzero" fill-opacity="1"></path><path clip-path="url(#clip770)" d="M1223.67 65.7705 L1223.67 89.8329 L1216.18 89.8329 L1216.18 27.2059 L1223.67 27.2059 L1223.67 34.0924 Q1226.02 30.0415 1229.59 28.0971 Q1233.19 26.1121 1238.17 26.1121 Q1246.44 26.1121 1251.58 32.6746 Q1256.77 39.2371 1256.77 49.9314 Q1256.77 60.6258 1251.58 67.1883 Q1246.44 73.7508 1238.17 73.7508 Q1233.19 73.7508 1229.59 71.8063 Q1226.02 69.8214 1223.67 65.7705 M1249.03 49.9314 Q1249.03 41.7081 1245.63 37.0496 Q1242.27 32.3505 1236.35 32.3505 Q1230.44 32.3505 1227.03 37.0496 Q1223.67 41.7081 1223.67 49.9314 Q1223.67 58.1548 1227.03 62.8538 Q1230.44 67.5124 1236.35 67.5124 Q1242.27 67.5124 1245.63 62.8538 Q1249.03 58.1548 1249.03 49.9314 Z" fill="#000000" fill-rule="nonzero" fill-opacity="1"></path><path clip-path="url(#clip770)" d="M1289.74 49.7694 Q1280.71 49.7694 1277.23 51.8354 Q1273.74 53.9013 1273.74 58.8839 Q1273.74 62.8538 1276.33 65.2034 Q1278.97 67.5124 1283.46 67.5124 Q1289.66 67.5124 1293.39 63.1374 Q1297.16 58.7219 1297.16 51.4303 L1297.16 49.7694 L1289.74 49.7694 M1304.61 46.6907 L1304.61 72.576 L1297.16 72.576 L1297.16 65.6895 Q1294.6 69.8214 1290.8 71.8063 Q1286.99 73.7508 1281.48 73.7508 Q1274.51 73.7508 1270.38 69.8619 Q1266.29 65.9325 1266.29 59.3701 Q1266.29 51.7138 1271.39 47.825 Q1276.54 43.9361 1286.7 43.9361 L1297.16 43.9361 L1297.16 43.2069 Q1297.16 38.0623 1293.75 35.2672 Q1290.39 32.4315 1284.27 32.4315 Q1280.39 32.4315 1276.7 33.3632 Q1273.01 34.295 1269.61 36.1584 L1269.61 29.2718 Q1273.7 27.692 1277.55 26.9223 Q1281.4 26.1121 1285.04 26.1121 Q1294.89 26.1121 1299.75 31.2163 Q1304.61 36.3204 1304.61 46.6907 Z" fill="#000000" fill-rule="nonzero" fill-opacity="1"></path><path clip-path="url(#clip770)" d="M1352.61 28.9478 L1352.61 35.9153 Q1349.45 34.1734 1346.25 33.3227 Q1343.09 32.4315 1339.85 32.4315 Q1332.6 32.4315 1328.59 37.0496 Q1324.58 41.6271 1324.58 49.9314 Q1324.58 58.2358 1328.59 62.8538 Q1332.6 67.4314 1339.85 67.4314 Q1343.09 67.4314 1346.25 66.5807 Q1349.45 65.6895 1352.61 63.9476 L1352.61 70.8341 Q1349.49 72.2924 1346.13 73.0216 Q1342.81 73.7508 1339.04 73.7508 Q1328.79 73.7508 1322.76 67.3098 Q1316.72 60.8689 1316.72 49.9314 Q1316.72 38.832 1322.8 32.472 Q1328.92 26.1121 1339.53 26.1121 Q1342.97 26.1121 1346.25 26.8413 Q1349.53 27.5299 1352.61 28.9478 Z" fill="#000000" fill-rule="nonzero" fill-opacity="1"></path><path clip-path="url(#clip770)" d="M1404.38 48.0275 L1404.38 51.6733 L1370.11 51.6733 Q1370.6 59.3701 1374.73 63.421 Q1378.9 67.4314 1386.32 67.4314 Q1390.61 67.4314 1394.62 66.3781 Q1398.67 65.3249 1402.64 63.2184 L1402.64 70.267 Q1398.63 71.9684 1394.42 72.8596 Q1390.21 73.7508 1385.87 73.7508 Q1375.01 73.7508 1368.65 67.4314 Q1362.33 61.1119 1362.33 50.3365 Q1362.33 39.1965 1368.33 32.6746 Q1374.37 26.1121 1384.57 26.1121 Q1393.73 26.1121 1399.04 32.0264 Q1404.38 37.9003 1404.38 48.0275 M1396.93 45.84 Q1396.85 39.7232 1393.49 36.0774 Q1390.16 32.4315 1384.66 32.4315 Q1378.42 32.4315 1374.65 35.9558 Q1370.92 39.4801 1370.36 45.8805 L1396.93 45.84 Z" fill="#000000" fill-rule="nonzero" fill-opacity="1"></path><path clip-path="url(#clip770)" d="M1460.89 9.62495 Q1455.47 18.942 1452.83 28.0566 Q1450.2 37.1711 1450.2 46.5287 Q1450.2 55.8863 1452.83 65.0818 Q1455.51 74.2369 1460.89 83.5134 L1454.41 83.5134 Q1448.34 73.9938 1445.3 64.7983 Q1442.3 55.6027 1442.3 46.5287 Q1442.3 37.4952 1445.3 28.3401 Q1448.3 19.1851 1454.41 9.62495 L1460.89 9.62495 Z" fill="#000000" fill-rule="nonzero" fill-opacity="1"></path><path clip-path="url(#clip770)" d="M1475.68 12.096 L1486.7 12.096 L1513.51 62.6918 L1513.51 12.096 L1521.45 12.096 L1521.45 72.576 L1510.44 72.576 L1483.62 21.9802 L1483.62 72.576 L1475.68 72.576 L1475.68 12.096 Z" fill="#000000" fill-rule="nonzero" fill-opacity="1"></path><path clip-path="url(#clip770)" d="M1555 32.4315 Q1549 32.4315 1545.52 37.1306 Q1542.03 41.7891 1542.03 49.9314 Q1542.03 58.0738 1545.48 62.7728 Q1548.96 67.4314 1555 67.4314 Q1560.95 67.4314 1564.43 62.7323 Q1567.92 58.0333 1567.92 49.9314 Q1567.92 41.8701 1564.43 37.1711 Q1560.95 32.4315 1555 32.4315 M1555 26.1121 Q1564.72 26.1121 1570.27 32.4315 Q1575.82 38.7509 1575.82 49.9314 Q1575.82 61.0714 1570.27 67.4314 Q1564.72 73.7508 1555 73.7508 Q1545.23 73.7508 1539.68 67.4314 Q1534.17 61.0714 1534.17 49.9314 Q1534.17 38.7509 1539.68 32.4315 Q1545.23 26.1121 1555 26.1121 Z" fill="#000000" fill-rule="nonzero" fill-opacity="1"></path><path clip-path="url(#clip770)" d="M1588.17 27.2059 L1595.63 27.2059 L1595.63 72.576 L1588.17 72.576 L1588.17 27.2059 M1588.17 9.54393 L1595.63 9.54393 L1595.63 18.9825 L1588.17 18.9825 L1588.17 9.54393 Z" fill="#000000" fill-rule="nonzero" fill-opacity="1"></path><path clip-path="url(#clip770)" d="M1640.15 28.5427 L1640.15 35.5912 Q1636.99 33.9709 1633.58 33.1607 Q1630.18 32.3505 1626.53 32.3505 Q1620.99 32.3505 1618.19 34.0519 Q1615.44 35.7533 1615.44 39.156 Q1615.44 41.7486 1617.42 43.2475 Q1619.41 44.7058 1625.4 46.0426 L1627.95 46.6097 Q1635.89 48.3111 1639.21 51.4303 Q1642.58 54.509 1642.58 60.0587 Q1642.58 66.3781 1637.55 70.0644 Q1632.57 73.7508 1623.82 73.7508 Q1620.18 73.7508 1616.21 73.0216 Q1612.28 72.3329 1607.9 70.9151 L1607.9 63.2184 Q1612.03 65.3654 1616.04 66.4591 Q1620.05 67.5124 1623.98 67.5124 Q1629.25 67.5124 1632.08 65.73 Q1634.92 63.9071 1634.92 60.6258 Q1634.92 57.5877 1632.85 55.9673 Q1630.83 54.3469 1623.9 52.8481 L1621.31 52.2405 Q1614.38 50.7821 1611.3 47.7845 Q1608.22 44.7463 1608.22 39.4801 Q1608.22 33.0797 1612.76 29.5959 Q1617.3 26.1121 1625.64 26.1121 Q1629.78 26.1121 1633.42 26.7198 Q1637.07 27.3274 1640.15 28.5427 Z" fill="#000000" fill-rule="nonzero" fill-opacity="1"></path><path clip-path="url(#clip770)" d="M1673.32 76.7889 Q1670.16 84.8907 1667.17 87.3618 Q1664.17 89.8329 1659.14 89.8329 L1653.19 89.8329 L1653.19 83.5945 L1657.56 83.5945 Q1660.64 83.5945 1662.34 82.1361 Q1664.05 80.6778 1666.11 75.2496 L1667.45 71.8468 L1649.1 27.2059 L1657 27.2059 L1671.18 62.6918 L1685.35 27.2059 L1693.25 27.2059 L1673.32 76.7889 Z" fill="#000000" fill-rule="nonzero" fill-opacity="1"></path><path clip-path="url(#clip770)" d="M1738.42 18.8205 L1738.42 65.8515 L1748.31 65.8515 Q1760.82 65.8515 1766.62 60.1802 Q1772.45 54.509 1772.45 42.2752 Q1772.45 30.1225 1766.62 24.4918 Q1760.82 18.8205 1748.31 18.8205 L1738.42 18.8205 M1730.24 12.096 L1747.05 12.096 Q1764.63 12.096 1772.85 19.4281 Q1781.08 26.7198 1781.08 42.2752 Q1781.08 57.9117 1772.81 65.2439 Q1764.55 72.576 1747.05 72.576 L1730.24 72.576 L1730.24 12.096 Z" fill="#000000" fill-rule="nonzero" fill-opacity="1"></path><path clip-path="url(#clip770)" d="M1812.67 76.7889 Q1809.51 84.8907 1806.52 87.3618 Q1803.52 89.8329 1798.5 89.8329 L1792.54 89.8329 L1792.54 83.5945 L1796.92 83.5945 Q1799.99 83.5945 1801.7 82.1361 Q1803.4 80.6778 1805.46 75.2496 L1806.8 71.8468 L1788.45 27.2059 L1796.35 27.2059 L1810.53 62.6918 L1824.71 27.2059 L1832.6 27.2059 L1812.67 76.7889 Z" fill="#000000" fill-rule="nonzero" fill-opacity="1"></path><path clip-path="url(#clip770)" d="M1880.61 45.1919 L1880.61 72.576 L1873.15 72.576 L1873.15 45.4349 Q1873.15 38.994 1870.64 35.7938 Q1868.13 32.5936 1863.11 32.5936 Q1857.07 32.5936 1853.59 36.4419 Q1850.1 40.2903 1850.1 46.9338 L1850.1 72.576 L1842.61 72.576 L1842.61 27.2059 L1850.1 27.2059 L1850.1 34.2544 Q1852.78 30.163 1856.38 28.1376 Q1860.03 26.1121 1864.77 26.1121 Q1872.59 26.1121 1876.6 30.9732 Q1880.61 35.7938 1880.61 45.1919 Z" fill="#000000" fill-rule="nonzero" fill-opacity="1"></path><path clip-path="url(#clip770)" d="M1916.09 49.7694 Q1907.06 49.7694 1903.58 51.8354 Q1900.09 53.9013 1900.09 58.8839 Q1900.09 62.8538 1902.69 65.2034 Q1905.32 67.5124 1909.81 67.5124 Q1916.01 67.5124 1919.74 63.1374 Q1923.51 58.7219 1923.51 51.4303 L1923.51 49.7694 L1916.09 49.7694 M1930.96 46.6907 L1930.96 72.576 L1923.51 72.576 L1923.51 65.6895 Q1920.95 69.8214 1917.15 71.8063 Q1913.34 73.7508 1907.83 73.7508 Q1900.86 73.7508 1896.73 69.8619 Q1892.64 65.9325 1892.64 59.3701 Q1892.64 51.7138 1897.74 47.825 Q1902.89 43.9361 1913.06 43.9361 L1923.51 43.9361 L1923.51 43.2069 Q1923.51 38.0623 1920.1 35.2672 Q1916.74 32.4315 1910.62 32.4315 Q1906.74 32.4315 1903.05 33.3632 Q1899.36 34.295 1895.96 36.1584 L1895.96 29.2718 Q1900.05 27.692 1903.9 26.9223 Q1907.75 26.1121 1911.39 26.1121 Q1921.24 26.1121 1926.1 31.2163 Q1930.96 36.3204 1930.96 46.6907 Z" fill="#000000" fill-rule="nonzero" fill-opacity="1"></path><path clip-path="url(#clip770)" d="M1981.64 35.9153 Q1984.43 30.8922 1988.32 28.5022 Q1992.21 26.1121 1997.48 26.1121 Q2004.57 26.1121 2008.41 31.0947 Q2012.26 36.0368 2012.26 45.1919 L2012.26 72.576 L2004.77 72.576 L2004.77 45.4349 Q2004.77 38.913 2002.46 35.7533 Q2000.15 32.5936 1995.41 32.5936 Q1989.62 32.5936 1986.26 36.4419 Q1982.89 40.2903 1982.89 46.9338 L1982.89 72.576 L1975.4 72.576 L1975.4 45.4349 Q1975.4 38.8725 1973.09 35.7533 Q1970.78 32.5936 1965.96 32.5936 Q1960.25 32.5936 1956.89 36.4824 Q1953.52 40.3308 1953.52 46.9338 L1953.52 72.576 L1946.03 72.576 L1946.03 27.2059 L1953.52 27.2059 L1953.52 34.2544 Q1956.08 30.082 1959.64 28.0971 Q1963.21 26.1121 1968.11 26.1121 Q1973.05 26.1121 1976.49 28.6237 Q1979.98 31.1352 1981.64 35.9153 Z" fill="#000000" fill-rule="nonzero" fill-opacity="1"></path><path clip-path="url(#clip770)" d="M2027.13 27.2059 L2034.58 27.2059 L2034.58 72.576 L2027.13 72.576 L2027.13 27.2059 M2027.13 9.54393 L2034.58 9.54393 L2034.58 18.9825 L2027.13 18.9825 L2027.13 9.54393 Z" fill="#000000" fill-rule="nonzero" fill-opacity="1"></path><path clip-path="url(#clip770)" d="M2082.83 28.9478 L2082.83 35.9153 Q2079.67 34.1734 2076.47 33.3227 Q2073.31 32.4315 2070.07 32.4315 Q2062.82 32.4315 2058.81 37.0496 Q2054.8 41.6271 2054.8 49.9314 Q2054.8 58.2358 2058.81 62.8538 Q2062.82 67.4314 2070.07 67.4314 Q2073.31 67.4314 2076.47 66.5807 Q2079.67 65.6895 2082.83 63.9476 L2082.83 70.8341 Q2079.71 72.2924 2076.35 73.0216 Q2073.03 73.7508 2069.26 73.7508 Q2059.01 73.7508 2052.97 67.3098 Q2046.94 60.8689 2046.94 49.9314 Q2046.94 38.832 2053.01 32.472 Q2059.13 26.1121 2069.74 26.1121 Q2073.19 26.1121 2076.47 26.8413 Q2079.75 27.5299 2082.83 28.9478 Z" fill="#000000" fill-rule="nonzero" fill-opacity="1"></path><path clip-path="url(#clip770)" d="M2124.72 28.5427 L2124.72 35.5912 Q2121.56 33.9709 2118.15 33.1607 Q2114.75 32.3505 2111.1 32.3505 Q2105.55 32.3505 2102.76 34.0519 Q2100 35.7533 2100 39.156 Q2100 41.7486 2101.99 43.2475 Q2103.97 44.7058 2109.97 46.0426 L2112.52 46.6097 Q2120.46 48.3111 2123.78 51.4303 Q2127.15 54.509 2127.15 60.0587 Q2127.15 66.3781 2122.12 70.0644 Q2117.14 73.7508 2108.39 73.7508 Q2104.74 73.7508 2100.77 73.0216 Q2096.84 72.3329 2092.47 70.9151 L2092.47 63.2184 Q2096.6 65.3654 2100.61 66.4591 Q2104.62 67.5124 2108.55 67.5124 Q2113.82 67.5124 2116.65 65.73 Q2119.49 63.9071 2119.49 60.6258 Q2119.49 57.5877 2117.42 55.9673 Q2115.4 54.3469 2108.47 52.8481 L2105.88 52.2405 Q2098.95 50.7821 2095.87 47.7845 Q2092.79 44.7463 2092.79 39.4801 Q2092.79 33.0797 2097.33 29.5959 Q2101.87 26.1121 2110.21 26.1121 Q2114.34 26.1121 2117.99 26.7198 Q2121.64 27.3274 2124.72 28.5427 Z" fill="#000000" fill-rule="nonzero" fill-opacity="1"></path><path clip-path="url(#clip770)" d="M2137.84 9.62495 L2144.32 9.62495 Q2150.4 19.1851 2153.4 28.3401 Q2156.43 37.4952 2156.43 46.5287 Q2156.43 55.6027 2153.4 64.7983 Q2150.4 73.9938 2144.32 83.5134 L2137.84 83.5134 Q2143.23 74.2369 2145.86 65.0818 Q2148.53 55.8863 2148.53 46.5287 Q2148.53 37.1711 2145.86 28.0566 Q2143.23 18.942 2137.84 9.62495 Z" fill="#000000" fill-rule="nonzero" fill-opacity="1"></path><polyline clip-path="url(#clip772)" style="stroke:#009af9; stroke-linecap:round; stroke-linejoin:round; stroke-width:16; stroke-opacity:1; fill:none" stroke-dasharray="8, 16" points="2183.96,160.256 2246,187.331 2279.11,216.793 2290.7,253.23 2283.08,291.25 2263.57,331.216 2229.75,374.108 2180.03,414.584 2122.34,454.542 2065.82,492.851 1999.06,530.768 1927.65,570.09 1852.04,610.419 1780.43,649.74 1706.43,689.631 1628.56,729.44 1545.93,770.813 1469.05,806.352 1388.59,837.535 1313.18,866.038 1245.85,892.474 1179.24,917.808 1104.83,939.946 1036.14,964.964 977.219,989.135 917.496,1012.04 867.276,1035.46 815.4,1057.06 772.651,1073.41 731.267,1087.04 684.812,1100.54 642.963,1112.03 604.58,1119.97 572.636,1131.27 536.965,1138.73 501.603,1145.49 476.484,1153.3 443.278,1158.81 417.162,1163.31 386.8,1164.36 366.654,1167.14 349.691,1164.11 334.745,1159.6 327.722,1155.18 317.666,1146.12 316.583,1139.68 320.351,1133.91 323.221,1126.6 315.392,1118.24 313.168,1110.03 313.305,1100.58 315.216,1089.58 329.016,1080.18 334.581,1069.94 337.85,1062.98 346.215,1055.25 350.899,1050.33 353.643,1044.62 350.804,1042.86 347.149,1043.53 342.677,1040.07 345.686,1038.04 349.631,1035.86 351.976,1035.09 354.348,1033.42 354.578,1031.88 361.028,1029.33 368.772,1025.18 378.002,1019.33 376.883,1013.98 370.154,1010.1 "></polyline>
<polyline clip-path="url(#clip772)" style="stroke:#e26f46; stroke-linecap:round; stroke-linejoin:round; stroke-width:8; stroke-opacity:1; fill:none" points="2183.96,160.256 2246,187.331 2279.37,217.14 2291.13,254.463 2283.21,293.895 2262.69,335.978 2226.86,381.696 2174.54,425.732 2113.59,470.299 2052.75,514.368 1980.64,559.056 1903.16,605.882 1821.11,654.049 1742.67,701.486 1661.21,749.604 1575.9,797.172 1486.65,845.52 1403.84,887.413 1318.45,924.732 1239.5,959.465 1169.18,992.25 1099.4,1024.01 1022.56,1052.69 953.291,1084.08 894.963,1114.09 836.47,1142.13 787.929,1169.83 737.81,1194.87 696.471,1214.15 655.919,1230.39 610.435,1246.19 570.333,1259.98 534.073,1270.39 504.102,1284.18 470.708,1294 438.619,1302.93 417.582,1312.68 389.12,1319.97 368.448,1326.31 344.35,1329.42 330.882,1334.48 320.245,1334.19 311.184,1333.32 309.223,1333.53 303.088,1330.16 304.512,1330.33 308.824,1331.67 310.398,1331.74 300.536,1331.2 296.237,1331.47 293.688,1331.28 291.796,1330.18 300.295,1330.93 298.99,1331.01 294.689,1334.38 295.055,1336.85 291.349,1341.84 285.945,1345.66 275.874,1352.88 265.914,1361.65 256.006,1365.56 254.259,1370.28 253.505,1374.21 251.101,1378.92 248.729,1382.11 244.394,1384.92 246.405,1386.4 249.607,1386.16 254.039,1384.16 248.082,1382.67 237.067,1382.67 "></polyline>
<path clip-path="url(#clip770)" d="M248.022 322.316 L1185.68 322.316 L1185.68 166.796 L248.022 166.796  Z" fill="#ffffff" fill-rule="evenodd" fill-opacity="1"></path>
<polyline clip-path="url(#clip770)" style="stroke:#000000; stroke-linecap:round; stroke-linejoin:round; stroke-width:4; stroke-opacity:1; fill:none" points="248.022,322.316 1185.68,322.316 1185.68,166.796 248.022,166.796 248.022,322.316 "></polyline>
<polyline clip-path="url(#clip770)" style="stroke:#009af9; stroke-linecap:round; stroke-linejoin:round; stroke-width:16; stroke-opacity:1; fill:none" stroke-dasharray="8, 16" points="272.215,218.636 417.369,218.636 "></polyline>
<path clip-path="url(#clip770)" d="M469.431 204.018 L469.431 208.948 Q467.07 206.749 464.385 205.661 Q461.723 204.573 458.714 204.573 Q452.788 204.573 449.64 208.208 Q446.491 211.819 446.491 218.67 Q446.491 225.499 449.64 229.133 Q452.788 232.744 458.714 232.744 Q461.723 232.744 464.385 231.656 Q467.07 230.569 469.431 228.369 L469.431 233.254 Q466.977 234.92 464.223 235.754 Q461.491 236.587 458.436 236.587 Q450.589 236.587 446.075 231.795 Q441.561 226.981 441.561 218.67 Q441.561 210.337 446.075 205.546 Q450.589 200.731 458.436 200.731 Q461.538 200.731 464.269 201.564 Q467.024 202.374 469.431 204.018 Z" fill="#000000" fill-rule="nonzero" fill-opacity="1"></path><path clip-path="url(#clip770)" d="M485.565 235.916 L472.371 201.356 L477.255 201.356 L488.204 230.453 L499.176 201.356 L504.037 201.356 L490.866 235.916 L485.565 235.916 Z" fill="#000000" fill-rule="nonzero" fill-opacity="1"></path><path clip-path="url(#clip770)" d="M507.417 201.356 L512.44 201.356 L521.028 214.203 L529.662 201.356 L534.685 201.356 L523.574 217.953 L535.426 235.916 L530.403 235.916 L520.681 221.217 L510.889 235.916 L505.843 235.916 L518.181 217.467 L507.417 201.356 Z" fill="#000000" fill-rule="nonzero" fill-opacity="1"></path><path clip-path="url(#clip770)" d="M551.838 201.356 L581.074 201.356 L581.074 205.291 L568.806 205.291 L568.806 235.916 L564.107 235.916 L564.107 205.291 L551.838 205.291 L551.838 201.356 Z" fill="#000000" fill-rule="nonzero" fill-opacity="1"></path><path clip-path="url(#clip770)" d="M593.458 213.971 Q592.741 213.555 591.884 213.37 Q591.051 213.161 590.032 213.161 Q586.421 213.161 584.477 215.522 Q582.556 217.86 582.556 222.258 L582.556 235.916 L578.273 235.916 L578.273 209.99 L582.556 209.99 L582.556 214.018 Q583.898 211.657 586.051 210.522 Q588.204 209.365 591.282 209.365 Q591.722 209.365 592.255 209.434 Q592.787 209.481 593.435 209.596 L593.458 213.971 Z" fill="#000000" fill-rule="nonzero" fill-opacity="1"></path><path clip-path="url(#clip770)" d="M609.708 222.883 Q604.546 222.883 602.555 224.064 Q600.565 225.244 600.565 228.092 Q600.565 230.36 602.046 231.703 Q603.551 233.022 606.12 233.022 Q609.662 233.022 611.792 230.522 Q613.944 227.999 613.944 223.832 L613.944 222.883 L609.708 222.883 M618.204 221.124 L618.204 235.916 L613.944 235.916 L613.944 231.981 Q612.486 234.342 610.31 235.476 Q608.134 236.587 604.986 236.587 Q601.005 236.587 598.643 234.365 Q596.306 232.119 596.306 228.369 Q596.306 223.994 599.222 221.772 Q602.162 219.55 607.972 219.55 L613.944 219.55 L613.944 219.133 Q613.944 216.194 612 214.596 Q610.079 212.976 606.583 212.976 Q604.361 212.976 602.255 213.508 Q600.148 214.041 598.204 215.106 L598.204 211.17 Q600.542 210.268 602.741 209.828 Q604.94 209.365 607.023 209.365 Q612.648 209.365 615.426 212.282 Q618.204 215.198 618.204 221.124 Z" fill="#000000" fill-rule="nonzero" fill-opacity="1"></path><path clip-path="url(#clip770)" d="M626.977 209.99 L631.236 209.99 L631.236 236.379 Q631.236 241.332 629.338 243.555 Q627.463 245.777 623.273 245.777 L621.653 245.777 L621.653 242.166 L622.787 242.166 Q625.217 242.166 626.097 241.031 Q626.977 239.92 626.977 236.379 L626.977 209.99 M626.977 199.897 L631.236 199.897 L631.236 205.291 L626.977 205.291 L626.977 199.897 Z" fill="#000000" fill-rule="nonzero" fill-opacity="1"></path><path clip-path="url(#clip770)" d="M662.324 221.888 L662.324 223.971 L642.74 223.971 Q643.018 228.369 645.379 230.684 Q647.764 232.976 652 232.976 Q654.453 232.976 656.745 232.374 Q659.06 231.772 661.328 230.569 L661.328 234.596 Q659.037 235.568 656.629 236.078 Q654.222 236.587 651.745 236.587 Q645.541 236.587 641.907 232.976 Q638.296 229.365 638.296 223.207 Q638.296 216.842 641.722 213.115 Q645.171 209.365 651.004 209.365 Q656.236 209.365 659.268 212.745 Q662.324 216.101 662.324 221.888 M658.064 220.638 Q658.018 217.143 656.097 215.059 Q654.199 212.976 651.051 212.976 Q647.486 212.976 645.333 214.99 Q643.203 217.004 642.879 220.661 L658.064 220.638 Z" fill="#000000" fill-rule="nonzero" fill-opacity="1"></path><path clip-path="url(#clip770)" d="M687.972 210.985 L687.972 214.967 Q686.166 213.971 684.337 213.485 Q682.532 212.976 680.68 212.976 Q676.537 212.976 674.245 215.615 Q671.953 218.231 671.953 222.976 Q671.953 227.721 674.245 230.36 Q676.537 232.976 680.68 232.976 Q682.532 232.976 684.337 232.49 Q686.166 231.981 687.972 230.985 L687.972 234.92 Q686.189 235.754 684.268 236.17 Q682.37 236.587 680.217 236.587 Q674.361 236.587 670.912 232.906 Q667.463 229.226 667.463 222.976 Q667.463 216.633 670.935 212.999 Q674.43 209.365 680.495 209.365 Q682.462 209.365 684.337 209.782 Q686.212 210.175 687.972 210.985 Z" fill="#000000" fill-rule="nonzero" fill-opacity="1"></path><path clip-path="url(#clip770)" d="M699.592 202.629 L699.592 209.99 L708.365 209.99 L708.365 213.3 L699.592 213.3 L699.592 227.374 Q699.592 230.545 700.448 231.448 Q701.328 232.351 703.99 232.351 L708.365 232.351 L708.365 235.916 L703.99 235.916 Q699.06 235.916 697.185 234.087 Q695.31 232.235 695.31 227.374 L695.31 213.3 L692.185 213.3 L692.185 209.99 L695.31 209.99 L695.31 202.629 L699.592 202.629 Z" fill="#000000" fill-rule="nonzero" fill-opacity="1"></path><path clip-path="url(#clip770)" d="M724.013 212.976 Q720.587 212.976 718.597 215.661 Q716.606 218.323 716.606 222.976 Q716.606 227.629 718.573 230.314 Q720.564 232.976 724.013 232.976 Q727.416 232.976 729.407 230.291 Q731.397 227.606 731.397 222.976 Q731.397 218.37 729.407 215.684 Q727.416 212.976 724.013 212.976 M724.013 209.365 Q729.569 209.365 732.74 212.976 Q735.911 216.587 735.911 222.976 Q735.911 229.342 732.74 232.976 Q729.569 236.587 724.013 236.587 Q718.434 236.587 715.263 232.976 Q712.115 229.342 712.115 222.976 Q712.115 216.587 715.263 212.976 Q718.434 209.365 724.013 209.365 Z" fill="#000000" fill-rule="nonzero" fill-opacity="1"></path><path clip-path="url(#clip770)" d="M757.994 213.971 Q757.277 213.555 756.42 213.37 Q755.587 213.161 754.569 213.161 Q750.957 213.161 749.013 215.522 Q747.092 217.86 747.092 222.258 L747.092 235.916 L742.809 235.916 L742.809 209.99 L747.092 209.99 L747.092 214.018 Q748.434 211.657 750.587 210.522 Q752.74 209.365 755.819 209.365 Q756.258 209.365 756.791 209.434 Q757.323 209.481 757.971 209.596 L757.994 213.971 Z" fill="#000000" fill-rule="nonzero" fill-opacity="1"></path><path clip-path="url(#clip770)" d="M773.249 238.323 Q771.443 242.953 769.73 244.365 Q768.018 245.777 765.147 245.777 L761.744 245.777 L761.744 242.212 L764.244 242.212 Q766.004 242.212 766.976 241.379 Q767.948 240.545 769.129 237.443 L769.893 235.499 L759.406 209.99 L763.92 209.99 L772.022 230.268 L780.124 209.99 L784.638 209.99 L773.249 238.323 Z" fill="#000000" fill-rule="nonzero" fill-opacity="1"></path><path clip-path="url(#clip770)" d="M815.818 199.944 Q812.716 205.268 811.212 210.476 Q809.707 215.684 809.707 221.032 Q809.707 226.379 811.212 231.633 Q812.74 236.865 815.818 242.166 L812.115 242.166 Q808.642 236.726 806.906 231.471 Q805.193 226.217 805.193 221.032 Q805.193 215.87 806.906 210.638 Q808.619 205.407 812.115 199.944 L815.818 199.944 Z" fill="#000000" fill-rule="nonzero" fill-opacity="1"></path><path clip-path="url(#clip770)" d="M845.633 220.268 L845.633 235.916 L841.374 235.916 L841.374 220.407 Q841.374 216.726 839.938 214.897 Q838.503 213.069 835.633 213.069 Q832.184 213.069 830.193 215.268 Q828.202 217.467 828.202 221.263 L828.202 235.916 L823.92 235.916 L823.92 209.99 L828.202 209.99 L828.202 214.018 Q829.73 211.68 831.79 210.522 Q833.874 209.365 836.582 209.365 Q841.05 209.365 843.341 212.143 Q845.633 214.897 845.633 220.268 Z" fill="#000000" fill-rule="nonzero" fill-opacity="1"></path><path clip-path="url(#clip770)" d="M864.174 212.976 Q860.749 212.976 858.758 215.661 Q856.767 218.323 856.767 222.976 Q856.767 227.629 858.735 230.314 Q860.725 232.976 864.174 232.976 Q867.577 232.976 869.568 230.291 Q871.559 227.606 871.559 222.976 Q871.559 218.37 869.568 215.684 Q867.577 212.976 864.174 212.976 M864.174 209.365 Q869.73 209.365 872.901 212.976 Q876.073 216.587 876.073 222.976 Q876.073 229.342 872.901 232.976 Q869.73 236.587 864.174 236.587 Q858.596 236.587 855.424 232.976 Q852.276 229.342 852.276 222.976 Q852.276 216.587 855.424 212.976 Q858.596 209.365 864.174 209.365 Z" fill="#000000" fill-rule="nonzero" fill-opacity="1"></path><path clip-path="url(#clip770)" d="M913.225 213.971 Q912.508 213.555 911.651 213.37 Q910.818 213.161 909.799 213.161 Q906.188 213.161 904.244 215.522 Q902.322 217.86 902.322 222.258 L902.322 235.916 L898.04 235.916 L898.04 209.99 L902.322 209.99 L902.322 214.018 Q903.665 211.657 905.818 210.522 Q907.97 209.365 911.049 209.365 Q911.489 209.365 912.021 209.434 Q912.554 209.481 913.202 209.596 L913.225 213.971 Z" fill="#000000" fill-rule="nonzero" fill-opacity="1"></path><path clip-path="url(#clip770)" d="M938.827 221.888 L938.827 223.971 L919.244 223.971 Q919.521 228.369 921.882 230.684 Q924.267 232.976 928.503 232.976 Q930.956 232.976 933.248 232.374 Q935.563 231.772 937.831 230.569 L937.831 234.596 Q935.54 235.568 933.132 236.078 Q930.725 236.587 928.248 236.587 Q922.044 236.587 918.41 232.976 Q914.799 229.365 914.799 223.207 Q914.799 216.842 918.225 213.115 Q921.674 209.365 927.507 209.365 Q932.739 209.365 935.771 212.745 Q938.827 216.101 938.827 221.888 M934.568 220.638 Q934.521 217.143 932.6 215.059 Q930.702 212.976 927.554 212.976 Q923.989 212.976 921.836 214.99 Q919.707 217.004 919.382 220.661 L934.568 220.638 Z" fill="#000000" fill-rule="nonzero" fill-opacity="1"></path><path clip-path="url(#clip770)" d="M949.938 232.027 L949.938 245.777 L945.655 245.777 L945.655 209.99 L949.938 209.99 L949.938 213.925 Q951.28 211.61 953.317 210.499 Q955.378 209.365 958.225 209.365 Q962.947 209.365 965.887 213.115 Q968.85 216.865 968.85 222.976 Q968.85 229.087 965.887 232.837 Q962.947 236.587 958.225 236.587 Q955.378 236.587 953.317 235.476 Q951.28 234.342 949.938 232.027 M964.429 222.976 Q964.429 218.277 962.484 215.615 Q960.563 212.93 957.183 212.93 Q953.804 212.93 951.859 215.615 Q949.938 218.277 949.938 222.976 Q949.938 227.675 951.859 230.36 Q953.804 233.022 957.183 233.022 Q960.563 233.022 962.484 230.36 Q964.429 227.675 964.429 222.976 Z" fill="#000000" fill-rule="nonzero" fill-opacity="1"></path><path clip-path="url(#clip770)" d="M975.91 199.897 L980.169 199.897 L980.169 235.916 L975.91 235.916 L975.91 199.897 Z" fill="#000000" fill-rule="nonzero" fill-opacity="1"></path><path clip-path="url(#clip770)" d="M1000.86 222.883 Q995.702 222.883 993.711 224.064 Q991.72 225.244 991.72 228.092 Q991.72 230.36 993.202 231.703 Q994.706 233.022 997.276 233.022 Q1000.82 233.022 1002.95 230.522 Q1005.1 227.999 1005.1 223.832 L1005.1 222.883 L1000.86 222.883 M1009.36 221.124 L1009.36 235.916 L1005.1 235.916 L1005.1 231.981 Q1003.64 234.342 1001.47 235.476 Q999.289 236.587 996.141 236.587 Q992.16 236.587 989.799 234.365 Q987.461 232.119 987.461 228.369 Q987.461 223.994 990.377 221.772 Q993.317 219.55 999.127 219.55 L1005.1 219.55 L1005.1 219.133 Q1005.1 216.194 1003.16 214.596 Q1001.23 212.976 997.739 212.976 Q995.516 212.976 993.41 213.508 Q991.303 214.041 989.359 215.106 L989.359 211.17 Q991.697 210.268 993.896 209.828 Q996.095 209.365 998.178 209.365 Q1003.8 209.365 1006.58 212.282 Q1009.36 215.198 1009.36 221.124 Z" fill="#000000" fill-rule="nonzero" fill-opacity="1"></path><path clip-path="url(#clip770)" d="M1039.68 220.268 L1039.68 235.916 L1035.42 235.916 L1035.42 220.407 Q1035.42 216.726 1033.99 214.897 Q1032.55 213.069 1029.68 213.069 Q1026.23 213.069 1024.24 215.268 Q1022.25 217.467 1022.25 221.263 L1022.25 235.916 L1017.97 235.916 L1017.97 209.99 L1022.25 209.99 L1022.25 214.018 Q1023.78 211.68 1025.84 210.522 Q1027.92 209.365 1030.63 209.365 Q1035.1 209.365 1037.39 212.143 Q1039.68 214.897 1039.68 220.268 Z" fill="#000000" fill-rule="nonzero" fill-opacity="1"></path><path clip-path="url(#clip770)" d="M1069.73 220.268 L1069.73 235.916 L1065.47 235.916 L1065.47 220.407 Q1065.47 216.726 1064.03 214.897 Q1062.6 213.069 1059.73 213.069 Q1056.28 213.069 1054.29 215.268 Q1052.3 217.467 1052.3 221.263 L1052.3 235.916 L1048.02 235.916 L1048.02 209.99 L1052.3 209.99 L1052.3 214.018 Q1053.83 211.68 1055.89 210.522 Q1057.97 209.365 1060.68 209.365 Q1065.15 209.365 1067.44 212.143 Q1069.73 214.897 1069.73 220.268 Z" fill="#000000" fill-rule="nonzero" fill-opacity="1"></path><path clip-path="url(#clip770)" d="M1078.22 209.99 L1082.48 209.99 L1082.48 235.916 L1078.22 235.916 L1078.22 209.99 M1078.22 199.897 L1082.48 199.897 L1082.48 205.291 L1078.22 205.291 L1078.22 199.897 Z" fill="#000000" fill-rule="nonzero" fill-opacity="1"></path><path clip-path="url(#clip770)" d="M1112.95 220.268 L1112.95 235.916 L1108.69 235.916 L1108.69 220.407 Q1108.69 216.726 1107.25 214.897 Q1105.82 213.069 1102.95 213.069 Q1099.5 213.069 1097.51 215.268 Q1095.52 217.467 1095.52 221.263 L1095.52 235.916 L1091.23 235.916 L1091.23 209.99 L1095.52 209.99 L1095.52 214.018 Q1097.04 211.68 1099.1 210.522 Q1101.19 209.365 1103.9 209.365 Q1108.36 209.365 1110.65 212.143 Q1112.95 214.897 1112.95 220.268 Z" fill="#000000" fill-rule="nonzero" fill-opacity="1"></path><path clip-path="url(#clip770)" d="M1138.5 222.652 Q1138.5 218.022 1136.58 215.476 Q1134.68 212.93 1131.23 212.93 Q1127.81 212.93 1125.89 215.476 Q1123.99 218.022 1123.99 222.652 Q1123.99 227.258 1125.89 229.805 Q1127.81 232.351 1131.23 232.351 Q1134.68 232.351 1136.58 229.805 Q1138.5 227.258 1138.5 222.652 M1142.76 232.698 Q1142.76 239.318 1139.82 242.536 Q1136.88 245.777 1130.82 245.777 Q1128.57 245.777 1126.58 245.43 Q1124.59 245.105 1122.71 244.411 L1122.71 240.268 Q1124.59 241.286 1126.42 241.772 Q1128.25 242.258 1130.15 242.258 Q1134.34 242.258 1136.42 240.059 Q1138.5 237.883 1138.5 233.462 L1138.5 231.356 Q1137.18 233.647 1135.12 234.781 Q1133.06 235.916 1130.19 235.916 Q1125.42 235.916 1122.51 232.281 Q1119.59 228.647 1119.59 222.652 Q1119.59 216.633 1122.51 212.999 Q1125.42 209.365 1130.19 209.365 Q1133.06 209.365 1135.12 210.499 Q1137.18 211.633 1138.5 213.925 L1138.5 209.99 L1142.76 209.99 L1142.76 232.698 Z" fill="#000000" fill-rule="nonzero" fill-opacity="1"></path><path clip-path="url(#clip770)" d="M1150.86 199.944 L1154.57 199.944 Q1158.04 205.407 1159.75 210.638 Q1161.49 215.87 1161.49 221.032 Q1161.49 226.217 1159.75 231.471 Q1158.04 236.726 1154.57 242.166 L1150.86 242.166 Q1153.94 236.865 1155.45 231.633 Q1156.97 226.379 1156.97 221.032 Q1156.97 215.684 1155.45 210.476 Q1153.94 205.268 1150.86 199.944 Z" fill="#000000" fill-rule="nonzero" fill-opacity="1"></path><polyline clip-path="url(#clip770)" style="stroke:#e26f46; stroke-linecap:round; stroke-linejoin:round; stroke-width:8; stroke-opacity:1; fill:none" points="272.215,270.476 417.369,270.476 "></polyline>
<path clip-path="url(#clip770)" d="M441.561 253.196 L446.237 253.196 L446.237 283.821 L463.065 283.821 L463.065 287.756 L441.561 287.756 L441.561 253.196 Z" fill="#000000" fill-rule="nonzero" fill-opacity="1"></path><path clip-path="url(#clip770)" d="M482.001 256.367 Q476.908 256.367 473.899 260.163 Q470.913 263.96 470.913 270.51 Q470.913 277.038 473.899 280.834 Q476.908 284.631 482.001 284.631 Q487.093 284.631 490.056 280.834 Q493.042 277.038 493.042 270.51 Q493.042 263.96 490.056 260.163 Q487.093 256.367 482.001 256.367 M488.551 287.131 L494.709 293.867 L489.061 293.867 L483.945 288.334 Q483.181 288.381 482.764 288.404 Q482.371 288.427 482.001 288.427 Q474.709 288.427 470.334 283.566 Q465.982 278.682 465.982 270.51 Q465.982 262.316 470.334 257.455 Q474.709 252.571 482.001 252.571 Q489.269 252.571 493.621 257.455 Q497.973 262.316 497.973 270.51 Q497.973 276.529 495.542 280.811 Q493.135 285.094 488.551 287.131 Z" fill="#000000" fill-rule="nonzero" fill-opacity="1"></path><path clip-path="url(#clip770)" d="M521.676 271.552 Q523.181 272.061 524.593 273.728 Q526.028 275.395 527.463 278.311 L532.209 287.756 L527.186 287.756 L522.764 278.89 Q521.051 275.418 519.431 274.284 Q517.834 273.149 515.056 273.149 L509.963 273.149 L509.963 287.756 L505.287 287.756 L505.287 253.196 L515.843 253.196 Q521.769 253.196 524.686 255.673 Q527.602 258.149 527.602 263.149 Q527.602 266.413 526.074 268.566 Q524.57 270.719 521.676 271.552 M509.963 257.038 L509.963 269.307 L515.843 269.307 Q519.223 269.307 520.936 267.756 Q522.672 266.182 522.672 263.149 Q522.672 260.117 520.936 258.589 Q519.223 257.038 515.843 257.038 L509.963 257.038 Z" fill="#000000" fill-rule="nonzero" fill-opacity="1"></path><path clip-path="url(#clip770)" d="M548.505 253.196 L577.741 253.196 L577.741 257.131 L565.472 257.131 L565.472 287.756 L560.773 287.756 L560.773 257.131 L548.505 257.131 L548.505 253.196 Z" fill="#000000" fill-rule="nonzero" fill-opacity="1"></path><path clip-path="url(#clip770)" d="M590.125 265.811 Q589.407 265.395 588.551 265.21 Q587.718 265.001 586.699 265.001 Q583.088 265.001 581.144 267.362 Q579.222 269.7 579.222 274.098 L579.222 287.756 L574.94 287.756 L574.94 261.83 L579.222 261.83 L579.222 265.858 Q580.565 263.497 582.718 262.362 Q584.87 261.205 587.949 261.205 Q588.389 261.205 588.921 261.274 Q589.454 261.321 590.102 261.436 L590.125 265.811 Z" fill="#000000" fill-rule="nonzero" fill-opacity="1"></path><path clip-path="url(#clip770)" d="M606.375 274.723 Q601.213 274.723 599.222 275.904 Q597.231 277.084 597.231 279.932 Q597.231 282.2 598.713 283.543 Q600.218 284.862 602.787 284.862 Q606.329 284.862 608.458 282.362 Q610.611 279.839 610.611 275.672 L610.611 274.723 L606.375 274.723 M614.87 272.964 L614.87 287.756 L610.611 287.756 L610.611 283.821 Q609.153 286.182 606.977 287.316 Q604.801 288.427 601.653 288.427 Q597.671 288.427 595.31 286.205 Q592.972 283.959 592.972 280.209 Q592.972 275.834 595.889 273.612 Q598.829 271.39 604.639 271.39 L610.611 271.39 L610.611 270.973 Q610.611 268.034 608.667 266.436 Q606.745 264.816 603.25 264.816 Q601.028 264.816 598.921 265.348 Q596.815 265.881 594.87 266.946 L594.87 263.01 Q597.208 262.108 599.407 261.668 Q601.606 261.205 603.69 261.205 Q609.315 261.205 612.092 264.122 Q614.87 267.038 614.87 272.964 Z" fill="#000000" fill-rule="nonzero" fill-opacity="1"></path><path clip-path="url(#clip770)" d="M623.643 261.83 L627.903 261.83 L627.903 288.219 Q627.903 293.172 626.004 295.395 Q624.129 297.617 619.94 297.617 L618.319 297.617 L618.319 294.006 L619.454 294.006 Q621.884 294.006 622.764 292.871 Q623.643 291.76 623.643 288.219 L623.643 261.83 M623.643 251.737 L627.903 251.737 L627.903 257.131 L623.643 257.131 L623.643 251.737 Z" fill="#000000" fill-rule="nonzero" fill-opacity="1"></path><path clip-path="url(#clip770)" d="M658.99 273.728 L658.99 275.811 L639.407 275.811 Q639.685 280.209 642.046 282.524 Q644.43 284.816 648.666 284.816 Q651.12 284.816 653.412 284.214 Q655.726 283.612 657.995 282.409 L657.995 286.436 Q655.703 287.408 653.296 287.918 Q650.889 288.427 648.412 288.427 Q642.208 288.427 638.574 284.816 Q634.963 281.205 634.963 275.047 Q634.963 268.682 638.389 264.955 Q641.838 261.205 647.671 261.205 Q652.902 261.205 655.935 264.585 Q658.99 267.941 658.99 273.728 M654.731 272.478 Q654.685 268.983 652.764 266.899 Q650.865 264.816 647.717 264.816 Q644.152 264.816 642 266.83 Q639.87 268.844 639.546 272.501 L654.731 272.478 Z" fill="#000000" fill-rule="nonzero" fill-opacity="1"></path><path clip-path="url(#clip770)" d="M684.638 262.825 L684.638 266.807 Q682.833 265.811 681.004 265.325 Q679.199 264.816 677.347 264.816 Q673.203 264.816 670.912 267.455 Q668.62 270.071 668.62 274.816 Q668.62 279.561 670.912 282.2 Q673.203 284.816 677.347 284.816 Q679.199 284.816 681.004 284.33 Q682.833 283.821 684.638 282.825 L684.638 286.76 Q682.856 287.594 680.935 288.01 Q679.037 288.427 676.884 288.427 Q671.027 288.427 667.578 284.746 Q664.129 281.066 664.129 274.816 Q664.129 268.473 667.601 264.839 Q671.097 261.205 677.162 261.205 Q679.129 261.205 681.004 261.622 Q682.879 262.015 684.638 262.825 Z" fill="#000000" fill-rule="nonzero" fill-opacity="1"></path><path clip-path="url(#clip770)" d="M696.259 254.469 L696.259 261.83 L705.032 261.83 L705.032 265.14 L696.259 265.14 L696.259 279.214 Q696.259 282.385 697.115 283.288 Q697.995 284.191 700.657 284.191 L705.032 284.191 L705.032 287.756 L700.657 287.756 Q695.726 287.756 693.851 285.927 Q691.976 284.075 691.976 279.214 L691.976 265.14 L688.851 265.14 L688.851 261.83 L691.976 261.83 L691.976 254.469 L696.259 254.469 Z" fill="#000000" fill-rule="nonzero" fill-opacity="1"></path><path clip-path="url(#clip770)" d="M720.68 264.816 Q717.254 264.816 715.263 267.501 Q713.272 270.163 713.272 274.816 Q713.272 279.469 715.24 282.154 Q717.231 284.816 720.68 284.816 Q724.083 284.816 726.073 282.131 Q728.064 279.446 728.064 274.816 Q728.064 270.21 726.073 267.524 Q724.083 264.816 720.68 264.816 M720.68 261.205 Q726.235 261.205 729.407 264.816 Q732.578 268.427 732.578 274.816 Q732.578 281.182 729.407 284.816 Q726.235 288.427 720.68 288.427 Q715.101 288.427 711.93 284.816 Q708.782 281.182 708.782 274.816 Q708.782 268.427 711.93 264.816 Q715.101 261.205 720.68 261.205 Z" fill="#000000" fill-rule="nonzero" fill-opacity="1"></path><path clip-path="url(#clip770)" d="M754.661 265.811 Q753.944 265.395 753.087 265.21 Q752.254 265.001 751.235 265.001 Q747.624 265.001 745.68 267.362 Q743.758 269.7 743.758 274.098 L743.758 287.756 L739.476 287.756 L739.476 261.83 L743.758 261.83 L743.758 265.858 Q745.101 263.497 747.254 262.362 Q749.407 261.205 752.485 261.205 Q752.925 261.205 753.457 261.274 Q753.99 261.321 754.638 261.436 L754.661 265.811 Z" fill="#000000" fill-rule="nonzero" fill-opacity="1"></path><path clip-path="url(#clip770)" d="M769.916 290.163 Q768.11 294.793 766.397 296.205 Q764.684 297.617 761.814 297.617 L758.411 297.617 L758.411 294.052 L760.911 294.052 Q762.67 294.052 763.643 293.219 Q764.615 292.385 765.795 289.283 L766.559 287.339 L756.073 261.83 L760.587 261.83 L768.689 282.108 L776.791 261.83 L781.305 261.83 L769.916 290.163 Z" fill="#000000" fill-rule="nonzero" fill-opacity="1"></path></svg>