<svg xmlns="http://www.w3.org/2000/svg" xmlns:xlink="http://www.w3.org/1999/xlink" width="600" height="400" viewBox="0 0 2400 1600">
<defs>
  <clipPath id="clip120">
    <rect x="0" y="0" width="2400" height="1600"></rect>
  </clipPath>
</defs>
<path clip-path="url(#clip120)" d="M0 1600 L2400 1600 L2400 0 L0 0  Z" fill="#ffffff" fill-rule="evenodd" fill-opacity="1"></path>
<defs>
  <clipPath id="clip121">
    <rect x="480" y="0" width="1681" height="1600"></rect>
  </clipPath>
</defs>
<path clip-path="url(#clip120)" d="M210.746 1423.18 L2352.76 1423.18 L2352.76 123.472 L210.746 123.472  Z" fill="#ffffff" fill-rule="evenodd" fill-opacity="1"></path>
<defs>
  <clipPath id="clip122">
    <rect x="210" y="123" width="2143" height="1301"></rect>
  </clipPath>
</defs>
<polyline clip-path="url(#clip122)" style="stroke:#000000; stroke-linecap:round; stroke-linejoin:round; stroke-width:2; stroke-opacity:0.1; fill:none" points="271.369,1423.18 271.369,123.472 "></polyline>
<polyline clip-path="url(#clip122)" style="stroke:#000000; stroke-linecap:round; stroke-linejoin:round; stroke-width:2; stroke-opacity:0.1; fill:none" points="675.522,1423.18 675.522,123.472 "></polyline>
<polyline clip-path="url(#clip122)" style="stroke:#000000; stroke-linecap:round; stroke-linejoin:round; stroke-width:2; stroke-opacity:0.1; fill:none" points="1079.67,1423.18 1079.67,123.472 "></polyline>
<polyline clip-path="url(#clip122)" style="stroke:#000000; stroke-linecap:round; stroke-linejoin:round; stroke-width:2; stroke-opacity:0.1; fill:none" points="1483.83,1423.18 1483.83,123.472 "></polyline>
<polyline clip-path="url(#clip122)" style="stroke:#000000; stroke-linecap:round; stroke-linejoin:round; stroke-width:2; stroke-opacity:0.1; fill:none" points="1887.98,1423.18 1887.98,123.472 "></polyline>
<polyline clip-path="url(#clip122)" style="stroke:#000000; stroke-linecap:round; stroke-linejoin:round; stroke-width:2; stroke-opacity:0.1; fill:none" points="2292.13,1423.18 2292.13,123.472 "></polyline>
<polyline clip-path="url(#clip122)" style="stroke:#000000; stroke-linecap:round; stroke-linejoin:round; stroke-width:2; stroke-opacity:0.1; fill:none" points="210.746,1267.81 2352.76,1267.81 "></polyline>
<polyline clip-path="url(#clip122)" style="stroke:#000000; stroke-linecap:round; stroke-linejoin:round; stroke-width:2; stroke-opacity:0.1; fill:none" points="210.746,1069.27 2352.76,1069.27 "></polyline>
<polyline clip-path="url(#clip122)" style="stroke:#000000; stroke-linecap:round; stroke-linejoin:round; stroke-width:2; stroke-opacity:0.1; fill:none" points="210.746,870.727 2352.76,870.727 "></polyline>
<polyline clip-path="url(#clip122)" style="stroke:#000000; stroke-linecap:round; stroke-linejoin:round; stroke-width:2; stroke-opacity:0.1; fill:none" points="210.746,672.186 2352.76,672.186 "></polyline>
<polyline clip-path="url(#clip122)" style="stroke:#000000; stroke-linecap:round; stroke-linejoin:round; stroke-width:2; stroke-opacity:0.1; fill:none" points="210.746,473.645 2352.76,473.645 "></polyline>
<polyline clip-path="url(#clip122)" style="stroke:#000000; stroke-linecap:round; stroke-linejoin:round; stroke-width:2; stroke-opacity:0.1; fill:none" points="210.746,275.104 2352.76,275.104 "></polyline>
<polyline clip-path="url(#clip120)" style="stroke:#000000; stroke-linecap:round; stroke-linejoin:round; stroke-width:4; stroke-opacity:1; fill:none" points="210.746,1423.18 2352.76,1423.18 "></polyline>
<polyline clip-path="url(#clip120)" style="stroke:#000000; stroke-linecap:round; stroke-linejoin:round; stroke-width:4; stroke-opacity:1; fill:none" points="271.369,1423.18 271.369,1404.28 "></polyline>
<polyline clip-path="url(#clip120)" style="stroke:#000000; stroke-linecap:round; stroke-linejoin:round; stroke-width:4; stroke-opacity:1; fill:none" points="675.522,1423.18 675.522,1404.28 "></polyline>
<polyline clip-path="url(#clip120)" style="stroke:#000000; stroke-linecap:round; stroke-linejoin:round; stroke-width:4; stroke-opacity:1; fill:none" points="1079.67,1423.18 1079.67,1404.28 "></polyline>
<polyline clip-path="url(#clip120)" style="stroke:#000000; stroke-linecap:round; stroke-linejoin:round; stroke-width:4; stroke-opacity:1; fill:none" points="1483.83,1423.18 1483.83,1404.28 "></polyline>
<polyline clip-path="url(#clip120)" style="stroke:#000000; stroke-linecap:round; stroke-linejoin:round; stroke-width:4; stroke-opacity:1; fill:none" points="1887.98,1423.18 1887.98,1404.28 "></polyline>
<polyline clip-path="url(#clip120)" style="stroke:#000000; stroke-linecap:round; stroke-linejoin:round; stroke-width:4; stroke-opacity:1; fill:none" points="2292.13,1423.18 2292.13,1404.28 "></polyline>
<path clip-path="url(#clip120)" d="M271.369 1454.1 Q267.758 1454.1 265.929 1457.66 Q264.124 1461.2 264.124 1468.33 Q264.124 1475.44 265.929 1479.01 Q267.758 1482.55 271.369 1482.55 Q275.003 1482.55 276.809 1479.01 Q278.637 1475.44 278.637 1468.33 Q278.637 1461.2 276.809 1457.66 Q275.003 1454.1 271.369 1454.1 M271.369 1450.39 Q277.179 1450.39 280.235 1455 Q283.313 1459.58 283.313 1468.33 Q283.313 1477.06 280.235 1481.67 Q277.179 1486.25 271.369 1486.25 Q265.559 1486.25 262.48 1481.67 Q259.424 1477.06 259.424 1468.33 Q259.424 1459.58 262.48 1455 Q265.559 1450.39 271.369 1450.39 Z" fill="#000000" fill-rule="nonzero" fill-opacity="1"></path><path clip-path="url(#clip120)" d="M665.904 1481.64 L673.543 1481.64 L673.543 1455.28 L665.232 1456.95 L665.232 1452.69 L673.496 1451.02 L678.172 1451.02 L678.172 1481.64 L685.811 1481.64 L685.811 1485.58 L665.904 1485.58 L665.904 1481.64 Z" fill="#000000" fill-rule="nonzero" fill-opacity="1"></path><path clip-path="url(#clip120)" d="M1074.33 1481.64 L1090.65 1481.64 L1090.65 1485.58 L1068.7 1485.58 L1068.7 1481.64 Q1071.36 1478.89 1075.95 1474.26 Q1080.55 1469.61 1081.73 1468.27 Q1083.98 1465.74 1084.86 1464.01 Q1085.76 1462.25 1085.76 1460.56 Q1085.76 1457.8 1083.82 1456.07 Q1081.9 1454.33 1078.79 1454.33 Q1076.6 1454.33 1074.14 1455.09 Q1071.71 1455.86 1068.93 1457.41 L1068.93 1452.69 Q1071.76 1451.55 1074.21 1450.97 Q1076.67 1450.39 1078.7 1450.39 Q1084.07 1450.39 1087.27 1453.08 Q1090.46 1455.77 1090.46 1460.26 Q1090.46 1462.39 1089.65 1464.31 Q1088.86 1466.2 1086.76 1468.8 Q1086.18 1469.47 1083.08 1472.69 Q1079.98 1475.88 1074.33 1481.64 Z" fill="#000000" fill-rule="nonzero" fill-opacity="1"></path><path clip-path="url(#clip120)" d="M1488.07 1466.95 Q1491.43 1467.66 1493.31 1469.93 Q1495.2 1472.2 1495.2 1475.53 Q1495.2 1480.65 1491.69 1483.45 Q1488.17 1486.25 1481.69 1486.25 Q1479.51 1486.25 1477.2 1485.81 Q1474.9 1485.39 1472.45 1484.54 L1472.45 1480.02 Q1474.39 1481.16 1476.71 1481.74 Q1479.02 1482.32 1481.55 1482.32 Q1485.95 1482.32 1488.24 1480.58 Q1490.55 1478.84 1490.55 1475.53 Q1490.55 1472.48 1488.4 1470.77 Q1486.27 1469.03 1482.45 1469.03 L1478.42 1469.03 L1478.42 1465.19 L1482.64 1465.19 Q1486.08 1465.19 1487.91 1463.82 Q1489.74 1462.43 1489.74 1459.84 Q1489.74 1457.18 1487.84 1455.77 Q1485.97 1454.33 1482.45 1454.33 Q1480.53 1454.33 1478.33 1454.75 Q1476.13 1455.16 1473.49 1456.04 L1473.49 1451.88 Q1476.15 1451.14 1478.47 1450.77 Q1480.81 1450.39 1482.87 1450.39 Q1488.19 1450.39 1491.29 1452.83 Q1494.39 1455.23 1494.39 1459.35 Q1494.39 1462.22 1492.75 1464.21 Q1491.11 1466.18 1488.07 1466.95 Z" fill="#000000" fill-rule="nonzero" fill-opacity="1"></path><path clip-path="url(#clip120)" d="M1890.99 1455.09 L1879.18 1473.54 L1890.99 1473.54 L1890.99 1455.09 M1889.76 1451.02 L1895.64 1451.02 L1895.64 1473.54 L1900.57 1473.54 L1900.57 1477.43 L1895.64 1477.43 L1895.64 1485.58 L1890.99 1485.58 L1890.99 1477.43 L1875.39 1477.43 L1875.39 1472.92 L1889.76 1451.02 Z" fill="#000000" fill-rule="nonzero" fill-opacity="1"></path><path clip-path="url(#clip120)" d="M2282.41 1451.02 L2300.77 1451.02 L2300.77 1454.96 L2286.69 1454.96 L2286.69 1463.43 Q2287.71 1463.08 2288.73 1462.92 Q2289.75 1462.73 2290.77 1462.73 Q2296.55 1462.73 2299.93 1465.9 Q2303.31 1469.08 2303.31 1474.49 Q2303.31 1480.07 2299.84 1483.17 Q2296.37 1486.25 2290.05 1486.25 Q2287.87 1486.25 2285.61 1485.88 Q2283.36 1485.51 2280.95 1484.77 L2280.95 1480.07 Q2283.04 1481.2 2285.26 1481.76 Q2287.48 1482.32 2289.96 1482.32 Q2293.96 1482.32 2296.3 1480.21 Q2298.64 1478.1 2298.64 1474.49 Q2298.64 1470.88 2296.3 1468.77 Q2293.96 1466.67 2289.96 1466.67 Q2288.08 1466.67 2286.21 1467.08 Q2284.36 1467.5 2282.41 1468.38 L2282.41 1451.02 Z" fill="#000000" fill-rule="nonzero" fill-opacity="1"></path><path clip-path="url(#clip120)" d="M1179.57 1522.27 L1179.57 1532.4 L1191.63 1532.4 L1191.63 1536.95 L1179.57 1536.95 L1179.57 1556.3 Q1179.57 1560.66 1180.74 1561.9 Q1181.95 1563.14 1185.61 1563.14 L1191.63 1563.14 L1191.63 1568.04 L1185.61 1568.04 Q1178.83 1568.04 1176.26 1565.53 Q1173.68 1562.98 1173.68 1556.3 L1173.68 1536.95 L1169.38 1536.95 L1169.38 1532.4 L1173.68 1532.4 L1173.68 1522.27 L1179.57 1522.27 Z" fill="#000000" fill-rule="nonzero" fill-opacity="1"></path><path clip-path="url(#clip120)" d="M1199.33 1532.4 L1205.19 1532.4 L1205.19 1568.04 L1199.33 1568.04 L1199.33 1532.4 M1199.33 1518.52 L1205.19 1518.52 L1205.19 1525.93 L1199.33 1525.93 L1199.33 1518.52 Z" fill="#000000" fill-rule="nonzero" fill-opacity="1"></path><path clip-path="url(#clip120)" d="M1245.2 1539.24 Q1247.39 1535.29 1250.45 1533.41 Q1253.5 1531.54 1257.64 1531.54 Q1263.21 1531.54 1266.23 1535.45 Q1269.26 1539.33 1269.26 1546.53 L1269.26 1568.04 L1263.37 1568.04 L1263.37 1546.72 Q1263.37 1541.59 1261.56 1539.11 Q1259.74 1536.63 1256.02 1536.63 Q1251.47 1536.63 1248.82 1539.65 Q1246.18 1542.68 1246.18 1547.9 L1246.18 1568.04 L1240.29 1568.04 L1240.29 1546.72 Q1240.29 1541.56 1238.48 1539.11 Q1236.67 1536.63 1232.88 1536.63 Q1228.39 1536.63 1225.75 1539.68 Q1223.11 1542.71 1223.11 1547.9 L1223.11 1568.04 L1217.22 1568.04 L1217.22 1532.4 L1223.11 1532.4 L1223.11 1537.93 Q1225.11 1534.66 1227.91 1533.1 Q1230.71 1531.54 1234.57 1531.54 Q1238.45 1531.54 1241.15 1533.51 Q1243.89 1535.48 1245.2 1539.24 Z" fill="#000000" fill-rule="nonzero" fill-opacity="1"></path><path clip-path="url(#clip120)" d="M1311.43 1548.76 L1311.43 1551.62 L1284.5 1551.62 Q1284.89 1557.67 1288.13 1560.85 Q1291.41 1564 1297.24 1564 Q1300.61 1564 1303.76 1563.17 Q1306.94 1562.35 1310.06 1560.69 L1310.06 1566.23 Q1306.91 1567.57 1303.6 1568.27 Q1300.29 1568.97 1296.89 1568.97 Q1288.36 1568.97 1283.36 1564 Q1278.39 1559.04 1278.39 1550.57 Q1278.39 1541.82 1283.1 1536.69 Q1287.85 1531.54 1295.87 1531.54 Q1303.06 1531.54 1307.23 1536.18 Q1311.43 1540.8 1311.43 1548.76 M1305.57 1547.04 Q1305.51 1542.23 1302.87 1539.37 Q1300.26 1536.5 1295.93 1536.5 Q1291.03 1536.5 1288.07 1539.27 Q1285.14 1542.04 1284.7 1547.07 L1305.57 1547.04 Z" fill="#000000" fill-rule="nonzero" fill-opacity="1"></path><path clip-path="url(#clip120)" d="M1335.11 1518.58 Q1330.85 1525.9 1328.78 1533.06 Q1326.71 1540.23 1326.71 1547.58 Q1326.71 1554.93 1328.78 1562.16 Q1330.88 1569.35 1335.11 1576.64 L1330.02 1576.64 Q1325.24 1569.16 1322.86 1561.93 Q1320.5 1554.71 1320.5 1547.58 Q1320.5 1540.48 1322.86 1533.29 Q1325.21 1526.09 1330.02 1518.58 L1335.11 1518.58 Z" fill="#000000" fill-rule="nonzero" fill-opacity="1"></path><path clip-path="url(#clip120)" d="M1369.2 1533.45 L1369.2 1538.98 Q1366.72 1537.71 1364.04 1537.07 Q1361.37 1536.44 1358.51 1536.44 Q1354.14 1536.44 1351.95 1537.77 Q1349.78 1539.11 1349.78 1541.79 Q1349.78 1543.82 1351.34 1545 Q1352.9 1546.15 1357.61 1547.2 L1359.62 1547.64 Q1365.86 1548.98 1368.47 1551.43 Q1371.11 1553.85 1371.11 1558.21 Q1371.11 1563.17 1367.16 1566.07 Q1363.25 1568.97 1356.37 1568.97 Q1353.51 1568.97 1350.39 1568.39 Q1347.3 1567.85 1343.86 1566.74 L1343.86 1560.69 Q1347.11 1562.38 1350.26 1563.24 Q1353.41 1564.07 1356.5 1564.07 Q1360.64 1564.07 1362.87 1562.66 Q1365.09 1561.23 1365.09 1558.65 Q1365.09 1556.27 1363.47 1554.99 Q1361.88 1553.72 1356.44 1552.54 L1354.4 1552.07 Q1348.96 1550.92 1346.54 1548.56 Q1344.12 1546.18 1344.12 1542.04 Q1344.12 1537.01 1347.68 1534.27 Q1351.25 1531.54 1357.81 1531.54 Q1361.05 1531.54 1363.92 1532.01 Q1366.78 1532.49 1369.2 1533.45 Z" fill="#000000" fill-rule="nonzero" fill-opacity="1"></path><path clip-path="url(#clip120)" d="M1379.51 1518.58 L1384.6 1518.58 Q1389.38 1526.09 1391.73 1533.29 Q1394.12 1540.48 1394.12 1547.58 Q1394.12 1554.71 1391.73 1561.93 Q1389.38 1569.16 1384.6 1576.64 L1379.51 1576.64 Q1383.75 1569.35 1385.81 1562.16 Q1387.91 1554.93 1387.91 1547.58 Q1387.91 1540.23 1385.81 1533.06 Q1383.75 1525.9 1379.51 1518.58 Z" fill="#000000" fill-rule="nonzero" fill-opacity="1"></path><polyline clip-path="url(#clip120)" style="stroke:#000000; stroke-linecap:round; stroke-linejoin:round; stroke-width:4; stroke-opacity:1; fill:none" points="210.746,1423.18 210.746,123.472 "></polyline>
<polyline clip-path="url(#clip120)" style="stroke:#000000; stroke-linecap:round; stroke-linejoin:round; stroke-width:4; stroke-opacity:1; fill:none" points="210.746,1267.81 229.644,1267.81 "></polyline>
<polyline clip-path="url(#clip120)" style="stroke:#000000; stroke-linecap:round; stroke-linejoin:round; stroke-width:4; stroke-opacity:1; fill:none" points="210.746,1069.27 229.644,1069.27 "></polyline>
<polyline clip-path="url(#clip120)" style="stroke:#000000; stroke-linecap:round; stroke-linejoin:round; stroke-width:4; stroke-opacity:1; fill:none" points="210.746,870.727 229.644,870.727 "></polyline>
<polyline clip-path="url(#clip120)" style="stroke:#000000; stroke-linecap:round; stroke-linejoin:round; stroke-width:4; stroke-opacity:1; fill:none" points="210.746,672.186 229.644,672.186 "></polyline>
<polyline clip-path="url(#clip120)" style="stroke:#000000; stroke-linecap:round; stroke-linejoin:round; stroke-width:4; stroke-opacity:1; fill:none" points="210.746,473.645 229.644,473.645 "></polyline>
<polyline clip-path="url(#clip120)" style="stroke:#000000; stroke-linecap:round; stroke-linejoin:round; stroke-width:4; stroke-opacity:1; fill:none" points="210.746,275.104 229.644,275.104 "></polyline>
<path clip-path="url(#clip120)" d="M114.631 1268.26 L144.306 1268.26 L144.306 1272.2 L114.631 1272.2 L114.631 1268.26 Z" fill="#000000" fill-rule="nonzero" fill-opacity="1"></path><path clip-path="url(#clip120)" d="M158.427 1281.15 L174.746 1281.15 L174.746 1285.09 L152.802 1285.09 L152.802 1281.15 Q155.464 1278.4 160.047 1273.77 Q164.653 1269.12 165.834 1267.77 Q168.079 1265.25 168.959 1263.51 Q169.862 1261.76 169.862 1260.07 Q169.862 1257.31 167.917 1255.58 Q165.996 1253.84 162.894 1253.84 Q160.695 1253.84 158.241 1254.6 Q155.811 1255.37 153.033 1256.92 L153.033 1252.2 Q155.857 1251.06 158.311 1250.48 Q160.765 1249.9 162.802 1249.9 Q168.172 1249.9 171.366 1252.59 Q174.561 1255.27 174.561 1259.76 Q174.561 1261.89 173.751 1263.82 Q172.964 1265.71 170.857 1268.31 Q170.278 1268.98 167.177 1272.2 Q164.075 1275.39 158.427 1281.15 Z" fill="#000000" fill-rule="nonzero" fill-opacity="1"></path><path clip-path="url(#clip120)" d="M114.26 1069.72 L143.936 1069.72 L143.936 1073.65 L114.26 1073.65 L114.26 1069.72 Z" fill="#000000" fill-rule="nonzero" fill-opacity="1"></path><path clip-path="url(#clip120)" d="M154.839 1082.61 L162.477 1082.61 L162.477 1056.25 L154.167 1057.91 L154.167 1053.65 L162.431 1051.99 L167.107 1051.99 L167.107 1082.61 L174.746 1082.61 L174.746 1086.55 L154.839 1086.55 L154.839 1082.61 Z" fill="#000000" fill-rule="nonzero" fill-opacity="1"></path><path clip-path="url(#clip120)" d="M162.802 856.526 Q159.19 856.526 157.362 860.091 Q155.556 863.632 155.556 870.762 Q155.556 877.868 157.362 881.433 Q159.19 884.975 162.802 884.975 Q166.436 884.975 168.241 881.433 Q170.07 877.868 170.07 870.762 Q170.07 863.632 168.241 860.091 Q166.436 856.526 162.802 856.526 M162.802 852.822 Q168.612 852.822 171.667 857.429 Q174.746 862.012 174.746 870.762 Q174.746 879.489 171.667 884.095 Q168.612 888.678 162.802 888.678 Q156.991 888.678 153.913 884.095 Q150.857 879.489 150.857 870.762 Q150.857 862.012 153.913 857.429 Q156.991 852.822 162.802 852.822 Z" fill="#000000" fill-rule="nonzero" fill-opacity="1"></path><path clip-path="url(#clip120)" d="M154.839 685.531 L162.477 685.531 L162.477 659.165 L154.167 660.832 L154.167 656.573 L162.431 654.906 L167.107 654.906 L167.107 685.531 L174.746 685.531 L174.746 689.466 L154.839 689.466 L154.839 685.531 Z" fill="#000000" fill-rule="nonzero" fill-opacity="1"></path><path clip-path="url(#clip120)" d="M158.427 486.99 L174.746 486.99 L174.746 490.925 L152.802 490.925 L152.802 486.99 Q155.464 484.235 160.047 479.606 Q164.653 474.953 165.834 473.611 Q168.079 471.087 168.959 469.351 Q169.862 467.592 169.862 465.902 Q169.862 463.148 167.917 461.411 Q165.996 459.675 162.894 459.675 Q160.695 459.675 158.241 460.439 Q155.811 461.203 153.033 462.754 L153.033 458.032 Q155.857 456.898 158.311 456.319 Q160.765 455.74 162.802 455.74 Q168.172 455.74 171.366 458.425 Q174.561 461.111 174.561 465.601 Q174.561 467.731 173.751 469.652 Q172.964 471.55 170.857 474.143 Q170.278 474.814 167.177 478.032 Q164.075 481.226 158.427 486.99 Z" fill="#000000" fill-rule="nonzero" fill-opacity="1"></path><path clip-path="url(#clip120)" d="M167.616 273.75 Q170.973 274.468 172.848 276.736 Q174.746 279.005 174.746 282.338 Q174.746 287.454 171.227 290.255 Q167.709 293.056 161.227 293.056 Q159.052 293.056 156.737 292.616 Q154.445 292.199 151.991 291.343 L151.991 286.829 Q153.936 287.963 156.251 288.542 Q158.565 289.12 161.089 289.12 Q165.487 289.12 167.778 287.384 Q170.093 285.648 170.093 282.338 Q170.093 279.283 167.94 277.57 Q165.811 275.833 161.991 275.833 L157.964 275.833 L157.964 271.991 L162.177 271.991 Q165.626 271.991 167.454 270.625 Q169.283 269.236 169.283 266.644 Q169.283 263.982 167.385 262.57 Q165.51 261.134 161.991 261.134 Q160.07 261.134 157.871 261.551 Q155.672 261.968 153.033 262.847 L153.033 258.681 Q155.695 257.94 158.01 257.57 Q160.348 257.199 162.408 257.199 Q167.732 257.199 170.834 259.63 Q173.936 262.037 173.936 266.158 Q173.936 269.028 172.292 271.019 Q170.649 272.986 167.616 273.75 Z" fill="#000000" fill-rule="nonzero" fill-opacity="1"></path><path clip-path="url(#clip120)" d="M29.4065 827.053 L34.9447 827.053 Q33.6716 829.535 33.035 832.209 Q32.3984 834.882 32.3984 837.747 Q32.3984 842.107 33.7352 844.304 Q35.072 846.468 37.7456 846.468 Q39.7826 846.468 40.9603 844.908 Q42.1061 843.349 43.1565 838.638 L43.6021 836.633 Q44.9389 830.395 47.3897 827.785 Q49.8086 825.143 54.1691 825.143 Q59.1344 825.143 62.0308 829.09 Q64.9272 833.004 64.9272 839.879 Q64.9272 842.744 64.3543 845.863 Q63.8132 848.951 62.6992 852.388 L56.6518 852.388 Q58.3387 849.142 59.198 845.991 Q60.0256 842.84 60.0256 839.752 Q60.0256 835.614 58.6251 833.386 Q57.1929 831.158 54.6147 831.158 Q52.2276 831.158 50.9545 832.782 Q49.6813 834.373 48.5037 839.816 L48.0262 841.853 Q46.8804 847.295 44.5251 849.714 Q42.138 852.133 38.0002 852.133 Q32.9713 852.133 30.2341 848.569 Q27.4968 845.004 27.4968 838.447 Q27.4968 835.201 27.9743 832.336 Q28.4517 829.472 29.4065 827.053 Z" fill="#000000" fill-rule="nonzero" fill-opacity="1"></path><path clip-path="url(#clip120)" d="M18.2347 810.024 L28.3562 810.024 L28.3562 797.961 L32.9077 797.961 L32.9077 810.024 L52.2594 810.024 Q56.6199 810.024 57.8613 808.847 Q59.1026 807.637 59.1026 803.977 L59.1026 797.961 L64.0042 797.961 L64.0042 803.977 Q64.0042 810.756 61.4897 813.334 Q58.9434 815.913 52.2594 815.913 L32.9077 815.913 L32.9077 820.209 L28.3562 820.209 L28.3562 815.913 L18.2347 815.913 L18.2347 810.024 Z" fill="#000000" fill-rule="nonzero" fill-opacity="1"></path><path clip-path="url(#clip120)" d="M46.0847 774.058 Q46.0847 781.156 47.7079 783.893 Q49.3312 786.63 53.2461 786.63 Q56.3653 786.63 58.2114 784.593 Q60.0256 782.524 60.0256 778.991 Q60.0256 774.122 56.5881 771.193 Q53.1188 768.233 47.3897 768.233 L46.0847 768.233 L46.0847 774.058 M43.6657 762.377 L64.0042 762.377 L64.0042 768.233 L58.5933 768.233 Q61.8398 770.239 63.3994 773.23 Q64.9272 776.222 64.9272 780.551 Q64.9272 786.026 61.8716 789.272 Q58.7843 792.487 53.6281 792.487 Q47.6125 792.487 44.5569 788.476 Q41.5014 784.434 41.5014 776.445 L41.5014 768.233 L40.9285 768.233 Q36.8862 768.233 34.6901 770.907 Q32.4621 773.549 32.4621 778.355 Q32.4621 781.41 33.1941 784.307 Q33.9262 787.203 35.3903 789.877 L29.9795 789.877 Q28.7381 786.662 28.1334 783.638 Q27.4968 780.615 27.4968 777.75 Q27.4968 770.016 31.5072 766.196 Q35.5176 762.377 43.6657 762.377 Z" fill="#000000" fill-rule="nonzero" fill-opacity="1"></path><path clip-path="url(#clip120)" d="M18.2347 744.521 L28.3562 744.521 L28.3562 732.458 L32.9077 732.458 L32.9077 744.521 L52.2594 744.521 Q56.6199 744.521 57.8613 743.344 Q59.1026 742.134 59.1026 738.474 L59.1026 732.458 L64.0042 732.458 L64.0042 738.474 Q64.0042 745.253 61.4897 747.831 Q58.9434 750.409 52.2594 750.409 L32.9077 750.409 L32.9077 754.706 L28.3562 754.706 L28.3562 750.409 L18.2347 750.409 L18.2347 744.521 Z" fill="#000000" fill-rule="nonzero" fill-opacity="1"></path><path clip-path="url(#clip120)" d="M44.7161 694.264 L47.5806 694.264 L47.5806 721.191 Q53.6281 720.809 56.8109 717.562 Q59.9619 714.284 59.9619 708.459 Q59.9619 705.086 59.1344 701.935 Q58.3069 698.752 56.6518 695.633 L62.1899 695.633 Q63.5267 698.784 64.227 702.094 Q64.9272 705.404 64.9272 708.81 Q64.9272 717.34 59.9619 722.337 Q54.9967 727.302 46.5303 727.302 Q37.7774 727.302 32.6531 722.591 Q27.4968 717.849 27.4968 709.828 Q27.4968 702.635 32.1438 698.465 Q36.7589 694.264 44.7161 694.264 M42.9973 700.12 Q38.1912 700.184 35.3266 702.826 Q32.4621 705.436 32.4621 709.764 Q32.4621 714.666 35.2312 717.626 Q38.0002 720.554 43.0292 721 L42.9973 700.12 Z" fill="#000000" fill-rule="nonzero" fill-opacity="1"></path><path clip-path="url(#clip120)" d="M899.386 16.7545 L899.386 25.383 Q895.254 21.5346 890.555 19.6307 Q885.897 17.7268 880.63 17.7268 Q870.26 17.7268 864.751 24.0867 Q859.242 30.4061 859.242 42.3968 Q859.242 54.3469 864.751 60.7069 Q870.26 67.0263 880.63 67.0263 Q885.897 67.0263 890.555 65.1223 Q895.254 63.2184 899.386 59.3701 L899.386 67.9175 Q895.092 70.8341 890.272 72.2924 Q885.491 73.7508 880.144 73.7508 Q866.412 73.7508 858.512 65.3654 Q850.613 56.9395 850.613 42.3968 Q850.613 27.8135 858.512 19.4281 Q866.412 11.0023 880.144 11.0023 Q885.572 11.0023 890.353 12.4606 Q895.173 13.8784 899.386 16.7545 Z" fill="#000000" fill-rule="nonzero" fill-opacity="1"></path><path clip-path="url(#clip120)" d="M932.32 49.7694 Q923.286 49.7694 919.803 51.8354 Q916.319 53.9013 916.319 58.8839 Q916.319 62.8538 918.911 65.2034 Q921.545 67.5124 926.041 67.5124 Q932.239 67.5124 935.966 63.1374 Q939.733 58.7219 939.733 51.4303 L939.733 49.7694 L932.32 49.7694 M947.187 46.6907 L947.187 72.576 L939.733 72.576 L939.733 65.6895 Q937.181 69.8214 933.373 71.8063 Q929.565 73.7508 924.056 73.7508 Q917.089 73.7508 912.957 69.8619 Q908.865 65.9325 908.865 59.3701 Q908.865 51.7138 913.969 47.825 Q919.114 43.9361 929.282 43.9361 L939.733 43.9361 L939.733 43.2069 Q939.733 38.0623 936.33 35.2672 Q932.968 32.4315 926.851 32.4315 Q922.962 32.4315 919.276 33.3632 Q915.59 34.295 912.187 36.1584 L912.187 29.2718 Q916.278 27.692 920.127 26.9223 Q923.975 26.1121 927.621 26.1121 Q937.465 26.1121 942.326 31.2163 Q947.187 36.3204 947.187 46.6907 Z" fill="#000000" fill-rule="nonzero" fill-opacity="1"></path><path clip-path="url(#clip120)" d="M988.83 34.1734 Q987.574 33.4443 986.075 33.1202 Q984.617 32.7556 982.835 32.7556 Q976.515 32.7556 973.113 36.8875 Q969.75 40.9789 969.75 48.6757 L969.75 72.576 L962.256 72.576 L962.256 27.2059 L969.75 27.2059 L969.75 34.2544 Q972.1 30.1225 975.867 28.1376 Q979.634 26.1121 985.022 26.1121 Q985.792 26.1121 986.724 26.2337 Q987.655 26.3147 988.79 26.5172 L988.83 34.1734 Z" fill="#000000" fill-rule="nonzero" fill-opacity="1"></path><path clip-path="url(#clip120)" d="M1004.02 14.324 L1004.02 27.2059 L1019.37 27.2059 L1019.37 32.9987 L1004.02 32.9987 L1004.02 57.6282 Q1004.02 63.1779 1005.52 64.7578 Q1007.06 66.3376 1011.72 66.3376 L1019.37 66.3376 L1019.37 72.576 L1011.72 72.576 Q1003.09 72.576 999.808 69.3758 Q996.527 66.1351 996.527 57.6282 L996.527 32.9987 L991.058 32.9987 L991.058 27.2059 L996.527 27.2059 L996.527 14.324 L1004.02 14.324 Z" fill="#000000" fill-rule="nonzero" fill-opacity="1"></path><path clip-path="url(#clip120)" d="M1036.39 65.7705 L1036.39 89.8329 L1028.89 89.8329 L1028.89 27.2059 L1036.39 27.2059 L1036.39 34.0924 Q1038.74 30.0415 1042.3 28.0971 Q1045.91 26.1121 1050.89 26.1121 Q1059.15 26.1121 1064.3 32.6746 Q1069.48 39.2371 1069.48 49.9314 Q1069.48 60.6258 1064.3 67.1883 Q1059.15 73.7508 1050.89 73.7508 Q1045.91 73.7508 1042.3 71.8063 Q1038.74 69.8214 1036.39 65.7705 M1061.75 49.9314 Q1061.75 41.7081 1058.34 37.0496 Q1054.98 32.3505 1049.07 32.3505 Q1043.15 32.3505 1039.75 37.0496 Q1036.39 41.7081 1036.39 49.9314 Q1036.39 58.1548 1039.75 62.8538 Q1043.15 67.5124 1049.07 67.5124 Q1054.98 67.5124 1058.34 62.8538 Q1061.75 58.1548 1061.75 49.9314 Z" fill="#000000" fill-rule="nonzero" fill-opacity="1"></path><path clip-path="url(#clip120)" d="M1099.42 32.4315 Q1093.42 32.4315 1089.94 37.1306 Q1086.46 41.7891 1086.46 49.9314 Q1086.46 58.0738 1089.9 62.7728 Q1093.38 67.4314 1099.42 67.4314 Q1105.37 67.4314 1108.86 62.7323 Q1112.34 58.0333 1112.34 49.9314 Q1112.34 41.8701 1108.86 37.1711 Q1105.37 32.4315 1099.42 32.4315 M1099.42 26.1121 Q1109.14 26.1121 1114.69 32.4315 Q1120.24 38.7509 1120.24 49.9314 Q1120.24 61.0714 1114.69 67.4314 Q1109.14 73.7508 1099.42 73.7508 Q1089.66 73.7508 1084.11 67.4314 Q1078.6 61.0714 1078.6 49.9314 Q1078.6 38.7509 1084.11 32.4315 Q1089.66 26.1121 1099.42 26.1121 Z" fill="#000000" fill-rule="nonzero" fill-opacity="1"></path><path clip-path="url(#clip120)" d="M1132.6 9.54393 L1140.05 9.54393 L1140.05 72.576 L1132.6 72.576 L1132.6 9.54393 Z" fill="#000000" fill-rule="nonzero" fill-opacity="1"></path><path clip-path="url(#clip120)" d="M1194.45 48.0275 L1194.45 51.6733 L1160.18 51.6733 Q1160.67 59.3701 1164.8 63.421 Q1168.97 67.4314 1176.39 67.4314 Q1180.68 67.4314 1184.69 66.3781 Q1188.74 65.3249 1192.71 63.2184 L1192.71 70.267 Q1188.7 71.9684 1184.49 72.8596 Q1180.28 73.7508 1175.94 73.7508 Q1165.08 73.7508 1158.72 67.4314 Q1152.41 61.1119 1152.41 50.3365 Q1152.41 39.1965 1158.4 32.6746 Q1164.44 26.1121 1174.65 26.1121 Q1183.8 26.1121 1189.11 32.0264 Q1194.45 37.9003 1194.45 48.0275 M1187 45.84 Q1186.92 39.7232 1183.56 36.0774 Q1180.24 32.4315 1174.73 32.4315 Q1168.49 32.4315 1164.72 35.9558 Q1160.99 39.4801 1160.43 45.8805 L1187 45.84 Z" fill="#000000" fill-rule="nonzero" fill-opacity="1"></path><path clip-path="url(#clip120)" d="M1233.38 12.096 L1241.57 12.096 L1241.57 65.6895 L1271.02 65.6895 L1271.02 72.576 L1233.38 72.576 L1233.38 12.096 Z" fill="#000000" fill-rule="nonzero" fill-opacity="1"></path><path clip-path="url(#clip120)" d="M1304.15 17.6457 Q1295.24 17.6457 1289.97 24.2892 Q1284.75 30.9327 1284.75 42.3968 Q1284.75 53.8203 1289.97 60.4638 Q1295.24 67.1073 1304.15 67.1073 Q1313.06 67.1073 1318.25 60.4638 Q1323.48 53.8203 1323.48 42.3968 Q1323.48 30.9327 1318.25 24.2892 Q1313.06 17.6457 1304.15 17.6457 M1315.62 71.4823 L1326.39 83.2704 L1316.51 83.2704 L1307.56 73.5887 Q1306.22 73.6697 1305.49 73.7103 Q1304.8 73.7508 1304.15 73.7508 Q1291.39 73.7508 1283.74 65.2439 Q1276.12 56.6965 1276.12 42.3968 Q1276.12 28.0566 1283.74 19.5497 Q1291.39 11.0023 1304.15 11.0023 Q1316.87 11.0023 1324.49 19.5497 Q1332.1 28.0566 1332.1 42.3968 Q1332.1 52.9291 1327.85 60.4233 Q1323.64 67.9175 1315.62 71.4823 Z" fill="#000000" fill-rule="nonzero" fill-opacity="1"></path><path clip-path="url(#clip120)" d="M1373.58 44.2197 Q1376.22 45.1109 1378.69 48.0275 Q1381.2 50.9442 1383.71 56.0483 L1392.02 72.576 L1383.23 72.576 L1375.49 57.061 Q1372.49 50.9847 1369.66 48.9997 Q1366.86 47.0148 1362 47.0148 L1353.09 47.0148 L1353.09 72.576 L1344.9 72.576 L1344.9 12.096 L1363.38 12.096 Q1373.75 12.096 1378.85 16.4305 Q1383.96 20.7649 1383.96 29.5149 Q1383.96 35.2267 1381.28 38.994 Q1378.65 42.7613 1373.58 44.2197 M1353.09 18.8205 L1353.09 40.2903 L1363.38 40.2903 Q1369.29 40.2903 1372.29 37.5762 Q1375.33 34.8216 1375.33 29.5149 Q1375.33 24.2082 1372.29 21.5346 Q1369.29 18.8205 1363.38 18.8205 L1353.09 18.8205 Z" fill="#000000" fill-rule="nonzero" fill-opacity="1"></path><path clip-path="url(#clip120)" d="M1474.21 16.7545 L1474.21 25.383 Q1470.08 21.5346 1465.38 19.6307 Q1460.72 17.7268 1455.45 17.7268 Q1445.08 17.7268 1439.57 24.0867 Q1434.06 30.4061 1434.06 42.3968 Q1434.06 54.3469 1439.57 60.7069 Q1445.08 67.0263 1455.45 67.0263 Q1460.72 67.0263 1465.38 65.1223 Q1470.08 63.2184 1474.21 59.3701 L1474.21 67.9175 Q1469.92 70.8341 1465.09 72.2924 Q1460.31 73.7508 1454.97 73.7508 Q1441.24 73.7508 1433.34 65.3654 Q1425.44 56.9395 1425.44 42.3968 Q1425.44 27.8135 1433.34 19.4281 Q1441.24 11.0023 1454.97 11.0023 Q1460.4 11.0023 1465.18 12.4606 Q1470 13.8784 1474.21 16.7545 Z" fill="#000000" fill-rule="nonzero" fill-opacity="1"></path><path clip-path="url(#clip120)" d="M1504.11 32.4315 Q1498.11 32.4315 1494.63 37.1306 Q1491.14 41.7891 1491.14 49.9314 Q1491.14 58.0738 1494.59 62.7728 Q1498.07 67.4314 1504.11 67.4314 Q1510.06 67.4314 1513.54 62.7323 Q1517.03 58.0333 1517.03 49.9314 Q1517.03 41.8701 1513.54 37.1711 Q1510.06 32.4315 1504.11 32.4315 M1504.11 26.1121 Q1513.83 26.1121 1519.38 32.4315 Q1524.93 38.7509 1524.93 49.9314 Q1524.93 61.0714 1519.38 67.4314 Q1513.83 73.7508 1504.11 73.7508 Q1494.34 73.7508 1488.79 67.4314 Q1483.28 61.0714 1483.28 49.9314 Q1483.28 38.7509 1488.79 32.4315 Q1494.34 26.1121 1504.11 26.1121 Z" fill="#000000" fill-rule="nonzero" fill-opacity="1"></path><path clip-path="url(#clip120)" d="M1575 45.1919 L1575 72.576 L1567.54 72.576 L1567.54 45.4349 Q1567.54 38.994 1565.03 35.7938 Q1562.52 32.5936 1557.5 32.5936 Q1551.46 32.5936 1547.98 36.4419 Q1544.49 40.2903 1544.49 46.9338 L1544.49 72.576 L1537 72.576 L1537 27.2059 L1544.49 27.2059 L1544.49 34.2544 Q1547.17 30.163 1550.77 28.1376 Q1554.42 26.1121 1559.16 26.1121 Q1566.98 26.1121 1570.99 30.9732 Q1575 35.7938 1575 45.1919 Z" fill="#000000" fill-rule="nonzero" fill-opacity="1"></path><path clip-path="url(#clip120)" d="M1597.24 14.324 L1597.24 27.2059 L1612.59 27.2059 L1612.59 32.9987 L1597.24 32.9987 L1597.24 57.6282 Q1597.24 63.1779 1598.73 64.7578 Q1600.27 66.3376 1604.93 66.3376 L1612.59 66.3376 L1612.59 72.576 L1604.93 72.576 Q1596.3 72.576 1593.02 69.3758 Q1589.74 66.1351 1589.74 57.6282 L1589.74 32.9987 L1584.27 32.9987 L1584.27 27.2059 L1589.74 27.2059 L1589.74 14.324 L1597.24 14.324 Z" fill="#000000" fill-rule="nonzero" fill-opacity="1"></path><path clip-path="url(#clip120)" d="M1648.68 34.1734 Q1647.43 33.4443 1645.93 33.1202 Q1644.47 32.7556 1642.69 32.7556 Q1636.37 32.7556 1632.96 36.8875 Q1629.6 40.9789 1629.6 48.6757 L1629.6 72.576 L1622.11 72.576 L1622.11 27.2059 L1629.6 27.2059 L1629.6 34.2544 Q1631.95 30.1225 1635.72 28.1376 Q1639.49 26.1121 1644.87 26.1121 Q1645.64 26.1121 1646.58 26.2337 Q1647.51 26.3147 1648.64 26.5172 L1648.68 34.1734 Z" fill="#000000" fill-rule="nonzero" fill-opacity="1"></path><path clip-path="url(#clip120)" d="M1672.26 32.4315 Q1666.26 32.4315 1662.78 37.1306 Q1659.3 41.7891 1659.3 49.9314 Q1659.3 58.0738 1662.74 62.7728 Q1666.22 67.4314 1672.26 67.4314 Q1678.21 67.4314 1681.7 62.7323 Q1685.18 58.0333 1685.18 49.9314 Q1685.18 41.8701 1681.7 37.1711 Q1678.21 32.4315 1672.26 32.4315 M1672.26 26.1121 Q1681.98 26.1121 1687.53 32.4315 Q1693.08 38.7509 1693.08 49.9314 Q1693.08 61.0714 1687.53 67.4314 Q1681.98 73.7508 1672.26 73.7508 Q1662.5 73.7508 1656.95 67.4314 Q1651.44 61.0714 1651.44 49.9314 Q1651.44 38.7509 1656.95 32.4315 Q1662.5 26.1121 1672.26 26.1121 Z" fill="#000000" fill-rule="nonzero" fill-opacity="1"></path><path clip-path="url(#clip120)" d="M1705.43 9.54393 L1712.89 9.54393 L1712.89 72.576 L1705.43 72.576 L1705.43 9.54393 Z" fill="#000000" fill-rule="nonzero" fill-opacity="1"></path><polyline clip-path="url(#clip122)" style="stroke:#009af9; stroke-linecap:round; stroke-linejoin:round; stroke-width:4; stroke-opacity:1; fill:none" points="271.369,572.916 311.784,556.832 352.199,525.143 392.615,487.094 433.03,450.92 473.445,422.626 513.861,405.909 554.276,402.723 594.691,413.674 635.106,438.118 675.522,474.189 715.937,518.96 756.352,568.871 796.768,620.326 837.183,670.238 877.598,716.286 918.013,756.925 958.429,791.275 998.844,819.009 1039.26,840.255 1079.67,855.509 1120.09,865.542 1160.51,871.297 1200.92,873.777 1241.34,873.95 1281.75,872.673 1322.17,870.65 1362.58,868.418 1403,866.35 1443.41,864.676 1483.83,863.511 1524.24,862.877 1564.66,862.737 1605.07,863.013 1645.49,863.606 1685.9,864.416 1726.32,865.344 1766.73,866.31 1807.15,867.246 1847.56,868.105 1887.98,868.855 1928.4,869.482 1968.81,869.982 2009.23,870.361 2049.64,870.63 2090.06,870.808 2130.47,870.91 2170.89,870.955 2211.3,870.96 2251.72,870.937 2292.13,870.899 "></polyline>
<polyline clip-path="url(#clip122)" style="stroke:#e26f46; stroke-linecap:round; stroke-linejoin:round; stroke-width:4; stroke-opacity:1; fill:none" points="271.369,316.296 311.784,304.835 352.199,276.188 392.615,241.279 433.03,208.778 473.445,183.623 513.861,167.449 554.276,160.256 594.691,161.511 635.106,170.402 675.522,185.638 715.937,205.21 756.352,226.523 796.768,246.963 837.183,264.553 877.598,278.224 918.013,287.674 958.429,293.077 998.844,294.867 1039.26,293.613 1079.67,289.968 1120.09,284.636 1160.51,278.326 1200.92,271.698 1241.34,265.306 1281.75,259.561 1322.17,254.717 1362.58,250.884 1403,248.056 1443.41,246.149 1483.83,245.025 1524.24,244.527 1564.66,244.492 1605.07,244.772 1645.49,245.236 1685.9,245.781 1726.32,246.326 1766.73,246.819 1807.15,247.226 1847.56,247.533 1887.98,247.739 1928.4,247.851 1968.81,247.884 2009.23,247.854 2049.64,247.78 2090.06,247.678 2130.47,247.562 2170.89,247.444 2211.3,247.332 2251.72,247.232 2292.13,247.148 "></polyline>
<polyline clip-path="url(#clip122)" style="stroke:#3da44d; stroke-linecap:round; stroke-linejoin:round; stroke-width:4; stroke-opacity:1; fill:none" points="271.369,811.165 311.784,608.173 352.199,498.778 392.615,481.05 433.03,536.259 473.445,638.673 513.861,767.956 554.276,909.556 594.691,1050.95 635.106,1179.64 675.522,1283.62 715.937,1353.71 756.352,1386.4 796.768,1384.59 837.183,1355.48 877.598,1307.25 918.013,1247.21 958.429,1181.39 998.844,1114.79 1039.26,1051.54 1079.67,994.897 1120.09,947.103 1160.51,909.31 1200.92,881.6 1241.34,863.167 1281.75,852.618 1322.17,848.278 1362.58,848.45 1403,851.581 1443.41,856.36 1483.83,861.757 1524.24,867.016 1564.66,871.637 1605.07,875.335 1645.49,878 1685.9,879.649 1726.32,880.391 1766.73,880.382 1807.15,879.804 1847.56,878.835 1887.98,877.639 1928.4,876.356 1968.81,875.094 2009.23,873.931 2049.64,872.917 2090.06,872.079 2130.47,871.421 2170.89,870.935 2211.3,870.603 2251.72,870.4 2292.13,870.3 "></polyline>
<polyline clip-path="url(#clip122)" style="stroke:#c271d2; stroke-linecap:round; stroke-linejoin:round; stroke-width:4; stroke-opacity:1; fill:none" points="271.369,870.727 311.784,636.466 352.199,521.313 392.615,510.228 433.03,569.895 473.445,658.883 513.861,752.473 554.276,842.034 594.691,924.967 635.106,997.87 675.522,1054.11 715.937,1085.83 756.352,1089.2 796.768,1067.99 837.183,1031.32 877.598,988.378 918.013,945.463 958.429,906.038 998.844,871.887 1039.26,844.052 1079.67,823.221 1120.09,809.718 1160.51,803.34 1200.92,803.266 1241.34,808.16 1281.75,816.423 1322.17,826.479 1362.58,836.987 1403,846.946 1443.41,855.699 1483.83,862.895 1524.24,868.419 1564.66,872.333 1605.07,874.809 1645.49,876.088 1685.9,876.436 1726.32,876.115 1766.73,875.362 1807.15,874.378 1847.56,873.323 1887.98,872.312 1928.4,871.424 1968.81,870.7 2009.23,870.158 2049.64,869.792 2090.06,869.585 2130.47,869.51 2170.89,869.538 2211.3,869.639 2251.72,869.784 2292.13,869.953 "></polyline>
<path clip-path="url(#clip120)" d="M2043.36 1379.86 L2281.36 1379.86 L2281.36 1120.66 L2043.36 1120.66  Z" fill="#ffffff" fill-rule="evenodd" fill-opacity="1"></path>
<polyline clip-path="url(#clip120)" style="stroke:#000000; stroke-linecap:round; stroke-linejoin:round; stroke-width:4; stroke-opacity:1; fill:none" points="2043.36,1379.86 2281.36,1379.86 2281.36,1120.66 2043.36,1120.66 2043.36,1379.86 "></polyline>
<polyline clip-path="url(#clip120)" style="stroke:#009af9; stroke-linecap:round; stroke-linejoin:round; stroke-width:4; stroke-opacity:1; fill:none" points="2067.16,1172.5 2209.96,1172.5 "></polyline>
<path clip-path="url(#clip120)" d="M2238.04 1185.89 L2238.04 1199.64 L2233.76 1199.64 L2233.76 1163.85 L2238.04 1163.85 L2238.04 1167.79 Q2239.38 1165.47 2241.42 1164.36 Q2243.48 1163.23 2246.33 1163.23 Q2251.05 1163.23 2253.99 1166.98 Q2256.95 1170.73 2256.95 1176.84 Q2256.95 1182.95 2253.99 1186.7 Q2251.05 1190.45 2246.33 1190.45 Q2243.48 1190.45 2241.42 1189.34 Q2239.38 1188.2 2238.04 1185.89 M2252.53 1176.84 Q2252.53 1172.14 2250.59 1169.48 Q2248.67 1166.79 2245.29 1166.79 Q2241.91 1166.79 2239.96 1169.48 Q2238.04 1172.14 2238.04 1176.84 Q2238.04 1181.54 2239.96 1184.22 Q2241.91 1186.88 2245.29 1186.88 Q2248.67 1186.88 2250.59 1184.22 Q2252.53 1181.54 2252.53 1176.84 Z" fill="#000000" fill-rule="nonzero" fill-opacity="1"></path><polyline clip-path="url(#clip120)" style="stroke:#e26f46; stroke-linecap:round; stroke-linejoin:round; stroke-width:4; stroke-opacity:1; fill:none" points="2067.16,1224.34 2209.96,1224.34 "></polyline>
<path clip-path="url(#clip120)" d="M2253.02 1225.18 L2238.27 1225.18 Q2238.62 1232.1 2240.22 1235.04 Q2242.21 1238.65 2245.66 1238.65 Q2249.13 1238.65 2251.05 1235.02 Q2252.74 1231.82 2253.02 1225.18 M2252.95 1221.25 Q2252.3 1214.67 2251.05 1212.36 Q2249.06 1208.7 2245.66 1208.7 Q2242.12 1208.7 2240.24 1212.31 Q2238.76 1215.23 2238.32 1221.25 L2252.95 1221.25 M2245.66 1205.23 Q2251.21 1205.23 2254.38 1210.13 Q2257.56 1215.02 2257.56 1223.68 Q2257.56 1232.31 2254.38 1237.22 Q2251.21 1242.15 2245.66 1242.15 Q2240.08 1242.15 2236.93 1237.22 Q2233.76 1232.31 2233.76 1223.68 Q2233.76 1215.02 2236.93 1210.13 Q2240.08 1205.23 2245.66 1205.23 Z" fill="#000000" fill-rule="nonzero" fill-opacity="1"></path><polyline clip-path="url(#clip120)" style="stroke:#3da44d; stroke-linecap:round; stroke-linejoin:round; stroke-width:4; stroke-opacity:1; fill:none" points="2067.16,1276.18 2209.96,1276.18 "></polyline>
<path clip-path="url(#clip120)" d="M2238.04 1289.57 L2238.04 1303.32 L2233.76 1303.32 L2233.76 1267.53 L2238.04 1267.53 L2238.04 1271.47 Q2239.38 1269.15 2241.42 1268.04 Q2243.48 1266.91 2246.33 1266.91 Q2251.05 1266.91 2253.99 1270.66 Q2256.95 1274.41 2256.95 1280.52 Q2256.95 1286.63 2253.99 1290.38 Q2251.05 1294.13 2246.33 1294.13 Q2243.48 1294.13 2241.42 1293.02 Q2239.38 1291.88 2238.04 1289.57 M2252.53 1280.52 Q2252.53 1275.82 2250.59 1273.16 Q2248.67 1270.47 2245.29 1270.47 Q2241.91 1270.47 2239.96 1273.16 Q2238.04 1275.82 2238.04 1280.52 Q2238.04 1285.22 2239.96 1287.9 Q2241.91 1290.56 2245.29 1290.56 Q2248.67 1290.56 2250.59 1287.9 Q2252.53 1285.22 2252.53 1280.52 Z" fill="#000000" fill-rule="nonzero" fill-opacity="1"></path><path clip-path="url(#clip120)" d="M2245.52 1257.44 L2249.78 1257.44 L2249.78 1262.83 L2245.52 1262.83 L2245.52 1257.44 M2247.69 1266.91 L2247.69 1266.91 Z" fill="#000000" fill-rule="nonzero" fill-opacity="1"></path><polyline clip-path="url(#clip120)" style="stroke:#c271d2; stroke-linecap:round; stroke-linejoin:round; stroke-width:4; stroke-opacity:1; fill:none" points="2067.16,1328.02 2209.96,1328.02 "></polyline>
<path clip-path="url(#clip120)" d="M2253.02 1328.86 L2238.27 1328.86 Q2238.62 1335.78 2240.22 1338.72 Q2242.21 1342.33 2245.66 1342.33 Q2249.13 1342.33 2251.05 1338.7 Q2252.74 1335.5 2253.02 1328.86 M2252.95 1324.93 Q2252.3 1318.35 2251.05 1316.04 Q2249.06 1312.38 2245.66 1312.38 Q2242.12 1312.38 2240.24 1315.99 Q2238.76 1318.91 2238.32 1324.93 L2252.95 1324.93 M2245.66 1308.91 Q2251.21 1308.91 2254.38 1313.81 Q2257.56 1318.7 2257.56 1327.36 Q2257.56 1335.99 2254.38 1340.9 Q2251.21 1345.83 2245.66 1345.83 Q2240.08 1345.83 2236.93 1340.9 Q2233.76 1335.99 2233.76 1327.36 Q2233.76 1318.7 2236.93 1313.81 Q2240.08 1308.91 2245.66 1308.91 Z" fill="#000000" fill-rule="nonzero" fill-opacity="1"></path><path clip-path="url(#clip120)" d="M2246.12 1309.28 L2250.38 1309.28 L2250.38 1314.67 L2246.12 1314.67 L2246.12 1309.28 M2248.3 1318.75 L2248.3 1318.75 Z" fill="#000000" fill-rule="nonzero" fill-opacity="1"></path></svg>