<?xml version="1.0" encoding="utf-8"?>
<svg xmlns="http://www.w3.org/2000/svg" xmlns:xlink="http://www.w3.org/1999/xlink" width="600" height="400" viewBox="0 0 2400 1600">
<defs>
  <clipPath id="clip480">
    <rect x="0" y="0" width="2400" height="1600"/>
  </clipPath>
</defs>
<path clip-path="url(#clip480)" d="M0 1600 L2400 1600 L2400 0 L0 0  Z" fill="#ffffff" fill-rule="evenodd" fill-opacity="1"/>
<defs>
  <clipPath id="clip481">
    <rect x="480" y="0" width="1681" height="1600"/>
  </clipPath>
</defs>
<path clip-path="url(#clip480)" d="M212.135 1423.18 L2352.76 1423.18 L2352.76 123.472 L212.135 123.472  Z" fill="#ffffff" fill-rule="evenodd" fill-opacity="1"/>
<defs>
  <clipPath id="clip482">
    <rect x="212" y="123" width="2142" height="1301"/>
  </clipPath>
</defs>
<polyline clip-path="url(#clip482)" style="stroke:#000000; stroke-linecap:round; stroke-linejoin:round; stroke-width:2; stroke-opacity:0.1; fill:none" points="272.718,1423.18 272.718,123.472 "/>
<polyline clip-path="url(#clip482)" style="stroke:#000000; stroke-linecap:round; stroke-linejoin:round; stroke-width:2; stroke-opacity:0.1; fill:none" points="676.609,1423.18 676.609,123.472 "/>
<polyline clip-path="url(#clip482)" style="stroke:#000000; stroke-linecap:round; stroke-linejoin:round; stroke-width:2; stroke-opacity:0.1; fill:none" points="1080.5,1423.18 1080.5,123.472 "/>
<polyline clip-path="url(#clip482)" style="stroke:#000000; stroke-linecap:round; stroke-linejoin:round; stroke-width:2; stroke-opacity:0.1; fill:none" points="1484.39,1423.18 1484.39,123.472 "/>
<polyline clip-path="url(#clip482)" style="stroke:#000000; stroke-linecap:round; stroke-linejoin:round; stroke-width:2; stroke-opacity:0.1; fill:none" points="1888.28,1423.18 1888.28,123.472 "/>
<polyline clip-path="url(#clip482)" style="stroke:#000000; stroke-linecap:round; stroke-linejoin:round; stroke-width:2; stroke-opacity:0.1; fill:none" points="2292.17,1423.18 2292.17,123.472 "/>
<polyline clip-path="url(#clip482)" style="stroke:#000000; stroke-linecap:round; stroke-linejoin:round; stroke-width:2; stroke-opacity:0.1; fill:none" points="212.135,1260.23 2352.76,1260.23 "/>
<polyline clip-path="url(#clip482)" style="stroke:#000000; stroke-linecap:round; stroke-linejoin:round; stroke-width:2; stroke-opacity:0.1; fill:none" points="212.135,1017.65 2352.76,1017.65 "/>
<polyline clip-path="url(#clip482)" style="stroke:#000000; stroke-linecap:round; stroke-linejoin:round; stroke-width:2; stroke-opacity:0.1; fill:none" points="212.135,775.065 2352.76,775.065 "/>
<polyline clip-path="url(#clip482)" style="stroke:#000000; stroke-linecap:round; stroke-linejoin:round; stroke-width:2; stroke-opacity:0.1; fill:none" points="212.135,532.481 2352.76,532.481 "/>
<polyline clip-path="url(#clip482)" style="stroke:#000000; stroke-linecap:round; stroke-linejoin:round; stroke-width:2; stroke-opacity:0.1; fill:none" points="212.135,289.898 2352.76,289.898 "/>
<polyline clip-path="url(#clip480)" style="stroke:#000000; stroke-linecap:round; stroke-linejoin:round; stroke-width:4; stroke-opacity:1; fill:none" points="212.135,1423.18 2352.76,1423.18 "/>
<polyline clip-path="url(#clip480)" style="stroke:#000000; stroke-linecap:round; stroke-linejoin:round; stroke-width:4; stroke-opacity:1; fill:none" points="272.718,1423.18 272.718,1404.28 "/>
<polyline clip-path="url(#clip480)" style="stroke:#000000; stroke-linecap:round; stroke-linejoin:round; stroke-width:4; stroke-opacity:1; fill:none" points="676.609,1423.18 676.609,1404.28 "/>
<polyline clip-path="url(#clip480)" style="stroke:#000000; stroke-linecap:round; stroke-linejoin:round; stroke-width:4; stroke-opacity:1; fill:none" points="1080.5,1423.18 1080.5,1404.28 "/>
<polyline clip-path="url(#clip480)" style="stroke:#000000; stroke-linecap:round; stroke-linejoin:round; stroke-width:4; stroke-opacity:1; fill:none" points="1484.39,1423.18 1484.39,1404.28 "/>
<polyline clip-path="url(#clip480)" style="stroke:#000000; stroke-linecap:round; stroke-linejoin:round; stroke-width:4; stroke-opacity:1; fill:none" points="1888.28,1423.18 1888.28,1404.28 "/>
<polyline clip-path="url(#clip480)" style="stroke:#000000; stroke-linecap:round; stroke-linejoin:round; stroke-width:4; stroke-opacity:1; fill:none" points="2292.17,1423.18 2292.17,1404.28 "/>
<path clip-path="url(#clip480)" d="M272.718 1454.1 Q269.107 1454.1 267.279 1457.66 Q265.473 1461.2 265.473 1468.33 Q265.473 1475.44 267.279 1479.01 Q269.107 1482.55 272.718 1482.55 Q276.353 1482.55 278.158 1479.01 Q279.987 1475.44 279.987 1468.33 Q279.987 1461.2 278.158 1457.66 Q276.353 1454.1 272.718 1454.1 M272.718 1450.39 Q278.529 1450.39 281.584 1455 Q284.663 1459.58 284.663 1468.33 Q284.663 1477.06 281.584 1481.67 Q278.529 1486.25 272.718 1486.25 Q266.908 1486.25 263.83 1481.67 Q260.774 1477.06 260.774 1468.33 Q260.774 1459.58 263.83 1455 Q266.908 1450.39 272.718 1450.39 Z" fill="#000000" fill-rule="nonzero" fill-opacity="1" /><path clip-path="url(#clip480)" d="M666.991 1481.64 L674.63 1481.64 L674.63 1455.28 L666.32 1456.95 L666.32 1452.69 L674.584 1451.02 L679.26 1451.02 L679.26 1481.64 L686.899 1481.64 L686.899 1485.58 L666.991 1485.58 L666.991 1481.64 Z" fill="#000000" fill-rule="nonzero" fill-opacity="1" /><path clip-path="url(#clip480)" d="M1075.15 1481.64 L1091.47 1481.64 L1091.47 1485.58 L1069.53 1485.58 L1069.53 1481.64 Q1072.19 1478.89 1076.77 1474.26 Q1081.38 1469.61 1082.56 1468.27 Q1084.81 1465.74 1085.69 1464.01 Q1086.59 1462.25 1086.59 1460.56 Q1086.59 1457.8 1084.64 1456.07 Q1082.72 1454.33 1079.62 1454.33 Q1077.42 1454.33 1074.97 1455.09 Q1072.54 1455.86 1069.76 1457.41 L1069.76 1452.69 Q1072.58 1451.55 1075.04 1450.97 Q1077.49 1450.39 1079.53 1450.39 Q1084.9 1450.39 1088.09 1453.08 Q1091.29 1455.77 1091.29 1460.26 Q1091.29 1462.39 1090.48 1464.31 Q1089.69 1466.2 1087.58 1468.8 Q1087 1469.47 1083.9 1472.69 Q1080.8 1475.88 1075.15 1481.64 Z" fill="#000000" fill-rule="nonzero" fill-opacity="1" /><path clip-path="url(#clip480)" d="M1488.64 1466.95 Q1491.99 1467.66 1493.87 1469.93 Q1495.77 1472.2 1495.77 1475.53 Q1495.77 1480.65 1492.25 1483.45 Q1488.73 1486.25 1482.25 1486.25 Q1480.07 1486.25 1477.76 1485.81 Q1475.47 1485.39 1473.01 1484.54 L1473.01 1480.02 Q1474.96 1481.16 1477.27 1481.74 Q1479.59 1482.32 1482.11 1482.32 Q1486.51 1482.32 1488.8 1480.58 Q1491.12 1478.84 1491.12 1475.53 Q1491.12 1472.48 1488.96 1470.77 Q1486.83 1469.03 1483.01 1469.03 L1478.99 1469.03 L1478.99 1465.19 L1483.2 1465.19 Q1486.65 1465.19 1488.48 1463.82 Q1490.31 1462.43 1490.31 1459.84 Q1490.31 1457.18 1488.41 1455.77 Q1486.53 1454.33 1483.01 1454.33 Q1481.09 1454.33 1478.89 1454.75 Q1476.69 1455.16 1474.06 1456.04 L1474.06 1451.88 Q1476.72 1451.14 1479.03 1450.77 Q1481.37 1450.39 1483.43 1450.39 Q1488.75 1450.39 1491.86 1452.83 Q1494.96 1455.23 1494.96 1459.35 Q1494.96 1462.22 1493.31 1464.21 Q1491.67 1466.18 1488.64 1466.95 Z" fill="#000000" fill-rule="nonzero" fill-opacity="1" /><path clip-path="url(#clip480)" d="M1891.29 1455.09 L1879.49 1473.54 L1891.29 1473.54 L1891.29 1455.09 M1890.06 1451.02 L1895.94 1451.02 L1895.94 1473.54 L1900.87 1473.54 L1900.87 1477.43 L1895.94 1477.43 L1895.94 1485.58 L1891.29 1485.58 L1891.29 1477.43 L1875.69 1477.43 L1875.69 1472.92 L1890.06 1451.02 Z" fill="#000000" fill-rule="nonzero" fill-opacity="1" /><path clip-path="url(#clip480)" d="M2282.45 1451.02 L2300.81 1451.02 L2300.81 1454.96 L2286.73 1454.96 L2286.73 1463.43 Q2287.75 1463.08 2288.77 1462.92 Q2289.79 1462.73 2290.81 1462.73 Q2296.59 1462.73 2299.97 1465.9 Q2303.35 1469.08 2303.35 1474.49 Q2303.35 1480.07 2299.88 1483.17 Q2296.41 1486.25 2290.09 1486.25 Q2287.91 1486.25 2285.64 1485.88 Q2283.4 1485.51 2280.99 1484.77 L2280.99 1480.07 Q2283.08 1481.2 2285.3 1481.76 Q2287.52 1482.32 2290 1482.32 Q2294 1482.32 2296.34 1480.21 Q2298.68 1478.1 2298.68 1474.49 Q2298.68 1470.88 2296.34 1468.77 Q2294 1466.67 2290 1466.67 Q2288.12 1466.67 2286.25 1467.08 Q2284.39 1467.5 2282.45 1468.38 L2282.45 1451.02 Z" fill="#000000" fill-rule="nonzero" fill-opacity="1" /><path clip-path="url(#clip480)" d="M1169.9 1522.27 L1169.9 1532.4 L1181.96 1532.4 L1181.96 1536.95 L1169.9 1536.95 L1169.9 1556.3 Q1169.9 1560.66 1171.08 1561.9 Q1172.29 1563.14 1175.95 1563.14 L1181.96 1563.14 L1181.96 1568.04 L1175.95 1568.04 Q1169.17 1568.04 1166.59 1565.53 Q1164.01 1562.98 1164.01 1556.3 L1164.01 1536.95 L1159.71 1536.95 L1159.71 1532.4 L1164.01 1532.4 L1164.01 1522.27 L1169.9 1522.27 Z" fill="#000000" fill-rule="nonzero" fill-opacity="1" /><path clip-path="url(#clip480)" d="M1189.67 1532.4 L1195.52 1532.4 L1195.52 1568.04 L1189.67 1568.04 L1189.67 1532.4 M1189.67 1518.52 L1195.52 1518.52 L1195.52 1525.93 L1189.67 1525.93 L1189.67 1518.52 Z" fill="#000000" fill-rule="nonzero" fill-opacity="1" /><path clip-path="url(#clip480)" d="M1235.53 1539.24 Q1237.73 1535.29 1240.78 1533.41 Q1243.84 1531.54 1247.98 1531.54 Q1253.55 1531.54 1256.57 1535.45 Q1259.59 1539.33 1259.59 1546.53 L1259.59 1568.04 L1253.7 1568.04 L1253.7 1546.72 Q1253.7 1541.59 1251.89 1539.11 Q1250.08 1536.63 1246.35 1536.63 Q1241.8 1536.63 1239.16 1539.65 Q1236.52 1542.68 1236.52 1547.9 L1236.52 1568.04 L1230.63 1568.04 L1230.63 1546.72 Q1230.63 1541.56 1228.81 1539.11 Q1227 1536.63 1223.21 1536.63 Q1218.72 1536.63 1216.08 1539.68 Q1213.44 1542.71 1213.44 1547.9 L1213.44 1568.04 L1207.55 1568.04 L1207.55 1532.4 L1213.44 1532.4 L1213.44 1537.93 Q1215.45 1534.66 1218.25 1533.1 Q1221.05 1531.54 1224.9 1531.54 Q1228.78 1531.54 1231.49 1533.51 Q1234.23 1535.48 1235.53 1539.24 Z" fill="#000000" fill-rule="nonzero" fill-opacity="1" /><path clip-path="url(#clip480)" d="M1301.77 1548.76 L1301.77 1551.62 L1274.84 1551.62 Q1275.22 1557.67 1278.47 1560.85 Q1281.75 1564 1287.57 1564 Q1290.94 1564 1294.09 1563.17 Q1297.28 1562.35 1300.4 1560.69 L1300.4 1566.23 Q1297.25 1567.57 1293.94 1568.27 Q1290.63 1568.97 1287.22 1568.97 Q1278.69 1568.97 1273.69 1564 Q1268.73 1559.04 1268.73 1550.57 Q1268.73 1541.82 1273.44 1536.69 Q1278.18 1531.54 1286.2 1531.54 Q1293.39 1531.54 1297.56 1536.18 Q1301.77 1540.8 1301.77 1548.76 M1295.91 1547.04 Q1295.85 1542.23 1293.2 1539.37 Q1290.59 1536.5 1286.26 1536.5 Q1281.36 1536.5 1278.4 1539.27 Q1275.47 1542.04 1275.03 1547.07 L1295.91 1547.04 Z" fill="#000000" fill-rule="nonzero" fill-opacity="1" /><path clip-path="url(#clip480)" d="M1346.17 1518.58 Q1341.9 1525.9 1339.83 1533.06 Q1337.76 1540.23 1337.76 1547.58 Q1337.76 1554.93 1339.83 1562.16 Q1341.93 1569.35 1346.17 1576.64 L1341.07 1576.64 Q1336.3 1569.16 1333.91 1561.93 Q1331.56 1554.71 1331.56 1547.58 Q1331.56 1540.48 1333.91 1533.29 Q1336.27 1526.09 1341.07 1518.58 L1346.17 1518.58 Z" fill="#000000" fill-rule="nonzero" fill-opacity="1" /><path clip-path="url(#clip480)" d="M1380.25 1533.45 L1380.25 1538.98 Q1377.77 1537.71 1375.1 1537.07 Q1372.42 1536.44 1369.56 1536.44 Q1365.2 1536.44 1363 1537.77 Q1360.84 1539.11 1360.84 1541.79 Q1360.84 1543.82 1362.4 1545 Q1363.96 1546.15 1368.67 1547.2 L1370.67 1547.64 Q1376.91 1548.98 1379.52 1551.43 Q1382.16 1553.85 1382.16 1558.21 Q1382.16 1563.17 1378.22 1566.07 Q1374.3 1568.97 1367.43 1568.97 Q1364.56 1568.97 1361.44 1568.39 Q1358.36 1567.85 1354.92 1566.74 L1354.92 1560.69 Q1358.17 1562.38 1361.32 1563.24 Q1364.47 1564.07 1367.55 1564.07 Q1371.69 1564.07 1373.92 1562.66 Q1376.15 1561.23 1376.15 1558.65 Q1376.15 1556.27 1374.53 1554.99 Q1372.93 1553.72 1367.49 1552.54 L1365.45 1552.07 Q1360.01 1550.92 1357.59 1548.56 Q1355.17 1546.18 1355.17 1542.04 Q1355.17 1537.01 1358.74 1534.27 Q1362.3 1531.54 1368.86 1531.54 Q1372.11 1531.54 1374.97 1532.01 Q1377.84 1532.49 1380.25 1533.45 Z" fill="#000000" fill-rule="nonzero" fill-opacity="1" /><path clip-path="url(#clip480)" d="M1390.57 1518.58 L1395.66 1518.58 Q1400.43 1526.09 1402.79 1533.29 Q1405.18 1540.48 1405.18 1547.58 Q1405.18 1554.71 1402.79 1561.93 Q1400.43 1569.16 1395.66 1576.64 L1390.57 1576.64 Q1394.8 1569.35 1396.87 1562.16 Q1398.97 1554.93 1398.97 1547.58 Q1398.97 1540.23 1396.87 1533.06 Q1394.8 1525.9 1390.57 1518.58 Z" fill="#000000" fill-rule="nonzero" fill-opacity="1" /><polyline clip-path="url(#clip480)" style="stroke:#000000; stroke-linecap:round; stroke-linejoin:round; stroke-width:4; stroke-opacity:1; fill:none" points="212.135,1423.18 212.135,123.472 "/>
<polyline clip-path="url(#clip480)" style="stroke:#000000; stroke-linecap:round; stroke-linejoin:round; stroke-width:4; stroke-opacity:1; fill:none" points="212.135,1260.23 231.032,1260.23 "/>
<polyline clip-path="url(#clip480)" style="stroke:#000000; stroke-linecap:round; stroke-linejoin:round; stroke-width:4; stroke-opacity:1; fill:none" points="212.135,1017.65 231.032,1017.65 "/>
<polyline clip-path="url(#clip480)" style="stroke:#000000; stroke-linecap:round; stroke-linejoin:round; stroke-width:4; stroke-opacity:1; fill:none" points="212.135,775.065 231.032,775.065 "/>
<polyline clip-path="url(#clip480)" style="stroke:#000000; stroke-linecap:round; stroke-linejoin:round; stroke-width:4; stroke-opacity:1; fill:none" points="212.135,532.481 231.032,532.481 "/>
<polyline clip-path="url(#clip480)" style="stroke:#000000; stroke-linecap:round; stroke-linejoin:round; stroke-width:4; stroke-opacity:1; fill:none" points="212.135,289.898 231.032,289.898 "/>
<path clip-path="url(#clip480)" d="M114.26 1260.68 L143.936 1260.68 L143.936 1264.62 L114.26 1264.62 L114.26 1260.68 Z" fill="#000000" fill-rule="nonzero" fill-opacity="1" /><path clip-path="url(#clip480)" d="M164.607 1258.37 Q161.459 1258.37 159.607 1260.52 Q157.778 1262.67 157.778 1266.42 Q157.778 1270.15 159.607 1272.33 Q161.459 1274.48 164.607 1274.48 Q167.755 1274.48 169.584 1272.33 Q171.436 1270.15 171.436 1266.42 Q171.436 1262.67 169.584 1260.52 Q167.755 1258.37 164.607 1258.37 M173.889 1243.72 L173.889 1247.98 Q172.13 1247.14 170.325 1246.7 Q168.542 1246.26 166.783 1246.26 Q162.153 1246.26 159.7 1249.39 Q157.269 1252.51 156.922 1258.83 Q158.288 1256.82 160.348 1255.75 Q162.408 1254.67 164.885 1254.67 Q170.093 1254.67 173.102 1257.84 Q176.135 1260.98 176.135 1266.42 Q176.135 1271.75 172.987 1274.97 Q169.839 1278.18 164.607 1278.18 Q158.612 1278.18 155.44 1273.6 Q152.269 1268.99 152.269 1260.27 Q152.269 1252.07 156.158 1247.21 Q160.047 1242.33 166.598 1242.33 Q168.357 1242.33 170.139 1242.67 Q171.945 1243.02 173.889 1243.72 Z" fill="#000000" fill-rule="nonzero" fill-opacity="1" /><path clip-path="url(#clip480)" d="M115.07 1018.1 L144.746 1018.1 L144.746 1022.04 L115.07 1022.04 L115.07 1018.1 Z" fill="#000000" fill-rule="nonzero" fill-opacity="1" /><path clip-path="url(#clip480)" d="M169.005 1016.29 Q172.362 1017.01 174.237 1019.28 Q176.135 1021.55 176.135 1024.88 Q176.135 1030 172.616 1032.8 Q169.098 1035.6 162.616 1035.6 Q160.44 1035.6 158.126 1035.16 Q155.834 1034.74 153.38 1033.89 L153.38 1029.37 Q155.325 1030.51 157.64 1031.09 Q159.954 1031.66 162.477 1031.66 Q166.876 1031.66 169.167 1029.93 Q171.482 1028.19 171.482 1024.88 Q171.482 1021.83 169.329 1020.11 Q167.2 1018.38 163.38 1018.38 L159.353 1018.38 L159.353 1014.54 L163.565 1014.54 Q167.015 1014.54 168.843 1013.17 Q170.672 1011.78 170.672 1009.19 Q170.672 1006.53 168.774 1005.11 Q166.899 1003.68 163.38 1003.68 Q161.459 1003.68 159.26 1004.1 Q157.061 1004.51 154.422 1005.39 L154.422 1001.23 Q157.084 1000.48 159.399 1000.11 Q161.737 999.744 163.797 999.744 Q169.121 999.744 172.223 1002.17 Q175.325 1004.58 175.325 1008.7 Q175.325 1011.57 173.681 1013.56 Q172.038 1015.53 169.005 1016.29 Z" fill="#000000" fill-rule="nonzero" fill-opacity="1" /><path clip-path="url(#clip480)" d="M164.19 760.864 Q160.579 760.864 158.751 764.429 Q156.945 767.97 156.945 775.1 Q156.945 782.206 158.751 785.771 Q160.579 789.313 164.19 789.313 Q167.825 789.313 169.63 785.771 Q171.459 782.206 171.459 775.1 Q171.459 767.97 169.63 764.429 Q167.825 760.864 164.19 760.864 M164.19 757.16 Q170.001 757.16 173.056 761.766 Q176.135 766.35 176.135 775.1 Q176.135 783.827 173.056 788.433 Q170.001 793.016 164.19 793.016 Q158.38 793.016 155.302 788.433 Q152.246 783.827 152.246 775.1 Q152.246 766.35 155.302 761.766 Q158.38 757.16 164.19 757.16 Z" fill="#000000" fill-rule="nonzero" fill-opacity="1" /><path clip-path="url(#clip480)" d="M169.005 531.127 Q172.362 531.845 174.237 534.113 Q176.135 536.382 176.135 539.715 Q176.135 544.831 172.616 547.632 Q169.098 550.433 162.616 550.433 Q160.44 550.433 158.126 549.993 Q155.834 549.576 153.38 548.72 L153.38 544.206 Q155.325 545.34 157.64 545.919 Q159.954 546.498 162.477 546.498 Q166.876 546.498 169.167 544.761 Q171.482 543.025 171.482 539.715 Q171.482 536.66 169.329 534.947 Q167.2 533.211 163.38 533.211 L159.353 533.211 L159.353 529.368 L163.565 529.368 Q167.015 529.368 168.843 528.002 Q170.672 526.613 170.672 524.021 Q170.672 521.359 168.774 519.947 Q166.899 518.512 163.38 518.512 Q161.459 518.512 159.26 518.928 Q157.061 519.345 154.422 520.225 L154.422 516.058 Q157.084 515.317 159.399 514.947 Q161.737 514.576 163.797 514.576 Q169.121 514.576 172.223 517.007 Q175.325 519.414 175.325 523.535 Q175.325 526.405 173.681 528.396 Q172.038 530.363 169.005 531.127 Z" fill="#000000" fill-rule="nonzero" fill-opacity="1" /><path clip-path="url(#clip480)" d="M164.607 288.034 Q161.459 288.034 159.607 290.187 Q157.778 292.34 157.778 296.09 Q157.778 299.817 159.607 301.993 Q161.459 304.145 164.607 304.145 Q167.755 304.145 169.584 301.993 Q171.436 299.817 171.436 296.09 Q171.436 292.34 169.584 290.187 Q167.755 288.034 164.607 288.034 M173.889 273.382 L173.889 277.641 Q172.13 276.808 170.325 276.368 Q168.542 275.928 166.783 275.928 Q162.153 275.928 159.7 279.053 Q157.269 282.178 156.922 288.497 Q158.288 286.483 160.348 285.419 Q162.408 284.331 164.885 284.331 Q170.093 284.331 173.102 287.502 Q176.135 290.65 176.135 296.09 Q176.135 301.414 172.987 304.632 Q169.839 307.849 164.607 307.849 Q158.612 307.849 155.44 303.266 Q152.269 298.659 152.269 289.933 Q152.269 281.738 156.158 276.877 Q160.047 271.993 166.598 271.993 Q168.357 271.993 170.139 272.34 Q171.945 272.687 173.889 273.382 Z" fill="#000000" fill-rule="nonzero" fill-opacity="1" /><path clip-path="url(#clip480)" d="M28.3562 992.434 L28.3562 986.227 L58.275 975.087 L28.3562 963.947 L28.3562 957.741 L64.0042 971.108 L64.0042 979.066 L28.3562 992.434 Z" fill="#000000" fill-rule="nonzero" fill-opacity="1" /><path clip-path="url(#clip480)" d="M44.7161 919.164 L47.5806 919.164 L47.5806 946.091 Q53.6281 945.709 56.8109 942.463 Q59.9619 939.184 59.9619 933.36 Q59.9619 929.986 59.1344 926.835 Q58.3069 923.652 56.6518 920.533 L62.1899 920.533 Q63.5267 923.684 64.227 926.994 Q64.9272 930.304 64.9272 933.71 Q64.9272 942.24 59.9619 947.237 Q54.9967 952.202 46.5303 952.202 Q37.7774 952.202 32.6531 947.492 Q27.4968 942.749 27.4968 934.728 Q27.4968 927.535 32.1438 923.366 Q36.7589 919.164 44.7161 919.164 M42.9973 925.021 Q38.1912 925.084 35.3266 927.726 Q32.4621 930.336 32.4621 934.665 Q32.4621 939.566 35.2312 942.526 Q38.0002 945.455 43.0292 945.9 L42.9973 925.021 Z" fill="#000000" fill-rule="nonzero" fill-opacity="1" /><path clip-path="url(#clip480)" d="M14.479 909.552 L14.479 903.696 L64.0042 903.696 L64.0042 909.552 L14.479 909.552 Z" fill="#000000" fill-rule="nonzero" fill-opacity="1" /><path clip-path="url(#clip480)" d="M32.4621 877.628 Q32.4621 882.339 36.1542 885.076 Q39.8145 887.813 46.212 887.813 Q52.6095 887.813 56.3017 885.108 Q59.9619 882.371 59.9619 877.628 Q59.9619 872.949 56.2698 870.212 Q52.5777 867.475 46.212 867.475 Q39.8781 867.475 36.186 870.212 Q32.4621 872.949 32.4621 877.628 M27.4968 877.628 Q27.4968 869.989 32.4621 865.629 Q37.4273 861.268 46.212 861.268 Q54.9649 861.268 59.9619 865.629 Q64.9272 869.989 64.9272 877.628 Q64.9272 885.299 59.9619 889.659 Q54.9649 893.988 46.212 893.988 Q37.4273 893.988 32.4621 889.659 Q27.4968 885.299 27.4968 877.628 Z" fill="#000000" fill-rule="nonzero" fill-opacity="1" /><path clip-path="url(#clip480)" d="M29.7248 825.907 L35.1993 825.907 Q33.8307 828.389 33.1623 830.904 Q32.4621 833.386 32.4621 835.933 Q32.4621 841.63 36.0905 844.781 Q39.6872 847.932 46.212 847.932 Q52.7369 847.932 56.3653 844.781 Q59.9619 841.63 59.9619 835.933 Q59.9619 833.386 59.2935 830.904 Q58.5933 828.389 57.2247 825.907 L62.6355 825.907 Q63.7814 828.358 64.3543 830.999 Q64.9272 833.609 64.9272 836.569 Q64.9272 844.622 59.8664 849.364 Q54.8057 854.107 46.212 854.107 Q37.491 854.107 32.4939 849.333 Q27.4968 844.526 27.4968 836.187 Q27.4968 833.482 28.0697 830.904 Q28.6108 828.326 29.7248 825.907 Z" fill="#000000" fill-rule="nonzero" fill-opacity="1" /><path clip-path="url(#clip480)" d="M28.3562 815.722 L28.3562 809.865 L64.0042 809.865 L64.0042 815.722 L28.3562 815.722 M14.479 815.722 L14.479 809.865 L21.895 809.865 L21.895 815.722 L14.479 815.722 Z" fill="#000000" fill-rule="nonzero" fill-opacity="1" /><path clip-path="url(#clip480)" d="M18.2347 791.818 L28.3562 791.818 L28.3562 779.755 L32.9077 779.755 L32.9077 791.818 L52.2594 791.818 Q56.6199 791.818 57.8613 790.641 Q59.1026 789.431 59.1026 785.771 L59.1026 779.755 L64.0042 779.755 L64.0042 785.771 Q64.0042 792.55 61.4897 795.129 Q58.9434 797.707 52.2594 797.707 L32.9077 797.707 L32.9077 802.003 L28.3562 802.003 L28.3562 797.707 L18.2347 797.707 L18.2347 791.818 Z" fill="#000000" fill-rule="nonzero" fill-opacity="1" /><path clip-path="url(#clip480)" d="M67.3143 757.221 Q73.68 759.703 75.6216 762.059 Q77.5631 764.414 77.5631 768.361 L77.5631 773.04 L72.6615 773.04 L72.6615 769.602 Q72.6615 767.183 71.5157 765.846 Q70.3699 764.509 66.1048 762.886 L63.4312 761.836 L28.3562 776.254 L28.3562 770.048 L56.238 758.908 L28.3562 747.768 L28.3562 741.561 L67.3143 757.221 Z" fill="#000000" fill-rule="nonzero" fill-opacity="1" /><path clip-path="url(#clip480)" d="M14.5426 698.688 Q21.8632 702.953 29.0246 705.022 Q36.186 707.091 43.5384 707.091 Q50.8908 707.091 58.1159 705.022 Q65.3091 702.921 72.5979 698.688 L72.5979 703.781 Q65.1182 708.555 57.8931 710.942 Q50.668 713.297 43.5384 713.297 Q36.4406 713.297 29.2474 710.942 Q22.0542 708.587 14.5426 703.781 L14.5426 698.688 Z" fill="#000000" fill-rule="nonzero" fill-opacity="1" /><path clip-path="url(#clip480)" d="M35.1993 659.571 Q31.2526 657.375 29.3747 654.319 Q27.4968 651.264 27.4968 647.126 Q27.4968 641.556 31.4117 638.532 Q35.2948 635.508 42.4881 635.508 L64.0042 635.508 L64.0042 641.397 L42.679 641.397 Q37.5546 641.397 35.072 643.211 Q32.5894 645.025 32.5894 648.749 Q32.5894 653.301 35.6131 655.942 Q38.6368 658.584 43.8567 658.584 L64.0042 658.584 L64.0042 664.472 L42.679 664.472 Q37.5228 664.472 35.072 666.287 Q32.5894 668.101 32.5894 671.888 Q32.5894 676.376 35.6449 679.018 Q38.6686 681.66 43.8567 681.66 L64.0042 681.66 L64.0042 687.548 L28.3562 687.548 L28.3562 681.66 L33.8944 681.66 Q30.616 679.655 29.0564 676.854 Q27.4968 674.053 27.4968 670.202 Q27.4968 666.318 29.4702 663.613 Q31.4436 660.876 35.1993 659.571 Z" fill="#000000" fill-rule="nonzero" fill-opacity="1" /><path clip-path="url(#clip480)" d="M16.4842 613.419 L16.4842 608.009 L70.0516 624.559 L70.0516 629.97 L16.4842 613.419 Z" fill="#000000" fill-rule="nonzero" fill-opacity="1" /><path clip-path="url(#clip480)" d="M29.4065 579.14 L34.9447 579.14 Q33.6716 581.623 33.035 584.296 Q32.3984 586.97 32.3984 589.834 Q32.3984 594.195 33.7352 596.391 Q35.072 598.556 37.7456 598.556 Q39.7826 598.556 40.9603 596.996 Q42.1061 595.436 43.1565 590.726 L43.6021 588.72 Q44.9389 582.482 47.3897 579.872 Q49.8086 577.23 54.1691 577.23 Q59.1344 577.23 62.0308 581.177 Q64.9272 585.092 64.9272 591.967 Q64.9272 594.832 64.3543 597.951 Q63.8132 601.038 62.6992 604.476 L56.6518 604.476 Q58.3387 601.229 59.198 598.078 Q60.0256 594.927 60.0256 591.84 Q60.0256 587.702 58.6251 585.474 Q57.1929 583.246 54.6147 583.246 Q52.2276 583.246 50.9545 584.869 Q49.6813 586.461 48.5037 591.903 L48.0262 593.94 Q46.8804 599.383 44.5251 601.802 Q42.138 604.221 38.0002 604.221 Q32.9713 604.221 30.2341 600.656 Q27.4968 597.091 27.4968 590.535 Q27.4968 587.288 27.9743 584.424 Q28.4517 581.559 29.4065 579.14 Z" fill="#000000" fill-rule="nonzero" fill-opacity="1" /><path clip-path="url(#clip480)" d="M14.5426 568.828 L14.5426 563.735 Q22.0542 558.961 29.2474 556.606 Q36.4406 554.218 43.5384 554.218 Q50.668 554.218 57.8931 556.606 Q65.1182 558.961 72.5979 563.735 L72.5979 568.828 Q65.3091 564.594 58.1159 562.526 Q50.8908 560.425 43.5384 560.425 Q36.186 560.425 29.0246 562.526 Q21.8632 564.594 14.5426 568.828 Z" fill="#000000" fill-rule="nonzero" fill-opacity="1" /><path clip-path="url(#clip480)" d="M1144.37 72.576 L1121.28 12.096 L1129.83 12.096 L1148.99 63.0159 L1168.19 12.096 L1176.7 12.096 L1153.65 72.576 L1144.37 72.576 Z" fill="#000000" fill-rule="nonzero" fill-opacity="1" /><path clip-path="url(#clip480)" d="M1217.57 48.0275 L1217.57 51.6733 L1183.3 51.6733 Q1183.79 59.3701 1187.92 63.421 Q1192.09 67.4314 1199.5 67.4314 Q1203.8 67.4314 1207.81 66.3781 Q1211.86 65.3249 1215.83 63.2184 L1215.83 70.267 Q1211.82 71.9684 1207.6 72.8596 Q1203.39 73.7508 1199.06 73.7508 Q1188.2 73.7508 1181.84 67.4314 Q1175.52 61.1119 1175.52 50.3365 Q1175.52 39.1965 1181.52 32.6746 Q1187.55 26.1121 1197.76 26.1121 Q1206.92 26.1121 1212.22 32.0264 Q1217.57 37.9003 1217.57 48.0275 M1210.12 45.84 Q1210.04 39.7232 1206.67 36.0774 Q1203.35 32.4315 1197.84 32.4315 Q1191.6 32.4315 1187.84 35.9558 Q1184.11 39.4801 1183.54 45.8805 L1210.12 45.84 Z" fill="#000000" fill-rule="nonzero" fill-opacity="1" /><path clip-path="url(#clip480)" d="M1229.8 9.54393 L1237.26 9.54393 L1237.26 72.576 L1229.8 72.576 L1229.8 9.54393 Z" fill="#000000" fill-rule="nonzero" fill-opacity="1" /><path clip-path="url(#clip480)" d="M1270.43 32.4315 Q1264.44 32.4315 1260.96 37.1306 Q1257.47 41.7891 1257.47 49.9314 Q1257.47 58.0738 1260.91 62.7728 Q1264.4 67.4314 1270.43 67.4314 Q1276.39 67.4314 1279.87 62.7323 Q1283.36 58.0333 1283.36 49.9314 Q1283.36 41.8701 1279.87 37.1711 Q1276.39 32.4315 1270.43 32.4315 M1270.43 26.1121 Q1280.16 26.1121 1285.71 32.4315 Q1291.26 38.7509 1291.26 49.9314 Q1291.26 61.0714 1285.71 67.4314 Q1280.16 73.7508 1270.43 73.7508 Q1260.67 73.7508 1255.12 67.4314 Q1249.61 61.0714 1249.61 49.9314 Q1249.61 38.7509 1255.12 32.4315 Q1260.67 26.1121 1270.43 26.1121 Z" fill="#000000" fill-rule="nonzero" fill-opacity="1" /><path clip-path="url(#clip480)" d="M1336.26 28.9478 L1336.26 35.9153 Q1333.1 34.1734 1329.9 33.3227 Q1326.74 32.4315 1323.5 32.4315 Q1316.25 32.4315 1312.24 37.0496 Q1308.23 41.6271 1308.23 49.9314 Q1308.23 58.2358 1312.24 62.8538 Q1316.25 67.4314 1323.5 67.4314 Q1326.74 67.4314 1329.9 66.5807 Q1333.1 65.6895 1336.26 63.9476 L1336.26 70.8341 Q1333.14 72.2924 1329.78 73.0216 Q1326.46 73.7508 1322.69 73.7508 Q1312.44 73.7508 1306.41 67.3098 Q1300.37 60.8689 1300.37 49.9314 Q1300.37 38.832 1306.45 32.472 Q1312.56 26.1121 1323.18 26.1121 Q1326.62 26.1121 1329.9 26.8413 Q1333.18 27.5299 1336.26 28.9478 Z" fill="#000000" fill-rule="nonzero" fill-opacity="1" /><path clip-path="url(#clip480)" d="M1349.22 27.2059 L1356.68 27.2059 L1356.68 72.576 L1349.22 72.576 L1349.22 27.2059 M1349.22 9.54393 L1356.68 9.54393 L1356.68 18.9825 L1349.22 18.9825 L1349.22 9.54393 Z" fill="#000000" fill-rule="nonzero" fill-opacity="1" /><path clip-path="url(#clip480)" d="M1379.65 14.324 L1379.65 27.2059 L1395 27.2059 L1395 32.9987 L1379.65 32.9987 L1379.65 57.6282 Q1379.65 63.1779 1381.15 64.7578 Q1382.68 66.3376 1387.34 66.3376 L1395 66.3376 L1395 72.576 L1387.34 72.576 Q1378.72 72.576 1375.43 69.3758 Q1372.15 66.1351 1372.15 57.6282 L1372.15 32.9987 L1366.68 32.9987 L1366.68 27.2059 L1372.15 27.2059 L1372.15 14.324 L1379.65 14.324 Z" fill="#000000" fill-rule="nonzero" fill-opacity="1" /><path clip-path="url(#clip480)" d="M1423.68 76.7889 Q1420.52 84.8907 1417.52 87.3618 Q1414.53 89.8329 1409.5 89.8329 L1403.55 89.8329 L1403.55 83.5945 L1407.92 83.5945 Q1411 83.5945 1412.7 82.1361 Q1414.4 80.6778 1416.47 75.2496 L1417.81 71.8468 L1399.46 27.2059 L1407.35 27.2059 L1421.53 62.6918 L1435.71 27.2059 L1443.61 27.2059 L1423.68 76.7889 Z" fill="#000000" fill-rule="nonzero" fill-opacity="1" /><polyline clip-path="url(#clip482)" style="stroke:#009af9; stroke-linecap:round; stroke-linejoin:round; stroke-width:4; stroke-opacity:1; fill:none" points="272.718,165.787 292.913,166.078 313.108,168.333 333.302,173.677 353.497,182.274 373.691,193.853 393.886,207.996 414.08,224.315 434.275,242.528 454.469,262.466 474.664,284.059 494.858,307.306 515.053,332.247 535.247,358.944 555.442,387.453 575.637,417.802 595.831,449.961 616.026,483.813 636.22,519.133 656.415,555.585 676.609,592.747 696.804,630.172 716.998,667.477 737.193,704.429 757.387,740.994 777.582,777.327 797.776,813.695 817.971,850.351 838.166,887.429 858.36,924.864 878.555,962.397 898.749,999.63 918.944,1036.12 939.138,1071.45 959.333,1105.32 979.527,1137.5 999.722,1167.9 1019.92,1196.47 1040.11,1223.2 1060.31,1248.1 1080.5,1271.1 1100.69,1292.09 1120.89,1310.91 1141.08,1327.33 1161.28,1341.13 1181.47,1352.18 1201.67,1360.51 1221.86,1366.36 1242.06,1370.09 1262.25,1372.16 1282.45,1372.87 1302.64,1372.32 1322.83,1370.36 1343.03,1366.62 1363.22,1360.66 1383.42,1352.13 1403.61,1340.82 1423.81,1326.74 1444,1310.05 1464.2,1290.94 1484.39,1269.63 1504.59,1246.28 1524.78,1220.96 1544.97,1193.72 1565.17,1164.57 1585.36,1133.53 1605.56,1100.67 1625.75,1066.15 1645.95,1030.25 1666.14,993.345 1686.34,955.906 1706.53,918.387 1726.73,881.145 1746.92,844.344 1767.11,807.929 1787.31,771.665 1807.5,735.246 1827.7,698.428 1847.89,661.143 1868.09,623.544 1888.28,585.983 1908.48,548.924 1928.67,512.849 1948.87,478.173 1969.06,445.202 1989.25,414.13 2009.45,385.053 2029.64,357.998 2049.84,332.949 2070.03,309.869 2090.23,288.704 2110.42,269.393 2130.62,251.86 2150.81,236.012 2171.01,221.734 2191.2,208.889 2211.39,197.319 2231.59,186.853 2251.78,177.311 2271.98,168.509 2292.17,160.256 "/>
<polyline clip-path="url(#clip482)" style="stroke:#e26f46; stroke-linecap:round; stroke-linejoin:round; stroke-width:4; stroke-opacity:1; fill:none" points="272.718,1383.14 292.913,1381.91 313.108,1372.31 333.302,1349.58 353.497,1313.29 373.691,1265.1 393.886,1207.49 414.08,1142.94 434.275,1073.52 454.469,1000.91 474.664,926.429 494.858,851.183 515.053,776.163 535.247,702.325 555.442,630.642 575.637,562.122 595.831,497.805 616.026,438.73 636.22,385.872 656.415,340.059 676.609,301.878 696.804,271.612 716.998,249.225 737.193,234.439 757.387,226.877 777.582,226.238 797.776,232.423 817.971,245.577 838.166,266.019 858.36,294.083 878.555,329.951 898.749,373.521 918.944,424.352 939.138,481.692 959.333,544.554 979.527,611.798 999.722,682.207 1019.92,754.52 1040.11,827.444 1060.31,899.636 1080.5,969.673 1100.69,1036.03 1120.89,1097.12 1141.08,1151.34 1161.28,1197.33 1181.47,1234.2 1201.67,1261.82 1221.86,1280.88 1242.06,1292.68 1262.25,1298.69 1282.45,1299.99 1302.64,1296.86 1322.83,1288.69 1343.03,1274.2 1363.22,1251.92 1383.42,1220.74 1403.61,1180.29 1423.81,1131 1444,1074 1464.2,1010.75 1484.39,942.888 1504.59,871.99 1524.78,799.553 1544.97,726.984 1565.17,655.62 1585.36,586.766 1605.56,521.689 1625.75,461.603 1645.95,407.603 1666.14,360.585 1686.34,321.151 1706.53,289.552 1726.73,265.703 1746.92,249.284 1767.11,239.908 1787.31,237.304 1807.5,241.441 1827.7,252.537 1847.89,270.957 1868.09,297.037 1888.28,330.901 1908.48,372.347 1928.67,420.815 1948.87,475.433 1969.06,535.107 1989.25,598.62 2009.45,664.714 2029.64,732.149 2049.84,799.746 2070.03,866.415 2090.23,931.19 2110.42,993.25 2130.62,1051.95 2150.81,1106.84 2171.01,1157.67 2191.2,1204.41 2211.39,1247.2 2231.59,1286.33 2251.78,1322.23 2271.98,1355.38 2292.17,1386.4 "/>
<polyline clip-path="url(#clip482)" style="stroke:#3da44d; stroke-linecap:round; stroke-linejoin:round; stroke-width:4; stroke-opacity:1; fill:none" points="272.718,771.874 292.913,777.13 313.108,772.201 333.302,759.414 353.497,743.736 373.691,728.846 393.886,716.75 414.08,708.103 434.275,702.721 454.469,699.995 474.664,699.173 494.858,699.51 515.053,700.342 535.247,701.118 555.442,701.406 575.637,700.903 595.831,699.445 616.026,697.014 636.22,693.754 656.415,689.955 676.609,686.02 696.804,682.386 716.998,679.43 737.193,677.368 757.387,676.205 777.582,675.752 797.776,675.718 817.971,675.837 838.166,675.986 858.36,676.245 878.555,676.884 898.749,678.272 918.944,680.778 939.138,684.662 959.333,690.016 979.527,696.739 999.722,704.538 1019.92,712.962 1040.11,721.437 1060.31,729.322 1080.5,735.988 1100.69,740.923 1120.89,743.871 1141.08,744.988 1161.28,744.932 1181.47,744.833 1201.67,746.049 1221.86,749.747 1242.06,756.447 1262.25,765.758 1282.45,776.443 1302.64,786.811 1322.83,795.276 1343.03,800.886 1363.22,803.597 1383.42,804.213 1403.61,804.027 1423.81,804.353 1444,806.166 1464.2,809.933 1484.39,815.64 1504.59,822.92 1524.78,831.205 1544.97,839.849 1565.17,848.235 1585.36,855.838 1605.56,862.277 1625.75,867.351 1645.95,871.059 1666.14,873.589 1686.34,875.274 1706.53,876.5 1726.73,877.593 1746.92,878.708 1767.11,879.785 1787.31,880.563 1807.5,880.687 1827.7,879.841 1847.89,877.865 1868.09,874.809 1888.28,870.911 1908.48,866.509 1928.67,861.941 1948.87,857.464 1969.06,853.207 1989.25,849.179 2009.45,845.295 2029.64,841.421 2049.84,837.426 2070.03,833.219 2090.23,828.778 2110.42,824.169 2130.62,819.544 2150.81,815.126 2171.01,811.188 2191.2,808.011 2211.39,805.853 2231.59,804.922 2251.78,805.345 2271.98,807.156 2292.17,810.341 "/>
<path clip-path="url(#clip480)" d="M1990.35 1379.86 L2281.4 1379.86 L2281.4 1172.5 L1990.35 1172.5  Z" fill="#ffffff" fill-rule="evenodd" fill-opacity="1"/>
<polyline clip-path="url(#clip480)" style="stroke:#000000; stroke-linecap:round; stroke-linejoin:round; stroke-width:4; stroke-opacity:1; fill:none" points="1990.35,1379.86 2281.4,1379.86 2281.4,1172.5 1990.35,1172.5 1990.35,1379.86 "/>
<polyline clip-path="url(#clip480)" style="stroke:#009af9; stroke-linecap:round; stroke-linejoin:round; stroke-width:4; stroke-opacity:1; fill:none" points="2014.13,1224.34 2156.84,1224.34 "/>
<path clip-path="url(#clip480)" d="M2180.63 1215.69 L2185.14 1215.69 L2193.24 1237.45 L2201.34 1215.69 L2205.86 1215.69 L2196.14 1241.62 L2190.35 1241.62 L2180.63 1215.69 Z" fill="#000000" fill-rule="nonzero" fill-opacity="1" /><path clip-path="url(#clip480)" d="M2231.44 1249.49 L2231.44 1252.8 L2206.81 1252.8 L2206.81 1249.49 L2231.44 1249.49 Z" fill="#000000" fill-rule="nonzero" fill-opacity="1" /><path clip-path="url(#clip480)" d="M2256.99 1215.69 L2247.62 1228.31 L2257.48 1241.62 L2252.46 1241.62 L2244.91 1231.43 L2237.36 1241.62 L2232.34 1241.62 L2242.41 1228.05 L2233.2 1215.69 L2238.22 1215.69 L2245.09 1224.93 L2251.97 1215.69 L2256.99 1215.69 Z" fill="#000000" fill-rule="nonzero" fill-opacity="1" /><polyline clip-path="url(#clip480)" style="stroke:#e26f46; stroke-linecap:round; stroke-linejoin:round; stroke-width:4; stroke-opacity:1; fill:none" points="2014.13,1276.18 2156.84,1276.18 "/>
<path clip-path="url(#clip480)" d="M2180.63 1267.53 L2185.14 1267.53 L2193.24 1289.29 L2201.34 1267.53 L2205.86 1267.53 L2196.14 1293.46 L2190.35 1293.46 L2180.63 1267.53 Z" fill="#000000" fill-rule="nonzero" fill-opacity="1" /><path clip-path="url(#clip480)" d="M2231.44 1301.33 L2231.44 1304.64 L2206.81 1304.64 L2206.81 1301.33 L2231.44 1301.33 Z" fill="#000000" fill-rule="nonzero" fill-opacity="1" /><path clip-path="url(#clip480)" d="M2246.23 1295.86 Q2244.42 1300.49 2242.71 1301.91 Q2241 1303.32 2238.13 1303.32 L2234.72 1303.32 L2234.72 1299.75 L2237.22 1299.75 Q2238.98 1299.75 2239.96 1298.92 Q2240.93 1298.09 2242.11 1294.98 L2242.87 1293.04 L2232.39 1267.53 L2236.9 1267.53 L2245 1287.81 L2253.1 1267.53 L2257.62 1267.53 L2246.23 1295.86 Z" fill="#000000" fill-rule="nonzero" fill-opacity="1" /><polyline clip-path="url(#clip480)" style="stroke:#3da44d; stroke-linecap:round; stroke-linejoin:round; stroke-width:4; stroke-opacity:1; fill:none" points="2014.13,1328.02 2156.84,1328.02 "/>
<path clip-path="url(#clip480)" d="M2180.63 1319.37 L2185.14 1319.37 L2193.24 1341.13 L2201.34 1319.37 L2205.86 1319.37 L2196.14 1345.3 L2190.35 1345.3 L2180.63 1319.37 Z" fill="#000000" fill-rule="nonzero" fill-opacity="1" /><path clip-path="url(#clip480)" d="M2231.44 1353.17 L2231.44 1356.48 L2206.81 1356.48 L2206.81 1353.17 L2231.44 1353.17 Z" fill="#000000" fill-rule="nonzero" fill-opacity="1" /><path clip-path="url(#clip480)" d="M2233.59 1319.37 L2253.82 1319.37 L2253.82 1323.26 L2237.8 1341.89 L2253.82 1341.89 L2253.82 1345.3 L2233.01 1345.3 L2233.01 1341.41 L2249.03 1322.77 L2233.59 1322.77 L2233.59 1319.37 Z" fill="#000000" fill-rule="nonzero" fill-opacity="1" /></svg>
