<?xml version="1.0" encoding="utf-8"?>
<svg xmlns="http://www.w3.org/2000/svg" xmlns:xlink="http://www.w3.org/1999/xlink" width="600" height="400" viewBox="0 0 2400 1600">
<defs>
  <clipPath id="clip660">
    <rect x="0" y="0" width="2400" height="1600"/>
  </clipPath>
</defs>
<path clip-path="url(#clip660)" d="M0 1600 L2400 1600 L2400 0 L0 0  Z" fill="#ffffff" fill-rule="evenodd" fill-opacity="1"/>
<defs>
  <clipPath id="clip661">
    <rect x="480" y="0" width="1681" height="1600"/>
  </clipPath>
</defs>
<path clip-path="url(#clip660)" d="M212.459 1423.18 L2352.76 1423.18 L2352.76 123.472 L212.459 123.472  Z" fill="#ffffff" fill-rule="evenodd" fill-opacity="1"/>
<defs>
  <clipPath id="clip662">
    <rect x="212" y="123" width="2141" height="1301"/>
  </clipPath>
</defs>
<polyline clip-path="url(#clip662)" style="stroke:#000000; stroke-linecap:round; stroke-linejoin:round; stroke-width:2; stroke-opacity:0.1; fill:none" points="273.033,1423.18 273.033,123.472 "/>
<polyline clip-path="url(#clip662)" style="stroke:#000000; stroke-linecap:round; stroke-linejoin:round; stroke-width:2; stroke-opacity:0.1; fill:none" points="676.863,1423.18 676.863,123.472 "/>
<polyline clip-path="url(#clip662)" style="stroke:#000000; stroke-linecap:round; stroke-linejoin:round; stroke-width:2; stroke-opacity:0.1; fill:none" points="1080.69,1423.18 1080.69,123.472 "/>
<polyline clip-path="url(#clip662)" style="stroke:#000000; stroke-linecap:round; stroke-linejoin:round; stroke-width:2; stroke-opacity:0.1; fill:none" points="1484.52,1423.18 1484.52,123.472 "/>
<polyline clip-path="url(#clip662)" style="stroke:#000000; stroke-linecap:round; stroke-linejoin:round; stroke-width:2; stroke-opacity:0.1; fill:none" points="1888.35,1423.18 1888.35,123.472 "/>
<polyline clip-path="url(#clip662)" style="stroke:#000000; stroke-linecap:round; stroke-linejoin:round; stroke-width:2; stroke-opacity:0.1; fill:none" points="2292.18,1423.18 2292.18,123.472 "/>
<polyline clip-path="url(#clip662)" style="stroke:#000000; stroke-linecap:round; stroke-linejoin:round; stroke-width:2; stroke-opacity:0.1; fill:none" points="212.459,1334.09 2352.76,1334.09 "/>
<polyline clip-path="url(#clip662)" style="stroke:#000000; stroke-linecap:round; stroke-linejoin:round; stroke-width:2; stroke-opacity:0.1; fill:none" points="212.459,1154.22 2352.76,1154.22 "/>
<polyline clip-path="url(#clip662)" style="stroke:#000000; stroke-linecap:round; stroke-linejoin:round; stroke-width:2; stroke-opacity:0.1; fill:none" points="212.459,974.344 2352.76,974.344 "/>
<polyline clip-path="url(#clip662)" style="stroke:#000000; stroke-linecap:round; stroke-linejoin:round; stroke-width:2; stroke-opacity:0.1; fill:none" points="212.459,794.472 2352.76,794.472 "/>
<polyline clip-path="url(#clip662)" style="stroke:#000000; stroke-linecap:round; stroke-linejoin:round; stroke-width:2; stroke-opacity:0.1; fill:none" points="212.459,614.601 2352.76,614.601 "/>
<polyline clip-path="url(#clip662)" style="stroke:#000000; stroke-linecap:round; stroke-linejoin:round; stroke-width:2; stroke-opacity:0.1; fill:none" points="212.459,434.729 2352.76,434.729 "/>
<polyline clip-path="url(#clip662)" style="stroke:#000000; stroke-linecap:round; stroke-linejoin:round; stroke-width:2; stroke-opacity:0.1; fill:none" points="212.459,254.858 2352.76,254.858 "/>
<polyline clip-path="url(#clip660)" style="stroke:#000000; stroke-linecap:round; stroke-linejoin:round; stroke-width:4; stroke-opacity:1; fill:none" points="212.459,1423.18 2352.76,1423.18 "/>
<polyline clip-path="url(#clip660)" style="stroke:#000000; stroke-linecap:round; stroke-linejoin:round; stroke-width:4; stroke-opacity:1; fill:none" points="273.033,1423.18 273.033,1404.28 "/>
<polyline clip-path="url(#clip660)" style="stroke:#000000; stroke-linecap:round; stroke-linejoin:round; stroke-width:4; stroke-opacity:1; fill:none" points="676.863,1423.18 676.863,1404.28 "/>
<polyline clip-path="url(#clip660)" style="stroke:#000000; stroke-linecap:round; stroke-linejoin:round; stroke-width:4; stroke-opacity:1; fill:none" points="1080.69,1423.18 1080.69,1404.28 "/>
<polyline clip-path="url(#clip660)" style="stroke:#000000; stroke-linecap:round; stroke-linejoin:round; stroke-width:4; stroke-opacity:1; fill:none" points="1484.52,1423.18 1484.52,1404.28 "/>
<polyline clip-path="url(#clip660)" style="stroke:#000000; stroke-linecap:round; stroke-linejoin:round; stroke-width:4; stroke-opacity:1; fill:none" points="1888.35,1423.18 1888.35,1404.28 "/>
<polyline clip-path="url(#clip660)" style="stroke:#000000; stroke-linecap:round; stroke-linejoin:round; stroke-width:4; stroke-opacity:1; fill:none" points="2292.18,1423.18 2292.18,1404.28 "/>
<path clip-path="url(#clip660)" d="M273.033 1454.1 Q269.422 1454.1 267.594 1457.66 Q265.788 1461.2 265.788 1468.33 Q265.788 1475.44 267.594 1479.01 Q269.422 1482.55 273.033 1482.55 Q276.668 1482.55 278.473 1479.01 Q280.302 1475.44 280.302 1468.33 Q280.302 1461.2 278.473 1457.66 Q276.668 1454.1 273.033 1454.1 M273.033 1450.39 Q278.843 1450.39 281.899 1455 Q284.978 1459.58 284.978 1468.33 Q284.978 1477.06 281.899 1481.67 Q278.843 1486.25 273.033 1486.25 Q267.223 1486.25 264.145 1481.67 Q261.089 1477.06 261.089 1468.33 Q261.089 1459.58 264.145 1455 Q267.223 1450.39 273.033 1450.39 Z" fill="#000000" fill-rule="nonzero" fill-opacity="1" /><path clip-path="url(#clip660)" d="M667.245 1481.64 L674.884 1481.64 L674.884 1455.28 L666.574 1456.95 L666.574 1452.69 L674.838 1451.02 L679.513 1451.02 L679.513 1481.64 L687.152 1481.64 L687.152 1485.58 L667.245 1485.58 L667.245 1481.64 Z" fill="#000000" fill-rule="nonzero" fill-opacity="1" /><path clip-path="url(#clip660)" d="M1075.35 1481.64 L1091.66 1481.64 L1091.66 1485.58 L1069.72 1485.58 L1069.72 1481.64 Q1072.38 1478.89 1076.97 1474.26 Q1081.57 1469.61 1082.75 1468.27 Q1085 1465.74 1085.88 1464.01 Q1086.78 1462.25 1086.78 1460.56 Q1086.78 1457.8 1084.84 1456.07 Q1082.91 1454.33 1079.81 1454.33 Q1077.61 1454.33 1075.16 1455.09 Q1072.73 1455.86 1069.95 1457.41 L1069.95 1452.69 Q1072.78 1451.55 1075.23 1450.97 Q1077.68 1450.39 1079.72 1450.39 Q1085.09 1450.39 1088.29 1453.08 Q1091.48 1455.77 1091.48 1460.26 Q1091.48 1462.39 1090.67 1464.31 Q1089.88 1466.2 1087.78 1468.8 Q1087.2 1469.47 1084.1 1472.69 Q1080.99 1475.88 1075.35 1481.64 Z" fill="#000000" fill-rule="nonzero" fill-opacity="1" /><path clip-path="url(#clip660)" d="M1488.77 1466.95 Q1492.13 1467.66 1494 1469.93 Q1495.9 1472.2 1495.9 1475.53 Q1495.9 1480.65 1492.38 1483.45 Q1488.86 1486.25 1482.38 1486.25 Q1480.21 1486.25 1477.89 1485.81 Q1475.6 1485.39 1473.14 1484.54 L1473.14 1480.02 Q1475.09 1481.16 1477.4 1481.74 Q1479.72 1482.32 1482.24 1482.32 Q1486.64 1482.32 1488.93 1480.58 Q1491.25 1478.84 1491.25 1475.53 Q1491.25 1472.48 1489.09 1470.77 Q1486.96 1469.03 1483.14 1469.03 L1479.12 1469.03 L1479.12 1465.19 L1483.33 1465.19 Q1486.78 1465.19 1488.61 1463.82 Q1490.44 1462.43 1490.44 1459.84 Q1490.44 1457.18 1488.54 1455.77 Q1486.66 1454.33 1483.14 1454.33 Q1481.22 1454.33 1479.02 1454.75 Q1476.83 1455.16 1474.19 1456.04 L1474.19 1451.88 Q1476.85 1451.14 1479.16 1450.77 Q1481.5 1450.39 1483.56 1450.39 Q1488.89 1450.39 1491.99 1452.83 Q1495.09 1455.23 1495.09 1459.35 Q1495.09 1462.22 1493.45 1464.21 Q1491.8 1466.18 1488.77 1466.95 Z" fill="#000000" fill-rule="nonzero" fill-opacity="1" /><path clip-path="url(#clip660)" d="M1891.36 1455.09 L1879.56 1473.54 L1891.36 1473.54 L1891.36 1455.09 M1890.13 1451.02 L1896.01 1451.02 L1896.01 1473.54 L1900.94 1473.54 L1900.94 1477.43 L1896.01 1477.43 L1896.01 1485.58 L1891.36 1485.58 L1891.36 1477.43 L1875.76 1477.43 L1875.76 1472.92 L1890.13 1451.02 Z" fill="#000000" fill-rule="nonzero" fill-opacity="1" /><path clip-path="url(#clip660)" d="M2282.46 1451.02 L2300.82 1451.02 L2300.82 1454.96 L2286.74 1454.96 L2286.74 1463.43 Q2287.76 1463.08 2288.78 1462.92 Q2289.8 1462.73 2290.82 1462.73 Q2296.6 1462.73 2299.98 1465.9 Q2303.36 1469.08 2303.36 1474.49 Q2303.36 1480.07 2299.89 1483.17 Q2296.42 1486.25 2290.1 1486.25 Q2287.92 1486.25 2285.65 1485.88 Q2283.41 1485.51 2281 1484.77 L2281 1480.07 Q2283.08 1481.2 2285.31 1481.76 Q2287.53 1482.32 2290.01 1482.32 Q2294.01 1482.32 2296.35 1480.21 Q2298.69 1478.1 2298.69 1474.49 Q2298.69 1470.88 2296.35 1468.77 Q2294.01 1466.67 2290.01 1466.67 Q2288.13 1466.67 2286.26 1467.08 Q2284.4 1467.5 2282.46 1468.38 L2282.46 1451.02 Z" fill="#000000" fill-rule="nonzero" fill-opacity="1" /><path clip-path="url(#clip660)" d="M1170.06 1522.27 L1170.06 1532.4 L1182.12 1532.4 L1182.12 1536.95 L1170.06 1536.95 L1170.06 1556.3 Q1170.06 1560.66 1171.24 1561.9 Q1172.45 1563.14 1176.11 1563.14 L1182.12 1563.14 L1182.12 1568.04 L1176.11 1568.04 Q1169.33 1568.04 1166.75 1565.53 Q1164.17 1562.98 1164.17 1556.3 L1164.17 1536.95 L1159.88 1536.95 L1159.88 1532.4 L1164.17 1532.4 L1164.17 1522.27 L1170.06 1522.27 Z" fill="#000000" fill-rule="nonzero" fill-opacity="1" /><path clip-path="url(#clip660)" d="M1189.83 1532.4 L1195.68 1532.4 L1195.68 1568.04 L1189.83 1568.04 L1189.83 1532.4 M1189.83 1518.52 L1195.68 1518.52 L1195.68 1525.93 L1189.83 1525.93 L1189.83 1518.52 Z" fill="#000000" fill-rule="nonzero" fill-opacity="1" /><path clip-path="url(#clip660)" d="M1235.69 1539.24 Q1237.89 1535.29 1240.94 1533.41 Q1244 1531.54 1248.14 1531.54 Q1253.71 1531.54 1256.73 1535.45 Q1259.75 1539.33 1259.75 1546.53 L1259.75 1568.04 L1253.87 1568.04 L1253.87 1546.72 Q1253.87 1541.59 1252.05 1539.11 Q1250.24 1536.63 1246.51 1536.63 Q1241.96 1536.63 1239.32 1539.65 Q1236.68 1542.68 1236.68 1547.9 L1236.68 1568.04 L1230.79 1568.04 L1230.79 1546.72 Q1230.79 1541.56 1228.98 1539.11 Q1227.16 1536.63 1223.37 1536.63 Q1218.89 1536.63 1216.24 1539.68 Q1213.6 1542.71 1213.6 1547.9 L1213.6 1568.04 L1207.71 1568.04 L1207.71 1532.4 L1213.6 1532.4 L1213.6 1537.93 Q1215.61 1534.66 1218.41 1533.1 Q1221.21 1531.54 1225.06 1531.54 Q1228.94 1531.54 1231.65 1533.51 Q1234.39 1535.48 1235.69 1539.24 Z" fill="#000000" fill-rule="nonzero" fill-opacity="1" /><path clip-path="url(#clip660)" d="M1301.93 1548.76 L1301.93 1551.62 L1275 1551.62 Q1275.38 1557.67 1278.63 1560.85 Q1281.91 1564 1287.73 1564 Q1291.11 1564 1294.26 1563.17 Q1297.44 1562.35 1300.56 1560.69 L1300.56 1566.23 Q1297.41 1567.57 1294.1 1568.27 Q1290.79 1568.97 1287.38 1568.97 Q1278.85 1568.97 1273.85 1564 Q1268.89 1559.04 1268.89 1550.57 Q1268.89 1541.82 1273.6 1536.69 Q1278.34 1531.54 1286.36 1531.54 Q1293.56 1531.54 1297.73 1536.18 Q1301.93 1540.8 1301.93 1548.76 M1296.07 1547.04 Q1296.01 1542.23 1293.37 1539.37 Q1290.76 1536.5 1286.43 1536.5 Q1281.53 1536.5 1278.57 1539.27 Q1275.64 1542.04 1275.19 1547.07 L1296.07 1547.04 Z" fill="#000000" fill-rule="nonzero" fill-opacity="1" /><path clip-path="url(#clip660)" d="M1346.33 1518.58 Q1342.06 1525.9 1339.99 1533.06 Q1337.93 1540.23 1337.93 1547.58 Q1337.93 1554.93 1339.99 1562.16 Q1342.09 1569.35 1346.33 1576.64 L1341.24 1576.64 Q1336.46 1569.16 1334.07 1561.93 Q1331.72 1554.71 1331.72 1547.58 Q1331.72 1540.48 1334.07 1533.29 Q1336.43 1526.09 1341.24 1518.58 L1346.33 1518.58 Z" fill="#000000" fill-rule="nonzero" fill-opacity="1" /><path clip-path="url(#clip660)" d="M1380.42 1533.45 L1380.42 1538.98 Q1377.93 1537.71 1375.26 1537.07 Q1372.59 1536.44 1369.72 1536.44 Q1365.36 1536.44 1363.17 1537.77 Q1361 1539.11 1361 1541.79 Q1361 1543.82 1362.56 1545 Q1364.12 1546.15 1368.83 1547.2 L1370.84 1547.64 Q1377.07 1548.98 1379.68 1551.43 Q1382.33 1553.85 1382.33 1558.21 Q1382.33 1563.17 1378.38 1566.07 Q1374.46 1568.97 1367.59 1568.97 Q1364.73 1568.97 1361.61 1568.39 Q1358.52 1567.85 1355.08 1566.74 L1355.08 1560.69 Q1358.33 1562.38 1361.48 1563.24 Q1364.63 1564.07 1367.72 1564.07 Q1371.85 1564.07 1374.08 1562.66 Q1376.31 1561.23 1376.31 1558.65 Q1376.31 1556.27 1374.69 1554.99 Q1373.1 1553.72 1367.65 1552.54 L1365.62 1552.07 Q1360.17 1550.92 1357.75 1548.56 Q1355.34 1546.18 1355.34 1542.04 Q1355.34 1537.01 1358.9 1534.27 Q1362.47 1531.54 1369.02 1531.54 Q1372.27 1531.54 1375.13 1532.01 Q1378 1532.49 1380.42 1533.45 Z" fill="#000000" fill-rule="nonzero" fill-opacity="1" /><path clip-path="url(#clip660)" d="M1390.73 1518.58 L1395.82 1518.58 Q1400.6 1526.09 1402.95 1533.29 Q1405.34 1540.48 1405.34 1547.58 Q1405.34 1554.71 1402.95 1561.93 Q1400.6 1569.16 1395.82 1576.64 L1390.73 1576.64 Q1394.96 1569.35 1397.03 1562.16 Q1399.13 1554.93 1399.13 1547.58 Q1399.13 1540.23 1397.03 1533.06 Q1394.96 1525.9 1390.73 1518.58 Z" fill="#000000" fill-rule="nonzero" fill-opacity="1" /><polyline clip-path="url(#clip660)" style="stroke:#000000; stroke-linecap:round; stroke-linejoin:round; stroke-width:4; stroke-opacity:1; fill:none" points="212.459,1423.18 212.459,123.472 "/>
<polyline clip-path="url(#clip660)" style="stroke:#000000; stroke-linecap:round; stroke-linejoin:round; stroke-width:4; stroke-opacity:1; fill:none" points="212.459,1334.09 231.357,1334.09 "/>
<polyline clip-path="url(#clip660)" style="stroke:#000000; stroke-linecap:round; stroke-linejoin:round; stroke-width:4; stroke-opacity:1; fill:none" points="212.459,1154.22 231.357,1154.22 "/>
<polyline clip-path="url(#clip660)" style="stroke:#000000; stroke-linecap:round; stroke-linejoin:round; stroke-width:4; stroke-opacity:1; fill:none" points="212.459,974.344 231.357,974.344 "/>
<polyline clip-path="url(#clip660)" style="stroke:#000000; stroke-linecap:round; stroke-linejoin:round; stroke-width:4; stroke-opacity:1; fill:none" points="212.459,794.472 231.357,794.472 "/>
<polyline clip-path="url(#clip660)" style="stroke:#000000; stroke-linecap:round; stroke-linejoin:round; stroke-width:4; stroke-opacity:1; fill:none" points="212.459,614.601 231.357,614.601 "/>
<polyline clip-path="url(#clip660)" style="stroke:#000000; stroke-linecap:round; stroke-linejoin:round; stroke-width:4; stroke-opacity:1; fill:none" points="212.459,434.729 231.357,434.729 "/>
<polyline clip-path="url(#clip660)" style="stroke:#000000; stroke-linecap:round; stroke-linejoin:round; stroke-width:4; stroke-opacity:1; fill:none" points="212.459,254.858 231.357,254.858 "/>
<path clip-path="url(#clip660)" d="M114.26 1334.54 L143.936 1334.54 L143.936 1338.47 L114.26 1338.47 L114.26 1334.54 Z" fill="#000000" fill-rule="nonzero" fill-opacity="1" /><path clip-path="url(#clip660)" d="M166.876 1320.88 L155.07 1339.33 L166.876 1339.33 L166.876 1320.88 M165.649 1316.81 L171.528 1316.81 L171.528 1339.33 L176.459 1339.33 L176.459 1343.22 L171.528 1343.22 L171.528 1351.37 L166.876 1351.37 L166.876 1343.22 L151.274 1343.22 L151.274 1338.71 L165.649 1316.81 Z" fill="#000000" fill-rule="nonzero" fill-opacity="1" /><path clip-path="url(#clip660)" d="M115.394 1154.67 L145.07 1154.67 L145.07 1158.6 L115.394 1158.6 L115.394 1154.67 Z" fill="#000000" fill-rule="nonzero" fill-opacity="1" /><path clip-path="url(#clip660)" d="M169.329 1152.86 Q172.686 1153.58 174.561 1155.85 Q176.459 1158.12 176.459 1161.45 Q176.459 1166.57 172.94 1169.37 Q169.422 1172.17 162.94 1172.17 Q160.765 1172.17 158.45 1171.73 Q156.158 1171.31 153.704 1170.45 L153.704 1165.94 Q155.649 1167.07 157.964 1167.65 Q160.278 1168.23 162.802 1168.23 Q167.2 1168.23 169.491 1166.5 Q171.806 1164.76 171.806 1161.45 Q171.806 1158.39 169.653 1156.68 Q167.524 1154.94 163.704 1154.94 L159.677 1154.94 L159.677 1151.1 L163.89 1151.1 Q167.339 1151.1 169.167 1149.74 Q170.996 1148.35 170.996 1145.76 Q170.996 1143.09 169.098 1141.68 Q167.223 1140.25 163.704 1140.25 Q161.783 1140.25 159.584 1140.66 Q157.385 1141.08 154.746 1141.96 L154.746 1137.79 Q157.408 1137.05 159.723 1136.68 Q162.061 1136.31 164.121 1136.31 Q169.445 1136.31 172.547 1138.74 Q175.649 1141.15 175.649 1145.27 Q175.649 1148.14 174.005 1150.13 Q172.362 1152.1 169.329 1152.86 Z" fill="#000000" fill-rule="nonzero" fill-opacity="1" /><path clip-path="url(#clip660)" d="M116.343 974.795 L146.019 974.795 L146.019 978.731 L116.343 978.731 L116.343 974.795 Z" fill="#000000" fill-rule="nonzero" fill-opacity="1" /><path clip-path="url(#clip660)" d="M160.14 987.689 L176.459 987.689 L176.459 991.624 L154.515 991.624 L154.515 987.689 Q157.177 984.934 161.76 980.305 Q166.366 975.652 167.547 974.309 Q169.792 971.786 170.672 970.05 Q171.575 968.291 171.575 966.601 Q171.575 963.846 169.63 962.11 Q167.709 960.374 164.607 960.374 Q162.408 960.374 159.954 961.138 Q157.524 961.902 154.746 963.453 L154.746 958.731 Q157.57 957.596 160.024 957.018 Q162.477 956.439 164.515 956.439 Q169.885 956.439 173.079 959.124 Q176.274 961.809 176.274 966.3 Q176.274 968.43 175.464 970.351 Q174.677 972.249 172.57 974.842 Q171.991 975.513 168.889 978.731 Q165.788 981.925 160.14 987.689 Z" fill="#000000" fill-rule="nonzero" fill-opacity="1" /><path clip-path="url(#clip660)" d="M115.973 794.924 L145.649 794.924 L145.649 798.859 L115.973 798.859 L115.973 794.924 Z" fill="#000000" fill-rule="nonzero" fill-opacity="1" /><path clip-path="url(#clip660)" d="M156.552 807.817 L164.19 807.817 L164.19 781.452 L155.88 783.118 L155.88 778.859 L164.144 777.192 L168.82 777.192 L168.82 807.817 L176.459 807.817 L176.459 811.752 L156.552 811.752 L156.552 807.817 Z" fill="#000000" fill-rule="nonzero" fill-opacity="1" /><path clip-path="url(#clip660)" d="M164.515 600.399 Q160.903 600.399 159.075 603.964 Q157.269 607.506 157.269 614.636 Q157.269 621.742 159.075 625.307 Q160.903 628.848 164.515 628.848 Q168.149 628.848 169.954 625.307 Q171.783 621.742 171.783 614.636 Q171.783 607.506 169.954 603.964 Q168.149 600.399 164.515 600.399 M164.515 596.696 Q170.325 596.696 173.38 601.302 Q176.459 605.886 176.459 614.636 Q176.459 623.362 173.38 627.969 Q170.325 632.552 164.515 632.552 Q158.704 632.552 155.626 627.969 Q152.57 623.362 152.57 614.636 Q152.57 605.886 155.626 601.302 Q158.704 596.696 164.515 596.696 Z" fill="#000000" fill-rule="nonzero" fill-opacity="1" /><path clip-path="url(#clip660)" d="M156.552 448.074 L164.19 448.074 L164.19 421.708 L155.88 423.375 L155.88 419.116 L164.144 417.449 L168.82 417.449 L168.82 448.074 L176.459 448.074 L176.459 452.009 L156.552 452.009 L156.552 448.074 Z" fill="#000000" fill-rule="nonzero" fill-opacity="1" /><path clip-path="url(#clip660)" d="M160.14 268.202 L176.459 268.202 L176.459 272.138 L154.515 272.138 L154.515 268.202 Q157.177 265.448 161.76 260.818 Q166.366 256.165 167.547 254.823 Q169.792 252.3 170.672 250.564 Q171.575 248.804 171.575 247.115 Q171.575 244.36 169.63 242.624 Q167.709 240.888 164.607 240.888 Q162.408 240.888 159.954 241.652 Q157.524 242.415 154.746 243.966 L154.746 239.244 Q157.57 238.11 160.024 237.531 Q162.477 236.953 164.515 236.953 Q169.885 236.953 173.079 239.638 Q176.274 242.323 176.274 246.814 Q176.274 248.943 175.464 250.865 Q174.677 252.763 172.57 255.355 Q171.991 256.027 168.889 259.244 Q165.788 262.439 160.14 268.202 Z" fill="#000000" fill-rule="nonzero" fill-opacity="1" /><path clip-path="url(#clip660)" d="M46.0847 1130.09 Q46.0847 1137.19 47.7079 1139.93 Q49.3312 1142.66 53.2461 1142.66 Q56.3653 1142.66 58.2114 1140.63 Q60.0256 1138.56 60.0256 1135.03 Q60.0256 1130.16 56.5881 1127.23 Q53.1188 1124.27 47.3897 1124.27 L46.0847 1124.27 L46.0847 1130.09 M43.6657 1118.41 L64.0042 1118.41 L64.0042 1124.27 L58.5933 1124.27 Q61.8398 1126.27 63.3994 1129.26 Q64.9272 1132.26 64.9272 1136.59 Q64.9272 1142.06 61.8716 1145.31 Q58.7843 1148.52 53.6281 1148.52 Q47.6125 1148.52 44.5569 1144.51 Q41.5014 1140.47 41.5014 1132.48 L41.5014 1124.27 L40.9285 1124.27 Q36.8862 1124.27 34.6901 1126.94 Q32.4621 1129.58 32.4621 1134.39 Q32.4621 1137.44 33.1941 1140.34 Q33.9262 1143.24 35.3903 1145.91 L29.9795 1145.91 Q28.7381 1142.7 28.1334 1139.67 Q27.4968 1136.65 27.4968 1133.78 Q27.4968 1126.05 31.5072 1122.23 Q35.5176 1118.41 43.6657 1118.41 Z" fill="#000000" fill-rule="nonzero" fill-opacity="1" /><path clip-path="url(#clip660)" d="M42.4881 1076.72 L64.0042 1076.72 L64.0042 1082.57 L42.679 1082.57 Q37.6183 1082.57 35.1038 1084.55 Q32.5894 1086.52 32.5894 1090.47 Q32.5894 1095.21 35.6131 1097.95 Q38.6368 1100.68 43.8567 1100.68 L64.0042 1100.68 L64.0042 1106.57 L28.3562 1106.57 L28.3562 1100.68 L33.8944 1100.68 Q30.6797 1098.58 29.0883 1095.75 Q27.4968 1092.88 27.4968 1089.16 Q27.4968 1083.02 31.3163 1079.87 Q35.1038 1076.72 42.4881 1076.72 Z" fill="#000000" fill-rule="nonzero" fill-opacity="1" /><path clip-path="url(#clip660)" d="M45.7664 1041.58 Q39.4007 1041.58 35.8996 1044.22 Q32.3984 1046.83 32.3984 1051.57 Q32.3984 1056.28 35.8996 1058.92 Q39.4007 1061.53 45.7664 1061.53 Q52.1003 1061.53 55.6014 1058.92 Q59.1026 1056.28 59.1026 1051.57 Q59.1026 1046.83 55.6014 1044.22 Q52.1003 1041.58 45.7664 1041.58 M59.58 1035.72 Q68.683 1035.72 73.1071 1039.76 Q77.5631 1043.8 77.5631 1052.14 Q77.5631 1055.23 77.0857 1057.97 Q76.6401 1060.71 75.6852 1063.28 L69.9879 1063.28 Q71.3884 1060.71 72.0568 1058.19 Q72.7252 1055.68 72.7252 1053.07 Q72.7252 1047.31 69.7015 1044.44 Q66.7096 1041.58 60.6303 1041.58 L57.7339 1041.58 Q60.885 1043.39 62.4446 1046.22 Q64.0042 1049.06 64.0042 1053 Q64.0042 1059.56 59.0071 1063.57 Q54.01 1067.58 45.7664 1067.58 Q37.491 1067.58 32.4939 1063.57 Q27.4968 1059.56 27.4968 1053 Q27.4968 1049.06 29.0564 1046.22 Q30.616 1043.39 33.7671 1041.58 L28.3562 1041.58 L28.3562 1035.72 L59.58 1035.72 Z" fill="#000000" fill-rule="nonzero" fill-opacity="1" /><path clip-path="url(#clip660)" d="M49.9359 1024.26 L28.3562 1024.26 L28.3562 1018.41 L49.7131 1018.41 Q54.7739 1018.41 57.3202 1016.43 Q59.8346 1014.46 59.8346 1010.51 Q59.8346 1005.77 56.8109 1003.03 Q53.7872 1000.26 48.5673 1000.26 L28.3562 1000.26 L28.3562 994.407 L64.0042 994.407 L64.0042 1000.26 L58.5296 1000.26 Q61.7762 1002.4 63.3676 1005.23 Q64.9272 1008.03 64.9272 1011.75 Q64.9272 1017.9 61.1078 1021.08 Q57.2883 1024.26 49.9359 1024.26 M27.4968 1009.53 L27.4968 1009.53 Z" fill="#000000" fill-rule="nonzero" fill-opacity="1" /><path clip-path="url(#clip660)" d="M14.479 982.344 L14.479 976.488 L64.0042 976.488 L64.0042 982.344 L14.479 982.344 Z" fill="#000000" fill-rule="nonzero" fill-opacity="1" /><path clip-path="url(#clip660)" d="M46.0847 948.033 Q46.0847 955.131 47.7079 957.868 Q49.3312 960.605 53.2461 960.605 Q56.3653 960.605 58.2114 958.568 Q60.0256 956.499 60.0256 952.966 Q60.0256 948.096 56.5881 945.168 Q53.1188 942.208 47.3897 942.208 L46.0847 942.208 L46.0847 948.033 M43.6657 936.352 L64.0042 936.352 L64.0042 942.208 L58.5933 942.208 Q61.8398 944.213 63.3994 947.205 Q64.9272 950.197 64.9272 954.526 Q64.9272 960 61.8716 963.247 Q58.7843 966.462 53.6281 966.462 Q47.6125 966.462 44.5569 962.451 Q41.5014 958.409 41.5014 950.42 L41.5014 942.208 L40.9285 942.208 Q36.8862 942.208 34.6901 944.882 Q32.4621 947.524 32.4621 952.33 Q32.4621 955.385 33.1941 958.282 Q33.9262 961.178 35.3903 963.852 L29.9795 963.852 Q28.7381 960.637 28.1334 957.613 Q27.4968 954.589 27.4968 951.725 Q27.4968 943.991 31.5072 940.171 Q35.5176 936.352 43.6657 936.352 Z" fill="#000000" fill-rule="nonzero" fill-opacity="1" /><path clip-path="url(#clip660)" d="M33.8307 903.632 Q33.2578 904.619 33.0032 905.796 Q32.7167 906.942 32.7167 908.343 Q32.7167 913.308 35.9632 915.981 Q39.1779 918.623 45.2253 918.623 L64.0042 918.623 L64.0042 924.512 L28.3562 924.512 L28.3562 918.623 L33.8944 918.623 Q30.6479 916.777 29.0883 913.817 Q27.4968 910.857 27.4968 906.624 Q27.4968 906.019 27.5923 905.287 Q27.656 904.555 27.8151 903.664 L33.8307 903.632 Z" fill="#000000" fill-rule="nonzero" fill-opacity="1" /><path clip-path="url(#clip660)" d="M28.3562 880.97 L28.3562 874.764 L58.275 863.624 L28.3562 852.484 L28.3562 846.277 L64.0042 859.645 L64.0042 867.602 L28.3562 880.97 Z" fill="#000000" fill-rule="nonzero" fill-opacity="1" /><path clip-path="url(#clip660)" d="M44.7161 807.701 L47.5806 807.701 L47.5806 834.628 Q53.6281 834.246 56.8109 830.999 Q59.9619 827.721 59.9619 821.896 Q59.9619 818.523 59.1344 815.371 Q58.3069 812.189 56.6518 809.069 L62.1899 809.069 Q63.5267 812.22 64.227 815.531 Q64.9272 818.841 64.9272 822.246 Q64.9272 830.776 59.9619 835.774 Q54.9967 840.739 46.5303 840.739 Q37.7774 840.739 32.6531 836.028 Q27.4968 831.286 27.4968 823.265 Q27.4968 816.072 32.1438 811.902 Q36.7589 807.701 44.7161 807.701 M42.9973 813.557 Q38.1912 813.621 35.3266 816.263 Q32.4621 818.873 32.4621 823.201 Q32.4621 828.103 35.2312 831.063 Q38.0002 833.991 43.0292 834.437 L42.9973 813.557 Z" fill="#000000" fill-rule="nonzero" fill-opacity="1" /><path clip-path="url(#clip660)" d="M14.479 798.089 L14.479 792.232 L64.0042 792.232 L64.0042 798.089 L14.479 798.089 Z" fill="#000000" fill-rule="nonzero" fill-opacity="1" /><path clip-path="url(#clip660)" d="M32.4621 766.165 Q32.4621 770.875 36.1542 773.612 Q39.8145 776.35 46.212 776.35 Q52.6095 776.35 56.3017 773.644 Q59.9619 770.907 59.9619 766.165 Q59.9619 761.486 56.2698 758.749 Q52.5777 756.011 46.212 756.011 Q39.8781 756.011 36.186 758.749 Q32.4621 761.486 32.4621 766.165 M27.4968 766.165 Q27.4968 758.526 32.4621 754.165 Q37.4273 749.805 46.212 749.805 Q54.9649 749.805 59.9619 754.165 Q64.9272 758.526 64.9272 766.165 Q64.9272 773.835 59.9619 778.196 Q54.9649 782.524 46.212 782.524 Q37.4273 782.524 32.4621 778.196 Q27.4968 773.835 27.4968 766.165 Z" fill="#000000" fill-rule="nonzero" fill-opacity="1" /><path clip-path="url(#clip660)" d="M29.7248 714.443 L35.1993 714.443 Q33.8307 716.926 33.1623 719.44 Q32.4621 721.923 32.4621 724.469 Q32.4621 730.166 36.0905 733.318 Q39.6872 736.469 46.212 736.469 Q52.7369 736.469 56.3653 733.318 Q59.9619 730.166 59.9619 724.469 Q59.9619 721.923 59.2935 719.44 Q58.5933 716.926 57.2247 714.443 L62.6355 714.443 Q63.7814 716.894 64.3543 719.536 Q64.9272 722.146 64.9272 725.106 Q64.9272 733.158 59.8664 737.901 Q54.8057 742.643 46.212 742.643 Q37.491 742.643 32.4939 737.869 Q27.4968 733.063 27.4968 724.724 Q27.4968 722.018 28.0697 719.44 Q28.6108 716.862 29.7248 714.443 Z" fill="#000000" fill-rule="nonzero" fill-opacity="1" /><path clip-path="url(#clip660)" d="M28.3562 704.258 L28.3562 698.402 L64.0042 698.402 L64.0042 704.258 L28.3562 704.258 M14.479 704.258 L14.479 698.402 L21.895 698.402 L21.895 704.258 L14.479 704.258 Z" fill="#000000" fill-rule="nonzero" fill-opacity="1" /><path clip-path="url(#clip660)" d="M18.2347 680.355 L28.3562 680.355 L28.3562 668.292 L32.9077 668.292 L32.9077 680.355 L52.2594 680.355 Q56.6199 680.355 57.8613 679.177 Q59.1026 677.968 59.1026 674.307 L59.1026 668.292 L64.0042 668.292 L64.0042 674.307 Q64.0042 681.087 61.4897 683.665 Q58.9434 686.243 52.2594 686.243 L32.9077 686.243 L32.9077 690.54 L28.3562 690.54 L28.3562 686.243 L18.2347 686.243 L18.2347 680.355 Z" fill="#000000" fill-rule="nonzero" fill-opacity="1" /><path clip-path="url(#clip660)" d="M67.3143 645.757 Q73.68 648.24 75.6216 650.595 Q77.5631 652.95 77.5631 656.897 L77.5631 661.576 L72.6615 661.576 L72.6615 658.139 Q72.6615 655.72 71.5157 654.383 Q70.3699 653.046 66.1048 651.423 L63.4312 650.372 L28.3562 664.791 L28.3562 658.584 L56.238 647.444 L28.3562 636.304 L28.3562 630.098 L67.3143 645.757 Z" fill="#000000" fill-rule="nonzero" fill-opacity="1" /><path clip-path="url(#clip660)" d="M14.5426 587.225 Q21.8632 591.49 29.0246 593.558 Q36.186 595.627 43.5384 595.627 Q50.8908 595.627 58.1159 593.558 Q65.3091 591.458 72.5979 587.225 L72.5979 592.317 Q65.1182 597.091 57.8931 599.479 Q50.668 601.834 43.5384 601.834 Q36.4406 601.834 29.2474 599.479 Q22.0542 597.123 14.5426 592.317 L14.5426 587.225 Z" fill="#000000" fill-rule="nonzero" fill-opacity="1" /><path clip-path="url(#clip660)" d="M33.8307 555.205 Q33.2578 556.192 33.0032 557.369 Q32.7167 558.515 32.7167 559.916 Q32.7167 564.881 35.9632 567.555 Q39.1779 570.196 45.2253 570.196 L64.0042 570.196 L64.0042 576.085 L28.3562 576.085 L28.3562 570.196 L33.8944 570.196 Q30.6479 568.35 29.0883 565.39 Q27.4968 562.43 27.4968 558.197 Q27.4968 557.592 27.5923 556.86 Q27.656 556.128 27.8151 555.237 L33.8307 555.205 Z" fill="#000000" fill-rule="nonzero" fill-opacity="1" /><path clip-path="url(#clip660)" d="M46.0847 532.861 Q46.0847 539.959 47.7079 542.696 Q49.3312 545.434 53.2461 545.434 Q56.3653 545.434 58.2114 543.397 Q60.0256 541.328 60.0256 537.795 Q60.0256 532.925 56.5881 529.997 Q53.1188 527.037 47.3897 527.037 L46.0847 527.037 L46.0847 532.861 M43.6657 521.18 L64.0042 521.18 L64.0042 527.037 L58.5933 527.037 Q61.8398 529.042 63.3994 532.034 Q64.9272 535.026 64.9272 539.354 Q64.9272 544.829 61.8716 548.075 Q58.7843 551.29 53.6281 551.29 Q47.6125 551.29 44.5569 547.28 Q41.5014 543.238 41.5014 535.249 L41.5014 527.037 L40.9285 527.037 Q36.8862 527.037 34.6901 529.71 Q32.4621 532.352 32.4621 537.158 Q32.4621 540.214 33.1941 543.11 Q33.9262 546.007 35.3903 548.68 L29.9795 548.68 Q28.7381 545.466 28.1334 542.442 Q27.4968 539.418 27.4968 536.554 Q27.4968 528.819 31.5072 525 Q35.5176 521.18 43.6657 521.18 Z" fill="#000000" fill-rule="nonzero" fill-opacity="1" /><path clip-path="url(#clip660)" d="M33.7671 485.66 L14.479 485.66 L14.479 479.803 L64.0042 479.803 L64.0042 485.66 L58.657 485.66 Q61.8398 487.506 63.3994 490.338 Q64.9272 493.139 64.9272 497.086 Q64.9272 503.547 59.771 507.621 Q54.6147 511.664 46.212 511.664 Q37.8093 511.664 32.6531 507.621 Q27.4968 503.547 27.4968 497.086 Q27.4968 493.139 29.0564 490.338 Q30.5842 487.506 33.7671 485.66 M46.212 505.616 Q52.6732 505.616 56.3653 502.974 Q60.0256 500.301 60.0256 495.654 Q60.0256 491.007 56.3653 488.333 Q52.6732 485.66 46.212 485.66 Q39.7508 485.66 36.0905 488.333 Q32.3984 491.007 32.3984 495.654 Q32.3984 500.301 36.0905 502.974 Q39.7508 505.616 46.212 505.616 Z" fill="#000000" fill-rule="nonzero" fill-opacity="1" /><path clip-path="url(#clip660)" d="M16.4842 457.332 L16.4842 451.921 L70.0516 468.472 L70.0516 473.883 L16.4842 457.332 Z" fill="#000000" fill-rule="nonzero" fill-opacity="1" /><path clip-path="url(#clip660)" d="M29.4065 423.053 L34.9447 423.053 Q33.6716 425.536 33.035 428.209 Q32.3984 430.883 32.3984 433.747 Q32.3984 438.108 33.7352 440.304 Q35.072 442.468 37.7456 442.468 Q39.7826 442.468 40.9603 440.909 Q42.1061 439.349 43.1565 434.639 L43.6021 432.633 Q44.9389 426.395 47.3897 423.785 Q49.8086 421.143 54.1691 421.143 Q59.1344 421.143 62.0308 425.09 Q64.9272 429.005 64.9272 435.88 Q64.9272 438.744 64.3543 441.864 Q63.8132 444.951 62.6992 448.388 L56.6518 448.388 Q58.3387 445.142 59.198 441.991 Q60.0256 438.84 60.0256 435.753 Q60.0256 431.615 58.6251 429.387 Q57.1929 427.159 54.6147 427.159 Q52.2276 427.159 50.9545 428.782 Q49.6813 430.374 48.5037 435.816 L48.0262 437.853 Q46.8804 443.296 44.5251 445.715 Q42.138 448.134 38.0002 448.134 Q32.9713 448.134 30.2341 444.569 Q27.4968 441.004 27.4968 434.448 Q27.4968 431.201 27.9743 428.337 Q28.4517 425.472 29.4065 423.053 Z" fill="#000000" fill-rule="nonzero" fill-opacity="1" /><path clip-path="url(#clip660)" d="M14.5426 412.741 L14.5426 407.648 Q22.0542 402.874 29.2474 400.518 Q36.4406 398.131 43.5384 398.131 Q50.668 398.131 57.8931 400.518 Q65.1182 402.874 72.5979 407.648 L72.5979 412.741 Q65.3091 408.507 58.1159 406.438 Q50.8908 404.338 43.5384 404.338 Q36.186 404.338 29.0246 406.438 Q21.8632 408.507 14.5426 412.741 Z" fill="#000000" fill-rule="nonzero" fill-opacity="1" /><path clip-path="url(#clip660)" d="M974.678 20.1573 L963.578 50.2555 L985.818 50.2555 L974.678 20.1573 M970.06 12.096 L979.336 12.096 L1002.39 72.576 L993.879 72.576 L988.37 57.061 L961.107 57.061 L955.598 72.576 L946.97 72.576 L970.06 12.096 Z" fill="#000000" fill-rule="nonzero" fill-opacity="1" /><path clip-path="url(#clip660)" d="M1048.61 45.1919 L1048.61 72.576 L1041.15 72.576 L1041.15 45.4349 Q1041.15 38.994 1038.64 35.7938 Q1036.13 32.5936 1031.11 32.5936 Q1025.07 32.5936 1021.59 36.4419 Q1018.1 40.2903 1018.1 46.9338 L1018.1 72.576 L1010.61 72.576 L1010.61 27.2059 L1018.1 27.2059 L1018.1 34.2544 Q1020.78 30.163 1024.38 28.1376 Q1028.03 26.1121 1032.77 26.1121 Q1040.59 26.1121 1044.6 30.9732 Q1048.61 35.7938 1048.61 45.1919 Z" fill="#000000" fill-rule="nonzero" fill-opacity="1" /><path clip-path="url(#clip660)" d="M1093.33 49.3643 Q1093.33 41.2625 1089.97 36.8065 Q1086.64 32.3505 1080.61 32.3505 Q1074.61 32.3505 1071.25 36.8065 Q1067.93 41.2625 1067.93 49.3643 Q1067.93 57.4256 1071.25 61.8816 Q1074.61 66.3376 1080.61 66.3376 Q1086.64 66.3376 1089.97 61.8816 Q1093.33 57.4256 1093.33 49.3643 M1100.78 66.9452 Q1100.78 78.5308 1095.64 84.1616 Q1090.49 89.8329 1079.88 89.8329 Q1075.95 89.8329 1072.47 89.2252 Q1068.98 88.6581 1065.7 87.4428 L1065.7 80.1917 Q1068.98 81.9741 1072.18 82.8248 Q1075.38 83.6755 1078.71 83.6755 Q1086.04 83.6755 1089.68 79.8271 Q1093.33 76.0193 1093.33 68.282 L1093.33 64.5957 Q1091.02 68.6061 1087.41 70.5911 Q1083.81 72.576 1078.79 72.576 Q1070.44 72.576 1065.34 66.2161 Q1060.23 59.8562 1060.23 49.3643 Q1060.23 38.832 1065.34 32.472 Q1070.44 26.1121 1078.79 26.1121 Q1083.81 26.1121 1087.41 28.0971 Q1091.02 30.082 1093.33 34.0924 L1093.33 27.2059 L1100.78 27.2059 L1100.78 66.9452 Z" fill="#000000" fill-rule="nonzero" fill-opacity="1" /><path clip-path="url(#clip660)" d="M1115.37 54.671 L1115.37 27.2059 L1122.82 27.2059 L1122.82 54.3874 Q1122.82 60.8284 1125.33 64.0691 Q1127.84 67.2693 1132.87 67.2693 Q1138.9 67.2693 1142.39 63.421 Q1145.91 59.5726 1145.91 52.9291 L1145.91 27.2059 L1153.36 27.2059 L1153.36 72.576 L1145.91 72.576 L1145.91 65.6084 Q1143.2 69.7404 1139.59 71.7658 Q1136.03 73.7508 1131.29 73.7508 Q1123.47 73.7508 1119.42 68.8897 Q1115.37 64.0286 1115.37 54.671 M1134.12 26.1121 L1134.12 26.1121 Z" fill="#000000" fill-rule="nonzero" fill-opacity="1" /><path clip-path="url(#clip660)" d="M1168.72 9.54393 L1176.17 9.54393 L1176.17 72.576 L1168.72 72.576 L1168.72 9.54393 Z" fill="#000000" fill-rule="nonzero" fill-opacity="1" /><path clip-path="url(#clip660)" d="M1212.38 49.7694 Q1203.35 49.7694 1199.87 51.8354 Q1196.38 53.9013 1196.38 58.8839 Q1196.38 62.8538 1198.98 65.2034 Q1201.61 67.5124 1206.11 67.5124 Q1212.3 67.5124 1216.03 63.1374 Q1219.8 58.7219 1219.8 51.4303 L1219.8 49.7694 L1212.38 49.7694 M1227.25 46.6907 L1227.25 72.576 L1219.8 72.576 L1219.8 65.6895 Q1217.25 69.8214 1213.44 71.8063 Q1209.63 73.7508 1204.12 73.7508 Q1197.15 73.7508 1193.02 69.8619 Q1188.93 65.9325 1188.93 59.3701 Q1188.93 51.7138 1194.03 47.825 Q1199.18 43.9361 1209.35 43.9361 L1219.8 43.9361 L1219.8 43.2069 Q1219.8 38.0623 1216.4 35.2672 Q1213.03 32.4315 1206.92 32.4315 Q1203.03 32.4315 1199.34 33.3632 Q1195.65 34.295 1192.25 36.1584 L1192.25 29.2718 Q1196.34 27.692 1200.19 26.9223 Q1204.04 26.1121 1207.69 26.1121 Q1217.53 26.1121 1222.39 31.2163 Q1227.25 36.3204 1227.25 46.6907 Z" fill="#000000" fill-rule="nonzero" fill-opacity="1" /><path clip-path="url(#clip660)" d="M1268.9 34.1734 Q1267.64 33.4443 1266.14 33.1202 Q1264.68 32.7556 1262.9 32.7556 Q1256.58 32.7556 1253.18 36.8875 Q1249.82 40.9789 1249.82 48.6757 L1249.82 72.576 L1242.32 72.576 L1242.32 27.2059 L1249.82 27.2059 L1249.82 34.2544 Q1252.16 30.1225 1255.93 28.1376 Q1259.7 26.1121 1265.09 26.1121 Q1265.86 26.1121 1266.79 26.2337 Q1267.72 26.3147 1268.85 26.5172 L1268.9 34.1734 Z" fill="#000000" fill-rule="nonzero" fill-opacity="1" /><path clip-path="url(#clip660)" d="M1319 72.576 L1295.91 12.096 L1304.46 12.096 L1323.62 63.0159 L1342.82 12.096 L1351.33 12.096 L1328.28 72.576 L1319 72.576 Z" fill="#000000" fill-rule="nonzero" fill-opacity="1" /><path clip-path="url(#clip660)" d="M1392.2 48.0275 L1392.2 51.6733 L1357.93 51.6733 Q1358.42 59.3701 1362.55 63.421 Q1366.72 67.4314 1374.14 67.4314 Q1378.43 67.4314 1382.44 66.3781 Q1386.49 65.3249 1390.46 63.2184 L1390.46 70.267 Q1386.45 71.9684 1382.24 72.8596 Q1378.03 73.7508 1373.69 73.7508 Q1362.84 73.7508 1356.48 67.4314 Q1350.16 61.1119 1350.16 50.3365 Q1350.16 39.1965 1356.15 32.6746 Q1362.19 26.1121 1372.4 26.1121 Q1381.55 26.1121 1386.86 32.0264 Q1392.2 37.9003 1392.2 48.0275 M1384.75 45.84 Q1384.67 39.7232 1381.31 36.0774 Q1377.99 32.4315 1372.48 32.4315 Q1366.24 32.4315 1362.47 35.9558 Q1358.74 39.4801 1358.18 45.8805 L1384.75 45.84 Z" fill="#000000" fill-rule="nonzero" fill-opacity="1" /><path clip-path="url(#clip660)" d="M1404.44 9.54393 L1411.89 9.54393 L1411.89 72.576 L1404.44 72.576 L1404.44 9.54393 Z" fill="#000000" fill-rule="nonzero" fill-opacity="1" /><path clip-path="url(#clip660)" d="M1445.07 32.4315 Q1439.07 32.4315 1435.59 37.1306 Q1432.11 41.7891 1432.11 49.9314 Q1432.11 58.0738 1435.55 62.7728 Q1439.03 67.4314 1445.07 67.4314 Q1451.02 67.4314 1454.51 62.7323 Q1457.99 58.0333 1457.99 49.9314 Q1457.99 41.8701 1454.51 37.1711 Q1451.02 32.4315 1445.07 32.4315 M1445.07 26.1121 Q1454.79 26.1121 1460.34 32.4315 Q1465.89 38.7509 1465.89 49.9314 Q1465.89 61.0714 1460.34 67.4314 Q1454.79 73.7508 1445.07 73.7508 Q1435.31 73.7508 1429.76 67.4314 Q1424.25 61.0714 1424.25 49.9314 Q1424.25 38.7509 1429.76 32.4315 Q1435.31 26.1121 1445.07 26.1121 Z" fill="#000000" fill-rule="nonzero" fill-opacity="1" /><path clip-path="url(#clip660)" d="M1510.9 28.9478 L1510.9 35.9153 Q1507.74 34.1734 1504.54 33.3227 Q1501.38 32.4315 1498.14 32.4315 Q1490.88 32.4315 1486.87 37.0496 Q1482.86 41.6271 1482.86 49.9314 Q1482.86 58.2358 1486.87 62.8538 Q1490.88 67.4314 1498.14 67.4314 Q1501.38 67.4314 1504.54 66.5807 Q1507.74 65.6895 1510.9 63.9476 L1510.9 70.8341 Q1507.78 72.2924 1504.41 73.0216 Q1501.09 73.7508 1497.33 73.7508 Q1487.08 73.7508 1481.04 67.3098 Q1475.01 60.8689 1475.01 49.9314 Q1475.01 38.832 1481.08 32.472 Q1487.2 26.1121 1497.81 26.1121 Q1501.25 26.1121 1504.54 26.8413 Q1507.82 27.5299 1510.9 28.9478 Z" fill="#000000" fill-rule="nonzero" fill-opacity="1" /><path clip-path="url(#clip660)" d="M1523.86 27.2059 L1531.31 27.2059 L1531.31 72.576 L1523.86 72.576 L1523.86 27.2059 M1523.86 9.54393 L1531.31 9.54393 L1531.31 18.9825 L1523.86 18.9825 L1523.86 9.54393 Z" fill="#000000" fill-rule="nonzero" fill-opacity="1" /><path clip-path="url(#clip660)" d="M1554.28 14.324 L1554.28 27.2059 L1569.63 27.2059 L1569.63 32.9987 L1554.28 32.9987 L1554.28 57.6282 Q1554.28 63.1779 1555.78 64.7578 Q1557.32 66.3376 1561.98 66.3376 L1569.63 66.3376 L1569.63 72.576 L1561.98 72.576 Q1553.35 72.576 1550.07 69.3758 Q1546.79 66.1351 1546.79 57.6282 L1546.79 32.9987 L1541.32 32.9987 L1541.32 27.2059 L1546.79 27.2059 L1546.79 14.324 L1554.28 14.324 Z" fill="#000000" fill-rule="nonzero" fill-opacity="1" /><path clip-path="url(#clip660)" d="M1598.31 76.7889 Q1595.15 84.8907 1592.16 87.3618 Q1589.16 89.8329 1584.14 89.8329 L1578.18 89.8329 L1578.18 83.5945 L1582.56 83.5945 Q1585.64 83.5945 1587.34 82.1361 Q1589.04 80.6778 1591.1 75.2496 L1592.44 71.8468 L1574.09 27.2059 L1581.99 27.2059 L1596.17 62.6918 L1610.35 27.2059 L1618.25 27.2059 L1598.31 76.7889 Z" fill="#000000" fill-rule="nonzero" fill-opacity="1" /><polyline clip-path="url(#clip662)" style="stroke:#009af9; stroke-linecap:round; stroke-linejoin:round; stroke-width:4; stroke-opacity:1; fill:none" points="273.033,614.601 293.225,1386.4 313.416,1324.11 333.608,1221.2 353.799,1113.09 373.991,1009.33 394.182,915.26 414.374,833.102 434.565,762.897 454.757,703.361 474.948,652.524 495.14,608.156 515.331,568.04 535.523,530.17 555.714,492.901 575.906,455.076 596.097,416.137 616.289,376.182 636.48,335.957 656.671,296.754 676.863,260.196 697.054,227.956 717.246,201.488 737.437,181.847 757.629,169.665 777.82,165.25 798.012,168.715 818.203,180.041 838.395,199.017 858.586,225.116 878.778,257.413 898.969,294.619 919.161,335.259 939.352,377.934 959.544,421.569 979.735,465.58 999.927,509.915 1020.12,554.984 1040.31,601.477 1060.5,650.118 1080.69,701.364 1100.88,755.09 1121.08,810.331 1141.27,865.174 1161.46,916.944 1181.65,962.722 1201.84,1000.1 1222.03,1027.85 1242.22,1046.1 1262.42,1055.91 1282.61,1058.36 1302.8,1053.77 1322.99,1041.49 1343.18,1020.32 1363.37,989.437 1383.56,949.127 1403.76,901.058 1423.95,847.872 1444.14,792.452 1464.33,737.225 1484.52,683.761 1504.71,632.702 1524.91,583.94 1545.1,536.905 1565.29,490.883 1585.48,445.313 1605.67,400.013 1625.86,355.324 1646.05,312.136 1666.25,271.781 1686.44,235.808 1706.63,205.697 1726.82,182.624 1747.01,167.348 1767.2,160.256 1787.39,161.504 1807.59,171.129 1827.78,189.04 1847.97,214.884 1868.16,247.874 1888.35,286.713 1908.54,329.673 1928.73,374.822 1948.93,420.3 1969.12,464.548 1989.31,506.423 2009.5,545.198 2029.69,580.47 2049.88,612.029 2070.08,639.728 2090.27,663.388 2110.46,682.75 2130.65,697.5 2150.84,707.326 2171.03,712.018 2191.22,711.565 2211.42,706.229 2231.61,696.593 2251.8,683.527 2271.99,667.189 2292.18,616.958 "/>
<polyline clip-path="url(#clip662)" style="stroke:#e26f46; stroke-linecap:round; stroke-linejoin:round; stroke-width:4; stroke-opacity:1; fill:none" points="273.033,614.601 293.225,797.25 313.416,789.807 333.608,775.113 353.799,759.495 373.991,743.883 394.182,729.163 414.374,716.066 434.565,705.084 454.757,696.486 474.948,690.355 495.14,686.63 515.331,685.139 535.523,685.607 555.714,687.677 575.906,690.913 596.097,694.817 616.289,698.851 636.48,702.479 656.671,705.212 676.863,706.662 697.054,706.585 717.246,704.882 737.437,701.58 757.629,696.782 777.82,690.615 798.012,683.212 818.203,674.72 838.395,665.32 858.586,655.242 878.778,644.737 898.969,634.018 919.161,623.18 939.352,612.141 959.544,600.606 979.735,588.075 999.927,573.89 1020.12,557.312 1040.31,537.632 1060.5,514.305 1080.69,487.113 1100.88,456.342 1121.08,422.917 1141.27,388.447 1161.46,355.071 1181.65,325.078 1201.84,300.365 1222.03,281.969 1242.22,269.939 1262.42,263.649 1282.61,262.413 1302.8,266.024 1322.99,274.895 1343.18,289.732 1363.37,310.915 1383.56,337.973 1403.76,369.442 1423.95,403.161 1444.14,436.808 1464.33,468.388 1484.52,496.532 1504.71,520.554 1524.91,540.361 1545.1,556.294 1565.29,568.965 1585.48,579.112 1605.67,587.486 1625.86,594.766 1646.05,601.495 1666.25,608.051 1686.44,614.632 1706.63,621.291 1726.82,627.979 1747.01,634.61 1767.2,641.099 1787.39,647.381 1807.59,653.402 1827.78,659.09 1847.97,664.354 1868.16,669.088 1888.35,673.216 1908.54,676.717 1928.73,679.655 1948.93,682.161 1969.12,684.409 1989.31,686.564 2009.5,688.739 2029.69,690.957 2049.88,693.13 2070.08,695.05 2090.27,696.409 2110.46,696.833 2130.65,695.929 2150.84,693.353 2171.03,688.866 2191.22,682.384 2211.42,674.011 2231.61,664.037 2251.8,652.914 2271.99,640.828 2292.18,615.645 "/>
<polyline clip-path="url(#clip662)" style="stroke:#3da44d; stroke-linecap:round; stroke-linejoin:round; stroke-width:4; stroke-opacity:1; fill:none" points="273.033,614.601 293.225,638.158 313.416,651.039 333.608,658.165 353.799,662.203 373.991,664.588 394.182,666.094 414.374,667.138 434.565,667.945 454.757,668.632 474.948,669.263 495.14,669.865 515.331,670.448 535.523,671.011 555.714,671.544 575.906,672.033 596.097,672.463 616.289,672.817 636.48,673.076 656.671,673.224 676.863,673.245 697.054,673.125 717.246,672.853 737.437,672.419 757.629,671.817 777.82,671.04 798.012,670.089 818.203,668.962 838.395,667.664 858.586,666.199 878.778,664.575 898.969,662.801 919.161,660.889 939.352,658.851 959.544,656.705 979.735,654.468 999.927,652.158 1020.12,649.793 1040.31,647.39 1060.5,644.966 1080.69,642.531 1100.88,640.096 1121.08,637.668 1141.27,635.251 1161.46,632.845 1181.65,630.449 1201.84,628.061 1222.03,625.677 1242.22,623.296 1262.42,620.917 1282.61,618.541 1302.8,616.172 1322.99,613.816 1343.18,611.476 1363.37,609.157 1383.56,606.858 1403.76,604.58 1423.95,602.322 1444.14,600.08 1464.33,597.856 1484.52,595.651 1504.71,593.472 1524.91,591.327 1545.1,589.229 1565.29,587.194 1585.48,585.239 1605.67,583.385 1625.86,581.65 1646.05,580.052 1666.25,578.609 1686.44,577.335 1706.63,576.243 1726.82,575.344 1747.01,574.645 1767.2,574.152 1787.39,573.867 1807.59,573.791 1827.78,573.919 1847.97,574.244 1868.16,574.757 1888.35,575.442 1908.54,576.286 1928.73,577.27 1948.93,578.375 1969.12,579.581 1989.31,580.87 2009.5,582.221 2029.69,583.619 2049.88,585.05 2070.08,586.501 2090.27,587.966 2110.46,589.441 2130.65,590.928 2150.84,592.435 2171.03,593.986 2191.22,595.627 2211.42,597.442 2231.61,599.591 2251.8,602.361 2271.99,606.283 2292.18,612.325 "/>
<path clip-path="url(#clip660)" d="M1980.46 1379.86 L2281.41 1379.86 L2281.41 1172.5 L1980.46 1172.5  Z" fill="#ffffff" fill-rule="evenodd" fill-opacity="1"/>
<polyline clip-path="url(#clip660)" style="stroke:#000000; stroke-linecap:round; stroke-linejoin:round; stroke-width:4; stroke-opacity:1; fill:none" points="1980.46,1379.86 2281.41,1379.86 2281.41,1172.5 1980.46,1172.5 1980.46,1379.86 "/>
<polyline clip-path="url(#clip660)" style="stroke:#009af9; stroke-linecap:round; stroke-linejoin:round; stroke-width:4; stroke-opacity:1; fill:none" points="2004.24,1224.34 2146.93,1224.34 "/>
<path clip-path="url(#clip660)" d="M2180.32 1242.29 Q2170.71 1242.29 2170.71 1228.54 Q2170.71 1223.1 2174.3 1215.69 L2178.88 1215.69 Q2175.57 1223.1 2175.57 1228.65 Q2175.57 1238.68 2180.71 1238.68 Q2185.41 1238.68 2185.41 1226.22 L2189.34 1226.22 Q2189.34 1238.68 2194.04 1238.68 Q2199.18 1238.68 2199.18 1228.65 Q2199.18 1223.1 2195.87 1215.69 L2200.46 1215.69 Q2204.04 1223.1 2204.04 1228.54 Q2204.04 1242.29 2194.44 1242.29 Q2188.14 1242.29 2187.38 1235.37 Q2186.43 1242.29 2180.32 1242.29 Z" fill="#000000" fill-rule="nonzero" fill-opacity="1" /><path clip-path="url(#clip660)" d="M2231.45 1249.49 L2231.45 1252.8 L2206.82 1252.8 L2206.82 1249.49 L2231.45 1249.49 Z" fill="#000000" fill-rule="nonzero" fill-opacity="1" /><path clip-path="url(#clip660)" d="M2257.01 1215.69 L2247.63 1228.31 L2257.49 1241.62 L2252.47 1241.62 L2244.92 1231.43 L2237.38 1241.62 L2232.35 1241.62 L2242.42 1228.05 L2233.21 1215.69 L2238.23 1215.69 L2245.11 1224.93 L2251.98 1215.69 L2257.01 1215.69 Z" fill="#000000" fill-rule="nonzero" fill-opacity="1" /><polyline clip-path="url(#clip660)" style="stroke:#e26f46; stroke-linecap:round; stroke-linejoin:round; stroke-width:4; stroke-opacity:1; fill:none" points="2004.24,1276.18 2146.93,1276.18 "/>
<path clip-path="url(#clip660)" d="M2180.32 1294.13 Q2170.71 1294.13 2170.71 1280.38 Q2170.71 1274.94 2174.3 1267.53 L2178.88 1267.53 Q2175.57 1274.94 2175.57 1280.49 Q2175.57 1290.52 2180.71 1290.52 Q2185.41 1290.52 2185.41 1278.06 L2189.34 1278.06 Q2189.34 1290.52 2194.04 1290.52 Q2199.18 1290.52 2199.18 1280.49 Q2199.18 1274.94 2195.87 1267.53 L2200.46 1267.53 Q2204.04 1274.94 2204.04 1280.38 Q2204.04 1294.13 2194.44 1294.13 Q2188.14 1294.13 2187.38 1287.21 Q2186.43 1294.13 2180.32 1294.13 Z" fill="#000000" fill-rule="nonzero" fill-opacity="1" /><path clip-path="url(#clip660)" d="M2231.45 1301.33 L2231.45 1304.64 L2206.82 1304.64 L2206.82 1301.33 L2231.45 1301.33 Z" fill="#000000" fill-rule="nonzero" fill-opacity="1" /><path clip-path="url(#clip660)" d="M2246.24 1295.86 Q2244.44 1300.49 2242.72 1301.91 Q2241.01 1303.32 2238.14 1303.32 L2234.74 1303.32 L2234.74 1299.75 L2237.24 1299.75 Q2239 1299.75 2239.97 1298.92 Q2240.94 1298.09 2242.12 1294.98 L2242.89 1293.04 L2232.4 1267.53 L2236.91 1267.53 L2245.02 1287.81 L2253.12 1267.53 L2257.63 1267.53 L2246.24 1295.86 Z" fill="#000000" fill-rule="nonzero" fill-opacity="1" /><polyline clip-path="url(#clip660)" style="stroke:#3da44d; stroke-linecap:round; stroke-linejoin:round; stroke-width:4; stroke-opacity:1; fill:none" points="2004.24,1328.02 2146.93,1328.02 "/>
<path clip-path="url(#clip660)" d="M2180.32 1345.97 Q2170.71 1345.97 2170.71 1332.22 Q2170.71 1326.78 2174.3 1319.37 L2178.88 1319.37 Q2175.57 1326.78 2175.57 1332.33 Q2175.57 1342.36 2180.71 1342.36 Q2185.41 1342.36 2185.41 1329.9 L2189.34 1329.9 Q2189.34 1342.36 2194.04 1342.36 Q2199.18 1342.36 2199.18 1332.33 Q2199.18 1326.78 2195.87 1319.37 L2200.46 1319.37 Q2204.04 1326.78 2204.04 1332.22 Q2204.04 1345.97 2194.44 1345.97 Q2188.14 1345.97 2187.38 1339.05 Q2186.43 1345.97 2180.32 1345.97 Z" fill="#000000" fill-rule="nonzero" fill-opacity="1" /><path clip-path="url(#clip660)" d="M2231.45 1353.17 L2231.45 1356.48 L2206.82 1356.48 L2206.82 1353.17 L2231.45 1353.17 Z" fill="#000000" fill-rule="nonzero" fill-opacity="1" /><path clip-path="url(#clip660)" d="M2233.6 1319.37 L2253.84 1319.37 L2253.84 1323.26 L2237.82 1341.89 L2253.84 1341.89 L2253.84 1345.3 L2233.03 1345.3 L2233.03 1341.41 L2249.04 1322.77 L2233.6 1322.77 L2233.6 1319.37 Z" fill="#000000" fill-rule="nonzero" fill-opacity="1" /></svg>
