<?xml version="1.0" encoding="utf-8"?>
<svg xmlns="http://www.w3.org/2000/svg" xmlns:xlink="http://www.w3.org/1999/xlink" width="600" height="400" viewBox="0 0 2400 1600">
<defs>
  <clipPath id="clip300">
    <rect x="0" y="0" width="2400" height="1600"/>
  </clipPath>
</defs>
<path clip-path="url(#clip300)" d="M0 1600 L2400 1600 L2400 0 L0 0  Z" fill="#ffffff" fill-rule="evenodd" fill-opacity="1"/>
<defs>
  <clipPath id="clip301">
    <rect x="480" y="0" width="1681" height="1600"/>
  </clipPath>
</defs>
<path clip-path="url(#clip300)" d="M219.033 1423.18 L2352.76 1423.18 L2352.76 123.472 L219.033 123.472  Z" fill="#ffffff" fill-rule="evenodd" fill-opacity="1"/>
<defs>
  <clipPath id="clip302">
    <rect x="219" y="123" width="2135" height="1301"/>
  </clipPath>
</defs>
<polyline clip-path="url(#clip302)" style="stroke:#000000; stroke-linecap:round; stroke-linejoin:round; stroke-width:2; stroke-opacity:0.1; fill:none" points="279.421,1423.18 279.421,123.472 "/>
<polyline clip-path="url(#clip302)" style="stroke:#000000; stroke-linecap:round; stroke-linejoin:round; stroke-width:2; stroke-opacity:0.1; fill:none" points="782.658,1423.18 782.658,123.472 "/>
<polyline clip-path="url(#clip302)" style="stroke:#000000; stroke-linecap:round; stroke-linejoin:round; stroke-width:2; stroke-opacity:0.1; fill:none" points="1285.89,1423.18 1285.89,123.472 "/>
<polyline clip-path="url(#clip302)" style="stroke:#000000; stroke-linecap:round; stroke-linejoin:round; stroke-width:2; stroke-opacity:0.1; fill:none" points="1789.13,1423.18 1789.13,123.472 "/>
<polyline clip-path="url(#clip302)" style="stroke:#000000; stroke-linecap:round; stroke-linejoin:round; stroke-width:2; stroke-opacity:0.1; fill:none" points="2292.37,1423.18 2292.37,123.472 "/>
<polyline clip-path="url(#clip302)" style="stroke:#000000; stroke-linecap:round; stroke-linejoin:round; stroke-width:2; stroke-opacity:0.1; fill:none" points="219.033,1386.4 2352.76,1386.4 "/>
<polyline clip-path="url(#clip302)" style="stroke:#000000; stroke-linecap:round; stroke-linejoin:round; stroke-width:2; stroke-opacity:0.1; fill:none" points="219.033,1182.04 2352.76,1182.04 "/>
<polyline clip-path="url(#clip302)" style="stroke:#000000; stroke-linecap:round; stroke-linejoin:round; stroke-width:2; stroke-opacity:0.1; fill:none" points="219.033,977.683 2352.76,977.683 "/>
<polyline clip-path="url(#clip302)" style="stroke:#000000; stroke-linecap:round; stroke-linejoin:round; stroke-width:2; stroke-opacity:0.1; fill:none" points="219.033,773.326 2352.76,773.326 "/>
<polyline clip-path="url(#clip302)" style="stroke:#000000; stroke-linecap:round; stroke-linejoin:round; stroke-width:2; stroke-opacity:0.1; fill:none" points="219.033,568.969 2352.76,568.969 "/>
<polyline clip-path="url(#clip302)" style="stroke:#000000; stroke-linecap:round; stroke-linejoin:round; stroke-width:2; stroke-opacity:0.1; fill:none" points="219.033,364.613 2352.76,364.613 "/>
<polyline clip-path="url(#clip302)" style="stroke:#000000; stroke-linecap:round; stroke-linejoin:round; stroke-width:2; stroke-opacity:0.1; fill:none" points="219.033,160.256 2352.76,160.256 "/>
<polyline clip-path="url(#clip300)" style="stroke:#000000; stroke-linecap:round; stroke-linejoin:round; stroke-width:4; stroke-opacity:1; fill:none" points="219.033,1423.18 2352.76,1423.18 "/>
<polyline clip-path="url(#clip300)" style="stroke:#000000; stroke-linecap:round; stroke-linejoin:round; stroke-width:4; stroke-opacity:1; fill:none" points="279.421,1423.18 279.421,1404.28 "/>
<polyline clip-path="url(#clip300)" style="stroke:#000000; stroke-linecap:round; stroke-linejoin:round; stroke-width:4; stroke-opacity:1; fill:none" points="782.658,1423.18 782.658,1404.28 "/>
<polyline clip-path="url(#clip300)" style="stroke:#000000; stroke-linecap:round; stroke-linejoin:round; stroke-width:4; stroke-opacity:1; fill:none" points="1285.89,1423.18 1285.89,1404.28 "/>
<polyline clip-path="url(#clip300)" style="stroke:#000000; stroke-linecap:round; stroke-linejoin:round; stroke-width:4; stroke-opacity:1; fill:none" points="1789.13,1423.18 1789.13,1404.28 "/>
<polyline clip-path="url(#clip300)" style="stroke:#000000; stroke-linecap:round; stroke-linejoin:round; stroke-width:4; stroke-opacity:1; fill:none" points="2292.37,1423.18 2292.37,1404.28 "/>
<path clip-path="url(#clip300)" d="M249.364 1468.75 L279.039 1468.75 L279.039 1472.69 L249.364 1472.69 L249.364 1468.75 Z" fill="#000000" fill-rule="nonzero" fill-opacity="1" /><path clip-path="url(#clip300)" d="M293.16 1481.64 L309.479 1481.64 L309.479 1485.58 L287.535 1485.58 L287.535 1481.64 Q290.197 1478.89 294.78 1474.26 Q299.386 1469.61 300.567 1468.27 Q302.812 1465.74 303.692 1464.01 Q304.595 1462.25 304.595 1460.56 Q304.595 1457.8 302.65 1456.07 Q300.729 1454.33 297.627 1454.33 Q295.428 1454.33 292.974 1455.09 Q290.544 1455.86 287.766 1457.41 L287.766 1452.69 Q290.59 1451.55 293.044 1450.97 Q295.498 1450.39 297.535 1450.39 Q302.905 1450.39 306.099 1453.08 Q309.294 1455.77 309.294 1460.26 Q309.294 1462.39 308.484 1464.31 Q307.697 1466.2 305.59 1468.8 Q305.011 1469.47 301.91 1472.69 Q298.808 1475.88 293.16 1481.64 Z" fill="#000000" fill-rule="nonzero" fill-opacity="1" /><path clip-path="url(#clip300)" d="M752.415 1468.75 L782.091 1468.75 L782.091 1472.69 L752.415 1472.69 L752.415 1468.75 Z" fill="#000000" fill-rule="nonzero" fill-opacity="1" /><path clip-path="url(#clip300)" d="M792.993 1481.64 L800.632 1481.64 L800.632 1455.28 L792.322 1456.95 L792.322 1452.69 L800.586 1451.02 L805.262 1451.02 L805.262 1481.64 L812.901 1481.64 L812.901 1485.58 L792.993 1485.58 L792.993 1481.64 Z" fill="#000000" fill-rule="nonzero" fill-opacity="1" /><path clip-path="url(#clip300)" d="M1285.89 1454.1 Q1282.28 1454.1 1280.45 1457.66 Q1278.65 1461.2 1278.65 1468.33 Q1278.65 1475.44 1280.45 1479.01 Q1282.28 1482.55 1285.89 1482.55 Q1289.53 1482.55 1291.33 1479.01 Q1293.16 1475.44 1293.16 1468.33 Q1293.16 1461.2 1291.33 1457.66 Q1289.53 1454.1 1285.89 1454.1 M1285.89 1450.39 Q1291.7 1450.39 1294.76 1455 Q1297.84 1459.58 1297.84 1468.33 Q1297.84 1477.06 1294.76 1481.67 Q1291.7 1486.25 1285.89 1486.25 Q1280.08 1486.25 1277.01 1481.67 Q1273.95 1477.06 1273.95 1468.33 Q1273.95 1459.58 1277.01 1455 Q1280.08 1450.39 1285.89 1450.39 Z" fill="#000000" fill-rule="nonzero" fill-opacity="1" /><path clip-path="url(#clip300)" d="M1779.51 1481.64 L1787.15 1481.64 L1787.15 1455.28 L1778.84 1456.95 L1778.84 1452.69 L1787.11 1451.02 L1791.78 1451.02 L1791.78 1481.64 L1799.42 1481.64 L1799.42 1485.58 L1779.51 1485.58 L1779.51 1481.64 Z" fill="#000000" fill-rule="nonzero" fill-opacity="1" /><path clip-path="url(#clip300)" d="M2287.02 1481.64 L2303.34 1481.64 L2303.34 1485.58 L2281.4 1485.58 L2281.4 1481.64 Q2284.06 1478.89 2288.64 1474.26 Q2293.25 1469.61 2294.43 1468.27 Q2296.67 1465.74 2297.55 1464.01 Q2298.46 1462.25 2298.46 1460.56 Q2298.46 1457.8 2296.51 1456.07 Q2294.59 1454.33 2291.49 1454.33 Q2289.29 1454.33 2286.84 1455.09 Q2284.4 1455.86 2281.63 1457.41 L2281.63 1452.69 Q2284.45 1451.55 2286.9 1450.97 Q2289.36 1450.39 2291.4 1450.39 Q2296.77 1450.39 2299.96 1453.08 Q2303.15 1455.77 2303.15 1460.26 Q2303.15 1462.39 2302.34 1464.31 Q2301.56 1466.2 2299.45 1468.8 Q2298.87 1469.47 2295.77 1472.69 Q2292.67 1475.88 2287.02 1481.64 Z" fill="#000000" fill-rule="nonzero" fill-opacity="1" /><path clip-path="url(#clip300)" d="M1239.54 1562.7 L1239.54 1581.6 L1233.65 1581.6 L1233.65 1532.4 L1239.54 1532.4 L1239.54 1537.81 Q1241.38 1534.62 1244.18 1533.1 Q1247.02 1531.54 1250.93 1531.54 Q1257.42 1531.54 1261.47 1536.69 Q1265.54 1541.85 1265.54 1550.25 Q1265.54 1558.65 1261.47 1563.81 Q1257.42 1568.97 1250.93 1568.97 Q1247.02 1568.97 1244.18 1567.44 Q1241.38 1565.88 1239.54 1562.7 M1259.46 1550.25 Q1259.46 1543.79 1256.79 1540.13 Q1254.15 1536.44 1249.5 1536.44 Q1244.85 1536.44 1242.18 1540.13 Q1239.54 1543.79 1239.54 1550.25 Q1239.54 1556.71 1242.18 1560.4 Q1244.85 1564.07 1249.5 1564.07 Q1254.15 1564.07 1256.79 1560.4 Q1259.46 1556.71 1259.46 1550.25 Z" fill="#000000" fill-rule="nonzero" fill-opacity="1" /><path clip-path="url(#clip300)" d="M1302.33 1578.87 L1302.33 1583.42 L1268.47 1583.42 L1268.47 1578.87 L1302.33 1578.87 Z" fill="#000000" fill-rule="nonzero" fill-opacity="1" /><path clip-path="url(#clip300)" d="M1337.47 1532.4 L1324.58 1549.74 L1338.14 1568.04 L1331.23 1568.04 L1320.86 1554.04 L1310.48 1568.04 L1303.58 1568.04 L1317.42 1549.39 L1304.75 1532.4 L1311.66 1532.4 L1321.11 1545.1 L1330.57 1532.4 L1337.47 1532.4 Z" fill="#000000" fill-rule="nonzero" fill-opacity="1" /><polyline clip-path="url(#clip300)" style="stroke:#000000; stroke-linecap:round; stroke-linejoin:round; stroke-width:4; stroke-opacity:1; fill:none" points="219.033,1423.18 219.033,123.472 "/>
<polyline clip-path="url(#clip300)" style="stroke:#000000; stroke-linecap:round; stroke-linejoin:round; stroke-width:4; stroke-opacity:1; fill:none" points="219.033,1386.4 237.931,1386.4 "/>
<polyline clip-path="url(#clip300)" style="stroke:#000000; stroke-linecap:round; stroke-linejoin:round; stroke-width:4; stroke-opacity:1; fill:none" points="219.033,1182.04 237.931,1182.04 "/>
<polyline clip-path="url(#clip300)" style="stroke:#000000; stroke-linecap:round; stroke-linejoin:round; stroke-width:4; stroke-opacity:1; fill:none" points="219.033,977.683 237.931,977.683 "/>
<polyline clip-path="url(#clip300)" style="stroke:#000000; stroke-linecap:round; stroke-linejoin:round; stroke-width:4; stroke-opacity:1; fill:none" points="219.033,773.326 237.931,773.326 "/>
<polyline clip-path="url(#clip300)" style="stroke:#000000; stroke-linecap:round; stroke-linejoin:round; stroke-width:4; stroke-opacity:1; fill:none" points="219.033,568.969 237.931,568.969 "/>
<polyline clip-path="url(#clip300)" style="stroke:#000000; stroke-linecap:round; stroke-linejoin:round; stroke-width:4; stroke-opacity:1; fill:none" points="219.033,364.613 237.931,364.613 "/>
<polyline clip-path="url(#clip300)" style="stroke:#000000; stroke-linecap:round; stroke-linejoin:round; stroke-width:4; stroke-opacity:1; fill:none" points="219.033,160.256 237.931,160.256 "/>
<path clip-path="url(#clip300)" d="M126.853 1372.19 Q123.242 1372.19 121.413 1375.76 Q119.607 1379.3 119.607 1386.43 Q119.607 1393.54 121.413 1397.1 Q123.242 1400.64 126.853 1400.64 Q130.487 1400.64 132.292 1397.1 Q134.121 1393.54 134.121 1386.43 Q134.121 1379.3 132.292 1375.76 Q130.487 1372.19 126.853 1372.19 M126.853 1368.49 Q132.663 1368.49 135.718 1373.1 Q138.797 1377.68 138.797 1386.43 Q138.797 1395.16 135.718 1399.76 Q132.663 1404.35 126.853 1404.35 Q121.043 1404.35 117.964 1399.76 Q114.908 1395.16 114.908 1386.43 Q114.908 1377.68 117.964 1373.1 Q121.043 1368.49 126.853 1368.49 Z" fill="#000000" fill-rule="nonzero" fill-opacity="1" /><path clip-path="url(#clip300)" d="M147.015 1397.8 L151.899 1397.8 L151.899 1403.68 L147.015 1403.68 L147.015 1397.8 Z" fill="#000000" fill-rule="nonzero" fill-opacity="1" /><path clip-path="url(#clip300)" d="M162.13 1369.12 L180.487 1369.12 L180.487 1373.05 L166.413 1373.05 L166.413 1381.52 Q167.431 1381.18 168.45 1381.01 Q169.468 1380.83 170.487 1380.83 Q176.274 1380.83 179.653 1384 Q183.033 1387.17 183.033 1392.59 Q183.033 1398.17 179.561 1401.27 Q176.089 1404.35 169.769 1404.35 Q167.593 1404.35 165.325 1403.98 Q163.079 1403.61 160.672 1402.87 L160.672 1398.17 Q162.755 1399.3 164.977 1399.86 Q167.2 1400.41 169.677 1400.41 Q173.681 1400.41 176.019 1398.31 Q178.357 1396.2 178.357 1392.59 Q178.357 1388.98 176.019 1386.87 Q173.681 1384.76 169.677 1384.76 Q167.802 1384.76 165.927 1385.18 Q164.075 1385.6 162.13 1386.48 L162.13 1369.12 Z" fill="#000000" fill-rule="nonzero" fill-opacity="1" /><path clip-path="url(#clip300)" d="M116.668 1195.38 L124.306 1195.38 L124.306 1169.02 L115.996 1170.68 L115.996 1166.43 L124.26 1164.76 L128.936 1164.76 L128.936 1195.38 L136.575 1195.38 L136.575 1199.32 L116.668 1199.32 L116.668 1195.38 Z" fill="#000000" fill-rule="nonzero" fill-opacity="1" /><path clip-path="url(#clip300)" d="M146.019 1193.44 L150.903 1193.44 L150.903 1199.32 L146.019 1199.32 L146.019 1193.44 Z" fill="#000000" fill-rule="nonzero" fill-opacity="1" /><path clip-path="url(#clip300)" d="M171.089 1167.84 Q167.477 1167.84 165.649 1171.4 Q163.843 1174.94 163.843 1182.07 Q163.843 1189.18 165.649 1192.75 Q167.477 1196.29 171.089 1196.29 Q174.723 1196.29 176.528 1192.75 Q178.357 1189.18 178.357 1182.07 Q178.357 1174.94 176.528 1171.4 Q174.723 1167.84 171.089 1167.84 M171.089 1164.13 Q176.899 1164.13 179.954 1168.74 Q183.033 1173.32 183.033 1182.07 Q183.033 1190.8 179.954 1195.41 Q176.899 1199.99 171.089 1199.99 Q165.278 1199.99 162.2 1195.41 Q159.144 1190.8 159.144 1182.07 Q159.144 1173.32 162.2 1168.74 Q165.278 1164.13 171.089 1164.13 Z" fill="#000000" fill-rule="nonzero" fill-opacity="1" /><path clip-path="url(#clip300)" d="M117.663 991.027 L125.302 991.027 L125.302 964.662 L116.992 966.328 L116.992 962.069 L125.255 960.403 L129.931 960.403 L129.931 991.027 L137.57 991.027 L137.57 994.963 L117.663 994.963 L117.663 991.027 Z" fill="#000000" fill-rule="nonzero" fill-opacity="1" /><path clip-path="url(#clip300)" d="M147.015 989.083 L151.899 989.083 L151.899 994.963 L147.015 994.963 L147.015 989.083 Z" fill="#000000" fill-rule="nonzero" fill-opacity="1" /><path clip-path="url(#clip300)" d="M162.13 960.403 L180.487 960.403 L180.487 964.338 L166.413 964.338 L166.413 972.81 Q167.431 972.463 168.45 972.301 Q169.468 972.115 170.487 972.115 Q176.274 972.115 179.653 975.287 Q183.033 978.458 183.033 983.875 Q183.033 989.453 179.561 992.555 Q176.089 995.634 169.769 995.634 Q167.593 995.634 165.325 995.263 Q163.079 994.893 160.672 994.152 L160.672 989.453 Q162.755 990.588 164.977 991.143 Q167.2 991.699 169.677 991.699 Q173.681 991.699 176.019 989.592 Q178.357 987.486 178.357 983.875 Q178.357 980.264 176.019 978.157 Q173.681 976.051 169.677 976.051 Q167.802 976.051 165.927 976.467 Q164.075 976.884 162.13 977.764 L162.13 960.403 Z" fill="#000000" fill-rule="nonzero" fill-opacity="1" /><path clip-path="url(#clip300)" d="M119.885 786.671 L136.204 786.671 L136.204 790.606 L114.26 790.606 L114.26 786.671 Q116.922 783.916 121.505 779.287 Q126.112 774.634 127.292 773.291 Q129.538 770.768 130.417 769.032 Q131.32 767.273 131.32 765.583 Q131.32 762.828 129.376 761.092 Q127.455 759.356 124.353 759.356 Q122.154 759.356 119.7 760.12 Q117.269 760.884 114.492 762.435 L114.492 757.713 Q117.316 756.578 119.769 756 Q122.223 755.421 124.26 755.421 Q129.63 755.421 132.825 758.106 Q136.019 760.791 136.019 765.282 Q136.019 767.412 135.209 769.333 Q134.422 771.231 132.316 773.824 Q131.737 774.495 128.635 777.713 Q125.533 780.907 119.885 786.671 Z" fill="#000000" fill-rule="nonzero" fill-opacity="1" /><path clip-path="url(#clip300)" d="M146.019 784.726 L150.903 784.726 L150.903 790.606 L146.019 790.606 L146.019 784.726 Z" fill="#000000" fill-rule="nonzero" fill-opacity="1" /><path clip-path="url(#clip300)" d="M171.089 759.125 Q167.477 759.125 165.649 762.689 Q163.843 766.231 163.843 773.361 Q163.843 780.467 165.649 784.032 Q167.477 787.574 171.089 787.574 Q174.723 787.574 176.528 784.032 Q178.357 780.467 178.357 773.361 Q178.357 766.231 176.528 762.689 Q174.723 759.125 171.089 759.125 M171.089 755.421 Q176.899 755.421 179.954 760.027 Q183.033 764.611 183.033 773.361 Q183.033 782.088 179.954 786.694 Q176.899 791.277 171.089 791.277 Q165.278 791.277 162.2 786.694 Q159.144 782.088 159.144 773.361 Q159.144 764.611 162.2 760.027 Q165.278 755.421 171.089 755.421 Z" fill="#000000" fill-rule="nonzero" fill-opacity="1" /><path clip-path="url(#clip300)" d="M120.88 582.314 L137.2 582.314 L137.2 586.249 L115.256 586.249 L115.256 582.314 Q117.918 579.56 122.501 574.93 Q127.107 570.277 128.288 568.935 Q130.533 566.412 131.413 564.675 Q132.316 562.916 132.316 561.226 Q132.316 558.472 130.371 556.736 Q128.45 555 125.348 555 Q123.149 555 120.695 555.763 Q118.265 556.527 115.487 558.078 L115.487 553.356 Q118.311 552.222 120.765 551.643 Q123.218 551.064 125.255 551.064 Q130.626 551.064 133.82 553.75 Q137.015 556.435 137.015 560.925 Q137.015 563.055 136.204 564.976 Q135.417 566.875 133.311 569.467 Q132.732 570.138 129.63 573.356 Q126.529 576.55 120.88 582.314 Z" fill="#000000" fill-rule="nonzero" fill-opacity="1" /><path clip-path="url(#clip300)" d="M147.015 580.37 L151.899 580.37 L151.899 586.249 L147.015 586.249 L147.015 580.37 Z" fill="#000000" fill-rule="nonzero" fill-opacity="1" /><path clip-path="url(#clip300)" d="M162.13 551.689 L180.487 551.689 L180.487 555.625 L166.413 555.625 L166.413 564.097 Q167.431 563.75 168.45 563.588 Q169.468 563.402 170.487 563.402 Q176.274 563.402 179.653 566.574 Q183.033 569.745 183.033 575.162 Q183.033 580.74 179.561 583.842 Q176.089 586.921 169.769 586.921 Q167.593 586.921 165.325 586.55 Q163.079 586.18 160.672 585.439 L160.672 580.74 Q162.755 581.874 164.977 582.43 Q167.2 582.986 169.677 582.986 Q173.681 582.986 176.019 580.879 Q178.357 578.773 178.357 575.162 Q178.357 571.55 176.019 569.444 Q173.681 567.337 169.677 567.337 Q167.802 567.337 165.927 567.754 Q164.075 568.171 162.13 569.05 L162.13 551.689 Z" fill="#000000" fill-rule="nonzero" fill-opacity="1" /><path clip-path="url(#clip300)" d="M130.024 363.259 Q133.38 363.976 135.255 366.245 Q137.154 368.513 137.154 371.847 Q137.154 376.962 133.635 379.763 Q130.117 382.564 123.635 382.564 Q121.459 382.564 119.144 382.124 Q116.853 381.708 114.399 380.851 L114.399 376.337 Q116.343 377.472 118.658 378.05 Q120.973 378.629 123.496 378.629 Q127.894 378.629 130.186 376.893 Q132.501 375.157 132.501 371.847 Q132.501 368.791 130.348 367.078 Q128.218 365.342 124.399 365.342 L120.371 365.342 L120.371 361.499 L124.584 361.499 Q128.033 361.499 129.862 360.134 Q131.691 358.745 131.691 356.152 Q131.691 353.49 129.792 352.078 Q127.917 350.643 124.399 350.643 Q122.478 350.643 120.279 351.06 Q118.08 351.476 115.441 352.356 L115.441 348.189 Q118.103 347.449 120.418 347.078 Q122.755 346.708 124.816 346.708 Q130.14 346.708 133.242 349.138 Q136.343 351.546 136.343 355.666 Q136.343 358.537 134.7 360.527 Q133.056 362.495 130.024 363.259 Z" fill="#000000" fill-rule="nonzero" fill-opacity="1" /><path clip-path="url(#clip300)" d="M146.019 376.013 L150.903 376.013 L150.903 381.893 L146.019 381.893 L146.019 376.013 Z" fill="#000000" fill-rule="nonzero" fill-opacity="1" /><path clip-path="url(#clip300)" d="M171.089 350.412 Q167.477 350.412 165.649 353.976 Q163.843 357.518 163.843 364.648 Q163.843 371.754 165.649 375.319 Q167.477 378.86 171.089 378.86 Q174.723 378.86 176.528 375.319 Q178.357 371.754 178.357 364.648 Q178.357 357.518 176.528 353.976 Q174.723 350.412 171.089 350.412 M171.089 346.708 Q176.899 346.708 179.954 351.314 Q183.033 355.898 183.033 364.648 Q183.033 373.374 179.954 377.981 Q176.899 382.564 171.089 382.564 Q165.278 382.564 162.2 377.981 Q159.144 373.374 159.144 364.648 Q159.144 355.898 162.2 351.314 Q165.278 346.708 171.089 346.708 Z" fill="#000000" fill-rule="nonzero" fill-opacity="1" /><path clip-path="url(#clip300)" d="M131.019 158.902 Q134.376 159.62 136.251 161.888 Q138.149 164.157 138.149 167.49 Q138.149 172.606 134.63 175.407 Q131.112 178.208 124.63 178.208 Q122.455 178.208 120.14 177.768 Q117.848 177.351 115.394 176.495 L115.394 171.981 Q117.339 173.115 119.654 173.694 Q121.968 174.272 124.492 174.272 Q128.89 174.272 131.181 172.536 Q133.496 170.8 133.496 167.49 Q133.496 164.435 131.343 162.722 Q129.214 160.985 125.394 160.985 L121.367 160.985 L121.367 157.143 L125.58 157.143 Q129.029 157.143 130.857 155.777 Q132.686 154.388 132.686 151.796 Q132.686 149.134 130.788 147.722 Q128.913 146.286 125.394 146.286 Q123.473 146.286 121.274 146.703 Q119.075 147.12 116.436 147.999 L116.436 143.833 Q119.098 143.092 121.413 142.722 Q123.751 142.351 125.811 142.351 Q131.135 142.351 134.237 144.782 Q137.339 147.189 137.339 151.31 Q137.339 154.18 135.695 156.171 Q134.052 158.138 131.019 158.902 Z" fill="#000000" fill-rule="nonzero" fill-opacity="1" /><path clip-path="url(#clip300)" d="M147.015 171.657 L151.899 171.657 L151.899 177.536 L147.015 177.536 L147.015 171.657 Z" fill="#000000" fill-rule="nonzero" fill-opacity="1" /><path clip-path="url(#clip300)" d="M162.13 142.976 L180.487 142.976 L180.487 146.911 L166.413 146.911 L166.413 155.384 Q167.431 155.036 168.45 154.874 Q169.468 154.689 170.487 154.689 Q176.274 154.689 179.653 157.86 Q183.033 161.032 183.033 166.448 Q183.033 172.027 179.561 175.129 Q176.089 178.208 169.769 178.208 Q167.593 178.208 165.325 177.837 Q163.079 177.467 160.672 176.726 L160.672 172.027 Q162.755 173.161 164.977 173.717 Q167.2 174.272 169.677 174.272 Q173.681 174.272 176.019 172.166 Q178.357 170.059 178.357 166.448 Q178.357 162.837 176.019 160.731 Q173.681 158.624 169.677 158.624 Q167.802 158.624 165.927 159.041 Q164.075 159.458 162.13 160.337 L162.13 142.976 Z" fill="#000000" fill-rule="nonzero" fill-opacity="1" /><path clip-path="url(#clip300)" d="M58.657 817.17 L77.5631 817.17 L77.5631 823.058 L28.3562 823.058 L28.3562 817.17 L33.7671 817.17 Q30.5842 815.324 29.0564 812.523 Q27.4968 809.69 27.4968 805.775 Q27.4968 799.282 32.6531 795.24 Q37.8093 791.166 46.212 791.166 Q54.6147 791.166 59.771 795.24 Q64.9272 799.282 64.9272 805.775 Q64.9272 809.69 63.3994 812.523 Q61.8398 815.324 58.657 817.17 M46.212 797.245 Q39.7508 797.245 36.0905 799.919 Q32.3984 802.56 32.3984 807.207 Q32.3984 811.854 36.0905 814.528 Q39.7508 817.17 46.212 817.17 Q52.6732 817.17 56.3653 814.528 Q60.0256 811.854 60.0256 807.207 Q60.0256 802.56 56.3653 799.919 Q52.6732 797.245 46.212 797.245 Z" fill="#000000" fill-rule="nonzero" fill-opacity="1" /><path clip-path="url(#clip300)" d="M74.8259 754.372 L79.3773 754.372 L79.3773 788.238 L74.8259 788.238 L74.8259 754.372 Z" fill="#000000" fill-rule="nonzero" fill-opacity="1" /><path clip-path="url(#clip300)" d="M28.3562 751.412 L28.3562 723.594 L33.7034 723.594 L59.3254 745.619 L59.3254 723.594 L64.0042 723.594 L64.0042 752.208 L58.657 752.208 L33.035 730.182 L33.035 751.412 L28.3562 751.412 Z" fill="#000000" fill-rule="nonzero" fill-opacity="1" /><path clip-path="url(#clip300)" d="M855.263 17.6457 Q846.351 17.6457 841.085 24.2892 Q835.859 30.9327 835.859 42.3968 Q835.859 53.8203 841.085 60.4638 Q846.351 67.1073 855.263 67.1073 Q864.175 67.1073 869.36 60.4638 Q874.586 53.8203 874.586 42.3968 Q874.586 30.9327 869.36 24.2892 Q864.175 17.6457 855.263 17.6457 M866.727 71.4823 L877.503 83.2704 L867.618 83.2704 L858.666 73.5887 Q857.329 73.6697 856.6 73.7103 Q855.911 73.7508 855.263 73.7508 Q842.503 73.7508 834.846 65.2439 Q827.231 56.6965 827.231 42.3968 Q827.231 28.0566 834.846 19.5497 Q842.503 11.0023 855.263 11.0023 Q867.983 11.0023 875.599 19.5497 Q883.214 28.0566 883.214 42.3968 Q883.214 52.9291 878.961 60.4233 Q874.748 67.9175 866.727 71.4823 Z" fill="#000000" fill-rule="nonzero" fill-opacity="1" /><path clip-path="url(#clip300)" d="M894.921 54.671 L894.921 27.2059 L902.375 27.2059 L902.375 54.3874 Q902.375 60.8284 904.887 64.0691 Q907.398 67.2693 912.421 67.2693 Q918.457 67.2693 921.941 63.421 Q925.465 59.5726 925.465 52.9291 L925.465 27.2059 L932.919 27.2059 L932.919 72.576 L925.465 72.576 L925.465 65.6084 Q922.751 69.7404 919.146 71.7658 Q915.581 73.7508 910.841 73.7508 Q903.023 73.7508 898.972 68.8897 Q894.921 64.0286 894.921 54.671 M913.677 26.1121 L913.677 26.1121 Z" fill="#000000" fill-rule="nonzero" fill-opacity="1" /><path clip-path="url(#clip300)" d="M968.891 49.7694 Q959.857 49.7694 956.374 51.8354 Q952.89 53.9013 952.89 58.8839 Q952.89 62.8538 955.482 65.2034 Q958.116 67.5124 962.612 67.5124 Q968.81 67.5124 972.537 63.1374 Q976.304 58.7219 976.304 51.4303 L976.304 49.7694 L968.891 49.7694 M983.758 46.6907 L983.758 72.576 L976.304 72.576 L976.304 65.6895 Q973.752 69.8214 969.944 71.8063 Q966.136 73.7508 960.627 73.7508 Q953.66 73.7508 949.528 69.8619 Q945.436 65.9325 945.436 59.3701 Q945.436 51.7138 950.54 47.825 Q955.685 43.9361 965.853 43.9361 L976.304 43.9361 L976.304 43.2069 Q976.304 38.0623 972.901 35.2672 Q969.539 32.4315 963.422 32.4315 Q959.533 32.4315 955.847 33.3632 Q952.161 34.295 948.758 36.1584 L948.758 29.2718 Q952.849 27.692 956.698 26.9223 Q960.546 26.1121 964.192 26.1121 Q974.036 26.1121 978.897 31.2163 Q983.758 36.3204 983.758 46.6907 Z" fill="#000000" fill-rule="nonzero" fill-opacity="1" /><path clip-path="url(#clip300)" d="M1028.97 34.0924 L1028.97 9.54393 L1036.42 9.54393 L1036.42 72.576 L1028.97 72.576 L1028.97 65.7705 Q1026.62 69.8214 1023.01 71.8063 Q1019.45 73.7508 1014.42 73.7508 Q1006.2 73.7508 1001.01 67.1883 Q995.87 60.6258 995.87 49.9314 Q995.87 39.2371 1001.01 32.6746 Q1006.2 26.1121 1014.42 26.1121 Q1019.45 26.1121 1023.01 28.0971 Q1026.62 30.0415 1028.97 34.0924 M1003.57 49.9314 Q1003.57 58.1548 1006.93 62.8538 Q1010.33 67.5124 1016.25 67.5124 Q1022.16 67.5124 1025.56 62.8538 Q1028.97 58.1548 1028.97 49.9314 Q1028.97 41.7081 1025.56 37.0496 Q1022.16 32.3505 1016.25 32.3505 Q1010.33 32.3505 1006.93 37.0496 Q1003.57 41.7081 1003.57 49.9314 Z" fill="#000000" fill-rule="nonzero" fill-opacity="1" /><path clip-path="url(#clip300)" d="M1078.06 34.1734 Q1076.81 33.4443 1075.31 33.1202 Q1073.85 32.7556 1072.07 32.7556 Q1065.75 32.7556 1062.35 36.8875 Q1058.98 40.9789 1058.98 48.6757 L1058.98 72.576 L1051.49 72.576 L1051.49 27.2059 L1058.98 27.2059 L1058.98 34.2544 Q1061.33 30.1225 1065.1 28.1376 Q1068.87 26.1121 1074.25 26.1121 Q1075.02 26.1121 1075.96 26.2337 Q1076.89 26.3147 1078.02 26.5172 L1078.06 34.1734 Z" fill="#000000" fill-rule="nonzero" fill-opacity="1" /><path clip-path="url(#clip300)" d="M1101.64 32.4315 Q1095.64 32.4315 1092.16 37.1306 Q1088.68 41.7891 1088.68 49.9314 Q1088.68 58.0738 1092.12 62.7728 Q1095.6 67.4314 1101.64 67.4314 Q1107.59 67.4314 1111.08 62.7323 Q1114.56 58.0333 1114.56 49.9314 Q1114.56 41.8701 1111.08 37.1711 Q1107.59 32.4315 1101.64 32.4315 M1101.64 26.1121 Q1111.36 26.1121 1116.91 32.4315 Q1122.46 38.7509 1122.46 49.9314 Q1122.46 61.0714 1116.91 67.4314 Q1111.36 73.7508 1101.64 73.7508 Q1091.88 73.7508 1086.33 67.4314 Q1080.82 61.0714 1080.82 49.9314 Q1080.82 38.7509 1086.33 32.4315 Q1091.88 26.1121 1101.64 26.1121 Z" fill="#000000" fill-rule="nonzero" fill-opacity="1" /><path clip-path="url(#clip300)" d="M1142.19 14.324 L1142.19 27.2059 L1157.54 27.2059 L1157.54 32.9987 L1142.19 32.9987 L1142.19 57.6282 Q1142.19 63.1779 1143.69 64.7578 Q1145.23 66.3376 1149.89 66.3376 L1157.54 66.3376 L1157.54 72.576 L1149.89 72.576 Q1141.26 72.576 1137.98 69.3758 Q1134.69 66.1351 1134.69 57.6282 L1134.69 32.9987 L1129.23 32.9987 L1129.23 27.2059 L1134.69 27.2059 L1134.69 14.324 L1142.19 14.324 Z" fill="#000000" fill-rule="nonzero" fill-opacity="1" /><path clip-path="url(#clip300)" d="M1184.93 32.4315 Q1178.93 32.4315 1175.45 37.1306 Q1171.96 41.7891 1171.96 49.9314 Q1171.96 58.0738 1175.41 62.7728 Q1178.89 67.4314 1184.93 67.4314 Q1190.88 67.4314 1194.36 62.7323 Q1197.85 58.0333 1197.85 49.9314 Q1197.85 41.8701 1194.36 37.1711 Q1190.88 32.4315 1184.93 32.4315 M1184.93 26.1121 Q1194.65 26.1121 1200.2 32.4315 Q1205.75 38.7509 1205.75 49.9314 Q1205.75 61.0714 1200.2 67.4314 Q1194.65 73.7508 1184.93 73.7508 Q1175.16 73.7508 1169.61 67.4314 Q1164.1 61.0714 1164.1 49.9314 Q1164.1 38.7509 1169.61 32.4315 Q1175.16 26.1121 1184.93 26.1121 Z" fill="#000000" fill-rule="nonzero" fill-opacity="1" /><path clip-path="url(#clip300)" d="M1244.39 34.1734 Q1243.14 33.4443 1241.64 33.1202 Q1240.18 32.7556 1238.4 32.7556 Q1232.08 32.7556 1228.68 36.8875 Q1225.31 40.9789 1225.31 48.6757 L1225.31 72.576 L1217.82 72.576 L1217.82 27.2059 L1225.31 27.2059 L1225.31 34.2544 Q1227.66 30.1225 1231.43 28.1376 Q1235.2 26.1121 1240.59 26.1121 Q1241.35 26.1121 1242.29 26.2337 Q1243.22 26.3147 1244.35 26.5172 L1244.39 34.1734 Z" fill="#000000" fill-rule="nonzero" fill-opacity="1" /><path clip-path="url(#clip300)" d="M1270.52 12.096 L1321.68 12.096 L1321.68 18.9825 L1300.21 18.9825 L1300.21 72.576 L1291.99 72.576 L1291.99 18.9825 L1270.52 18.9825 L1270.52 12.096 Z" fill="#000000" fill-rule="nonzero" fill-opacity="1" /><path clip-path="url(#clip300)" d="M1343.36 34.1734 Q1342.1 33.4443 1340.6 33.1202 Q1339.14 32.7556 1337.36 32.7556 Q1331.04 32.7556 1327.64 36.8875 Q1324.28 40.9789 1324.28 48.6757 L1324.28 72.576 L1316.78 72.576 L1316.78 27.2059 L1324.28 27.2059 L1324.28 34.2544 Q1326.63 30.1225 1330.39 28.1376 Q1334.16 26.1121 1339.55 26.1121 Q1340.32 26.1121 1341.25 26.2337 Q1342.18 26.3147 1343.32 26.5172 L1343.36 34.1734 Z" fill="#000000" fill-rule="nonzero" fill-opacity="1" /><path clip-path="url(#clip300)" d="M1371.79 49.7694 Q1362.76 49.7694 1359.28 51.8354 Q1355.79 53.9013 1355.79 58.8839 Q1355.79 62.8538 1358.39 65.2034 Q1361.02 67.5124 1365.51 67.5124 Q1371.71 67.5124 1375.44 63.1374 Q1379.21 58.7219 1379.21 51.4303 L1379.21 49.7694 L1371.79 49.7694 M1386.66 46.6907 L1386.66 72.576 L1379.21 72.576 L1379.21 65.6895 Q1376.65 69.8214 1372.85 71.8063 Q1369.04 73.7508 1363.53 73.7508 Q1356.56 73.7508 1352.43 69.8619 Q1348.34 65.9325 1348.34 59.3701 Q1348.34 51.7138 1353.44 47.825 Q1358.59 43.9361 1368.76 43.9361 L1379.21 43.9361 L1379.21 43.2069 Q1379.21 38.0623 1375.8 35.2672 Q1372.44 32.4315 1366.33 32.4315 Q1362.44 32.4315 1358.75 33.3632 Q1355.06 34.295 1351.66 36.1584 L1351.66 29.2718 Q1355.75 27.692 1359.6 26.9223 Q1363.45 26.1121 1367.09 26.1121 Q1376.94 26.1121 1381.8 31.2163 Q1386.66 36.3204 1386.66 46.6907 Z" fill="#000000" fill-rule="nonzero" fill-opacity="1" /><path clip-path="url(#clip300)" d="M1402.01 27.2059 L1409.47 27.2059 L1409.47 73.3862 Q1409.47 82.0551 1406.15 85.944 Q1402.86 89.8329 1395.53 89.8329 L1392.7 89.8329 L1392.7 83.5134 L1394.68 83.5134 Q1398.93 83.5134 1400.47 81.5285 Q1402.01 79.5841 1402.01 73.3862 L1402.01 27.2059 M1402.01 9.54393 L1409.47 9.54393 L1409.47 18.9825 L1402.01 18.9825 L1402.01 9.54393 Z" fill="#000000" fill-rule="nonzero" fill-opacity="1" /><path clip-path="url(#clip300)" d="M1463.87 48.0275 L1463.87 51.6733 L1429.6 51.6733 Q1430.09 59.3701 1434.22 63.421 Q1438.39 67.4314 1445.8 67.4314 Q1450.1 67.4314 1454.11 66.3781 Q1458.16 65.3249 1462.13 63.2184 L1462.13 70.267 Q1458.12 71.9684 1453.91 72.8596 Q1449.69 73.7508 1445.36 73.7508 Q1434.5 73.7508 1428.14 67.4314 Q1421.82 61.1119 1421.82 50.3365 Q1421.82 39.1965 1427.82 32.6746 Q1433.85 26.1121 1444.06 26.1121 Q1453.22 26.1121 1458.52 32.0264 Q1463.87 37.9003 1463.87 48.0275 M1456.42 45.84 Q1456.34 39.7232 1452.97 36.0774 Q1449.65 32.4315 1444.14 32.4315 Q1437.9 32.4315 1434.14 35.9558 Q1430.41 39.4801 1429.84 45.8805 L1456.42 45.84 Z" fill="#000000" fill-rule="nonzero" fill-opacity="1" /><path clip-path="url(#clip300)" d="M1508.75 28.9478 L1508.75 35.9153 Q1505.6 34.1734 1502.39 33.3227 Q1499.24 32.4315 1495.99 32.4315 Q1488.74 32.4315 1484.73 37.0496 Q1480.72 41.6271 1480.72 49.9314 Q1480.72 58.2358 1484.73 62.8538 Q1488.74 67.4314 1495.99 67.4314 Q1499.24 67.4314 1502.39 66.5807 Q1505.6 65.6895 1508.75 63.9476 L1508.75 70.8341 Q1505.64 72.2924 1502.27 73.0216 Q1498.95 73.7508 1495.18 73.7508 Q1484.94 73.7508 1478.9 67.3098 Q1472.86 60.8689 1472.86 49.9314 Q1472.86 38.832 1478.94 32.472 Q1485.06 26.1121 1495.67 26.1121 Q1499.11 26.1121 1502.39 26.8413 Q1505.68 27.5299 1508.75 28.9478 Z" fill="#000000" fill-rule="nonzero" fill-opacity="1" /><path clip-path="url(#clip300)" d="M1529.09 14.324 L1529.09 27.2059 L1544.44 27.2059 L1544.44 32.9987 L1529.09 32.9987 L1529.09 57.6282 Q1529.09 63.1779 1530.59 64.7578 Q1532.13 66.3376 1536.79 66.3376 L1544.44 66.3376 L1544.44 72.576 L1536.79 72.576 Q1528.16 72.576 1524.88 69.3758 Q1521.6 66.1351 1521.6 57.6282 L1521.6 32.9987 L1516.13 32.9987 L1516.13 27.2059 L1521.6 27.2059 L1521.6 14.324 L1529.09 14.324 Z" fill="#000000" fill-rule="nonzero" fill-opacity="1" /><path clip-path="url(#clip300)" d="M1571.83 32.4315 Q1565.83 32.4315 1562.35 37.1306 Q1558.86 41.7891 1558.86 49.9314 Q1558.86 58.0738 1562.31 62.7728 Q1565.79 67.4314 1571.83 67.4314 Q1577.78 67.4314 1581.27 62.7323 Q1584.75 58.0333 1584.75 49.9314 Q1584.75 41.8701 1581.27 37.1711 Q1577.78 32.4315 1571.83 32.4315 M1571.83 26.1121 Q1581.55 26.1121 1587.1 32.4315 Q1592.65 38.7509 1592.65 49.9314 Q1592.65 61.0714 1587.1 67.4314 Q1581.55 73.7508 1571.83 73.7508 Q1562.06 73.7508 1556.52 67.4314 Q1551.01 61.0714 1551.01 49.9314 Q1551.01 38.7509 1556.52 32.4315 Q1562.06 26.1121 1571.83 26.1121 Z" fill="#000000" fill-rule="nonzero" fill-opacity="1" /><path clip-path="url(#clip300)" d="M1631.29 34.1734 Q1630.04 33.4443 1628.54 33.1202 Q1627.08 32.7556 1625.3 32.7556 Q1618.98 32.7556 1615.58 36.8875 Q1612.22 40.9789 1612.22 48.6757 L1612.22 72.576 L1604.72 72.576 L1604.72 27.2059 L1612.22 27.2059 L1612.22 34.2544 Q1614.56 30.1225 1618.33 28.1376 Q1622.1 26.1121 1627.49 26.1121 Q1628.26 26.1121 1629.19 26.2337 Q1630.12 26.3147 1631.25 26.5172 L1631.29 34.1734 Z" fill="#000000" fill-rule="nonzero" fill-opacity="1" /><path clip-path="url(#clip300)" d="M1639.11 27.2059 L1646.57 27.2059 L1646.57 72.576 L1639.11 72.576 L1639.11 27.2059 M1639.11 9.54393 L1646.57 9.54393 L1646.57 18.9825 L1639.11 18.9825 L1639.11 9.54393 Z" fill="#000000" fill-rule="nonzero" fill-opacity="1" /><path clip-path="url(#clip300)" d="M1700.97 48.0275 L1700.97 51.6733 L1666.7 51.6733 Q1667.19 59.3701 1671.32 63.421 Q1675.49 67.4314 1682.9 67.4314 Q1687.2 67.4314 1691.21 66.3781 Q1695.26 65.3249 1699.23 63.2184 L1699.23 70.267 Q1695.22 71.9684 1691.01 72.8596 Q1686.79 73.7508 1682.46 73.7508 Q1671.6 73.7508 1665.24 67.4314 Q1658.92 61.1119 1658.92 50.3365 Q1658.92 39.1965 1664.92 32.6746 Q1670.95 26.1121 1681.16 26.1121 Q1690.32 26.1121 1695.62 32.0264 Q1700.97 37.9003 1700.97 48.0275 M1693.52 45.84 Q1693.44 39.7232 1690.07 36.0774 Q1686.75 32.4315 1681.24 32.4315 Q1675 32.4315 1671.24 35.9558 Q1667.51 39.4801 1666.94 45.8805 L1693.52 45.84 Z" fill="#000000" fill-rule="nonzero" fill-opacity="1" /><path clip-path="url(#clip300)" d="M1742.13 28.5427 L1742.13 35.5912 Q1738.97 33.9709 1735.57 33.1607 Q1732.16 32.3505 1728.52 32.3505 Q1722.97 32.3505 1720.17 34.0519 Q1717.42 35.7533 1717.42 39.156 Q1717.42 41.7486 1719.4 43.2475 Q1721.39 44.7058 1727.38 46.0426 L1729.93 46.6097 Q1737.87 48.3111 1741.2 51.4303 Q1744.56 54.509 1744.56 60.0587 Q1744.56 66.3781 1739.53 70.0644 Q1734.55 73.7508 1725.8 73.7508 Q1722.16 73.7508 1718.19 73.0216 Q1714.26 72.3329 1709.88 70.9151 L1709.88 63.2184 Q1714.01 65.3654 1718.02 66.4591 Q1722.04 67.5124 1725.96 67.5124 Q1731.23 67.5124 1734.07 65.73 Q1736.9 63.9071 1736.9 60.6258 Q1736.9 57.5877 1734.84 55.9673 Q1732.81 54.3469 1725.88 52.8481 L1723.29 52.2405 Q1716.36 50.7821 1713.29 47.7845 Q1710.21 44.7463 1710.21 39.4801 Q1710.21 33.0797 1714.74 29.5959 Q1719.28 26.1121 1727.63 26.1121 Q1731.76 26.1121 1735.4 26.7198 Q1739.05 27.3274 1742.13 28.5427 Z" fill="#000000" fill-rule="nonzero" fill-opacity="1" /><polyline clip-path="url(#clip302)" style="stroke:#ff0000; stroke-linecap:round; stroke-linejoin:round; stroke-width:4; stroke-opacity:1; fill:none" points="279.421,1386.4 284.564,1361.69 355.511,1282.49 528.673,1179.38 761.599,1092.99 1017.25,1029.37 1267.6,980.516 1491.78,940.613 1677.92,907.176 1823.25,879.277 1932.23,857.005 2012.62,839.938 2072.09,826.822 2116.97,816.519 2151.88,808.245 2179.99,801.496 2203.34,795.938 2223.2,791.329 2240.38,787.478 2255.3,784.231 2268.06,781.463 2278.49,779.077 2286.17,777.012 2290.7,775.252 2292.25,773.888 2292.37,773.326 "/>
<polyline clip-path="url(#clip302)" style="stroke:#008000; stroke-linecap:round; stroke-linejoin:round; stroke-width:4; stroke-opacity:1; fill:none" points="279.421,773.326 283.691,781.489 364.93,763.115 567.824,717.642 830.421,675.832 1099.14,621.781 1337.95,553.115 1535.58,485.204 1693.38,425.395 1817.09,375.554 1913.41,334.942 1988.62,302.027 2047.92,275.303 2095.37,253.526 2133.94,235.716 2165.78,221.102 2192.47,209.063 2215.13,199.095 2234.58,190.782 2251.32,183.78 2265.53,177.813 2277.08,172.665 2285.55,168.199 2290.54,164.389 2292.24,161.456 2292.37,160.256 "/>
<polyline clip-path="url(#clip302)" style="stroke:#0000ff; stroke-linecap:round; stroke-linejoin:round; stroke-width:4; stroke-opacity:1; fill:none" points="279.421,160.256 280.485,202.377 306.03,285.068 389.012,367.385 526.127,461.747 699.966,579.262 893.594,706.891 1089.93,825.37 1276.09,927.318 1445.53,1012.2 1595.14,1081.92 1723.75,1138.86 1832.03,1185.31 1921.94,1223.27 1996.1,1254.36 2057.27,1279.9 2108.01,1300.93 2150.54,1318.34 2186.59,1332.85 2217.33,1345.07 2243.29,1355.5 2264.35,1364.55 2279.83,1372.48 2288.97,1379.27 2292.13,1384.37 2292.37,1386.4 "/>
<path clip-path="url(#clip300)" d="M290.157 374.156 L661.63 374.156 L661.63 166.796 L290.157 166.796  Z" fill="#ffffff" fill-rule="evenodd" fill-opacity="1"/>
<polyline clip-path="url(#clip300)" style="stroke:#000000; stroke-linecap:round; stroke-linejoin:round; stroke-width:4; stroke-opacity:1; fill:none" points="290.157,374.156 661.63,374.156 661.63,166.796 290.157,166.796 290.157,374.156 "/>
<polyline clip-path="url(#clip300)" style="stroke:#ff0000; stroke-linecap:round; stroke-linejoin:round; stroke-width:4; stroke-opacity:1; fill:none" points="313.865,218.636 456.113,218.636 "/>
<path clip-path="url(#clip300)" d="M484.219 222.976 Q484.219 227.675 486.141 230.36 Q488.085 233.022 491.465 233.022 Q494.844 233.022 496.789 230.36 Q498.733 227.675 498.733 222.976 Q498.733 218.277 496.789 215.615 Q494.844 212.93 491.465 212.93 Q488.085 212.93 486.141 215.615 Q484.219 218.277 484.219 222.976 M498.733 232.027 Q497.391 234.342 495.33 235.476 Q493.293 236.587 490.423 236.587 Q485.724 236.587 482.761 232.837 Q479.821 229.087 479.821 222.976 Q479.821 216.865 482.761 213.115 Q485.724 209.365 490.423 209.365 Q493.293 209.365 495.33 210.499 Q497.391 211.61 498.733 213.925 L498.733 209.99 L502.992 209.99 L502.992 245.777 L498.733 245.777 L498.733 232.027 Z" fill="#000000" fill-rule="nonzero" fill-opacity="1" /><path clip-path="url(#clip300)" d="M511.326 225.684 L511.326 209.99 L515.585 209.99 L515.585 225.522 Q515.585 229.203 517.02 231.055 Q518.455 232.883 521.326 232.883 Q524.775 232.883 526.765 230.684 Q528.779 228.485 528.779 224.689 L528.779 209.99 L533.039 209.99 L533.039 235.916 L528.779 235.916 L528.779 231.934 Q527.228 234.295 525.168 235.453 Q523.131 236.587 520.423 236.587 Q515.955 236.587 513.641 233.809 Q511.326 231.031 511.326 225.684 M522.043 209.365 L522.043 209.365 Z" fill="#000000" fill-rule="nonzero" fill-opacity="1" /><path clip-path="url(#clip300)" d="M553.594 222.883 Q548.432 222.883 546.441 224.064 Q544.451 225.244 544.451 228.092 Q544.451 230.36 545.932 231.703 Q547.437 233.022 550.006 233.022 Q553.548 233.022 555.677 230.522 Q557.83 227.999 557.83 223.832 L557.83 222.883 L553.594 222.883 M562.089 221.124 L562.089 235.916 L557.83 235.916 L557.83 231.981 Q556.372 234.342 554.196 235.476 Q552.02 236.587 548.872 236.587 Q544.89 236.587 542.529 234.365 Q540.191 232.119 540.191 228.369 Q540.191 223.994 543.108 221.772 Q546.048 219.55 551.858 219.55 L557.83 219.55 L557.83 219.133 Q557.83 216.194 555.886 214.596 Q553.964 212.976 550.469 212.976 Q548.247 212.976 546.14 213.508 Q544.034 214.041 542.089 215.106 L542.089 211.17 Q544.427 210.268 546.626 209.828 Q548.826 209.365 550.909 209.365 Q556.534 209.365 559.312 212.282 Q562.089 215.198 562.089 221.124 Z" fill="#000000" fill-rule="nonzero" fill-opacity="1" /><path clip-path="url(#clip300)" d="M587.923 213.925 L587.923 199.897 L592.182 199.897 L592.182 235.916 L587.923 235.916 L587.923 232.027 Q586.58 234.342 584.52 235.476 Q582.483 236.587 579.612 236.587 Q574.913 236.587 571.95 232.837 Q569.011 229.087 569.011 222.976 Q569.011 216.865 571.95 213.115 Q574.913 209.365 579.612 209.365 Q582.483 209.365 584.52 210.499 Q586.58 211.61 587.923 213.925 M573.409 222.976 Q573.409 227.675 575.33 230.36 Q577.274 233.022 580.654 233.022 Q584.034 233.022 585.978 230.36 Q587.923 227.675 587.923 222.976 Q587.923 218.277 585.978 215.615 Q584.034 212.93 580.654 212.93 Q577.274 212.93 575.33 215.615 Q573.409 218.277 573.409 222.976 Z" fill="#000000" fill-rule="nonzero" fill-opacity="1" /><path clip-path="url(#clip300)" d="M617.436 231.981 L625.075 231.981 L625.075 205.615 L616.765 207.282 L616.765 203.022 L625.029 201.356 L629.705 201.356 L629.705 231.981 L637.344 231.981 L637.344 235.916 L617.436 235.916 L617.436 231.981 Z" fill="#000000" fill-rule="nonzero" fill-opacity="1" /><polyline clip-path="url(#clip300)" style="stroke:#008000; stroke-linecap:round; stroke-linejoin:round; stroke-width:4; stroke-opacity:1; fill:none" points="313.865,270.476 456.113,270.476 "/>
<path clip-path="url(#clip300)" d="M484.219 274.816 Q484.219 279.515 486.141 282.2 Q488.085 284.862 491.465 284.862 Q494.844 284.862 496.789 282.2 Q498.733 279.515 498.733 274.816 Q498.733 270.117 496.789 267.455 Q494.844 264.77 491.465 264.77 Q488.085 264.77 486.141 267.455 Q484.219 270.117 484.219 274.816 M498.733 283.867 Q497.391 286.182 495.33 287.316 Q493.293 288.427 490.423 288.427 Q485.724 288.427 482.761 284.677 Q479.821 280.927 479.821 274.816 Q479.821 268.705 482.761 264.955 Q485.724 261.205 490.423 261.205 Q493.293 261.205 495.33 262.339 Q497.391 263.45 498.733 265.765 L498.733 261.83 L502.992 261.83 L502.992 297.617 L498.733 297.617 L498.733 283.867 Z" fill="#000000" fill-rule="nonzero" fill-opacity="1" /><path clip-path="url(#clip300)" d="M511.326 277.524 L511.326 261.83 L515.585 261.83 L515.585 277.362 Q515.585 281.043 517.02 282.895 Q518.455 284.723 521.326 284.723 Q524.775 284.723 526.765 282.524 Q528.779 280.325 528.779 276.529 L528.779 261.83 L533.039 261.83 L533.039 287.756 L528.779 287.756 L528.779 283.774 Q527.228 286.135 525.168 287.293 Q523.131 288.427 520.423 288.427 Q515.955 288.427 513.641 285.649 Q511.326 282.871 511.326 277.524 M522.043 261.205 L522.043 261.205 Z" fill="#000000" fill-rule="nonzero" fill-opacity="1" /><path clip-path="url(#clip300)" d="M553.594 274.723 Q548.432 274.723 546.441 275.904 Q544.451 277.084 544.451 279.932 Q544.451 282.2 545.932 283.543 Q547.437 284.862 550.006 284.862 Q553.548 284.862 555.677 282.362 Q557.83 279.839 557.83 275.672 L557.83 274.723 L553.594 274.723 M562.089 272.964 L562.089 287.756 L557.83 287.756 L557.83 283.821 Q556.372 286.182 554.196 287.316 Q552.02 288.427 548.872 288.427 Q544.89 288.427 542.529 286.205 Q540.191 283.959 540.191 280.209 Q540.191 275.834 543.108 273.612 Q546.048 271.39 551.858 271.39 L557.83 271.39 L557.83 270.973 Q557.83 268.034 555.886 266.436 Q553.964 264.816 550.469 264.816 Q548.247 264.816 546.14 265.348 Q544.034 265.881 542.089 266.946 L542.089 263.01 Q544.427 262.108 546.626 261.668 Q548.826 261.205 550.909 261.205 Q556.534 261.205 559.312 264.122 Q562.089 267.038 562.089 272.964 Z" fill="#000000" fill-rule="nonzero" fill-opacity="1" /><path clip-path="url(#clip300)" d="M587.923 265.765 L587.923 251.737 L592.182 251.737 L592.182 287.756 L587.923 287.756 L587.923 283.867 Q586.58 286.182 584.52 287.316 Q582.483 288.427 579.612 288.427 Q574.913 288.427 571.95 284.677 Q569.011 280.927 569.011 274.816 Q569.011 268.705 571.95 264.955 Q574.913 261.205 579.612 261.205 Q582.483 261.205 584.52 262.339 Q586.58 263.45 587.923 265.765 M573.409 274.816 Q573.409 279.515 575.33 282.2 Q577.274 284.862 580.654 284.862 Q584.034 284.862 585.978 282.2 Q587.923 279.515 587.923 274.816 Q587.923 270.117 585.978 267.455 Q584.034 264.77 580.654 264.77 Q577.274 264.77 575.33 267.455 Q573.409 270.117 573.409 274.816 Z" fill="#000000" fill-rule="nonzero" fill-opacity="1" /><path clip-path="url(#clip300)" d="M620.654 283.821 L636.973 283.821 L636.973 287.756 L615.029 287.756 L615.029 283.821 Q617.691 281.066 622.274 276.436 Q626.881 271.784 628.061 270.441 Q630.307 267.918 631.186 266.182 Q632.089 264.423 632.089 262.733 Q632.089 259.978 630.145 258.242 Q628.223 256.506 625.121 256.506 Q622.922 256.506 620.469 257.27 Q618.038 258.034 615.26 259.585 L615.26 254.862 Q618.084 253.728 620.538 253.149 Q622.992 252.571 625.029 252.571 Q630.399 252.571 633.594 255.256 Q636.788 257.941 636.788 262.432 Q636.788 264.561 635.978 266.483 Q635.191 268.381 633.084 270.973 Q632.506 271.645 629.404 274.862 Q626.302 278.057 620.654 283.821 Z" fill="#000000" fill-rule="nonzero" fill-opacity="1" /><polyline clip-path="url(#clip300)" style="stroke:#0000ff; stroke-linecap:round; stroke-linejoin:round; stroke-width:4; stroke-opacity:1; fill:none" points="313.865,322.316 456.113,322.316 "/>
<path clip-path="url(#clip300)" d="M484.219 326.656 Q484.219 331.355 486.141 334.04 Q488.085 336.702 491.465 336.702 Q494.844 336.702 496.789 334.04 Q498.733 331.355 498.733 326.656 Q498.733 321.957 496.789 319.295 Q494.844 316.61 491.465 316.61 Q488.085 316.61 486.141 319.295 Q484.219 321.957 484.219 326.656 M498.733 335.707 Q497.391 338.022 495.33 339.156 Q493.293 340.267 490.423 340.267 Q485.724 340.267 482.761 336.517 Q479.821 332.767 479.821 326.656 Q479.821 320.545 482.761 316.795 Q485.724 313.045 490.423 313.045 Q493.293 313.045 495.33 314.179 Q497.391 315.29 498.733 317.605 L498.733 313.67 L502.992 313.67 L502.992 349.457 L498.733 349.457 L498.733 335.707 Z" fill="#000000" fill-rule="nonzero" fill-opacity="1" /><path clip-path="url(#clip300)" d="M511.326 329.364 L511.326 313.67 L515.585 313.67 L515.585 329.202 Q515.585 332.883 517.02 334.735 Q518.455 336.563 521.326 336.563 Q524.775 336.563 526.765 334.364 Q528.779 332.165 528.779 328.369 L528.779 313.67 L533.039 313.67 L533.039 339.596 L528.779 339.596 L528.779 335.614 Q527.228 337.975 525.168 339.133 Q523.131 340.267 520.423 340.267 Q515.955 340.267 513.641 337.489 Q511.326 334.711 511.326 329.364 M522.043 313.045 L522.043 313.045 Z" fill="#000000" fill-rule="nonzero" fill-opacity="1" /><path clip-path="url(#clip300)" d="M553.594 326.563 Q548.432 326.563 546.441 327.744 Q544.451 328.924 544.451 331.772 Q544.451 334.04 545.932 335.383 Q547.437 336.702 550.006 336.702 Q553.548 336.702 555.677 334.202 Q557.83 331.679 557.83 327.512 L557.83 326.563 L553.594 326.563 M562.089 324.804 L562.089 339.596 L557.83 339.596 L557.83 335.661 Q556.372 338.022 554.196 339.156 Q552.02 340.267 548.872 340.267 Q544.89 340.267 542.529 338.045 Q540.191 335.799 540.191 332.049 Q540.191 327.674 543.108 325.452 Q546.048 323.23 551.858 323.23 L557.83 323.23 L557.83 322.813 Q557.83 319.874 555.886 318.276 Q553.964 316.656 550.469 316.656 Q548.247 316.656 546.14 317.188 Q544.034 317.721 542.089 318.786 L542.089 314.85 Q544.427 313.948 546.626 313.508 Q548.826 313.045 550.909 313.045 Q556.534 313.045 559.312 315.962 Q562.089 318.878 562.089 324.804 Z" fill="#000000" fill-rule="nonzero" fill-opacity="1" /><path clip-path="url(#clip300)" d="M587.923 317.605 L587.923 303.577 L592.182 303.577 L592.182 339.596 L587.923 339.596 L587.923 335.707 Q586.58 338.022 584.52 339.156 Q582.483 340.267 579.612 340.267 Q574.913 340.267 571.95 336.517 Q569.011 332.767 569.011 326.656 Q569.011 320.545 571.95 316.795 Q574.913 313.045 579.612 313.045 Q582.483 313.045 584.52 314.179 Q586.58 315.29 587.923 317.605 M573.409 326.656 Q573.409 331.355 575.33 334.04 Q577.274 336.702 580.654 336.702 Q584.034 336.702 585.978 334.04 Q587.923 331.355 587.923 326.656 Q587.923 321.957 585.978 319.295 Q584.034 316.61 580.654 316.61 Q577.274 316.61 575.33 319.295 Q573.409 321.957 573.409 326.656 Z" fill="#000000" fill-rule="nonzero" fill-opacity="1" /><path clip-path="url(#clip300)" d="M630.793 320.962 Q634.149 321.679 636.024 323.948 Q637.922 326.216 637.922 329.549 Q637.922 334.665 634.404 337.466 Q630.885 340.267 624.404 340.267 Q622.228 340.267 619.913 339.827 Q617.621 339.411 615.168 338.554 L615.168 334.04 Q617.112 335.174 619.427 335.753 Q621.742 336.332 624.265 336.332 Q628.663 336.332 630.955 334.596 Q633.27 332.86 633.27 329.549 Q633.27 326.494 631.117 324.781 Q628.987 323.045 625.168 323.045 L621.14 323.045 L621.14 319.202 L625.353 319.202 Q628.802 319.202 630.631 317.837 Q632.459 316.448 632.459 313.855 Q632.459 311.193 630.561 309.781 Q628.686 308.346 625.168 308.346 Q623.246 308.346 621.047 308.763 Q618.848 309.179 616.209 310.059 L616.209 305.892 Q618.871 305.151 621.186 304.781 Q623.524 304.411 625.584 304.411 Q630.908 304.411 634.01 306.841 Q637.112 309.249 637.112 313.369 Q637.112 316.239 635.469 318.23 Q633.825 320.198 630.793 320.962 Z" fill="#000000" fill-rule="nonzero" fill-opacity="1" /></svg>
