<?xml version="1.0" encoding="utf-8"?>
<svg xmlns="http://www.w3.org/2000/svg" xmlns:xlink="http://www.w3.org/1999/xlink" width="600" height="400" viewBox="0 0 2400 1600">
<defs>
  <clipPath id="clip570">
    <rect x="0" y="0" width="2400" height="1600"/>
  </clipPath>
</defs>
<path clip-path="url(#clip570)" d="M0 1600 L2400 1600 L2400 0 L0 0  Z" fill="#ffffff" fill-rule="evenodd" fill-opacity="1"/>
<defs>
  <clipPath id="clip571">
    <rect x="480" y="0" width="1681" height="1600"/>
  </clipPath>
</defs>
<path clip-path="url(#clip570)" d="M255.977 1423.18 L2352.76 1423.18 L2352.76 123.472 L255.977 123.472  Z" fill="#ffffff" fill-rule="evenodd" fill-opacity="1"/>
<defs>
  <clipPath id="clip572">
    <rect x="255" y="123" width="2098" height="1301"/>
  </clipPath>
</defs>
<polyline clip-path="url(#clip572)" style="stroke:#000000; stroke-linecap:round; stroke-linejoin:round; stroke-width:2; stroke-opacity:0.1; fill:none" points="315.32,1423.18 315.32,123.472 "/>
<polyline clip-path="url(#clip572)" style="stroke:#000000; stroke-linecap:round; stroke-linejoin:round; stroke-width:2; stroke-opacity:0.1; fill:none" points="710.939,1423.18 710.939,123.472 "/>
<polyline clip-path="url(#clip572)" style="stroke:#000000; stroke-linecap:round; stroke-linejoin:round; stroke-width:2; stroke-opacity:0.1; fill:none" points="1106.56,1423.18 1106.56,123.472 "/>
<polyline clip-path="url(#clip572)" style="stroke:#000000; stroke-linecap:round; stroke-linejoin:round; stroke-width:2; stroke-opacity:0.1; fill:none" points="1502.18,1423.18 1502.18,123.472 "/>
<polyline clip-path="url(#clip572)" style="stroke:#000000; stroke-linecap:round; stroke-linejoin:round; stroke-width:2; stroke-opacity:0.1; fill:none" points="1897.79,1423.18 1897.79,123.472 "/>
<polyline clip-path="url(#clip572)" style="stroke:#000000; stroke-linecap:round; stroke-linejoin:round; stroke-width:2; stroke-opacity:0.1; fill:none" points="2293.41,1423.18 2293.41,123.472 "/>
<polyline clip-path="url(#clip572)" style="stroke:#000000; stroke-linecap:round; stroke-linejoin:round; stroke-width:2; stroke-opacity:0.1; fill:none" points="255.977,1230.15 2352.76,1230.15 "/>
<polyline clip-path="url(#clip572)" style="stroke:#000000; stroke-linecap:round; stroke-linejoin:round; stroke-width:2; stroke-opacity:0.1; fill:none" points="255.977,998.544 2352.76,998.544 "/>
<polyline clip-path="url(#clip572)" style="stroke:#000000; stroke-linecap:round; stroke-linejoin:round; stroke-width:2; stroke-opacity:0.1; fill:none" points="255.977,766.936 2352.76,766.936 "/>
<polyline clip-path="url(#clip572)" style="stroke:#000000; stroke-linecap:round; stroke-linejoin:round; stroke-width:2; stroke-opacity:0.1; fill:none" points="255.977,535.329 2352.76,535.329 "/>
<polyline clip-path="url(#clip572)" style="stroke:#000000; stroke-linecap:round; stroke-linejoin:round; stroke-width:2; stroke-opacity:0.1; fill:none" points="255.977,303.722 2352.76,303.722 "/>
<polyline clip-path="url(#clip570)" style="stroke:#000000; stroke-linecap:round; stroke-linejoin:round; stroke-width:4; stroke-opacity:1; fill:none" points="255.977,1423.18 2352.76,1423.18 "/>
<polyline clip-path="url(#clip570)" style="stroke:#000000; stroke-linecap:round; stroke-linejoin:round; stroke-width:4; stroke-opacity:1; fill:none" points="315.32,1423.18 315.32,1404.28 "/>
<polyline clip-path="url(#clip570)" style="stroke:#000000; stroke-linecap:round; stroke-linejoin:round; stroke-width:4; stroke-opacity:1; fill:none" points="710.939,1423.18 710.939,1404.28 "/>
<polyline clip-path="url(#clip570)" style="stroke:#000000; stroke-linecap:round; stroke-linejoin:round; stroke-width:4; stroke-opacity:1; fill:none" points="1106.56,1423.18 1106.56,1404.28 "/>
<polyline clip-path="url(#clip570)" style="stroke:#000000; stroke-linecap:round; stroke-linejoin:round; stroke-width:4; stroke-opacity:1; fill:none" points="1502.18,1423.18 1502.18,1404.28 "/>
<polyline clip-path="url(#clip570)" style="stroke:#000000; stroke-linecap:round; stroke-linejoin:round; stroke-width:4; stroke-opacity:1; fill:none" points="1897.79,1423.18 1897.79,1404.28 "/>
<polyline clip-path="url(#clip570)" style="stroke:#000000; stroke-linecap:round; stroke-linejoin:round; stroke-width:4; stroke-opacity:1; fill:none" points="2293.41,1423.18 2293.41,1404.28 "/>
<path clip-path="url(#clip570)" d="M315.32 1454.1 Q311.709 1454.1 309.88 1457.66 Q308.075 1461.2 308.075 1468.33 Q308.075 1475.44 309.88 1479.01 Q311.709 1482.55 315.32 1482.55 Q318.954 1482.55 320.76 1479.01 Q322.588 1475.44 322.588 1468.33 Q322.588 1461.2 320.76 1457.66 Q318.954 1454.1 315.32 1454.1 M315.32 1450.39 Q321.13 1450.39 324.186 1455 Q327.264 1459.58 327.264 1468.33 Q327.264 1477.06 324.186 1481.67 Q321.13 1486.25 315.32 1486.25 Q309.51 1486.25 306.431 1481.67 Q303.376 1477.06 303.376 1468.33 Q303.376 1459.58 306.431 1455 Q309.51 1450.39 315.32 1450.39 Z" fill="#000000" fill-rule="nonzero" fill-opacity="1" /><path clip-path="url(#clip570)" d="M701.321 1481.64 L708.959 1481.64 L708.959 1455.28 L700.649 1456.95 L700.649 1452.69 L708.913 1451.02 L713.589 1451.02 L713.589 1481.64 L721.228 1481.64 L721.228 1485.58 L701.321 1485.58 L701.321 1481.64 Z" fill="#000000" fill-rule="nonzero" fill-opacity="1" /><path clip-path="url(#clip570)" d="M1101.21 1481.64 L1117.53 1481.64 L1117.53 1485.58 L1095.59 1485.58 L1095.59 1481.64 Q1098.25 1478.89 1102.83 1474.26 Q1107.44 1469.61 1108.62 1468.27 Q1110.86 1465.74 1111.74 1464.01 Q1112.65 1462.25 1112.65 1460.56 Q1112.65 1457.8 1110.7 1456.07 Q1108.78 1454.33 1105.68 1454.33 Q1103.48 1454.33 1101.02 1455.09 Q1098.59 1455.86 1095.82 1457.41 L1095.82 1452.69 Q1098.64 1451.55 1101.09 1450.97 Q1103.55 1450.39 1105.59 1450.39 Q1110.96 1450.39 1114.15 1453.08 Q1117.34 1455.77 1117.34 1460.26 Q1117.34 1462.39 1116.53 1464.31 Q1115.75 1466.2 1113.64 1468.8 Q1113.06 1469.47 1109.96 1472.69 Q1106.86 1475.88 1101.21 1481.64 Z" fill="#000000" fill-rule="nonzero" fill-opacity="1" /><path clip-path="url(#clip570)" d="M1506.42 1466.95 Q1509.78 1467.66 1511.65 1469.93 Q1513.55 1472.2 1513.55 1475.53 Q1513.55 1480.65 1510.03 1483.45 Q1506.52 1486.25 1500.03 1486.25 Q1497.86 1486.25 1495.54 1485.81 Q1493.25 1485.39 1490.8 1484.54 L1490.8 1480.02 Q1492.74 1481.16 1495.06 1481.74 Q1497.37 1482.32 1499.9 1482.32 Q1504.29 1482.32 1506.59 1480.58 Q1508.9 1478.84 1508.9 1475.53 Q1508.9 1472.48 1506.75 1470.77 Q1504.62 1469.03 1500.8 1469.03 L1496.77 1469.03 L1496.77 1465.19 L1500.98 1465.19 Q1504.43 1465.19 1506.26 1463.82 Q1508.09 1462.43 1508.09 1459.84 Q1508.09 1457.18 1506.19 1455.77 Q1504.32 1454.33 1500.8 1454.33 Q1498.88 1454.33 1496.68 1454.75 Q1494.48 1455.16 1491.84 1456.04 L1491.84 1451.88 Q1494.5 1451.14 1496.82 1450.77 Q1499.16 1450.39 1501.22 1450.39 Q1506.54 1450.39 1509.64 1452.83 Q1512.74 1455.23 1512.74 1459.35 Q1512.74 1462.22 1511.1 1464.21 Q1509.46 1466.18 1506.42 1466.95 Z" fill="#000000" fill-rule="nonzero" fill-opacity="1" /><path clip-path="url(#clip570)" d="M1900.8 1455.09 L1889 1473.54 L1900.8 1473.54 L1900.8 1455.09 M1899.58 1451.02 L1905.46 1451.02 L1905.46 1473.54 L1910.39 1473.54 L1910.39 1477.43 L1905.46 1477.43 L1905.46 1485.58 L1900.8 1485.58 L1900.8 1477.43 L1885.2 1477.43 L1885.2 1472.92 L1899.58 1451.02 Z" fill="#000000" fill-rule="nonzero" fill-opacity="1" /><path clip-path="url(#clip570)" d="M2283.69 1451.02 L2302.05 1451.02 L2302.05 1454.96 L2287.97 1454.96 L2287.97 1463.43 Q2288.99 1463.08 2290.01 1462.92 Q2291.03 1462.73 2292.05 1462.73 Q2297.83 1462.73 2301.21 1465.9 Q2304.59 1469.08 2304.59 1474.49 Q2304.59 1480.07 2301.12 1483.17 Q2297.65 1486.25 2291.33 1486.25 Q2289.15 1486.25 2286.89 1485.88 Q2284.64 1485.51 2282.23 1484.77 L2282.23 1480.07 Q2284.32 1481.2 2286.54 1481.76 Q2288.76 1482.32 2291.24 1482.32 Q2295.24 1482.32 2297.58 1480.21 Q2299.92 1478.1 2299.92 1474.49 Q2299.92 1470.88 2297.58 1468.77 Q2295.24 1466.67 2291.24 1466.67 Q2289.36 1466.67 2287.49 1467.08 Q2285.64 1467.5 2283.69 1468.38 L2283.69 1451.02 Z" fill="#000000" fill-rule="nonzero" fill-opacity="1" /><path clip-path="url(#clip570)" d="M1191.82 1522.27 L1191.82 1532.4 L1203.88 1532.4 L1203.88 1536.95 L1191.82 1536.95 L1191.82 1556.3 Q1191.82 1560.66 1193 1561.9 Q1194.21 1563.14 1197.87 1563.14 L1203.88 1563.14 L1203.88 1568.04 L1197.87 1568.04 Q1191.09 1568.04 1188.51 1565.53 Q1185.93 1562.98 1185.93 1556.3 L1185.93 1536.95 L1181.64 1536.95 L1181.64 1532.4 L1185.93 1532.4 L1185.93 1522.27 L1191.82 1522.27 Z" fill="#000000" fill-rule="nonzero" fill-opacity="1" /><path clip-path="url(#clip570)" d="M1211.59 1532.4 L1217.44 1532.4 L1217.44 1568.04 L1211.59 1568.04 L1211.59 1532.4 M1211.59 1518.52 L1217.44 1518.52 L1217.44 1525.93 L1211.59 1525.93 L1211.59 1518.52 Z" fill="#000000" fill-rule="nonzero" fill-opacity="1" /><path clip-path="url(#clip570)" d="M1257.45 1539.24 Q1259.65 1535.29 1262.7 1533.41 Q1265.76 1531.54 1269.9 1531.54 Q1275.47 1531.54 1278.49 1535.45 Q1281.51 1539.33 1281.51 1546.53 L1281.51 1568.04 L1275.63 1568.04 L1275.63 1546.72 Q1275.63 1541.59 1273.81 1539.11 Q1272 1536.63 1268.27 1536.63 Q1263.72 1536.63 1261.08 1539.65 Q1258.44 1542.68 1258.44 1547.9 L1258.44 1568.04 L1252.55 1568.04 L1252.55 1546.72 Q1252.55 1541.56 1250.74 1539.11 Q1248.92 1536.63 1245.13 1536.63 Q1240.65 1536.63 1238 1539.68 Q1235.36 1542.71 1235.36 1547.9 L1235.36 1568.04 L1229.47 1568.04 L1229.47 1532.4 L1235.36 1532.4 L1235.36 1537.93 Q1237.37 1534.66 1240.17 1533.1 Q1242.97 1531.54 1246.82 1531.54 Q1250.7 1531.54 1253.41 1533.51 Q1256.15 1535.48 1257.45 1539.24 Z" fill="#000000" fill-rule="nonzero" fill-opacity="1" /><path clip-path="url(#clip570)" d="M1323.69 1548.76 L1323.69 1551.62 L1296.76 1551.62 Q1297.14 1557.67 1300.39 1560.85 Q1303.67 1564 1309.49 1564 Q1312.86 1564 1316.02 1563.17 Q1319.2 1562.35 1322.32 1560.69 L1322.32 1566.23 Q1319.17 1567.57 1315.86 1568.27 Q1312.55 1568.97 1309.14 1568.97 Q1300.61 1568.97 1295.61 1564 Q1290.65 1559.04 1290.65 1550.57 Q1290.65 1541.82 1295.36 1536.69 Q1300.1 1531.54 1308.12 1531.54 Q1315.32 1531.54 1319.49 1536.18 Q1323.69 1540.8 1323.69 1548.76 M1317.83 1547.04 Q1317.77 1542.23 1315.12 1539.37 Q1312.51 1536.5 1308.19 1536.5 Q1303.28 1536.5 1300.32 1539.27 Q1297.4 1542.04 1296.95 1547.07 L1317.83 1547.04 Z" fill="#000000" fill-rule="nonzero" fill-opacity="1" /><path clip-path="url(#clip570)" d="M1368.09 1518.58 Q1363.82 1525.9 1361.75 1533.06 Q1359.68 1540.23 1359.68 1547.58 Q1359.68 1554.93 1361.75 1562.16 Q1363.85 1569.35 1368.09 1576.64 L1362.99 1576.64 Q1358.22 1569.16 1355.83 1561.93 Q1353.48 1554.71 1353.48 1547.58 Q1353.48 1540.48 1355.83 1533.29 Q1358.19 1526.09 1362.99 1518.58 L1368.09 1518.58 Z" fill="#000000" fill-rule="nonzero" fill-opacity="1" /><path clip-path="url(#clip570)" d="M1402.18 1533.45 L1402.18 1538.98 Q1399.69 1537.71 1397.02 1537.07 Q1394.35 1536.44 1391.48 1536.44 Q1387.12 1536.44 1384.92 1537.77 Q1382.76 1539.11 1382.76 1541.79 Q1382.76 1543.82 1384.32 1545 Q1385.88 1546.15 1390.59 1547.2 L1392.6 1547.64 Q1398.83 1548.98 1401.44 1551.43 Q1404.09 1553.85 1404.09 1558.21 Q1404.09 1563.17 1400.14 1566.07 Q1396.22 1568.97 1389.35 1568.97 Q1386.48 1568.97 1383.36 1568.39 Q1380.28 1567.85 1376.84 1566.74 L1376.84 1560.69 Q1380.09 1562.38 1383.24 1563.24 Q1386.39 1564.07 1389.48 1564.07 Q1393.61 1564.07 1395.84 1562.66 Q1398.07 1561.23 1398.07 1558.65 Q1398.07 1556.27 1396.45 1554.99 Q1394.86 1553.72 1389.41 1552.54 L1387.38 1552.07 Q1381.93 1550.92 1379.51 1548.56 Q1377.09 1546.18 1377.09 1542.04 Q1377.09 1537.01 1380.66 1534.27 Q1384.22 1531.54 1390.78 1531.54 Q1394.03 1531.54 1396.89 1532.01 Q1399.76 1532.49 1402.18 1533.45 Z" fill="#000000" fill-rule="nonzero" fill-opacity="1" /><path clip-path="url(#clip570)" d="M1412.49 1518.58 L1417.58 1518.58 Q1422.35 1526.09 1424.71 1533.29 Q1427.1 1540.48 1427.1 1547.58 Q1427.1 1554.71 1424.71 1561.93 Q1422.35 1569.16 1417.58 1576.64 L1412.49 1576.64 Q1416.72 1569.35 1418.79 1562.16 Q1420.89 1554.93 1420.89 1547.58 Q1420.89 1540.23 1418.79 1533.06 Q1416.72 1525.9 1412.49 1518.58 Z" fill="#000000" fill-rule="nonzero" fill-opacity="1" /><polyline clip-path="url(#clip570)" style="stroke:#000000; stroke-linecap:round; stroke-linejoin:round; stroke-width:4; stroke-opacity:1; fill:none" points="255.977,1423.18 255.977,123.472 "/>
<polyline clip-path="url(#clip570)" style="stroke:#000000; stroke-linecap:round; stroke-linejoin:round; stroke-width:4; stroke-opacity:1; fill:none" points="255.977,1230.15 274.875,1230.15 "/>
<polyline clip-path="url(#clip570)" style="stroke:#000000; stroke-linecap:round; stroke-linejoin:round; stroke-width:4; stroke-opacity:1; fill:none" points="255.977,998.544 274.875,998.544 "/>
<polyline clip-path="url(#clip570)" style="stroke:#000000; stroke-linecap:round; stroke-linejoin:round; stroke-width:4; stroke-opacity:1; fill:none" points="255.977,766.936 274.875,766.936 "/>
<polyline clip-path="url(#clip570)" style="stroke:#000000; stroke-linecap:round; stroke-linejoin:round; stroke-width:4; stroke-opacity:1; fill:none" points="255.977,535.329 274.875,535.329 "/>
<polyline clip-path="url(#clip570)" style="stroke:#000000; stroke-linecap:round; stroke-linejoin:round; stroke-width:4; stroke-opacity:1; fill:none" points="255.977,303.722 274.875,303.722 "/>
<path clip-path="url(#clip570)" d="M114.631 1230.6 L144.306 1230.6 L144.306 1234.54 L114.631 1234.54 L114.631 1230.6 Z" fill="#000000" fill-rule="nonzero" fill-opacity="1" /><path clip-path="url(#clip570)" d="M164.399 1215.95 Q160.788 1215.95 158.959 1219.51 Q157.153 1223.06 157.153 1230.19 Q157.153 1237.29 158.959 1240.86 Q160.788 1244.4 164.399 1244.4 Q168.033 1244.4 169.839 1240.86 Q171.667 1237.29 171.667 1230.19 Q171.667 1223.06 169.839 1219.51 Q168.033 1215.95 164.399 1215.95 M164.399 1212.25 Q170.209 1212.25 173.264 1216.85 Q176.343 1221.44 176.343 1230.19 Q176.343 1238.91 173.264 1243.52 Q170.209 1248.1 164.399 1248.1 Q158.589 1248.1 155.51 1243.52 Q152.454 1238.91 152.454 1230.19 Q152.454 1221.44 155.51 1216.85 Q158.589 1212.25 164.399 1212.25 Z" fill="#000000" fill-rule="nonzero" fill-opacity="1" /><path clip-path="url(#clip570)" d="M184.561 1241.55 L189.445 1241.55 L189.445 1247.43 L184.561 1247.43 L184.561 1241.55 Z" fill="#000000" fill-rule="nonzero" fill-opacity="1" /><path clip-path="url(#clip570)" d="M203.658 1243.5 L219.977 1243.5 L219.977 1247.43 L198.033 1247.43 L198.033 1243.5 Q200.695 1240.74 205.278 1236.11 Q209.885 1231.46 211.065 1230.12 Q213.311 1227.59 214.19 1225.86 Q215.093 1224.1 215.093 1222.41 Q215.093 1219.65 213.149 1217.92 Q211.227 1216.18 208.125 1216.18 Q205.926 1216.18 203.473 1216.94 Q201.042 1217.71 198.264 1219.26 L198.264 1214.54 Q201.088 1213.4 203.542 1212.82 Q205.996 1212.25 208.033 1212.25 Q213.403 1212.25 216.598 1214.93 Q219.792 1217.62 219.792 1222.11 Q219.792 1224.24 218.982 1226.16 Q218.195 1228.06 216.088 1230.65 Q215.51 1231.32 212.408 1234.54 Q209.306 1237.73 203.658 1243.5 Z" fill="#000000" fill-rule="nonzero" fill-opacity="1" /><path clip-path="url(#clip570)" d="M114.26 998.995 L143.936 998.995 L143.936 1002.93 L114.26 1002.93 L114.26 998.995 Z" fill="#000000" fill-rule="nonzero" fill-opacity="1" /><path clip-path="url(#clip570)" d="M164.028 984.342 Q160.417 984.342 158.589 987.907 Q156.783 991.449 156.783 998.578 Q156.783 1005.68 158.589 1009.25 Q160.417 1012.79 164.028 1012.79 Q167.663 1012.79 169.468 1009.25 Q171.297 1005.68 171.297 998.578 Q171.297 991.449 169.468 987.907 Q167.663 984.342 164.028 984.342 M164.028 980.639 Q169.839 980.639 172.894 985.245 Q175.973 989.828 175.973 998.578 Q175.973 1007.31 172.894 1011.91 Q169.839 1016.49 164.028 1016.49 Q158.218 1016.49 155.14 1011.91 Q152.084 1007.31 152.084 998.578 Q152.084 989.828 155.14 985.245 Q158.218 980.639 164.028 980.639 Z" fill="#000000" fill-rule="nonzero" fill-opacity="1" /><path clip-path="url(#clip570)" d="M184.19 1009.94 L189.075 1009.94 L189.075 1015.82 L184.19 1015.82 L184.19 1009.94 Z" fill="#000000" fill-rule="nonzero" fill-opacity="1" /><path clip-path="url(#clip570)" d="M200.07 1011.89 L207.709 1011.89 L207.709 985.523 L199.399 987.189 L199.399 982.93 L207.662 981.264 L212.338 981.264 L212.338 1011.89 L219.977 1011.89 L219.977 1015.82 L200.07 1015.82 L200.07 1011.89 Z" fill="#000000" fill-rule="nonzero" fill-opacity="1" /><path clip-path="url(#clip570)" d="M162.802 752.735 Q159.19 752.735 157.362 756.3 Q155.556 759.841 155.556 766.971 Q155.556 774.077 157.362 777.642 Q159.19 781.184 162.802 781.184 Q166.436 781.184 168.241 777.642 Q170.07 774.077 170.07 766.971 Q170.07 759.841 168.241 756.3 Q166.436 752.735 162.802 752.735 M162.802 749.031 Q168.612 749.031 171.667 753.638 Q174.746 758.221 174.746 766.971 Q174.746 775.698 171.667 780.304 Q168.612 784.888 162.802 784.888 Q156.991 784.888 153.913 780.304 Q150.857 775.698 150.857 766.971 Q150.857 758.221 153.913 753.638 Q156.991 749.031 162.802 749.031 Z" fill="#000000" fill-rule="nonzero" fill-opacity="1" /><path clip-path="url(#clip570)" d="M182.963 778.337 L187.848 778.337 L187.848 784.216 L182.963 784.216 L182.963 778.337 Z" fill="#000000" fill-rule="nonzero" fill-opacity="1" /><path clip-path="url(#clip570)" d="M208.033 752.735 Q204.422 752.735 202.593 756.3 Q200.787 759.841 200.787 766.971 Q200.787 774.077 202.593 777.642 Q204.422 781.184 208.033 781.184 Q211.667 781.184 213.473 777.642 Q215.301 774.077 215.301 766.971 Q215.301 759.841 213.473 756.3 Q211.667 752.735 208.033 752.735 M208.033 749.031 Q213.843 749.031 216.898 753.638 Q219.977 758.221 219.977 766.971 Q219.977 775.698 216.898 780.304 Q213.843 784.888 208.033 784.888 Q202.223 784.888 199.144 780.304 Q196.088 775.698 196.088 766.971 Q196.088 758.221 199.144 753.638 Q202.223 749.031 208.033 749.031 Z" fill="#000000" fill-rule="nonzero" fill-opacity="1" /><path clip-path="url(#clip570)" d="M164.028 521.128 Q160.417 521.128 158.589 524.693 Q156.783 528.234 156.783 535.364 Q156.783 542.47 158.589 546.035 Q160.417 549.577 164.028 549.577 Q167.663 549.577 169.468 546.035 Q171.297 542.47 171.297 535.364 Q171.297 528.234 169.468 524.693 Q167.663 521.128 164.028 521.128 M164.028 517.424 Q169.839 517.424 172.894 522.031 Q175.973 526.614 175.973 535.364 Q175.973 544.091 172.894 548.697 Q169.839 553.28 164.028 553.28 Q158.218 553.28 155.14 548.697 Q152.084 544.091 152.084 535.364 Q152.084 526.614 155.14 522.031 Q158.218 517.424 164.028 517.424 Z" fill="#000000" fill-rule="nonzero" fill-opacity="1" /><path clip-path="url(#clip570)" d="M184.19 546.729 L189.075 546.729 L189.075 552.609 L184.19 552.609 L184.19 546.729 Z" fill="#000000" fill-rule="nonzero" fill-opacity="1" /><path clip-path="url(#clip570)" d="M200.07 548.674 L207.709 548.674 L207.709 522.308 L199.399 523.975 L199.399 519.716 L207.662 518.049 L212.338 518.049 L212.338 548.674 L219.977 548.674 L219.977 552.609 L200.07 552.609 L200.07 548.674 Z" fill="#000000" fill-rule="nonzero" fill-opacity="1" /><path clip-path="url(#clip570)" d="M164.399 289.52 Q160.788 289.52 158.959 293.085 Q157.153 296.627 157.153 303.757 Q157.153 310.863 158.959 314.428 Q160.788 317.969 164.399 317.969 Q168.033 317.969 169.839 314.428 Q171.667 310.863 171.667 303.757 Q171.667 296.627 169.839 293.085 Q168.033 289.52 164.399 289.52 M164.399 285.817 Q170.209 285.817 173.264 290.423 Q176.343 295.007 176.343 303.757 Q176.343 312.483 173.264 317.09 Q170.209 321.673 164.399 321.673 Q158.589 321.673 155.51 317.09 Q152.454 312.483 152.454 303.757 Q152.454 295.007 155.51 290.423 Q158.589 285.817 164.399 285.817 Z" fill="#000000" fill-rule="nonzero" fill-opacity="1" /><path clip-path="url(#clip570)" d="M184.561 315.122 L189.445 315.122 L189.445 321.002 L184.561 321.002 L184.561 315.122 Z" fill="#000000" fill-rule="nonzero" fill-opacity="1" /><path clip-path="url(#clip570)" d="M203.658 317.067 L219.977 317.067 L219.977 321.002 L198.033 321.002 L198.033 317.067 Q200.695 314.312 205.278 309.682 Q209.885 305.03 211.065 303.687 Q213.311 301.164 214.19 299.428 Q215.093 297.669 215.093 295.979 Q215.093 293.224 213.149 291.488 Q211.227 289.752 208.125 289.752 Q205.926 289.752 203.473 290.516 Q201.042 291.28 198.264 292.831 L198.264 288.108 Q201.088 286.974 203.542 286.396 Q205.996 285.817 208.033 285.817 Q213.403 285.817 216.598 288.502 Q219.792 291.187 219.792 295.678 Q219.792 297.807 218.982 299.729 Q218.195 301.627 216.088 304.219 Q215.51 304.891 212.408 308.108 Q209.306 311.303 203.658 317.067 Z" fill="#000000" fill-rule="nonzero" fill-opacity="1" /><path clip-path="url(#clip570)" d="M16.4842 839.434 L16.4842 829.853 L48.8219 817.727 L16.4842 805.536 L16.4842 795.956 L64.0042 795.956 L64.0042 802.226 L22.277 802.226 L54.8694 814.48 L54.8694 820.941 L22.277 833.195 L64.0042 833.195 L64.0042 839.434 L16.4842 839.434 Z" fill="#000000" fill-rule="nonzero" fill-opacity="1" /><path clip-path="url(#clip570)" d="M41.7242 760.658 Q42.4244 758.589 44.7161 756.648 Q47.0077 754.674 51.0181 752.701 L64.0042 746.176 L64.0042 753.083 L51.8138 759.162 Q47.0395 761.518 45.48 763.746 Q43.9204 765.942 43.9204 769.761 L43.9204 776.763 L64.0042 776.763 L64.0042 783.193 L16.4842 783.193 L16.4842 768.679 Q16.4842 760.531 19.8898 756.521 Q23.2955 752.51 30.1704 752.51 Q34.6582 752.51 37.6183 754.611 Q40.5784 756.68 41.7242 760.658 M21.7677 776.763 L38.6368 776.763 L38.6368 768.679 Q38.6368 764.032 36.5043 761.677 Q34.34 759.29 30.1704 759.29 Q26.0009 759.29 23.9002 761.677 Q21.7677 764.032 21.7677 768.679 L21.7677 776.763 Z" fill="#000000" fill-rule="nonzero" fill-opacity="1" /><path clip-path="url(#clip570)" d="M21.7677 731.471 L39.6235 731.471 L39.6235 723.387 Q39.6235 718.899 37.3 716.448 Q34.9765 713.998 30.6797 713.998 Q26.4147 713.998 24.0912 716.448 Q21.7677 718.899 21.7677 723.387 L21.7677 731.471 M16.4842 737.901 L16.4842 723.387 Q16.4842 715.398 20.1126 711.324 Q23.7092 707.218 30.6797 707.218 Q37.7138 707.218 41.3104 711.324 Q44.907 715.398 44.907 723.387 L44.907 731.471 L64.0042 731.471 L64.0042 737.901 L16.4842 737.901 Z" fill="#000000" fill-rule="nonzero" fill-opacity="1" /><path clip-path="url(#clip570)" d="M1034.68 20.1573 L1023.58 50.2555 L1045.82 50.2555 L1034.68 20.1573 M1030.06 12.096 L1039.34 12.096 L1062.39 72.576 L1053.88 72.576 L1048.37 57.061 L1021.11 57.061 L1015.6 72.576 L1006.97 72.576 L1030.06 12.096 Z" fill="#000000" fill-rule="nonzero" fill-opacity="1" /><path clip-path="url(#clip570)" d="M1076.81 14.324 L1076.81 27.2059 L1092.16 27.2059 L1092.16 32.9987 L1076.81 32.9987 L1076.81 57.6282 Q1076.81 63.1779 1078.31 64.7578 Q1079.85 66.3376 1084.5 66.3376 L1092.16 66.3376 L1092.16 72.576 L1084.5 72.576 Q1075.88 72.576 1072.59 69.3758 Q1069.31 66.1351 1069.31 57.6282 L1069.31 32.9987 L1063.84 32.9987 L1063.84 27.2059 L1069.31 27.2059 L1069.31 14.324 L1076.81 14.324 Z" fill="#000000" fill-rule="nonzero" fill-opacity="1" /><path clip-path="url(#clip570)" d="M1109.34 14.324 L1109.34 27.2059 L1124.69 27.2059 L1124.69 32.9987 L1109.34 32.9987 L1109.34 57.6282 Q1109.34 63.1779 1110.83 64.7578 Q1112.37 66.3376 1117.03 66.3376 L1124.69 66.3376 L1124.69 72.576 L1117.03 72.576 Q1108.4 72.576 1105.12 69.3758 Q1101.84 66.1351 1101.84 57.6282 L1101.84 32.9987 L1096.37 32.9987 L1096.37 27.2059 L1101.84 27.2059 L1101.84 14.324 L1109.34 14.324 Z" fill="#000000" fill-rule="nonzero" fill-opacity="1" /><path clip-path="url(#clip570)" d="M1134.49 27.2059 L1141.95 27.2059 L1141.95 72.576 L1134.49 72.576 L1134.49 27.2059 M1134.49 9.54393 L1141.95 9.54393 L1141.95 18.9825 L1134.49 18.9825 L1134.49 9.54393 Z" fill="#000000" fill-rule="nonzero" fill-opacity="1" /><path clip-path="url(#clip570)" d="M1164.91 14.324 L1164.91 27.2059 L1180.27 27.2059 L1180.27 32.9987 L1164.91 32.9987 L1164.91 57.6282 Q1164.91 63.1779 1166.41 64.7578 Q1167.95 66.3376 1172.61 66.3376 L1180.27 66.3376 L1180.27 72.576 L1172.61 72.576 Q1163.98 72.576 1160.7 69.3758 Q1157.42 66.1351 1157.42 57.6282 L1157.42 32.9987 L1151.95 32.9987 L1151.95 27.2059 L1157.42 27.2059 L1157.42 14.324 L1164.91 14.324 Z" fill="#000000" fill-rule="nonzero" fill-opacity="1" /><path clip-path="url(#clip570)" d="M1189.3 54.671 L1189.3 27.2059 L1196.75 27.2059 L1196.75 54.3874 Q1196.75 60.8284 1199.27 64.0691 Q1201.78 67.2693 1206.8 67.2693 Q1212.84 67.2693 1216.32 63.421 Q1219.84 59.5726 1219.84 52.9291 L1219.84 27.2059 L1227.3 27.2059 L1227.3 72.576 L1219.84 72.576 L1219.84 65.6084 Q1217.13 69.7404 1213.53 71.7658 Q1209.96 73.7508 1205.22 73.7508 Q1197.4 73.7508 1193.35 68.8897 Q1189.3 64.0286 1189.3 54.671 M1208.06 26.1121 L1208.06 26.1121 Z" fill="#000000" fill-rule="nonzero" fill-opacity="1" /><path clip-path="url(#clip570)" d="M1272.51 34.0924 L1272.51 9.54393 L1279.96 9.54393 L1279.96 72.576 L1272.51 72.576 L1272.51 65.7705 Q1270.16 69.8214 1266.55 71.8063 Q1262.99 73.7508 1257.96 73.7508 Q1249.74 73.7508 1244.55 67.1883 Q1239.41 60.6258 1239.41 49.9314 Q1239.41 39.2371 1244.55 32.6746 Q1249.74 26.1121 1257.96 26.1121 Q1262.99 26.1121 1266.55 28.0971 Q1270.16 30.0415 1272.51 34.0924 M1247.11 49.9314 Q1247.11 58.1548 1250.47 62.8538 Q1253.87 67.5124 1259.79 67.5124 Q1265.7 67.5124 1269.1 62.8538 Q1272.51 58.1548 1272.51 49.9314 Q1272.51 41.7081 1269.1 37.0496 Q1265.7 32.3505 1259.79 32.3505 Q1253.87 32.3505 1250.47 37.0496 Q1247.11 41.7081 1247.11 49.9314 Z" fill="#000000" fill-rule="nonzero" fill-opacity="1" /><path clip-path="url(#clip570)" d="M1334.12 48.0275 L1334.12 51.6733 L1299.85 51.6733 Q1300.34 59.3701 1304.47 63.421 Q1308.64 67.4314 1316.05 67.4314 Q1320.35 67.4314 1324.36 66.3781 Q1328.41 65.3249 1332.38 63.2184 L1332.38 70.267 Q1328.37 71.9684 1324.16 72.8596 Q1319.94 73.7508 1315.61 73.7508 Q1304.75 73.7508 1298.39 67.4314 Q1292.07 61.1119 1292.07 50.3365 Q1292.07 39.1965 1298.07 32.6746 Q1304.1 26.1121 1314.31 26.1121 Q1323.47 26.1121 1328.77 32.0264 Q1334.12 37.9003 1334.12 48.0275 M1326.67 45.84 Q1326.59 39.7232 1323.22 36.0774 Q1319.9 32.4315 1314.39 32.4315 Q1308.15 32.4315 1304.39 35.9558 Q1300.66 39.4801 1300.09 45.8805 L1326.67 45.84 Z" fill="#000000" fill-rule="nonzero" fill-opacity="1" /><path clip-path="url(#clip570)" d="M1390.63 9.62495 Q1385.2 18.942 1382.57 28.0566 Q1379.94 37.1711 1379.94 46.5287 Q1379.94 55.8863 1382.57 65.0818 Q1385.24 74.2369 1390.63 83.5134 L1384.15 83.5134 Q1378.07 73.9938 1375.03 64.7983 Q1372.04 55.6027 1372.04 46.5287 Q1372.04 37.4952 1375.03 28.3401 Q1378.03 19.1851 1384.15 9.62495 L1390.63 9.62495 Z" fill="#000000" fill-rule="nonzero" fill-opacity="1" /><path clip-path="url(#clip570)" d="M1405.42 12.096 L1417.61 12.096 L1433.04 53.2532 L1448.56 12.096 L1460.75 12.096 L1460.75 72.576 L1452.77 72.576 L1452.77 19.4686 L1437.18 60.9499 L1428.95 60.9499 L1413.36 19.4686 L1413.36 72.576 L1405.42 72.576 L1405.42 12.096 Z" fill="#000000" fill-rule="nonzero" fill-opacity="1" /><path clip-path="url(#clip570)" d="M1505.68 44.2197 Q1508.31 45.1109 1510.78 48.0275 Q1513.29 50.9442 1515.8 56.0483 L1524.11 72.576 L1515.32 72.576 L1507.58 57.061 Q1504.58 50.9847 1501.75 48.9997 Q1498.95 47.0148 1494.09 47.0148 L1485.18 47.0148 L1485.18 72.576 L1477 72.576 L1477 12.096 L1495.47 12.096 Q1505.84 12.096 1510.94 16.4305 Q1516.05 20.7649 1516.05 29.5149 Q1516.05 35.2267 1513.37 38.994 Q1510.74 42.7613 1505.68 44.2197 M1485.18 18.8205 L1485.18 40.2903 L1495.47 40.2903 Q1501.38 40.2903 1504.38 37.5762 Q1507.42 34.8216 1507.42 29.5149 Q1507.42 24.2082 1504.38 21.5346 Q1501.38 18.8205 1495.47 18.8205 L1485.18 18.8205 Z" fill="#000000" fill-rule="nonzero" fill-opacity="1" /><path clip-path="url(#clip570)" d="M1542.82 18.8205 L1542.82 41.5461 L1553.11 41.5461 Q1558.82 41.5461 1561.94 38.5889 Q1565.06 35.6318 1565.06 30.163 Q1565.06 24.7348 1561.94 21.7777 Q1558.82 18.8205 1553.11 18.8205 L1542.82 18.8205 M1534.64 12.096 L1553.11 12.096 Q1563.28 12.096 1568.47 16.714 Q1573.69 21.2916 1573.69 30.163 Q1573.69 39.1155 1568.47 43.6931 Q1563.28 48.2706 1553.11 48.2706 L1542.82 48.2706 L1542.82 72.576 L1534.64 72.576 L1534.64 12.096 Z" fill="#000000" fill-rule="nonzero" fill-opacity="1" /><path clip-path="url(#clip570)" d="M1583.17 9.62495 L1589.65 9.62495 Q1595.73 19.1851 1598.73 28.3401 Q1601.76 37.4952 1601.76 46.5287 Q1601.76 55.6027 1598.73 64.7983 Q1595.73 73.9938 1589.65 83.5134 L1583.17 83.5134 Q1588.56 74.2369 1591.19 65.0818 Q1593.86 55.8863 1593.86 46.5287 Q1593.86 37.1711 1591.19 28.0566 Q1588.56 18.942 1583.17 9.62495 Z" fill="#000000" fill-rule="nonzero" fill-opacity="1" /><polyline clip-path="url(#clip572)" style="stroke:#009af9; stroke-linecap:round; stroke-linejoin:round; stroke-width:4; stroke-opacity:1; fill:none" points="315.32,766.936 335.101,829.055 354.882,948.614 374.663,1055.62 394.444,1146.37 414.225,1220.52 434.006,1278.8 453.786,1322.62 473.567,1353.68 493.348,1373.68 513.129,1384.16 532.91,1386.4 552.691,1381.3 572.472,1369.48 592.253,1351.24 612.034,1326.68 631.815,1295.73 651.596,1258.32 671.377,1214.42 691.158,1164.19 710.939,1107.98 730.72,1046.4 750.5,980.272 770.281,910.572 790.062,838.383 809.843,764.834 829.624,691.085 849.405,618.313 869.186,547.711 888.967,480.458 908.748,417.674 928.529,360.351 948.31,309.308 968.091,265.16 987.872,228.341 1007.65,199.16 1027.43,177.879 1047.21,164.787 1067,160.256 1086.78,164.752 1106.56,178.792 1126.34,202.843 1146.12,237.183 1165.9,281.732 1185.68,335.929 1205.46,398.691 1225.24,468.509 1245.02,543.645 1264.8,622.391 1284.59,703.25 1304.37,784.991 1324.15,866.544 1343.93,946.802 1363.71,1024.45 1383.49,1097.91 1403.27,1165.45 1423.05,1225.39 1442.83,1276.38 1462.61,1317.5 1482.39,1348.38 1502.18,1369.07 1521.96,1379.92 1541.74,1381.4 1561.52,1374 1581.3,1358.15 1601.08,1334.15 1620.86,1302.29 1640.64,1262.84 1660.42,1216.16 1680.2,1162.78 1699.99,1103.44 1719.77,1039.05 1739.55,970.697 1759.33,899.574 1779.11,826.905 1798.89,753.924 1818.67,681.867 1838.45,611.973 1858.23,545.47 1878.01,483.536 1897.79,427.233 1917.58,377.419 1937.36,334.691 1957.14,299.354 1976.92,271.433 1996.7,250.716 2016.48,236.817 2036.26,229.226 2056.04,227.361 2075.82,230.58 2095.6,238.195 2115.38,249.465 2135.17,263.587 2154.95,279.705 2174.73,296.922 2194.51,314.332 2214.29,331.063 2234.07,346.334 2253.85,359.501 2273.63,370.024 2293.41,374.743 "/>
<polyline clip-path="url(#clip572)" style="stroke:#e26f46; stroke-linecap:round; stroke-linejoin:round; stroke-width:4; stroke-opacity:1; fill:none" points="315.32,766.936 335.101,781.69 354.882,810.707 374.663,838.444 394.444,864.362 414.225,888.391 434.006,910.549 453.786,930.955 473.567,949.814 493.348,967.394 513.129,983.995 532.91,999.923 552.691,1015.47 572.472,1030.88 592.253,1046.36 612.034,1062.04 631.815,1077.96 651.596,1094.07 671.377,1110.23 691.158,1126.2 710.939,1141.7 730.72,1156.39 750.5,1169.95 770.281,1182.06 790.062,1192.49 809.843,1201.03 829.624,1207.56 849.405,1212 869.186,1214.34 888.967,1214.61 908.748,1212.93 928.529,1209.46 948.31,1204.36 968.091,1197.81 987.872,1189.92 1007.65,1180.73 1027.43,1170.17 1047.21,1158.08 1067,1144.16 1086.78,1128.04 1106.56,1109.3 1126.34,1087.56 1146.12,1062.49 1165.9,1033.94 1185.68,1001.98 1205.46,966.916 1225.24,929.268 1245.02,889.663 1264.8,848.74 1284.59,807.064 1304.37,765.1 1324.15,723.252 1343.93,681.942 1363.71,641.676 1383.49,603.057 1403.27,566.733 1423.05,533.295 1442.83,503.171 1462.61,476.552 1482.39,453.384 1502.18,433.401 1521.96,416.199 1541.74,401.31 1561.52,388.276 1581.3,376.699 1601.08,366.282 1620.86,356.845 1640.64,348.329 1660.42,340.785 1680.2,334.352 1699.99,329.218 1719.77,325.589 1739.55,323.65 1759.33,323.543 1779.11,325.358 1798.89,329.129 1818.67,334.834 1838.45,342.395 1858.23,351.673 1878.01,362.474 1897.79,374.553 1917.58,387.633 1937.36,401.435 1957.14,415.703 1976.92,430.228 1996.7,444.855 2016.48,459.482 2036.26,474.048 2056.04,488.511 2075.82,502.834 2095.6,516.955 2115.38,530.783 2135.17,544.182 2154.95,556.977 2174.73,568.956 2194.51,579.895 2214.29,589.564 2234.07,597.756 2253.85,604.299 2273.63,609.038 2293.41,611.065 "/>
<polyline clip-path="url(#clip572)" style="stroke:#3da44d; stroke-linecap:round; stroke-linejoin:round; stroke-width:4; stroke-opacity:1; fill:none" points="315.32,766.936 335.101,768.833 354.882,773.626 374.663,779.841 394.444,786.571 414.225,793.258 434.006,799.569 453.786,805.306 473.567,810.344 493.348,814.587 513.129,817.939 532.91,820.288 552.691,821.496 572.472,821.402 592.253,819.828 612.034,816.59 631.815,811.523 651.596,804.5 671.377,795.454 691.158,784.405 710.939,771.458 730.72,756.812 750.5,740.736 770.281,723.551 790.062,705.603 809.843,687.249 829.624,668.847 849.405,650.75 869.186,633.309 888.967,616.859 908.748,601.703 928.529,588.094 948.31,576.207 968.091,566.132 987.872,557.864 1007.65,551.313 1027.43,546.319 1047.21,542.67 1067,540.126 1086.78,538.435 1106.56,537.356 1126.34,536.678 1146.12,536.236 1165.9,535.923 1185.68,535.696 1205.46,535.565 1225.24,535.581 1245.02,535.806 1264.8,536.298 1284.59,537.097 1304.37,538.224 1324.15,539.676 1343.93,541.431 1363.71,543.441 1383.49,545.638 1403.27,547.939 1423.05,550.268 1442.83,552.584 1462.61,554.905 1482.39,557.322 1502.18,560 1521.96,563.165 1541.74,567.089 1561.52,572.061 1581.3,578.372 1601.08,586.285 1620.86,596.013 1640.64,607.696 1660.42,621.379 1680.2,637.002 1699.99,654.397 1719.77,673.307 1739.55,693.402 1759.33,714.313 1779.11,735.655 1798.89,757.037 1818.67,778.073 1838.45,798.382 1858.23,817.592 1878.01,835.359 1897.79,851.389 1917.58,865.465 1937.36,877.467 1957.14,887.381 1976.92,895.289 1996.7,901.352 2016.48,905.783 2036.26,908.818 2056.04,910.696 2075.82,911.64 2095.6,911.845 2115.38,911.474 2135.17,910.661 2154.95,909.51 2174.73,908.106 2194.51,906.519 2214.29,904.822 2234.07,903.094 2253.85,901.448 2273.63,900.06 2293.41,899.279 "/>
<path clip-path="url(#clip570)" d="M325.87 374.156 L611.682 374.156 L611.682 166.796 L325.87 166.796  Z" fill="#ffffff" fill-rule="evenodd" fill-opacity="1"/>
<polyline clip-path="url(#clip570)" style="stroke:#000000; stroke-linecap:round; stroke-linejoin:round; stroke-width:4; stroke-opacity:1; fill:none" points="325.87,374.156 611.682,374.156 611.682,166.796 325.87,166.796 325.87,374.156 "/>
<polyline clip-path="url(#clip570)" style="stroke:#009af9; stroke-linecap:round; stroke-linejoin:round; stroke-width:4; stroke-opacity:1; fill:none" points="349.167,218.636 488.953,218.636 "/>
<path clip-path="url(#clip570)" d="M516.533 232.027 L516.533 245.777 L512.25 245.777 L512.25 209.99 L516.533 209.99 L516.533 213.925 Q517.875 211.61 519.912 210.499 Q521.972 209.365 524.82 209.365 Q529.542 209.365 532.482 213.115 Q535.444 216.865 535.444 222.976 Q535.444 229.087 532.482 232.837 Q529.542 236.587 524.82 236.587 Q521.972 236.587 519.912 235.476 Q517.875 234.342 516.533 232.027 M531.023 222.976 Q531.023 218.277 529.079 215.615 Q527.157 212.93 523.778 212.93 Q520.398 212.93 518.454 215.615 Q516.533 218.277 516.533 222.976 Q516.533 227.675 518.454 230.36 Q520.398 233.022 523.778 233.022 Q527.157 233.022 529.079 230.36 Q531.023 227.675 531.023 222.976 Z" fill="#000000" fill-rule="nonzero" fill-opacity="1" /><path clip-path="url(#clip570)" d="M562.204 243.786 L562.204 247.096 L537.574 247.096 L537.574 243.786 L562.204 243.786 Z" fill="#000000" fill-rule="nonzero" fill-opacity="1" /><path clip-path="url(#clip570)" d="M587.759 209.99 L578.384 222.606 L588.245 235.916 L583.222 235.916 L575.676 225.731 L568.129 235.916 L563.106 235.916 L573.176 222.351 L563.963 209.99 L568.986 209.99 L575.861 219.226 L582.736 209.99 L587.759 209.99 Z" fill="#000000" fill-rule="nonzero" fill-opacity="1" /><polyline clip-path="url(#clip570)" style="stroke:#e26f46; stroke-linecap:round; stroke-linejoin:round; stroke-width:4; stroke-opacity:1; fill:none" points="349.167,270.476 488.953,270.476 "/>
<path clip-path="url(#clip570)" d="M516.533 283.867 L516.533 297.617 L512.25 297.617 L512.25 261.83 L516.533 261.83 L516.533 265.765 Q517.875 263.45 519.912 262.339 Q521.972 261.205 524.82 261.205 Q529.542 261.205 532.482 264.955 Q535.444 268.705 535.444 274.816 Q535.444 280.927 532.482 284.677 Q529.542 288.427 524.82 288.427 Q521.972 288.427 519.912 287.316 Q517.875 286.182 516.533 283.867 M531.023 274.816 Q531.023 270.117 529.079 267.455 Q527.157 264.77 523.778 264.77 Q520.398 264.77 518.454 267.455 Q516.533 270.117 516.533 274.816 Q516.533 279.515 518.454 282.2 Q520.398 284.862 523.778 284.862 Q527.157 284.862 529.079 282.2 Q531.023 279.515 531.023 274.816 Z" fill="#000000" fill-rule="nonzero" fill-opacity="1" /><path clip-path="url(#clip570)" d="M562.204 295.626 L562.204 298.936 L537.574 298.936 L537.574 295.626 L562.204 295.626 Z" fill="#000000" fill-rule="nonzero" fill-opacity="1" /><path clip-path="url(#clip570)" d="M576.995 290.163 Q575.19 294.793 573.477 296.205 Q571.764 297.617 568.893 297.617 L565.491 297.617 L565.491 294.052 L567.991 294.052 Q569.75 294.052 570.722 293.219 Q571.694 292.385 572.875 289.283 L573.639 287.339 L563.153 261.83 L567.667 261.83 L575.768 282.108 L583.87 261.83 L588.384 261.83 L576.995 290.163 Z" fill="#000000" fill-rule="nonzero" fill-opacity="1" /><polyline clip-path="url(#clip570)" style="stroke:#3da44d; stroke-linecap:round; stroke-linejoin:round; stroke-width:4; stroke-opacity:1; fill:none" points="349.167,322.316 488.953,322.316 "/>
<path clip-path="url(#clip570)" d="M516.533 335.707 L516.533 349.457 L512.25 349.457 L512.25 313.67 L516.533 313.67 L516.533 317.605 Q517.875 315.29 519.912 314.179 Q521.972 313.045 524.82 313.045 Q529.542 313.045 532.482 316.795 Q535.444 320.545 535.444 326.656 Q535.444 332.767 532.482 336.517 Q529.542 340.267 524.82 340.267 Q521.972 340.267 519.912 339.156 Q517.875 338.022 516.533 335.707 M531.023 326.656 Q531.023 321.957 529.079 319.295 Q527.157 316.61 523.778 316.61 Q520.398 316.61 518.454 319.295 Q516.533 321.957 516.533 326.656 Q516.533 331.355 518.454 334.04 Q520.398 336.702 523.778 336.702 Q527.157 336.702 529.079 334.04 Q531.023 331.355 531.023 326.656 Z" fill="#000000" fill-rule="nonzero" fill-opacity="1" /><path clip-path="url(#clip570)" d="M562.204 347.466 L562.204 350.776 L537.574 350.776 L537.574 347.466 L562.204 347.466 Z" fill="#000000" fill-rule="nonzero" fill-opacity="1" /><path clip-path="url(#clip570)" d="M564.356 313.67 L584.588 313.67 L584.588 317.559 L568.569 336.193 L584.588 336.193 L584.588 339.596 L563.778 339.596 L563.778 335.707 L579.796 317.073 L564.356 317.073 L564.356 313.67 Z" fill="#000000" fill-rule="nonzero" fill-opacity="1" /></svg>
