<?xml version="1.0" encoding="utf-8"?>
<svg xmlns="http://www.w3.org/2000/svg" xmlns:xlink="http://www.w3.org/1999/xlink" width="600" height="400" viewBox="0 0 2400 1600">
<defs>
  <clipPath id="clip030">
    <rect x="0" y="0" width="2400" height="1600"/>
  </clipPath>
</defs>
<path clip-path="url(#clip030)" d="M0 1600 L2400 1600 L2400 0 L0 0  Z" fill="#ffffff" fill-rule="evenodd" fill-opacity="1"/>
<defs>
  <clipPath id="clip031">
    <rect x="480" y="0" width="1681" height="1600"/>
  </clipPath>
</defs>
<path clip-path="url(#clip030)" d="M210.376 1423.18 L2352.76 1423.18 L2352.76 123.472 L210.376 123.472  Z" fill="#ffffff" fill-rule="evenodd" fill-opacity="1"/>
<defs>
  <clipPath id="clip032">
    <rect x="210" y="123" width="2143" height="1301"/>
  </clipPath>
</defs>
<polyline clip-path="url(#clip032)" style="stroke:#000000; stroke-linecap:round; stroke-linejoin:round; stroke-width:2; stroke-opacity:0.1; fill:none" points="271.009,1423.18 271.009,123.472 "/>
<polyline clip-path="url(#clip032)" style="stroke:#000000; stroke-linecap:round; stroke-linejoin:round; stroke-width:2; stroke-opacity:0.1; fill:none" points="776.287,1423.18 776.287,123.472 "/>
<polyline clip-path="url(#clip032)" style="stroke:#000000; stroke-linecap:round; stroke-linejoin:round; stroke-width:2; stroke-opacity:0.1; fill:none" points="1281.57,1423.18 1281.57,123.472 "/>
<polyline clip-path="url(#clip032)" style="stroke:#000000; stroke-linecap:round; stroke-linejoin:round; stroke-width:2; stroke-opacity:0.1; fill:none" points="1786.84,1423.18 1786.84,123.472 "/>
<polyline clip-path="url(#clip032)" style="stroke:#000000; stroke-linecap:round; stroke-linejoin:round; stroke-width:2; stroke-opacity:0.1; fill:none" points="2292.12,1423.18 2292.12,123.472 "/>
<polyline clip-path="url(#clip032)" style="stroke:#000000; stroke-linecap:round; stroke-linejoin:round; stroke-width:2; stroke-opacity:0.1; fill:none" points="210.376,1325.63 2352.76,1325.63 "/>
<polyline clip-path="url(#clip032)" style="stroke:#000000; stroke-linecap:round; stroke-linejoin:round; stroke-width:2; stroke-opacity:0.1; fill:none" points="210.376,1065.31 2352.76,1065.31 "/>
<polyline clip-path="url(#clip032)" style="stroke:#000000; stroke-linecap:round; stroke-linejoin:round; stroke-width:2; stroke-opacity:0.1; fill:none" points="210.376,805.002 2352.76,805.002 "/>
<polyline clip-path="url(#clip032)" style="stroke:#000000; stroke-linecap:round; stroke-linejoin:round; stroke-width:2; stroke-opacity:0.1; fill:none" points="210.376,544.69 2352.76,544.69 "/>
<polyline clip-path="url(#clip032)" style="stroke:#000000; stroke-linecap:round; stroke-linejoin:round; stroke-width:2; stroke-opacity:0.1; fill:none" points="210.376,284.378 2352.76,284.378 "/>
<polyline clip-path="url(#clip030)" style="stroke:#000000; stroke-linecap:round; stroke-linejoin:round; stroke-width:4; stroke-opacity:1; fill:none" points="210.376,1423.18 2352.76,1423.18 "/>
<polyline clip-path="url(#clip030)" style="stroke:#000000; stroke-linecap:round; stroke-linejoin:round; stroke-width:4; stroke-opacity:1; fill:none" points="271.009,1423.18 271.009,1404.28 "/>
<polyline clip-path="url(#clip030)" style="stroke:#000000; stroke-linecap:round; stroke-linejoin:round; stroke-width:4; stroke-opacity:1; fill:none" points="776.287,1423.18 776.287,1404.28 "/>
<polyline clip-path="url(#clip030)" style="stroke:#000000; stroke-linecap:round; stroke-linejoin:round; stroke-width:4; stroke-opacity:1; fill:none" points="1281.57,1423.18 1281.57,1404.28 "/>
<polyline clip-path="url(#clip030)" style="stroke:#000000; stroke-linecap:round; stroke-linejoin:round; stroke-width:4; stroke-opacity:1; fill:none" points="1786.84,1423.18 1786.84,1404.28 "/>
<polyline clip-path="url(#clip030)" style="stroke:#000000; stroke-linecap:round; stroke-linejoin:round; stroke-width:4; stroke-opacity:1; fill:none" points="2292.12,1423.18 2292.12,1404.28 "/>
<path clip-path="url(#clip030)" d="M248.393 1454.1 Q244.782 1454.1 242.954 1457.66 Q241.148 1461.2 241.148 1468.33 Q241.148 1475.44 242.954 1479.01 Q244.782 1482.55 248.393 1482.55 Q252.028 1482.55 253.833 1479.01 Q255.662 1475.44 255.662 1468.33 Q255.662 1461.2 253.833 1457.66 Q252.028 1454.1 248.393 1454.1 M248.393 1450.39 Q254.204 1450.39 257.259 1455 Q260.338 1459.58 260.338 1468.33 Q260.338 1477.06 257.259 1481.67 Q254.204 1486.25 248.393 1486.25 Q242.583 1486.25 239.505 1481.67 Q236.449 1477.06 236.449 1468.33 Q236.449 1459.58 239.505 1455 Q242.583 1450.39 248.393 1450.39 Z" fill="#000000" fill-rule="nonzero" fill-opacity="1" /><path clip-path="url(#clip030)" d="M268.555 1479.7 L273.44 1479.7 L273.44 1485.58 L268.555 1485.58 L268.555 1479.7 Z" fill="#000000" fill-rule="nonzero" fill-opacity="1" /><path clip-path="url(#clip030)" d="M293.625 1454.1 Q290.014 1454.1 288.185 1457.66 Q286.379 1461.2 286.379 1468.33 Q286.379 1475.44 288.185 1479.01 Q290.014 1482.55 293.625 1482.55 Q297.259 1482.55 299.064 1479.01 Q300.893 1475.44 300.893 1468.33 Q300.893 1461.2 299.064 1457.66 Q297.259 1454.1 293.625 1454.1 M293.625 1450.39 Q299.435 1450.39 302.49 1455 Q305.569 1459.58 305.569 1468.33 Q305.569 1477.06 302.49 1481.67 Q299.435 1486.25 293.625 1486.25 Q287.814 1486.25 284.736 1481.67 Q281.68 1477.06 281.68 1468.33 Q281.68 1459.58 284.736 1455 Q287.814 1450.39 293.625 1450.39 Z" fill="#000000" fill-rule="nonzero" fill-opacity="1" /><path clip-path="url(#clip030)" d="M754.169 1454.1 Q750.558 1454.1 748.73 1457.66 Q746.924 1461.2 746.924 1468.33 Q746.924 1475.44 748.73 1479.01 Q750.558 1482.55 754.169 1482.55 Q757.804 1482.55 759.609 1479.01 Q761.438 1475.44 761.438 1468.33 Q761.438 1461.2 759.609 1457.66 Q757.804 1454.1 754.169 1454.1 M754.169 1450.39 Q759.98 1450.39 763.035 1455 Q766.114 1459.58 766.114 1468.33 Q766.114 1477.06 763.035 1481.67 Q759.98 1486.25 754.169 1486.25 Q748.359 1486.25 745.281 1481.67 Q742.225 1477.06 742.225 1468.33 Q742.225 1459.58 745.281 1455 Q748.359 1450.39 754.169 1450.39 Z" fill="#000000" fill-rule="nonzero" fill-opacity="1" /><path clip-path="url(#clip030)" d="M774.331 1479.7 L779.216 1479.7 L779.216 1485.58 L774.331 1485.58 L774.331 1479.7 Z" fill="#000000" fill-rule="nonzero" fill-opacity="1" /><path clip-path="url(#clip030)" d="M789.447 1451.02 L807.803 1451.02 L807.803 1454.96 L793.729 1454.96 L793.729 1463.43 Q794.748 1463.08 795.766 1462.92 Q796.785 1462.73 797.803 1462.73 Q803.59 1462.73 806.97 1465.9 Q810.35 1469.08 810.35 1474.49 Q810.35 1480.07 806.877 1483.17 Q803.405 1486.25 797.086 1486.25 Q794.91 1486.25 792.641 1485.88 Q790.396 1485.51 787.989 1484.77 L787.989 1480.07 Q790.072 1481.2 792.294 1481.76 Q794.516 1482.32 796.993 1482.32 Q800.998 1482.32 803.336 1480.21 Q805.674 1478.1 805.674 1474.49 Q805.674 1470.88 803.336 1468.77 Q800.998 1466.67 796.993 1466.67 Q795.118 1466.67 793.243 1467.08 Q791.391 1467.5 789.447 1468.38 L789.447 1451.02 Z" fill="#000000" fill-rule="nonzero" fill-opacity="1" /><path clip-path="url(#clip030)" d="M1248.72 1481.64 L1256.36 1481.64 L1256.36 1455.28 L1248.05 1456.95 L1248.05 1452.69 L1256.31 1451.02 L1260.99 1451.02 L1260.99 1481.64 L1268.63 1481.64 L1268.63 1485.58 L1248.72 1485.58 L1248.72 1481.64 Z" fill="#000000" fill-rule="nonzero" fill-opacity="1" /><path clip-path="url(#clip030)" d="M1278.07 1479.7 L1282.95 1479.7 L1282.95 1485.58 L1278.07 1485.58 L1278.07 1479.7 Z" fill="#000000" fill-rule="nonzero" fill-opacity="1" /><path clip-path="url(#clip030)" d="M1303.14 1454.1 Q1299.53 1454.1 1297.7 1457.66 Q1295.89 1461.2 1295.89 1468.33 Q1295.89 1475.44 1297.7 1479.01 Q1299.53 1482.55 1303.14 1482.55 Q1306.77 1482.55 1308.58 1479.01 Q1310.41 1475.44 1310.41 1468.33 Q1310.41 1461.2 1308.58 1457.66 Q1306.77 1454.1 1303.14 1454.1 M1303.14 1450.39 Q1308.95 1450.39 1312.01 1455 Q1315.08 1459.58 1315.08 1468.33 Q1315.08 1477.06 1312.01 1481.67 Q1308.95 1486.25 1303.14 1486.25 Q1297.33 1486.25 1294.25 1481.67 Q1291.2 1477.06 1291.2 1468.33 Q1291.2 1459.58 1294.25 1455 Q1297.33 1450.39 1303.14 1450.39 Z" fill="#000000" fill-rule="nonzero" fill-opacity="1" /><path clip-path="url(#clip030)" d="M1754.49 1481.64 L1762.13 1481.64 L1762.13 1455.28 L1753.82 1456.95 L1753.82 1452.69 L1762.09 1451.02 L1766.76 1451.02 L1766.76 1481.64 L1774.4 1481.64 L1774.4 1485.58 L1754.49 1485.58 L1754.49 1481.64 Z" fill="#000000" fill-rule="nonzero" fill-opacity="1" /><path clip-path="url(#clip030)" d="M1783.85 1479.7 L1788.73 1479.7 L1788.73 1485.58 L1783.85 1485.58 L1783.85 1479.7 Z" fill="#000000" fill-rule="nonzero" fill-opacity="1" /><path clip-path="url(#clip030)" d="M1798.96 1451.02 L1817.32 1451.02 L1817.32 1454.96 L1803.24 1454.96 L1803.24 1463.43 Q1804.26 1463.08 1805.28 1462.92 Q1806.3 1462.73 1807.32 1462.73 Q1813.11 1462.73 1816.49 1465.9 Q1819.86 1469.08 1819.86 1474.49 Q1819.86 1480.07 1816.39 1483.17 Q1812.92 1486.25 1806.6 1486.25 Q1804.43 1486.25 1802.16 1485.88 Q1799.91 1485.51 1797.5 1484.77 L1797.5 1480.07 Q1799.59 1481.2 1801.81 1481.76 Q1804.03 1482.32 1806.51 1482.32 Q1810.51 1482.32 1812.85 1480.21 Q1815.19 1478.1 1815.19 1474.49 Q1815.19 1470.88 1812.85 1468.77 Q1810.51 1466.67 1806.51 1466.67 Q1804.63 1466.67 1802.76 1467.08 Q1800.91 1467.5 1798.96 1468.38 L1798.96 1451.02 Z" fill="#000000" fill-rule="nonzero" fill-opacity="1" /><path clip-path="url(#clip030)" d="M2263.36 1481.64 L2279.68 1481.64 L2279.68 1485.58 L2257.74 1485.58 L2257.74 1481.64 Q2260.4 1478.89 2264.98 1474.26 Q2269.59 1469.61 2270.77 1468.27 Q2273.01 1465.74 2273.89 1464.01 Q2274.8 1462.25 2274.8 1460.56 Q2274.8 1457.8 2272.85 1456.07 Q2270.93 1454.33 2267.83 1454.33 Q2265.63 1454.33 2263.18 1455.09 Q2260.75 1455.86 2257.97 1457.41 L2257.97 1452.69 Q2260.79 1451.55 2263.25 1450.97 Q2265.7 1450.39 2267.74 1450.39 Q2273.11 1450.39 2276.3 1453.08 Q2279.5 1455.77 2279.5 1460.26 Q2279.5 1462.39 2278.69 1464.31 Q2277.9 1466.2 2275.79 1468.8 Q2275.21 1469.47 2272.11 1472.69 Q2269.01 1475.88 2263.36 1481.64 Z" fill="#000000" fill-rule="nonzero" fill-opacity="1" /><path clip-path="url(#clip030)" d="M2289.5 1479.7 L2294.38 1479.7 L2294.38 1485.58 L2289.5 1485.58 L2289.5 1479.7 Z" fill="#000000" fill-rule="nonzero" fill-opacity="1" /><path clip-path="url(#clip030)" d="M2314.56 1454.1 Q2310.95 1454.1 2309.12 1457.66 Q2307.32 1461.2 2307.32 1468.33 Q2307.32 1475.44 2309.12 1479.01 Q2310.95 1482.55 2314.56 1482.55 Q2318.2 1482.55 2320 1479.01 Q2321.83 1475.44 2321.83 1468.33 Q2321.83 1461.2 2320 1457.66 Q2318.2 1454.1 2314.56 1454.1 M2314.56 1450.39 Q2320.37 1450.39 2323.43 1455 Q2326.51 1459.58 2326.51 1468.33 Q2326.51 1477.06 2323.43 1481.67 Q2320.37 1486.25 2314.56 1486.25 Q2308.75 1486.25 2305.68 1481.67 Q2302.62 1477.06 2302.62 1468.33 Q2302.62 1459.58 2305.68 1455 Q2308.75 1450.39 2314.56 1450.39 Z" fill="#000000" fill-rule="nonzero" fill-opacity="1" /><path clip-path="url(#clip030)" d="M1169.02 1522.27 L1169.02 1532.4 L1181.08 1532.4 L1181.08 1536.95 L1169.02 1536.95 L1169.02 1556.3 Q1169.02 1560.66 1170.2 1561.9 Q1171.41 1563.14 1175.07 1563.14 L1181.08 1563.14 L1181.08 1568.04 L1175.07 1568.04 Q1168.29 1568.04 1165.71 1565.53 Q1163.13 1562.98 1163.13 1556.3 L1163.13 1536.95 L1158.83 1536.95 L1158.83 1532.4 L1163.13 1532.4 L1163.13 1522.27 L1169.02 1522.27 Z" fill="#000000" fill-rule="nonzero" fill-opacity="1" /><path clip-path="url(#clip030)" d="M1188.79 1532.4 L1194.64 1532.4 L1194.64 1568.04 L1188.79 1568.04 L1188.79 1532.4 M1188.79 1518.52 L1194.64 1518.52 L1194.64 1525.93 L1188.79 1525.93 L1188.79 1518.52 Z" fill="#000000" fill-rule="nonzero" fill-opacity="1" /><path clip-path="url(#clip030)" d="M1234.65 1539.24 Q1236.85 1535.29 1239.9 1533.41 Q1242.96 1531.54 1247.1 1531.54 Q1252.67 1531.54 1255.69 1535.45 Q1258.71 1539.33 1258.71 1546.53 L1258.71 1568.04 L1252.82 1568.04 L1252.82 1546.72 Q1252.82 1541.59 1251.01 1539.11 Q1249.2 1536.63 1245.47 1536.63 Q1240.92 1536.63 1238.28 1539.65 Q1235.64 1542.68 1235.64 1547.9 L1235.64 1568.04 L1229.75 1568.04 L1229.75 1546.72 Q1229.75 1541.56 1227.93 1539.11 Q1226.12 1536.63 1222.33 1536.63 Q1217.85 1536.63 1215.2 1539.68 Q1212.56 1542.71 1212.56 1547.9 L1212.56 1568.04 L1206.67 1568.04 L1206.67 1532.4 L1212.56 1532.4 L1212.56 1537.93 Q1214.57 1534.66 1217.37 1533.1 Q1220.17 1531.54 1224.02 1531.54 Q1227.9 1531.54 1230.61 1533.51 Q1233.35 1535.48 1234.65 1539.24 Z" fill="#000000" fill-rule="nonzero" fill-opacity="1" /><path clip-path="url(#clip030)" d="M1300.89 1548.76 L1300.89 1551.62 L1273.96 1551.62 Q1274.34 1557.67 1277.59 1560.85 Q1280.87 1564 1286.69 1564 Q1290.06 1564 1293.21 1563.17 Q1296.4 1562.35 1299.52 1560.69 L1299.52 1566.23 Q1296.37 1567.57 1293.06 1568.27 Q1289.75 1568.97 1286.34 1568.97 Q1277.81 1568.97 1272.81 1564 Q1267.85 1559.04 1267.85 1550.57 Q1267.85 1541.82 1272.56 1536.69 Q1277.3 1531.54 1285.32 1531.54 Q1292.51 1531.54 1296.68 1536.18 Q1300.89 1540.8 1300.89 1548.76 M1295.03 1547.04 Q1294.97 1542.23 1292.32 1539.37 Q1289.71 1536.5 1285.39 1536.5 Q1280.48 1536.5 1277.52 1539.27 Q1274.6 1542.04 1274.15 1547.07 L1295.03 1547.04 Z" fill="#000000" fill-rule="nonzero" fill-opacity="1" /><path clip-path="url(#clip030)" d="M1345.29 1518.58 Q1341.02 1525.9 1338.95 1533.06 Q1336.88 1540.23 1336.88 1547.58 Q1336.88 1554.93 1338.95 1562.16 Q1341.05 1569.35 1345.29 1576.64 L1340.19 1576.64 Q1335.42 1569.16 1333.03 1561.93 Q1330.68 1554.71 1330.68 1547.58 Q1330.68 1540.48 1333.03 1533.29 Q1335.39 1526.09 1340.19 1518.58 L1345.29 1518.58 Z" fill="#000000" fill-rule="nonzero" fill-opacity="1" /><path clip-path="url(#clip030)" d="M1379.37 1533.45 L1379.37 1538.98 Q1376.89 1537.71 1374.22 1537.07 Q1371.55 1536.44 1368.68 1536.44 Q1364.32 1536.44 1362.12 1537.77 Q1359.96 1539.11 1359.96 1541.79 Q1359.96 1543.82 1361.52 1545 Q1363.08 1546.15 1367.79 1547.2 L1369.79 1547.64 Q1376.03 1548.98 1378.64 1551.43 Q1381.28 1553.85 1381.28 1558.21 Q1381.28 1563.17 1377.34 1566.07 Q1373.42 1568.97 1366.55 1568.97 Q1363.68 1568.97 1360.56 1568.39 Q1357.48 1567.85 1354.04 1566.74 L1354.04 1560.69 Q1357.29 1562.38 1360.44 1563.24 Q1363.59 1564.07 1366.68 1564.07 Q1370.81 1564.07 1373.04 1562.66 Q1375.27 1561.23 1375.27 1558.65 Q1375.27 1556.27 1373.65 1554.99 Q1372.05 1553.72 1366.61 1552.54 L1364.57 1552.07 Q1359.13 1550.92 1356.71 1548.56 Q1354.29 1546.18 1354.29 1542.04 Q1354.29 1537.01 1357.86 1534.27 Q1361.42 1531.54 1367.98 1531.54 Q1371.23 1531.54 1374.09 1532.01 Q1376.96 1532.49 1379.37 1533.45 Z" fill="#000000" fill-rule="nonzero" fill-opacity="1" /><path clip-path="url(#clip030)" d="M1389.69 1518.58 L1394.78 1518.58 Q1399.55 1526.09 1401.91 1533.29 Q1404.3 1540.48 1404.3 1547.58 Q1404.3 1554.71 1401.91 1561.93 Q1399.55 1569.16 1394.78 1576.64 L1389.69 1576.64 Q1393.92 1569.35 1395.99 1562.16 Q1398.09 1554.93 1398.09 1547.58 Q1398.09 1540.23 1395.99 1533.06 Q1393.92 1525.9 1389.69 1518.58 Z" fill="#000000" fill-rule="nonzero" fill-opacity="1" /><polyline clip-path="url(#clip030)" style="stroke:#000000; stroke-linecap:round; stroke-linejoin:round; stroke-width:4; stroke-opacity:1; fill:none" points="210.376,1423.18 210.376,123.472 "/>
<polyline clip-path="url(#clip030)" style="stroke:#000000; stroke-linecap:round; stroke-linejoin:round; stroke-width:4; stroke-opacity:1; fill:none" points="210.376,1325.63 229.273,1325.63 "/>
<polyline clip-path="url(#clip030)" style="stroke:#000000; stroke-linecap:round; stroke-linejoin:round; stroke-width:4; stroke-opacity:1; fill:none" points="210.376,1065.31 229.273,1065.31 "/>
<polyline clip-path="url(#clip030)" style="stroke:#000000; stroke-linecap:round; stroke-linejoin:round; stroke-width:4; stroke-opacity:1; fill:none" points="210.376,805.002 229.273,805.002 "/>
<polyline clip-path="url(#clip030)" style="stroke:#000000; stroke-linecap:round; stroke-linejoin:round; stroke-width:4; stroke-opacity:1; fill:none" points="210.376,544.69 229.273,544.69 "/>
<polyline clip-path="url(#clip030)" style="stroke:#000000; stroke-linecap:round; stroke-linejoin:round; stroke-width:4; stroke-opacity:1; fill:none" points="210.376,284.378 229.273,284.378 "/>
<path clip-path="url(#clip030)" d="M114.26 1326.08 L143.936 1326.08 L143.936 1330.01 L114.26 1330.01 L114.26 1326.08 Z" fill="#000000" fill-rule="nonzero" fill-opacity="1" /><path clip-path="url(#clip030)" d="M158.056 1338.97 L174.376 1338.97 L174.376 1342.91 L152.431 1342.91 L152.431 1338.97 Q155.093 1336.22 159.677 1331.59 Q164.283 1326.93 165.464 1325.59 Q167.709 1323.07 168.589 1321.33 Q169.491 1319.57 169.491 1317.88 Q169.491 1315.13 167.547 1313.39 Q165.626 1311.66 162.524 1311.66 Q160.325 1311.66 157.871 1312.42 Q155.44 1313.18 152.663 1314.73 L152.663 1310.01 Q155.487 1308.88 157.94 1308.3 Q160.394 1307.72 162.431 1307.72 Q167.802 1307.72 170.996 1310.41 Q174.19 1313.09 174.19 1317.58 Q174.19 1319.71 173.38 1321.63 Q172.593 1323.53 170.487 1326.12 Q169.908 1326.79 166.806 1330.01 Q163.704 1333.21 158.056 1338.97 Z" fill="#000000" fill-rule="nonzero" fill-opacity="1" /><path clip-path="url(#clip030)" d="M162.431 1051.11 Q158.82 1051.11 156.991 1054.68 Q155.186 1058.22 155.186 1065.35 Q155.186 1072.45 156.991 1076.02 Q158.82 1079.56 162.431 1079.56 Q166.065 1079.56 167.871 1076.02 Q169.7 1072.45 169.7 1065.35 Q169.7 1058.22 167.871 1054.68 Q166.065 1051.11 162.431 1051.11 M162.431 1047.41 Q168.241 1047.41 171.297 1052.02 Q174.376 1056.6 174.376 1065.35 Q174.376 1074.08 171.297 1078.68 Q168.241 1083.27 162.431 1083.27 Q156.621 1083.27 153.542 1078.68 Q150.487 1074.08 150.487 1065.35 Q150.487 1056.6 153.542 1052.02 Q156.621 1047.41 162.431 1047.41 Z" fill="#000000" fill-rule="nonzero" fill-opacity="1" /><path clip-path="url(#clip030)" d="M158.056 818.347 L174.376 818.347 L174.376 822.282 L152.431 822.282 L152.431 818.347 Q155.093 815.592 159.677 810.962 Q164.283 806.31 165.464 804.967 Q167.709 802.444 168.589 800.708 Q169.491 798.949 169.491 797.259 Q169.491 794.504 167.547 792.768 Q165.626 791.032 162.524 791.032 Q160.325 791.032 157.871 791.796 Q155.44 792.56 152.663 794.111 L152.663 789.388 Q155.487 788.254 157.94 787.675 Q160.394 787.097 162.431 787.097 Q167.802 787.097 170.996 789.782 Q174.19 792.467 174.19 796.958 Q174.19 799.087 173.38 801.009 Q172.593 802.907 170.487 805.499 Q169.908 806.171 166.806 809.388 Q163.704 812.583 158.056 818.347 Z" fill="#000000" fill-rule="nonzero" fill-opacity="1" /><path clip-path="url(#clip030)" d="M164.792 531.484 L152.987 549.933 L164.792 549.933 L164.792 531.484 M163.565 527.41 L169.445 527.41 L169.445 549.933 L174.376 549.933 L174.376 553.822 L169.445 553.822 L169.445 561.97 L164.792 561.97 L164.792 553.822 L149.191 553.822 L149.191 549.308 L163.565 527.41 Z" fill="#000000" fill-rule="nonzero" fill-opacity="1" /><path clip-path="url(#clip030)" d="M162.848 282.514 Q159.7 282.514 157.848 284.667 Q156.019 286.82 156.019 290.57 Q156.019 294.297 157.848 296.472 Q159.7 298.625 162.848 298.625 Q165.996 298.625 167.825 296.472 Q169.677 294.297 169.677 290.57 Q169.677 286.82 167.825 284.667 Q165.996 282.514 162.848 282.514 M172.13 267.861 L172.13 272.121 Q170.371 271.287 168.565 270.848 Q166.783 270.408 165.024 270.408 Q160.394 270.408 157.94 273.533 Q155.51 276.658 155.163 282.977 Q156.528 280.963 158.589 279.898 Q160.649 278.81 163.126 278.81 Q168.334 278.81 171.343 281.982 Q174.376 285.13 174.376 290.57 Q174.376 295.894 171.227 299.111 Q168.079 302.329 162.848 302.329 Q156.853 302.329 153.681 297.746 Q150.51 293.139 150.51 284.412 Q150.51 276.218 154.399 271.357 Q158.288 266.473 164.839 266.473 Q166.598 266.473 168.38 266.82 Q170.186 267.167 172.13 267.861 Z" fill="#000000" fill-rule="nonzero" fill-opacity="1" /><path clip-path="url(#clip030)" d="M28.3562 756.711 L45.7028 769.602 L64.0042 756.043 L64.0042 762.95 L49.9996 773.326 L64.0042 783.702 L64.0042 790.609 L45.3526 776.763 L28.3562 789.431 L28.3562 782.524 L41.0558 773.071 L28.3562 763.618 L28.3562 756.711 Z" fill="#000000" fill-rule="nonzero" fill-opacity="1" /><path clip-path="url(#clip030)" d="M675.226 16.7545 L675.226 25.383 Q671.094 21.5346 666.395 19.6307 Q661.737 17.7268 656.471 17.7268 Q646.1 17.7268 640.591 24.0867 Q635.082 30.4061 635.082 42.3968 Q635.082 54.3469 640.591 60.7069 Q646.1 67.0263 656.471 67.0263 Q661.737 67.0263 666.395 65.1223 Q671.094 63.2184 675.226 59.3701 L675.226 67.9175 Q670.932 70.8341 666.112 72.2924 Q661.332 73.7508 655.985 73.7508 Q642.252 73.7508 634.353 65.3654 Q626.454 56.9395 626.454 42.3968 Q626.454 27.8135 634.353 19.4281 Q642.252 11.0023 655.985 11.0023 Q661.413 11.0023 666.193 12.4606 Q671.013 13.8784 675.226 16.7545 Z" fill="#000000" fill-rule="nonzero" fill-opacity="1" /><path clip-path="url(#clip030)" d="M708.16 49.7694 Q699.127 49.7694 695.643 51.8354 Q692.159 53.9013 692.159 58.8839 Q692.159 62.8538 694.752 65.2034 Q697.385 67.5124 701.881 67.5124 Q708.079 67.5124 711.806 63.1374 Q715.573 58.7219 715.573 51.4303 L715.573 49.7694 L708.16 49.7694 M723.027 46.6907 L723.027 72.576 L715.573 72.576 L715.573 65.6895 Q713.021 69.8214 709.213 71.8063 Q705.406 73.7508 699.896 73.7508 Q692.929 73.7508 688.797 69.8619 Q684.706 65.9325 684.706 59.3701 Q684.706 51.7138 689.81 47.825 Q694.954 43.9361 705.122 43.9361 L715.573 43.9361 L715.573 43.2069 Q715.573 38.0623 712.171 35.2672 Q708.808 32.4315 702.692 32.4315 Q698.803 32.4315 695.116 33.3632 Q691.43 34.295 688.027 36.1584 L688.027 29.2718 Q692.119 27.692 695.967 26.9223 Q699.815 26.1121 703.461 26.1121 Q713.305 26.1121 718.166 31.2163 Q723.027 36.3204 723.027 46.6907 Z" fill="#000000" fill-rule="nonzero" fill-opacity="1" /><path clip-path="url(#clip030)" d="M764.67 34.1734 Q763.415 33.4443 761.916 33.1202 Q760.457 32.7556 758.675 32.7556 Q752.356 32.7556 748.953 36.8875 Q745.591 40.9789 745.591 48.6757 L745.591 72.576 L738.096 72.576 L738.096 27.2059 L745.591 27.2059 L745.591 34.2544 Q747.94 30.1225 751.707 28.1376 Q755.475 26.1121 760.863 26.1121 Q761.632 26.1121 762.564 26.2337 Q763.496 26.3147 764.63 26.5172 L764.67 34.1734 Z" fill="#000000" fill-rule="nonzero" fill-opacity="1" /><path clip-path="url(#clip030)" d="M779.861 14.324 L779.861 27.2059 L795.214 27.2059 L795.214 32.9987 L779.861 32.9987 L779.861 57.6282 Q779.861 63.1779 781.36 64.7578 Q782.899 66.3376 787.558 66.3376 L795.214 66.3376 L795.214 72.576 L787.558 72.576 Q778.93 72.576 775.648 69.3758 Q772.367 66.1351 772.367 57.6282 L772.367 32.9987 L766.898 32.9987 L766.898 27.2059 L772.367 27.2059 L772.367 14.324 L779.861 14.324 Z" fill="#000000" fill-rule="nonzero" fill-opacity="1" /><path clip-path="url(#clip030)" d="M812.228 65.7705 L812.228 89.8329 L804.734 89.8329 L804.734 27.2059 L812.228 27.2059 L812.228 34.0924 Q814.578 30.0415 818.142 28.0971 Q821.748 26.1121 826.73 26.1121 Q834.994 26.1121 840.139 32.6746 Q845.324 39.2371 845.324 49.9314 Q845.324 60.6258 840.139 67.1883 Q834.994 73.7508 826.73 73.7508 Q821.748 73.7508 818.142 71.8063 Q814.578 69.8214 812.228 65.7705 M837.587 49.9314 Q837.587 41.7081 834.184 37.0496 Q830.822 32.3505 824.907 32.3505 Q818.993 32.3505 815.59 37.0496 Q812.228 41.7081 812.228 49.9314 Q812.228 58.1548 815.59 62.8538 Q818.993 67.5124 824.907 67.5124 Q830.822 67.5124 834.184 62.8538 Q837.587 58.1548 837.587 49.9314 Z" fill="#000000" fill-rule="nonzero" fill-opacity="1" /><path clip-path="url(#clip030)" d="M875.26 32.4315 Q869.265 32.4315 865.781 37.1306 Q862.297 41.7891 862.297 49.9314 Q862.297 58.0738 865.74 62.7728 Q869.224 67.4314 875.26 67.4314 Q881.215 67.4314 884.699 62.7323 Q888.182 58.0333 888.182 49.9314 Q888.182 41.8701 884.699 37.1711 Q881.215 32.4315 875.26 32.4315 M875.26 26.1121 Q884.982 26.1121 890.532 32.4315 Q896.082 38.7509 896.082 49.9314 Q896.082 61.0714 890.532 67.4314 Q884.982 73.7508 875.26 73.7508 Q865.497 73.7508 859.948 67.4314 Q854.438 61.0714 854.438 49.9314 Q854.438 38.7509 859.948 32.4315 Q865.497 26.1121 875.26 26.1121 Z" fill="#000000" fill-rule="nonzero" fill-opacity="1" /><path clip-path="url(#clip030)" d="M908.437 9.54393 L915.891 9.54393 L915.891 72.576 L908.437 72.576 L908.437 9.54393 Z" fill="#000000" fill-rule="nonzero" fill-opacity="1" /><path clip-path="url(#clip030)" d="M970.294 48.0275 L970.294 51.6733 L936.024 51.6733 Q936.51 59.3701 940.642 63.421 Q944.814 67.4314 952.227 67.4314 Q956.521 67.4314 960.532 66.3781 Q964.582 65.3249 968.552 63.2184 L968.552 70.267 Q964.542 71.9684 960.329 72.8596 Q956.116 73.7508 951.782 73.7508 Q940.925 73.7508 934.565 67.4314 Q928.246 61.1119 928.246 50.3365 Q928.246 39.1965 934.241 32.6746 Q940.277 26.1121 950.485 26.1121 Q959.64 26.1121 964.947 32.0264 Q970.294 37.9003 970.294 48.0275 M962.841 45.84 Q962.76 39.7232 959.397 36.0774 Q956.076 32.4315 950.566 32.4315 Q944.328 32.4315 940.561 35.9558 Q936.834 39.4801 936.267 45.8805 L962.841 45.84 Z" fill="#000000" fill-rule="nonzero" fill-opacity="1" /><path clip-path="url(#clip030)" d="M1000.84 12.096 L1052 12.096 L1052 18.9825 L1030.53 18.9825 L1030.53 72.576 L1022.31 72.576 L1022.31 18.9825 L1000.84 18.9825 L1000.84 12.096 Z" fill="#000000" fill-rule="nonzero" fill-opacity="1" /><path clip-path="url(#clip030)" d="M1075.5 72.576 L1052.41 12.096 L1060.95 12.096 L1080.11 63.0159 L1099.32 12.096 L1107.82 12.096 L1084.77 72.576 L1075.5 72.576 Z" fill="#000000" fill-rule="nonzero" fill-opacity="1" /><path clip-path="url(#clip030)" d="M1116.65 12.096 L1124.84 12.096 L1124.84 65.6895 L1154.29 65.6895 L1154.29 72.576 L1116.65 72.576 L1116.65 12.096 Z" fill="#000000" fill-rule="nonzero" fill-opacity="1" /><path clip-path="url(#clip030)" d="M1187.42 17.6457 Q1178.51 17.6457 1173.24 24.2892 Q1168.02 30.9327 1168.02 42.3968 Q1168.02 53.8203 1173.24 60.4638 Q1178.51 67.1073 1187.42 67.1073 Q1196.33 67.1073 1201.52 60.4638 Q1206.75 53.8203 1206.75 42.3968 Q1206.75 30.9327 1201.52 24.2892 Q1196.33 17.6457 1187.42 17.6457 M1198.89 71.4823 L1209.66 83.2704 L1199.78 83.2704 L1190.83 73.5887 Q1189.49 73.6697 1188.76 73.7103 Q1188.07 73.7508 1187.42 73.7508 Q1174.66 73.7508 1167.01 65.2439 Q1159.39 56.6965 1159.39 42.3968 Q1159.39 28.0566 1167.01 19.5497 Q1174.66 11.0023 1187.42 11.0023 Q1200.14 11.0023 1207.76 19.5497 Q1215.37 28.0566 1215.37 42.3968 Q1215.37 52.9291 1211.12 60.4233 Q1206.91 67.9175 1198.89 71.4823 Z" fill="#000000" fill-rule="nonzero" fill-opacity="1" /><path clip-path="url(#clip030)" d="M1256.86 44.2197 Q1259.49 45.1109 1261.96 48.0275 Q1264.47 50.9442 1266.98 56.0483 L1275.29 72.576 L1266.5 72.576 L1258.76 57.061 Q1255.76 50.9847 1252.93 48.9997 Q1250.13 47.0148 1245.27 47.0148 L1236.36 47.0148 L1236.36 72.576 L1228.17 72.576 L1228.17 12.096 L1246.65 12.096 Q1257.02 12.096 1262.12 16.4305 Q1267.23 20.7649 1267.23 29.5149 Q1267.23 35.2267 1264.55 38.994 Q1261.92 42.7613 1256.86 44.2197 M1236.36 18.8205 L1236.36 40.2903 L1246.65 40.2903 Q1252.56 40.2903 1255.56 37.5762 Q1258.6 34.8216 1258.6 29.5149 Q1258.6 24.2082 1255.56 21.5346 Q1252.56 18.8205 1246.65 18.8205 L1236.36 18.8205 Z" fill="#000000" fill-rule="nonzero" fill-opacity="1" /><path clip-path="url(#clip030)" d="M1329.77 9.62495 Q1324.34 18.942 1321.71 28.0566 Q1319.08 37.1711 1319.08 46.5287 Q1319.08 55.8863 1321.71 65.0818 Q1324.38 74.2369 1329.77 83.5134 L1323.29 83.5134 Q1317.21 73.9938 1314.18 64.7983 Q1311.18 55.6027 1311.18 46.5287 Q1311.18 37.4952 1314.18 28.3401 Q1317.17 19.1851 1323.29 9.62495 L1329.77 9.62495 Z" fill="#000000" fill-rule="nonzero" fill-opacity="1" /><path clip-path="url(#clip030)" d="M1340.47 46.5287 L1362.3 46.5287 L1362.3 53.1722 L1340.47 53.1722 L1340.47 46.5287 Z" fill="#000000" fill-rule="nonzero" fill-opacity="1" /><path clip-path="url(#clip030)" d="M1370.4 46.5287 L1392.24 46.5287 L1392.24 53.1722 L1370.4 53.1722 L1370.4 46.5287 Z" fill="#000000" fill-rule="nonzero" fill-opacity="1" /><path clip-path="url(#clip030)" d="M1430.48 27.2059 L1437.93 27.2059 L1437.93 72.576 L1430.48 72.576 L1430.48 27.2059 M1430.48 9.54393 L1437.93 9.54393 L1437.93 18.9825 L1430.48 18.9825 L1430.48 9.54393 Z" fill="#000000" fill-rule="nonzero" fill-opacity="1" /><path clip-path="url(#clip030)" d="M1482.45 28.5427 L1482.45 35.5912 Q1479.29 33.9709 1475.89 33.1607 Q1472.48 32.3505 1468.84 32.3505 Q1463.29 32.3505 1460.49 34.0519 Q1457.74 35.7533 1457.74 39.156 Q1457.74 41.7486 1459.72 43.2475 Q1461.71 44.7058 1467.7 46.0426 L1470.26 46.6097 Q1478.2 48.3111 1481.52 51.4303 Q1484.88 54.509 1484.88 60.0587 Q1484.88 66.3781 1479.86 70.0644 Q1474.87 73.7508 1466.12 73.7508 Q1462.48 73.7508 1458.51 73.0216 Q1454.58 72.3329 1450.2 70.9151 L1450.2 63.2184 Q1454.34 65.3654 1458.35 66.4591 Q1462.36 67.5124 1466.29 67.5124 Q1471.55 67.5124 1474.39 65.73 Q1477.22 63.9071 1477.22 60.6258 Q1477.22 57.5877 1475.16 55.9673 Q1473.13 54.3469 1466.21 52.8481 L1463.61 52.2405 Q1456.69 50.7821 1453.61 47.7845 Q1450.53 44.7463 1450.53 39.4801 Q1450.53 33.0797 1455.07 29.5959 Q1459.6 26.1121 1467.95 26.1121 Q1472.08 26.1121 1475.73 26.7198 Q1479.37 27.3274 1482.45 28.5427 Z" fill="#000000" fill-rule="nonzero" fill-opacity="1" /><path clip-path="url(#clip030)" d="M1549.41 34.1734 Q1548.16 33.4443 1546.66 33.1202 Q1545.2 32.7556 1543.42 32.7556 Q1537.1 32.7556 1533.69 36.8875 Q1530.33 40.9789 1530.33 48.6757 L1530.33 72.576 L1522.84 72.576 L1522.84 27.2059 L1530.33 27.2059 L1530.33 34.2544 Q1532.68 30.1225 1536.45 28.1376 Q1540.22 26.1121 1545.6 26.1121 Q1546.37 26.1121 1547.31 26.2337 Q1548.24 26.3147 1549.37 26.5172 L1549.41 34.1734 Z" fill="#000000" fill-rule="nonzero" fill-opacity="1" /><path clip-path="url(#clip030)" d="M1594.21 48.0275 L1594.21 51.6733 L1559.94 51.6733 Q1560.43 59.3701 1564.56 63.421 Q1568.73 67.4314 1576.15 67.4314 Q1580.44 67.4314 1584.45 66.3781 Q1588.5 65.3249 1592.47 63.2184 L1592.47 70.267 Q1588.46 71.9684 1584.25 72.8596 Q1580.04 73.7508 1575.7 73.7508 Q1564.85 73.7508 1558.49 67.4314 Q1552.17 61.1119 1552.17 50.3365 Q1552.17 39.1965 1558.16 32.6746 Q1564.2 26.1121 1574.41 26.1121 Q1583.56 26.1121 1588.87 32.0264 Q1594.21 37.9003 1594.21 48.0275 M1586.76 45.84 Q1586.68 39.7232 1583.32 36.0774 Q1580 32.4315 1574.49 32.4315 Q1568.25 32.4315 1564.48 35.9558 Q1560.75 39.4801 1560.19 45.8805 L1586.76 45.84 Z" fill="#000000" fill-rule="nonzero" fill-opacity="1" /><path clip-path="url(#clip030)" d="M1629.42 9.54393 L1629.42 15.7418 L1622.29 15.7418 Q1618.28 15.7418 1616.7 17.3622 Q1615.16 18.9825 1615.16 23.1955 L1615.16 27.2059 L1627.43 27.2059 L1627.43 32.9987 L1615.16 32.9987 L1615.16 72.576 L1607.66 72.576 L1607.66 32.9987 L1600.53 32.9987 L1600.53 27.2059 L1607.66 27.2059 L1607.66 24.0462 Q1607.66 16.471 1611.19 13.0277 Q1614.71 9.54393 1622.37 9.54393 L1629.42 9.54393 Z" fill="#000000" fill-rule="nonzero" fill-opacity="1" /><path clip-path="url(#clip030)" d="M1674.46 48.0275 L1674.46 51.6733 L1640.19 51.6733 Q1640.68 59.3701 1644.81 63.421 Q1648.98 67.4314 1656.4 67.4314 Q1660.69 67.4314 1664.7 66.3781 Q1668.75 65.3249 1672.72 63.2184 L1672.72 70.267 Q1668.71 71.9684 1664.5 72.8596 Q1660.28 73.7508 1655.95 73.7508 Q1645.09 73.7508 1638.73 67.4314 Q1632.41 61.1119 1632.41 50.3365 Q1632.41 39.1965 1638.41 32.6746 Q1644.45 26.1121 1654.65 26.1121 Q1663.81 26.1121 1669.12 32.0264 Q1674.46 37.9003 1674.46 48.0275 M1667.01 45.84 Q1666.93 39.7232 1663.57 36.0774 Q1660.24 32.4315 1654.74 32.4315 Q1648.5 32.4315 1644.73 35.9558 Q1641 39.4801 1640.44 45.8805 L1667.01 45.84 Z" fill="#000000" fill-rule="nonzero" fill-opacity="1" /><path clip-path="url(#clip030)" d="M1712.99 34.1734 Q1711.73 33.4443 1710.23 33.1202 Q1708.77 32.7556 1706.99 32.7556 Q1700.67 32.7556 1697.27 36.8875 Q1693.91 40.9789 1693.91 48.6757 L1693.91 72.576 L1686.41 72.576 L1686.41 27.2059 L1693.91 27.2059 L1693.91 34.2544 Q1696.26 30.1225 1700.02 28.1376 Q1703.79 26.1121 1709.18 26.1121 Q1709.95 26.1121 1710.88 26.2337 Q1711.81 26.3147 1712.95 26.5172 L1712.99 34.1734 Z" fill="#000000" fill-rule="nonzero" fill-opacity="1" /><path clip-path="url(#clip030)" d="M1757.79 48.0275 L1757.79 51.6733 L1723.52 51.6733 Q1724.01 59.3701 1728.14 63.421 Q1732.31 67.4314 1739.72 67.4314 Q1744.02 67.4314 1748.03 66.3781 Q1752.08 65.3249 1756.05 63.2184 L1756.05 70.267 Q1752.04 71.9684 1747.82 72.8596 Q1743.61 73.7508 1739.28 73.7508 Q1728.42 73.7508 1722.06 67.4314 Q1715.74 61.1119 1715.74 50.3365 Q1715.74 39.1965 1721.74 32.6746 Q1727.77 26.1121 1737.98 26.1121 Q1747.14 26.1121 1752.44 32.0264 Q1757.79 37.9003 1757.79 48.0275 M1750.34 45.84 Q1750.26 39.7232 1746.89 36.0774 Q1743.57 32.4315 1738.06 32.4315 Q1731.82 32.4315 1728.06 35.9558 Q1724.33 39.4801 1723.76 45.8805 L1750.34 45.84 Z" fill="#000000" fill-rule="nonzero" fill-opacity="1" /><path clip-path="url(#clip030)" d="M1807.74 45.1919 L1807.74 72.576 L1800.28 72.576 L1800.28 45.4349 Q1800.28 38.994 1797.77 35.7938 Q1795.26 32.5936 1790.24 32.5936 Q1784.2 32.5936 1780.72 36.4419 Q1777.23 40.2903 1777.23 46.9338 L1777.23 72.576 L1769.74 72.576 L1769.74 27.2059 L1777.23 27.2059 L1777.23 34.2544 Q1779.91 30.163 1783.51 28.1376 Q1787.16 26.1121 1791.9 26.1121 Q1799.72 26.1121 1803.73 30.9732 Q1807.74 35.7938 1807.74 45.1919 Z" fill="#000000" fill-rule="nonzero" fill-opacity="1" /><path clip-path="url(#clip030)" d="M1855.25 28.9478 L1855.25 35.9153 Q1852.1 34.1734 1848.89 33.3227 Q1845.74 32.4315 1842.49 32.4315 Q1835.24 32.4315 1831.23 37.0496 Q1827.22 41.6271 1827.22 49.9314 Q1827.22 58.2358 1831.23 62.8538 Q1835.24 67.4314 1842.49 67.4314 Q1845.74 67.4314 1848.89 66.5807 Q1852.1 65.6895 1855.25 63.9476 L1855.25 70.8341 Q1852.14 72.2924 1848.77 73.0216 Q1845.45 73.7508 1841.68 73.7508 Q1831.44 73.7508 1825.4 67.3098 Q1819.36 60.8689 1819.36 49.9314 Q1819.36 38.832 1825.44 32.472 Q1831.56 26.1121 1842.17 26.1121 Q1845.61 26.1121 1848.89 26.8413 Q1852.18 27.5299 1855.25 28.9478 Z" fill="#000000" fill-rule="nonzero" fill-opacity="1" /><path clip-path="url(#clip030)" d="M1907.03 48.0275 L1907.03 51.6733 L1872.75 51.6733 Q1873.24 59.3701 1877.37 63.421 Q1881.55 67.4314 1888.96 67.4314 Q1893.25 67.4314 1897.26 66.3781 Q1901.31 65.3249 1905.28 63.2184 L1905.28 70.267 Q1901.27 71.9684 1897.06 72.8596 Q1892.85 73.7508 1888.51 73.7508 Q1877.66 73.7508 1871.3 67.4314 Q1864.98 61.1119 1864.98 50.3365 Q1864.98 39.1965 1870.97 32.6746 Q1877.01 26.1121 1887.22 26.1121 Q1896.37 26.1121 1901.68 32.0264 Q1907.03 37.9003 1907.03 48.0275 M1899.57 45.84 Q1899.49 39.7232 1896.13 36.0774 Q1892.81 32.4315 1887.3 32.4315 Q1881.06 32.4315 1877.29 35.9558 Q1873.56 39.4801 1873 45.8805 L1899.57 45.84 Z" fill="#000000" fill-rule="nonzero" fill-opacity="1" /><path clip-path="url(#clip030)" d="M1918.08 9.62495 L1924.57 9.62495 Q1930.64 19.1851 1933.64 28.3401 Q1936.68 37.4952 1936.68 46.5287 Q1936.68 55.6027 1933.64 64.7983 Q1930.64 73.9938 1924.57 83.5134 L1918.08 83.5134 Q1923.47 74.2369 1926.11 65.0818 Q1928.78 55.8863 1928.78 46.5287 Q1928.78 37.1711 1926.11 28.0566 Q1923.47 18.942 1918.08 9.62495 Z" fill="#000000" fill-rule="nonzero" fill-opacity="1" /><polyline clip-path="url(#clip032)" style="stroke:#ff0000; stroke-linecap:round; stroke-linejoin:round; stroke-width:4; stroke-opacity:1; fill:none" stroke-dasharray="16, 10" points="271.009,1065.31 321.537,1063.79 372.065,1059.46 422.592,1052.76 473.12,1044.14 523.648,1034.12 574.176,1023.23 624.704,1012.02 675.232,1001.05 725.76,990.945 776.287,982.523 826.815,976.873 877.343,974.682 927.871,976.066 978.399,980.934 1028.93,988.806 1079.45,998.939 1129.98,1010.78 1180.51,1024.23 1231.04,1038.34 1281.57,1051.34 1332.09,1062.1 1382.62,1070.26 1433.15,1075.93 1483.68,1079.42 1534.2,1081.11 1584.73,1081.42 1635.26,1080.69 1685.79,1079.25 1736.32,1077.37 1786.84,1075.27 1837.37,1073.14 1887.9,1071.12 1938.43,1069.31 1988.96,1067.79 2039.48,1066.61 2090.01,1065.81 2140.54,1065.36 2191.07,1065.21 2241.59,1065.26 2292.12,1065.31 "/>
<polyline clip-path="url(#clip032)" style="stroke:#008000; stroke-linecap:round; stroke-linejoin:round; stroke-width:4; stroke-opacity:1; fill:none" stroke-dasharray="16, 10" points="271.009,1065.31 321.537,1068.34 372.065,1076.82 422.592,1089.44 473.12,1104.63 523.648,1120.61 574.176,1135.56 624.704,1147.79 675.232,1155.88 725.76,1158.57 776.287,1154.55 826.815,1142.18 877.343,1120.53 927.871,1089.78 978.399,1051.07 1028.93,1007.15 1079.45,961.892 1129.98,918.733 1180.51,879.92 1231.04,847.001 1281.57,820.054 1332.09,797.759 1382.62,778.704 1433.15,761.879 1483.68,746.689 1534.2,732.839 1584.73,720.211 1635.26,708.779 1685.79,698.548 1736.32,689.522 1786.84,681.69 1837.37,675.025 1887.9,669.483 1938.43,665.01 1988.96,661.548 2039.48,659.028 2090.01,657.373 2140.54,656.479 2191.07,656.2 2241.59,656.304 2292.12,656.417 "/>
<polyline clip-path="url(#clip032)" style="stroke:#0000ff; stroke-linecap:round; stroke-linejoin:round; stroke-width:4; stroke-opacity:1; fill:none" stroke-dasharray="16, 10" points="271.009,1065.31 321.537,1004.58 372.065,952.902 422.592,909.942 473.12,876.462 523.648,853.501 574.176,841.575 624.704,840.673 675.232,851.161 725.76,875.212 776.287,918.65 826.815,986.418 877.343,1057.03 927.871,1128.71 978.399,1195.02 1028.93,1247.83 1079.45,1286.21 1129.98,1317.86 1180.51,1351.29 1231.04,1345.25 1281.57,1306.38 1332.09,1254.86 1382.62,1202.44 1433.15,1155.03 1483.68,1115.13 1534.2,1083.32 1584.73,1059.25 1635.26,1042.08 1685.79,1030.85 1736.32,1024.53 1786.84,1022.22 1837.37,1023.1 1887.9,1026.46 1938.43,1031.67 1988.96,1038.19 2039.48,1045.45 2090.01,1052.85 2140.54,1059.7 2191.07,1065.04 2241.59,1067.56 2292.12,1065.31 "/>
<polyline clip-path="url(#clip032)" style="stroke:#000000; stroke-linecap:round; stroke-linejoin:round; stroke-width:4; stroke-opacity:1; fill:none" stroke-dasharray="16, 10" points="271.009,1065.31 321.537,1185.79 372.065,1282.25 422.592,1350.22 473.12,1384.54 523.648,1382.07 574.176,1343.86 624.704,1274.46 675.232,1178.93 725.76,1059.23 776.287,910.29 826.815,725.288 877.343,539.746 927.871,364.549 978.399,227.005 1028.93,160.256 1079.45,171.69 1129.98,239.912 1180.51,342.774 1231.04,470.626 1281.57,578.931 1332.09,656.144 1382.62,708.651 1433.15,745.666 1483.68,774.431 1534.2,799.578 1584.73,823.627 1635.26,847.656 1685.79,871.875 1736.32,896.061 1786.84,919.852 1837.37,942.906 1887.9,964.976 1938.43,985.9 1988.96,1005.56 2039.48,1023.79 2090.01,1040.29 2140.54,1054.42 2191.07,1064.98 2241.59,1069.84 2292.12,1065.31 "/>
<polyline clip-path="url(#clip032)" style="stroke:#ff0000; stroke-linecap:round; stroke-linejoin:round; stroke-width:4; stroke-opacity:1; fill:none" points="271.009,1065.31 321.537,1063.87 372.065,1059.71 422.592,1053.25 473.12,1044.9 523.648,1035.15 574.176,1024.53 624.704,1013.56 675.232,1002.76 725.76,992.716 776.287,984.229 826.815,978.365 877.343,975.804 927.871,976.663 978.399,980.836 1028.93,987.829 1079.45,996.925 1129.98,1007.63 1180.51,1019.87 1231.04,1033.88 1281.57,1048.54 1332.09,1061.52 1382.62,1071.86 1433.15,1079.61 1483.68,1084.78 1534.2,1087.36 1584.73,1087.31 1635.26,1084.59 1685.79,1079.12 1736.32,1071.23 1786.84,1062.13 1837.37,1053.24 1887.9,1045.52 1938.43,1039.48 1988.96,1035.34 2039.48,1033.12 2090.01,1032.65 2140.54,1033.56 2191.07,1035.29 2241.59,1037.03 2292.12,1037.67 "/>
<polyline clip-path="url(#clip032)" style="stroke:#008000; stroke-linecap:round; stroke-linejoin:round; stroke-width:4; stroke-opacity:1; fill:none" points="271.009,1065.31 321.537,1068.32 372.065,1076.77 422.592,1089.43 473.12,1104.7 523.648,1120.77 574.176,1135.76 624.704,1147.99 675.232,1156.01 725.76,1158.56 776.287,1154.32 826.815,1141.63 877.343,1119.56 927.871,1088.32 978.399,1049.21 1028.93,1005.14 1079.45,960.092 1129.98,917.479 1180.51,879.508 1231.04,847.569 1281.57,822.154 1332.09,801.965 1382.62,785.362 1433.15,771.375 1483.68,759.129 1534.2,747.803 1584.73,736.595 1635.26,724.675 1685.79,711.126 1736.32,695.686 1786.84,679.822 1837.37,665.616 1887.9,654.305 1938.43,646.399 1988.96,641.955 2039.48,640.757 2090.01,642.382 2140.54,646.168 2191.07,651.138 2241.59,655.861 2292.12,658.249 "/>
<polyline clip-path="url(#clip032)" style="stroke:#0000ff; stroke-linecap:round; stroke-linejoin:round; stroke-width:4; stroke-opacity:1; fill:none" points="271.009,1065.31 321.537,1007.47 372.065,957.246 422.592,915.04 473.12,881.999 523.648,859.157 574.176,846.824 624.704,844.837 675.232,853.578 725.76,875.332 776.287,915.958 826.815,980.493 877.343,1048.13 927.871,1116.58 978.399,1179.32 1028.93,1228.47 1079.45,1264.31 1129.98,1294.36 1180.51,1326.68 1231.04,1365.64 1281.57,1352.17 1332.09,1298.25 1382.62,1246.07 1433.15,1194.52 1483.68,1142.91 1534.2,1090.8 1584.73,1037.84 1635.26,983.688 1685.79,927.975 1736.32,886.8 1786.84,879.429 1837.37,895.714 1887.9,925.874 1938.43,962.939 1988.96,1002.15 2039.48,1039.7 2090.01,1071.97 2140.54,1095.13 2191.07,1104.78 2241.59,1095.6 2292.12,1060.63 "/>
<polyline clip-path="url(#clip032)" style="stroke:#000000; stroke-linecap:round; stroke-linejoin:round; stroke-width:4; stroke-opacity:1; fill:none" points="271.009,1065.31 321.537,1184.78 372.065,1282.29 422.592,1351.57 473.12,1386.4 523.648,1383.47 574.176,1344.23 624.704,1273.64 675.232,1176.87 725.76,1055.78 776.287,905.133 826.815,717.891 877.343,530.299 927.871,354.998 978.399,220.769 1028.93,160.881 1079.45,179.377 1129.98,253.887 1180.51,362.39 1231.04,494.041 1281.57,618.611 1332.09,700.798 1382.62,762.457 1433.15,805.778 1483.68,832.255 1534.2,842.658 1584.73,836.899 1635.26,813.863 1685.79,771.263 1736.32,738.165 1786.84,754.878 1837.37,804.921 1887.9,871.05 1938.43,941.668 1988.96,1010.2 2039.48,1072.27 2090.01,1123.69 2140.54,1159.18 2191.07,1171.27 2241.59,1149.26 2292.12,1077.38 "/>
<path clip-path="url(#clip030)" d="M2043.31 425.996 L2281.34 425.996 L2281.34 166.796 L2043.31 166.796  Z" fill="#ffffff" fill-rule="evenodd" fill-opacity="1"/>
<polyline clip-path="url(#clip030)" style="stroke:#000000; stroke-linecap:round; stroke-linejoin:round; stroke-width:4; stroke-opacity:1; fill:none" points="2043.31,425.996 2281.34,425.996 2281.34,166.796 2043.31,166.796 2043.31,425.996 "/>
<polyline clip-path="url(#clip030)" style="stroke:#ff0000; stroke-linecap:round; stroke-linejoin:round; stroke-width:4; stroke-opacity:1; fill:none" points="2067.11,218.636 2209.94,218.636 "/>
<path clip-path="url(#clip030)" d="M2238.03 232.027 L2238.03 245.777 L2233.74 245.777 L2233.74 209.99 L2238.03 209.99 L2238.03 213.925 Q2239.37 211.61 2241.4 210.499 Q2243.47 209.365 2246.31 209.365 Q2251.03 209.365 2253.97 213.115 Q2256.94 216.865 2256.94 222.976 Q2256.94 229.087 2253.97 232.837 Q2251.03 236.587 2246.31 236.587 Q2243.47 236.587 2241.4 235.476 Q2239.37 234.342 2238.03 232.027 M2252.52 222.976 Q2252.52 218.277 2250.57 215.615 Q2248.65 212.93 2245.27 212.93 Q2241.89 212.93 2239.95 215.615 Q2238.03 218.277 2238.03 222.976 Q2238.03 227.675 2239.95 230.36 Q2241.89 233.022 2245.27 233.022 Q2248.65 233.022 2250.57 230.36 Q2252.52 227.675 2252.52 222.976 Z" fill="#000000" fill-rule="nonzero" fill-opacity="1" /><polyline clip-path="url(#clip030)" style="stroke:#008000; stroke-linecap:round; stroke-linejoin:round; stroke-width:4; stroke-opacity:1; fill:none" points="2067.11,270.476 2209.94,270.476 "/>
<path clip-path="url(#clip030)" d="M2253 271.321 L2238.26 271.321 Q2238.6 278.242 2240.2 281.182 Q2242.19 284.793 2245.64 284.793 Q2249.11 284.793 2251.03 281.159 Q2252.72 277.964 2253 271.321 M2252.93 267.385 Q2252.28 260.811 2251.03 258.497 Q2249.04 254.839 2245.64 254.839 Q2242.1 254.839 2240.22 258.45 Q2238.74 261.367 2238.3 267.385 L2252.93 267.385 M2245.64 251.367 Q2251.2 251.367 2254.37 256.274 Q2257.54 261.159 2257.54 269.816 Q2257.54 278.45 2254.37 283.358 Q2251.2 288.288 2245.64 288.288 Q2240.06 288.288 2236.91 283.358 Q2233.74 278.45 2233.74 269.816 Q2233.74 261.159 2236.91 256.274 Q2240.06 251.367 2245.64 251.367 Z" fill="#000000" fill-rule="nonzero" fill-opacity="1" /><polyline clip-path="url(#clip030)" style="stroke:#0000ff; stroke-linecap:round; stroke-linejoin:round; stroke-width:4; stroke-opacity:1; fill:none" points="2067.11,322.316 2209.94,322.316 "/>
<path clip-path="url(#clip030)" d="M2238.03 335.707 L2238.03 349.457 L2233.74 349.457 L2233.74 313.67 L2238.03 313.67 L2238.03 317.605 Q2239.37 315.29 2241.4 314.179 Q2243.47 313.045 2246.31 313.045 Q2251.03 313.045 2253.97 316.795 Q2256.94 320.545 2256.94 326.656 Q2256.94 332.767 2253.97 336.517 Q2251.03 340.267 2246.31 340.267 Q2243.47 340.267 2241.4 339.156 Q2239.37 338.022 2238.03 335.707 M2252.52 326.656 Q2252.52 321.957 2250.57 319.295 Q2248.65 316.61 2245.27 316.61 Q2241.89 316.61 2239.95 319.295 Q2238.03 321.957 2238.03 326.656 Q2238.03 331.355 2239.95 334.04 Q2241.89 336.702 2245.27 336.702 Q2248.65 336.702 2250.57 334.04 Q2252.52 331.355 2252.52 326.656 Z" fill="#000000" fill-rule="nonzero" fill-opacity="1" /><path clip-path="url(#clip030)" d="M2245.5 303.577 L2249.76 303.577 L2249.76 308.971 L2245.5 308.971 L2245.5 303.577 M2247.68 313.045 L2247.68 313.045 Z" fill="#000000" fill-rule="nonzero" fill-opacity="1" /><polyline clip-path="url(#clip030)" style="stroke:#000000; stroke-linecap:round; stroke-linejoin:round; stroke-width:4; stroke-opacity:1; fill:none" points="2067.11,374.156 2209.94,374.156 "/>
<path clip-path="url(#clip030)" d="M2253 375.001 L2238.26 375.001 Q2238.6 381.922 2240.2 384.862 Q2242.19 388.473 2245.64 388.473 Q2249.11 388.473 2251.03 384.839 Q2252.72 381.644 2253 375.001 M2252.93 371.065 Q2252.28 364.491 2251.03 362.177 Q2249.04 358.519 2245.64 358.519 Q2242.1 358.519 2240.22 362.13 Q2238.74 365.047 2238.3 371.065 L2252.93 371.065 M2245.64 355.047 Q2251.2 355.047 2254.37 359.954 Q2257.54 364.839 2257.54 373.496 Q2257.54 382.13 2254.37 387.038 Q2251.2 391.968 2245.64 391.968 Q2240.06 391.968 2236.91 387.038 Q2233.74 382.13 2233.74 373.496 Q2233.74 364.839 2236.91 359.954 Q2240.06 355.047 2245.64 355.047 Z" fill="#000000" fill-rule="nonzero" fill-opacity="1" /><path clip-path="url(#clip030)" d="M2246.1 355.417 L2250.36 355.417 L2250.36 360.811 L2246.1 360.811 L2246.1 355.417 M2248.28 364.885 L2248.28 364.885 Z" fill="#000000" fill-rule="nonzero" fill-opacity="1" /></svg>
