<?xml version="1.0" encoding="utf-8"?>
<svg xmlns="http://www.w3.org/2000/svg" xmlns:xlink="http://www.w3.org/1999/xlink" width="600" height="400" viewBox="0 0 2400 1600">
<defs>
  <clipPath id="clip750">
    <rect x="0" y="0" width="2400" height="1600"/>
  </clipPath>
</defs>
<path clip-path="url(#clip750)" d="M0 1600 L2400 1600 L2400 0 L0 0  Z" fill="#ffffff" fill-rule="evenodd" fill-opacity="1"/>
<defs>
  <clipPath id="clip751">
    <rect x="480" y="0" width="1681" height="1600"/>
  </clipPath>
</defs>
<path clip-path="url(#clip750)" d="M219.033 1423.18 L2352.76 1423.18 L2352.76 123.472 L219.033 123.472  Z" fill="#ffffff" fill-rule="evenodd" fill-opacity="1"/>
<defs>
  <clipPath id="clip752">
    <rect x="219" y="123" width="2135" height="1301"/>
  </clipPath>
</defs>
<polyline clip-path="url(#clip752)" style="stroke:#000000; stroke-linecap:round; stroke-linejoin:round; stroke-width:2; stroke-opacity:0.1; fill:none" points="279.421,1423.18 279.421,123.472 "/>
<polyline clip-path="url(#clip752)" style="stroke:#000000; stroke-linecap:round; stroke-linejoin:round; stroke-width:2; stroke-opacity:0.1; fill:none" points="686.077,1423.18 686.077,123.472 "/>
<polyline clip-path="url(#clip752)" style="stroke:#000000; stroke-linecap:round; stroke-linejoin:round; stroke-width:2; stroke-opacity:0.1; fill:none" points="1092.73,1423.18 1092.73,123.472 "/>
<polyline clip-path="url(#clip752)" style="stroke:#000000; stroke-linecap:round; stroke-linejoin:round; stroke-width:2; stroke-opacity:0.1; fill:none" points="1499.39,1423.18 1499.39,123.472 "/>
<polyline clip-path="url(#clip752)" style="stroke:#000000; stroke-linecap:round; stroke-linejoin:round; stroke-width:2; stroke-opacity:0.1; fill:none" points="1906.04,1423.18 1906.04,123.472 "/>
<polyline clip-path="url(#clip752)" style="stroke:#000000; stroke-linecap:round; stroke-linejoin:round; stroke-width:2; stroke-opacity:0.1; fill:none" points="2312.7,1423.18 2312.7,123.472 "/>
<polyline clip-path="url(#clip752)" style="stroke:#000000; stroke-linecap:round; stroke-linejoin:round; stroke-width:2; stroke-opacity:0.1; fill:none" points="219.033,1163.03 2352.76,1163.03 "/>
<polyline clip-path="url(#clip752)" style="stroke:#000000; stroke-linecap:round; stroke-linejoin:round; stroke-width:2; stroke-opacity:0.1; fill:none" points="219.033,877.721 2352.76,877.721 "/>
<polyline clip-path="url(#clip752)" style="stroke:#000000; stroke-linecap:round; stroke-linejoin:round; stroke-width:2; stroke-opacity:0.1; fill:none" points="219.033,592.417 2352.76,592.417 "/>
<polyline clip-path="url(#clip752)" style="stroke:#000000; stroke-linecap:round; stroke-linejoin:round; stroke-width:2; stroke-opacity:0.1; fill:none" points="219.033,307.113 2352.76,307.113 "/>
<polyline clip-path="url(#clip750)" style="stroke:#000000; stroke-linecap:round; stroke-linejoin:round; stroke-width:4; stroke-opacity:1; fill:none" points="219.033,1423.18 2352.76,1423.18 "/>
<polyline clip-path="url(#clip750)" style="stroke:#000000; stroke-linecap:round; stroke-linejoin:round; stroke-width:4; stroke-opacity:1; fill:none" points="279.421,1423.18 279.421,1404.28 "/>
<polyline clip-path="url(#clip750)" style="stroke:#000000; stroke-linecap:round; stroke-linejoin:round; stroke-width:4; stroke-opacity:1; fill:none" points="686.077,1423.18 686.077,1404.28 "/>
<polyline clip-path="url(#clip750)" style="stroke:#000000; stroke-linecap:round; stroke-linejoin:round; stroke-width:4; stroke-opacity:1; fill:none" points="1092.73,1423.18 1092.73,1404.28 "/>
<polyline clip-path="url(#clip750)" style="stroke:#000000; stroke-linecap:round; stroke-linejoin:round; stroke-width:4; stroke-opacity:1; fill:none" points="1499.39,1423.18 1499.39,1404.28 "/>
<polyline clip-path="url(#clip750)" style="stroke:#000000; stroke-linecap:round; stroke-linejoin:round; stroke-width:4; stroke-opacity:1; fill:none" points="1906.04,1423.18 1906.04,1404.28 "/>
<polyline clip-path="url(#clip750)" style="stroke:#000000; stroke-linecap:round; stroke-linejoin:round; stroke-width:4; stroke-opacity:1; fill:none" points="2312.7,1423.18 2312.7,1404.28 "/>
<path clip-path="url(#clip750)" d="M279.421 1454.1 Q275.81 1454.1 273.982 1457.66 Q272.176 1461.2 272.176 1468.33 Q272.176 1475.44 273.982 1479.01 Q275.81 1482.55 279.421 1482.55 Q283.056 1482.55 284.861 1479.01 Q286.69 1475.44 286.69 1468.33 Q286.69 1461.2 284.861 1457.66 Q283.056 1454.1 279.421 1454.1 M279.421 1450.39 Q285.231 1450.39 288.287 1455 Q291.366 1459.58 291.366 1468.33 Q291.366 1477.06 288.287 1481.67 Q285.231 1486.25 279.421 1486.25 Q273.611 1486.25 270.532 1481.67 Q267.477 1477.06 267.477 1468.33 Q267.477 1459.58 270.532 1455 Q273.611 1450.39 279.421 1450.39 Z" fill="#000000" fill-rule="nonzero" fill-opacity="1" /><path clip-path="url(#clip750)" d="M676.459 1481.64 L684.098 1481.64 L684.098 1455.28 L675.788 1456.95 L675.788 1452.69 L684.052 1451.02 L688.728 1451.02 L688.728 1481.64 L696.366 1481.64 L696.366 1485.58 L676.459 1485.58 L676.459 1481.64 Z" fill="#000000" fill-rule="nonzero" fill-opacity="1" /><path clip-path="url(#clip750)" d="M1087.39 1481.64 L1103.71 1481.64 L1103.71 1485.58 L1081.76 1485.58 L1081.76 1481.64 Q1084.42 1478.89 1089.01 1474.26 Q1093.61 1469.61 1094.79 1468.27 Q1097.04 1465.74 1097.92 1464.01 Q1098.82 1462.25 1098.82 1460.56 Q1098.82 1457.8 1096.88 1456.07 Q1094.96 1454.33 1091.85 1454.33 Q1089.65 1454.33 1087.2 1455.09 Q1084.77 1455.86 1081.99 1457.41 L1081.99 1452.69 Q1084.82 1451.55 1087.27 1450.97 Q1089.72 1450.39 1091.76 1450.39 Q1097.13 1450.39 1100.33 1453.08 Q1103.52 1455.77 1103.52 1460.26 Q1103.52 1462.39 1102.71 1464.31 Q1101.92 1466.2 1099.82 1468.8 Q1099.24 1469.47 1096.14 1472.69 Q1093.03 1475.88 1087.39 1481.64 Z" fill="#000000" fill-rule="nonzero" fill-opacity="1" /><path clip-path="url(#clip750)" d="M1503.64 1466.95 Q1506.99 1467.66 1508.87 1469.93 Q1510.77 1472.2 1510.77 1475.53 Q1510.77 1480.65 1507.25 1483.45 Q1503.73 1486.25 1497.25 1486.25 Q1495.07 1486.25 1492.76 1485.81 Q1490.47 1485.39 1488.01 1484.54 L1488.01 1480.02 Q1489.96 1481.16 1492.27 1481.74 Q1494.59 1482.32 1497.11 1482.32 Q1501.51 1482.32 1503.8 1480.58 Q1506.11 1478.84 1506.11 1475.53 Q1506.11 1472.48 1503.96 1470.77 Q1501.83 1469.03 1498.01 1469.03 L1493.98 1469.03 L1493.98 1465.19 L1498.2 1465.19 Q1501.65 1465.19 1503.47 1463.82 Q1505.3 1462.43 1505.3 1459.84 Q1505.3 1457.18 1503.4 1455.77 Q1501.53 1454.33 1498.01 1454.33 Q1496.09 1454.33 1493.89 1454.75 Q1491.69 1455.16 1489.05 1456.04 L1489.05 1451.88 Q1491.72 1451.14 1494.03 1450.77 Q1496.37 1450.39 1498.43 1450.39 Q1503.75 1450.39 1506.85 1452.83 Q1509.96 1455.23 1509.96 1459.35 Q1509.96 1462.22 1508.31 1464.21 Q1506.67 1466.18 1503.64 1466.95 Z" fill="#000000" fill-rule="nonzero" fill-opacity="1" /><path clip-path="url(#clip750)" d="M1909.05 1455.09 L1897.25 1473.54 L1909.05 1473.54 L1909.05 1455.09 M1907.83 1451.02 L1913.71 1451.02 L1913.71 1473.54 L1918.64 1473.54 L1918.64 1477.43 L1913.71 1477.43 L1913.71 1485.58 L1909.05 1485.58 L1909.05 1477.43 L1893.45 1477.43 L1893.45 1472.92 L1907.83 1451.02 Z" fill="#000000" fill-rule="nonzero" fill-opacity="1" /><path clip-path="url(#clip750)" d="M2302.98 1451.02 L2321.33 1451.02 L2321.33 1454.96 L2307.26 1454.96 L2307.26 1463.43 Q2308.28 1463.08 2309.3 1462.92 Q2310.32 1462.73 2311.33 1462.73 Q2317.12 1462.73 2320.5 1465.9 Q2323.88 1469.08 2323.88 1474.49 Q2323.88 1480.07 2320.41 1483.17 Q2316.94 1486.25 2310.62 1486.25 Q2308.44 1486.25 2306.17 1485.88 Q2303.93 1485.51 2301.52 1484.77 L2301.52 1480.07 Q2303.6 1481.2 2305.83 1481.76 Q2308.05 1482.32 2310.52 1482.32 Q2314.53 1482.32 2316.87 1480.21 Q2319.2 1478.1 2319.2 1474.49 Q2319.2 1470.88 2316.87 1468.77 Q2314.53 1466.67 2310.52 1466.67 Q2308.65 1466.67 2306.77 1467.08 Q2304.92 1467.5 2302.98 1468.38 L2302.98 1451.02 Z" fill="#000000" fill-rule="nonzero" fill-opacity="1" /><path clip-path="url(#clip750)" d="M1173.35 1522.27 L1173.35 1532.4 L1185.41 1532.4 L1185.41 1536.95 L1173.35 1536.95 L1173.35 1556.3 Q1173.35 1560.66 1174.53 1561.9 Q1175.74 1563.14 1179.4 1563.14 L1185.41 1563.14 L1185.41 1568.04 L1179.4 1568.04 Q1172.62 1568.04 1170.04 1565.53 Q1167.46 1562.98 1167.46 1556.3 L1167.46 1536.95 L1163.16 1536.95 L1163.16 1532.4 L1167.46 1532.4 L1167.46 1522.27 L1173.35 1522.27 Z" fill="#000000" fill-rule="nonzero" fill-opacity="1" /><path clip-path="url(#clip750)" d="M1193.11 1532.4 L1198.97 1532.4 L1198.97 1568.04 L1193.11 1568.04 L1193.11 1532.4 M1193.11 1518.52 L1198.97 1518.52 L1198.97 1525.93 L1193.11 1525.93 L1193.11 1518.52 Z" fill="#000000" fill-rule="nonzero" fill-opacity="1" /><path clip-path="url(#clip750)" d="M1238.98 1539.24 Q1241.18 1535.29 1244.23 1533.41 Q1247.29 1531.54 1251.42 1531.54 Q1256.99 1531.54 1260.02 1535.45 Q1263.04 1539.33 1263.04 1546.53 L1263.04 1568.04 L1257.15 1568.04 L1257.15 1546.72 Q1257.15 1541.59 1255.34 1539.11 Q1253.52 1536.63 1249.8 1536.63 Q1245.25 1536.63 1242.61 1539.65 Q1239.97 1542.68 1239.97 1547.9 L1239.97 1568.04 L1234.08 1568.04 L1234.08 1546.72 Q1234.08 1541.56 1232.26 1539.11 Q1230.45 1536.63 1226.66 1536.63 Q1222.17 1536.63 1219.53 1539.68 Q1216.89 1542.71 1216.89 1547.9 L1216.89 1568.04 L1211 1568.04 L1211 1532.4 L1216.89 1532.4 L1216.89 1537.93 Q1218.9 1534.66 1221.7 1533.1 Q1224.5 1531.54 1228.35 1531.54 Q1232.23 1531.54 1234.94 1533.51 Q1237.67 1535.48 1238.98 1539.24 Z" fill="#000000" fill-rule="nonzero" fill-opacity="1" /><path clip-path="url(#clip750)" d="M1305.21 1548.76 L1305.21 1551.62 L1278.29 1551.62 Q1278.67 1557.67 1281.92 1560.85 Q1285.19 1564 1291.02 1564 Q1294.39 1564 1297.54 1563.17 Q1300.73 1562.35 1303.85 1560.69 L1303.85 1566.23 Q1300.69 1567.57 1297.38 1568.27 Q1294.07 1568.97 1290.67 1568.97 Q1282.14 1568.97 1277.14 1564 Q1272.18 1559.04 1272.18 1550.57 Q1272.18 1541.82 1276.89 1536.69 Q1281.63 1531.54 1289.65 1531.54 Q1296.84 1531.54 1301.01 1536.18 Q1305.21 1540.8 1305.21 1548.76 M1299.36 1547.04 Q1299.29 1542.23 1296.65 1539.37 Q1294.04 1536.5 1289.71 1536.5 Q1284.81 1536.5 1281.85 1539.27 Q1278.92 1542.04 1278.48 1547.07 L1299.36 1547.04 Z" fill="#000000" fill-rule="nonzero" fill-opacity="1" /><path clip-path="url(#clip750)" d="M1349.62 1518.58 Q1345.35 1525.9 1343.28 1533.06 Q1341.21 1540.23 1341.21 1547.58 Q1341.21 1554.93 1343.28 1562.16 Q1345.38 1569.35 1349.62 1576.64 L1344.52 1576.64 Q1339.75 1569.16 1337.36 1561.93 Q1335.01 1554.71 1335.01 1547.58 Q1335.01 1540.48 1337.36 1533.29 Q1339.72 1526.09 1344.52 1518.58 L1349.62 1518.58 Z" fill="#000000" fill-rule="nonzero" fill-opacity="1" /><path clip-path="url(#clip750)" d="M1383.7 1533.45 L1383.7 1538.98 Q1381.22 1537.71 1378.55 1537.07 Q1375.87 1536.44 1373.01 1536.44 Q1368.65 1536.44 1366.45 1537.77 Q1364.29 1539.11 1364.29 1541.79 Q1364.29 1543.82 1365.85 1545 Q1367.41 1546.15 1372.12 1547.2 L1374.12 1547.64 Q1380.36 1548.98 1382.97 1551.43 Q1385.61 1553.85 1385.61 1558.21 Q1385.61 1563.17 1381.67 1566.07 Q1377.75 1568.97 1370.88 1568.97 Q1368.01 1568.97 1364.89 1568.39 Q1361.81 1567.85 1358.37 1566.74 L1358.37 1560.69 Q1361.61 1562.38 1364.77 1563.24 Q1367.92 1564.07 1371 1564.07 Q1375.14 1564.07 1377.37 1562.66 Q1379.6 1561.23 1379.6 1558.65 Q1379.6 1556.27 1377.97 1554.99 Q1376.38 1553.72 1370.94 1552.54 L1368.9 1552.07 Q1363.46 1550.92 1361.04 1548.56 Q1358.62 1546.18 1358.62 1542.04 Q1358.62 1537.01 1362.19 1534.27 Q1365.75 1531.54 1372.31 1531.54 Q1375.56 1531.54 1378.42 1532.01 Q1381.28 1532.49 1383.7 1533.45 Z" fill="#000000" fill-rule="nonzero" fill-opacity="1" /><path clip-path="url(#clip750)" d="M1394.02 1518.58 L1399.11 1518.58 Q1403.88 1526.09 1406.24 1533.29 Q1408.63 1540.48 1408.63 1547.58 Q1408.63 1554.71 1406.24 1561.93 Q1403.88 1569.16 1399.11 1576.64 L1394.02 1576.64 Q1398.25 1569.35 1400.32 1562.16 Q1402.42 1554.93 1402.42 1547.58 Q1402.42 1540.23 1400.32 1533.06 Q1398.25 1525.9 1394.02 1518.58 Z" fill="#000000" fill-rule="nonzero" fill-opacity="1" /><polyline clip-path="url(#clip750)" style="stroke:#000000; stroke-linecap:round; stroke-linejoin:round; stroke-width:4; stroke-opacity:1; fill:none" points="219.033,1423.18 219.033,123.472 "/>
<polyline clip-path="url(#clip750)" style="stroke:#000000; stroke-linecap:round; stroke-linejoin:round; stroke-width:4; stroke-opacity:1; fill:none" points="219.033,1163.03 237.931,1163.03 "/>
<polyline clip-path="url(#clip750)" style="stroke:#000000; stroke-linecap:round; stroke-linejoin:round; stroke-width:4; stroke-opacity:1; fill:none" points="219.033,877.721 237.931,877.721 "/>
<polyline clip-path="url(#clip750)" style="stroke:#000000; stroke-linecap:round; stroke-linejoin:round; stroke-width:4; stroke-opacity:1; fill:none" points="219.033,592.417 237.931,592.417 "/>
<polyline clip-path="url(#clip750)" style="stroke:#000000; stroke-linecap:round; stroke-linejoin:round; stroke-width:4; stroke-opacity:1; fill:none" points="219.033,307.113 237.931,307.113 "/>
<path clip-path="url(#clip750)" d="M116.668 1176.37 L124.306 1176.37 L124.306 1150 L115.996 1151.67 L115.996 1147.41 L124.26 1145.75 L128.936 1145.75 L128.936 1176.37 L136.575 1176.37 L136.575 1180.31 L116.668 1180.31 L116.668 1176.37 Z" fill="#000000" fill-rule="nonzero" fill-opacity="1" /><path clip-path="url(#clip750)" d="M146.019 1174.43 L150.903 1174.43 L150.903 1180.31 L146.019 1180.31 L146.019 1174.43 Z" fill="#000000" fill-rule="nonzero" fill-opacity="1" /><path clip-path="url(#clip750)" d="M171.089 1148.82 Q167.477 1148.82 165.649 1152.39 Q163.843 1155.93 163.843 1163.06 Q163.843 1170.17 165.649 1173.73 Q167.477 1177.27 171.089 1177.27 Q174.723 1177.27 176.528 1173.73 Q178.357 1170.17 178.357 1163.06 Q178.357 1155.93 176.528 1152.39 Q174.723 1148.82 171.089 1148.82 M171.089 1145.12 Q176.899 1145.12 179.954 1149.73 Q183.033 1154.31 183.033 1163.06 Q183.033 1171.79 179.954 1176.39 Q176.899 1180.98 171.089 1180.98 Q165.278 1180.98 162.2 1176.39 Q159.144 1171.79 159.144 1163.06 Q159.144 1154.31 162.2 1149.73 Q165.278 1145.12 171.089 1145.12 Z" fill="#000000" fill-rule="nonzero" fill-opacity="1" /><path clip-path="url(#clip750)" d="M117.663 891.066 L125.302 891.066 L125.302 864.7 L116.992 866.367 L116.992 862.108 L125.255 860.441 L129.931 860.441 L129.931 891.066 L137.57 891.066 L137.57 895.001 L117.663 895.001 L117.663 891.066 Z" fill="#000000" fill-rule="nonzero" fill-opacity="1" /><path clip-path="url(#clip750)" d="M147.015 889.122 L151.899 889.122 L151.899 895.001 L147.015 895.001 L147.015 889.122 Z" fill="#000000" fill-rule="nonzero" fill-opacity="1" /><path clip-path="url(#clip750)" d="M162.13 860.441 L180.487 860.441 L180.487 864.376 L166.413 864.376 L166.413 872.849 Q167.431 872.501 168.45 872.339 Q169.468 872.154 170.487 872.154 Q176.274 872.154 179.653 875.325 Q183.033 878.497 183.033 883.913 Q183.033 889.492 179.561 892.594 Q176.089 895.672 169.769 895.672 Q167.593 895.672 165.325 895.302 Q163.079 894.932 160.672 894.191 L160.672 889.492 Q162.755 890.626 164.977 891.182 Q167.2 891.737 169.677 891.737 Q173.681 891.737 176.019 889.631 Q178.357 887.524 178.357 883.913 Q178.357 880.302 176.019 878.196 Q173.681 876.089 169.677 876.089 Q167.802 876.089 165.927 876.506 Q164.075 876.923 162.13 877.802 L162.13 860.441 Z" fill="#000000" fill-rule="nonzero" fill-opacity="1" /><path clip-path="url(#clip750)" d="M119.885 605.762 L136.204 605.762 L136.204 609.697 L114.26 609.697 L114.26 605.762 Q116.922 603.007 121.505 598.378 Q126.112 593.725 127.292 592.383 Q129.538 589.859 130.417 588.123 Q131.32 586.364 131.32 584.674 Q131.32 581.92 129.376 580.183 Q127.455 578.447 124.353 578.447 Q122.154 578.447 119.7 579.211 Q117.269 579.975 114.492 581.526 L114.492 576.804 Q117.316 575.67 119.769 575.091 Q122.223 574.512 124.26 574.512 Q129.63 574.512 132.825 577.197 Q136.019 579.883 136.019 584.373 Q136.019 586.503 135.209 588.424 Q134.422 590.322 132.316 592.915 Q131.737 593.586 128.635 596.804 Q125.533 599.998 119.885 605.762 Z" fill="#000000" fill-rule="nonzero" fill-opacity="1" /><path clip-path="url(#clip750)" d="M146.019 603.818 L150.903 603.818 L150.903 609.697 L146.019 609.697 L146.019 603.818 Z" fill="#000000" fill-rule="nonzero" fill-opacity="1" /><path clip-path="url(#clip750)" d="M171.089 578.216 Q167.477 578.216 165.649 581.781 Q163.843 585.322 163.843 592.452 Q163.843 599.558 165.649 603.123 Q167.477 606.665 171.089 606.665 Q174.723 606.665 176.528 603.123 Q178.357 599.558 178.357 592.452 Q178.357 585.322 176.528 581.781 Q174.723 578.216 171.089 578.216 M171.089 574.512 Q176.899 574.512 179.954 579.119 Q183.033 583.702 183.033 592.452 Q183.033 601.179 179.954 605.785 Q176.899 610.369 171.089 610.369 Q165.278 610.369 162.2 605.785 Q159.144 601.179 159.144 592.452 Q159.144 583.702 162.2 579.119 Q165.278 574.512 171.089 574.512 Z" fill="#000000" fill-rule="nonzero" fill-opacity="1" /><path clip-path="url(#clip750)" d="M120.88 320.458 L137.2 320.458 L137.2 324.393 L115.256 324.393 L115.256 320.458 Q117.918 317.703 122.501 313.074 Q127.107 308.421 128.288 307.079 Q130.533 304.555 131.413 302.819 Q132.316 301.06 132.316 299.37 Q132.316 296.616 130.371 294.88 Q128.45 293.143 125.348 293.143 Q123.149 293.143 120.695 293.907 Q118.265 294.671 115.487 296.222 L115.487 291.5 Q118.311 290.366 120.765 289.787 Q123.218 289.208 125.255 289.208 Q130.626 289.208 133.82 291.893 Q137.015 294.579 137.015 299.069 Q137.015 301.199 136.204 303.12 Q135.417 305.018 133.311 307.611 Q132.732 308.282 129.63 311.5 Q126.529 314.694 120.88 320.458 Z" fill="#000000" fill-rule="nonzero" fill-opacity="1" /><path clip-path="url(#clip750)" d="M147.015 318.514 L151.899 318.514 L151.899 324.393 L147.015 324.393 L147.015 318.514 Z" fill="#000000" fill-rule="nonzero" fill-opacity="1" /><path clip-path="url(#clip750)" d="M162.13 289.833 L180.487 289.833 L180.487 293.768 L166.413 293.768 L166.413 302.241 Q167.431 301.893 168.45 301.731 Q169.468 301.546 170.487 301.546 Q176.274 301.546 179.653 304.717 Q183.033 307.889 183.033 313.305 Q183.033 318.884 179.561 321.986 Q176.089 325.065 169.769 325.065 Q167.593 325.065 165.325 324.694 Q163.079 324.324 160.672 323.583 L160.672 318.884 Q162.755 320.018 164.977 320.574 Q167.2 321.129 169.677 321.129 Q173.681 321.129 176.019 319.023 Q178.357 316.916 178.357 313.305 Q178.357 309.694 176.019 307.588 Q173.681 305.481 169.677 305.481 Q167.802 305.481 165.927 305.898 Q164.075 306.315 162.13 307.194 L162.13 289.833 Z" fill="#000000" fill-rule="nonzero" fill-opacity="1" /><path clip-path="url(#clip750)" d="M33.8307 1069.04 Q33.2578 1070.03 33.0032 1071.21 Q32.7167 1072.36 32.7167 1073.76 Q32.7167 1078.72 35.9632 1081.39 Q39.1779 1084.04 45.2253 1084.04 L64.0042 1084.04 L64.0042 1089.92 L28.3562 1089.92 L28.3562 1084.04 L33.8944 1084.04 Q30.6479 1082.19 29.0883 1079.23 Q27.4968 1076.27 27.4968 1072.04 Q27.4968 1071.43 27.5923 1070.7 Q27.656 1069.97 27.8151 1069.08 L33.8307 1069.04 Z" fill="#000000" fill-rule="nonzero" fill-opacity="1" /><path clip-path="url(#clip750)" d="M32.4621 1050.52 Q32.4621 1055.23 36.1542 1057.97 Q39.8145 1060.71 46.212 1060.71 Q52.6095 1060.71 56.3017 1058 Q59.9619 1055.26 59.9619 1050.52 Q59.9619 1045.84 56.2698 1043.1 Q52.5777 1040.37 46.212 1040.37 Q39.8781 1040.37 36.186 1043.1 Q32.4621 1045.84 32.4621 1050.52 M27.4968 1050.52 Q27.4968 1042.88 32.4621 1038.52 Q37.4273 1034.16 46.212 1034.16 Q54.9649 1034.16 59.9619 1038.52 Q64.9272 1042.88 64.9272 1050.52 Q64.9272 1058.19 59.9619 1062.55 Q54.9649 1066.88 46.212 1066.88 Q37.4273 1066.88 32.4621 1062.55 Q27.4968 1058.19 27.4968 1050.52 Z" fill="#000000" fill-rule="nonzero" fill-opacity="1" /><path clip-path="url(#clip750)" d="M18.2347 1018.66 L28.3562 1018.66 L28.3562 1006.6 L32.9077 1006.6 L32.9077 1018.66 L52.2594 1018.66 Q56.6199 1018.66 57.8613 1017.48 Q59.1026 1016.27 59.1026 1012.61 L59.1026 1006.6 L64.0042 1006.6 L64.0042 1012.61 Q64.0042 1019.39 61.4897 1021.97 Q58.9434 1024.55 52.2594 1024.55 L32.9077 1024.55 L32.9077 1028.85 L28.3562 1028.85 L28.3562 1024.55 L18.2347 1024.55 L18.2347 1018.66 Z" fill="#000000" fill-rule="nonzero" fill-opacity="1" /><path clip-path="url(#clip750)" d="M32.4621 985.081 Q32.4621 989.792 36.1542 992.529 Q39.8145 995.266 46.212 995.266 Q52.6095 995.266 56.3017 992.561 Q59.9619 989.824 59.9619 985.081 Q59.9619 980.402 56.2698 977.665 Q52.5777 974.928 46.212 974.928 Q39.8781 974.928 36.186 977.665 Q32.4621 980.402 32.4621 985.081 M27.4968 985.081 Q27.4968 977.442 32.4621 973.082 Q37.4273 968.721 46.212 968.721 Q54.9649 968.721 59.9619 973.082 Q64.9272 977.442 64.9272 985.081 Q64.9272 992.752 59.9619 997.112 Q54.9649 1001.44 46.212 1001.44 Q37.4273 1001.44 32.4621 997.112 Q27.4968 992.752 27.4968 985.081 Z" fill="#000000" fill-rule="nonzero" fill-opacity="1" /><path clip-path="url(#clip750)" d="M33.8307 938.357 Q33.2578 939.344 33.0032 940.521 Q32.7167 941.667 32.7167 943.068 Q32.7167 948.033 35.9632 950.706 Q39.1779 953.348 45.2253 953.348 L64.0042 953.348 L64.0042 959.236 L28.3562 959.236 L28.3562 953.348 L33.8944 953.348 Q30.6479 951.502 29.0883 948.542 Q27.4968 945.582 27.4968 941.349 Q27.4968 940.744 27.5923 940.012 Q27.656 939.28 27.8151 938.389 L33.8307 938.357 Z" fill="#000000" fill-rule="nonzero" fill-opacity="1" /><path clip-path="url(#clip750)" d="M29.4065 888.768 L34.9447 888.768 Q33.6716 891.251 33.035 893.924 Q32.3984 896.598 32.3984 899.462 Q32.3984 903.823 33.7352 906.019 Q35.072 908.183 37.7456 908.183 Q39.7826 908.183 40.9603 906.624 Q42.1061 905.064 43.1565 900.354 L43.6021 898.348 Q44.9389 892.11 47.3897 889.5 Q49.8086 886.858 54.1691 886.858 Q59.1344 886.858 62.0308 890.805 Q64.9272 894.72 64.9272 901.595 Q64.9272 904.46 64.3543 907.579 Q63.8132 910.666 62.6992 914.104 L56.6518 914.104 Q58.3387 910.857 59.198 907.706 Q60.0256 904.555 60.0256 901.468 Q60.0256 897.33 58.6251 895.102 Q57.1929 892.874 54.6147 892.874 Q52.2276 892.874 50.9545 894.497 Q49.6813 896.089 48.5037 901.531 L48.0262 903.568 Q46.8804 909.011 44.5251 911.43 Q42.138 913.849 38.0002 913.849 Q32.9713 913.849 30.2341 910.284 Q27.4968 906.719 27.4968 900.163 Q27.4968 896.916 27.9743 894.052 Q28.4517 891.187 29.4065 888.768 Z" fill="#000000" fill-rule="nonzero" fill-opacity="1" /><path clip-path="url(#clip750)" d="M58.657 871.867 L77.5631 871.867 L77.5631 877.755 L28.3562 877.755 L28.3562 871.867 L33.7671 871.867 Q30.5842 870.021 29.0564 867.22 Q27.4968 864.387 27.4968 860.473 Q27.4968 853.979 32.6531 849.937 Q37.8093 845.863 46.212 845.863 Q54.6147 845.863 59.771 849.937 Q64.9272 853.979 64.9272 860.473 Q64.9272 864.387 63.3994 867.22 Q61.8398 870.021 58.657 871.867 M46.212 851.942 Q39.7508 851.942 36.0905 854.616 Q32.3984 857.258 32.3984 861.905 Q32.3984 866.552 36.0905 869.225 Q39.7508 871.867 46.212 871.867 Q52.6732 871.867 56.3653 869.225 Q60.0256 866.552 60.0256 861.905 Q60.0256 857.258 56.3653 854.616 Q52.6732 851.942 46.212 851.942 Z" fill="#000000" fill-rule="nonzero" fill-opacity="1" /><path clip-path="url(#clip750)" d="M44.7161 805.664 L47.5806 805.664 L47.5806 832.591 Q53.6281 832.209 56.8109 828.962 Q59.9619 825.684 59.9619 819.859 Q59.9619 816.485 59.1344 813.334 Q58.3069 810.152 56.6518 807.032 L62.1899 807.032 Q63.5267 810.183 64.227 813.494 Q64.9272 816.804 64.9272 820.209 Q64.9272 828.739 59.9619 833.737 Q54.9967 838.702 46.5303 838.702 Q37.7774 838.702 32.6531 833.991 Q27.4968 829.249 27.4968 821.228 Q27.4968 814.035 32.1438 809.865 Q36.7589 805.664 44.7161 805.664 M42.9973 811.52 Q38.1912 811.584 35.3266 814.226 Q32.4621 816.836 32.4621 821.164 Q32.4621 826.066 35.2312 829.026 Q38.0002 831.954 43.0292 832.4 L42.9973 811.52 Z" fill="#000000" fill-rule="nonzero" fill-opacity="1" /><path clip-path="url(#clip750)" d="M44.7161 765.56 L47.5806 765.56 L47.5806 792.487 Q53.6281 792.105 56.8109 788.858 Q59.9619 785.58 59.9619 779.755 Q59.9619 776.382 59.1344 773.23 Q58.3069 770.048 56.6518 766.928 L62.1899 766.928 Q63.5267 770.079 64.227 773.39 Q64.9272 776.7 64.9272 780.105 Q64.9272 788.636 59.9619 793.633 Q54.9967 798.598 46.5303 798.598 Q37.7774 798.598 32.6531 793.887 Q27.4968 789.145 27.4968 781.124 Q27.4968 773.931 32.1438 769.761 Q36.7589 765.56 44.7161 765.56 M42.9973 771.416 Q38.1912 771.48 35.3266 774.122 Q32.4621 776.732 32.4621 781.06 Q32.4621 785.962 35.2312 788.922 Q38.0002 791.85 43.0292 792.296 L42.9973 771.416 Z" fill="#000000" fill-rule="nonzero" fill-opacity="1" /><path clip-path="url(#clip750)" d="M33.7671 732.49 L14.479 732.49 L14.479 726.634 L64.0042 726.634 L64.0042 732.49 L58.657 732.49 Q61.8398 734.336 63.3994 737.169 Q64.9272 739.97 64.9272 743.916 Q64.9272 750.378 59.771 754.452 Q54.6147 758.494 46.212 758.494 Q37.8093 758.494 32.6531 754.452 Q27.4968 750.378 27.4968 743.916 Q27.4968 739.97 29.0564 737.169 Q30.5842 734.336 33.7671 732.49 M46.212 752.446 Q52.6732 752.446 56.3653 749.805 Q60.0256 747.131 60.0256 742.484 Q60.0256 737.837 56.3653 735.164 Q52.6732 732.49 46.212 732.49 Q39.7508 732.49 36.0905 735.164 Q32.3984 737.837 32.3984 742.484 Q32.3984 747.131 36.0905 749.805 Q39.7508 752.446 46.212 752.446 Z" fill="#000000" fill-rule="nonzero" fill-opacity="1" /><path clip-path="url(#clip750)" d="M29.4065 691.845 L34.9447 691.845 Q33.6716 694.328 33.035 697.001 Q32.3984 699.675 32.3984 702.539 Q32.3984 706.9 33.7352 709.096 Q35.072 711.26 37.7456 711.26 Q39.7826 711.26 40.9603 709.701 Q42.1061 708.141 43.1565 703.431 L43.6021 701.425 Q44.9389 695.187 47.3897 692.577 Q49.8086 689.935 54.1691 689.935 Q59.1344 689.935 62.0308 693.882 Q64.9272 697.797 64.9272 704.672 Q64.9272 707.536 64.3543 710.656 Q63.8132 713.743 62.6992 717.18 L56.6518 717.18 Q58.3387 713.934 59.198 710.783 Q60.0256 707.632 60.0256 704.545 Q60.0256 700.407 58.6251 698.179 Q57.1929 695.951 54.6147 695.951 Q52.2276 695.951 50.9545 697.574 Q49.6813 699.166 48.5037 704.608 L48.0262 706.645 Q46.8804 712.088 44.5251 714.507 Q42.138 716.926 38.0002 716.926 Q32.9713 716.926 30.2341 713.361 Q27.4968 709.796 27.4968 703.24 Q27.4968 699.993 27.9743 697.128 Q28.4517 694.264 29.4065 691.845 Z" fill="#000000" fill-rule="nonzero" fill-opacity="1" /><path clip-path="url(#clip750)" d="M14.5426 645.821 Q21.8632 650.086 29.0246 652.155 Q36.186 654.224 43.5384 654.224 Q50.8908 654.224 58.1159 652.155 Q65.3091 650.054 72.5979 645.821 L72.5979 650.913 Q65.1182 655.688 57.8931 658.075 Q50.668 660.43 43.5384 660.43 Q36.4406 660.43 29.2474 658.075 Q22.0542 655.72 14.5426 650.913 L14.5426 645.821 Z" fill="#000000" fill-rule="nonzero" fill-opacity="1" /><path clip-path="url(#clip750)" d="M33.8307 613.801 Q33.2578 614.788 33.0032 615.966 Q32.7167 617.112 32.7167 618.512 Q32.7167 623.477 35.9632 626.151 Q39.1779 628.793 45.2253 628.793 L64.0042 628.793 L64.0042 634.681 L28.3562 634.681 L28.3562 628.793 L33.8944 628.793 Q30.6479 626.947 29.0883 623.987 Q27.4968 621.026 27.4968 616.793 Q27.4968 616.189 27.5923 615.456 Q27.656 614.724 27.8151 613.833 L33.8307 613.801 Z" fill="#000000" fill-rule="nonzero" fill-opacity="1" /><path clip-path="url(#clip750)" d="M46.0847 591.458 Q46.0847 598.556 47.7079 601.293 Q49.3312 604.03 53.2461 604.03 Q56.3653 604.03 58.2114 601.993 Q60.0256 599.924 60.0256 596.391 Q60.0256 591.521 56.5881 588.593 Q53.1188 585.633 47.3897 585.633 L46.0847 585.633 L46.0847 591.458 M43.6657 579.777 L64.0042 579.777 L64.0042 585.633 L58.5933 585.633 Q61.8398 587.638 63.3994 590.63 Q64.9272 593.622 64.9272 597.951 Q64.9272 603.425 61.8716 606.672 Q58.7843 609.886 53.6281 609.886 Q47.6125 609.886 44.5569 605.876 Q41.5014 601.834 41.5014 593.845 L41.5014 585.633 L40.9285 585.633 Q36.8862 585.633 34.6901 588.307 Q32.4621 590.948 32.4621 595.755 Q32.4621 598.81 33.1941 601.707 Q33.9262 604.603 35.3903 607.277 L29.9795 607.277 Q28.7381 604.062 28.1334 601.038 Q27.4968 598.014 27.4968 595.15 Q27.4968 587.416 31.5072 583.596 Q35.5176 579.777 43.6657 579.777 Z" fill="#000000" fill-rule="nonzero" fill-opacity="1" /><path clip-path="url(#clip750)" d="M33.7671 544.256 L14.479 544.256 L14.479 538.4 L64.0042 538.4 L64.0042 544.256 L58.657 544.256 Q61.8398 546.102 63.3994 548.935 Q64.9272 551.736 64.9272 555.682 Q64.9272 562.144 59.771 566.218 Q54.6147 570.26 46.212 570.26 Q37.8093 570.26 32.6531 566.218 Q27.4968 562.144 27.4968 555.682 Q27.4968 551.736 29.0564 548.935 Q30.5842 546.102 33.7671 544.256 M46.212 564.213 Q52.6732 564.213 56.3653 561.571 Q60.0256 558.897 60.0256 554.25 Q60.0256 549.603 56.3653 546.93 Q52.6732 544.256 46.212 544.256 Q39.7508 544.256 36.0905 546.93 Q32.3984 549.603 32.3984 554.25 Q32.3984 558.897 36.0905 561.571 Q39.7508 564.213 46.212 564.213 Z" fill="#000000" fill-rule="nonzero" fill-opacity="1" /><path clip-path="url(#clip750)" d="M16.4842 515.929 L16.4842 510.518 L70.0516 527.069 L70.0516 532.479 L16.4842 515.929 Z" fill="#000000" fill-rule="nonzero" fill-opacity="1" /><path clip-path="url(#clip750)" d="M29.4065 481.649 L34.9447 481.649 Q33.6716 484.132 33.035 486.806 Q32.3984 489.479 32.3984 492.344 Q32.3984 496.704 33.7352 498.9 Q35.072 501.065 37.7456 501.065 Q39.7826 501.065 40.9603 499.505 Q42.1061 497.946 43.1565 493.235 L43.6021 491.23 Q44.9389 484.991 47.3897 482.381 Q49.8086 479.74 54.1691 479.74 Q59.1344 479.74 62.0308 483.686 Q64.9272 487.601 64.9272 494.476 Q64.9272 497.341 64.3543 500.46 Q63.8132 503.547 62.6992 506.985 L56.6518 506.985 Q58.3387 503.738 59.198 500.587 Q60.0256 497.436 60.0256 494.349 Q60.0256 490.211 58.6251 487.983 Q57.1929 485.755 54.6147 485.755 Q52.2276 485.755 50.9545 487.378 Q49.6813 488.97 48.5037 494.413 L48.0262 496.45 Q46.8804 501.892 44.5251 504.311 Q42.138 506.73 38.0002 506.73 Q32.9713 506.73 30.2341 503.165 Q27.4968 499.601 27.4968 493.044 Q27.4968 489.797 27.9743 486.933 Q28.4517 484.068 29.4065 481.649 Z" fill="#000000" fill-rule="nonzero" fill-opacity="1" /><path clip-path="url(#clip750)" d="M14.5426 471.337 L14.5426 466.244 Q22.0542 461.47 29.2474 459.115 Q36.4406 456.728 43.5384 456.728 Q50.668 456.728 57.8931 459.115 Q65.1182 461.47 72.5979 466.244 L72.5979 471.337 Q65.3091 467.104 58.1159 465.035 Q50.8908 462.934 43.5384 462.934 Q36.186 462.934 29.0246 465.035 Q21.8632 467.104 14.5426 471.337 Z" fill="#000000" fill-rule="nonzero" fill-opacity="1" /><path clip-path="url(#clip750)" d="M1167.47 16.7545 L1167.47 25.383 Q1163.33 21.5346 1158.64 19.6307 Q1153.98 17.7268 1148.71 17.7268 Q1138.34 17.7268 1132.83 24.0867 Q1127.32 30.4061 1127.32 42.3968 Q1127.32 54.3469 1132.83 60.7069 Q1138.34 67.0263 1148.71 67.0263 Q1153.98 67.0263 1158.64 65.1223 Q1163.33 63.2184 1167.47 59.3701 L1167.47 67.9175 Q1163.17 70.8341 1158.35 72.2924 Q1153.57 73.7508 1148.22 73.7508 Q1134.49 73.7508 1126.59 65.3654 Q1118.69 56.9395 1118.69 42.3968 Q1118.69 27.8135 1126.59 19.4281 Q1134.49 11.0023 1148.22 11.0023 Q1153.65 11.0023 1158.43 12.4606 Q1163.25 13.8784 1167.47 16.7545 Z" fill="#000000" fill-rule="nonzero" fill-opacity="1" /><path clip-path="url(#clip750)" d="M1197.36 32.4315 Q1191.37 32.4315 1187.88 37.1306 Q1184.4 41.7891 1184.4 49.9314 Q1184.4 58.0738 1187.84 62.7728 Q1191.33 67.4314 1197.36 67.4314 Q1203.32 67.4314 1206.8 62.7323 Q1210.28 58.0333 1210.28 49.9314 Q1210.28 41.8701 1206.8 37.1711 Q1203.32 32.4315 1197.36 32.4315 M1197.36 26.1121 Q1207.08 26.1121 1212.63 32.4315 Q1218.18 38.7509 1218.18 49.9314 Q1218.18 61.0714 1212.63 67.4314 Q1207.08 73.7508 1197.36 73.7508 Q1187.6 73.7508 1182.05 67.4314 Q1176.54 61.0714 1176.54 49.9314 Q1176.54 38.7509 1182.05 32.4315 Q1187.6 26.1121 1197.36 26.1121 Z" fill="#000000" fill-rule="nonzero" fill-opacity="1" /><path clip-path="url(#clip750)" d="M1268.25 45.1919 L1268.25 72.576 L1260.8 72.576 L1260.8 45.4349 Q1260.8 38.994 1258.29 35.7938 Q1255.78 32.5936 1250.75 32.5936 Q1244.72 32.5936 1241.23 36.4419 Q1237.75 40.2903 1237.75 46.9338 L1237.75 72.576 L1230.26 72.576 L1230.26 27.2059 L1237.75 27.2059 L1237.75 34.2544 Q1240.42 30.163 1244.03 28.1376 Q1247.67 26.1121 1252.41 26.1121 Q1260.23 26.1121 1264.24 30.9732 Q1268.25 35.7938 1268.25 45.1919 Z" fill="#000000" fill-rule="nonzero" fill-opacity="1" /><path clip-path="url(#clip750)" d="M1290.49 14.324 L1290.49 27.2059 L1305.85 27.2059 L1305.85 32.9987 L1290.49 32.9987 L1290.49 57.6282 Q1290.49 63.1779 1291.99 64.7578 Q1293.53 66.3376 1298.19 66.3376 L1305.85 66.3376 L1305.85 72.576 L1298.19 72.576 Q1289.56 72.576 1286.28 69.3758 Q1283 66.1351 1283 57.6282 L1283 32.9987 L1277.53 32.9987 L1277.53 27.2059 L1283 27.2059 L1283 14.324 L1290.49 14.324 Z" fill="#000000" fill-rule="nonzero" fill-opacity="1" /><path clip-path="url(#clip750)" d="M1341.94 34.1734 Q1340.68 33.4443 1339.18 33.1202 Q1337.73 32.7556 1335.94 32.7556 Q1329.62 32.7556 1326.22 36.8875 Q1322.86 40.9789 1322.86 48.6757 L1322.86 72.576 L1315.36 72.576 L1315.36 27.2059 L1322.86 27.2059 L1322.86 34.2544 Q1325.21 30.1225 1328.98 28.1376 Q1332.74 26.1121 1338.13 26.1121 Q1338.9 26.1121 1339.83 26.2337 Q1340.76 26.3147 1341.9 26.5172 L1341.94 34.1734 Z" fill="#000000" fill-rule="nonzero" fill-opacity="1" /><path clip-path="url(#clip750)" d="M1365.51 32.4315 Q1359.52 32.4315 1356.04 37.1306 Q1352.55 41.7891 1352.55 49.9314 Q1352.55 58.0738 1356 62.7728 Q1359.48 67.4314 1365.51 67.4314 Q1371.47 67.4314 1374.95 62.7323 Q1378.44 58.0333 1378.44 49.9314 Q1378.44 41.8701 1374.95 37.1711 Q1371.47 32.4315 1365.51 32.4315 M1365.51 26.1121 Q1375.24 26.1121 1380.79 32.4315 Q1386.34 38.7509 1386.34 49.9314 Q1386.34 61.0714 1380.79 67.4314 Q1375.24 73.7508 1365.51 73.7508 Q1355.75 73.7508 1350.2 67.4314 Q1344.69 61.0714 1344.69 49.9314 Q1344.69 38.7509 1350.2 32.4315 Q1355.75 26.1121 1365.51 26.1121 Z" fill="#000000" fill-rule="nonzero" fill-opacity="1" /><path clip-path="url(#clip750)" d="M1398.69 9.54393 L1406.15 9.54393 L1406.15 72.576 L1398.69 72.576 L1398.69 9.54393 Z" fill="#000000" fill-rule="nonzero" fill-opacity="1" /><path clip-path="url(#clip750)" d="M1450.66 28.5427 L1450.66 35.5912 Q1447.51 33.9709 1444.1 33.1607 Q1440.7 32.3505 1437.05 32.3505 Q1431.5 32.3505 1428.71 34.0519 Q1425.95 35.7533 1425.95 39.156 Q1425.95 41.7486 1427.94 43.2475 Q1429.92 44.7058 1435.92 46.0426 L1438.47 46.6097 Q1446.41 48.3111 1449.73 51.4303 Q1453.1 54.509 1453.1 60.0587 Q1453.1 66.3781 1448.07 70.0644 Q1443.09 73.7508 1434.34 73.7508 Q1430.69 73.7508 1426.72 73.0216 Q1422.79 72.3329 1418.42 70.9151 L1418.42 63.2184 Q1422.55 65.3654 1426.56 66.4591 Q1430.57 67.5124 1434.5 67.5124 Q1439.77 67.5124 1442.6 65.73 Q1445.44 63.9071 1445.44 60.6258 Q1445.44 57.5877 1443.37 55.9673 Q1441.35 54.3469 1434.42 52.8481 L1431.83 52.2405 Q1424.9 50.7821 1421.82 47.7845 Q1418.74 44.7463 1418.74 39.4801 Q1418.74 33.0797 1423.28 29.5959 Q1427.82 26.1121 1436.16 26.1121 Q1440.29 26.1121 1443.94 26.7198 Q1447.59 27.3274 1450.66 28.5427 Z" fill="#000000" fill-rule="nonzero" fill-opacity="1" /><polyline clip-path="url(#clip752)" style="stroke:#009af9; stroke-linecap:round; stroke-linejoin:round; stroke-width:4; stroke-opacity:1; fill:none" points="279.421,1110.07 299.754,961.018 320.087,741.624 340.42,569.883 360.752,443.275 381.085,352.702 401.418,288.945 421.751,244.463 442.084,213.953 462.416,194.214 482.749,183.7 503.082,182.013 523.415,189.443 543.748,206.602 564.08,234.136 584.413,272.465 604.746,321.535 625.079,380.542 645.412,447.649 665.744,519.778 686.077,592.567 706.41,660.624 726.743,718.113 747.075,759.577 767.408,780.846 787.741,779.759 808.074,756.564 828.407,713.866 848.739,656.174 869.072,589.136 889.405,518.673 909.738,450.217 930.071,388.216 950.403,335.963 970.736,295.693 991.069,268.848 1011.4,256.392 1031.73,259.115 1052.07,277.854 1072.4,313.609 1092.73,367.48 1113.07,440.331 1133.4,532.142 1153.73,641.079 1174.06,762.546 1194.4,888.667 1214.73,1008.68 1235.06,1110.38 1255.4,1182.21 1275.73,1215.4 1296.06,1205.52 1316.39,1153.29 1336.73,1064.65 1357.06,949.873 1377.39,821.708 1397.72,692.866 1418.06,573.736 1438.39,471.123 1458.72,388.259 1479.06,325.707 1499.39,282.533 1519.72,257.276 1540.05,248.532 1560.39,255.187 1580.72,276.378 1601.05,311.294 1621.39,358.876 1641.72,417.457 1662.05,484.404 1682.38,555.88 1702.72,626.828 1723.05,691.306 1743.38,743.169 1763.71,776.982 1784.05,788.95 1804.38,777.613 1824.71,744.127 1845.05,692.068 1865.38,626.79 1885.71,554.518 1906.04,481.409 1926.38,412.811 1946.71,352.864 1967.04,304.437 1987.38,269.291 2007.71,248.328 2028.04,241.823 2048.37,249.568 2068.71,270.941 2089.04,304.91 2109.37,350.017 2129.71,404.381 2150.04,465.753 2170.37,531.636 2190.7,599.47 2211.04,666.844 2231.37,731.672 2251.7,792.309 2272.03,847.733 2292.37,902.667 "/>
<polyline clip-path="url(#clip752)" style="stroke:#e26f46; stroke-linecap:round; stroke-linejoin:round; stroke-width:4; stroke-opacity:1; fill:none" points="279.421,1386.4 299.754,866.672 320.087,657.359 340.42,498.944 360.752,382.443 381.085,300.522 401.418,244.499 421.751,206.836 442.084,182.132 462.416,167.124 482.749,160.256 503.082,161.179 523.415,170.28 543.748,188.317 564.08,216.125 584.413,254.359 604.746,303.233 625.079,362.219 645.412,429.735 665.744,502.885 686.077,577.391 706.41,647.832 726.743,708.251 747.075,753.041 767.408,777.892 787.741,780.554 808.074,761.205 828.407,722.371 848.739,668.43 869.072,604.854 889.405,537.376 909.738,471.279 930.071,410.945 950.403,359.697 970.736,319.875 991.069,293.073 1011.4,280.415 1031.73,282.825 1052.07,301.236 1072.4,336.684 1092.73,390.246 1113.07,462.714 1133.4,553.965 1153.73,662.073 1174.06,782.409 1194.4,907.153 1214.73,1025.68 1235.06,1125.95 1255.4,1196.5 1275.73,1228.56 1296.06,1217.57 1316.39,1164.1 1336.73,1074 1357.06,957.584 1377.39,827.724 1397.72,697.309 1418.06,576.854 1438.39,473.196 1458.72,389.503 1479.06,326.222 1499.39,282.293 1519.72,256.166 1540.05,246.406 1560.39,251.934 1580.72,271.989 1601.05,305.92 1621.39,352.854 1641.72,411.296 1662.05,478.732 1682.38,551.345 1702.72,623.992 1723.05,690.565 1743.38,744.733 1763.71,780.916 1784.05,795.243 1804.38,786.221 1824.71,754.965 1845.05,704.948 1865.38,641.361 1885.71,570.247 1906.04,497.628 1926.38,428.82 1946.71,368.04 1967.04,318.31 1987.38,281.566 2007.71,258.861 2028.04,250.558 2048.37,256.472 2068.71,275.941 2089.04,307.857 2109.37,350.68 2129.71,402.47 2150.04,460.954 2170.37,523.652 2190.7,588.037 2211.04,651.678 2231.37,712.325 2251.7,767.838 2272.03,815.545 2292.37,839.924 "/>
<polyline clip-path="url(#clip752)" style="stroke:#3da44d; stroke-linecap:round; stroke-linejoin:round; stroke-width:4; stroke-opacity:1; fill:none" points="279.421,1263.42 299.754,958.607 320.087,733.87 340.42,561.169 360.752,433.987 381.085,343.447 401.418,280.336 421.751,236.969 442.084,207.873 462.416,189.69 482.749,180.743 503.082,180.517 523.415,189.203 543.748,207.327 564.08,235.457 584.413,273.952 604.746,322.727 625.079,380.982 645.412,446.936 665.744,517.611 686.077,588.783 706.41,655.204 726.743,711.155 747.075,751.252 767.408,771.35 787.741,769.295 808.074,745.34 828.407,702.116 848.739,644.161 869.072,577.127 889.405,506.886 909.738,438.753 930.071,377.009 950.403,324.754 970.736,284.042 991.069,256.176 1011.4,242.055 1031.73,242.491 1052.07,258.461 1072.4,291.239 1092.73,342.339 1113.07,413.156 1133.4,504.232 1153.73,614.168 1174.06,738.484 1194.4,868.979 1214.73,994.179 1235.06,1101.06 1255.4,1177.52 1275.73,1214.76 1296.06,1208.74 1316.39,1160.72 1336.73,1076.88 1357.06,967.252 1377.39,843.872 1397.72,718.636 1418.06,601.359 1438.39,498.709 1458.72,414.192 1479.06,348.884 1499.39,302.416 1519.72,273.817 1540.05,262.045 1560.39,266.21 1580.72,285.552 1601.05,319.274 1621.39,366.25 1641.72,424.693 1662.05,491.821 1682.38,563.632 1702.72,634.932 1723.05,699.679 1743.38,751.681 1763.71,785.497 1784.05,797.344 1804.38,785.765 1824.71,751.904 1845.05,699.322 1865.38,633.371 1885.71,560.31 1906.04,486.363 1926.38,416.962 1946.71,356.323 1967.04,307.363 1987.38,271.849 2007.71,250.645 2028.04,243.955 2048.37,251.476 2068.71,272.488 2089.04,305.871 2109.37,350.111 2129.71,403.312 2150.04,463.26 2170.37,527.546 2190.7,593.736 2211.04,659.569 2231.37,723.115 2251.7,782.857 2272.03,837.547 2292.37,881.638 "/>
<polyline clip-path="url(#clip752)" style="stroke:#c271d2; stroke-linecap:round; stroke-linejoin:round; stroke-width:4; stroke-opacity:1; fill:none" points="279.421,743.071 299.754,919.528 320.087,744.319 340.42,590.284 360.752,470.11 381.085,380.024 401.418,313.969 421.751,266.247 442.084,232.57 462.416,210.248 482.749,197.949 503.082,195.308 523.415,202.538 543.748,220.094 564.08,248.397 584.413,287.602 604.746,337.368 625.079,396.621 645.412,463.319 665.744,534.287 686.077,605.198 706.41,670.814 726.743,725.51 747.075,764.032 767.408,782.344 787.741,778.358 808.074,752.367 828.407,707.059 848.739,647.077 869.072,578.231 889.405,506.56 909.738,437.504 930.071,375.384 950.403,323.251 970.736,283.035 991.069,255.881 1011.4,242.529 1031.73,243.667 1052.07,260.197 1072.4,293.384 1092.73,344.793 1113.07,415.924 1133.4,507.451 1153.73,618.096 1174.06,743.436 1194.4,875.229 1214.73,1001.87 1235.06,1110.15 1255.4,1187.88 1275.73,1226.21 1296.06,1221.23 1316.39,1174.32 1336.73,1091.76 1357.06,983.57 1377.39,861.664 1397.72,737.788 1418.06,621.639 1438.39,519.854 1458.72,435.988 1479.06,371.207 1499.39,325.233 1519.72,297.146 1540.05,285.903 1560.39,290.544 1580.72,310.185 1601.05,343.856 1621.39,390.247 1641.72,447.403 1662.05,512.442 1682.38,581.362 1702.72,649.078 1723.05,709.738 1743.38,757.358 1763.71,786.67 1784.05,793.997 1804.38,777.945 1824.71,739.739 1845.05,683.071 1865.38,613.494 1885.71,537.478 1906.04,461.405 1926.38,390.76 1946.71,329.7 1967.04,280.994 1987.38,246.23 2007.71,226.114 2028.04,220.738 2048.37,229.754 2068.71,252.45 2089.04,287.748 2109.37,334.171 2129.71,389.829 2150.04,452.446 2170.37,519.459 2190.7,588.174 2211.04,655.929 2231.37,720.21 2251.7,778.631 2272.03,829.11 2292.37,881.795 "/>
<path clip-path="url(#clip750)" d="M1991.04 1379.86 L2281.63 1379.86 L2281.63 1120.66 L1991.04 1120.66  Z" fill="#ffffff" fill-rule="evenodd" fill-opacity="1"/>
<polyline clip-path="url(#clip750)" style="stroke:#000000; stroke-linecap:round; stroke-linejoin:round; stroke-width:4; stroke-opacity:1; fill:none" points="1991.04,1379.86 2281.63,1379.86 2281.63,1120.66 1991.04,1120.66 1991.04,1379.86 "/>
<polyline clip-path="url(#clip750)" style="stroke:#009af9; stroke-linecap:round; stroke-linejoin:round; stroke-width:4; stroke-opacity:1; fill:none" points="2014.75,1172.5 2156.99,1172.5 "/>
<path clip-path="url(#clip750)" d="M2180.7 1179.54 L2180.7 1163.85 L2184.96 1163.85 L2184.96 1179.38 Q2184.96 1183.06 2186.4 1184.92 Q2187.83 1186.74 2190.7 1186.74 Q2194.15 1186.74 2196.14 1184.54 Q2198.16 1182.35 2198.16 1178.55 L2198.16 1163.85 L2202.41 1163.85 L2202.41 1189.78 L2198.16 1189.78 L2198.16 1185.79 Q2196.6 1188.16 2194.54 1189.31 Q2192.51 1190.45 2189.8 1190.45 Q2185.33 1190.45 2183.02 1187.67 Q2180.7 1184.89 2180.7 1179.54 M2191.42 1163.23 L2191.42 1163.23 Z" fill="#000000" fill-rule="nonzero" fill-opacity="1" /><path clip-path="url(#clip750)" d="M2230.89 1197.65 L2230.89 1200.96 L2206.26 1200.96 L2206.26 1197.65 L2230.89 1197.65 Z" fill="#000000" fill-rule="nonzero" fill-opacity="1" /><path clip-path="url(#clip750)" d="M2236.3 1185.84 L2243.94 1185.84 L2243.94 1159.48 L2235.63 1161.14 L2235.63 1156.88 L2243.9 1155.22 L2248.57 1155.22 L2248.57 1185.84 L2256.21 1185.84 L2256.21 1189.78 L2236.3 1189.78 L2236.3 1185.84 Z" fill="#000000" fill-rule="nonzero" fill-opacity="1" /><polyline clip-path="url(#clip750)" style="stroke:#e26f46; stroke-linecap:round; stroke-linejoin:round; stroke-width:4; stroke-opacity:1; fill:none" points="2014.75,1224.34 2156.99,1224.34 "/>
<path clip-path="url(#clip750)" d="M2180.7 1231.38 L2180.7 1215.69 L2184.96 1215.69 L2184.96 1231.22 Q2184.96 1234.9 2186.4 1236.76 Q2187.83 1238.58 2190.7 1238.58 Q2194.15 1238.58 2196.14 1236.38 Q2198.16 1234.19 2198.16 1230.39 L2198.16 1215.69 L2202.41 1215.69 L2202.41 1241.62 L2198.16 1241.62 L2198.16 1237.63 Q2196.6 1240 2194.54 1241.15 Q2192.51 1242.29 2189.8 1242.29 Q2185.33 1242.29 2183.02 1239.51 Q2180.7 1236.73 2180.7 1231.38 M2191.42 1215.07 L2191.42 1215.07 Z" fill="#000000" fill-rule="nonzero" fill-opacity="1" /><path clip-path="url(#clip750)" d="M2230.89 1249.49 L2230.89 1252.8 L2206.26 1252.8 L2206.26 1249.49 L2230.89 1249.49 Z" fill="#000000" fill-rule="nonzero" fill-opacity="1" /><path clip-path="url(#clip750)" d="M2239.52 1237.68 L2255.84 1237.68 L2255.84 1241.62 L2233.9 1241.62 L2233.9 1237.68 Q2236.56 1234.93 2241.14 1230.3 Q2245.75 1225.64 2246.93 1224.3 Q2249.17 1221.78 2250.05 1220.04 Q2250.96 1218.28 2250.96 1216.59 Q2250.96 1213.84 2249.01 1212.1 Q2247.09 1210.37 2243.99 1210.37 Q2241.79 1210.37 2239.34 1211.13 Q2236.91 1211.89 2234.13 1213.45 L2234.13 1208.72 Q2236.95 1207.59 2239.41 1207.01 Q2241.86 1206.43 2243.9 1206.43 Q2249.27 1206.43 2252.46 1209.12 Q2255.66 1211.8 2255.66 1216.29 Q2255.66 1218.42 2254.85 1220.34 Q2254.06 1222.24 2251.95 1224.83 Q2251.37 1225.51 2248.27 1228.72 Q2245.17 1231.92 2239.52 1237.68 Z" fill="#000000" fill-rule="nonzero" fill-opacity="1" /><polyline clip-path="url(#clip750)" style="stroke:#3da44d; stroke-linecap:round; stroke-linejoin:round; stroke-width:4; stroke-opacity:1; fill:none" points="2014.75,1276.18 2156.99,1276.18 "/>
<path clip-path="url(#clip750)" d="M2180.7 1283.22 L2180.7 1267.53 L2184.96 1267.53 L2184.96 1283.06 Q2184.96 1286.74 2186.4 1288.6 Q2187.83 1290.42 2190.7 1290.42 Q2194.15 1290.42 2196.14 1288.22 Q2198.16 1286.03 2198.16 1282.23 L2198.16 1267.53 L2202.41 1267.53 L2202.41 1293.46 L2198.16 1293.46 L2198.16 1289.47 Q2196.6 1291.84 2194.54 1292.99 Q2192.51 1294.13 2189.8 1294.13 Q2185.33 1294.13 2183.02 1291.35 Q2180.7 1288.57 2180.7 1283.22 M2191.42 1266.91 L2191.42 1266.91 Z" fill="#000000" fill-rule="nonzero" fill-opacity="1" /><path clip-path="url(#clip750)" d="M2230.89 1301.33 L2230.89 1304.64 L2206.26 1304.64 L2206.26 1301.33 L2230.89 1301.33 Z" fill="#000000" fill-rule="nonzero" fill-opacity="1" /><path clip-path="url(#clip750)" d="M2249.66 1274.82 Q2253.02 1275.54 2254.89 1277.81 Q2256.79 1280.08 2256.79 1283.41 Q2256.79 1288.53 2253.27 1291.33 Q2249.75 1294.13 2243.27 1294.13 Q2241.1 1294.13 2238.78 1293.69 Q2236.49 1293.27 2234.04 1292.41 L2234.04 1287.9 Q2235.98 1289.03 2238.29 1289.61 Q2240.61 1290.19 2243.13 1290.19 Q2247.53 1290.19 2249.82 1288.46 Q2252.14 1286.72 2252.14 1283.41 Q2252.14 1280.35 2249.98 1278.64 Q2247.85 1276.91 2244.03 1276.91 L2240.01 1276.91 L2240.01 1273.06 L2244.22 1273.06 Q2247.67 1273.06 2249.5 1271.7 Q2251.33 1270.31 2251.33 1267.72 Q2251.33 1265.05 2249.43 1263.64 Q2247.55 1262.21 2244.03 1262.21 Q2242.11 1262.21 2239.91 1262.62 Q2237.72 1263.04 2235.08 1263.92 L2235.08 1259.75 Q2237.74 1259.01 2240.05 1258.64 Q2242.39 1258.27 2244.45 1258.27 Q2249.78 1258.27 2252.88 1260.7 Q2255.98 1263.11 2255.98 1267.23 Q2255.98 1270.1 2254.34 1272.09 Q2252.69 1274.06 2249.66 1274.82 Z" fill="#000000" fill-rule="nonzero" fill-opacity="1" /><polyline clip-path="url(#clip750)" style="stroke:#c271d2; stroke-linecap:round; stroke-linejoin:round; stroke-width:4; stroke-opacity:1; fill:none" points="2014.75,1328.02 2156.99,1328.02 "/>
<path clip-path="url(#clip750)" d="M2180.7 1335.06 L2180.7 1319.37 L2184.96 1319.37 L2184.96 1334.9 Q2184.96 1338.58 2186.4 1340.44 Q2187.83 1342.26 2190.7 1342.26 Q2194.15 1342.26 2196.14 1340.06 Q2198.16 1337.87 2198.16 1334.07 L2198.16 1319.37 L2202.41 1319.37 L2202.41 1345.3 L2198.16 1345.3 L2198.16 1341.31 Q2196.6 1343.68 2194.54 1344.83 Q2192.51 1345.97 2189.8 1345.97 Q2185.33 1345.97 2183.02 1343.19 Q2180.7 1340.41 2180.7 1335.06 M2191.42 1318.75 L2191.42 1318.75 Z" fill="#000000" fill-rule="nonzero" fill-opacity="1" /><path clip-path="url(#clip750)" d="M2230.89 1353.17 L2230.89 1356.48 L2206.26 1356.48 L2206.26 1353.17 L2230.89 1353.17 Z" fill="#000000" fill-rule="nonzero" fill-opacity="1" /><path clip-path="url(#clip750)" d="M2248.34 1314.81 L2236.53 1333.26 L2248.34 1333.26 L2248.34 1314.81 M2247.11 1310.74 L2252.99 1310.74 L2252.99 1333.26 L2257.92 1333.26 L2257.92 1337.15 L2252.99 1337.15 L2252.99 1345.3 L2248.34 1345.3 L2248.34 1337.15 L2232.74 1337.15 L2232.74 1332.63 L2247.11 1310.74 Z" fill="#000000" fill-rule="nonzero" fill-opacity="1" /></svg>
