<?xml version="1.0" encoding="utf-8"?>
<svg xmlns="http://www.w3.org/2000/svg" xmlns:xlink="http://www.w3.org/1999/xlink" width="600" height="400" viewBox="0 0 2400 1600">
<defs>
  <clipPath id="clip120">
    <rect x="0" y="0" width="2400" height="1600"/>
  </clipPath>
</defs>
<path clip-path="url(#clip120)" d="M0 1600 L2400 1600 L2400 0 L0 0  Z" fill="#ffffff" fill-rule="evenodd" fill-opacity="1"/>
<defs>
  <clipPath id="clip121">
    <rect x="480" y="0" width="1681" height="1600"/>
  </clipPath>
</defs>
<path clip-path="url(#clip120)" d="M242.135 1423.18 L2352.76 1423.18 L2352.76 123.472 L242.135 123.472  Z" fill="#ffffff" fill-rule="evenodd" fill-opacity="1"/>
<defs>
  <clipPath id="clip122">
    <rect x="242" y="123" width="2112" height="1301"/>
  </clipPath>
</defs>
<polyline clip-path="url(#clip122)" style="stroke:#000000; stroke-linecap:round; stroke-linejoin:round; stroke-width:2; stroke-opacity:0.1; fill:none" points="301.869,1423.18 301.869,123.472 "/>
<polyline clip-path="url(#clip122)" style="stroke:#000000; stroke-linecap:round; stroke-linejoin:round; stroke-width:2; stroke-opacity:0.1; fill:none" points="812.421,1423.18 812.421,123.472 "/>
<polyline clip-path="url(#clip122)" style="stroke:#000000; stroke-linecap:round; stroke-linejoin:round; stroke-width:2; stroke-opacity:0.1; fill:none" points="1322.97,1423.18 1322.97,123.472 "/>
<polyline clip-path="url(#clip122)" style="stroke:#000000; stroke-linecap:round; stroke-linejoin:round; stroke-width:2; stroke-opacity:0.1; fill:none" points="1833.52,1423.18 1833.52,123.472 "/>
<polyline clip-path="url(#clip122)" style="stroke:#000000; stroke-linecap:round; stroke-linejoin:round; stroke-width:2; stroke-opacity:0.1; fill:none" points="2344.08,1423.18 2344.08,123.472 "/>
<polyline clip-path="url(#clip122)" style="stroke:#000000; stroke-linecap:round; stroke-linejoin:round; stroke-width:2; stroke-opacity:0.1; fill:none" points="242.135,1386.4 2352.76,1386.4 "/>
<polyline clip-path="url(#clip122)" style="stroke:#000000; stroke-linecap:round; stroke-linejoin:round; stroke-width:2; stroke-opacity:0.1; fill:none" points="242.135,1079.86 2352.76,1079.86 "/>
<polyline clip-path="url(#clip122)" style="stroke:#000000; stroke-linecap:round; stroke-linejoin:round; stroke-width:2; stroke-opacity:0.1; fill:none" points="242.135,773.326 2352.76,773.326 "/>
<polyline clip-path="url(#clip122)" style="stroke:#000000; stroke-linecap:round; stroke-linejoin:round; stroke-width:2; stroke-opacity:0.1; fill:none" points="242.135,466.791 2352.76,466.791 "/>
<polyline clip-path="url(#clip122)" style="stroke:#000000; stroke-linecap:round; stroke-linejoin:round; stroke-width:2; stroke-opacity:0.1; fill:none" points="242.135,160.256 2352.76,160.256 "/>
<polyline clip-path="url(#clip120)" style="stroke:#000000; stroke-linecap:round; stroke-linejoin:round; stroke-width:4; stroke-opacity:1; fill:none" points="242.135,1423.18 2352.76,1423.18 "/>
<polyline clip-path="url(#clip120)" style="stroke:#000000; stroke-linecap:round; stroke-linejoin:round; stroke-width:4; stroke-opacity:1; fill:none" points="301.869,1423.18 301.869,1404.28 "/>
<polyline clip-path="url(#clip120)" style="stroke:#000000; stroke-linecap:round; stroke-linejoin:round; stroke-width:4; stroke-opacity:1; fill:none" points="812.421,1423.18 812.421,1404.28 "/>
<polyline clip-path="url(#clip120)" style="stroke:#000000; stroke-linecap:round; stroke-linejoin:round; stroke-width:4; stroke-opacity:1; fill:none" points="1322.97,1423.18 1322.97,1404.28 "/>
<polyline clip-path="url(#clip120)" style="stroke:#000000; stroke-linecap:round; stroke-linejoin:round; stroke-width:4; stroke-opacity:1; fill:none" points="1833.52,1423.18 1833.52,1404.28 "/>
<polyline clip-path="url(#clip120)" style="stroke:#000000; stroke-linecap:round; stroke-linejoin:round; stroke-width:4; stroke-opacity:1; fill:none" points="2344.08,1423.18 2344.08,1404.28 "/>
<path clip-path="url(#clip120)" d="M279.254 1454.1 Q275.643 1454.1 273.814 1457.66 Q272.008 1461.2 272.008 1468.33 Q272.008 1475.44 273.814 1479.01 Q275.643 1482.55 279.254 1482.55 Q282.888 1482.55 284.693 1479.01 Q286.522 1475.44 286.522 1468.33 Q286.522 1461.2 284.693 1457.66 Q282.888 1454.1 279.254 1454.1 M279.254 1450.39 Q285.064 1450.39 288.119 1455 Q291.198 1459.58 291.198 1468.33 Q291.198 1477.06 288.119 1481.67 Q285.064 1486.25 279.254 1486.25 Q273.443 1486.25 270.365 1481.67 Q267.309 1477.06 267.309 1468.33 Q267.309 1459.58 270.365 1455 Q273.443 1450.39 279.254 1450.39 Z" fill="#000000" fill-rule="nonzero" fill-opacity="1" /><path clip-path="url(#clip120)" d="M299.416 1479.7 L304.3 1479.7 L304.3 1485.58 L299.416 1485.58 L299.416 1479.7 Z" fill="#000000" fill-rule="nonzero" fill-opacity="1" /><path clip-path="url(#clip120)" d="M324.485 1454.1 Q320.874 1454.1 319.045 1457.66 Q317.24 1461.2 317.24 1468.33 Q317.24 1475.44 319.045 1479.01 Q320.874 1482.55 324.485 1482.55 Q328.119 1482.55 329.925 1479.01 Q331.753 1475.44 331.753 1468.33 Q331.753 1461.2 329.925 1457.66 Q328.119 1454.1 324.485 1454.1 M324.485 1450.39 Q330.295 1450.39 333.351 1455 Q336.429 1459.58 336.429 1468.33 Q336.429 1477.06 333.351 1481.67 Q330.295 1486.25 324.485 1486.25 Q318.675 1486.25 315.596 1481.67 Q312.54 1477.06 312.54 1468.33 Q312.54 1459.58 315.596 1455 Q318.675 1450.39 324.485 1450.39 Z" fill="#000000" fill-rule="nonzero" fill-opacity="1" /><path clip-path="url(#clip120)" d="M790.303 1454.1 Q786.692 1454.1 784.863 1457.66 Q783.058 1461.2 783.058 1468.33 Q783.058 1475.44 784.863 1479.01 Q786.692 1482.55 790.303 1482.55 Q793.937 1482.55 795.743 1479.01 Q797.572 1475.44 797.572 1468.33 Q797.572 1461.2 795.743 1457.66 Q793.937 1454.1 790.303 1454.1 M790.303 1450.39 Q796.113 1450.39 799.169 1455 Q802.247 1459.58 802.247 1468.33 Q802.247 1477.06 799.169 1481.67 Q796.113 1486.25 790.303 1486.25 Q784.493 1486.25 781.414 1481.67 Q778.359 1477.06 778.359 1468.33 Q778.359 1459.58 781.414 1455 Q784.493 1450.39 790.303 1450.39 Z" fill="#000000" fill-rule="nonzero" fill-opacity="1" /><path clip-path="url(#clip120)" d="M810.465 1479.7 L815.349 1479.7 L815.349 1485.58 L810.465 1485.58 L810.465 1479.7 Z" fill="#000000" fill-rule="nonzero" fill-opacity="1" /><path clip-path="url(#clip120)" d="M825.581 1451.02 L843.937 1451.02 L843.937 1454.96 L829.863 1454.96 L829.863 1463.43 Q830.882 1463.08 831.9 1462.92 Q832.919 1462.73 833.937 1462.73 Q839.724 1462.73 843.104 1465.9 Q846.483 1469.08 846.483 1474.49 Q846.483 1480.07 843.011 1483.17 Q839.539 1486.25 833.22 1486.25 Q831.044 1486.25 828.775 1485.88 Q826.53 1485.51 824.122 1484.77 L824.122 1480.07 Q826.206 1481.2 828.428 1481.76 Q830.65 1482.32 833.127 1482.32 Q837.132 1482.32 839.47 1480.21 Q841.807 1478.1 841.807 1474.49 Q841.807 1470.88 839.47 1468.77 Q837.132 1466.67 833.127 1466.67 Q831.252 1466.67 829.377 1467.08 Q827.525 1467.5 825.581 1468.38 L825.581 1451.02 Z" fill="#000000" fill-rule="nonzero" fill-opacity="1" /><path clip-path="url(#clip120)" d="M1290.13 1481.64 L1297.76 1481.64 L1297.76 1455.28 L1289.45 1456.95 L1289.45 1452.69 L1297.72 1451.02 L1302.39 1451.02 L1302.39 1481.64 L1310.03 1481.64 L1310.03 1485.58 L1290.13 1485.58 L1290.13 1481.64 Z" fill="#000000" fill-rule="nonzero" fill-opacity="1" /><path clip-path="url(#clip120)" d="M1319.48 1479.7 L1324.36 1479.7 L1324.36 1485.58 L1319.48 1485.58 L1319.48 1479.7 Z" fill="#000000" fill-rule="nonzero" fill-opacity="1" /><path clip-path="url(#clip120)" d="M1344.55 1454.1 Q1340.94 1454.1 1339.11 1457.66 Q1337.3 1461.2 1337.3 1468.33 Q1337.3 1475.44 1339.11 1479.01 Q1340.94 1482.55 1344.55 1482.55 Q1348.18 1482.55 1349.99 1479.01 Q1351.82 1475.44 1351.82 1468.33 Q1351.82 1461.2 1349.99 1457.66 Q1348.18 1454.1 1344.55 1454.1 M1344.55 1450.39 Q1350.36 1450.39 1353.41 1455 Q1356.49 1459.58 1356.49 1468.33 Q1356.49 1477.06 1353.41 1481.67 Q1350.36 1486.25 1344.55 1486.25 Q1338.74 1486.25 1335.66 1481.67 Q1332.6 1477.06 1332.6 1468.33 Q1332.6 1459.58 1335.66 1455 Q1338.74 1450.39 1344.55 1450.39 Z" fill="#000000" fill-rule="nonzero" fill-opacity="1" /><path clip-path="url(#clip120)" d="M1801.18 1481.64 L1808.81 1481.64 L1808.81 1455.28 L1800.5 1456.95 L1800.5 1452.69 L1808.77 1451.02 L1813.44 1451.02 L1813.44 1481.64 L1821.08 1481.64 L1821.08 1485.58 L1801.18 1485.58 L1801.18 1481.64 Z" fill="#000000" fill-rule="nonzero" fill-opacity="1" /><path clip-path="url(#clip120)" d="M1830.53 1479.7 L1835.41 1479.7 L1835.41 1485.58 L1830.53 1485.58 L1830.53 1479.7 Z" fill="#000000" fill-rule="nonzero" fill-opacity="1" /><path clip-path="url(#clip120)" d="M1845.64 1451.02 L1864 1451.02 L1864 1454.96 L1849.93 1454.96 L1849.93 1463.43 Q1850.94 1463.08 1851.96 1462.92 Q1852.98 1462.73 1854 1462.73 Q1859.79 1462.73 1863.17 1465.9 Q1866.55 1469.08 1866.55 1474.49 Q1866.55 1480.07 1863.07 1483.17 Q1859.6 1486.25 1853.28 1486.25 Q1851.11 1486.25 1848.84 1485.88 Q1846.59 1485.51 1844.18 1484.77 L1844.18 1480.07 Q1846.27 1481.2 1848.49 1481.76 Q1850.71 1482.32 1853.19 1482.32 Q1857.19 1482.32 1859.53 1480.21 Q1861.87 1478.1 1861.87 1474.49 Q1861.87 1470.88 1859.53 1468.77 Q1857.19 1466.67 1853.19 1466.67 Q1851.31 1466.67 1849.44 1467.08 Q1847.59 1467.5 1845.64 1468.38 L1845.64 1451.02 Z" fill="#000000" fill-rule="nonzero" fill-opacity="1" /><path clip-path="url(#clip120)" d="M2315.32 1481.64 L2331.63 1481.64 L2331.63 1485.58 L2309.69 1485.58 L2309.69 1481.64 Q2312.35 1478.89 2316.94 1474.26 Q2321.54 1469.61 2322.72 1468.27 Q2324.97 1465.74 2325.85 1464.01 Q2326.75 1462.25 2326.75 1460.56 Q2326.75 1457.8 2324.81 1456.07 Q2322.88 1454.33 2319.78 1454.33 Q2317.58 1454.33 2315.13 1455.09 Q2312.7 1455.86 2309.92 1457.41 L2309.92 1452.69 Q2312.75 1451.55 2315.2 1450.97 Q2317.65 1450.39 2319.69 1450.39 Q2325.06 1450.39 2328.25 1453.08 Q2331.45 1455.77 2331.45 1460.26 Q2331.45 1462.39 2330.64 1464.31 Q2329.85 1466.2 2327.75 1468.8 Q2327.17 1469.47 2324.07 1472.69 Q2320.96 1475.88 2315.32 1481.64 Z" fill="#000000" fill-rule="nonzero" fill-opacity="1" /><path clip-path="url(#clip120)" d="M2341.45 1479.7 L2346.33 1479.7 L2346.33 1485.58 L2341.45 1485.58 L2341.45 1479.7 Z" fill="#000000" fill-rule="nonzero" fill-opacity="1" /><path clip-path="url(#clip120)" d="M2366.52 1454.1 Q2362.91 1454.1 2361.08 1457.66 Q2359.27 1461.2 2359.27 1468.33 Q2359.27 1475.44 2361.08 1479.01 Q2362.91 1482.55 2366.52 1482.55 Q2370.15 1482.55 2371.96 1479.01 Q2373.79 1475.44 2373.79 1468.33 Q2373.79 1461.2 2371.96 1457.66 Q2370.15 1454.1 2366.52 1454.1 M2366.52 1450.39 Q2372.33 1450.39 2375.38 1455 Q2378.46 1459.58 2378.46 1468.33 Q2378.46 1477.06 2375.38 1481.67 Q2372.33 1486.25 2366.52 1486.25 Q2360.71 1486.25 2357.63 1481.67 Q2354.57 1477.06 2354.57 1468.33 Q2354.57 1459.58 2357.63 1455 Q2360.71 1450.39 2366.52 1450.39 Z" fill="#000000" fill-rule="nonzero" fill-opacity="1" /><path clip-path="url(#clip120)" d="M1184.9 1522.27 L1184.9 1532.4 L1196.96 1532.4 L1196.96 1536.95 L1184.9 1536.95 L1184.9 1556.3 Q1184.9 1560.66 1186.08 1561.9 Q1187.29 1563.14 1190.95 1563.14 L1196.96 1563.14 L1196.96 1568.04 L1190.95 1568.04 Q1184.17 1568.04 1181.59 1565.53 Q1179.01 1562.98 1179.01 1556.3 L1179.01 1536.95 L1174.71 1536.95 L1174.71 1532.4 L1179.01 1532.4 L1179.01 1522.27 L1184.9 1522.27 Z" fill="#000000" fill-rule="nonzero" fill-opacity="1" /><path clip-path="url(#clip120)" d="M1204.67 1532.4 L1210.52 1532.4 L1210.52 1568.04 L1204.67 1568.04 L1204.67 1532.4 M1204.67 1518.52 L1210.52 1518.52 L1210.52 1525.93 L1204.67 1525.93 L1204.67 1518.52 Z" fill="#000000" fill-rule="nonzero" fill-opacity="1" /><path clip-path="url(#clip120)" d="M1250.53 1539.24 Q1252.73 1535.29 1255.78 1533.41 Q1258.84 1531.54 1262.97 1531.54 Q1268.54 1531.54 1271.57 1535.45 Q1274.59 1539.33 1274.59 1546.53 L1274.59 1568.04 L1268.7 1568.04 L1268.7 1546.72 Q1268.7 1541.59 1266.89 1539.11 Q1265.08 1536.63 1261.35 1536.63 Q1256.8 1536.63 1254.16 1539.65 Q1251.52 1542.68 1251.52 1547.9 L1251.52 1568.04 L1245.63 1568.04 L1245.63 1546.72 Q1245.63 1541.56 1243.81 1539.11 Q1242 1536.63 1238.21 1536.63 Q1233.72 1536.63 1231.08 1539.68 Q1228.44 1542.71 1228.44 1547.9 L1228.44 1568.04 L1222.55 1568.04 L1222.55 1532.4 L1228.44 1532.4 L1228.44 1537.93 Q1230.45 1534.66 1233.25 1533.1 Q1236.05 1531.54 1239.9 1531.54 Q1243.78 1531.54 1246.49 1533.51 Q1249.23 1535.48 1250.53 1539.24 Z" fill="#000000" fill-rule="nonzero" fill-opacity="1" /><path clip-path="url(#clip120)" d="M1316.77 1548.76 L1316.77 1551.62 L1289.84 1551.62 Q1290.22 1557.67 1293.47 1560.85 Q1296.75 1564 1302.57 1564 Q1305.94 1564 1309.09 1563.17 Q1312.28 1562.35 1315.4 1560.69 L1315.4 1566.23 Q1312.25 1567.57 1308.94 1568.27 Q1305.63 1568.97 1302.22 1568.97 Q1293.69 1568.97 1288.69 1564 Q1283.73 1559.04 1283.73 1550.57 Q1283.73 1541.82 1288.44 1536.69 Q1293.18 1531.54 1301.2 1531.54 Q1308.39 1531.54 1312.56 1536.18 Q1316.77 1540.8 1316.77 1548.76 M1310.91 1547.04 Q1310.85 1542.23 1308.2 1539.37 Q1305.59 1536.5 1301.26 1536.5 Q1296.36 1536.5 1293.4 1539.27 Q1290.47 1542.04 1290.03 1547.07 L1310.91 1547.04 Z" fill="#000000" fill-rule="nonzero" fill-opacity="1" /><path clip-path="url(#clip120)" d="M1361.17 1518.58 Q1356.9 1525.9 1354.83 1533.06 Q1352.76 1540.23 1352.76 1547.58 Q1352.76 1554.93 1354.83 1562.16 Q1356.93 1569.35 1361.17 1576.64 L1356.07 1576.64 Q1351.3 1569.16 1348.91 1561.93 Q1346.56 1554.71 1346.56 1547.58 Q1346.56 1540.48 1348.91 1533.29 Q1351.27 1526.09 1356.07 1518.58 L1361.17 1518.58 Z" fill="#000000" fill-rule="nonzero" fill-opacity="1" /><path clip-path="url(#clip120)" d="M1395.25 1533.45 L1395.25 1538.98 Q1392.77 1537.71 1390.1 1537.07 Q1387.42 1536.44 1384.56 1536.44 Q1380.2 1536.44 1378 1537.77 Q1375.84 1539.11 1375.84 1541.79 Q1375.84 1543.82 1377.4 1545 Q1378.96 1546.15 1383.67 1547.2 L1385.67 1547.64 Q1391.91 1548.98 1394.52 1551.43 Q1397.16 1553.85 1397.16 1558.21 Q1397.16 1563.17 1393.22 1566.07 Q1389.3 1568.97 1382.43 1568.97 Q1379.56 1568.97 1376.44 1568.39 Q1373.36 1567.85 1369.92 1566.74 L1369.92 1560.69 Q1373.17 1562.38 1376.32 1563.24 Q1379.47 1564.07 1382.55 1564.07 Q1386.69 1564.07 1388.92 1562.66 Q1391.15 1561.23 1391.15 1558.65 Q1391.15 1556.27 1389.53 1554.99 Q1387.93 1553.72 1382.49 1552.54 L1380.45 1552.07 Q1375.01 1550.92 1372.59 1548.56 Q1370.17 1546.18 1370.17 1542.04 Q1370.17 1537.01 1373.74 1534.27 Q1377.3 1531.54 1383.86 1531.54 Q1387.11 1531.54 1389.97 1532.01 Q1392.84 1532.49 1395.25 1533.45 Z" fill="#000000" fill-rule="nonzero" fill-opacity="1" /><path clip-path="url(#clip120)" d="M1405.57 1518.58 L1410.66 1518.58 Q1415.43 1526.09 1417.79 1533.29 Q1420.18 1540.48 1420.18 1547.58 Q1420.18 1554.71 1417.79 1561.93 Q1415.43 1569.16 1410.66 1576.64 L1405.57 1576.64 Q1409.8 1569.35 1411.87 1562.16 Q1413.97 1554.93 1413.97 1547.58 Q1413.97 1540.23 1411.87 1533.06 Q1409.8 1525.9 1405.57 1518.58 Z" fill="#000000" fill-rule="nonzero" fill-opacity="1" /><polyline clip-path="url(#clip120)" style="stroke:#000000; stroke-linecap:round; stroke-linejoin:round; stroke-width:4; stroke-opacity:1; fill:none" points="242.135,1423.18 242.135,123.472 "/>
<polyline clip-path="url(#clip120)" style="stroke:#000000; stroke-linecap:round; stroke-linejoin:round; stroke-width:4; stroke-opacity:1; fill:none" points="242.135,1386.4 261.032,1386.4 "/>
<polyline clip-path="url(#clip120)" style="stroke:#000000; stroke-linecap:round; stroke-linejoin:round; stroke-width:4; stroke-opacity:1; fill:none" points="242.135,1079.86 261.032,1079.86 "/>
<polyline clip-path="url(#clip120)" style="stroke:#000000; stroke-linecap:round; stroke-linejoin:round; stroke-width:4; stroke-opacity:1; fill:none" points="242.135,773.326 261.032,773.326 "/>
<polyline clip-path="url(#clip120)" style="stroke:#000000; stroke-linecap:round; stroke-linejoin:round; stroke-width:4; stroke-opacity:1; fill:none" points="242.135,466.791 261.032,466.791 "/>
<polyline clip-path="url(#clip120)" style="stroke:#000000; stroke-linecap:round; stroke-linejoin:round; stroke-width:4; stroke-opacity:1; fill:none" points="242.135,160.256 261.032,160.256 "/>
<path clip-path="url(#clip120)" d="M114.26 1386.85 L143.936 1386.85 L143.936 1390.78 L114.26 1390.78 L114.26 1386.85 Z" fill="#000000" fill-rule="nonzero" fill-opacity="1" /><path clip-path="url(#clip120)" d="M154.839 1399.74 L162.477 1399.74 L162.477 1373.37 L154.167 1375.04 L154.167 1370.78 L162.431 1369.12 L167.107 1369.12 L167.107 1399.74 L174.746 1399.74 L174.746 1403.68 L154.839 1403.68 L154.839 1399.74 Z" fill="#000000" fill-rule="nonzero" fill-opacity="1" /><path clip-path="url(#clip120)" d="M194.19 1372.19 Q190.579 1372.19 188.75 1375.76 Q186.945 1379.3 186.945 1386.43 Q186.945 1393.54 188.75 1397.1 Q190.579 1400.64 194.19 1400.64 Q197.825 1400.64 199.63 1397.1 Q201.459 1393.54 201.459 1386.43 Q201.459 1379.3 199.63 1375.76 Q197.825 1372.19 194.19 1372.19 M194.19 1368.49 Q200 1368.49 203.056 1373.1 Q206.135 1377.68 206.135 1386.43 Q206.135 1395.16 203.056 1399.76 Q200 1404.35 194.19 1404.35 Q188.38 1404.35 185.301 1399.76 Q182.246 1395.16 182.246 1386.43 Q182.246 1377.68 185.301 1373.1 Q188.38 1368.49 194.19 1368.49 Z" fill="#000000" fill-rule="nonzero" fill-opacity="1" /><path clip-path="url(#clip120)" d="M145.417 1080.31 L175.093 1080.31 L175.093 1084.25 L145.417 1084.25 L145.417 1080.31 Z" fill="#000000" fill-rule="nonzero" fill-opacity="1" /><path clip-path="url(#clip120)" d="M185.232 1062.58 L203.588 1062.58 L203.588 1066.52 L189.514 1066.52 L189.514 1074.99 Q190.533 1074.64 191.551 1074.48 Q192.57 1074.29 193.588 1074.29 Q199.375 1074.29 202.755 1077.46 Q206.135 1080.64 206.135 1086.05 Q206.135 1091.63 202.662 1094.73 Q199.19 1097.81 192.871 1097.81 Q190.695 1097.81 188.426 1097.44 Q186.181 1097.07 183.774 1096.33 L183.774 1091.63 Q185.857 1092.77 188.079 1093.32 Q190.301 1093.88 192.778 1093.88 Q196.783 1093.88 199.121 1091.77 Q201.459 1089.66 201.459 1086.05 Q201.459 1082.44 199.121 1080.34 Q196.783 1078.23 192.778 1078.23 Q190.903 1078.23 189.028 1078.65 Q187.176 1079.06 185.232 1079.94 L185.232 1062.58 Z" fill="#000000" fill-rule="nonzero" fill-opacity="1" /><path clip-path="url(#clip120)" d="M194.19 759.125 Q190.579 759.125 188.75 762.689 Q186.945 766.231 186.945 773.361 Q186.945 780.467 188.75 784.032 Q190.579 787.574 194.19 787.574 Q197.825 787.574 199.63 784.032 Q201.459 780.467 201.459 773.361 Q201.459 766.231 199.63 762.689 Q197.825 759.125 194.19 759.125 M194.19 755.421 Q200 755.421 203.056 760.027 Q206.135 764.611 206.135 773.361 Q206.135 782.088 203.056 786.694 Q200 791.277 194.19 791.277 Q188.38 791.277 185.301 786.694 Q182.246 782.088 182.246 773.361 Q182.246 764.611 185.301 760.027 Q188.38 755.421 194.19 755.421 Z" fill="#000000" fill-rule="nonzero" fill-opacity="1" /><path clip-path="url(#clip120)" d="M185.232 449.511 L203.588 449.511 L203.588 453.446 L189.514 453.446 L189.514 461.918 Q190.533 461.571 191.551 461.409 Q192.57 461.224 193.588 461.224 Q199.375 461.224 202.755 464.395 Q206.135 467.567 206.135 472.983 Q206.135 478.562 202.662 481.664 Q199.19 484.742 192.871 484.742 Q190.695 484.742 188.426 484.372 Q186.181 484.002 183.774 483.261 L183.774 478.562 Q185.857 479.696 188.079 480.252 Q190.301 480.807 192.778 480.807 Q196.783 480.807 199.121 478.701 Q201.459 476.594 201.459 472.983 Q201.459 469.372 199.121 467.266 Q196.783 465.159 192.778 465.159 Q190.903 465.159 189.028 465.576 Q187.176 465.993 185.232 466.872 L185.232 449.511 Z" fill="#000000" fill-rule="nonzero" fill-opacity="1" /><path clip-path="url(#clip120)" d="M154.839 173.601 L162.477 173.601 L162.477 147.236 L154.167 148.902 L154.167 144.643 L162.431 142.976 L167.107 142.976 L167.107 173.601 L174.746 173.601 L174.746 177.536 L154.839 177.536 L154.839 173.601 Z" fill="#000000" fill-rule="nonzero" fill-opacity="1" /><path clip-path="url(#clip120)" d="M194.19 146.055 Q190.579 146.055 188.75 149.62 Q186.945 153.161 186.945 160.291 Q186.945 167.397 188.75 170.962 Q190.579 174.504 194.19 174.504 Q197.825 174.504 199.63 170.962 Q201.459 167.397 201.459 160.291 Q201.459 153.161 199.63 149.62 Q197.825 146.055 194.19 146.055 M194.19 142.351 Q200 142.351 203.056 146.958 Q206.135 151.541 206.135 160.291 Q206.135 169.018 203.056 173.624 Q200 178.208 194.19 178.208 Q188.38 178.208 185.301 173.624 Q182.246 169.018 182.246 160.291 Q182.246 151.541 185.301 146.958 Q188.38 142.351 194.19 142.351 Z" fill="#000000" fill-rule="nonzero" fill-opacity="1" /><path clip-path="url(#clip120)" d="M49.9359 788.254 L28.3562 788.254 L28.3562 782.397 L49.7131 782.397 Q54.7739 782.397 57.3202 780.424 Q59.8346 778.45 59.8346 774.504 Q59.8346 769.761 56.8109 767.024 Q53.7872 764.255 48.5673 764.255 L28.3562 764.255 L28.3562 758.398 L64.0042 758.398 L64.0042 764.255 L58.5296 764.255 Q61.7762 766.387 63.3676 769.22 Q64.9272 772.021 64.9272 775.745 Q64.9272 781.888 61.1078 785.071 Q57.2883 788.254 49.9359 788.254 M27.4968 773.517 L27.4968 773.517 Z" fill="#000000" fill-rule="nonzero" fill-opacity="1" /><path clip-path="url(#clip120)" d="M691.106 16.7545 L691.106 25.383 Q686.974 21.5346 682.275 19.6307 Q677.616 17.7268 672.35 17.7268 Q661.98 17.7268 656.471 24.0867 Q650.961 30.4061 650.961 42.3968 Q650.961 54.3469 656.471 60.7069 Q661.98 67.0263 672.35 67.0263 Q677.616 67.0263 682.275 65.1223 Q686.974 63.2184 691.106 59.3701 L691.106 67.9175 Q686.812 70.8341 681.991 72.2924 Q677.211 73.7508 671.864 73.7508 Q658.132 73.7508 650.232 65.3654 Q642.333 56.9395 642.333 42.3968 Q642.333 27.8135 650.232 19.4281 Q658.132 11.0023 671.864 11.0023 Q677.292 11.0023 682.072 12.4606 Q686.893 13.8784 691.106 16.7545 Z" fill="#000000" fill-rule="nonzero" fill-opacity="1" /><path clip-path="url(#clip120)" d="M724.04 49.7694 Q715.006 49.7694 711.522 51.8354 Q708.039 53.9013 708.039 58.8839 Q708.039 62.8538 710.631 65.2034 Q713.264 67.5124 717.761 67.5124 Q723.959 67.5124 727.686 63.1374 Q731.453 58.7219 731.453 51.4303 L731.453 49.7694 L724.04 49.7694 M738.907 46.6907 L738.907 72.576 L731.453 72.576 L731.453 65.6895 Q728.901 69.8214 725.093 71.8063 Q721.285 73.7508 715.776 73.7508 Q708.808 73.7508 704.676 69.8619 Q700.585 65.9325 700.585 59.3701 Q700.585 51.7138 705.689 47.825 Q710.834 43.9361 721.002 43.9361 L731.453 43.9361 L731.453 43.2069 Q731.453 38.0623 728.05 35.2672 Q724.688 32.4315 718.571 32.4315 Q714.682 32.4315 710.996 33.3632 Q707.31 34.295 703.907 36.1584 L703.907 29.2718 Q707.998 27.692 711.847 26.9223 Q715.695 26.1121 719.341 26.1121 Q729.184 26.1121 734.046 31.2163 Q738.907 36.3204 738.907 46.6907 Z" fill="#000000" fill-rule="nonzero" fill-opacity="1" /><path clip-path="url(#clip120)" d="M780.55 34.1734 Q779.294 33.4443 777.795 33.1202 Q776.337 32.7556 774.555 32.7556 Q768.235 32.7556 764.832 36.8875 Q761.47 40.9789 761.47 48.6757 L761.47 72.576 L753.976 72.576 L753.976 27.2059 L761.47 27.2059 L761.47 34.2544 Q763.82 30.1225 767.587 28.1376 Q771.354 26.1121 776.742 26.1121 Q777.512 26.1121 778.443 26.2337 Q779.375 26.3147 780.509 26.5172 L780.55 34.1734 Z" fill="#000000" fill-rule="nonzero" fill-opacity="1" /><path clip-path="url(#clip120)" d="M795.741 14.324 L795.741 27.2059 L811.094 27.2059 L811.094 32.9987 L795.741 32.9987 L795.741 57.6282 Q795.741 63.1779 797.24 64.7578 Q798.779 66.3376 803.438 66.3376 L811.094 66.3376 L811.094 72.576 L803.438 72.576 Q794.809 72.576 791.528 69.3758 Q788.247 66.1351 788.247 57.6282 L788.247 32.9987 L782.778 32.9987 L782.778 27.2059 L788.247 27.2059 L788.247 14.324 L795.741 14.324 Z" fill="#000000" fill-rule="nonzero" fill-opacity="1" /><path clip-path="url(#clip120)" d="M828.108 65.7705 L828.108 89.8329 L820.613 89.8329 L820.613 27.2059 L828.108 27.2059 L828.108 34.0924 Q830.457 30.0415 834.022 28.0971 Q837.627 26.1121 842.61 26.1121 Q850.874 26.1121 856.018 32.6746 Q861.203 39.2371 861.203 49.9314 Q861.203 60.6258 856.018 67.1883 Q850.874 73.7508 842.61 73.7508 Q837.627 73.7508 834.022 71.8063 Q830.457 69.8214 828.108 65.7705 M853.466 49.9314 Q853.466 41.7081 850.063 37.0496 Q846.701 32.3505 840.787 32.3505 Q834.873 32.3505 831.47 37.0496 Q828.108 41.7081 828.108 49.9314 Q828.108 58.1548 831.47 62.8538 Q834.873 67.5124 840.787 67.5124 Q846.701 67.5124 850.063 62.8538 Q853.466 58.1548 853.466 49.9314 Z" fill="#000000" fill-rule="nonzero" fill-opacity="1" /><path clip-path="url(#clip120)" d="M891.14 32.4315 Q885.144 32.4315 881.66 37.1306 Q878.177 41.7891 878.177 49.9314 Q878.177 58.0738 881.62 62.7728 Q885.104 67.4314 891.14 67.4314 Q897.094 67.4314 900.578 62.7323 Q904.062 58.0333 904.062 49.9314 Q904.062 41.8701 900.578 37.1711 Q897.094 32.4315 891.14 32.4315 M891.14 26.1121 Q900.862 26.1121 906.412 32.4315 Q911.961 38.7509 911.961 49.9314 Q911.961 61.0714 906.412 67.4314 Q900.862 73.7508 891.14 73.7508 Q881.377 73.7508 875.827 67.4314 Q870.318 61.0714 870.318 49.9314 Q870.318 38.7509 875.827 32.4315 Q881.377 26.1121 891.14 26.1121 Z" fill="#000000" fill-rule="nonzero" fill-opacity="1" /><path clip-path="url(#clip120)" d="M924.316 9.54393 L931.77 9.54393 L931.77 72.576 L924.316 72.576 L924.316 9.54393 Z" fill="#000000" fill-rule="nonzero" fill-opacity="1" /><path clip-path="url(#clip120)" d="M986.174 48.0275 L986.174 51.6733 L951.903 51.6733 Q952.389 59.3701 956.521 63.421 Q960.694 67.4314 968.107 67.4314 Q972.401 67.4314 976.411 66.3781 Q980.462 65.3249 984.432 63.2184 L984.432 70.267 Q980.422 71.9684 976.209 72.8596 Q971.996 73.7508 967.661 73.7508 Q956.805 73.7508 950.445 67.4314 Q944.125 61.1119 944.125 50.3365 Q944.125 39.1965 950.121 32.6746 Q956.157 26.1121 966.365 26.1121 Q975.52 26.1121 980.827 32.0264 Q986.174 37.9003 986.174 48.0275 M978.72 45.84 Q978.639 39.7232 975.277 36.0774 Q971.955 32.4315 966.446 32.4315 Q960.208 32.4315 956.44 35.9558 Q952.713 39.4801 952.146 45.8805 L978.72 45.84 Z" fill="#000000" fill-rule="nonzero" fill-opacity="1" /><path clip-path="url(#clip120)" d="M1016.72 12.096 L1067.88 12.096 L1067.88 18.9825 L1046.41 18.9825 L1046.41 72.576 L1038.19 72.576 L1038.19 18.9825 L1016.72 18.9825 L1016.72 12.096 Z" fill="#000000" fill-rule="nonzero" fill-opacity="1" /><path clip-path="url(#clip120)" d="M1091.38 72.576 L1068.29 12.096 L1076.83 12.096 L1095.99 63.0159 L1115.2 12.096 L1123.7 12.096 L1100.65 72.576 L1091.38 72.576 Z" fill="#000000" fill-rule="nonzero" fill-opacity="1" /><path clip-path="url(#clip120)" d="M1132.53 12.096 L1140.72 12.096 L1140.72 65.6895 L1170.17 65.6895 L1170.17 72.576 L1132.53 72.576 L1132.53 12.096 Z" fill="#000000" fill-rule="nonzero" fill-opacity="1" /><path clip-path="url(#clip120)" d="M1203.3 17.6457 Q1194.39 17.6457 1189.12 24.2892 Q1183.9 30.9327 1183.9 42.3968 Q1183.9 53.8203 1189.12 60.4638 Q1194.39 67.1073 1203.3 67.1073 Q1212.21 67.1073 1217.4 60.4638 Q1222.63 53.8203 1222.63 42.3968 Q1222.63 30.9327 1217.4 24.2892 Q1212.21 17.6457 1203.3 17.6457 M1214.77 71.4823 L1225.54 83.2704 L1215.66 83.2704 L1206.71 73.5887 Q1205.37 73.6697 1204.64 73.7103 Q1203.95 73.7508 1203.3 73.7508 Q1190.54 73.7508 1182.89 65.2439 Q1175.27 56.6965 1175.27 42.3968 Q1175.27 28.0566 1182.89 19.5497 Q1190.54 11.0023 1203.3 11.0023 Q1216.02 11.0023 1223.64 19.5497 Q1231.25 28.0566 1231.25 42.3968 Q1231.25 52.9291 1227 60.4233 Q1222.79 67.9175 1214.77 71.4823 Z" fill="#000000" fill-rule="nonzero" fill-opacity="1" /><path clip-path="url(#clip120)" d="M1272.73 44.2197 Q1275.37 45.1109 1277.84 48.0275 Q1280.35 50.9442 1282.86 56.0483 L1291.17 72.576 L1282.38 72.576 L1274.64 57.061 Q1271.64 50.9847 1268.81 48.9997 Q1266.01 47.0148 1261.15 47.0148 L1252.24 47.0148 L1252.24 72.576 L1244.05 72.576 L1244.05 12.096 L1262.53 12.096 Q1272.9 12.096 1278 16.4305 Q1283.11 20.7649 1283.11 29.5149 Q1283.11 35.2267 1280.43 38.994 Q1277.8 42.7613 1272.73 44.2197 M1252.24 18.8205 L1252.24 40.2903 L1262.53 40.2903 Q1268.44 40.2903 1271.44 37.5762 Q1274.48 34.8216 1274.48 29.5149 Q1274.48 24.2082 1271.44 21.5346 Q1268.44 18.8205 1262.53 18.8205 L1252.24 18.8205 Z" fill="#000000" fill-rule="nonzero" fill-opacity="1" /><path clip-path="url(#clip120)" d="M1345.65 9.62495 Q1340.22 18.942 1337.59 28.0566 Q1334.96 37.1711 1334.96 46.5287 Q1334.96 55.8863 1337.59 65.0818 Q1340.26 74.2369 1345.65 83.5134 L1339.17 83.5134 Q1333.09 73.9938 1330.06 64.7983 Q1327.06 55.6027 1327.06 46.5287 Q1327.06 37.4952 1330.06 28.3401 Q1333.05 19.1851 1339.17 9.62495 L1345.65 9.62495 Z" fill="#000000" fill-rule="nonzero" fill-opacity="1" /><path clip-path="url(#clip120)" d="M1356.35 46.5287 L1378.18 46.5287 L1378.18 53.1722 L1356.35 53.1722 L1356.35 46.5287 Z" fill="#000000" fill-rule="nonzero" fill-opacity="1" /><path clip-path="url(#clip120)" d="M1386.28 46.5287 L1408.12 46.5287 L1408.12 53.1722 L1386.28 53.1722 L1386.28 46.5287 Z" fill="#000000" fill-rule="nonzero" fill-opacity="1" /><path clip-path="url(#clip120)" d="M1446.36 27.2059 L1453.81 27.2059 L1453.81 72.576 L1446.36 72.576 L1446.36 27.2059 M1446.36 9.54393 L1453.81 9.54393 L1453.81 18.9825 L1446.36 18.9825 L1446.36 9.54393 Z" fill="#000000" fill-rule="nonzero" fill-opacity="1" /><path clip-path="url(#clip120)" d="M1498.33 28.5427 L1498.33 35.5912 Q1495.17 33.9709 1491.77 33.1607 Q1488.36 32.3505 1484.72 32.3505 Q1479.17 32.3505 1476.37 34.0519 Q1473.62 35.7533 1473.62 39.156 Q1473.62 41.7486 1475.6 43.2475 Q1477.59 44.7058 1483.58 46.0426 L1486.14 46.6097 Q1494.08 48.3111 1497.4 51.4303 Q1500.76 54.509 1500.76 60.0587 Q1500.76 66.3781 1495.74 70.0644 Q1490.75 73.7508 1482 73.7508 Q1478.36 73.7508 1474.39 73.0216 Q1470.46 72.3329 1466.08 70.9151 L1466.08 63.2184 Q1470.22 65.3654 1474.23 66.4591 Q1478.24 67.5124 1482.17 67.5124 Q1487.43 67.5124 1490.27 65.73 Q1493.1 63.9071 1493.1 60.6258 Q1493.1 57.5877 1491.04 55.9673 Q1489.01 54.3469 1482.09 52.8481 L1479.49 52.2405 Q1472.57 50.7821 1469.49 47.7845 Q1466.41 44.7463 1466.41 39.4801 Q1466.41 33.0797 1470.95 29.5959 Q1475.48 26.1121 1483.83 26.1121 Q1487.96 26.1121 1491.61 26.7198 Q1495.25 27.3274 1498.33 28.5427 Z" fill="#000000" fill-rule="nonzero" fill-opacity="1" /><path clip-path="url(#clip120)" d="M1565.29 34.1734 Q1564.04 33.4443 1562.54 33.1202 Q1561.08 32.7556 1559.3 32.7556 Q1552.98 32.7556 1549.57 36.8875 Q1546.21 40.9789 1546.21 48.6757 L1546.21 72.576 L1538.72 72.576 L1538.72 27.2059 L1546.21 27.2059 L1546.21 34.2544 Q1548.56 30.1225 1552.33 28.1376 Q1556.1 26.1121 1561.48 26.1121 Q1562.25 26.1121 1563.18 26.2337 Q1564.12 26.3147 1565.25 26.5172 L1565.29 34.1734 Z" fill="#000000" fill-rule="nonzero" fill-opacity="1" /><path clip-path="url(#clip120)" d="M1610.09 48.0275 L1610.09 51.6733 L1575.82 51.6733 Q1576.31 59.3701 1580.44 63.421 Q1584.61 67.4314 1592.03 67.4314 Q1596.32 67.4314 1600.33 66.3781 Q1604.38 65.3249 1608.35 63.2184 L1608.35 70.267 Q1604.34 71.9684 1600.13 72.8596 Q1595.92 73.7508 1591.58 73.7508 Q1580.73 73.7508 1574.37 67.4314 Q1568.05 61.1119 1568.05 50.3365 Q1568.05 39.1965 1574.04 32.6746 Q1580.08 26.1121 1590.29 26.1121 Q1599.44 26.1121 1604.75 32.0264 Q1610.09 37.9003 1610.09 48.0275 M1602.64 45.84 Q1602.56 39.7232 1599.2 36.0774 Q1595.88 32.4315 1590.37 32.4315 Q1584.13 32.4315 1580.36 35.9558 Q1576.63 39.4801 1576.07 45.8805 L1602.64 45.84 Z" fill="#000000" fill-rule="nonzero" fill-opacity="1" /><path clip-path="url(#clip120)" d="M1645.3 9.54393 L1645.3 15.7418 L1638.17 15.7418 Q1634.16 15.7418 1632.58 17.3622 Q1631.04 18.9825 1631.04 23.1955 L1631.04 27.2059 L1643.31 27.2059 L1643.31 32.9987 L1631.04 32.9987 L1631.04 72.576 L1623.54 72.576 L1623.54 32.9987 L1616.41 32.9987 L1616.41 27.2059 L1623.54 27.2059 L1623.54 24.0462 Q1623.54 16.471 1627.07 13.0277 Q1630.59 9.54393 1638.25 9.54393 L1645.3 9.54393 Z" fill="#000000" fill-rule="nonzero" fill-opacity="1" /><path clip-path="url(#clip120)" d="M1690.34 48.0275 L1690.34 51.6733 L1656.07 51.6733 Q1656.56 59.3701 1660.69 63.421 Q1664.86 67.4314 1672.28 67.4314 Q1676.57 67.4314 1680.58 66.3781 Q1684.63 65.3249 1688.6 63.2184 L1688.6 70.267 Q1684.59 71.9684 1680.38 72.8596 Q1676.16 73.7508 1671.83 73.7508 Q1660.97 73.7508 1654.61 67.4314 Q1648.29 61.1119 1648.29 50.3365 Q1648.29 39.1965 1654.29 32.6746 Q1660.33 26.1121 1670.53 26.1121 Q1679.69 26.1121 1685 32.0264 Q1690.34 37.9003 1690.34 48.0275 M1682.89 45.84 Q1682.81 39.7232 1679.45 36.0774 Q1676.12 32.4315 1670.61 32.4315 Q1664.38 32.4315 1660.61 35.9558 Q1656.88 39.4801 1656.31 45.8805 L1682.89 45.84 Z" fill="#000000" fill-rule="nonzero" fill-opacity="1" /><path clip-path="url(#clip120)" d="M1728.87 34.1734 Q1727.61 33.4443 1726.11 33.1202 Q1724.65 32.7556 1722.87 32.7556 Q1716.55 32.7556 1713.15 36.8875 Q1709.79 40.9789 1709.79 48.6757 L1709.79 72.576 L1702.29 72.576 L1702.29 27.2059 L1709.79 27.2059 L1709.79 34.2544 Q1712.14 30.1225 1715.9 28.1376 Q1719.67 26.1121 1725.06 26.1121 Q1725.83 26.1121 1726.76 26.2337 Q1727.69 26.3147 1728.83 26.5172 L1728.87 34.1734 Z" fill="#000000" fill-rule="nonzero" fill-opacity="1" /><path clip-path="url(#clip120)" d="M1773.67 48.0275 L1773.67 51.6733 L1739.4 51.6733 Q1739.89 59.3701 1744.02 63.421 Q1748.19 67.4314 1755.6 67.4314 Q1759.9 67.4314 1763.91 66.3781 Q1767.96 65.3249 1771.93 63.2184 L1771.93 70.267 Q1767.92 71.9684 1763.7 72.8596 Q1759.49 73.7508 1755.16 73.7508 Q1744.3 73.7508 1737.94 67.4314 Q1731.62 61.1119 1731.62 50.3365 Q1731.62 39.1965 1737.62 32.6746 Q1743.65 26.1121 1753.86 26.1121 Q1763.02 26.1121 1768.32 32.0264 Q1773.67 37.9003 1773.67 48.0275 M1766.22 45.84 Q1766.13 39.7232 1762.77 36.0774 Q1759.45 32.4315 1753.94 32.4315 Q1747.7 32.4315 1743.94 35.9558 Q1740.21 39.4801 1739.64 45.8805 L1766.22 45.84 Z" fill="#000000" fill-rule="nonzero" fill-opacity="1" /><path clip-path="url(#clip120)" d="M1823.62 45.1919 L1823.62 72.576 L1816.16 72.576 L1816.16 45.4349 Q1816.16 38.994 1813.65 35.7938 Q1811.14 32.5936 1806.12 32.5936 Q1800.08 32.5936 1796.6 36.4419 Q1793.11 40.2903 1793.11 46.9338 L1793.11 72.576 L1785.62 72.576 L1785.62 27.2059 L1793.11 27.2059 L1793.11 34.2544 Q1795.79 30.163 1799.39 28.1376 Q1803.04 26.1121 1807.78 26.1121 Q1815.6 26.1121 1819.61 30.9732 Q1823.62 35.7938 1823.62 45.1919 Z" fill="#000000" fill-rule="nonzero" fill-opacity="1" /><path clip-path="url(#clip120)" d="M1871.13 28.9478 L1871.13 35.9153 Q1867.97 34.1734 1864.77 33.3227 Q1861.61 32.4315 1858.37 32.4315 Q1851.12 32.4315 1847.11 37.0496 Q1843.1 41.6271 1843.1 49.9314 Q1843.1 58.2358 1847.11 62.8538 Q1851.12 67.4314 1858.37 67.4314 Q1861.61 67.4314 1864.77 66.5807 Q1867.97 65.6895 1871.13 63.9476 L1871.13 70.8341 Q1868.02 72.2924 1864.65 73.0216 Q1861.33 73.7508 1857.56 73.7508 Q1847.32 73.7508 1841.28 67.3098 Q1835.24 60.8689 1835.24 49.9314 Q1835.24 38.832 1841.32 32.472 Q1847.44 26.1121 1858.05 26.1121 Q1861.49 26.1121 1864.77 26.8413 Q1868.06 27.5299 1871.13 28.9478 Z" fill="#000000" fill-rule="nonzero" fill-opacity="1" /><path clip-path="url(#clip120)" d="M1922.9 48.0275 L1922.9 51.6733 L1888.63 51.6733 Q1889.12 59.3701 1893.25 63.421 Q1897.42 67.4314 1904.84 67.4314 Q1909.13 67.4314 1913.14 66.3781 Q1917.19 65.3249 1921.16 63.2184 L1921.16 70.267 Q1917.15 71.9684 1912.94 72.8596 Q1908.73 73.7508 1904.39 73.7508 Q1893.54 73.7508 1887.18 67.4314 Q1880.86 61.1119 1880.86 50.3365 Q1880.86 39.1965 1886.85 32.6746 Q1892.89 26.1121 1903.1 26.1121 Q1912.25 26.1121 1917.56 32.0264 Q1922.9 37.9003 1922.9 48.0275 M1915.45 45.84 Q1915.37 39.7232 1912.01 36.0774 Q1908.69 32.4315 1903.18 32.4315 Q1896.94 32.4315 1893.17 35.9558 Q1889.44 39.4801 1888.88 45.8805 L1915.45 45.84 Z" fill="#000000" fill-rule="nonzero" fill-opacity="1" /><path clip-path="url(#clip120)" d="M1933.96 9.62495 L1940.45 9.62495 Q1946.52 19.1851 1949.52 28.3401 Q1952.56 37.4952 1952.56 46.5287 Q1952.56 55.6027 1949.52 64.7983 Q1946.52 73.9938 1940.45 83.5134 L1933.96 83.5134 Q1939.35 74.2369 1941.98 65.0818 Q1944.66 55.8863 1944.66 46.5287 Q1944.66 37.1711 1941.98 28.0566 Q1939.35 18.942 1933.96 9.62495 Z" fill="#000000" fill-rule="nonzero" fill-opacity="1" /><polyline clip-path="url(#clip122)" style="stroke:#0000ff; stroke-linecap:round; stroke-linejoin:round; stroke-width:4; stroke-opacity:1; fill:none" stroke-dasharray="16, 10" points="301.869,200.193 352.924,279.251 403.98,347.906 455.035,418.165 506.09,498.525 557.145,591.734 608.2,696.796 659.256,815.266 710.311,958.742 761.366,1155.66 812.421,1386.4 863.476,1386.4 914.531,1386.4 965.587,1386.4 1016.64,1386.4 1067.7,1386.4 1118.75,1386.4 1169.81,1386.4 1220.86,863.93 1271.92,415.656 1322.97,229.227 1374.03,199.373 1425.08,246.749 1476.14,325.36 1527.19,411.437 1578.25,493.634 1629.3,567.117 1680.36,630.374 1731.41,683.513 1782.47,727.351 1833.52,762.915 1884.58,791.176 1935.64,812.903 1986.69,828.564 2037.75,838.247 2088.8,841.545 2139.86,837.384 2190.91,823.747 2241.97,797.216 2293.02,752.23 "/>
<polyline clip-path="url(#clip122)" style="stroke:#0000ff; stroke-linecap:round; stroke-linejoin:round; stroke-width:4; stroke-opacity:1; fill:none" points="301.869,200.193 352.924,268.939 403.98,334.284 455.035,405.003 506.09,486.262 557.145,578.823 608.2,681.985 659.256,799.085 710.311,943.469 761.366,1144.49 812.421,1382.47 863.476,1386.4 914.531,1386.4 965.587,1386.13 1016.64,1383.93 1067.7,1386.4 1118.75,1386.4 1169.81,1386.4 1220.86,1386.4 1271.92,682.467 1322.97,160.256 1374.03,160.256 1425.08,160.256 1476.14,160.256 1527.19,160.256 1578.25,160.256 1629.3,160.256 1680.36,160.256 1731.41,326.288 1782.47,679.24 1833.52,923.244 1884.58,1069.12 1935.64,1145.9 1986.69,1173.72 2037.75,1160.48 2088.8,1107.84 2139.86,1014.45 2190.91,876.199 2241.97,685.179 2293.02,426.518 "/>
</svg>
