<?xml version="1.0" encoding="utf-8"?>
<svg xmlns="http://www.w3.org/2000/svg" xmlns:xlink="http://www.w3.org/1999/xlink" width="600" height="400" viewBox="0 0 2400 1600">
<defs>
  <clipPath id="clip900">
    <rect x="0" y="0" width="2400" height="1600"/>
  </clipPath>
</defs>
<path clip-path="url(#clip900)" d="M0 1600 L2400 1600 L2400 0 L0 0  Z" fill="#ffffff" fill-rule="evenodd" fill-opacity="1"/>
<defs>
  <clipPath id="clip901">
    <rect x="480" y="0" width="1681" height="1600"/>
  </clipPath>
</defs>
<path clip-path="url(#clip900)" d="M257.204 1423.18 L2352.76 1423.18 L2352.76 123.472 L257.204 123.472  Z" fill="#ffffff" fill-rule="evenodd" fill-opacity="1"/>
<defs>
  <clipPath id="clip902">
    <rect x="257" y="123" width="2097" height="1301"/>
  </clipPath>
</defs>
<polyline clip-path="url(#clip902)" style="stroke:#000000; stroke-linecap:round; stroke-linejoin:round; stroke-width:2; stroke-opacity:0.1; fill:none" points="316.512,1423.18 316.512,123.472 "/>
<polyline clip-path="url(#clip902)" style="stroke:#000000; stroke-linecap:round; stroke-linejoin:round; stroke-width:2; stroke-opacity:0.1; fill:none" points="711.899,1423.18 711.899,123.472 "/>
<polyline clip-path="url(#clip902)" style="stroke:#000000; stroke-linecap:round; stroke-linejoin:round; stroke-width:2; stroke-opacity:0.1; fill:none" points="1107.29,1423.18 1107.29,123.472 "/>
<polyline clip-path="url(#clip902)" style="stroke:#000000; stroke-linecap:round; stroke-linejoin:round; stroke-width:2; stroke-opacity:0.1; fill:none" points="1502.67,1423.18 1502.67,123.472 "/>
<polyline clip-path="url(#clip902)" style="stroke:#000000; stroke-linecap:round; stroke-linejoin:round; stroke-width:2; stroke-opacity:0.1; fill:none" points="1898.06,1423.18 1898.06,123.472 "/>
<polyline clip-path="url(#clip902)" style="stroke:#000000; stroke-linecap:round; stroke-linejoin:round; stroke-width:2; stroke-opacity:0.1; fill:none" points="2293.45,1423.18 2293.45,123.472 "/>
<polyline clip-path="url(#clip902)" style="stroke:#000000; stroke-linecap:round; stroke-linejoin:round; stroke-width:2; stroke-opacity:0.1; fill:none" points="257.204,1280.2 2352.76,1280.2 "/>
<polyline clip-path="url(#clip902)" style="stroke:#000000; stroke-linecap:round; stroke-linejoin:round; stroke-width:2; stroke-opacity:0.1; fill:none" points="257.204,1026.72 2352.76,1026.72 "/>
<polyline clip-path="url(#clip902)" style="stroke:#000000; stroke-linecap:round; stroke-linejoin:round; stroke-width:2; stroke-opacity:0.1; fill:none" points="257.204,773.232 2352.76,773.232 "/>
<polyline clip-path="url(#clip902)" style="stroke:#000000; stroke-linecap:round; stroke-linejoin:round; stroke-width:2; stroke-opacity:0.1; fill:none" points="257.204,519.748 2352.76,519.748 "/>
<polyline clip-path="url(#clip902)" style="stroke:#000000; stroke-linecap:round; stroke-linejoin:round; stroke-width:2; stroke-opacity:0.1; fill:none" points="257.204,266.264 2352.76,266.264 "/>
<polyline clip-path="url(#clip900)" style="stroke:#000000; stroke-linecap:round; stroke-linejoin:round; stroke-width:4; stroke-opacity:1; fill:none" points="257.204,1423.18 2352.76,1423.18 "/>
<polyline clip-path="url(#clip900)" style="stroke:#000000; stroke-linecap:round; stroke-linejoin:round; stroke-width:4; stroke-opacity:1; fill:none" points="316.512,1423.18 316.512,1404.28 "/>
<polyline clip-path="url(#clip900)" style="stroke:#000000; stroke-linecap:round; stroke-linejoin:round; stroke-width:4; stroke-opacity:1; fill:none" points="711.899,1423.18 711.899,1404.28 "/>
<polyline clip-path="url(#clip900)" style="stroke:#000000; stroke-linecap:round; stroke-linejoin:round; stroke-width:4; stroke-opacity:1; fill:none" points="1107.29,1423.18 1107.29,1404.28 "/>
<polyline clip-path="url(#clip900)" style="stroke:#000000; stroke-linecap:round; stroke-linejoin:round; stroke-width:4; stroke-opacity:1; fill:none" points="1502.67,1423.18 1502.67,1404.28 "/>
<polyline clip-path="url(#clip900)" style="stroke:#000000; stroke-linecap:round; stroke-linejoin:round; stroke-width:4; stroke-opacity:1; fill:none" points="1898.06,1423.18 1898.06,1404.28 "/>
<polyline clip-path="url(#clip900)" style="stroke:#000000; stroke-linecap:round; stroke-linejoin:round; stroke-width:4; stroke-opacity:1; fill:none" points="2293.45,1423.18 2293.45,1404.28 "/>
<path clip-path="url(#clip900)" d="M316.512 1454.1 Q312.901 1454.1 311.072 1457.66 Q309.267 1461.2 309.267 1468.33 Q309.267 1475.44 311.072 1479.01 Q312.901 1482.55 316.512 1482.55 Q320.146 1482.55 321.952 1479.01 Q323.781 1475.44 323.781 1468.33 Q323.781 1461.2 321.952 1457.66 Q320.146 1454.1 316.512 1454.1 M316.512 1450.39 Q322.322 1450.39 325.378 1455 Q328.456 1459.58 328.456 1468.33 Q328.456 1477.06 325.378 1481.67 Q322.322 1486.25 316.512 1486.25 Q310.702 1486.25 307.623 1481.67 Q304.568 1477.06 304.568 1468.33 Q304.568 1459.58 307.623 1455 Q310.702 1450.39 316.512 1450.39 Z" fill="#000000" fill-rule="nonzero" fill-opacity="1" /><path clip-path="url(#clip900)" d="M702.281 1481.64 L709.92 1481.64 L709.92 1455.28 L701.61 1456.95 L701.61 1452.69 L709.874 1451.02 L714.55 1451.02 L714.55 1481.64 L722.189 1481.64 L722.189 1485.58 L702.281 1485.58 L702.281 1481.64 Z" fill="#000000" fill-rule="nonzero" fill-opacity="1" /><path clip-path="url(#clip900)" d="M1101.94 1481.64 L1118.26 1481.64 L1118.26 1485.58 L1096.31 1485.58 L1096.31 1481.64 Q1098.98 1478.89 1103.56 1474.26 Q1108.17 1469.61 1109.35 1468.27 Q1111.59 1465.74 1112.47 1464.01 Q1113.37 1462.25 1113.37 1460.56 Q1113.37 1457.8 1111.43 1456.07 Q1109.51 1454.33 1106.41 1454.33 Q1104.21 1454.33 1101.75 1455.09 Q1099.32 1455.86 1096.55 1457.41 L1096.55 1452.69 Q1099.37 1451.55 1101.82 1450.97 Q1104.28 1450.39 1106.31 1450.39 Q1111.68 1450.39 1114.88 1453.08 Q1118.07 1455.77 1118.07 1460.26 Q1118.07 1462.39 1117.26 1464.31 Q1116.48 1466.2 1114.37 1468.8 Q1113.79 1469.47 1110.69 1472.69 Q1107.59 1475.88 1101.94 1481.64 Z" fill="#000000" fill-rule="nonzero" fill-opacity="1" /><path clip-path="url(#clip900)" d="M1506.92 1466.95 Q1510.28 1467.66 1512.15 1469.93 Q1514.05 1472.2 1514.05 1475.53 Q1514.05 1480.65 1510.53 1483.45 Q1507.01 1486.25 1500.53 1486.25 Q1498.36 1486.25 1496.04 1485.81 Q1493.75 1485.39 1491.3 1484.54 L1491.3 1480.02 Q1493.24 1481.16 1495.56 1481.74 Q1497.87 1482.32 1500.39 1482.32 Q1504.79 1482.32 1507.08 1480.58 Q1509.4 1478.84 1509.4 1475.53 Q1509.4 1472.48 1507.25 1470.77 Q1505.12 1469.03 1501.3 1469.03 L1497.27 1469.03 L1497.27 1465.19 L1501.48 1465.19 Q1504.93 1465.19 1506.76 1463.82 Q1508.59 1462.43 1508.59 1459.84 Q1508.59 1457.18 1506.69 1455.77 Q1504.81 1454.33 1501.3 1454.33 Q1499.37 1454.33 1497.18 1454.75 Q1494.98 1455.16 1492.34 1456.04 L1492.34 1451.88 Q1495 1451.14 1497.31 1450.77 Q1499.65 1450.39 1501.71 1450.39 Q1507.04 1450.39 1510.14 1452.83 Q1513.24 1455.23 1513.24 1459.35 Q1513.24 1462.22 1511.6 1464.21 Q1509.95 1466.18 1506.92 1466.95 Z" fill="#000000" fill-rule="nonzero" fill-opacity="1" /><path clip-path="url(#clip900)" d="M1901.07 1455.09 L1889.26 1473.54 L1901.07 1473.54 L1901.07 1455.09 M1899.84 1451.02 L1905.72 1451.02 L1905.72 1473.54 L1910.65 1473.54 L1910.65 1477.43 L1905.72 1477.43 L1905.72 1485.58 L1901.07 1485.58 L1901.07 1477.43 L1885.47 1477.43 L1885.47 1472.92 L1899.84 1451.02 Z" fill="#000000" fill-rule="nonzero" fill-opacity="1" /><path clip-path="url(#clip900)" d="M2283.73 1451.02 L2302.08 1451.02 L2302.08 1454.96 L2288.01 1454.96 L2288.01 1463.43 Q2289.03 1463.08 2290.05 1462.92 Q2291.06 1462.73 2292.08 1462.73 Q2297.87 1462.73 2301.25 1465.9 Q2304.63 1469.08 2304.63 1474.49 Q2304.63 1480.07 2301.16 1483.17 Q2297.68 1486.25 2291.36 1486.25 Q2289.19 1486.25 2286.92 1485.88 Q2284.67 1485.51 2282.27 1484.77 L2282.27 1480.07 Q2284.35 1481.2 2286.57 1481.76 Q2288.8 1482.32 2291.27 1482.32 Q2295.28 1482.32 2297.61 1480.21 Q2299.95 1478.1 2299.95 1474.49 Q2299.95 1470.88 2297.61 1468.77 Q2295.28 1466.67 2291.27 1466.67 Q2289.4 1466.67 2287.52 1467.08 Q2285.67 1467.5 2283.73 1468.38 L2283.73 1451.02 Z" fill="#000000" fill-rule="nonzero" fill-opacity="1" /><path clip-path="url(#clip900)" d="M1202.79 1522.27 L1202.79 1532.4 L1214.86 1532.4 L1214.86 1536.95 L1202.79 1536.95 L1202.79 1556.3 Q1202.79 1560.66 1203.97 1561.9 Q1205.18 1563.14 1208.84 1563.14 L1214.86 1563.14 L1214.86 1568.04 L1208.84 1568.04 Q1202.06 1568.04 1199.48 1565.53 Q1196.91 1562.98 1196.91 1556.3 L1196.91 1536.95 L1192.61 1536.95 L1192.61 1532.4 L1196.91 1532.4 L1196.91 1522.27 L1202.79 1522.27 Z" fill="#000000" fill-rule="nonzero" fill-opacity="1" /><path clip-path="url(#clip900)" d="M1222.56 1532.4 L1228.42 1532.4 L1228.42 1568.04 L1222.56 1568.04 L1222.56 1532.4 M1222.56 1518.52 L1228.42 1518.52 L1228.42 1525.93 L1222.56 1525.93 L1222.56 1518.52 Z" fill="#000000" fill-rule="nonzero" fill-opacity="1" /><path clip-path="url(#clip900)" d="M1268.42 1539.24 Q1270.62 1535.29 1273.68 1533.41 Q1276.73 1531.54 1280.87 1531.54 Q1286.44 1531.54 1289.46 1535.45 Q1292.49 1539.33 1292.49 1546.53 L1292.49 1568.04 L1286.6 1568.04 L1286.6 1546.72 Q1286.6 1541.59 1284.78 1539.11 Q1282.97 1536.63 1279.25 1536.63 Q1274.7 1536.63 1272.05 1539.65 Q1269.41 1542.68 1269.41 1547.9 L1269.41 1568.04 L1263.52 1568.04 L1263.52 1546.72 Q1263.52 1541.56 1261.71 1539.11 Q1259.89 1536.63 1256.11 1536.63 Q1251.62 1536.63 1248.98 1539.68 Q1246.34 1542.71 1246.34 1547.9 L1246.34 1568.04 L1240.45 1568.04 L1240.45 1532.4 L1246.34 1532.4 L1246.34 1537.93 Q1248.34 1534.66 1251.14 1533.1 Q1253.94 1531.54 1257.79 1531.54 Q1261.68 1531.54 1264.38 1533.51 Q1267.12 1535.48 1268.42 1539.24 Z" fill="#000000" fill-rule="nonzero" fill-opacity="1" /><path clip-path="url(#clip900)" d="M1334.66 1548.76 L1334.66 1551.62 L1307.73 1551.62 Q1308.12 1557.67 1311.36 1560.85 Q1314.64 1564 1320.46 1564 Q1323.84 1564 1326.99 1563.17 Q1330.17 1562.35 1333.29 1560.69 L1333.29 1566.23 Q1330.14 1567.57 1326.83 1568.27 Q1323.52 1568.97 1320.11 1568.97 Q1311.58 1568.97 1306.59 1564 Q1301.62 1559.04 1301.62 1550.57 Q1301.62 1541.82 1306.33 1536.69 Q1311.08 1531.54 1319.1 1531.54 Q1326.29 1531.54 1330.46 1536.18 Q1334.66 1540.8 1334.66 1548.76 M1328.8 1547.04 Q1328.74 1542.23 1326.1 1539.37 Q1323.49 1536.5 1319.16 1536.5 Q1314.26 1536.5 1311.3 1539.27 Q1308.37 1542.04 1307.92 1547.07 L1328.8 1547.04 Z" fill="#000000" fill-rule="nonzero" fill-opacity="1" /><path clip-path="url(#clip900)" d="M1358.34 1518.58 Q1354.08 1525.9 1352.01 1533.06 Q1349.94 1540.23 1349.94 1547.58 Q1349.94 1554.93 1352.01 1562.16 Q1354.11 1569.35 1358.34 1576.64 L1353.25 1576.64 Q1348.47 1569.16 1346.09 1561.93 Q1343.73 1554.71 1343.73 1547.58 Q1343.73 1540.48 1346.09 1533.29 Q1348.44 1526.09 1353.25 1518.58 L1358.34 1518.58 Z" fill="#000000" fill-rule="nonzero" fill-opacity="1" /><path clip-path="url(#clip900)" d="M1392.43 1533.45 L1392.43 1538.98 Q1389.95 1537.71 1387.27 1537.07 Q1384.6 1536.44 1381.73 1536.44 Q1377.37 1536.44 1375.18 1537.77 Q1373.01 1539.11 1373.01 1541.79 Q1373.01 1543.82 1374.57 1545 Q1376.13 1546.15 1380.84 1547.2 L1382.85 1547.64 Q1389.09 1548.98 1391.7 1551.43 Q1394.34 1553.85 1394.34 1558.21 Q1394.34 1563.17 1390.39 1566.07 Q1386.48 1568.97 1379.6 1568.97 Q1376.74 1568.97 1373.62 1568.39 Q1370.53 1567.85 1367.09 1566.74 L1367.09 1560.69 Q1370.34 1562.38 1373.49 1563.24 Q1376.64 1564.07 1379.73 1564.07 Q1383.87 1564.07 1386.09 1562.66 Q1388.32 1561.23 1388.32 1558.65 Q1388.32 1556.27 1386.7 1554.99 Q1385.11 1553.72 1379.67 1552.54 L1377.63 1552.07 Q1372.19 1550.92 1369.77 1548.56 Q1367.35 1546.18 1367.35 1542.04 Q1367.35 1537.01 1370.91 1534.27 Q1374.48 1531.54 1381.03 1531.54 Q1384.28 1531.54 1387.15 1532.01 Q1390.01 1532.49 1392.43 1533.45 Z" fill="#000000" fill-rule="nonzero" fill-opacity="1" /><path clip-path="url(#clip900)" d="M1402.74 1518.58 L1407.83 1518.58 Q1412.61 1526.09 1414.96 1533.29 Q1417.35 1540.48 1417.35 1547.58 Q1417.35 1554.71 1414.96 1561.93 Q1412.61 1569.16 1407.83 1576.64 L1402.74 1576.64 Q1406.97 1569.35 1409.04 1562.16 Q1411.14 1554.93 1411.14 1547.58 Q1411.14 1540.23 1409.04 1533.06 Q1406.97 1525.9 1402.74 1518.58 Z" fill="#000000" fill-rule="nonzero" fill-opacity="1" /><polyline clip-path="url(#clip900)" style="stroke:#000000; stroke-linecap:round; stroke-linejoin:round; stroke-width:4; stroke-opacity:1; fill:none" points="257.204,1423.18 257.204,123.472 "/>
<polyline clip-path="url(#clip900)" style="stroke:#000000; stroke-linecap:round; stroke-linejoin:round; stroke-width:4; stroke-opacity:1; fill:none" points="257.204,1280.2 276.102,1280.2 "/>
<polyline clip-path="url(#clip900)" style="stroke:#000000; stroke-linecap:round; stroke-linejoin:round; stroke-width:4; stroke-opacity:1; fill:none" points="257.204,1026.72 276.102,1026.72 "/>
<polyline clip-path="url(#clip900)" style="stroke:#000000; stroke-linecap:round; stroke-linejoin:round; stroke-width:4; stroke-opacity:1; fill:none" points="257.204,773.232 276.102,773.232 "/>
<polyline clip-path="url(#clip900)" style="stroke:#000000; stroke-linecap:round; stroke-linejoin:round; stroke-width:4; stroke-opacity:1; fill:none" points="257.204,519.748 276.102,519.748 "/>
<polyline clip-path="url(#clip900)" style="stroke:#000000; stroke-linecap:round; stroke-linejoin:round; stroke-width:4; stroke-opacity:1; fill:none" points="257.204,266.264 276.102,266.264 "/>
<path clip-path="url(#clip900)" d="M114.26 1280.65 L143.936 1280.65 L143.936 1284.59 L114.26 1284.59 L114.26 1280.65 Z" fill="#000000" fill-rule="nonzero" fill-opacity="1" /><path clip-path="url(#clip900)" d="M154.075 1262.92 L172.431 1262.92 L172.431 1266.86 L158.357 1266.86 L158.357 1275.33 Q159.376 1274.98 160.394 1274.82 Q161.413 1274.63 162.431 1274.63 Q168.218 1274.63 171.598 1277.8 Q174.977 1280.98 174.977 1286.39 Q174.977 1291.97 171.505 1295.07 Q168.033 1298.15 161.714 1298.15 Q159.538 1298.15 157.269 1297.78 Q155.024 1297.41 152.616 1296.67 L152.616 1291.97 Q154.7 1293.11 156.922 1293.66 Q159.144 1294.22 161.621 1294.22 Q165.626 1294.22 167.964 1292.11 Q170.302 1290 170.302 1286.39 Q170.302 1282.78 167.964 1280.67 Q165.626 1278.57 161.621 1278.57 Q159.746 1278.57 157.871 1278.98 Q156.019 1279.4 154.075 1280.28 L154.075 1262.92 Z" fill="#000000" fill-rule="nonzero" fill-opacity="1" /><path clip-path="url(#clip900)" d="M184.19 1291.6 L189.075 1291.6 L189.075 1297.48 L184.19 1297.48 L184.19 1291.6 Z" fill="#000000" fill-rule="nonzero" fill-opacity="1" /><path clip-path="url(#clip900)" d="M209.26 1266 Q205.649 1266 203.82 1269.56 Q202.014 1273.11 202.014 1280.23 Q202.014 1287.34 203.82 1290.91 Q205.649 1294.45 209.26 1294.45 Q212.894 1294.45 214.699 1290.91 Q216.528 1287.34 216.528 1280.23 Q216.528 1273.11 214.699 1269.56 Q212.894 1266 209.26 1266 M209.26 1262.3 Q215.07 1262.3 218.125 1266.9 Q221.204 1271.48 221.204 1280.23 Q221.204 1288.96 218.125 1293.57 Q215.07 1298.15 209.26 1298.15 Q203.449 1298.15 200.371 1293.57 Q197.315 1288.96 197.315 1280.23 Q197.315 1271.48 200.371 1266.9 Q203.449 1262.3 209.26 1262.3 Z" fill="#000000" fill-rule="nonzero" fill-opacity="1" /><path clip-path="url(#clip900)" d="M115.256 1027.17 L144.931 1027.17 L144.931 1031.1 L115.256 1031.1 L115.256 1027.17 Z" fill="#000000" fill-rule="nonzero" fill-opacity="1" /><path clip-path="url(#clip900)" d="M159.052 1040.06 L175.371 1040.06 L175.371 1044 L153.427 1044 L153.427 1040.06 Q156.089 1037.31 160.672 1032.68 Q165.278 1028.02 166.459 1026.68 Q168.704 1024.16 169.584 1022.42 Q170.487 1020.66 170.487 1018.97 Q170.487 1016.22 168.542 1014.48 Q166.621 1012.75 163.519 1012.75 Q161.32 1012.75 158.866 1013.51 Q156.436 1014.27 153.658 1015.82 L153.658 1011.1 Q156.482 1009.97 158.936 1009.39 Q161.39 1008.81 163.427 1008.81 Q168.797 1008.81 171.991 1011.5 Q175.186 1014.18 175.186 1018.67 Q175.186 1020.8 174.376 1022.72 Q173.589 1024.62 171.482 1027.21 Q170.903 1027.89 167.802 1031.1 Q164.7 1034.3 159.052 1040.06 Z" fill="#000000" fill-rule="nonzero" fill-opacity="1" /><path clip-path="url(#clip900)" d="M185.186 1038.12 L190.07 1038.12 L190.07 1044 L185.186 1044 L185.186 1038.12 Z" fill="#000000" fill-rule="nonzero" fill-opacity="1" /><path clip-path="url(#clip900)" d="M200.301 1009.44 L218.658 1009.44 L218.658 1013.37 L204.584 1013.37 L204.584 1021.84 Q205.602 1021.5 206.621 1021.33 Q207.639 1021.15 208.658 1021.15 Q214.445 1021.15 217.824 1024.32 Q221.204 1027.49 221.204 1032.91 Q221.204 1038.49 217.732 1041.59 Q214.26 1044.67 207.94 1044.67 Q205.764 1044.67 203.496 1044.3 Q201.25 1043.93 198.843 1043.19 L198.843 1038.49 Q200.926 1039.62 203.149 1040.18 Q205.371 1040.73 207.848 1040.73 Q211.852 1040.73 214.19 1038.63 Q216.528 1036.52 216.528 1032.91 Q216.528 1029.3 214.19 1027.19 Q211.852 1025.08 207.848 1025.08 Q205.973 1025.08 204.098 1025.5 Q202.246 1025.92 200.301 1026.8 L200.301 1009.44 Z" fill="#000000" fill-rule="nonzero" fill-opacity="1" /><path clip-path="url(#clip900)" d="M164.028 759.031 Q160.417 759.031 158.589 762.596 Q156.783 766.137 156.783 773.267 Q156.783 780.373 158.589 783.938 Q160.417 787.48 164.028 787.48 Q167.663 787.48 169.468 783.938 Q171.297 780.373 171.297 773.267 Q171.297 766.137 169.468 762.596 Q167.663 759.031 164.028 759.031 M164.028 755.327 Q169.839 755.327 172.894 759.934 Q175.973 764.517 175.973 773.267 Q175.973 781.994 172.894 786.6 Q169.839 791.183 164.028 791.183 Q158.218 791.183 155.14 786.6 Q152.084 781.994 152.084 773.267 Q152.084 764.517 155.14 759.934 Q158.218 755.327 164.028 755.327 Z" fill="#000000" fill-rule="nonzero" fill-opacity="1" /><path clip-path="url(#clip900)" d="M184.19 784.633 L189.075 784.633 L189.075 790.512 L184.19 790.512 L184.19 784.633 Z" fill="#000000" fill-rule="nonzero" fill-opacity="1" /><path clip-path="url(#clip900)" d="M209.26 759.031 Q205.649 759.031 203.82 762.596 Q202.014 766.137 202.014 773.267 Q202.014 780.373 203.82 783.938 Q205.649 787.48 209.26 787.48 Q212.894 787.48 214.699 783.938 Q216.528 780.373 216.528 773.267 Q216.528 766.137 214.699 762.596 Q212.894 759.031 209.26 759.031 M209.26 755.327 Q215.07 755.327 218.125 759.934 Q221.204 764.517 221.204 773.267 Q221.204 781.994 218.125 786.6 Q215.07 791.183 209.26 791.183 Q203.449 791.183 200.371 786.6 Q197.315 781.994 197.315 773.267 Q197.315 764.517 200.371 759.934 Q203.449 755.327 209.26 755.327 Z" fill="#000000" fill-rule="nonzero" fill-opacity="1" /><path clip-path="url(#clip900)" d="M159.052 533.093 L175.371 533.093 L175.371 537.028 L153.427 537.028 L153.427 533.093 Q156.089 530.338 160.672 525.709 Q165.278 521.056 166.459 519.713 Q168.704 517.19 169.584 515.454 Q170.487 513.695 170.487 512.005 Q170.487 509.251 168.542 507.514 Q166.621 505.778 163.519 505.778 Q161.32 505.778 158.866 506.542 Q156.436 507.306 153.658 508.857 L153.658 504.135 Q156.482 503.001 158.936 502.422 Q161.39 501.843 163.427 501.843 Q168.797 501.843 171.991 504.528 Q175.186 507.214 175.186 511.704 Q175.186 513.834 174.376 515.755 Q173.589 517.653 171.482 520.246 Q170.903 520.917 167.802 524.135 Q164.7 527.329 159.052 533.093 Z" fill="#000000" fill-rule="nonzero" fill-opacity="1" /><path clip-path="url(#clip900)" d="M185.186 531.149 L190.07 531.149 L190.07 537.028 L185.186 537.028 L185.186 531.149 Z" fill="#000000" fill-rule="nonzero" fill-opacity="1" /><path clip-path="url(#clip900)" d="M200.301 502.468 L218.658 502.468 L218.658 506.403 L204.584 506.403 L204.584 514.876 Q205.602 514.528 206.621 514.366 Q207.639 514.181 208.658 514.181 Q214.445 514.181 217.824 517.352 Q221.204 520.524 221.204 525.94 Q221.204 531.519 217.732 534.621 Q214.26 537.699 207.94 537.699 Q205.764 537.699 203.496 537.329 Q201.25 536.959 198.843 536.218 L198.843 531.519 Q200.926 532.653 203.149 533.209 Q205.371 533.764 207.848 533.764 Q211.852 533.764 214.19 531.658 Q216.528 529.551 216.528 525.94 Q216.528 522.329 214.19 520.223 Q211.852 518.116 207.848 518.116 Q205.973 518.116 204.098 518.533 Q202.246 518.95 200.301 519.829 L200.301 502.468 Z" fill="#000000" fill-rule="nonzero" fill-opacity="1" /><path clip-path="url(#clip900)" d="M154.075 248.984 L172.431 248.984 L172.431 252.919 L158.357 252.919 L158.357 261.392 Q159.376 261.044 160.394 260.882 Q161.413 260.697 162.431 260.697 Q168.218 260.697 171.598 263.868 Q174.977 267.04 174.977 272.456 Q174.977 278.035 171.505 281.137 Q168.033 284.216 161.714 284.216 Q159.538 284.216 157.269 283.845 Q155.024 283.475 152.616 282.734 L152.616 278.035 Q154.7 279.169 156.922 279.725 Q159.144 280.28 161.621 280.28 Q165.626 280.28 167.964 278.174 Q170.302 276.067 170.302 272.456 Q170.302 268.845 167.964 266.739 Q165.626 264.632 161.621 264.632 Q159.746 264.632 157.871 265.049 Q156.019 265.466 154.075 266.345 L154.075 248.984 Z" fill="#000000" fill-rule="nonzero" fill-opacity="1" /><path clip-path="url(#clip900)" d="M184.19 277.665 L189.075 277.665 L189.075 283.544 L184.19 283.544 L184.19 277.665 Z" fill="#000000" fill-rule="nonzero" fill-opacity="1" /><path clip-path="url(#clip900)" d="M209.26 252.063 Q205.649 252.063 203.82 255.628 Q202.014 259.169 202.014 266.299 Q202.014 273.405 203.82 276.97 Q205.649 280.512 209.26 280.512 Q212.894 280.512 214.699 276.97 Q216.528 273.405 216.528 266.299 Q216.528 259.169 214.699 255.628 Q212.894 252.063 209.26 252.063 M209.26 248.359 Q215.07 248.359 218.125 252.966 Q221.204 257.549 221.204 266.299 Q221.204 275.026 218.125 279.632 Q215.07 284.216 209.26 284.216 Q203.449 284.216 200.371 279.632 Q197.315 275.026 197.315 266.299 Q197.315 257.549 200.371 252.966 Q203.449 248.359 209.26 248.359 Z" fill="#000000" fill-rule="nonzero" fill-opacity="1" /><path clip-path="url(#clip900)" d="M58.657 958.313 L77.5631 958.313 L77.5631 964.202 L28.3562 964.202 L28.3562 958.313 L33.7671 958.313 Q30.5842 956.467 29.0564 953.666 Q27.4968 950.834 27.4968 946.919 Q27.4968 940.426 32.6531 936.384 Q37.8093 932.31 46.212 932.31 Q54.6147 932.31 59.771 936.384 Q64.9272 940.426 64.9272 946.919 Q64.9272 950.834 63.3994 953.666 Q61.8398 956.467 58.657 958.313 M46.212 938.389 Q39.7508 938.389 36.0905 941.062 Q32.3984 943.704 32.3984 948.351 Q32.3984 952.998 36.0905 955.672 Q39.7508 958.313 46.212 958.313 Q52.6732 958.313 56.3653 955.672 Q60.0256 952.998 60.0256 948.351 Q60.0256 943.704 56.3653 941.062 Q52.6732 938.389 46.212 938.389 Z" fill="#000000" fill-rule="nonzero" fill-opacity="1" /><path clip-path="url(#clip900)" d="M32.4621 908.788 Q32.4621 913.499 36.1542 916.236 Q39.8145 918.973 46.212 918.973 Q52.6095 918.973 56.3017 916.268 Q59.9619 913.531 59.9619 908.788 Q59.9619 904.109 56.2698 901.372 Q52.5777 898.635 46.212 898.635 Q39.8781 898.635 36.186 901.372 Q32.4621 904.109 32.4621 908.788 M27.4968 908.788 Q27.4968 901.149 32.4621 896.789 Q37.4273 892.428 46.212 892.428 Q54.9649 892.428 59.9619 896.789 Q64.9272 901.149 64.9272 908.788 Q64.9272 916.459 59.9619 920.819 Q54.9649 925.148 46.212 925.148 Q37.4273 925.148 32.4621 920.819 Q27.4968 916.459 27.4968 908.788 Z" fill="#000000" fill-rule="nonzero" fill-opacity="1" /><path clip-path="url(#clip900)" d="M29.4065 859.995 L34.9447 859.995 Q33.6716 862.478 33.035 865.151 Q32.3984 867.825 32.3984 870.689 Q32.3984 875.05 33.7352 877.246 Q35.072 879.41 37.7456 879.41 Q39.7826 879.41 40.9603 877.851 Q42.1061 876.291 43.1565 871.581 L43.6021 869.575 Q44.9389 863.337 47.3897 860.727 Q49.8086 858.085 54.1691 858.085 Q59.1344 858.085 62.0308 862.032 Q64.9272 865.947 64.9272 872.822 Q64.9272 875.687 64.3543 878.806 Q63.8132 881.893 62.6992 885.331 L56.6518 885.331 Q58.3387 882.084 59.198 878.933 Q60.0256 875.782 60.0256 872.695 Q60.0256 868.557 58.6251 866.329 Q57.1929 864.101 54.6147 864.101 Q52.2276 864.101 50.9545 865.724 Q49.6813 867.316 48.5037 872.758 L48.0262 874.795 Q46.8804 880.238 44.5251 882.657 Q42.138 885.076 38.0002 885.076 Q32.9713 885.076 30.2341 881.511 Q27.4968 877.946 27.4968 871.39 Q27.4968 868.143 27.9743 865.279 Q28.4517 862.414 29.4065 859.995 Z" fill="#000000" fill-rule="nonzero" fill-opacity="1" /><path clip-path="url(#clip900)" d="M28.3562 848.76 L28.3562 842.903 L64.0042 842.903 L64.0042 848.76 L28.3562 848.76 M14.479 848.76 L14.479 842.903 L21.895 842.903 L21.895 848.76 L14.479 848.76 Z" fill="#000000" fill-rule="nonzero" fill-opacity="1" /><path clip-path="url(#clip900)" d="M18.2347 824.856 L28.3562 824.856 L28.3562 812.793 L32.9077 812.793 L32.9077 824.856 L52.2594 824.856 Q56.6199 824.856 57.8613 823.679 Q59.1026 822.469 59.1026 818.809 L59.1026 812.793 L64.0042 812.793 L64.0042 818.809 Q64.0042 825.588 61.4897 828.167 Q58.9434 830.745 52.2594 830.745 L32.9077 830.745 L32.9077 835.042 L28.3562 835.042 L28.3562 830.745 L18.2347 830.745 L18.2347 824.856 Z" fill="#000000" fill-rule="nonzero" fill-opacity="1" /><path clip-path="url(#clip900)" d="M28.3562 805.091 L28.3562 799.234 L64.0042 799.234 L64.0042 805.091 L28.3562 805.091 M14.479 805.091 L14.479 799.234 L21.895 799.234 L21.895 805.091 L14.479 805.091 Z" fill="#000000" fill-rule="nonzero" fill-opacity="1" /><path clip-path="url(#clip900)" d="M32.4621 773.167 Q32.4621 777.877 36.1542 780.615 Q39.8145 783.352 46.212 783.352 Q52.6095 783.352 56.3017 780.647 Q59.9619 777.909 59.9619 773.167 Q59.9619 768.488 56.2698 765.751 Q52.5777 763.014 46.212 763.014 Q39.8781 763.014 36.186 765.751 Q32.4621 768.488 32.4621 773.167 M27.4968 773.167 Q27.4968 765.528 32.4621 761.167 Q37.4273 756.807 46.212 756.807 Q54.9649 756.807 59.9619 761.167 Q64.9272 765.528 64.9272 773.167 Q64.9272 780.838 59.9619 785.198 Q54.9649 789.527 46.212 789.527 Q37.4273 789.527 32.4621 785.198 Q27.4968 780.838 27.4968 773.167 Z" fill="#000000" fill-rule="nonzero" fill-opacity="1" /><path clip-path="url(#clip900)" d="M42.4881 717.467 L64.0042 717.467 L64.0042 723.323 L42.679 723.323 Q37.6183 723.323 35.1038 725.297 Q32.5894 727.27 32.5894 731.217 Q32.5894 735.959 35.6131 738.697 Q38.6368 741.434 43.8567 741.434 L64.0042 741.434 L64.0042 747.322 L28.3562 747.322 L28.3562 741.434 L33.8944 741.434 Q30.6797 739.333 29.0883 736.5 Q27.4968 733.636 27.4968 729.912 Q27.4968 723.769 31.3163 720.618 Q35.1038 717.467 42.4881 717.467 Z" fill="#000000" fill-rule="nonzero" fill-opacity="1" /><path clip-path="url(#clip900)" d="M14.5426 670.997 Q21.8632 675.262 29.0246 677.331 Q36.186 679.4 43.5384 679.4 Q50.8908 679.4 58.1159 677.331 Q65.3091 675.23 72.5979 670.997 L72.5979 676.09 Q65.1182 680.864 57.8931 683.251 Q50.668 685.607 43.5384 685.607 Q36.4406 685.607 29.2474 683.251 Q22.0542 680.896 14.5426 676.09 L14.5426 670.997 Z" fill="#000000" fill-rule="nonzero" fill-opacity="1" /><path clip-path="url(#clip900)" d="M35.1993 631.88 Q31.2526 629.684 29.3747 626.628 Q27.4968 623.573 27.4968 619.435 Q27.4968 613.865 31.4117 610.841 Q35.2948 607.818 42.4881 607.818 L64.0042 607.818 L64.0042 613.706 L42.679 613.706 Q37.5546 613.706 35.072 615.52 Q32.5894 617.334 32.5894 621.058 Q32.5894 625.61 35.6131 628.252 Q38.6368 630.893 43.8567 630.893 L64.0042 630.893 L64.0042 636.782 L42.679 636.782 Q37.5228 636.782 35.072 638.596 Q32.5894 640.41 32.5894 644.198 Q32.5894 648.685 35.6449 651.327 Q38.6686 653.969 43.8567 653.969 L64.0042 653.969 L64.0042 659.857 L28.3562 659.857 L28.3562 653.969 L33.8944 653.969 Q30.616 651.964 29.0564 649.163 Q27.4968 646.362 27.4968 642.511 Q27.4968 638.628 29.4702 635.922 Q31.4436 633.185 35.1993 631.88 Z" fill="#000000" fill-rule="nonzero" fill-opacity="1" /><path clip-path="url(#clip900)" d="M14.5426 597.06 L14.5426 591.967 Q22.0542 587.193 29.2474 584.837 Q36.4406 582.45 43.5384 582.45 Q50.668 582.45 57.8931 584.837 Q65.1182 587.193 72.5979 591.967 L72.5979 597.06 Q65.3091 592.826 58.1159 590.758 Q50.8908 588.657 43.5384 588.657 Q36.186 588.657 29.0246 590.758 Q21.8632 592.826 14.5426 597.06 Z" fill="#000000" fill-rule="nonzero" fill-opacity="1" /><path clip-path="url(#clip900)" d="M716.93 18.8205 L716.93 41.5461 L727.22 41.5461 Q732.932 41.5461 736.051 38.5889 Q739.17 35.6318 739.17 30.163 Q739.17 24.7348 736.051 21.7777 Q732.932 18.8205 727.22 18.8205 L716.93 18.8205 M708.748 12.096 L727.22 12.096 Q737.388 12.096 742.573 16.714 Q747.798 21.2916 747.798 30.163 Q747.798 39.1155 742.573 43.6931 Q737.388 48.2706 727.22 48.2706 L716.93 48.2706 L716.93 72.576 L708.748 72.576 L708.748 12.096 Z" fill="#000000" fill-rule="nonzero" fill-opacity="1" /><path clip-path="url(#clip900)" d="M773.076 32.4315 Q767.081 32.4315 763.597 37.1306 Q760.113 41.7891 760.113 49.9314 Q760.113 58.0738 763.556 62.7728 Q767.04 67.4314 773.076 67.4314 Q779.031 67.4314 782.515 62.7323 Q785.998 58.0333 785.998 49.9314 Q785.998 41.8701 782.515 37.1711 Q779.031 32.4315 773.076 32.4315 M773.076 26.1121 Q782.798 26.1121 788.348 32.4315 Q793.898 38.7509 793.898 49.9314 Q793.898 61.0714 788.348 67.4314 Q782.798 73.7508 773.076 73.7508 Q763.313 73.7508 757.764 67.4314 Q752.254 61.0714 752.254 49.9314 Q752.254 38.7509 757.764 32.4315 Q763.313 26.1121 773.076 26.1121 Z" fill="#000000" fill-rule="nonzero" fill-opacity="1" /><path clip-path="url(#clip900)" d="M835.176 28.5427 L835.176 35.5912 Q832.017 33.9709 828.614 33.1607 Q825.211 32.3505 821.565 32.3505 Q816.016 32.3505 813.22 34.0519 Q810.466 35.7533 810.466 39.156 Q810.466 41.7486 812.451 43.2475 Q814.436 44.7058 820.431 46.0426 L822.983 46.6097 Q830.923 48.3111 834.245 51.4303 Q837.607 54.509 837.607 60.0587 Q837.607 66.3781 832.584 70.0644 Q827.601 73.7508 818.851 73.7508 Q815.205 73.7508 811.236 73.0216 Q807.306 72.3329 802.931 70.9151 L802.931 63.2184 Q807.063 65.3654 811.073 66.4591 Q815.084 67.5124 819.013 67.5124 Q824.279 67.5124 827.115 65.73 Q829.951 63.9071 829.951 60.6258 Q829.951 57.5877 827.885 55.9673 Q825.859 54.3469 818.932 52.8481 L816.34 52.2405 Q809.413 50.7821 806.334 47.7845 Q803.255 44.7463 803.255 39.4801 Q803.255 33.0797 807.792 29.5959 Q812.329 26.1121 820.674 26.1121 Q824.806 26.1121 828.452 26.7198 Q832.098 27.3274 835.176 28.5427 Z" fill="#000000" fill-rule="nonzero" fill-opacity="1" /><path clip-path="url(#clip900)" d="M849.476 27.2059 L856.93 27.2059 L856.93 72.576 L849.476 72.576 L849.476 27.2059 M849.476 9.54393 L856.93 9.54393 L856.93 18.9825 L849.476 18.9825 L849.476 9.54393 Z" fill="#000000" fill-rule="nonzero" fill-opacity="1" /><path clip-path="url(#clip900)" d="M879.898 14.324 L879.898 27.2059 L895.251 27.2059 L895.251 32.9987 L879.898 32.9987 L879.898 57.6282 Q879.898 63.1779 881.397 64.7578 Q882.937 66.3376 887.595 66.3376 L895.251 66.3376 L895.251 72.576 L887.595 72.576 Q878.967 72.576 875.685 69.3758 Q872.404 66.1351 872.404 57.6282 L872.404 32.9987 L866.935 32.9987 L866.935 27.2059 L872.404 27.2059 L872.404 14.324 L879.898 14.324 Z" fill="#000000" fill-rule="nonzero" fill-opacity="1" /><path clip-path="url(#clip900)" d="M905.054 27.2059 L912.508 27.2059 L912.508 72.576 L905.054 72.576 L905.054 27.2059 M905.054 9.54393 L912.508 9.54393 L912.508 18.9825 L905.054 18.9825 L905.054 9.54393 Z" fill="#000000" fill-rule="nonzero" fill-opacity="1" /><path clip-path="url(#clip900)" d="M945.685 32.4315 Q939.69 32.4315 936.206 37.1306 Q932.722 41.7891 932.722 49.9314 Q932.722 58.0738 936.165 62.7728 Q939.649 67.4314 945.685 67.4314 Q951.64 67.4314 955.124 62.7323 Q958.607 58.0333 958.607 49.9314 Q958.607 41.8701 955.124 37.1711 Q951.64 32.4315 945.685 32.4315 M945.685 26.1121 Q955.407 26.1121 960.957 32.4315 Q966.507 38.7509 966.507 49.9314 Q966.507 61.0714 960.957 67.4314 Q955.407 73.7508 945.685 73.7508 Q935.922 73.7508 930.373 67.4314 Q924.863 61.0714 924.863 49.9314 Q924.863 38.7509 930.373 32.4315 Q935.922 26.1121 945.685 26.1121 Z" fill="#000000" fill-rule="nonzero" fill-opacity="1" /><path clip-path="url(#clip900)" d="M1016.58 45.1919 L1016.58 72.576 L1009.12 72.576 L1009.12 45.4349 Q1009.12 38.994 1006.61 35.7938 Q1004.1 32.5936 999.076 32.5936 Q993.04 32.5936 989.556 36.4419 Q986.073 40.2903 986.073 46.9338 L986.073 72.576 L978.578 72.576 L978.578 27.2059 L986.073 27.2059 L986.073 34.2544 Q988.746 30.163 992.351 28.1376 Q995.997 26.1121 1000.74 26.1121 Q1008.56 26.1121 1012.57 30.9732 Q1016.58 35.7938 1016.58 45.1919 Z" fill="#000000" fill-rule="nonzero" fill-opacity="1" /><path clip-path="url(#clip900)" d="M1075.72 9.62495 Q1070.29 18.942 1067.66 28.0566 Q1065.02 37.1711 1065.02 46.5287 Q1065.02 55.8863 1067.66 65.0818 Q1070.33 74.2369 1075.72 83.5134 L1069.24 83.5134 Q1063.16 73.9938 1060.12 64.7983 Q1057.13 55.6027 1057.13 46.5287 Q1057.13 37.4952 1060.12 28.3401 Q1063.12 19.1851 1069.24 9.62495 L1075.72 9.62495 Z" fill="#000000" fill-rule="nonzero" fill-opacity="1" /><path clip-path="url(#clip900)" d="M1086.41 46.5287 L1108.25 46.5287 L1108.25 53.1722 L1086.41 53.1722 L1086.41 46.5287 Z" fill="#000000" fill-rule="nonzero" fill-opacity="1" /><path clip-path="url(#clip900)" d="M1116.35 46.5287 L1138.18 46.5287 L1138.18 53.1722 L1116.35 53.1722 L1116.35 46.5287 Z" fill="#000000" fill-rule="nonzero" fill-opacity="1" /><path clip-path="url(#clip900)" d="M1176.42 27.2059 L1183.88 27.2059 L1183.88 72.576 L1176.42 72.576 L1176.42 27.2059 M1176.42 9.54393 L1183.88 9.54393 L1183.88 18.9825 L1176.42 18.9825 L1176.42 9.54393 Z" fill="#000000" fill-rule="nonzero" fill-opacity="1" /><path clip-path="url(#clip900)" d="M1228.4 28.5427 L1228.4 35.5912 Q1225.24 33.9709 1221.84 33.1607 Q1218.43 32.3505 1214.79 32.3505 Q1209.24 32.3505 1206.44 34.0519 Q1203.69 35.7533 1203.69 39.156 Q1203.69 41.7486 1205.67 43.2475 Q1207.66 44.7058 1213.65 46.0426 L1216.2 46.6097 Q1224.14 48.3111 1227.47 51.4303 Q1230.83 54.509 1230.83 60.0587 Q1230.83 66.3781 1225.81 70.0644 Q1220.82 73.7508 1212.07 73.7508 Q1208.43 73.7508 1204.46 73.0216 Q1200.53 72.3329 1196.15 70.9151 L1196.15 63.2184 Q1200.28 65.3654 1204.29 66.4591 Q1208.31 67.5124 1212.23 67.5124 Q1217.5 67.5124 1220.34 65.73 Q1223.17 63.9071 1223.17 60.6258 Q1223.17 57.5877 1221.11 55.9673 Q1219.08 54.3469 1212.15 52.8481 L1209.56 52.2405 Q1202.63 50.7821 1199.56 47.7845 Q1196.48 44.7463 1196.48 39.4801 Q1196.48 33.0797 1201.01 29.5959 Q1205.55 26.1121 1213.9 26.1121 Q1218.03 26.1121 1221.67 26.7198 Q1225.32 27.3274 1228.4 28.5427 Z" fill="#000000" fill-rule="nonzero" fill-opacity="1" /><path clip-path="url(#clip900)" d="M1269.07 27.2059 L1276.52 27.2059 L1276.52 72.576 L1269.07 72.576 L1269.07 27.2059 M1269.07 9.54393 L1276.52 9.54393 L1276.52 18.9825 L1269.07 18.9825 L1269.07 9.54393 Z" fill="#000000" fill-rule="nonzero" fill-opacity="1" /><path clip-path="url(#clip900)" d="M1292.44 12.096 L1300.63 12.096 L1300.63 65.6895 L1330.08 65.6895 L1330.08 72.576 L1292.44 72.576 L1292.44 12.096 Z" fill="#000000" fill-rule="nonzero" fill-opacity="1" /><path clip-path="url(#clip900)" d="M1363.21 17.6457 Q1354.3 17.6457 1349.03 24.2892 Q1343.81 30.9327 1343.81 42.3968 Q1343.81 53.8203 1349.03 60.4638 Q1354.3 67.1073 1363.21 67.1073 Q1372.12 67.1073 1377.31 60.4638 Q1382.53 53.8203 1382.53 42.3968 Q1382.53 30.9327 1377.31 24.2892 Q1372.12 17.6457 1363.21 17.6457 M1374.68 71.4823 L1385.45 83.2704 L1375.57 83.2704 L1366.61 73.5887 Q1365.28 73.6697 1364.55 73.7103 Q1363.86 73.7508 1363.21 73.7508 Q1350.45 73.7508 1342.8 65.2439 Q1335.18 56.6965 1335.18 42.3968 Q1335.18 28.0566 1342.8 19.5497 Q1350.45 11.0023 1363.21 11.0023 Q1375.93 11.0023 1383.55 19.5497 Q1391.16 28.0566 1391.16 42.3968 Q1391.16 52.9291 1386.91 60.4233 Q1382.7 67.9175 1374.68 71.4823 Z" fill="#000000" fill-rule="nonzero" fill-opacity="1" /><path clip-path="url(#clip900)" d="M1432.64 44.2197 Q1435.28 45.1109 1437.75 48.0275 Q1440.26 50.9442 1442.77 56.0483 L1451.08 72.576 L1442.29 72.576 L1434.55 57.061 Q1431.55 50.9847 1428.71 48.9997 Q1425.92 47.0148 1421.06 47.0148 L1412.15 47.0148 L1412.15 72.576 L1403.96 72.576 L1403.96 12.096 L1422.44 12.096 Q1432.81 12.096 1437.91 16.4305 Q1443.01 20.7649 1443.01 29.5149 Q1443.01 35.2267 1440.34 38.994 Q1437.71 42.7613 1432.64 44.2197 M1412.15 18.8205 L1412.15 40.2903 L1422.44 40.2903 Q1428.35 40.2903 1431.35 37.5762 Q1434.39 34.8216 1434.39 29.5149 Q1434.39 24.2082 1431.35 21.5346 Q1428.35 18.8205 1422.44 18.8205 L1412.15 18.8205 Z" fill="#000000" fill-rule="nonzero" fill-opacity="1" /><path clip-path="url(#clip900)" d="M1513.95 34.1734 Q1512.69 33.4443 1511.19 33.1202 Q1509.73 32.7556 1507.95 32.7556 Q1501.63 32.7556 1498.23 36.8875 Q1494.87 40.9789 1494.87 48.6757 L1494.87 72.576 L1487.37 72.576 L1487.37 27.2059 L1494.87 27.2059 L1494.87 34.2544 Q1497.22 30.1225 1500.98 28.1376 Q1504.75 26.1121 1510.14 26.1121 Q1510.91 26.1121 1511.84 26.2337 Q1512.77 26.3147 1513.91 26.5172 L1513.95 34.1734 Z" fill="#000000" fill-rule="nonzero" fill-opacity="1" /><path clip-path="url(#clip900)" d="M1558.75 48.0275 L1558.75 51.6733 L1524.48 51.6733 Q1524.96 59.3701 1529.1 63.421 Q1533.27 67.4314 1540.68 67.4314 Q1544.98 67.4314 1548.99 66.3781 Q1553.04 65.3249 1557.01 63.2184 L1557.01 70.267 Q1553 71.9684 1548.78 72.8596 Q1544.57 73.7508 1540.24 73.7508 Q1529.38 73.7508 1523.02 67.4314 Q1516.7 61.1119 1516.7 50.3365 Q1516.7 39.1965 1522.7 32.6746 Q1528.73 26.1121 1538.94 26.1121 Q1548.09 26.1121 1553.4 32.0264 Q1558.75 37.9003 1558.75 48.0275 M1551.3 45.84 Q1551.21 39.7232 1547.85 36.0774 Q1544.53 32.4315 1539.02 32.4315 Q1532.78 32.4315 1529.02 35.9558 Q1525.29 39.4801 1524.72 45.8805 L1551.3 45.84 Z" fill="#000000" fill-rule="nonzero" fill-opacity="1" /><path clip-path="url(#clip900)" d="M1593.95 9.54393 L1593.95 15.7418 L1586.82 15.7418 Q1582.81 15.7418 1581.23 17.3622 Q1579.69 18.9825 1579.69 23.1955 L1579.69 27.2059 L1591.97 27.2059 L1591.97 32.9987 L1579.69 32.9987 L1579.69 72.576 L1572.2 72.576 L1572.2 32.9987 L1565.07 32.9987 L1565.07 27.2059 L1572.2 27.2059 L1572.2 24.0462 Q1572.2 16.471 1575.72 13.0277 Q1579.25 9.54393 1586.9 9.54393 L1593.95 9.54393 Z" fill="#000000" fill-rule="nonzero" fill-opacity="1" /><path clip-path="url(#clip900)" d="M1639 48.0275 L1639 51.6733 L1604.73 51.6733 Q1605.21 59.3701 1609.34 63.421 Q1613.52 67.4314 1620.93 67.4314 Q1625.22 67.4314 1629.23 66.3781 Q1633.29 65.3249 1637.26 63.2184 L1637.26 70.267 Q1633.24 71.9684 1629.03 72.8596 Q1624.82 73.7508 1620.48 73.7508 Q1609.63 73.7508 1603.27 67.4314 Q1596.95 61.1119 1596.95 50.3365 Q1596.95 39.1965 1602.94 32.6746 Q1608.98 26.1121 1619.19 26.1121 Q1628.34 26.1121 1633.65 32.0264 Q1639 37.9003 1639 48.0275 M1631.54 45.84 Q1631.46 39.7232 1628.1 36.0774 Q1624.78 32.4315 1619.27 32.4315 Q1613.03 32.4315 1609.26 35.9558 Q1605.54 39.4801 1604.97 45.8805 L1631.54 45.84 Z" fill="#000000" fill-rule="nonzero" fill-opacity="1" /><path clip-path="url(#clip900)" d="M1677.52 34.1734 Q1676.27 33.4443 1674.77 33.1202 Q1673.31 32.7556 1671.53 32.7556 Q1665.21 32.7556 1661.8 36.8875 Q1658.44 40.9789 1658.44 48.6757 L1658.44 72.576 L1650.95 72.576 L1650.95 27.2059 L1658.44 27.2059 L1658.44 34.2544 Q1660.79 30.1225 1664.56 28.1376 Q1668.33 26.1121 1673.71 26.1121 Q1674.48 26.1121 1675.41 26.2337 Q1676.35 26.3147 1677.48 26.5172 L1677.52 34.1734 Z" fill="#000000" fill-rule="nonzero" fill-opacity="1" /><path clip-path="url(#clip900)" d="M1722.32 48.0275 L1722.32 51.6733 L1688.05 51.6733 Q1688.54 59.3701 1692.67 63.421 Q1696.84 67.4314 1704.26 67.4314 Q1708.55 67.4314 1712.56 66.3781 Q1716.61 65.3249 1720.58 63.2184 L1720.58 70.267 Q1716.57 71.9684 1712.36 72.8596 Q1708.15 73.7508 1703.81 73.7508 Q1692.96 73.7508 1686.6 67.4314 Q1680.28 61.1119 1680.28 50.3365 Q1680.28 39.1965 1686.27 32.6746 Q1692.31 26.1121 1702.52 26.1121 Q1711.67 26.1121 1716.98 32.0264 Q1722.32 37.9003 1722.32 48.0275 M1714.87 45.84 Q1714.79 39.7232 1711.43 36.0774 Q1708.11 32.4315 1702.6 32.4315 Q1696.36 32.4315 1692.59 35.9558 Q1688.86 39.4801 1688.3 45.8805 L1714.87 45.84 Z" fill="#000000" fill-rule="nonzero" fill-opacity="1" /><path clip-path="url(#clip900)" d="M1772.27 45.1919 L1772.27 72.576 L1764.82 72.576 L1764.82 45.4349 Q1764.82 38.994 1762.31 35.7938 Q1759.8 32.5936 1754.77 32.5936 Q1748.74 32.5936 1745.25 36.4419 Q1741.77 40.2903 1741.77 46.9338 L1741.77 72.576 L1734.27 72.576 L1734.27 27.2059 L1741.77 27.2059 L1741.77 34.2544 Q1744.44 30.163 1748.05 28.1376 Q1751.69 26.1121 1756.43 26.1121 Q1764.25 26.1121 1768.26 30.9732 Q1772.27 35.7938 1772.27 45.1919 Z" fill="#000000" fill-rule="nonzero" fill-opacity="1" /><path clip-path="url(#clip900)" d="M1819.79 28.9478 L1819.79 35.9153 Q1816.63 34.1734 1813.43 33.3227 Q1810.27 32.4315 1807.03 32.4315 Q1799.78 32.4315 1795.77 37.0496 Q1791.76 41.6271 1791.76 49.9314 Q1791.76 58.2358 1795.77 62.8538 Q1799.78 67.4314 1807.03 67.4314 Q1810.27 67.4314 1813.43 66.5807 Q1816.63 65.6895 1819.79 63.9476 L1819.79 70.8341 Q1816.67 72.2924 1813.31 73.0216 Q1809.99 73.7508 1806.22 73.7508 Q1795.97 73.7508 1789.93 67.3098 Q1783.9 60.8689 1783.9 49.9314 Q1783.9 38.832 1789.97 32.472 Q1796.09 26.1121 1806.7 26.1121 Q1810.15 26.1121 1813.43 26.8413 Q1816.71 27.5299 1819.79 28.9478 Z" fill="#000000" fill-rule="nonzero" fill-opacity="1" /><path clip-path="url(#clip900)" d="M1871.56 48.0275 L1871.56 51.6733 L1837.29 51.6733 Q1837.78 59.3701 1841.91 63.421 Q1846.08 67.4314 1853.49 67.4314 Q1857.79 67.4314 1861.8 66.3781 Q1865.85 65.3249 1869.82 63.2184 L1869.82 70.267 Q1865.81 71.9684 1861.59 72.8596 Q1857.38 73.7508 1853.05 73.7508 Q1842.19 73.7508 1835.83 67.4314 Q1829.51 61.1119 1829.51 50.3365 Q1829.51 39.1965 1835.51 32.6746 Q1841.54 26.1121 1851.75 26.1121 Q1860.91 26.1121 1866.21 32.0264 Q1871.56 37.9003 1871.56 48.0275 M1864.11 45.84 Q1864.03 39.7232 1860.66 36.0774 Q1857.34 32.4315 1851.83 32.4315 Q1845.59 32.4315 1841.83 35.9558 Q1838.1 39.4801 1837.53 45.8805 L1864.11 45.84 Z" fill="#000000" fill-rule="nonzero" fill-opacity="1" /><path clip-path="url(#clip900)" d="M1882.62 9.62495 L1889.1 9.62495 Q1895.18 19.1851 1898.17 28.3401 Q1901.21 37.4952 1901.21 46.5287 Q1901.21 55.6027 1898.17 64.7983 Q1895.18 73.9938 1889.1 83.5134 L1882.62 83.5134 Q1888.01 74.2369 1890.64 65.0818 Q1893.31 55.8863 1893.31 46.5287 Q1893.31 37.1711 1890.64 28.0566 Q1888.01 18.942 1882.62 9.62495 Z" fill="#000000" fill-rule="nonzero" fill-opacity="1" /><polyline clip-path="url(#clip902)" style="stroke:#ff0000; stroke-linecap:round; stroke-linejoin:round; stroke-width:4; stroke-opacity:1; fill:none" stroke-dasharray="16, 10" points="316.512,773.232 336.281,735.037 356.051,696.916 375.82,659.031 395.59,621.584 415.359,584.771 435.128,548.766 454.898,513.716 474.667,479.749 494.436,446.978 514.206,415.508 533.975,385.444 553.744,356.889 573.514,329.952 593.283,304.744 613.052,281.381 632.822,259.975 652.591,240.638 672.361,223.468 692.13,208.549 711.899,195.939 731.669,185.668 751.438,177.742 771.207,172.147 790.977,168.859 810.746,167.859 830.515,169.141 850.285,172.715 870.054,178.604 889.823,186.83 909.593,197.409 929.362,210.333 949.132,225.569 968.901,243.056 988.67,262.712 1008.44,284.438 1028.21,308.125 1047.98,333.658 1067.75,360.925 1087.52,389.81 1107.29,420.196 1127.06,451.962 1146.83,484.976 1166.59,519.096 1186.36,554.165 1206.13,590.013 1225.9,626.47 1245.67,663.371 1265.44,700.572 1285.21,737.954 1304.98,775.423 1324.75,812.896 1344.52,850.29 1364.29,887.505 1384.06,924.416 1403.83,960.871 1423.6,996.703 1443.37,1031.74 1463.13,1065.81 1482.9,1098.75 1502.67,1130.43 1522.44,1160.71 1542.21,1189.47 1561.98,1216.58 1581.75,1241.92 1601.52,1265.38 1621.29,1286.84 1641.06,1306.19 1660.83,1323.33 1680.6,1338.19 1700.37,1350.71 1720.14,1360.89 1739.91,1368.71 1759.68,1374.22 1779.44,1377.42 1799.21,1378.34 1818.98,1376.99 1838.75,1373.33 1858.52,1367.34 1878.29,1359.01 1898.06,1348.32 1917.83,1335.29 1937.6,1319.97 1957.37,1302.43 1977.14,1282.77 1996.91,1261.1 2016.68,1237.55 2036.45,1212.24 2056.22,1185.3 2075.98,1156.85 2095.75,1127.01 2115.52,1095.91 2135.29,1063.65 2155.06,1030.35 2174.83,996.099 2194.6,961.001 2214.37,925.139 2234.14,888.585 2253.91,851.406 2273.68,813.651 2293.45,775.362 "/>
<polyline clip-path="url(#clip902)" style="stroke:#008000; stroke-linecap:round; stroke-linejoin:round; stroke-width:4; stroke-opacity:1; fill:none" stroke-dasharray="16, 10" points="316.512,773.232 336.281,811.337 356.051,849.131 375.82,885.914 395.59,920.841 415.359,953.11 435.128,982.054 454.898,1007.16 474.667,1028.06 494.436,1044.5 514.206,1056.33 533.975,1063.46 553.744,1065.88 573.514,1063.63 593.283,1056.81 613.052,1045.6 632.822,1030.21 652.591,1010.96 672.361,988.196 692.13,962.334 711.899,933.836 731.669,903.189 751.438,870.889 771.207,837.423 790.977,803.256 810.746,768.832 830.515,734.582 850.285,700.939 870.054,668.35 889.823,637.284 909.593,608.224 929.362,581.657 949.132,558.053 968.901,537.844 988.67,521.406 1008.44,509.051 1028.21,501.014 1047.98,497.454 1067.75,498.449 1087.52,503.997 1107.29,514.006 1127.06,528.294 1146.83,546.581 1166.59,568.488 1186.36,593.539 1206.13,621.192 1225.9,650.868 1245.67,682.009 1265.44,714.116 1285.21,746.78 1304.98,779.673 1324.75,812.509 1344.52,844.991 1364.29,876.765 1384.06,907.387 1403.83,936.332 1423.6,963.029 1443.37,986.909 1463.13,1007.45 1482.9,1024.22 1502.67,1036.88 1522.44,1045.18 1542.21,1048.99 1561.98,1048.25 1581.75,1042.99 1601.52,1033.33 1621.29,1019.47 1641.06,1001.69 1660.83,980.319 1680.6,955.781 1700.37,928.53 1720.14,899.049 1739.91,867.828 1759.68,835.343 1779.44,802.049 1799.21,768.379 1818.98,734.757 1838.75,701.613 1858.52,669.396 1878.29,638.576 1898.06,609.637 1917.83,583.063 1937.6,559.312 1957.37,538.796 1977.14,521.867 1996.91,508.803 2016.68,499.806 2036.45,494.998 2056.22,494.425 2075.98,498.063 2095.75,505.824 2115.52,517.562 2135.29,533.088 2155.06,552.174 2174.83,574.575 2194.6,600.035 2214.37,628.3 2234.14,659.133 2253.91,692.318 2273.68,727.665 2293.45,765.023 "/>
<polyline clip-path="url(#clip902)" style="stroke:#0000ff; stroke-linecap:round; stroke-linejoin:round; stroke-width:4; stroke-opacity:1; fill:none" stroke-dasharray="16, 10" points="316.512,752.953 336.281,752.917 356.051,752.882 375.82,752.279 395.59,750.775 415.359,748.311 435.128,745.003 454.898,741.049 474.667,736.66 494.436,732.024 514.206,727.281 533.975,722.528 553.744,717.817 573.514,713.159 593.283,708.537 613.052,703.912 632.822,699.227 652.591,694.422 672.361,689.439 692.13,684.235 711.899,678.788 731.669,673.101 751.438,667.206 771.207,661.15 790.977,654.99 810.746,648.777 830.515,642.545 850.285,636.312 870.054,630.085 889.823,623.868 909.593,617.678 929.362,611.55 949.132,605.544 968.901,599.739 988.67,594.227 1008.44,589.096 1028.21,584.424 1047.98,580.265 1067.75,576.641 1087.52,573.535 1107.29,570.891 1127.06,568.616 1146.83,566.592 1166.59,564.698 1186.36,562.838 1206.13,560.97 1225.9,559.134 1245.67,557.447 1265.44,556.08 1285.21,555.211 1304.98,554.963 1324.75,555.372 1344.52,556.366 1364.29,557.797 1384.06,559.483 1403.83,561.268 1423.6,563.063 1443.37,564.861 1463.13,566.727 1482.9,568.772 1502.67,571.118 1522.44,573.876 1542.21,577.128 1561.98,580.915 1581.75,585.242 1601.52,590.073 1621.29,595.349 1641.06,600.988 1660.83,606.905 1680.6,613.017 1700.37,619.262 1720.14,625.597 1739.91,632.003 1759.68,638.475 1779.44,645.013 1799.21,651.606 1818.98,658.224 1838.75,664.816 1858.52,671.316 1878.29,677.656 1898.06,683.777 1917.83,689.635 1937.6,695.213 1957.37,700.508 1977.14,705.532 1996.91,710.298 2016.68,714.82 2036.45,719.101 2056.22,723.139 2075.98,726.923 2095.75,730.438 2115.52,733.671 2135.29,736.615 2155.06,739.276 2174.83,741.675 2194.6,743.85 2214.37,745.857 2234.14,747.765 2253.91,749.657 2273.68,751.617 2293.45,753.731 "/>
<polyline clip-path="url(#clip902)" style="stroke:#ff0000; stroke-linecap:round; stroke-linejoin:round; stroke-width:4; stroke-opacity:1; fill:none" points="316.512,773.232 336.281,735.037 356.051,696.901 375.82,658.97 395.59,621.437 415.359,584.498 435.128,548.324 454.898,513.058 474.667,478.824 494.436,445.731 514.206,413.888 533.975,383.403 553.744,354.39 573.514,326.968 593.283,301.261 613.052,277.394 632.822,255.492 652.591,235.673 672.361,218.046 692.13,202.699 711.899,189.697 731.669,179.076 751.438,170.842 771.207,164.98 790.977,161.461 810.746,160.256 830.515,161.35 850.285,164.741 870.054,170.445 889.823,178.482 909.593,188.864 929.362,201.59 949.132,216.63 968.901,233.93 988.67,253.411 1008.44,274.979 1028.21,298.53 1047.98,323.952 1067.75,351.136 1087.52,379.97 1107.29,410.338 1127.06,442.123 1146.83,475.196 1166.59,509.417 1186.36,544.631 1206.13,580.669 1225.9,617.357 1245.67,654.526 1265.44,692.022 1285.21,729.718 1304.98,767.514 1324.75,805.325 1344.52,843.073 1364.29,880.663 1384.06,917.981 1403.83,954.885 1423.6,991.216 1443.37,1026.81 1463.13,1061.5 1482.9,1095.12 1502.67,1127.55 1522.44,1158.63 1542.21,1188.24 1561.98,1216.23 1581.75,1242.49 1601.52,1266.86 1621.29,1289.23 1641.06,1309.45 1660.83,1327.43 1680.6,1343.07 1700.37,1356.32 1720.14,1367.13 1739.91,1375.52 1759.68,1381.5 1779.44,1385.12 1799.21,1386.4 1818.98,1385.34 1838.75,1381.96 1858.52,1376.23 1878.29,1368.13 1898.06,1357.66 1917.83,1344.82 1937.6,1329.67 1957.37,1312.28 1977.14,1292.73 1996.91,1271.14 2016.68,1247.62 2036.45,1222.29 2056.22,1195.28 2075.98,1166.71 2095.75,1136.7 2115.52,1105.38 2135.29,1072.85 2155.06,1039.25 2174.83,1004.67 2194.6,969.227 2214.37,933.014 2234.14,896.118 2253.91,858.614 2273.68,820.565 2293.45,782.021 "/>
<polyline clip-path="url(#clip902)" style="stroke:#008000; stroke-linecap:round; stroke-linejoin:round; stroke-width:4; stroke-opacity:1; fill:none" points="316.512,773.232 336.281,811.343 356.051,849.247 375.82,886.388 395.59,921.949 415.359,955.059 435.128,984.958 454.898,1011.06 474.667,1032.94 494.436,1050.34 514.206,1063.07 533.975,1071.05 553.744,1074.26 573.514,1072.74 593.283,1066.59 613.052,1055.97 632.822,1041.11 652.591,1022.29 672.361,999.867 692.13,974.24 711.899,945.866 731.669,915.232 751.438,882.837 771.207,849.172 790.977,814.71 810.746,779.901 830.515,745.176 850.285,710.964 870.054,677.704 889.823,645.857 909.593,615.899 929.362,588.316 949.132,563.583 968.901,542.144 988.67,524.393 1008.44,510.662 1028.21,501.211 1047.98,496.226 1067.75,495.814 1087.52,499.997 1107.29,508.715 1127.06,521.813 1146.83,539.04 1166.59,560.042 1186.36,584.369 1206.13,611.489 1225.9,640.823 1245.67,671.795 1265.44,703.876 1285.21,736.624 1304.98,769.686 1324.75,802.768 1344.52,835.584 1364.29,867.799 1384.06,898.997 1403.83,928.673 1423.6,956.265 1443.37,981.199 1463.13,1002.93 1482.9,1021.01 1502.67,1035.05 1522.44,1044.78 1542.21,1050.03 1561.98,1050.71 1581.75,1046.81 1601.52,1038.44 1621.29,1025.76 1641.06,1009.02 1660.83,988.544 1680.6,964.736 1700.37,938.045 1720.14,908.955 1739.91,877.965 1759.68,845.564 1779.44,812.223 1799.21,778.387 1818.98,744.485 1838.75,710.949 1858.52,678.222 1878.29,646.768 1898.06,617.07 1917.83,589.609 1937.6,564.853 1957.37,543.228 1977.14,525.102 1996.91,510.777 2016.68,500.478 2036.45,494.354 2056.22,492.479 2075.98,494.855 2095.75,501.419 2115.52,512.047 2135.29,526.564 2155.06,544.755 2174.83,566.375 2194.6,591.16 2214.37,618.84 2234.14,649.15 2253.91,681.842 2273.68,716.687 2293.45,753.495 "/>
<polyline clip-path="url(#clip902)" style="stroke:#0000ff; stroke-linecap:round; stroke-linejoin:round; stroke-width:4; stroke-opacity:1; fill:none" points="316.512,752.953 336.281,753.025 356.051,753.36 375.82,753.378 395.59,752.63 415.359,750.973 435.128,748.496 454.898,745.408 474.667,741.934 494.436,738.268 514.206,734.542 533.975,730.83 553.744,727.153 573.514,723.491 593.283,719.795 613.052,715.998 632.822,712.025 652.591,707.805 672.361,703.277 692.13,698.398 711.899,693.153 731.669,687.556 751.438,681.652 771.207,675.505 790.977,669.19 810.746,662.779 830.515,656.329 850.285,649.875 870.054,643.44 889.823,637.036 909.593,630.684 929.362,624.419 949.132,618.299 968.901,612.399 988.67,606.806 1008.44,601.607 1028.21,596.877 1047.98,592.668 1067.75,589.003 1087.52,585.864 1107.29,583.194 1127.06,580.9 1146.83,578.862 1166.59,576.952 1186.36,575.059 1206.13,573.124 1225.9,571.166 1245.67,569.286 1265.44,567.654 1285.21,566.465 1304.98,565.875 1324.75,565.958 1344.52,566.681 1364.29,567.922 1384.06,569.508 1403.83,571.278 1423.6,573.127 1443.37,575.031 1463.13,577.041 1482.9,579.253 1502.67,581.783 1522.44,584.735 1542.21,588.183 1561.98,592.162 1581.75,596.669 1601.52,601.662 1621.29,607.076 1641.06,612.824 1660.83,618.816 1680.6,624.969 1700.37,631.215 1720.14,637.511 1739.91,643.839 1759.68,650.201 1779.44,656.607 1799.21,663.061 1818.98,669.549 1838.75,676.037 1858.52,682.471 1878.29,688.792 1898.06,694.94 1917.83,700.875 1937.6,706.57 1957.37,712.018 1977.14,717.22 1996.91,722.182 2016.68,726.906 2036.45,731.384 2056.22,735.603 2075.98,739.541 2095.75,743.174 2115.52,746.482 2135.29,749.454 2155.06,752.095 2174.83,754.432 2194.6,756.512 2214.37,758.409 2234.14,760.22 2253.91,762.058 2273.68,764.046 2293.45,766.31 "/>
<path clip-path="url(#clip900)" d="M2007.82 374.156 L2282.9 374.156 L2282.9 166.796 L2007.82 166.796  Z" fill="#ffffff" fill-rule="evenodd" fill-opacity="1"/>
<polyline clip-path="url(#clip900)" style="stroke:#000000; stroke-linecap:round; stroke-linejoin:round; stroke-width:4; stroke-opacity:1; fill:none" points="2007.82,374.156 2282.9,374.156 2282.9,166.796 2007.82,166.796 2007.82,374.156 "/>
<polyline clip-path="url(#clip900)" style="stroke:#ff0000; stroke-linecap:round; stroke-linejoin:round; stroke-width:4; stroke-opacity:1; fill:none" points="2031.1,218.636 2170.8,218.636 "/>
<path clip-path="url(#clip900)" d="M2209.27 213.971 Q2208.56 213.555 2207.7 213.37 Q2206.87 213.161 2205.85 213.161 Q2202.24 213.161 2200.29 215.522 Q2198.37 217.86 2198.37 222.258 L2198.37 235.916 L2194.09 235.916 L2194.09 209.99 L2198.37 209.99 L2198.37 214.018 Q2199.71 211.657 2201.87 210.522 Q2204.02 209.365 2207.1 209.365 Q2207.54 209.365 2208.07 209.434 Q2208.6 209.481 2209.25 209.596 L2209.27 213.971 Z" fill="#000000" fill-rule="nonzero" fill-opacity="1" /><path clip-path="url(#clip900)" d="M2233.44 243.786 L2233.44 247.096 L2208.81 247.096 L2208.81 243.786 L2233.44 243.786 Z" fill="#000000" fill-rule="nonzero" fill-opacity="1" /><path clip-path="url(#clip900)" d="M2259 209.99 L2249.62 222.606 L2259.48 235.916 L2254.46 235.916 L2246.91 225.731 L2239.37 235.916 L2234.34 235.916 L2244.41 222.351 L2235.2 209.99 L2240.22 209.99 L2247.1 219.226 L2253.97 209.99 L2259 209.99 Z" fill="#000000" fill-rule="nonzero" fill-opacity="1" /><polyline clip-path="url(#clip900)" style="stroke:#008000; stroke-linecap:round; stroke-linejoin:round; stroke-width:4; stroke-opacity:1; fill:none" points="2031.1,270.476 2170.8,270.476 "/>
<path clip-path="url(#clip900)" d="M2209.27 265.811 Q2208.56 265.395 2207.7 265.21 Q2206.87 265.001 2205.85 265.001 Q2202.24 265.001 2200.29 267.362 Q2198.37 269.7 2198.37 274.098 L2198.37 287.756 L2194.09 287.756 L2194.09 261.83 L2198.37 261.83 L2198.37 265.858 Q2199.71 263.497 2201.87 262.362 Q2204.02 261.205 2207.1 261.205 Q2207.54 261.205 2208.07 261.274 Q2208.6 261.321 2209.25 261.436 L2209.27 265.811 Z" fill="#000000" fill-rule="nonzero" fill-opacity="1" /><path clip-path="url(#clip900)" d="M2233.44 295.626 L2233.44 298.936 L2208.81 298.936 L2208.81 295.626 L2233.44 295.626 Z" fill="#000000" fill-rule="nonzero" fill-opacity="1" /><path clip-path="url(#clip900)" d="M2248.23 290.163 Q2246.43 294.793 2244.71 296.205 Q2243 297.617 2240.13 297.617 L2236.73 297.617 L2236.73 294.052 L2239.23 294.052 Q2240.99 294.052 2241.96 293.219 Q2242.93 292.385 2244.11 289.283 L2244.87 287.339 L2234.39 261.83 L2238.9 261.83 L2247 282.108 L2255.11 261.83 L2259.62 261.83 L2248.23 290.163 Z" fill="#000000" fill-rule="nonzero" fill-opacity="1" /><polyline clip-path="url(#clip900)" style="stroke:#0000ff; stroke-linecap:round; stroke-linejoin:round; stroke-width:4; stroke-opacity:1; fill:none" points="2031.1,322.316 2170.8,322.316 "/>
<path clip-path="url(#clip900)" d="M2209.27 317.651 Q2208.56 317.235 2207.7 317.05 Q2206.87 316.841 2205.85 316.841 Q2202.24 316.841 2200.29 319.202 Q2198.37 321.54 2198.37 325.938 L2198.37 339.596 L2194.09 339.596 L2194.09 313.67 L2198.37 313.67 L2198.37 317.698 Q2199.71 315.337 2201.87 314.202 Q2204.02 313.045 2207.1 313.045 Q2207.54 313.045 2208.07 313.114 Q2208.6 313.161 2209.25 313.276 L2209.27 317.651 Z" fill="#000000" fill-rule="nonzero" fill-opacity="1" /><path clip-path="url(#clip900)" d="M2233.44 347.466 L2233.44 350.776 L2208.81 350.776 L2208.81 347.466 L2233.44 347.466 Z" fill="#000000" fill-rule="nonzero" fill-opacity="1" /><path clip-path="url(#clip900)" d="M2235.59 313.67 L2255.82 313.67 L2255.82 317.559 L2239.81 336.193 L2255.82 336.193 L2255.82 339.596 L2235.01 339.596 L2235.01 335.707 L2251.03 317.073 L2235.59 317.073 L2235.59 313.67 Z" fill="#000000" fill-rule="nonzero" fill-opacity="1" /></svg>
