<?xml version="1.0" encoding="utf-8"?>
<svg xmlns="http://www.w3.org/2000/svg" xmlns:xlink="http://www.w3.org/1999/xlink" width="600" height="400" viewBox="0 0 2400 1600">
<defs>
  <clipPath id="clip990">
    <rect x="0" y="0" width="2400" height="1600"/>
  </clipPath>
</defs>
<path clip-path="url(#clip990)" d="M0 1600 L2400 1600 L2400 0 L0 0  Z" fill="#ffffff" fill-rule="evenodd" fill-opacity="1"/>
<defs>
  <clipPath id="clip991">
    <rect x="480" y="0" width="1681" height="1600"/>
  </clipPath>
</defs>
<path clip-path="url(#clip990)" d="M255.977 1423.18 L2352.76 1423.18 L2352.76 123.472 L255.977 123.472  Z" fill="#ffffff" fill-rule="evenodd" fill-opacity="1"/>
<defs>
  <clipPath id="clip992">
    <rect x="255" y="123" width="2098" height="1301"/>
  </clipPath>
</defs>
<polyline clip-path="url(#clip992)" style="stroke:#000000; stroke-linecap:round; stroke-linejoin:round; stroke-width:2; stroke-opacity:0.1; fill:none" points="315.32,1423.18 315.32,123.472 "/>
<polyline clip-path="url(#clip992)" style="stroke:#000000; stroke-linecap:round; stroke-linejoin:round; stroke-width:2; stroke-opacity:0.1; fill:none" points="710.939,1423.18 710.939,123.472 "/>
<polyline clip-path="url(#clip992)" style="stroke:#000000; stroke-linecap:round; stroke-linejoin:round; stroke-width:2; stroke-opacity:0.1; fill:none" points="1106.56,1423.18 1106.56,123.472 "/>
<polyline clip-path="url(#clip992)" style="stroke:#000000; stroke-linecap:round; stroke-linejoin:round; stroke-width:2; stroke-opacity:0.1; fill:none" points="1502.18,1423.18 1502.18,123.472 "/>
<polyline clip-path="url(#clip992)" style="stroke:#000000; stroke-linecap:round; stroke-linejoin:round; stroke-width:2; stroke-opacity:0.1; fill:none" points="1897.79,1423.18 1897.79,123.472 "/>
<polyline clip-path="url(#clip992)" style="stroke:#000000; stroke-linecap:round; stroke-linejoin:round; stroke-width:2; stroke-opacity:0.1; fill:none" points="2293.41,1423.18 2293.41,123.472 "/>
<polyline clip-path="url(#clip992)" style="stroke:#000000; stroke-linecap:round; stroke-linejoin:round; stroke-width:2; stroke-opacity:0.1; fill:none" points="255.977,1226.83 2352.76,1226.83 "/>
<polyline clip-path="url(#clip992)" style="stroke:#000000; stroke-linecap:round; stroke-linejoin:round; stroke-width:2; stroke-opacity:0.1; fill:none" points="255.977,996.248 2352.76,996.248 "/>
<polyline clip-path="url(#clip992)" style="stroke:#000000; stroke-linecap:round; stroke-linejoin:round; stroke-width:2; stroke-opacity:0.1; fill:none" points="255.977,765.668 2352.76,765.668 "/>
<polyline clip-path="url(#clip992)" style="stroke:#000000; stroke-linecap:round; stroke-linejoin:round; stroke-width:2; stroke-opacity:0.1; fill:none" points="255.977,535.087 2352.76,535.087 "/>
<polyline clip-path="url(#clip992)" style="stroke:#000000; stroke-linecap:round; stroke-linejoin:round; stroke-width:2; stroke-opacity:0.1; fill:none" points="255.977,304.507 2352.76,304.507 "/>
<polyline clip-path="url(#clip990)" style="stroke:#000000; stroke-linecap:round; stroke-linejoin:round; stroke-width:4; stroke-opacity:1; fill:none" points="255.977,1423.18 2352.76,1423.18 "/>
<polyline clip-path="url(#clip990)" style="stroke:#000000; stroke-linecap:round; stroke-linejoin:round; stroke-width:4; stroke-opacity:1; fill:none" points="315.32,1423.18 315.32,1404.28 "/>
<polyline clip-path="url(#clip990)" style="stroke:#000000; stroke-linecap:round; stroke-linejoin:round; stroke-width:4; stroke-opacity:1; fill:none" points="710.939,1423.18 710.939,1404.28 "/>
<polyline clip-path="url(#clip990)" style="stroke:#000000; stroke-linecap:round; stroke-linejoin:round; stroke-width:4; stroke-opacity:1; fill:none" points="1106.56,1423.18 1106.56,1404.28 "/>
<polyline clip-path="url(#clip990)" style="stroke:#000000; stroke-linecap:round; stroke-linejoin:round; stroke-width:4; stroke-opacity:1; fill:none" points="1502.18,1423.18 1502.18,1404.28 "/>
<polyline clip-path="url(#clip990)" style="stroke:#000000; stroke-linecap:round; stroke-linejoin:round; stroke-width:4; stroke-opacity:1; fill:none" points="1897.79,1423.18 1897.79,1404.28 "/>
<polyline clip-path="url(#clip990)" style="stroke:#000000; stroke-linecap:round; stroke-linejoin:round; stroke-width:4; stroke-opacity:1; fill:none" points="2293.41,1423.18 2293.41,1404.28 "/>
<path clip-path="url(#clip990)" d="M315.32 1454.1 Q311.709 1454.1 309.88 1457.66 Q308.075 1461.2 308.075 1468.33 Q308.075 1475.44 309.88 1479.01 Q311.709 1482.55 315.32 1482.55 Q318.954 1482.55 320.76 1479.01 Q322.588 1475.44 322.588 1468.33 Q322.588 1461.2 320.76 1457.66 Q318.954 1454.1 315.32 1454.1 M315.32 1450.39 Q321.13 1450.39 324.186 1455 Q327.264 1459.58 327.264 1468.33 Q327.264 1477.06 324.186 1481.67 Q321.13 1486.25 315.32 1486.25 Q309.51 1486.25 306.431 1481.67 Q303.376 1477.06 303.376 1468.33 Q303.376 1459.58 306.431 1455 Q309.51 1450.39 315.32 1450.39 Z" fill="#000000" fill-rule="nonzero" fill-opacity="1" /><path clip-path="url(#clip990)" d="M701.321 1481.64 L708.959 1481.64 L708.959 1455.28 L700.649 1456.95 L700.649 1452.69 L708.913 1451.02 L713.589 1451.02 L713.589 1481.64 L721.228 1481.64 L721.228 1485.58 L701.321 1485.58 L701.321 1481.64 Z" fill="#000000" fill-rule="nonzero" fill-opacity="1" /><path clip-path="url(#clip990)" d="M1101.21 1481.64 L1117.53 1481.64 L1117.53 1485.58 L1095.59 1485.58 L1095.59 1481.64 Q1098.25 1478.89 1102.83 1474.26 Q1107.44 1469.61 1108.62 1468.27 Q1110.86 1465.74 1111.74 1464.01 Q1112.65 1462.25 1112.65 1460.56 Q1112.65 1457.8 1110.7 1456.07 Q1108.78 1454.33 1105.68 1454.33 Q1103.48 1454.33 1101.02 1455.09 Q1098.59 1455.86 1095.82 1457.41 L1095.82 1452.69 Q1098.64 1451.55 1101.09 1450.97 Q1103.55 1450.39 1105.59 1450.39 Q1110.96 1450.39 1114.15 1453.08 Q1117.34 1455.77 1117.34 1460.26 Q1117.34 1462.39 1116.53 1464.31 Q1115.75 1466.2 1113.64 1468.8 Q1113.06 1469.47 1109.96 1472.69 Q1106.86 1475.88 1101.21 1481.64 Z" fill="#000000" fill-rule="nonzero" fill-opacity="1" /><path clip-path="url(#clip990)" d="M1506.42 1466.95 Q1509.78 1467.66 1511.65 1469.93 Q1513.55 1472.2 1513.55 1475.53 Q1513.55 1480.65 1510.03 1483.45 Q1506.52 1486.25 1500.03 1486.25 Q1497.86 1486.25 1495.54 1485.81 Q1493.25 1485.39 1490.8 1484.54 L1490.8 1480.02 Q1492.74 1481.16 1495.06 1481.74 Q1497.37 1482.32 1499.9 1482.32 Q1504.29 1482.32 1506.59 1480.58 Q1508.9 1478.84 1508.9 1475.53 Q1508.9 1472.48 1506.75 1470.77 Q1504.62 1469.03 1500.8 1469.03 L1496.77 1469.03 L1496.77 1465.19 L1500.98 1465.19 Q1504.43 1465.19 1506.26 1463.82 Q1508.09 1462.43 1508.09 1459.84 Q1508.09 1457.18 1506.19 1455.77 Q1504.32 1454.33 1500.8 1454.33 Q1498.88 1454.33 1496.68 1454.75 Q1494.48 1455.16 1491.84 1456.04 L1491.84 1451.88 Q1494.5 1451.14 1496.82 1450.77 Q1499.16 1450.39 1501.22 1450.39 Q1506.54 1450.39 1509.64 1452.83 Q1512.74 1455.23 1512.74 1459.35 Q1512.74 1462.22 1511.1 1464.21 Q1509.46 1466.18 1506.42 1466.95 Z" fill="#000000" fill-rule="nonzero" fill-opacity="1" /><path clip-path="url(#clip990)" d="M1900.8 1455.09 L1889 1473.54 L1900.8 1473.54 L1900.8 1455.09 M1899.58 1451.02 L1905.46 1451.02 L1905.46 1473.54 L1910.39 1473.54 L1910.39 1477.43 L1905.46 1477.43 L1905.46 1485.58 L1900.8 1485.58 L1900.8 1477.43 L1885.2 1477.43 L1885.2 1472.92 L1899.58 1451.02 Z" fill="#000000" fill-rule="nonzero" fill-opacity="1" /><path clip-path="url(#clip990)" d="M2283.69 1451.02 L2302.05 1451.02 L2302.05 1454.96 L2287.97 1454.96 L2287.97 1463.43 Q2288.99 1463.08 2290.01 1462.92 Q2291.03 1462.73 2292.05 1462.73 Q2297.83 1462.73 2301.21 1465.9 Q2304.59 1469.08 2304.59 1474.49 Q2304.59 1480.07 2301.12 1483.17 Q2297.65 1486.25 2291.33 1486.25 Q2289.15 1486.25 2286.89 1485.88 Q2284.64 1485.51 2282.23 1484.77 L2282.23 1480.07 Q2284.32 1481.2 2286.54 1481.76 Q2288.76 1482.32 2291.24 1482.32 Q2295.24 1482.32 2297.58 1480.21 Q2299.92 1478.1 2299.92 1474.49 Q2299.92 1470.88 2297.58 1468.77 Q2295.24 1466.67 2291.24 1466.67 Q2289.36 1466.67 2287.49 1467.08 Q2285.64 1467.5 2283.69 1468.38 L2283.69 1451.02 Z" fill="#000000" fill-rule="nonzero" fill-opacity="1" /><path clip-path="url(#clip990)" d="M1202.18 1522.27 L1202.18 1532.4 L1214.24 1532.4 L1214.24 1536.95 L1202.18 1536.95 L1202.18 1556.3 Q1202.18 1560.66 1203.36 1561.9 Q1204.57 1563.14 1208.23 1563.14 L1214.24 1563.14 L1214.24 1568.04 L1208.23 1568.04 Q1201.45 1568.04 1198.87 1565.53 Q1196.29 1562.98 1196.29 1556.3 L1196.29 1536.95 L1192 1536.95 L1192 1532.4 L1196.29 1532.4 L1196.29 1522.27 L1202.18 1522.27 Z" fill="#000000" fill-rule="nonzero" fill-opacity="1" /><path clip-path="url(#clip990)" d="M1221.95 1532.4 L1227.8 1532.4 L1227.8 1568.04 L1221.95 1568.04 L1221.95 1532.4 M1221.95 1518.52 L1227.8 1518.52 L1227.8 1525.93 L1221.95 1525.93 L1221.95 1518.52 Z" fill="#000000" fill-rule="nonzero" fill-opacity="1" /><path clip-path="url(#clip990)" d="M1267.81 1539.24 Q1270.01 1535.29 1273.06 1533.41 Q1276.12 1531.54 1280.26 1531.54 Q1285.83 1531.54 1288.85 1535.45 Q1291.87 1539.33 1291.87 1546.53 L1291.87 1568.04 L1285.99 1568.04 L1285.99 1546.72 Q1285.99 1541.59 1284.17 1539.11 Q1282.36 1536.63 1278.63 1536.63 Q1274.08 1536.63 1271.44 1539.65 Q1268.8 1542.68 1268.8 1547.9 L1268.8 1568.04 L1262.91 1568.04 L1262.91 1546.72 Q1262.91 1541.56 1261.1 1539.11 Q1259.28 1536.63 1255.49 1536.63 Q1251.01 1536.63 1248.36 1539.68 Q1245.72 1542.71 1245.72 1547.9 L1245.72 1568.04 L1239.83 1568.04 L1239.83 1532.4 L1245.72 1532.4 L1245.72 1537.93 Q1247.73 1534.66 1250.53 1533.1 Q1253.33 1531.54 1257.18 1531.54 Q1261.06 1531.54 1263.77 1533.51 Q1266.51 1535.48 1267.81 1539.24 Z" fill="#000000" fill-rule="nonzero" fill-opacity="1" /><path clip-path="url(#clip990)" d="M1334.05 1548.76 L1334.05 1551.62 L1307.12 1551.62 Q1307.5 1557.67 1310.75 1560.85 Q1314.03 1564 1319.85 1564 Q1323.22 1564 1326.38 1563.17 Q1329.56 1562.35 1332.68 1560.69 L1332.68 1566.23 Q1329.53 1567.57 1326.22 1568.27 Q1322.91 1568.97 1319.5 1568.97 Q1310.97 1568.97 1305.97 1564 Q1301.01 1559.04 1301.01 1550.57 Q1301.01 1541.82 1305.72 1536.69 Q1310.46 1531.54 1318.48 1531.54 Q1325.68 1531.54 1329.85 1536.18 Q1334.05 1540.8 1334.05 1548.76 M1328.19 1547.04 Q1328.13 1542.23 1325.48 1539.37 Q1322.87 1536.5 1318.55 1536.5 Q1313.64 1536.5 1310.68 1539.27 Q1307.76 1542.04 1307.31 1547.07 L1328.19 1547.04 Z" fill="#000000" fill-rule="nonzero" fill-opacity="1" /><path clip-path="url(#clip990)" d="M1357.73 1518.58 Q1353.46 1525.9 1351.39 1533.06 Q1349.32 1540.23 1349.32 1547.58 Q1349.32 1554.93 1351.39 1562.16 Q1353.49 1569.35 1357.73 1576.64 L1352.63 1576.64 Q1347.86 1569.16 1345.47 1561.93 Q1343.12 1554.71 1343.12 1547.58 Q1343.12 1540.48 1345.47 1533.29 Q1347.83 1526.09 1352.63 1518.58 L1357.73 1518.58 Z" fill="#000000" fill-rule="nonzero" fill-opacity="1" /><path clip-path="url(#clip990)" d="M1391.82 1533.45 L1391.82 1538.98 Q1389.33 1537.71 1386.66 1537.07 Q1383.99 1536.44 1381.12 1536.44 Q1376.76 1536.44 1374.56 1537.77 Q1372.4 1539.11 1372.4 1541.79 Q1372.4 1543.82 1373.96 1545 Q1375.52 1546.15 1380.23 1547.2 L1382.24 1547.64 Q1388.47 1548.98 1391.08 1551.43 Q1393.73 1553.85 1393.73 1558.21 Q1393.73 1563.17 1389.78 1566.07 Q1385.86 1568.97 1378.99 1568.97 Q1376.12 1568.97 1373 1568.39 Q1369.92 1567.85 1366.48 1566.74 L1366.48 1560.69 Q1369.73 1562.38 1372.88 1563.24 Q1376.03 1564.07 1379.12 1564.07 Q1383.25 1564.07 1385.48 1562.66 Q1387.71 1561.23 1387.71 1558.65 Q1387.71 1556.27 1386.09 1554.99 Q1384.49 1553.72 1379.05 1552.54 L1377.02 1552.07 Q1371.57 1550.92 1369.15 1548.56 Q1366.73 1546.18 1366.73 1542.04 Q1366.73 1537.01 1370.3 1534.27 Q1373.86 1531.54 1380.42 1531.54 Q1383.67 1531.54 1386.53 1532.01 Q1389.4 1532.49 1391.82 1533.45 Z" fill="#000000" fill-rule="nonzero" fill-opacity="1" /><path clip-path="url(#clip990)" d="M1402.13 1518.58 L1407.22 1518.58 Q1411.99 1526.09 1414.35 1533.29 Q1416.74 1540.48 1416.74 1547.58 Q1416.74 1554.71 1414.35 1561.93 Q1411.99 1569.16 1407.22 1576.64 L1402.13 1576.64 Q1406.36 1569.35 1408.43 1562.16 Q1410.53 1554.93 1410.53 1547.58 Q1410.53 1540.23 1408.43 1533.06 Q1406.36 1525.9 1402.13 1518.58 Z" fill="#000000" fill-rule="nonzero" fill-opacity="1" /><polyline clip-path="url(#clip990)" style="stroke:#000000; stroke-linecap:round; stroke-linejoin:round; stroke-width:4; stroke-opacity:1; fill:none" points="255.977,1423.18 255.977,123.472 "/>
<polyline clip-path="url(#clip990)" style="stroke:#000000; stroke-linecap:round; stroke-linejoin:round; stroke-width:4; stroke-opacity:1; fill:none" points="255.977,1226.83 274.875,1226.83 "/>
<polyline clip-path="url(#clip990)" style="stroke:#000000; stroke-linecap:round; stroke-linejoin:round; stroke-width:4; stroke-opacity:1; fill:none" points="255.977,996.248 274.875,996.248 "/>
<polyline clip-path="url(#clip990)" style="stroke:#000000; stroke-linecap:round; stroke-linejoin:round; stroke-width:4; stroke-opacity:1; fill:none" points="255.977,765.668 274.875,765.668 "/>
<polyline clip-path="url(#clip990)" style="stroke:#000000; stroke-linecap:round; stroke-linejoin:round; stroke-width:4; stroke-opacity:1; fill:none" points="255.977,535.087 274.875,535.087 "/>
<polyline clip-path="url(#clip990)" style="stroke:#000000; stroke-linecap:round; stroke-linejoin:round; stroke-width:4; stroke-opacity:1; fill:none" points="255.977,304.507 274.875,304.507 "/>
<path clip-path="url(#clip990)" d="M114.631 1227.28 L144.306 1227.28 L144.306 1231.21 L114.631 1231.21 L114.631 1227.28 Z" fill="#000000" fill-rule="nonzero" fill-opacity="1" /><path clip-path="url(#clip990)" d="M164.399 1212.63 Q160.788 1212.63 158.959 1216.19 Q157.153 1219.73 157.153 1226.86 Q157.153 1233.97 158.959 1237.53 Q160.788 1241.08 164.399 1241.08 Q168.033 1241.08 169.839 1237.53 Q171.667 1233.97 171.667 1226.86 Q171.667 1219.73 169.839 1216.19 Q168.033 1212.63 164.399 1212.63 M164.399 1208.92 Q170.209 1208.92 173.264 1213.53 Q176.343 1218.11 176.343 1226.86 Q176.343 1235.59 173.264 1240.2 Q170.209 1244.78 164.399 1244.78 Q158.589 1244.78 155.51 1240.2 Q152.454 1235.59 152.454 1226.86 Q152.454 1218.11 155.51 1213.53 Q158.589 1208.92 164.399 1208.92 Z" fill="#000000" fill-rule="nonzero" fill-opacity="1" /><path clip-path="url(#clip990)" d="M184.561 1238.23 L189.445 1238.23 L189.445 1244.11 L184.561 1244.11 L184.561 1238.23 Z" fill="#000000" fill-rule="nonzero" fill-opacity="1" /><path clip-path="url(#clip990)" d="M203.658 1240.17 L219.977 1240.17 L219.977 1244.11 L198.033 1244.11 L198.033 1240.17 Q200.695 1237.42 205.278 1232.79 Q209.885 1228.14 211.065 1226.79 Q213.311 1224.27 214.19 1222.53 Q215.093 1220.77 215.093 1219.09 Q215.093 1216.33 213.149 1214.59 Q211.227 1212.86 208.125 1212.86 Q205.926 1212.86 203.473 1213.62 Q201.042 1214.39 198.264 1215.94 L198.264 1211.21 Q201.088 1210.08 203.542 1209.5 Q205.996 1208.92 208.033 1208.92 Q213.403 1208.92 216.598 1211.61 Q219.792 1214.29 219.792 1218.78 Q219.792 1220.91 218.982 1222.84 Q218.195 1224.73 216.088 1227.33 Q215.51 1228 212.408 1231.21 Q209.306 1234.41 203.658 1240.17 Z" fill="#000000" fill-rule="nonzero" fill-opacity="1" /><path clip-path="url(#clip990)" d="M114.26 996.699 L143.936 996.699 L143.936 1000.63 L114.26 1000.63 L114.26 996.699 Z" fill="#000000" fill-rule="nonzero" fill-opacity="1" /><path clip-path="url(#clip990)" d="M164.028 982.047 Q160.417 982.047 158.589 985.611 Q156.783 989.153 156.783 996.283 Q156.783 1003.39 158.589 1006.95 Q160.417 1010.5 164.028 1010.5 Q167.663 1010.5 169.468 1006.95 Q171.297 1003.39 171.297 996.283 Q171.297 989.153 169.468 985.611 Q167.663 982.047 164.028 982.047 M164.028 978.343 Q169.839 978.343 172.894 982.949 Q175.973 987.533 175.973 996.283 Q175.973 1005.01 172.894 1009.62 Q169.839 1014.2 164.028 1014.2 Q158.218 1014.2 155.14 1009.62 Q152.084 1005.01 152.084 996.283 Q152.084 987.533 155.14 982.949 Q158.218 978.343 164.028 978.343 Z" fill="#000000" fill-rule="nonzero" fill-opacity="1" /><path clip-path="url(#clip990)" d="M184.19 1007.65 L189.075 1007.65 L189.075 1013.53 L184.19 1013.53 L184.19 1007.65 Z" fill="#000000" fill-rule="nonzero" fill-opacity="1" /><path clip-path="url(#clip990)" d="M200.07 1009.59 L207.709 1009.59 L207.709 983.227 L199.399 984.894 L199.399 980.634 L207.662 978.968 L212.338 978.968 L212.338 1009.59 L219.977 1009.59 L219.977 1013.53 L200.07 1013.53 L200.07 1009.59 Z" fill="#000000" fill-rule="nonzero" fill-opacity="1" /><path clip-path="url(#clip990)" d="M162.802 751.466 Q159.19 751.466 157.362 755.031 Q155.556 758.573 155.556 765.702 Q155.556 772.809 157.362 776.373 Q159.19 779.915 162.802 779.915 Q166.436 779.915 168.241 776.373 Q170.07 772.809 170.07 765.702 Q170.07 758.573 168.241 755.031 Q166.436 751.466 162.802 751.466 M162.802 747.763 Q168.612 747.763 171.667 752.369 Q174.746 756.952 174.746 765.702 Q174.746 774.429 171.667 779.036 Q168.612 783.619 162.802 783.619 Q156.991 783.619 153.913 779.036 Q150.857 774.429 150.857 765.702 Q150.857 756.952 153.913 752.369 Q156.991 747.763 162.802 747.763 Z" fill="#000000" fill-rule="nonzero" fill-opacity="1" /><path clip-path="url(#clip990)" d="M182.963 777.068 L187.848 777.068 L187.848 782.948 L182.963 782.948 L182.963 777.068 Z" fill="#000000" fill-rule="nonzero" fill-opacity="1" /><path clip-path="url(#clip990)" d="M208.033 751.466 Q204.422 751.466 202.593 755.031 Q200.787 758.573 200.787 765.702 Q200.787 772.809 202.593 776.373 Q204.422 779.915 208.033 779.915 Q211.667 779.915 213.473 776.373 Q215.301 772.809 215.301 765.702 Q215.301 758.573 213.473 755.031 Q211.667 751.466 208.033 751.466 M208.033 747.763 Q213.843 747.763 216.898 752.369 Q219.977 756.952 219.977 765.702 Q219.977 774.429 216.898 779.036 Q213.843 783.619 208.033 783.619 Q202.223 783.619 199.144 779.036 Q196.088 774.429 196.088 765.702 Q196.088 756.952 199.144 752.369 Q202.223 747.763 208.033 747.763 Z" fill="#000000" fill-rule="nonzero" fill-opacity="1" /><path clip-path="url(#clip990)" d="M164.028 520.886 Q160.417 520.886 158.589 524.451 Q156.783 527.992 156.783 535.122 Q156.783 542.228 158.589 545.793 Q160.417 549.335 164.028 549.335 Q167.663 549.335 169.468 545.793 Q171.297 542.228 171.297 535.122 Q171.297 527.992 169.468 524.451 Q167.663 520.886 164.028 520.886 M164.028 517.182 Q169.839 517.182 172.894 521.789 Q175.973 526.372 175.973 535.122 Q175.973 543.849 172.894 548.455 Q169.839 553.039 164.028 553.039 Q158.218 553.039 155.14 548.455 Q152.084 543.849 152.084 535.122 Q152.084 526.372 155.14 521.789 Q158.218 517.182 164.028 517.182 Z" fill="#000000" fill-rule="nonzero" fill-opacity="1" /><path clip-path="url(#clip990)" d="M184.19 546.488 L189.075 546.488 L189.075 552.367 L184.19 552.367 L184.19 546.488 Z" fill="#000000" fill-rule="nonzero" fill-opacity="1" /><path clip-path="url(#clip990)" d="M200.07 548.432 L207.709 548.432 L207.709 522.066 L199.399 523.733 L199.399 519.474 L207.662 517.807 L212.338 517.807 L212.338 548.432 L219.977 548.432 L219.977 552.367 L200.07 552.367 L200.07 548.432 Z" fill="#000000" fill-rule="nonzero" fill-opacity="1" /><path clip-path="url(#clip990)" d="M164.399 290.306 Q160.788 290.306 158.959 293.87 Q157.153 297.412 157.153 304.542 Q157.153 311.648 158.959 315.213 Q160.788 318.755 164.399 318.755 Q168.033 318.755 169.839 315.213 Q171.667 311.648 171.667 304.542 Q171.667 297.412 169.839 293.87 Q168.033 290.306 164.399 290.306 M164.399 286.602 Q170.209 286.602 173.264 291.208 Q176.343 295.792 176.343 304.542 Q176.343 313.268 173.264 317.875 Q170.209 322.458 164.399 322.458 Q158.589 322.458 155.51 317.875 Q152.454 313.268 152.454 304.542 Q152.454 295.792 155.51 291.208 Q158.589 286.602 164.399 286.602 Z" fill="#000000" fill-rule="nonzero" fill-opacity="1" /><path clip-path="url(#clip990)" d="M184.561 315.907 L189.445 315.907 L189.445 321.787 L184.561 321.787 L184.561 315.907 Z" fill="#000000" fill-rule="nonzero" fill-opacity="1" /><path clip-path="url(#clip990)" d="M203.658 317.852 L219.977 317.852 L219.977 321.787 L198.033 321.787 L198.033 317.852 Q200.695 315.097 205.278 310.468 Q209.885 305.815 211.065 304.472 Q213.311 301.949 214.19 300.213 Q215.093 298.454 215.093 296.764 Q215.093 294.009 213.149 292.273 Q211.227 290.537 208.125 290.537 Q205.926 290.537 203.473 291.301 Q201.042 292.065 198.264 293.616 L198.264 288.894 Q201.088 287.759 203.542 287.181 Q205.996 286.602 208.033 286.602 Q213.403 286.602 216.598 289.287 Q219.792 291.972 219.792 296.463 Q219.792 298.593 218.982 300.514 Q218.195 302.412 216.088 305.005 Q215.51 305.676 212.408 308.893 Q209.306 312.088 203.658 317.852 Z" fill="#000000" fill-rule="nonzero" fill-opacity="1" /><path clip-path="url(#clip990)" d="M22.818 985.224 L46.4666 993.945 L46.4666 976.472 L22.818 985.224 M16.4842 988.853 L16.4842 981.564 L64.0042 963.454 L64.0042 970.138 L51.8138 974.466 L51.8138 995.887 L64.0042 1000.22 L64.0042 1007 L16.4842 988.853 Z" fill="#000000" fill-rule="nonzero" fill-opacity="1" /><path clip-path="url(#clip990)" d="M18.2347 952.123 L28.3562 952.123 L28.3562 940.06 L32.9077 940.06 L32.9077 952.123 L52.2594 952.123 Q56.6199 952.123 57.8613 950.945 Q59.1026 949.736 59.1026 946.075 L59.1026 940.06 L64.0042 940.06 L64.0042 946.075 Q64.0042 952.855 61.4897 955.433 Q58.9434 958.011 52.2594 958.011 L32.9077 958.011 L32.9077 962.308 L28.3562 962.308 L28.3562 958.011 L18.2347 958.011 L18.2347 952.123 Z" fill="#000000" fill-rule="nonzero" fill-opacity="1" /><path clip-path="url(#clip990)" d="M18.2347 926.564 L28.3562 926.564 L28.3562 914.501 L32.9077 914.501 L32.9077 926.564 L52.2594 926.564 Q56.6199 926.564 57.8613 925.387 Q59.1026 924.177 59.1026 920.517 L59.1026 914.501 L64.0042 914.501 L64.0042 920.517 Q64.0042 927.297 61.4897 929.875 Q58.9434 932.453 52.2594 932.453 L32.9077 932.453 L32.9077 936.75 L28.3562 936.75 L28.3562 932.453 L18.2347 932.453 L18.2347 926.564 Z" fill="#000000" fill-rule="nonzero" fill-opacity="1" /><path clip-path="url(#clip990)" d="M28.3562 906.799 L28.3562 900.942 L64.0042 900.942 L64.0042 906.799 L28.3562 906.799 M14.479 906.799 L14.479 900.942 L21.895 900.942 L21.895 906.799 L14.479 906.799 Z" fill="#000000" fill-rule="nonzero" fill-opacity="1" /><path clip-path="url(#clip990)" d="M18.2347 882.896 L28.3562 882.896 L28.3562 870.833 L32.9077 870.833 L32.9077 882.896 L52.2594 882.896 Q56.6199 882.896 57.8613 881.718 Q59.1026 880.509 59.1026 876.848 L59.1026 870.833 L64.0042 870.833 L64.0042 876.848 Q64.0042 883.628 61.4897 886.206 Q58.9434 888.784 52.2594 888.784 L32.9077 888.784 L32.9077 893.081 L28.3562 893.081 L28.3562 888.784 L18.2347 888.784 L18.2347 882.896 Z" fill="#000000" fill-rule="nonzero" fill-opacity="1" /><path clip-path="url(#clip990)" d="M49.9359 863.735 L28.3562 863.735 L28.3562 857.878 L49.7131 857.878 Q54.7739 857.878 57.3202 855.905 Q59.8346 853.932 59.8346 849.985 Q59.8346 845.243 56.8109 842.505 Q53.7872 839.736 48.5673 839.736 L28.3562 839.736 L28.3562 833.88 L64.0042 833.88 L64.0042 839.736 L58.5296 839.736 Q61.7762 841.869 63.3676 844.701 Q64.9272 847.502 64.9272 851.226 Q64.9272 857.369 61.1078 860.552 Q57.2883 863.735 49.9359 863.735 M27.4968 848.998 L27.4968 848.998 Z" fill="#000000" fill-rule="nonzero" fill-opacity="1" /><path clip-path="url(#clip990)" d="M33.7671 798.359 L14.479 798.359 L14.479 792.503 L64.0042 792.503 L64.0042 798.359 L58.657 798.359 Q61.8398 800.205 63.3994 803.038 Q64.9272 805.839 64.9272 809.786 Q64.9272 816.247 59.771 820.321 Q54.6147 824.363 46.212 824.363 Q37.8093 824.363 32.6531 820.321 Q27.4968 816.247 27.4968 809.786 Q27.4968 805.839 29.0564 803.038 Q30.5842 800.205 33.7671 798.359 M46.212 818.316 Q52.6732 818.316 56.3653 815.674 Q60.0256 813 60.0256 808.353 Q60.0256 803.706 56.3653 801.033 Q52.6732 798.359 46.212 798.359 Q39.7508 798.359 36.0905 801.033 Q32.3984 803.706 32.3984 808.353 Q32.3984 813 36.0905 815.674 Q39.7508 818.316 46.212 818.316 Z" fill="#000000" fill-rule="nonzero" fill-opacity="1" /><path clip-path="url(#clip990)" d="M44.7161 749.948 L47.5806 749.948 L47.5806 776.875 Q53.6281 776.493 56.8109 773.246 Q59.9619 769.968 59.9619 764.143 Q59.9619 760.77 59.1344 757.619 Q58.3069 754.436 56.6518 751.317 L62.1899 751.317 Q63.5267 754.468 64.227 757.778 Q64.9272 761.088 64.9272 764.494 Q64.9272 773.024 59.9619 778.021 Q54.9967 782.986 46.5303 782.986 Q37.7774 782.986 32.6531 778.275 Q27.4968 773.533 27.4968 765.512 Q27.4968 758.319 32.1438 754.149 Q36.7589 749.948 44.7161 749.948 M42.9973 755.804 Q38.1912 755.868 35.3266 758.51 Q32.4621 761.12 32.4621 765.448 Q32.4621 770.35 35.2312 773.31 Q38.0002 776.238 43.0292 776.684 L42.9973 755.804 Z" fill="#000000" fill-rule="nonzero" fill-opacity="1" /><path clip-path="url(#clip990)" d="M14.5426 705.547 Q21.8632 709.812 29.0246 711.881 Q36.186 713.95 43.5384 713.95 Q50.8908 713.95 58.1159 711.881 Q65.3091 709.78 72.5979 705.547 L72.5979 710.64 Q65.1182 715.414 57.8931 717.801 Q50.668 720.156 43.5384 720.156 Q36.4406 720.156 29.2474 717.801 Q22.0542 715.446 14.5426 710.64 L14.5426 705.547 Z" fill="#000000" fill-rule="nonzero" fill-opacity="1" /><path clip-path="url(#clip990)" d="M16.4842 693.93 L16.4842 684.349 L48.8219 672.223 L16.4842 660.032 L16.4842 650.452 L64.0042 650.452 L64.0042 656.722 L22.277 656.722 L54.8694 668.976 L54.8694 675.437 L22.277 687.691 L64.0042 687.691 L64.0042 693.93 L16.4842 693.93 Z" fill="#000000" fill-rule="nonzero" fill-opacity="1" /><path clip-path="url(#clip990)" d="M41.7242 615.154 Q42.4244 613.085 44.7161 611.144 Q47.0077 609.17 51.0181 607.197 L64.0042 600.672 L64.0042 607.579 L51.8138 613.658 Q47.0395 616.013 45.48 618.241 Q43.9204 620.438 43.9204 624.257 L43.9204 631.259 L64.0042 631.259 L64.0042 637.689 L16.4842 637.689 L16.4842 623.175 Q16.4842 615.027 19.8898 611.016 Q23.2955 607.006 30.1704 607.006 Q34.6582 607.006 37.6183 609.107 Q40.5784 611.176 41.7242 615.154 M21.7677 631.259 L38.6368 631.259 L38.6368 623.175 Q38.6368 618.528 36.5043 616.173 Q34.34 613.785 30.1704 613.785 Q26.0009 613.785 23.9002 616.173 Q21.7677 618.528 21.7677 623.175 L21.7677 631.259 Z" fill="#000000" fill-rule="nonzero" fill-opacity="1" /><path clip-path="url(#clip990)" d="M21.7677 585.967 L39.6235 585.967 L39.6235 577.883 Q39.6235 573.395 37.3 570.944 Q34.9765 568.493 30.6797 568.493 Q26.4147 568.493 24.0912 570.944 Q21.7677 573.395 21.7677 577.883 L21.7677 585.967 M16.4842 592.397 L16.4842 577.883 Q16.4842 569.894 20.1126 565.82 Q23.7092 561.714 30.6797 561.714 Q37.7138 561.714 41.3104 565.82 Q44.907 569.894 44.907 577.883 L44.907 585.967 L64.0042 585.967 L64.0042 592.397 L16.4842 592.397 Z" fill="#000000" fill-rule="nonzero" fill-opacity="1" /><path clip-path="url(#clip990)" d="M14.5426 554.266 L14.5426 549.174 Q22.0542 544.399 29.2474 542.044 Q36.4406 539.657 43.5384 539.657 Q50.668 539.657 57.8931 542.044 Q65.1182 544.399 72.5979 549.174 L72.5979 554.266 Q65.3091 550.033 58.1159 547.964 Q50.8908 545.863 43.5384 545.863 Q36.186 545.863 29.0246 547.964 Q21.8632 550.033 14.5426 554.266 Z" fill="#000000" fill-rule="nonzero" fill-opacity="1" /><path clip-path="url(#clip990)" d="M727.498 20.1573 L716.398 50.2555 L738.638 50.2555 L727.498 20.1573 M722.879 12.096 L732.156 12.096 L755.206 72.576 L746.699 72.576 L741.19 57.061 L713.927 57.061 L708.418 72.576 L699.789 72.576 L722.879 12.096 Z" fill="#000000" fill-rule="nonzero" fill-opacity="1" /><path clip-path="url(#clip990)" d="M769.627 14.324 L769.627 27.2059 L784.98 27.2059 L784.98 32.9987 L769.627 32.9987 L769.627 57.6282 Q769.627 63.1779 771.126 64.7578 Q772.665 66.3376 777.324 66.3376 L784.98 66.3376 L784.98 72.576 L777.324 72.576 Q768.695 72.576 765.414 69.3758 Q762.133 66.1351 762.133 57.6282 L762.133 32.9987 L756.664 32.9987 L756.664 27.2059 L762.133 27.2059 L762.133 14.324 L769.627 14.324 Z" fill="#000000" fill-rule="nonzero" fill-opacity="1" /><path clip-path="url(#clip990)" d="M802.156 14.324 L802.156 27.2059 L817.509 27.2059 L817.509 32.9987 L802.156 32.9987 L802.156 57.6282 Q802.156 63.1779 803.655 64.7578 Q805.194 66.3376 809.852 66.3376 L817.509 66.3376 L817.509 72.576 L809.852 72.576 Q801.224 72.576 797.943 69.3758 Q794.662 66.1351 794.662 57.6282 L794.662 32.9987 L789.193 32.9987 L789.193 27.2059 L794.662 27.2059 L794.662 14.324 L802.156 14.324 Z" fill="#000000" fill-rule="nonzero" fill-opacity="1" /><path clip-path="url(#clip990)" d="M827.312 27.2059 L834.765 27.2059 L834.765 72.576 L827.312 72.576 L827.312 27.2059 M827.312 9.54393 L834.765 9.54393 L834.765 18.9825 L827.312 18.9825 L827.312 9.54393 Z" fill="#000000" fill-rule="nonzero" fill-opacity="1" /><path clip-path="url(#clip990)" d="M857.734 14.324 L857.734 27.2059 L873.087 27.2059 L873.087 32.9987 L857.734 32.9987 L857.734 57.6282 Q857.734 63.1779 859.233 64.7578 Q860.772 66.3376 865.431 66.3376 L873.087 66.3376 L873.087 72.576 L865.431 72.576 Q856.802 72.576 853.521 69.3758 Q850.24 66.1351 850.24 57.6282 L850.24 32.9987 L844.771 32.9987 L844.771 27.2059 L850.24 27.2059 L850.24 14.324 L857.734 14.324 Z" fill="#000000" fill-rule="nonzero" fill-opacity="1" /><path clip-path="url(#clip990)" d="M882.121 54.671 L882.121 27.2059 L889.574 27.2059 L889.574 54.3874 Q889.574 60.8284 892.086 64.0691 Q894.597 67.2693 899.62 67.2693 Q905.656 67.2693 909.14 63.421 Q912.664 59.5726 912.664 52.9291 L912.664 27.2059 L920.118 27.2059 L920.118 72.576 L912.664 72.576 L912.664 65.6084 Q909.95 69.7404 906.345 71.7658 Q902.78 73.7508 898.041 73.7508 Q890.222 73.7508 886.171 68.8897 Q882.121 64.0286 882.121 54.671 M900.876 26.1121 L900.876 26.1121 Z" fill="#000000" fill-rule="nonzero" fill-opacity="1" /><path clip-path="url(#clip990)" d="M965.326 34.0924 L965.326 9.54393 L972.78 9.54393 L972.78 72.576 L965.326 72.576 L965.326 65.7705 Q962.977 69.8214 959.371 71.8063 Q955.806 73.7508 950.783 73.7508 Q942.56 73.7508 937.375 67.1883 Q932.23 60.6258 932.23 49.9314 Q932.23 39.2371 937.375 32.6746 Q942.56 26.1121 950.783 26.1121 Q955.806 26.1121 959.371 28.0971 Q962.977 30.0415 965.326 34.0924 M939.927 49.9314 Q939.927 58.1548 943.289 62.8538 Q946.692 67.5124 952.606 67.5124 Q958.521 67.5124 961.923 62.8538 Q965.326 58.1548 965.326 49.9314 Q965.326 41.7081 961.923 37.0496 Q958.521 32.3505 952.606 32.3505 Q946.692 32.3505 943.289 37.0496 Q939.927 41.7081 939.927 49.9314 Z" fill="#000000" fill-rule="nonzero" fill-opacity="1" /><path clip-path="url(#clip990)" d="M1026.94 48.0275 L1026.94 51.6733 L992.67 51.6733 Q993.156 59.3701 997.288 63.421 Q1001.46 67.4314 1008.87 67.4314 Q1013.17 67.4314 1017.18 66.3781 Q1021.23 65.3249 1025.2 63.2184 L1025.2 70.267 Q1021.19 71.9684 1016.98 72.8596 Q1012.76 73.7508 1008.43 73.7508 Q997.571 73.7508 991.211 67.4314 Q984.892 61.1119 984.892 50.3365 Q984.892 39.1965 990.887 32.6746 Q996.923 26.1121 1007.13 26.1121 Q1016.29 26.1121 1021.59 32.0264 Q1026.94 37.9003 1026.94 48.0275 M1019.49 45.84 Q1019.41 39.7232 1016.04 36.0774 Q1012.72 32.4315 1007.21 32.4315 Q1000.97 32.4315 997.207 35.9558 Q993.48 39.4801 992.913 45.8805 L1019.49 45.84 Z" fill="#000000" fill-rule="nonzero" fill-opacity="1" /><path clip-path="url(#clip990)" d="M1083.45 9.62495 Q1078.02 18.942 1075.39 28.0566 Q1072.76 37.1711 1072.76 46.5287 Q1072.76 55.8863 1075.39 65.0818 Q1078.06 74.2369 1083.45 83.5134 L1076.97 83.5134 Q1070.89 73.9938 1067.85 64.7983 Q1064.86 55.6027 1064.86 46.5287 Q1064.86 37.4952 1067.85 28.3401 Q1070.85 19.1851 1076.97 9.62495 L1083.45 9.62495 Z" fill="#000000" fill-rule="nonzero" fill-opacity="1" /><path clip-path="url(#clip990)" d="M1094.14 46.5287 L1115.98 46.5287 L1115.98 53.1722 L1094.14 53.1722 L1094.14 46.5287 Z" fill="#000000" fill-rule="nonzero" fill-opacity="1" /><path clip-path="url(#clip990)" d="M1124.08 46.5287 L1145.92 46.5287 L1145.92 53.1722 L1124.08 53.1722 L1124.08 46.5287 Z" fill="#000000" fill-rule="nonzero" fill-opacity="1" /><path clip-path="url(#clip990)" d="M1184.16 27.2059 L1191.61 27.2059 L1191.61 72.576 L1184.16 72.576 L1184.16 27.2059 M1184.16 9.54393 L1191.61 9.54393 L1191.61 18.9825 L1184.16 18.9825 L1184.16 9.54393 Z" fill="#000000" fill-rule="nonzero" fill-opacity="1" /><path clip-path="url(#clip990)" d="M1236.13 28.5427 L1236.13 35.5912 Q1232.97 33.9709 1229.57 33.1607 Q1226.16 32.3505 1222.52 32.3505 Q1216.97 32.3505 1214.17 34.0519 Q1211.42 35.7533 1211.42 39.156 Q1211.42 41.7486 1213.4 43.2475 Q1215.39 44.7058 1221.38 46.0426 L1223.94 46.6097 Q1231.88 48.3111 1235.2 51.4303 Q1238.56 54.509 1238.56 60.0587 Q1238.56 66.3781 1233.54 70.0644 Q1228.55 73.7508 1219.8 73.7508 Q1216.16 73.7508 1212.19 73.0216 Q1208.26 72.3329 1203.88 70.9151 L1203.88 63.2184 Q1208.02 65.3654 1212.03 66.4591 Q1216.04 67.5124 1219.97 67.5124 Q1225.23 67.5124 1228.07 65.73 Q1230.9 63.9071 1230.9 60.6258 Q1230.9 57.5877 1228.84 55.9673 Q1226.81 54.3469 1219.88 52.8481 L1217.29 52.2405 Q1210.37 50.7821 1207.29 47.7845 Q1204.21 44.7463 1204.21 39.4801 Q1204.21 33.0797 1208.74 29.5959 Q1213.28 26.1121 1221.63 26.1121 Q1225.76 26.1121 1229.4 26.7198 Q1233.05 27.3274 1236.13 28.5427 Z" fill="#000000" fill-rule="nonzero" fill-opacity="1" /><path clip-path="url(#clip990)" d="M1276.8 27.2059 L1284.25 27.2059 L1284.25 72.576 L1276.8 72.576 L1276.8 27.2059 M1276.8 9.54393 L1284.25 9.54393 L1284.25 18.9825 L1276.8 18.9825 L1276.8 9.54393 Z" fill="#000000" fill-rule="nonzero" fill-opacity="1" /><path clip-path="url(#clip990)" d="M1300.17 12.096 L1308.36 12.096 L1308.36 65.6895 L1337.81 65.6895 L1337.81 72.576 L1300.17 72.576 L1300.17 12.096 Z" fill="#000000" fill-rule="nonzero" fill-opacity="1" /><path clip-path="url(#clip990)" d="M1370.94 17.6457 Q1362.03 17.6457 1356.76 24.2892 Q1351.54 30.9327 1351.54 42.3968 Q1351.54 53.8203 1356.76 60.4638 Q1362.03 67.1073 1370.94 67.1073 Q1379.86 67.1073 1385.04 60.4638 Q1390.27 53.8203 1390.27 42.3968 Q1390.27 30.9327 1385.04 24.2892 Q1379.86 17.6457 1370.94 17.6457 M1382.41 71.4823 L1393.18 83.2704 L1383.3 83.2704 L1374.35 73.5887 Q1373.01 73.6697 1372.28 73.7103 Q1371.59 73.7508 1370.94 73.7508 Q1358.18 73.7508 1350.53 65.2439 Q1342.91 56.6965 1342.91 42.3968 Q1342.91 28.0566 1350.53 19.5497 Q1358.18 11.0023 1370.94 11.0023 Q1383.66 11.0023 1391.28 19.5497 Q1398.89 28.0566 1398.89 42.3968 Q1398.89 52.9291 1394.64 60.4233 Q1390.43 67.9175 1382.41 71.4823 Z" fill="#000000" fill-rule="nonzero" fill-opacity="1" /><path clip-path="url(#clip990)" d="M1440.38 44.2197 Q1443.01 45.1109 1445.48 48.0275 Q1447.99 50.9442 1450.5 56.0483 L1458.81 72.576 L1450.02 72.576 L1442.28 57.061 Q1439.28 50.9847 1436.45 48.9997 Q1433.65 47.0148 1428.79 47.0148 L1419.88 47.0148 L1419.88 72.576 L1411.7 72.576 L1411.7 12.096 L1430.17 12.096 Q1440.54 12.096 1445.64 16.4305 Q1450.75 20.7649 1450.75 29.5149 Q1450.75 35.2267 1448.07 38.994 Q1445.44 42.7613 1440.38 44.2197 M1419.88 18.8205 L1419.88 40.2903 L1430.17 40.2903 Q1436.08 40.2903 1439.08 37.5762 Q1442.12 34.8216 1442.12 29.5149 Q1442.12 24.2082 1439.08 21.5346 Q1436.08 18.8205 1430.17 18.8205 L1419.88 18.8205 Z" fill="#000000" fill-rule="nonzero" fill-opacity="1" /><path clip-path="url(#clip990)" d="M1521.68 34.1734 Q1520.42 33.4443 1518.92 33.1202 Q1517.46 32.7556 1515.68 32.7556 Q1509.36 32.7556 1505.96 36.8875 Q1502.6 40.9789 1502.6 48.6757 L1502.6 72.576 L1495.1 72.576 L1495.1 27.2059 L1502.6 27.2059 L1502.6 34.2544 Q1504.95 30.1225 1508.71 28.1376 Q1512.48 26.1121 1517.87 26.1121 Q1518.64 26.1121 1519.57 26.2337 Q1520.5 26.3147 1521.64 26.5172 L1521.68 34.1734 Z" fill="#000000" fill-rule="nonzero" fill-opacity="1" /><path clip-path="url(#clip990)" d="M1566.48 48.0275 L1566.48 51.6733 L1532.21 51.6733 Q1532.7 59.3701 1536.83 63.421 Q1541 67.4314 1548.41 67.4314 Q1552.71 67.4314 1556.72 66.3781 Q1560.77 65.3249 1564.74 63.2184 L1564.74 70.267 Q1560.73 71.9684 1556.52 72.8596 Q1552.3 73.7508 1547.97 73.7508 Q1537.11 73.7508 1530.75 67.4314 Q1524.43 61.1119 1524.43 50.3365 Q1524.43 39.1965 1530.43 32.6746 Q1536.46 26.1121 1546.67 26.1121 Q1555.83 26.1121 1561.13 32.0264 Q1566.48 37.9003 1566.48 48.0275 M1559.03 45.84 Q1558.95 39.7232 1555.58 36.0774 Q1552.26 32.4315 1546.75 32.4315 Q1540.51 32.4315 1536.75 35.9558 Q1533.02 39.4801 1532.45 45.8805 L1559.03 45.84 Z" fill="#000000" fill-rule="nonzero" fill-opacity="1" /><path clip-path="url(#clip990)" d="M1601.68 9.54393 L1601.68 15.7418 L1594.55 15.7418 Q1590.54 15.7418 1588.96 17.3622 Q1587.42 18.9825 1587.42 23.1955 L1587.42 27.2059 L1599.7 27.2059 L1599.7 32.9987 L1587.42 32.9987 L1587.42 72.576 L1579.93 72.576 L1579.93 32.9987 L1572.8 32.9987 L1572.8 27.2059 L1579.93 27.2059 L1579.93 24.0462 Q1579.93 16.471 1583.45 13.0277 Q1586.98 9.54393 1594.63 9.54393 L1601.68 9.54393 Z" fill="#000000" fill-rule="nonzero" fill-opacity="1" /><path clip-path="url(#clip990)" d="M1646.73 48.0275 L1646.73 51.6733 L1612.46 51.6733 Q1612.94 59.3701 1617.08 63.421 Q1621.25 67.4314 1628.66 67.4314 Q1632.96 67.4314 1636.97 66.3781 Q1641.02 65.3249 1644.99 63.2184 L1644.99 70.267 Q1640.98 71.9684 1636.76 72.8596 Q1632.55 73.7508 1628.22 73.7508 Q1617.36 73.7508 1611 67.4314 Q1604.68 61.1119 1604.68 50.3365 Q1604.68 39.1965 1610.68 32.6746 Q1616.71 26.1121 1626.92 26.1121 Q1636.07 26.1121 1641.38 32.0264 Q1646.73 37.9003 1646.73 48.0275 M1639.28 45.84 Q1639.19 39.7232 1635.83 36.0774 Q1632.51 32.4315 1627 32.4315 Q1620.76 32.4315 1617 35.9558 Q1613.27 39.4801 1612.7 45.8805 L1639.28 45.84 Z" fill="#000000" fill-rule="nonzero" fill-opacity="1" /><path clip-path="url(#clip990)" d="M1685.25 34.1734 Q1684 33.4443 1682.5 33.1202 Q1681.04 32.7556 1679.26 32.7556 Q1672.94 32.7556 1669.54 36.8875 Q1666.17 40.9789 1666.17 48.6757 L1666.17 72.576 L1658.68 72.576 L1658.68 27.2059 L1666.17 27.2059 L1666.17 34.2544 Q1668.52 30.1225 1672.29 28.1376 Q1676.06 26.1121 1681.44 26.1121 Q1682.21 26.1121 1683.15 26.2337 Q1684.08 26.3147 1685.21 26.5172 L1685.25 34.1734 Z" fill="#000000" fill-rule="nonzero" fill-opacity="1" /><path clip-path="url(#clip990)" d="M1730.06 48.0275 L1730.06 51.6733 L1695.79 51.6733 Q1696.27 59.3701 1700.4 63.421 Q1704.58 67.4314 1711.99 67.4314 Q1716.28 67.4314 1720.29 66.3781 Q1724.34 65.3249 1728.31 63.2184 L1728.31 70.267 Q1724.3 71.9684 1720.09 72.8596 Q1715.88 73.7508 1711.54 73.7508 Q1700.69 73.7508 1694.33 67.4314 Q1688.01 61.1119 1688.01 50.3365 Q1688.01 39.1965 1694 32.6746 Q1700.04 26.1121 1710.25 26.1121 Q1719.4 26.1121 1724.71 32.0264 Q1730.06 37.9003 1730.06 48.0275 M1722.6 45.84 Q1722.52 39.7232 1719.16 36.0774 Q1715.84 32.4315 1710.33 32.4315 Q1704.09 32.4315 1700.32 35.9558 Q1696.6 39.4801 1696.03 45.8805 L1722.6 45.84 Z" fill="#000000" fill-rule="nonzero" fill-opacity="1" /><path clip-path="url(#clip990)" d="M1780 45.1919 L1780 72.576 L1772.55 72.576 L1772.55 45.4349 Q1772.55 38.994 1770.04 35.7938 Q1767.53 32.5936 1762.5 32.5936 Q1756.47 32.5936 1752.98 36.4419 Q1749.5 40.2903 1749.5 46.9338 L1749.5 72.576 L1742.01 72.576 L1742.01 27.2059 L1749.5 27.2059 L1749.5 34.2544 Q1752.17 30.163 1755.78 28.1376 Q1759.42 26.1121 1764.16 26.1121 Q1771.98 26.1121 1775.99 30.9732 Q1780 35.7938 1780 45.1919 Z" fill="#000000" fill-rule="nonzero" fill-opacity="1" /><path clip-path="url(#clip990)" d="M1827.52 28.9478 L1827.52 35.9153 Q1824.36 34.1734 1821.16 33.3227 Q1818 32.4315 1814.76 32.4315 Q1807.51 32.4315 1803.5 37.0496 Q1799.49 41.6271 1799.49 49.9314 Q1799.49 58.2358 1803.5 62.8538 Q1807.51 67.4314 1814.76 67.4314 Q1818 67.4314 1821.16 66.5807 Q1824.36 65.6895 1827.52 63.9476 L1827.52 70.8341 Q1824.4 72.2924 1821.04 73.0216 Q1817.72 73.7508 1813.95 73.7508 Q1803.7 73.7508 1797.67 67.3098 Q1791.63 60.8689 1791.63 49.9314 Q1791.63 38.832 1797.71 32.472 Q1803.82 26.1121 1814.44 26.1121 Q1817.88 26.1121 1821.16 26.8413 Q1824.44 27.5299 1827.52 28.9478 Z" fill="#000000" fill-rule="nonzero" fill-opacity="1" /><path clip-path="url(#clip990)" d="M1879.29 48.0275 L1879.29 51.6733 L1845.02 51.6733 Q1845.51 59.3701 1849.64 63.421 Q1853.81 67.4314 1861.22 67.4314 Q1865.52 67.4314 1869.53 66.3781 Q1873.58 65.3249 1877.55 63.2184 L1877.55 70.267 Q1873.54 71.9684 1869.33 72.8596 Q1865.11 73.7508 1860.78 73.7508 Q1849.92 73.7508 1843.56 67.4314 Q1837.24 61.1119 1837.24 50.3365 Q1837.24 39.1965 1843.24 32.6746 Q1849.27 26.1121 1859.48 26.1121 Q1868.64 26.1121 1873.94 32.0264 Q1879.29 37.9003 1879.29 48.0275 M1871.84 45.84 Q1871.76 39.7232 1868.39 36.0774 Q1865.07 32.4315 1859.56 32.4315 Q1853.32 32.4315 1849.56 35.9558 Q1845.83 39.4801 1845.26 45.8805 L1871.84 45.84 Z" fill="#000000" fill-rule="nonzero" fill-opacity="1" /><path clip-path="url(#clip990)" d="M1890.35 9.62495 L1896.83 9.62495 Q1902.91 19.1851 1905.91 28.3401 Q1908.94 37.4952 1908.94 46.5287 Q1908.94 55.6027 1905.91 64.7983 Q1902.91 73.9938 1896.83 83.5134 L1890.35 83.5134 Q1895.74 74.2369 1898.37 65.0818 Q1901.04 55.8863 1901.04 46.5287 Q1901.04 37.1711 1898.37 28.0566 Q1895.74 18.942 1890.35 9.62495 Z" fill="#000000" fill-rule="nonzero" fill-opacity="1" /><polyline clip-path="url(#clip992)" style="stroke:#ff0000; stroke-linecap:round; stroke-linejoin:round; stroke-width:4; stroke-opacity:1; fill:none" stroke-dasharray="16, 10" points="315.32,765.668 335.101,827.516 354.882,946.553 374.663,1053.09 394.444,1143.46 414.225,1217.29 434.006,1275.34 453.786,1318.99 473.567,1349.94 493.348,1369.89 513.129,1380.37 532.91,1382.64 552.691,1377.61 572.472,1365.9 592.253,1347.81 612.034,1323.43 631.815,1292.7 651.596,1255.54 671.377,1211.93 691.158,1162.02 710.939,1106.17 730.72,1044.97 750.5,979.242 770.281,909.957 790.062,838.187 809.843,765.058 829.624,691.718 849.405,619.34 869.186,549.111 888.967,482.205 908.748,419.737 928.529,362.698 948.31,311.902 968.091,267.965 987.872,231.319 1007.65,202.275 1027.43,181.092 1047.21,168.057 1067,163.537 1086.78,167.992 1106.56,181.931 1126.34,205.816 1146.12,239.916 1165.9,284.149 1185.68,337.952 1205.46,400.251 1225.24,469.541 1245.02,544.101 1264.8,622.233 1284.59,702.455 1304.37,783.547 1324.15,864.448 1343.93,944.061 1363.71,1021.08 1383.49,1093.95 1403.27,1160.94 1423.05,1220.4 1442.83,1270.96 1462.61,1311.73 1482.39,1342.33 1502.18,1362.8 1521.96,1373.49 1541.74,1374.86 1561.52,1367.39 1581.3,1351.49 1601.08,1327.49 1620.86,1295.65 1640.64,1256.26 1660.42,1209.67 1680.2,1156.42 1699.99,1097.24 1719.77,1033.06 1739.55,964.971 1759.33,894.152 1779.11,821.83 1798.89,749.235 1818.67,677.597 1838.45,608.144 1858.23,542.093 1878.01,480.611 1897.79,424.745 1917.58,375.344 1937.36,332.995 1957.14,297.997 1976.92,270.372 1996.7,249.907 2016.48,236.217 2036.26,228.798 2056.04,227.068 2075.82,230.391 2095.6,238.083 2115.38,249.404 2135.17,263.558 2154.95,279.692 2174.73,296.911 2194.51,314.313 2214.29,331.03 2234.07,346.282 2253.85,359.428 2273.63,369.928 2293.41,374.635 "/>
<polyline clip-path="url(#clip992)" style="stroke:#008000; stroke-linecap:round; stroke-linejoin:round; stroke-width:4; stroke-opacity:1; fill:none" stroke-dasharray="16, 10" points="315.32,765.668 335.101,780.338 354.882,809.189 374.663,836.758 394.444,862.503 414.225,886.356 434.006,908.333 453.786,928.558 473.567,947.238 493.348,964.644 513.129,981.075 532.91,996.841 552.691,1012.23 572.472,1027.5 592.253,1042.85 612.034,1058.41 631.815,1074.24 651.596,1090.28 671.377,1106.4 691.158,1122.36 710.939,1137.88 730.72,1152.63 750.5,1166.28 770.281,1178.53 790.062,1189.14 809.843,1197.9 829.624,1204.68 849.405,1209.4 869.186,1212.04 888.967,1212.65 908.748,1211.31 928.529,1208.19 948.31,1203.43 968.091,1197.22 987.872,1189.66 1007.65,1180.78 1027.43,1170.51 1047.21,1158.67 1067,1144.97 1086.78,1129.03 1106.56,1110.43 1126.34,1088.75 1146.12,1063.68 1165.9,1035.04 1185.68,1002.91 1205.46,967.594 1225.24,929.606 1245.02,889.591 1264.8,848.202 1284.59,806.02 1304.37,763.525 1324.15,721.137 1343.93,679.295 1363.71,638.519 1383.49,599.43 1403.27,562.693 1423.05,528.912 1442.83,498.52 1462.61,471.713 1482.39,448.431 1502.18,428.404 1521.96,411.219 1541.74,396.403 1561.52,383.495 1581.3,372.097 1601.08,361.912 1620.86,352.763 1640.64,344.594 1660.42,337.46 1680.2,331.498 1699.99,326.894 1719.77,323.844 1739.55,322.522 1759.33,323.054 1779.11,325.512 1798.89,329.909 1818.67,336.205 1838.45,344.302 1858.23,354.051 1878.01,365.244 1897.79,377.632 1917.58,390.937 1937.36,404.883 1957.14,419.222 1976.92,433.754 1996.7,448.335 2016.48,462.871 2036.26,477.311 2056.04,491.622 2075.82,505.77 2095.6,519.702 2115.38,533.331 2135.17,546.527 2154.95,559.119 2174.73,570.903 2194.51,581.658 2214.29,591.161 2234.07,599.209 2253.85,605.635 2273.63,610.289 2293.41,612.278 "/>
<polyline clip-path="url(#clip992)" style="stroke:#0000ff; stroke-linecap:round; stroke-linejoin:round; stroke-width:4; stroke-opacity:1; fill:none" stroke-dasharray="16, 10" points="315.32,765.668 335.101,767.522 354.882,772.207 374.663,778.279 394.444,784.85 414.225,791.372 434.006,797.517 453.786,803.089 473.567,807.966 493.348,812.051 513.129,815.247 532.91,817.441 552.691,818.496 572.472,818.25 592.253,816.525 612.034,813.137 631.815,807.922 651.596,800.752 671.377,791.563 691.158,780.374 710.939,767.293 730.72,752.517 750.5,736.318 770.281,719.015 790.062,700.958 809.843,682.502 829.624,664.003 849.405,645.817 869.186,628.29 888.967,611.755 908.748,596.515 928.529,582.817 948.31,570.834 968.091,560.652 987.872,552.263 1007.65,545.574 1027.43,540.423 1047.21,536.596 1067,533.849 1086.78,531.928 1106.56,530.592 1126.34,529.628 1146.12,528.872 1165.9,528.222 1185.68,527.643 1205.46,527.158 1225.24,526.83 1245.02,526.739 1264.8,526.954 1284.59,527.527 1304.37,528.485 1324.15,529.83 1343.93,531.538 1363.71,533.559 1383.49,535.815 1403.27,538.211 1423.05,540.658 1442.83,543.099 1462.61,545.538 1482.39,548.056 1502.18,550.812 1521.96,554.029 1541.74,557.976 1561.52,562.944 1581.3,569.223 1601.08,577.079 1620.86,586.727 1640.64,598.309 1660.42,611.877 1680.2,627.376 1699.99,644.649 1719.77,663.445 1739.55,683.446 1759.33,704.292 1779.11,725.601 1798.89,746.988 1818.67,768.068 1838.45,788.457 1858.23,807.781 1878.01,825.688 1897.79,841.878 1917.58,856.128 1937.36,868.312 1957.14,878.411 1976.92,886.503 1996.7,892.745 2016.48,897.35 2036.26,900.551 2056.04,902.586 2075.82,903.679 2095.6,904.023 2115.38,903.784 2135.17,903.094 2154.95,902.06 2174.73,900.767 2194.51,899.286 2214.29,897.688 2234.07,896.052 2253.85,894.487 2273.63,893.163 2293.41,892.417 "/>
<polyline clip-path="url(#clip992)" style="stroke:#ff0000; stroke-linecap:round; stroke-linejoin:round; stroke-width:4; stroke-opacity:1; fill:none" points="315.32,765.668 335.101,811.029 354.882,912.742 374.663,1023.24 394.444,1124.27 414.225,1209.04 434.006,1275.7 453.786,1324.8 473.567,1358.1 493.348,1377.86 513.129,1386.4 532.91,1385.75 552.691,1377.57 572.472,1363.03 592.253,1342.85 612.034,1317.36 631.815,1286.59 651.596,1250.4 671.377,1208.62 691.158,1161.15 710.939,1108.06 730.72,1049.67 750.5,986.543 770.281,919.457 790.062,849.358 809.843,777.304 829.624,704.428 849.405,631.925 869.186,561.029 888.967,492.995 908.748,429.044 928.529,370.293 948.31,317.691 968.091,271.973 987.872,233.658 1007.65,203.09 1027.43,180.512 1047.21,166.145 1067,160.256 1086.78,163.19 1106.56,175.348 1126.34,197.124 1146.12,228.785 1165.9,270.34 1185.68,321.412 1205.46,381.169 1225.24,448.357 1245.02,521.435 1264.8,598.794 1284.59,678.939 1304.37,760.59 1324.15,842.622 1343.93,923.909 1363.71,1003.14 1383.49,1078.72 1403.27,1148.82 1423.05,1211.58 1442.83,1265.37 1462.61,1309 1482.39,1341.88 1502.18,1363.97 1521.96,1375.67 1541.74,1377.61 1561.52,1370.51 1581.3,1355.04 1601.08,1331.72 1620.86,1300.95 1640.64,1263.05 1660.42,1218.33 1680.2,1167.17 1699.99,1110.14 1719.77,1047.95 1739.55,981.523 1759.33,911.914 1779.11,840.274 1798.89,767.806 1818.67,695.753 1838.45,625.385 1858.23,557.99 1878.01,494.834 1897.79,437.096 1917.58,385.771 1937.36,341.591 1957.14,304.962 1976.92,275.959 1996.7,254.36 2016.48,239.709 2036.26,231.397 2056.04,228.738 2075.82,231.013 2095.6,237.499 2115.38,247.463 2135.17,260.157 2154.95,274.805 2174.73,290.613 2194.51,306.791 2214.29,322.586 2234.07,337.313 2253.85,350.386 2273.63,361.293 2293.41,367.539 "/>
<polyline clip-path="url(#clip992)" style="stroke:#008000; stroke-linecap:round; stroke-linejoin:round; stroke-width:4; stroke-opacity:1; fill:none" points="315.32,765.668 335.101,779.095 354.882,806.752 374.663,834.415 394.444,860.18 414.225,883.906 434.006,905.697 453.786,925.725 473.567,944.214 493.348,961.421 513.129,977.633 532.91,993.145 552.691,1008.25 572.472,1023.21 592.253,1038.24 612.034,1053.52 631.815,1069.12 651.596,1085.02 671.377,1101.13 691.158,1117.24 710.939,1133.07 730.72,1148.3 750.5,1162.58 770.281,1175.58 790.062,1186.98 809.843,1196.54 829.624,1204.06 849.405,1209.43 869.186,1212.57 888.967,1213.52 908.748,1212.35 928.529,1209.23 948.31,1204.36 968.091,1197.93 987.872,1190.13 1007.65,1181.02 1027.43,1170.6 1047.21,1158.73 1067,1145.16 1086.78,1129.56 1106.56,1111.52 1126.34,1090.64 1146.12,1066.58 1165.9,1039.1 1185.68,1008.13 1205.46,973.862 1225.24,936.716 1245.02,897.295 1264.8,856.279 1284.59,814.31 1304.37,771.93 1324.15,729.604 1343.93,687.791 1363.71,647.016 1383.49,607.892 1403.27,571.067 1423.05,537.122 1442.83,506.467 1462.61,479.273 1482.39,455.466 1502.18,434.776 1521.96,416.804 1541.74,401.1 1561.52,387.233 1581.3,374.836 1601.08,363.637 1620.86,353.474 1640.64,344.302 1660.42,336.177 1680.2,329.233 1699.99,323.659 1719.77,319.658 1739.55,317.418 1759.33,317.089 1779.11,318.769 1798.89,322.501 1818.67,328.269 1838.45,335.998 1858.23,345.549 1878.01,356.723 1897.79,369.257 1917.58,382.852 1937.36,397.196 1957.14,412.001 1976.92,427.027 1996.7,442.098 2016.48,457.108 2036.26,472.002 2056.04,486.76 2075.82,501.366 2095.6,515.785 2115.38,529.939 2135.17,543.7 2154.95,556.886 2174.73,569.278 2194.51,580.632 2214.29,590.703 2234.07,599.26 2253.85,606.097 2273.63,611.022 2293.41,613.13 "/>
<polyline clip-path="url(#clip992)" style="stroke:#0000ff; stroke-linecap:round; stroke-linejoin:round; stroke-width:4; stroke-opacity:1; fill:none" points="315.32,765.668 335.101,768.084 354.882,773.767 374.663,780.818 394.444,788.318 414.225,795.621 434.006,802.308 453.786,808.141 473.567,813.003 493.348,816.847 513.129,819.658 532.91,821.422 552.691,822.1 572.472,821.622 592.253,819.881 612.034,816.742 631.815,812.055 651.596,805.675 671.377,797.489 691.158,787.439 710.939,775.542 730.72,761.901 750.5,746.703 770.281,730.205 790.062,712.713 809.843,694.566 829.624,676.118 849.405,657.74 869.186,639.806 888.967,622.689 908.748,606.741 928.529,592.272 948.31,579.516 968.091,568.614 987.872,559.596 1007.65,552.386 1027.43,546.812 1047.21,542.636 1067,539.581 1086.78,537.361 1106.56,535.707 1126.34,534.392 1146.12,533.249 1165.9,532.181 1185.68,531.173 1205.46,530.277 1225.24,529.59 1245.02,529.22 1264.8,529.249 1284.59,529.721 1304.37,530.639 1324.15,531.98 1343.93,533.694 1363.71,535.7 1383.49,537.884 1403.27,540.12 1423.05,542.296 1442.83,544.358 1462.61,546.339 1482.39,548.366 1502.18,550.641 1521.96,553.413 1541.74,556.949 1561.52,561.514 1581.3,567.356 1601.08,574.697 1620.86,583.729 1640.64,594.593 1660.42,607.371 1680.2,622.066 1699.99,638.594 1719.77,656.779 1739.55,676.364 1759.33,697.026 1779.11,718.401 1798.89,740.097 1818.67,761.703 1838.45,782.8 1858.23,802.968 1878.01,821.798 1897.79,838.925 1917.58,854.058 1937.36,867.013 1957.14,877.729 1976.92,886.272 1996.7,892.813 2016.48,897.599 2036.26,900.919 2056.04,903.06 2075.82,904.29 2095.6,904.831 2115.38,904.859 2135.17,904.504 2154.95,903.857 2174.73,902.983 2194.51,901.93 2214.29,900.743 2234.07,899.484 2253.85,898.247 2273.63,897.2 2293.41,896.605 "/>
<path clip-path="url(#clip990)" d="M325.87 374.156 L611.682 374.156 L611.682 166.796 L325.87 166.796  Z" fill="#ffffff" fill-rule="evenodd" fill-opacity="1"/>
<polyline clip-path="url(#clip990)" style="stroke:#000000; stroke-linecap:round; stroke-linejoin:round; stroke-width:4; stroke-opacity:1; fill:none" points="325.87,374.156 611.682,374.156 611.682,166.796 325.87,166.796 325.87,374.156 "/>
<polyline clip-path="url(#clip990)" style="stroke:#ff0000; stroke-linecap:round; stroke-linejoin:round; stroke-width:4; stroke-opacity:1; fill:none" points="349.167,218.636 488.953,218.636 "/>
<path clip-path="url(#clip990)" d="M516.533 232.027 L516.533 245.777 L512.25 245.777 L512.25 209.99 L516.533 209.99 L516.533 213.925 Q517.875 211.61 519.912 210.499 Q521.972 209.365 524.82 209.365 Q529.542 209.365 532.482 213.115 Q535.444 216.865 535.444 222.976 Q535.444 229.087 532.482 232.837 Q529.542 236.587 524.82 236.587 Q521.972 236.587 519.912 235.476 Q517.875 234.342 516.533 232.027 M531.023 222.976 Q531.023 218.277 529.079 215.615 Q527.157 212.93 523.778 212.93 Q520.398 212.93 518.454 215.615 Q516.533 218.277 516.533 222.976 Q516.533 227.675 518.454 230.36 Q520.398 233.022 523.778 233.022 Q527.157 233.022 529.079 230.36 Q531.023 227.675 531.023 222.976 Z" fill="#000000" fill-rule="nonzero" fill-opacity="1" /><path clip-path="url(#clip990)" d="M562.204 243.786 L562.204 247.096 L537.574 247.096 L537.574 243.786 L562.204 243.786 Z" fill="#000000" fill-rule="nonzero" fill-opacity="1" /><path clip-path="url(#clip990)" d="M587.759 209.99 L578.384 222.606 L588.245 235.916 L583.222 235.916 L575.676 225.731 L568.129 235.916 L563.106 235.916 L573.176 222.351 L563.963 209.99 L568.986 209.99 L575.861 219.226 L582.736 209.99 L587.759 209.99 Z" fill="#000000" fill-rule="nonzero" fill-opacity="1" /><polyline clip-path="url(#clip990)" style="stroke:#008000; stroke-linecap:round; stroke-linejoin:round; stroke-width:4; stroke-opacity:1; fill:none" points="349.167,270.476 488.953,270.476 "/>
<path clip-path="url(#clip990)" d="M516.533 283.867 L516.533 297.617 L512.25 297.617 L512.25 261.83 L516.533 261.83 L516.533 265.765 Q517.875 263.45 519.912 262.339 Q521.972 261.205 524.82 261.205 Q529.542 261.205 532.482 264.955 Q535.444 268.705 535.444 274.816 Q535.444 280.927 532.482 284.677 Q529.542 288.427 524.82 288.427 Q521.972 288.427 519.912 287.316 Q517.875 286.182 516.533 283.867 M531.023 274.816 Q531.023 270.117 529.079 267.455 Q527.157 264.77 523.778 264.77 Q520.398 264.77 518.454 267.455 Q516.533 270.117 516.533 274.816 Q516.533 279.515 518.454 282.2 Q520.398 284.862 523.778 284.862 Q527.157 284.862 529.079 282.2 Q531.023 279.515 531.023 274.816 Z" fill="#000000" fill-rule="nonzero" fill-opacity="1" /><path clip-path="url(#clip990)" d="M562.204 295.626 L562.204 298.936 L537.574 298.936 L537.574 295.626 L562.204 295.626 Z" fill="#000000" fill-rule="nonzero" fill-opacity="1" /><path clip-path="url(#clip990)" d="M576.995 290.163 Q575.19 294.793 573.477 296.205 Q571.764 297.617 568.893 297.617 L565.491 297.617 L565.491 294.052 L567.991 294.052 Q569.75 294.052 570.722 293.219 Q571.694 292.385 572.875 289.283 L573.639 287.339 L563.153 261.83 L567.667 261.83 L575.768 282.108 L583.87 261.83 L588.384 261.83 L576.995 290.163 Z" fill="#000000" fill-rule="nonzero" fill-opacity="1" /><polyline clip-path="url(#clip990)" style="stroke:#0000ff; stroke-linecap:round; stroke-linejoin:round; stroke-width:4; stroke-opacity:1; fill:none" points="349.167,322.316 488.953,322.316 "/>
<path clip-path="url(#clip990)" d="M516.533 335.707 L516.533 349.457 L512.25 349.457 L512.25 313.67 L516.533 313.67 L516.533 317.605 Q517.875 315.29 519.912 314.179 Q521.972 313.045 524.82 313.045 Q529.542 313.045 532.482 316.795 Q535.444 320.545 535.444 326.656 Q535.444 332.767 532.482 336.517 Q529.542 340.267 524.82 340.267 Q521.972 340.267 519.912 339.156 Q517.875 338.022 516.533 335.707 M531.023 326.656 Q531.023 321.957 529.079 319.295 Q527.157 316.61 523.778 316.61 Q520.398 316.61 518.454 319.295 Q516.533 321.957 516.533 326.656 Q516.533 331.355 518.454 334.04 Q520.398 336.702 523.778 336.702 Q527.157 336.702 529.079 334.04 Q531.023 331.355 531.023 326.656 Z" fill="#000000" fill-rule="nonzero" fill-opacity="1" /><path clip-path="url(#clip990)" d="M562.204 347.466 L562.204 350.776 L537.574 350.776 L537.574 347.466 L562.204 347.466 Z" fill="#000000" fill-rule="nonzero" fill-opacity="1" /><path clip-path="url(#clip990)" d="M564.356 313.67 L584.588 313.67 L584.588 317.559 L568.569 336.193 L584.588 336.193 L584.588 339.596 L563.778 339.596 L563.778 335.707 L579.796 317.073 L564.356 317.073 L564.356 313.67 Z" fill="#000000" fill-rule="nonzero" fill-opacity="1" /></svg>
