<?xml version="1.0" encoding="utf-8"?>
<svg xmlns="http://www.w3.org/2000/svg" xmlns:xlink="http://www.w3.org/1999/xlink" width="600" height="400" viewBox="0 0 2400 1600">
<defs>
  <clipPath id="clip210">
    <rect x="0" y="0" width="2400" height="1600"/>
  </clipPath>
</defs>
<path clip-path="url(#clip210)" d="M0 1600 L2400 1600 L2400 0 L0 0  Z" fill="#ffffff" fill-rule="evenodd" fill-opacity="1"/>
<defs>
  <clipPath id="clip211">
    <rect x="480" y="0" width="1681" height="1600"/>
  </clipPath>
</defs>
<path clip-path="url(#clip210)" d="M219.033 1423.18 L2352.76 1423.18 L2352.76 123.472 L219.033 123.472  Z" fill="#ffffff" fill-rule="evenodd" fill-opacity="1"/>
<defs>
  <clipPath id="clip212">
    <rect x="219" y="123" width="2135" height="1301"/>
  </clipPath>
</defs>
<polyline clip-path="url(#clip212)" style="stroke:#000000; stroke-linecap:round; stroke-linejoin:round; stroke-width:2; stroke-opacity:0.1; fill:none" points="279.421,1423.18 279.421,123.472 "/>
<polyline clip-path="url(#clip212)" style="stroke:#000000; stroke-linecap:round; stroke-linejoin:round; stroke-width:2; stroke-opacity:0.1; fill:none" points="682.011,1423.18 682.011,123.472 "/>
<polyline clip-path="url(#clip212)" style="stroke:#000000; stroke-linecap:round; stroke-linejoin:round; stroke-width:2; stroke-opacity:0.1; fill:none" points="1084.6,1423.18 1084.6,123.472 "/>
<polyline clip-path="url(#clip212)" style="stroke:#000000; stroke-linecap:round; stroke-linejoin:round; stroke-width:2; stroke-opacity:0.1; fill:none" points="1487.19,1423.18 1487.19,123.472 "/>
<polyline clip-path="url(#clip212)" style="stroke:#000000; stroke-linecap:round; stroke-linejoin:round; stroke-width:2; stroke-opacity:0.1; fill:none" points="1889.78,1423.18 1889.78,123.472 "/>
<polyline clip-path="url(#clip212)" style="stroke:#000000; stroke-linecap:round; stroke-linejoin:round; stroke-width:2; stroke-opacity:0.1; fill:none" points="2292.37,1423.18 2292.37,123.472 "/>
<polyline clip-path="url(#clip212)" style="stroke:#000000; stroke-linecap:round; stroke-linejoin:round; stroke-width:2; stroke-opacity:0.1; fill:none" points="219.033,1274.93 2352.76,1274.93 "/>
<polyline clip-path="url(#clip212)" style="stroke:#000000; stroke-linecap:round; stroke-linejoin:round; stroke-width:2; stroke-opacity:0.1; fill:none" points="219.033,996.26 2352.76,996.26 "/>
<polyline clip-path="url(#clip212)" style="stroke:#000000; stroke-linecap:round; stroke-linejoin:round; stroke-width:2; stroke-opacity:0.1; fill:none" points="219.033,717.592 2352.76,717.592 "/>
<polyline clip-path="url(#clip212)" style="stroke:#000000; stroke-linecap:round; stroke-linejoin:round; stroke-width:2; stroke-opacity:0.1; fill:none" points="219.033,438.924 2352.76,438.924 "/>
<polyline clip-path="url(#clip212)" style="stroke:#000000; stroke-linecap:round; stroke-linejoin:round; stroke-width:2; stroke-opacity:0.1; fill:none" points="219.033,160.256 2352.76,160.256 "/>
<polyline clip-path="url(#clip210)" style="stroke:#000000; stroke-linecap:round; stroke-linejoin:round; stroke-width:4; stroke-opacity:1; fill:none" points="219.033,1423.18 2352.76,1423.18 "/>
<polyline clip-path="url(#clip210)" style="stroke:#000000; stroke-linecap:round; stroke-linejoin:round; stroke-width:4; stroke-opacity:1; fill:none" points="279.421,1423.18 279.421,1404.28 "/>
<polyline clip-path="url(#clip210)" style="stroke:#000000; stroke-linecap:round; stroke-linejoin:round; stroke-width:4; stroke-opacity:1; fill:none" points="682.011,1423.18 682.011,1404.28 "/>
<polyline clip-path="url(#clip210)" style="stroke:#000000; stroke-linecap:round; stroke-linejoin:round; stroke-width:4; stroke-opacity:1; fill:none" points="1084.6,1423.18 1084.6,1404.28 "/>
<polyline clip-path="url(#clip210)" style="stroke:#000000; stroke-linecap:round; stroke-linejoin:round; stroke-width:4; stroke-opacity:1; fill:none" points="1487.19,1423.18 1487.19,1404.28 "/>
<polyline clip-path="url(#clip210)" style="stroke:#000000; stroke-linecap:round; stroke-linejoin:round; stroke-width:4; stroke-opacity:1; fill:none" points="1889.78,1423.18 1889.78,1404.28 "/>
<polyline clip-path="url(#clip210)" style="stroke:#000000; stroke-linecap:round; stroke-linejoin:round; stroke-width:4; stroke-opacity:1; fill:none" points="2292.37,1423.18 2292.37,1404.28 "/>
<path clip-path="url(#clip210)" d="M279.421 1454.1 Q275.81 1454.1 273.982 1457.66 Q272.176 1461.2 272.176 1468.33 Q272.176 1475.44 273.982 1479.01 Q275.81 1482.55 279.421 1482.55 Q283.056 1482.55 284.861 1479.01 Q286.69 1475.44 286.69 1468.33 Q286.69 1461.2 284.861 1457.66 Q283.056 1454.1 279.421 1454.1 M279.421 1450.39 Q285.231 1450.39 288.287 1455 Q291.366 1459.58 291.366 1468.33 Q291.366 1477.06 288.287 1481.67 Q285.231 1486.25 279.421 1486.25 Q273.611 1486.25 270.532 1481.67 Q267.477 1477.06 267.477 1468.33 Q267.477 1459.58 270.532 1455 Q273.611 1450.39 279.421 1450.39 Z" fill="#000000" fill-rule="nonzero" fill-opacity="1" /><path clip-path="url(#clip210)" d="M672.393 1481.64 L680.031 1481.64 L680.031 1455.28 L671.721 1456.95 L671.721 1452.69 L679.985 1451.02 L684.661 1451.02 L684.661 1481.64 L692.3 1481.64 L692.3 1485.58 L672.393 1485.58 L672.393 1481.64 Z" fill="#000000" fill-rule="nonzero" fill-opacity="1" /><path clip-path="url(#clip210)" d="M1079.25 1481.64 L1095.57 1481.64 L1095.57 1485.58 L1073.63 1485.58 L1073.63 1481.64 Q1076.29 1478.89 1080.87 1474.26 Q1085.48 1469.61 1086.66 1468.27 Q1088.91 1465.74 1089.78 1464.01 Q1090.69 1462.25 1090.69 1460.56 Q1090.69 1457.8 1088.74 1456.07 Q1086.82 1454.33 1083.72 1454.33 Q1081.52 1454.33 1079.07 1455.09 Q1076.64 1455.86 1073.86 1457.41 L1073.86 1452.69 Q1076.68 1451.55 1079.14 1450.97 Q1081.59 1450.39 1083.63 1450.39 Q1089 1450.39 1092.19 1453.08 Q1095.39 1455.77 1095.39 1460.26 Q1095.39 1462.39 1094.58 1464.31 Q1093.79 1466.2 1091.68 1468.8 Q1091.1 1469.47 1088 1472.69 Q1084.9 1475.88 1079.25 1481.64 Z" fill="#000000" fill-rule="nonzero" fill-opacity="1" /><path clip-path="url(#clip210)" d="M1491.44 1466.95 Q1494.79 1467.66 1496.67 1469.93 Q1498.57 1472.2 1498.57 1475.53 Q1498.57 1480.65 1495.05 1483.45 Q1491.53 1486.25 1485.05 1486.25 Q1482.87 1486.25 1480.56 1485.81 Q1478.27 1485.39 1475.81 1484.54 L1475.81 1480.02 Q1477.76 1481.16 1480.07 1481.74 Q1482.39 1482.32 1484.91 1482.32 Q1489.31 1482.32 1491.6 1480.58 Q1493.91 1478.84 1493.91 1475.53 Q1493.91 1472.48 1491.76 1470.77 Q1489.63 1469.03 1485.81 1469.03 L1481.78 1469.03 L1481.78 1465.19 L1486 1465.19 Q1489.45 1465.19 1491.27 1463.82 Q1493.1 1462.43 1493.1 1459.84 Q1493.1 1457.18 1491.21 1455.77 Q1489.33 1454.33 1485.81 1454.33 Q1483.89 1454.33 1481.69 1454.75 Q1479.49 1455.16 1476.85 1456.04 L1476.85 1451.88 Q1479.52 1451.14 1481.83 1450.77 Q1484.17 1450.39 1486.23 1450.39 Q1491.55 1450.39 1494.65 1452.83 Q1497.76 1455.23 1497.76 1459.35 Q1497.76 1462.22 1496.11 1464.21 Q1494.47 1466.18 1491.44 1466.95 Z" fill="#000000" fill-rule="nonzero" fill-opacity="1" /><path clip-path="url(#clip210)" d="M1892.79 1455.09 L1880.98 1473.54 L1892.79 1473.54 L1892.79 1455.09 M1891.56 1451.02 L1897.44 1451.02 L1897.44 1473.54 L1902.37 1473.54 L1902.37 1477.43 L1897.44 1477.43 L1897.44 1485.58 L1892.79 1485.58 L1892.79 1477.43 L1877.19 1477.43 L1877.19 1472.92 L1891.56 1451.02 Z" fill="#000000" fill-rule="nonzero" fill-opacity="1" /><path clip-path="url(#clip210)" d="M2282.65 1451.02 L2301 1451.02 L2301 1454.96 L2286.93 1454.96 L2286.93 1463.43 Q2287.95 1463.08 2288.96 1462.92 Q2289.98 1462.73 2291 1462.73 Q2296.79 1462.73 2300.17 1465.9 Q2303.55 1469.08 2303.55 1474.49 Q2303.55 1480.07 2300.08 1483.17 Q2296.6 1486.25 2290.28 1486.25 Q2288.11 1486.25 2285.84 1485.88 Q2283.59 1485.51 2281.19 1484.77 L2281.19 1480.07 Q2283.27 1481.2 2285.49 1481.76 Q2287.71 1482.32 2290.19 1482.32 Q2294.2 1482.32 2296.53 1480.21 Q2298.87 1478.1 2298.87 1474.49 Q2298.87 1470.88 2296.53 1468.77 Q2294.2 1466.67 2290.19 1466.67 Q2288.32 1466.67 2286.44 1467.08 Q2284.59 1467.5 2282.65 1468.38 L2282.65 1451.02 Z" fill="#000000" fill-rule="nonzero" fill-opacity="1" /><path clip-path="url(#clip210)" d="M1173.35 1522.27 L1173.35 1532.4 L1185.41 1532.4 L1185.41 1536.95 L1173.35 1536.95 L1173.35 1556.3 Q1173.35 1560.66 1174.53 1561.9 Q1175.74 1563.14 1179.4 1563.14 L1185.41 1563.14 L1185.41 1568.04 L1179.4 1568.04 Q1172.62 1568.04 1170.04 1565.53 Q1167.46 1562.98 1167.46 1556.3 L1167.46 1536.95 L1163.16 1536.95 L1163.16 1532.4 L1167.46 1532.4 L1167.46 1522.27 L1173.35 1522.27 Z" fill="#000000" fill-rule="nonzero" fill-opacity="1" /><path clip-path="url(#clip210)" d="M1193.11 1532.4 L1198.97 1532.4 L1198.97 1568.04 L1193.11 1568.04 L1193.11 1532.4 M1193.11 1518.52 L1198.97 1518.52 L1198.97 1525.93 L1193.11 1525.93 L1193.11 1518.52 Z" fill="#000000" fill-rule="nonzero" fill-opacity="1" /><path clip-path="url(#clip210)" d="M1238.98 1539.24 Q1241.18 1535.29 1244.23 1533.41 Q1247.29 1531.54 1251.42 1531.54 Q1256.99 1531.54 1260.02 1535.45 Q1263.04 1539.33 1263.04 1546.53 L1263.04 1568.04 L1257.15 1568.04 L1257.15 1546.72 Q1257.15 1541.59 1255.34 1539.11 Q1253.52 1536.63 1249.8 1536.63 Q1245.25 1536.63 1242.61 1539.65 Q1239.97 1542.68 1239.97 1547.9 L1239.97 1568.04 L1234.08 1568.04 L1234.08 1546.72 Q1234.08 1541.56 1232.26 1539.11 Q1230.45 1536.63 1226.66 1536.63 Q1222.17 1536.63 1219.53 1539.68 Q1216.89 1542.71 1216.89 1547.9 L1216.89 1568.04 L1211 1568.04 L1211 1532.4 L1216.89 1532.4 L1216.89 1537.93 Q1218.9 1534.66 1221.7 1533.1 Q1224.5 1531.54 1228.35 1531.54 Q1232.23 1531.54 1234.94 1533.51 Q1237.67 1535.48 1238.98 1539.24 Z" fill="#000000" fill-rule="nonzero" fill-opacity="1" /><path clip-path="url(#clip210)" d="M1305.21 1548.76 L1305.21 1551.62 L1278.29 1551.62 Q1278.67 1557.67 1281.92 1560.85 Q1285.19 1564 1291.02 1564 Q1294.39 1564 1297.54 1563.17 Q1300.73 1562.35 1303.85 1560.69 L1303.85 1566.23 Q1300.69 1567.57 1297.38 1568.27 Q1294.07 1568.97 1290.67 1568.97 Q1282.14 1568.97 1277.14 1564 Q1272.18 1559.04 1272.18 1550.57 Q1272.18 1541.82 1276.89 1536.69 Q1281.63 1531.54 1289.65 1531.54 Q1296.84 1531.54 1301.01 1536.18 Q1305.21 1540.8 1305.21 1548.76 M1299.36 1547.04 Q1299.29 1542.23 1296.65 1539.37 Q1294.04 1536.5 1289.71 1536.5 Q1284.81 1536.5 1281.85 1539.27 Q1278.92 1542.04 1278.48 1547.07 L1299.36 1547.04 Z" fill="#000000" fill-rule="nonzero" fill-opacity="1" /><path clip-path="url(#clip210)" d="M1349.62 1518.58 Q1345.35 1525.9 1343.28 1533.06 Q1341.21 1540.23 1341.21 1547.58 Q1341.21 1554.93 1343.28 1562.16 Q1345.38 1569.35 1349.62 1576.64 L1344.52 1576.64 Q1339.75 1569.16 1337.36 1561.93 Q1335.01 1554.71 1335.01 1547.58 Q1335.01 1540.48 1337.36 1533.29 Q1339.72 1526.09 1344.52 1518.58 L1349.62 1518.58 Z" fill="#000000" fill-rule="nonzero" fill-opacity="1" /><path clip-path="url(#clip210)" d="M1383.7 1533.45 L1383.7 1538.98 Q1381.22 1537.71 1378.55 1537.07 Q1375.87 1536.44 1373.01 1536.44 Q1368.65 1536.44 1366.45 1537.77 Q1364.29 1539.11 1364.29 1541.79 Q1364.29 1543.82 1365.85 1545 Q1367.41 1546.15 1372.12 1547.2 L1374.12 1547.64 Q1380.36 1548.98 1382.97 1551.43 Q1385.61 1553.85 1385.61 1558.21 Q1385.61 1563.17 1381.67 1566.07 Q1377.75 1568.97 1370.88 1568.97 Q1368.01 1568.97 1364.89 1568.39 Q1361.81 1567.85 1358.37 1566.74 L1358.37 1560.69 Q1361.61 1562.38 1364.77 1563.24 Q1367.92 1564.07 1371 1564.07 Q1375.14 1564.07 1377.37 1562.66 Q1379.6 1561.23 1379.6 1558.65 Q1379.6 1556.27 1377.97 1554.99 Q1376.38 1553.72 1370.94 1552.54 L1368.9 1552.07 Q1363.46 1550.92 1361.04 1548.56 Q1358.62 1546.18 1358.62 1542.04 Q1358.62 1537.01 1362.19 1534.27 Q1365.75 1531.54 1372.31 1531.54 Q1375.56 1531.54 1378.42 1532.01 Q1381.28 1532.49 1383.7 1533.45 Z" fill="#000000" fill-rule="nonzero" fill-opacity="1" /><path clip-path="url(#clip210)" d="M1394.02 1518.58 L1399.11 1518.58 Q1403.88 1526.09 1406.24 1533.29 Q1408.63 1540.48 1408.63 1547.58 Q1408.63 1554.71 1406.24 1561.93 Q1403.88 1569.16 1399.11 1576.64 L1394.02 1576.64 Q1398.25 1569.35 1400.32 1562.16 Q1402.42 1554.93 1402.42 1547.58 Q1402.42 1540.23 1400.32 1533.06 Q1398.25 1525.9 1394.02 1518.58 Z" fill="#000000" fill-rule="nonzero" fill-opacity="1" /><polyline clip-path="url(#clip210)" style="stroke:#000000; stroke-linecap:round; stroke-linejoin:round; stroke-width:4; stroke-opacity:1; fill:none" points="219.033,1423.18 219.033,123.472 "/>
<polyline clip-path="url(#clip210)" style="stroke:#000000; stroke-linecap:round; stroke-linejoin:round; stroke-width:4; stroke-opacity:1; fill:none" points="219.033,1274.93 237.931,1274.93 "/>
<polyline clip-path="url(#clip210)" style="stroke:#000000; stroke-linecap:round; stroke-linejoin:round; stroke-width:4; stroke-opacity:1; fill:none" points="219.033,996.26 237.931,996.26 "/>
<polyline clip-path="url(#clip210)" style="stroke:#000000; stroke-linecap:round; stroke-linejoin:round; stroke-width:4; stroke-opacity:1; fill:none" points="219.033,717.592 237.931,717.592 "/>
<polyline clip-path="url(#clip210)" style="stroke:#000000; stroke-linecap:round; stroke-linejoin:round; stroke-width:4; stroke-opacity:1; fill:none" points="219.033,438.924 237.931,438.924 "/>
<polyline clip-path="url(#clip210)" style="stroke:#000000; stroke-linecap:round; stroke-linejoin:round; stroke-width:4; stroke-opacity:1; fill:none" points="219.033,160.256 237.931,160.256 "/>
<path clip-path="url(#clip210)" d="M116.668 1288.27 L124.306 1288.27 L124.306 1261.91 L115.996 1263.57 L115.996 1259.32 L124.26 1257.65 L128.936 1257.65 L128.936 1288.27 L136.575 1288.27 L136.575 1292.21 L116.668 1292.21 L116.668 1288.27 Z" fill="#000000" fill-rule="nonzero" fill-opacity="1" /><path clip-path="url(#clip210)" d="M146.019 1286.33 L150.903 1286.33 L150.903 1292.21 L146.019 1292.21 L146.019 1286.33 Z" fill="#000000" fill-rule="nonzero" fill-opacity="1" /><path clip-path="url(#clip210)" d="M171.089 1260.73 Q167.477 1260.73 165.649 1264.29 Q163.843 1267.83 163.843 1274.96 Q163.843 1282.07 165.649 1285.63 Q167.477 1289.18 171.089 1289.18 Q174.723 1289.18 176.528 1285.63 Q178.357 1282.07 178.357 1274.96 Q178.357 1267.83 176.528 1264.29 Q174.723 1260.73 171.089 1260.73 M171.089 1257.02 Q176.899 1257.02 179.954 1261.63 Q183.033 1266.21 183.033 1274.96 Q183.033 1283.69 179.954 1288.3 Q176.899 1292.88 171.089 1292.88 Q165.278 1292.88 162.2 1288.3 Q159.144 1283.69 159.144 1274.96 Q159.144 1266.21 162.2 1261.63 Q165.278 1257.02 171.089 1257.02 Z" fill="#000000" fill-rule="nonzero" fill-opacity="1" /><path clip-path="url(#clip210)" d="M117.663 1009.61 L125.302 1009.61 L125.302 983.24 L116.992 984.906 L116.992 980.647 L125.255 978.98 L129.931 978.98 L129.931 1009.61 L137.57 1009.61 L137.57 1013.54 L117.663 1013.54 L117.663 1009.61 Z" fill="#000000" fill-rule="nonzero" fill-opacity="1" /><path clip-path="url(#clip210)" d="M147.015 1007.66 L151.899 1007.66 L151.899 1013.54 L147.015 1013.54 L147.015 1007.66 Z" fill="#000000" fill-rule="nonzero" fill-opacity="1" /><path clip-path="url(#clip210)" d="M162.13 978.98 L180.487 978.98 L180.487 982.916 L166.413 982.916 L166.413 991.388 Q167.431 991.041 168.45 990.878 Q169.468 990.693 170.487 990.693 Q176.274 990.693 179.653 993.865 Q183.033 997.036 183.033 1002.45 Q183.033 1008.03 179.561 1011.13 Q176.089 1014.21 169.769 1014.21 Q167.593 1014.21 165.325 1013.84 Q163.079 1013.47 160.672 1012.73 L160.672 1008.03 Q162.755 1009.17 164.977 1009.72 Q167.2 1010.28 169.677 1010.28 Q173.681 1010.28 176.019 1008.17 Q178.357 1006.06 178.357 1002.45 Q178.357 998.841 176.019 996.735 Q173.681 994.628 169.677 994.628 Q167.802 994.628 165.927 995.045 Q164.075 995.462 162.13 996.341 L162.13 978.98 Z" fill="#000000" fill-rule="nonzero" fill-opacity="1" /><path clip-path="url(#clip210)" d="M119.885 730.937 L136.204 730.937 L136.204 734.872 L114.26 734.872 L114.26 730.937 Q116.922 728.183 121.505 723.553 Q126.112 718.9 127.292 717.558 Q129.538 715.035 130.417 713.298 Q131.32 711.539 131.32 709.849 Q131.32 707.095 129.376 705.359 Q127.455 703.623 124.353 703.623 Q122.154 703.623 119.7 704.386 Q117.269 705.15 114.492 706.701 L114.492 701.979 Q117.316 700.845 119.769 700.266 Q122.223 699.687 124.26 699.687 Q129.63 699.687 132.825 702.373 Q136.019 705.058 136.019 709.548 Q136.019 711.678 135.209 713.599 Q134.422 715.497 132.316 718.09 Q131.737 718.761 128.635 721.979 Q125.533 725.173 119.885 730.937 Z" fill="#000000" fill-rule="nonzero" fill-opacity="1" /><path clip-path="url(#clip210)" d="M146.019 728.993 L150.903 728.993 L150.903 734.872 L146.019 734.872 L146.019 728.993 Z" fill="#000000" fill-rule="nonzero" fill-opacity="1" /><path clip-path="url(#clip210)" d="M171.089 703.391 Q167.477 703.391 165.649 706.956 Q163.843 710.498 163.843 717.627 Q163.843 724.734 165.649 728.298 Q167.477 731.84 171.089 731.84 Q174.723 731.84 176.528 728.298 Q178.357 724.734 178.357 717.627 Q178.357 710.498 176.528 706.956 Q174.723 703.391 171.089 703.391 M171.089 699.687 Q176.899 699.687 179.954 704.294 Q183.033 708.877 183.033 717.627 Q183.033 726.354 179.954 730.96 Q176.899 735.544 171.089 735.544 Q165.278 735.544 162.2 730.96 Q159.144 726.354 159.144 717.627 Q159.144 708.877 162.2 704.294 Q165.278 699.687 171.089 699.687 Z" fill="#000000" fill-rule="nonzero" fill-opacity="1" /><path clip-path="url(#clip210)" d="M120.88 452.269 L137.2 452.269 L137.2 456.204 L115.256 456.204 L115.256 452.269 Q117.918 449.515 122.501 444.885 Q127.107 440.232 128.288 438.89 Q130.533 436.366 131.413 434.63 Q132.316 432.871 132.316 431.181 Q132.316 428.427 130.371 426.691 Q128.45 424.955 125.348 424.955 Q123.149 424.955 120.695 425.718 Q118.265 426.482 115.487 428.033 L115.487 423.311 Q118.311 422.177 120.765 421.598 Q123.218 421.019 125.255 421.019 Q130.626 421.019 133.82 423.705 Q137.015 426.39 137.015 430.88 Q137.015 433.01 136.204 434.931 Q135.417 436.829 133.311 439.422 Q132.732 440.093 129.63 443.311 Q126.529 446.505 120.88 452.269 Z" fill="#000000" fill-rule="nonzero" fill-opacity="1" /><path clip-path="url(#clip210)" d="M147.015 450.325 L151.899 450.325 L151.899 456.204 L147.015 456.204 L147.015 450.325 Z" fill="#000000" fill-rule="nonzero" fill-opacity="1" /><path clip-path="url(#clip210)" d="M162.13 421.644 L180.487 421.644 L180.487 425.58 L166.413 425.58 L166.413 434.052 Q167.431 433.704 168.45 433.542 Q169.468 433.357 170.487 433.357 Q176.274 433.357 179.653 436.529 Q183.033 439.7 183.033 445.116 Q183.033 450.695 179.561 453.797 Q176.089 456.876 169.769 456.876 Q167.593 456.876 165.325 456.505 Q163.079 456.135 160.672 455.394 L160.672 450.695 Q162.755 451.829 164.977 452.385 Q167.2 452.94 169.677 452.94 Q173.681 452.94 176.019 450.834 Q178.357 448.728 178.357 445.116 Q178.357 441.505 176.019 439.399 Q173.681 437.292 169.677 437.292 Q167.802 437.292 165.927 437.709 Q164.075 438.126 162.13 439.005 L162.13 421.644 Z" fill="#000000" fill-rule="nonzero" fill-opacity="1" /><path clip-path="url(#clip210)" d="M130.024 158.902 Q133.38 159.62 135.255 161.888 Q137.154 164.157 137.154 167.49 Q137.154 172.606 133.635 175.407 Q130.117 178.208 123.635 178.208 Q121.459 178.208 119.144 177.768 Q116.853 177.351 114.399 176.495 L114.399 171.981 Q116.343 173.115 118.658 173.694 Q120.973 174.272 123.496 174.272 Q127.894 174.272 130.186 172.536 Q132.501 170.8 132.501 167.49 Q132.501 164.435 130.348 162.722 Q128.218 160.985 124.399 160.985 L120.371 160.985 L120.371 157.143 L124.584 157.143 Q128.033 157.143 129.862 155.777 Q131.691 154.388 131.691 151.796 Q131.691 149.134 129.792 147.722 Q127.917 146.286 124.399 146.286 Q122.478 146.286 120.279 146.703 Q118.08 147.12 115.441 147.999 L115.441 143.833 Q118.103 143.092 120.418 142.722 Q122.755 142.351 124.816 142.351 Q130.14 142.351 133.242 144.782 Q136.343 147.189 136.343 151.31 Q136.343 154.18 134.7 156.171 Q133.056 158.138 130.024 158.902 Z" fill="#000000" fill-rule="nonzero" fill-opacity="1" /><path clip-path="url(#clip210)" d="M146.019 171.657 L150.903 171.657 L150.903 177.536 L146.019 177.536 L146.019 171.657 Z" fill="#000000" fill-rule="nonzero" fill-opacity="1" /><path clip-path="url(#clip210)" d="M171.089 146.055 Q167.477 146.055 165.649 149.62 Q163.843 153.161 163.843 160.291 Q163.843 167.397 165.649 170.962 Q167.477 174.504 171.089 174.504 Q174.723 174.504 176.528 170.962 Q178.357 167.397 178.357 160.291 Q178.357 153.161 176.528 149.62 Q174.723 146.055 171.089 146.055 M171.089 142.351 Q176.899 142.351 179.954 146.958 Q183.033 151.541 183.033 160.291 Q183.033 169.018 179.954 173.624 Q176.899 178.208 171.089 178.208 Q165.278 178.208 162.2 173.624 Q159.144 169.018 159.144 160.291 Q159.144 151.541 162.2 146.958 Q165.278 142.351 171.089 142.351 Z" fill="#000000" fill-rule="nonzero" fill-opacity="1" /><path clip-path="url(#clip210)" d="M33.7671 948.367 L14.479 948.367 L14.479 942.511 L64.0042 942.511 L64.0042 948.367 L58.657 948.367 Q61.8398 950.213 63.3994 953.046 Q64.9272 955.847 64.9272 959.793 Q64.9272 966.255 59.771 970.329 Q54.6147 974.371 46.212 974.371 Q37.8093 974.371 32.6531 970.329 Q27.4968 966.255 27.4968 959.793 Q27.4968 955.847 29.0564 953.046 Q30.5842 950.213 33.7671 948.367 M46.212 968.323 Q52.6732 968.323 56.3653 965.682 Q60.0256 963.008 60.0256 958.361 Q60.0256 953.714 56.3653 951.041 Q52.6732 948.367 46.212 948.367 Q39.7508 948.367 36.0905 951.041 Q32.3984 953.714 32.3984 958.361 Q32.3984 963.008 36.0905 965.682 Q39.7508 968.323 46.212 968.323 Z" fill="#000000" fill-rule="nonzero" fill-opacity="1" /><path clip-path="url(#clip210)" d="M28.3562 930.448 L28.3562 924.591 L64.0042 924.591 L64.0042 930.448 L28.3562 930.448 M14.479 930.448 L14.479 924.591 L21.895 924.591 L21.895 930.448 L14.479 930.448 Z" fill="#000000" fill-rule="nonzero" fill-opacity="1" /><path clip-path="url(#clip210)" d="M29.4065 889.612 L34.9447 889.612 Q33.6716 892.094 33.035 894.768 Q32.3984 897.441 32.3984 900.306 Q32.3984 904.666 33.7352 906.863 Q35.072 909.027 37.7456 909.027 Q39.7826 909.027 40.9603 907.467 Q42.1061 905.908 43.1565 901.197 L43.6021 899.192 Q44.9389 892.954 47.3897 890.344 Q49.8086 887.702 54.1691 887.702 Q59.1344 887.702 62.0308 891.649 Q64.9272 895.563 64.9272 902.438 Q64.9272 905.303 64.3543 908.422 Q63.8132 911.51 62.6992 914.947 L56.6518 914.947 Q58.3387 911.701 59.198 908.55 Q60.0256 905.398 60.0256 902.311 Q60.0256 898.173 58.6251 895.945 Q57.1929 893.717 54.6147 893.717 Q52.2276 893.717 50.9545 895.341 Q49.6813 896.932 48.5037 902.375 L48.0262 904.412 Q46.8804 909.854 44.5251 912.273 Q42.138 914.692 38.0002 914.692 Q32.9713 914.692 30.2341 911.128 Q27.4968 907.563 27.4968 901.006 Q27.4968 897.76 27.9743 894.895 Q28.4517 892.03 29.4065 889.612 Z" fill="#000000" fill-rule="nonzero" fill-opacity="1" /><path clip-path="url(#clip210)" d="M18.2347 872.583 L28.3562 872.583 L28.3562 860.52 L32.9077 860.52 L32.9077 872.583 L52.2594 872.583 Q56.6199 872.583 57.8613 871.406 Q59.1026 870.196 59.1026 866.536 L59.1026 860.52 L64.0042 860.52 L64.0042 866.536 Q64.0042 873.315 61.4897 875.893 Q58.9434 878.472 52.2594 878.472 L32.9077 878.472 L32.9077 882.768 L28.3562 882.768 L28.3562 878.472 L18.2347 878.472 L18.2347 872.583 Z" fill="#000000" fill-rule="nonzero" fill-opacity="1" /><path clip-path="url(#clip210)" d="M46.0847 836.617 Q46.0847 843.715 47.7079 846.452 Q49.3312 849.189 53.2461 849.189 Q56.3653 849.189 58.2114 847.152 Q60.0256 845.083 60.0256 841.55 Q60.0256 836.681 56.5881 833.752 Q53.1188 830.792 47.3897 830.792 L46.0847 830.792 L46.0847 836.617 M43.6657 824.936 L64.0042 824.936 L64.0042 830.792 L58.5933 830.792 Q61.8398 832.798 63.3994 835.789 Q64.9272 838.781 64.9272 843.11 Q64.9272 848.585 61.8716 851.831 Q58.7843 855.046 53.6281 855.046 Q47.6125 855.046 44.5569 851.035 Q41.5014 846.993 41.5014 839.004 L41.5014 830.792 L40.9285 830.792 Q36.8862 830.792 34.6901 833.466 Q32.4621 836.108 32.4621 840.914 Q32.4621 843.969 33.1941 846.866 Q33.9262 849.762 35.3903 852.436 L29.9795 852.436 Q28.7381 849.221 28.1334 846.197 Q27.4968 843.174 27.4968 840.309 Q27.4968 832.575 31.5072 828.755 Q35.5176 824.936 43.6657 824.936 Z" fill="#000000" fill-rule="nonzero" fill-opacity="1" /><path clip-path="url(#clip210)" d="M42.4881 783.241 L64.0042 783.241 L64.0042 789.097 L42.679 789.097 Q37.6183 789.097 35.1038 791.07 Q32.5894 793.044 32.5894 796.99 Q32.5894 801.733 35.6131 804.47 Q38.6368 807.207 43.8567 807.207 L64.0042 807.207 L64.0042 813.096 L28.3562 813.096 L28.3562 807.207 L33.8944 807.207 Q30.6797 805.107 29.0883 802.274 Q27.4968 799.409 27.4968 795.686 Q27.4968 789.543 31.3163 786.392 Q35.1038 783.241 42.4881 783.241 Z" fill="#000000" fill-rule="nonzero" fill-opacity="1" /><path clip-path="url(#clip210)" d="M29.7248 745.906 L35.1993 745.906 Q33.8307 748.388 33.1623 750.903 Q32.4621 753.385 32.4621 755.932 Q32.4621 761.629 36.0905 764.78 Q39.6872 767.931 46.212 767.931 Q52.7369 767.931 56.3653 764.78 Q59.9619 761.629 59.9619 755.932 Q59.9619 753.385 59.2935 750.903 Q58.5933 748.388 57.2247 745.906 L62.6355 745.906 Q63.7814 748.356 64.3543 750.998 Q64.9272 753.608 64.9272 756.568 Q64.9272 764.621 59.8664 769.363 Q54.8057 774.106 46.212 774.106 Q37.491 774.106 32.4939 769.332 Q27.4968 764.525 27.4968 756.186 Q27.4968 753.481 28.0697 750.903 Q28.6108 748.325 29.7248 745.906 Z" fill="#000000" fill-rule="nonzero" fill-opacity="1" /><path clip-path="url(#clip210)" d="M44.7161 705.229 L47.5806 705.229 L47.5806 732.156 Q53.6281 731.774 56.8109 728.527 Q59.9619 725.249 59.9619 719.424 Q59.9619 716.051 59.1344 712.9 Q58.3069 709.717 56.6518 706.597 L62.1899 706.597 Q63.5267 709.748 64.227 713.059 Q64.9272 716.369 64.9272 719.774 Q64.9272 728.305 59.9619 733.302 Q54.9967 738.267 46.5303 738.267 Q37.7774 738.267 32.6531 733.556 Q27.4968 728.814 27.4968 720.793 Q27.4968 713.6 32.1438 709.43 Q36.7589 705.229 44.7161 705.229 M42.9973 711.085 Q38.1912 711.149 35.3266 713.791 Q32.4621 716.401 32.4621 720.729 Q32.4621 725.631 35.2312 728.591 Q38.0002 731.519 43.0292 731.965 L42.9973 711.085 Z" fill="#000000" fill-rule="nonzero" fill-opacity="1" /><path clip-path="url(#clip210)" d="M14.5426 660.828 Q21.8632 665.093 29.0246 667.162 Q36.186 669.231 43.5384 669.231 Q50.8908 669.231 58.1159 667.162 Q65.3091 665.061 72.5979 660.828 L72.5979 665.921 Q65.1182 670.695 57.8931 673.082 Q50.668 675.437 43.5384 675.437 Q36.4406 675.437 29.2474 673.082 Q22.0542 670.727 14.5426 665.921 L14.5426 660.828 Z" fill="#000000" fill-rule="nonzero" fill-opacity="1" /><path clip-path="url(#clip210)" d="M35.1993 621.711 Q31.2526 619.515 29.3747 616.459 Q27.4968 613.404 27.4968 609.266 Q27.4968 603.696 31.4117 600.672 Q35.2948 597.648 42.4881 597.648 L64.0042 597.648 L64.0042 603.537 L42.679 603.537 Q37.5546 603.537 35.072 605.351 Q32.5894 607.165 32.5894 610.889 Q32.5894 615.441 35.6131 618.082 Q38.6368 620.724 43.8567 620.724 L64.0042 620.724 L64.0042 626.612 L42.679 626.612 Q37.5228 626.612 35.072 628.427 Q32.5894 630.241 32.5894 634.028 Q32.5894 638.516 35.6449 641.158 Q38.6686 643.8 43.8567 643.8 L64.0042 643.8 L64.0042 649.688 L28.3562 649.688 L28.3562 643.8 L33.8944 643.8 Q30.616 641.795 29.0564 638.994 Q27.4968 636.193 27.4968 632.341 Q27.4968 628.458 29.4702 625.753 Q31.4436 623.016 35.1993 621.711 Z" fill="#000000" fill-rule="nonzero" fill-opacity="1" /><path clip-path="url(#clip210)" d="M14.5426 586.89 L14.5426 581.798 Q22.0542 577.024 29.2474 574.668 Q36.4406 572.281 43.5384 572.281 Q50.668 572.281 57.8931 574.668 Q65.1182 577.024 72.5979 581.798 L72.5979 586.89 Q65.3091 582.657 58.1159 580.588 Q50.8908 578.488 43.5384 578.488 Q36.186 578.488 29.0246 580.588 Q21.8632 582.657 14.5426 586.89 Z" fill="#000000" fill-rule="nonzero" fill-opacity="1" /><path clip-path="url(#clip210)" d="M680.527 18.8205 L680.527 65.8515 L690.412 65.8515 Q702.929 65.8515 708.722 60.1802 Q714.555 54.509 714.555 42.2752 Q714.555 30.1225 708.722 24.4918 Q702.929 18.8205 690.412 18.8205 L680.527 18.8205 M672.344 12.096 L689.156 12.096 Q706.737 12.096 714.96 19.4281 Q723.183 26.7198 723.183 42.2752 Q723.183 57.9117 714.919 65.2439 Q706.656 72.576 689.156 72.576 L672.344 72.576 L672.344 12.096 Z" fill="#000000" fill-rule="nonzero" fill-opacity="1" /><path clip-path="url(#clip210)" d="M735.903 27.2059 L743.357 27.2059 L743.357 72.576 L735.903 72.576 L735.903 27.2059 M735.903 9.54393 L743.357 9.54393 L743.357 18.9825 L735.903 18.9825 L735.903 9.54393 Z" fill="#000000" fill-rule="nonzero" fill-opacity="1" /><path clip-path="url(#clip210)" d="M787.876 28.5427 L787.876 35.5912 Q784.717 33.9709 781.314 33.1607 Q777.911 32.3505 774.265 32.3505 Q768.715 32.3505 765.92 34.0519 Q763.166 35.7533 763.166 39.156 Q763.166 41.7486 765.151 43.2475 Q767.136 44.7058 773.131 46.0426 L775.683 46.6097 Q783.623 48.3111 786.945 51.4303 Q790.307 54.509 790.307 60.0587 Q790.307 66.3781 785.284 70.0644 Q780.301 73.7508 771.551 73.7508 Q767.905 73.7508 763.935 73.0216 Q760.006 72.3329 755.631 70.9151 L755.631 63.2184 Q759.763 65.3654 763.773 66.4591 Q767.784 67.5124 771.713 67.5124 Q776.979 67.5124 779.815 65.73 Q782.651 63.9071 782.651 60.6258 Q782.651 57.5877 780.585 55.9673 Q778.559 54.3469 771.632 52.8481 L769.04 52.2405 Q762.113 50.7821 759.034 47.7845 Q755.955 44.7463 755.955 39.4801 Q755.955 33.0797 760.492 29.5959 Q765.029 26.1121 773.374 26.1121 Q777.506 26.1121 781.152 26.7198 Q784.798 27.3274 787.876 28.5427 Z" fill="#000000" fill-rule="nonzero" fill-opacity="1" /><path clip-path="url(#clip210)" d="M809.549 14.324 L809.549 27.2059 L824.902 27.2059 L824.902 32.9987 L809.549 32.9987 L809.549 57.6282 Q809.549 63.1779 811.047 64.7578 Q812.587 66.3376 817.245 66.3376 L824.902 66.3376 L824.902 72.576 L817.245 72.576 Q808.617 72.576 805.336 69.3758 Q802.054 66.1351 802.054 57.6282 L802.054 32.9987 L796.586 32.9987 L796.586 27.2059 L802.054 27.2059 L802.054 14.324 L809.549 14.324 Z" fill="#000000" fill-rule="nonzero" fill-opacity="1" /><path clip-path="url(#clip210)" d="M855.324 49.7694 Q846.29 49.7694 842.807 51.8354 Q839.323 53.9013 839.323 58.8839 Q839.323 62.8538 841.915 65.2034 Q844.548 67.5124 849.045 67.5124 Q855.243 67.5124 858.97 63.1374 Q862.737 58.7219 862.737 51.4303 L862.737 49.7694 L855.324 49.7694 M870.191 46.6907 L870.191 72.576 L862.737 72.576 L862.737 65.6895 Q860.185 69.8214 856.377 71.8063 Q852.569 73.7508 847.06 73.7508 Q840.092 73.7508 835.96 69.8619 Q831.869 65.9325 831.869 59.3701 Q831.869 51.7138 836.973 47.825 Q842.118 43.9361 852.286 43.9361 L862.737 43.9361 L862.737 43.2069 Q862.737 38.0623 859.334 35.2672 Q855.972 32.4315 849.855 32.4315 Q845.966 32.4315 842.28 33.3632 Q838.594 34.295 835.191 36.1584 L835.191 29.2718 Q839.282 27.692 843.131 26.9223 Q846.979 26.1121 850.625 26.1121 Q860.468 26.1121 865.33 31.2163 Q870.191 36.3204 870.191 46.6907 Z" fill="#000000" fill-rule="nonzero" fill-opacity="1" /><path clip-path="url(#clip210)" d="M923.257 45.1919 L923.257 72.576 L915.804 72.576 L915.804 45.4349 Q915.804 38.994 913.292 35.7938 Q910.781 32.5936 905.758 32.5936 Q899.722 32.5936 896.238 36.4419 Q892.754 40.2903 892.754 46.9338 L892.754 72.576 L885.26 72.576 L885.26 27.2059 L892.754 27.2059 L892.754 34.2544 Q895.428 30.163 899.033 28.1376 Q902.679 26.1121 907.418 26.1121 Q915.237 26.1121 919.247 30.9732 Q923.257 35.7938 923.257 45.1919 Z" fill="#000000" fill-rule="nonzero" fill-opacity="1" /><path clip-path="url(#clip210)" d="M970.775 28.9478 L970.775 35.9153 Q967.615 34.1734 964.415 33.3227 Q961.255 32.4315 958.014 32.4315 Q950.763 32.4315 946.753 37.0496 Q942.742 41.6271 942.742 49.9314 Q942.742 58.2358 946.753 62.8538 Q950.763 67.4314 958.014 67.4314 Q961.255 67.4314 964.415 66.5807 Q967.615 65.6895 970.775 63.9476 L970.775 70.8341 Q967.655 72.2924 964.293 73.0216 Q960.971 73.7508 957.204 73.7508 Q946.955 73.7508 940.919 67.3098 Q934.884 60.8689 934.884 49.9314 Q934.884 38.832 940.96 32.472 Q947.077 26.1121 957.69 26.1121 Q961.133 26.1121 964.415 26.8413 Q967.696 27.5299 970.775 28.9478 Z" fill="#000000" fill-rule="nonzero" fill-opacity="1" /><path clip-path="url(#clip210)" d="M1022.55 48.0275 L1022.55 51.6733 L988.274 51.6733 Q988.761 59.3701 992.893 63.421 Q997.065 67.4314 1004.48 67.4314 Q1008.77 67.4314 1012.78 66.3781 Q1016.83 65.3249 1020.8 63.2184 L1020.8 70.267 Q1016.79 71.9684 1012.58 72.8596 Q1008.37 73.7508 1004.03 73.7508 Q993.176 73.7508 986.816 67.4314 Q980.497 61.1119 980.497 50.3365 Q980.497 39.1965 986.492 32.6746 Q992.528 26.1121 1002.74 26.1121 Q1011.89 26.1121 1017.2 32.0264 Q1022.55 37.9003 1022.55 48.0275 M1015.09 45.84 Q1015.01 39.7232 1011.65 36.0774 Q1008.33 32.4315 1002.82 32.4315 Q996.579 32.4315 992.812 35.9558 Q989.085 39.4801 988.518 45.8805 L1015.09 45.84 Z" fill="#000000" fill-rule="nonzero" fill-opacity="1" /><path clip-path="url(#clip210)" d="M1093.72 49.9314 Q1093.72 41.7081 1090.32 37.0496 Q1086.95 32.3505 1081.04 32.3505 Q1075.13 32.3505 1071.72 37.0496 Q1068.36 41.7081 1068.36 49.9314 Q1068.36 58.1548 1071.72 62.8538 Q1075.13 67.5124 1081.04 67.5124 Q1086.95 67.5124 1090.32 62.8538 Q1093.72 58.1548 1093.72 49.9314 M1068.36 34.0924 Q1070.71 30.0415 1074.28 28.0971 Q1077.88 26.1121 1082.86 26.1121 Q1091.13 26.1121 1096.27 32.6746 Q1101.46 39.2371 1101.46 49.9314 Q1101.46 60.6258 1096.27 67.1883 Q1091.13 73.7508 1082.86 73.7508 Q1077.88 73.7508 1074.28 71.8063 Q1070.71 69.8214 1068.36 65.7705 L1068.36 72.576 L1060.87 72.576 L1060.87 9.54393 L1068.36 9.54393 L1068.36 34.0924 Z" fill="#000000" fill-rule="nonzero" fill-opacity="1" /><path clip-path="url(#clip210)" d="M1152.62 48.0275 L1152.62 51.6733 L1118.35 51.6733 Q1118.84 59.3701 1122.97 63.421 Q1127.14 67.4314 1134.55 67.4314 Q1138.85 67.4314 1142.86 66.3781 Q1146.91 65.3249 1150.88 63.2184 L1150.88 70.267 Q1146.87 71.9684 1142.65 72.8596 Q1138.44 73.7508 1134.11 73.7508 Q1123.25 73.7508 1116.89 67.4314 Q1110.57 61.1119 1110.57 50.3365 Q1110.57 39.1965 1116.57 32.6746 Q1122.6 26.1121 1132.81 26.1121 Q1141.97 26.1121 1147.27 32.0264 Q1152.62 37.9003 1152.62 48.0275 M1145.17 45.84 Q1145.08 39.7232 1141.72 36.0774 Q1138.4 32.4315 1132.89 32.4315 Q1126.65 32.4315 1122.89 35.9558 Q1119.16 39.4801 1118.59 45.8805 L1145.17 45.84 Z" fill="#000000" fill-rule="nonzero" fill-opacity="1" /><path clip-path="url(#clip210)" d="M1172.23 14.324 L1172.23 27.2059 L1187.58 27.2059 L1187.58 32.9987 L1172.23 32.9987 L1172.23 57.6282 Q1172.23 63.1779 1173.72 64.7578 Q1175.26 66.3376 1179.92 66.3376 L1187.58 66.3376 L1187.58 72.576 L1179.92 72.576 Q1171.29 72.576 1168.01 69.3758 Q1164.73 66.1351 1164.73 57.6282 L1164.73 32.9987 L1159.26 32.9987 L1159.26 27.2059 L1164.73 27.2059 L1164.73 14.324 L1172.23 14.324 Z" fill="#000000" fill-rule="nonzero" fill-opacity="1" /><path clip-path="url(#clip210)" d="M1193.05 27.2059 L1200.5 27.2059 L1209.82 62.6108 L1219.1 27.2059 L1227.89 27.2059 L1237.2 62.6108 L1246.48 27.2059 L1253.93 27.2059 L1242.06 72.576 L1233.27 72.576 L1223.51 35.3887 L1213.71 72.576 L1204.92 72.576 L1193.05 27.2059 Z" fill="#000000" fill-rule="nonzero" fill-opacity="1" /><path clip-path="url(#clip210)" d="M1304.04 48.0275 L1304.04 51.6733 L1269.77 51.6733 Q1270.26 59.3701 1274.39 63.421 Q1278.56 67.4314 1285.98 67.4314 Q1290.27 67.4314 1294.28 66.3781 Q1298.33 65.3249 1302.3 63.2184 L1302.3 70.267 Q1298.29 71.9684 1294.08 72.8596 Q1289.86 73.7508 1285.53 73.7508 Q1274.67 73.7508 1268.31 67.4314 Q1261.99 61.1119 1261.99 50.3365 Q1261.99 39.1965 1267.99 32.6746 Q1274.03 26.1121 1284.23 26.1121 Q1293.39 26.1121 1298.7 32.0264 Q1304.04 37.9003 1304.04 48.0275 M1296.59 45.84 Q1296.51 39.7232 1293.15 36.0774 Q1289.82 32.4315 1284.31 32.4315 Q1278.08 32.4315 1274.31 35.9558 Q1270.58 39.4801 1270.01 45.8805 L1296.59 45.84 Z" fill="#000000" fill-rule="nonzero" fill-opacity="1" /><path clip-path="url(#clip210)" d="M1355.08 48.0275 L1355.08 51.6733 L1320.81 51.6733 Q1321.3 59.3701 1325.43 63.421 Q1329.6 67.4314 1337.02 67.4314 Q1341.31 67.4314 1345.32 66.3781 Q1349.37 65.3249 1353.34 63.2184 L1353.34 70.267 Q1349.33 71.9684 1345.12 72.8596 Q1340.91 73.7508 1336.57 73.7508 Q1325.71 73.7508 1319.35 67.4314 Q1313.04 61.1119 1313.04 50.3365 Q1313.04 39.1965 1319.03 32.6746 Q1325.07 26.1121 1335.27 26.1121 Q1344.43 26.1121 1349.74 32.0264 Q1355.08 37.9003 1355.08 48.0275 M1347.63 45.84 Q1347.55 39.7232 1344.19 36.0774 Q1340.87 32.4315 1335.36 32.4315 Q1329.12 32.4315 1325.35 35.9558 Q1321.62 39.4801 1321.06 45.8805 L1347.63 45.84 Z" fill="#000000" fill-rule="nonzero" fill-opacity="1" /><path clip-path="url(#clip210)" d="M1405.03 45.1919 L1405.03 72.576 L1397.58 72.576 L1397.58 45.4349 Q1397.58 38.994 1395.07 35.7938 Q1392.55 32.5936 1387.53 32.5936 Q1381.5 32.5936 1378.01 36.4419 Q1374.53 40.2903 1374.53 46.9338 L1374.53 72.576 L1367.03 72.576 L1367.03 27.2059 L1374.53 27.2059 L1374.53 34.2544 Q1377.2 30.163 1380.81 28.1376 Q1384.45 26.1121 1389.19 26.1121 Q1397.01 26.1121 1401.02 30.9732 Q1405.03 35.7938 1405.03 45.1919 Z" fill="#000000" fill-rule="nonzero" fill-opacity="1" /><path clip-path="url(#clip210)" d="M1471.14 17.6457 Q1462.23 17.6457 1456.96 24.2892 Q1451.74 30.9327 1451.74 42.3968 Q1451.74 53.8203 1456.96 60.4638 Q1462.23 67.1073 1471.14 67.1073 Q1480.05 67.1073 1485.24 60.4638 Q1490.47 53.8203 1490.47 42.3968 Q1490.47 30.9327 1485.24 24.2892 Q1480.05 17.6457 1471.14 17.6457 M1482.61 71.4823 L1493.38 83.2704 L1483.5 83.2704 L1474.55 73.5887 Q1473.21 73.6697 1472.48 73.7103 Q1471.79 73.7508 1471.14 73.7508 Q1458.38 73.7508 1450.73 65.2439 Q1443.11 56.6965 1443.11 42.3968 Q1443.11 28.0566 1450.73 19.5497 Q1458.38 11.0023 1471.14 11.0023 Q1483.86 11.0023 1491.48 19.5497 Q1499.09 28.0566 1499.09 42.3968 Q1499.09 52.9291 1494.84 60.4233 Q1490.63 67.9175 1482.61 71.4823 Z" fill="#000000" fill-rule="nonzero" fill-opacity="1" /><path clip-path="url(#clip210)" d="M1510.8 54.671 L1510.8 27.2059 L1518.25 27.2059 L1518.25 54.3874 Q1518.25 60.8284 1520.77 64.0691 Q1523.28 67.2693 1528.3 67.2693 Q1534.34 67.2693 1537.82 63.421 Q1541.34 59.5726 1541.34 52.9291 L1541.34 27.2059 L1548.8 27.2059 L1548.8 72.576 L1541.34 72.576 L1541.34 65.6084 Q1538.63 69.7404 1535.03 71.7658 Q1531.46 73.7508 1526.72 73.7508 Q1518.9 73.7508 1514.85 68.8897 Q1510.8 64.0286 1510.8 54.671 M1529.56 26.1121 L1529.56 26.1121 Z" fill="#000000" fill-rule="nonzero" fill-opacity="1" /><path clip-path="url(#clip210)" d="M1584.77 49.7694 Q1575.74 49.7694 1572.25 51.8354 Q1568.77 53.9013 1568.77 58.8839 Q1568.77 62.8538 1571.36 65.2034 Q1573.99 67.5124 1578.49 67.5124 Q1584.69 67.5124 1588.42 63.1374 Q1592.18 58.7219 1592.18 51.4303 L1592.18 49.7694 L1584.77 49.7694 M1599.64 46.6907 L1599.64 72.576 L1592.18 72.576 L1592.18 65.6895 Q1589.63 69.8214 1585.82 71.8063 Q1582.02 73.7508 1576.51 73.7508 Q1569.54 73.7508 1565.41 69.8619 Q1561.32 65.9325 1561.32 59.3701 Q1561.32 51.7138 1566.42 47.825 Q1571.56 43.9361 1581.73 43.9361 L1592.18 43.9361 L1592.18 43.2069 Q1592.18 38.0623 1588.78 35.2672 Q1585.42 32.4315 1579.3 32.4315 Q1575.41 32.4315 1571.73 33.3632 Q1568.04 34.295 1564.64 36.1584 L1564.64 29.2718 Q1568.73 27.692 1572.58 26.9223 Q1576.43 26.1121 1580.07 26.1121 Q1589.91 26.1121 1594.78 31.2163 Q1599.64 36.3204 1599.64 46.6907 Z" fill="#000000" fill-rule="nonzero" fill-opacity="1" /><path clip-path="url(#clip210)" d="M1644.85 34.0924 L1644.85 9.54393 L1652.3 9.54393 L1652.3 72.576 L1644.85 72.576 L1644.85 65.7705 Q1642.5 69.8214 1638.89 71.8063 Q1635.33 73.7508 1630.3 73.7508 Q1622.08 73.7508 1616.89 67.1883 Q1611.75 60.6258 1611.75 49.9314 Q1611.75 39.2371 1616.89 32.6746 Q1622.08 26.1121 1630.3 26.1121 Q1635.33 26.1121 1638.89 28.0971 Q1642.5 30.0415 1644.85 34.0924 M1619.45 49.9314 Q1619.45 58.1548 1622.81 62.8538 Q1626.21 67.5124 1632.13 67.5124 Q1638.04 67.5124 1641.44 62.8538 Q1644.85 58.1548 1644.85 49.9314 Q1644.85 41.7081 1641.44 37.0496 Q1638.04 32.3505 1632.13 32.3505 Q1626.21 32.3505 1622.81 37.0496 Q1619.45 41.7081 1619.45 49.9314 Z" fill="#000000" fill-rule="nonzero" fill-opacity="1" /><path clip-path="url(#clip210)" d="M1693.94 34.1734 Q1692.69 33.4443 1691.19 33.1202 Q1689.73 32.7556 1687.95 32.7556 Q1681.63 32.7556 1678.22 36.8875 Q1674.86 40.9789 1674.86 48.6757 L1674.86 72.576 L1667.37 72.576 L1667.37 27.2059 L1674.86 27.2059 L1674.86 34.2544 Q1677.21 30.1225 1680.98 28.1376 Q1684.75 26.1121 1690.13 26.1121 Q1690.9 26.1121 1691.84 26.2337 Q1692.77 26.3147 1693.9 26.5172 L1693.94 34.1734 Z" fill="#000000" fill-rule="nonzero" fill-opacity="1" /><path clip-path="url(#clip210)" d="M1717.52 32.4315 Q1711.52 32.4315 1708.04 37.1306 Q1704.56 41.7891 1704.56 49.9314 Q1704.56 58.0738 1708 62.7728 Q1711.48 67.4314 1717.52 67.4314 Q1723.47 67.4314 1726.96 62.7323 Q1730.44 58.0333 1730.44 49.9314 Q1730.44 41.8701 1726.96 37.1711 Q1723.47 32.4315 1717.52 32.4315 M1717.52 26.1121 Q1727.24 26.1121 1732.79 32.4315 Q1738.34 38.7509 1738.34 49.9314 Q1738.34 61.0714 1732.79 67.4314 Q1727.24 73.7508 1717.52 73.7508 Q1707.76 73.7508 1702.21 67.4314 Q1696.7 61.0714 1696.7 49.9314 Q1696.7 38.7509 1702.21 32.4315 Q1707.76 26.1121 1717.52 26.1121 Z" fill="#000000" fill-rule="nonzero" fill-opacity="1" /><path clip-path="url(#clip210)" d="M1758.07 14.324 L1758.07 27.2059 L1773.42 27.2059 L1773.42 32.9987 L1758.07 32.9987 L1758.07 57.6282 Q1758.07 63.1779 1759.57 64.7578 Q1761.11 66.3376 1765.76 66.3376 L1773.42 66.3376 L1773.42 72.576 L1765.76 72.576 Q1757.14 72.576 1753.85 69.3758 Q1750.57 66.1351 1750.57 57.6282 L1750.57 32.9987 L1745.1 32.9987 L1745.1 27.2059 L1750.57 27.2059 L1750.57 14.324 L1758.07 14.324 Z" fill="#000000" fill-rule="nonzero" fill-opacity="1" /><path clip-path="url(#clip210)" d="M1800.8 32.4315 Q1794.81 32.4315 1791.33 37.1306 Q1787.84 41.7891 1787.84 49.9314 Q1787.84 58.0738 1791.29 62.7728 Q1794.77 67.4314 1800.8 67.4314 Q1806.76 67.4314 1810.24 62.7323 Q1813.73 58.0333 1813.73 49.9314 Q1813.73 41.8701 1810.24 37.1711 Q1806.76 32.4315 1800.8 32.4315 M1800.8 26.1121 Q1810.53 26.1121 1816.08 32.4315 Q1821.63 38.7509 1821.63 49.9314 Q1821.63 61.0714 1816.08 67.4314 Q1810.53 73.7508 1800.8 73.7508 Q1791.04 73.7508 1785.49 67.4314 Q1779.98 61.0714 1779.98 49.9314 Q1779.98 38.7509 1785.49 32.4315 Q1791.04 26.1121 1800.8 26.1121 Z" fill="#000000" fill-rule="nonzero" fill-opacity="1" /><path clip-path="url(#clip210)" d="M1860.27 34.1734 Q1859.02 33.4443 1857.52 33.1202 Q1856.06 32.7556 1854.28 32.7556 Q1847.96 32.7556 1844.55 36.8875 Q1841.19 40.9789 1841.19 48.6757 L1841.19 72.576 L1833.7 72.576 L1833.7 27.2059 L1841.19 27.2059 L1841.19 34.2544 Q1843.54 30.1225 1847.31 28.1376 Q1851.08 26.1121 1856.46 26.1121 Q1857.23 26.1121 1858.17 26.2337 Q1859.1 26.3147 1860.23 26.5172 L1860.27 34.1734 Z" fill="#000000" fill-rule="nonzero" fill-opacity="1" /><path clip-path="url(#clip210)" d="M1897.01 28.5427 L1897.01 35.5912 Q1893.85 33.9709 1890.45 33.1607 Q1887.05 32.3505 1883.4 32.3505 Q1877.85 32.3505 1875.06 34.0519 Q1872.3 35.7533 1872.3 39.156 Q1872.3 41.7486 1874.29 43.2475 Q1876.27 44.7058 1882.27 46.0426 L1884.82 46.6097 Q1892.76 48.3111 1896.08 51.4303 Q1899.44 54.509 1899.44 60.0587 Q1899.44 66.3781 1894.42 70.0644 Q1889.44 73.7508 1880.69 73.7508 Q1877.04 73.7508 1873.07 73.0216 Q1869.14 72.3329 1864.77 70.9151 L1864.77 63.2184 Q1868.9 65.3654 1872.91 66.4591 Q1876.92 67.5124 1880.85 67.5124 Q1886.12 67.5124 1888.95 65.73 Q1891.79 63.9071 1891.79 60.6258 Q1891.79 57.5877 1889.72 55.9673 Q1887.7 54.3469 1880.77 52.8481 L1878.18 52.2405 Q1871.25 50.7821 1868.17 47.7845 Q1865.09 44.7463 1865.09 39.4801 Q1865.09 33.0797 1869.63 29.5959 Q1874.17 26.1121 1882.51 26.1121 Q1886.64 26.1121 1890.29 26.7198 Q1893.94 27.3274 1897.01 28.5427 Z" fill="#000000" fill-rule="nonzero" fill-opacity="1" /><polyline clip-path="url(#clip212)" style="stroke:#ff0000; stroke-linecap:round; stroke-linejoin:round; stroke-width:4; stroke-opacity:1; fill:none" stroke-dasharray="16, 10" points="279.421,1386.4 359.939,1386.4 440.457,1386.4 520.975,1386.4 601.493,1386.4 682.011,1386.4 762.528,1386.4 843.046,1386.4 923.564,1386.4 1004.08,1386.4 1084.6,1386.4 1165.12,1386.4 1245.64,1386.4 1326.15,1386.4 1406.67,1386.4 1487.19,1386.4 1567.71,1386.4 1648.22,1386.4 1728.74,1386.4 1809.26,1386.4 1889.78,1386.4 1970.3,1386.4 2050.81,1386.4 2131.33,1386.4 2211.85,1386.4 2292.37,1386.4 "/>
<polyline clip-path="url(#clip212)" style="stroke:#e26f46; stroke-linecap:round; stroke-linejoin:round; stroke-width:4; stroke-opacity:1; fill:none" points="279.421,996.26 359.939,1041.08 440.457,1123.94 520.975,1201.13 601.493,1258.32 682.011,1269.11 762.528,1244.26 843.046,1209.36 923.564,1175.07 1004.08,1145.34 1084.6,1120.06 1165.12,1098.27 1245.64,1079.72 1326.15,1064.17 1406.67,1051.29 1487.19,1040.66 1567.71,1031.89 1648.22,1024.62 1728.74,1018.56 1809.26,1013.46 1889.78,1009.1 1970.3,1005.34 2050.81,1002.07 2131.33,999.27 2211.85,997.129 2292.37,996.26 "/>
<polyline clip-path="url(#clip212)" style="stroke:#3da44d; stroke-linecap:round; stroke-linejoin:round; stroke-width:4; stroke-opacity:1; fill:none" points="279.421,160.256 359.939,251.378 440.457,471.033 520.975,714.247 601.493,932.836 682.011,1125.01 762.528,1274.77 843.046,1360.29 923.564,1386.4 1004.08,1376.36 1084.6,1349.1 1165.12,1314.09 1245.64,1275.8 1326.15,1237.03 1406.67,1199.93 1487.19,1165.89 1567.71,1135.59 1648.22,1109.13 1728.74,1086.2 1809.26,1066.33 1889.78,1049.01 1970.3,1033.74 2050.81,1020.24 2131.33,1008.61 2211.85,999.783 2292.37,996.26 "/>
<polyline clip-path="url(#clip212)" style="stroke:#c271d2; stroke-linecap:round; stroke-linejoin:round; stroke-width:4; stroke-opacity:1; fill:none" points="279.421,996.26 359.939,1042.56 440.457,1177.13 520.975,1315.21 601.493,1386.4 682.011,1386.4 762.528,1297.32 843.046,1154.94 923.564,1006.41 1004.08,871.521 1084.6,754.388 1165.12,654.034 1245.64,568.521 1326.15,496.008 1406.67,434.835 1487.19,383.461 1567.71,340.421 1648.22,304.35 1728.74,273.995 1809.26,248.246 1889.78,226.142 1970.3,206.91 2050.81,190.057 2131.33,175.613 2211.85,164.647 2292.37,160.256 "/>
<path clip-path="url(#clip210)" d="M290.157 425.996 L905.842 425.996 L905.842 166.796 L290.157 166.796  Z" fill="#ffffff" fill-rule="evenodd" fill-opacity="1"/>
<polyline clip-path="url(#clip210)" style="stroke:#000000; stroke-linecap:round; stroke-linejoin:round; stroke-width:4; stroke-opacity:1; fill:none" points="290.157,425.996 905.842,425.996 905.842,166.796 290.157,166.796 290.157,425.996 "/>
<polyline clip-path="url(#clip210)" style="stroke:#ff0000; stroke-linecap:round; stroke-linejoin:round; stroke-width:4; stroke-opacity:1; fill:none" stroke-dasharray="16, 10" points="313.865,218.636 456.113,218.636 "/>
<path clip-path="url(#clip210)" d="M500.33 210.985 L500.33 214.967 Q498.525 213.971 496.696 213.485 Q494.891 212.976 493.039 212.976 Q488.895 212.976 486.604 215.615 Q484.312 218.231 484.312 222.976 Q484.312 227.721 486.604 230.36 Q488.895 232.976 493.039 232.976 Q494.891 232.976 496.696 232.49 Q498.525 231.981 500.33 230.985 L500.33 234.92 Q498.548 235.754 496.627 236.17 Q494.729 236.587 492.576 236.587 Q486.719 236.587 483.27 232.906 Q479.821 229.226 479.821 222.976 Q479.821 216.633 483.294 212.999 Q486.789 209.365 492.854 209.365 Q494.821 209.365 496.696 209.782 Q498.571 210.175 500.33 210.985 Z" fill="#000000" fill-rule="nonzero" fill-opacity="1" /><path clip-path="url(#clip210)" d="M517.784 212.976 Q514.358 212.976 512.367 215.661 Q510.377 218.323 510.377 222.976 Q510.377 227.629 512.344 230.314 Q514.335 232.976 517.784 232.976 Q521.187 232.976 523.178 230.291 Q525.168 227.606 525.168 222.976 Q525.168 218.37 523.178 215.684 Q521.187 212.976 517.784 212.976 M517.784 209.365 Q523.34 209.365 526.511 212.976 Q529.682 216.587 529.682 222.976 Q529.682 229.342 526.511 232.976 Q523.34 236.587 517.784 236.587 Q512.205 236.587 509.034 232.976 Q505.886 229.342 505.886 222.976 Q505.886 216.587 509.034 212.976 Q512.205 209.365 517.784 209.365 Z" fill="#000000" fill-rule="nonzero" fill-opacity="1" /><path clip-path="url(#clip210)" d="M536.742 199.897 L541.002 199.897 L541.002 235.916 L536.742 235.916 L536.742 199.897 Z" fill="#000000" fill-rule="nonzero" fill-opacity="1" /><path clip-path="url(#clip210)" d="M549.914 199.897 L554.173 199.897 L554.173 235.916 L549.914 235.916 L549.914 199.897 Z" fill="#000000" fill-rule="nonzero" fill-opacity="1" /><path clip-path="url(#clip210)" d="M563.085 209.99 L567.344 209.99 L567.344 235.916 L563.085 235.916 L563.085 209.99 M563.085 199.897 L567.344 199.897 L567.344 205.291 L563.085 205.291 L563.085 199.897 Z" fill="#000000" fill-rule="nonzero" fill-opacity="1" /><path clip-path="url(#clip210)" d="M592.784 210.754 L592.784 214.782 Q590.978 213.856 589.034 213.393 Q587.089 212.93 585.006 212.93 Q581.835 212.93 580.237 213.902 Q578.663 214.874 578.663 216.819 Q578.663 218.3 579.798 219.157 Q580.932 219.99 584.358 220.754 L585.816 221.078 Q590.353 222.05 592.251 223.832 Q594.173 225.592 594.173 228.763 Q594.173 232.374 591.302 234.481 Q588.455 236.587 583.455 236.587 Q581.372 236.587 579.103 236.17 Q576.858 235.777 574.358 234.967 L574.358 230.569 Q576.719 231.795 579.011 232.42 Q581.302 233.022 583.548 233.022 Q586.557 233.022 588.177 232.004 Q589.798 230.962 589.798 229.087 Q589.798 227.351 588.617 226.425 Q587.46 225.499 583.501 224.643 L582.02 224.295 Q578.062 223.462 576.302 221.749 Q574.543 220.013 574.543 217.004 Q574.543 213.346 577.136 211.356 Q579.728 209.365 584.497 209.365 Q586.858 209.365 588.941 209.712 Q591.024 210.059 592.784 210.754 Z" fill="#000000" fill-rule="nonzero" fill-opacity="1" /><path clip-path="url(#clip210)" d="M600.955 209.99 L605.214 209.99 L605.214 235.916 L600.955 235.916 L600.955 209.99 M600.955 199.897 L605.214 199.897 L605.214 205.291 L600.955 205.291 L600.955 199.897 Z" fill="#000000" fill-rule="nonzero" fill-opacity="1" /><path clip-path="url(#clip210)" d="M624.172 212.976 Q620.746 212.976 618.756 215.661 Q616.765 218.323 616.765 222.976 Q616.765 227.629 618.733 230.314 Q620.723 232.976 624.172 232.976 Q627.575 232.976 629.566 230.291 Q631.557 227.606 631.557 222.976 Q631.557 218.37 629.566 215.684 Q627.575 212.976 624.172 212.976 M624.172 209.365 Q629.728 209.365 632.899 212.976 Q636.07 216.587 636.07 222.976 Q636.07 229.342 632.899 232.976 Q629.728 236.587 624.172 236.587 Q618.594 236.587 615.422 232.976 Q612.274 229.342 612.274 222.976 Q612.274 216.587 615.422 212.976 Q618.594 209.365 624.172 209.365 Z" fill="#000000" fill-rule="nonzero" fill-opacity="1" /><path clip-path="url(#clip210)" d="M664.681 220.268 L664.681 235.916 L660.422 235.916 L660.422 220.407 Q660.422 216.726 658.987 214.897 Q657.552 213.069 654.681 213.069 Q651.232 213.069 649.242 215.268 Q647.251 217.467 647.251 221.263 L647.251 235.916 L642.969 235.916 L642.969 209.99 L647.251 209.99 L647.251 214.018 Q648.779 211.68 650.839 210.522 Q652.922 209.365 655.631 209.365 Q660.098 209.365 662.39 212.143 Q664.681 214.897 664.681 220.268 Z" fill="#000000" fill-rule="nonzero" fill-opacity="1" /><path clip-path="url(#clip210)" d="M705.306 213.925 L705.306 199.897 L709.565 199.897 L709.565 235.916 L705.306 235.916 L705.306 232.027 Q703.964 234.342 701.903 235.476 Q699.866 236.587 696.996 236.587 Q692.297 236.587 689.334 232.837 Q686.394 229.087 686.394 222.976 Q686.394 216.865 689.334 213.115 Q692.297 209.365 696.996 209.365 Q699.866 209.365 701.903 210.499 Q703.964 211.61 705.306 213.925 M690.792 222.976 Q690.792 227.675 692.714 230.36 Q694.658 233.022 698.038 233.022 Q701.417 233.022 703.362 230.36 Q705.306 227.675 705.306 222.976 Q705.306 218.277 703.362 215.615 Q701.417 212.93 698.038 212.93 Q694.658 212.93 692.714 215.615 Q690.792 218.277 690.792 222.976 Z" fill="#000000" fill-rule="nonzero" fill-opacity="1" /><path clip-path="url(#clip210)" d="M718.339 209.99 L722.598 209.99 L722.598 235.916 L718.339 235.916 L718.339 209.99 M718.339 199.897 L722.598 199.897 L722.598 205.291 L718.339 205.291 L718.339 199.897 Z" fill="#000000" fill-rule="nonzero" fill-opacity="1" /><path clip-path="url(#clip210)" d="M748.037 210.754 L748.037 214.782 Q746.232 213.856 744.287 213.393 Q742.343 212.93 740.26 212.93 Q737.088 212.93 735.491 213.902 Q733.917 214.874 733.917 216.819 Q733.917 218.3 735.051 219.157 Q736.186 219.99 739.612 220.754 L741.07 221.078 Q745.607 222.05 747.505 223.832 Q749.426 225.592 749.426 228.763 Q749.426 232.374 746.556 234.481 Q743.709 236.587 738.709 236.587 Q736.625 236.587 734.357 236.17 Q732.112 235.777 729.612 234.967 L729.612 230.569 Q731.973 231.795 734.264 232.42 Q736.556 233.022 738.801 233.022 Q741.811 233.022 743.431 232.004 Q745.051 230.962 745.051 229.087 Q745.051 227.351 743.871 226.425 Q742.713 225.499 738.755 224.643 L737.274 224.295 Q733.315 223.462 731.556 221.749 Q729.797 220.013 729.797 217.004 Q729.797 213.346 732.389 211.356 Q734.982 209.365 739.75 209.365 Q742.112 209.365 744.195 209.712 Q746.278 210.059 748.037 210.754 Z" fill="#000000" fill-rule="nonzero" fill-opacity="1" /><path clip-path="url(#clip210)" d="M760.422 202.629 L760.422 209.99 L769.195 209.99 L769.195 213.3 L760.422 213.3 L760.422 227.374 Q760.422 230.545 761.278 231.448 Q762.158 232.351 764.82 232.351 L769.195 232.351 L769.195 235.916 L764.82 235.916 Q759.889 235.916 758.014 234.087 Q756.139 232.235 756.139 227.374 L756.139 213.3 L753.014 213.3 L753.014 209.99 L756.139 209.99 L756.139 202.629 L760.422 202.629 Z" fill="#000000" fill-rule="nonzero" fill-opacity="1" /><path clip-path="url(#clip210)" d="M786.579 222.883 Q781.417 222.883 779.426 224.064 Q777.435 225.244 777.435 228.092 Q777.435 230.36 778.917 231.703 Q780.422 233.022 782.991 233.022 Q786.533 233.022 788.662 230.522 Q790.815 227.999 790.815 223.832 L790.815 222.883 L786.579 222.883 M795.074 221.124 L795.074 235.916 L790.815 235.916 L790.815 231.981 Q789.357 234.342 787.181 235.476 Q785.005 236.587 781.857 236.587 Q777.875 236.587 775.514 234.365 Q773.176 232.119 773.176 228.369 Q773.176 223.994 776.093 221.772 Q779.033 219.55 784.843 219.55 L790.815 219.55 L790.815 219.133 Q790.815 216.194 788.871 214.596 Q786.949 212.976 783.454 212.976 Q781.232 212.976 779.125 213.508 Q777.019 214.041 775.074 215.106 L775.074 211.17 Q777.412 210.268 779.611 209.828 Q781.81 209.365 783.894 209.365 Q789.519 209.365 792.296 212.282 Q795.074 215.198 795.074 221.124 Z" fill="#000000" fill-rule="nonzero" fill-opacity="1" /><path clip-path="url(#clip210)" d="M825.398 220.268 L825.398 235.916 L821.139 235.916 L821.139 220.407 Q821.139 216.726 819.704 214.897 Q818.269 213.069 815.398 213.069 Q811.949 213.069 809.958 215.268 Q807.968 217.467 807.968 221.263 L807.968 235.916 L803.685 235.916 L803.685 209.99 L807.968 209.99 L807.968 214.018 Q809.495 211.68 811.556 210.522 Q813.639 209.365 816.347 209.365 Q820.815 209.365 823.106 212.143 Q825.398 214.897 825.398 220.268 Z" fill="#000000" fill-rule="nonzero" fill-opacity="1" /><path clip-path="url(#clip210)" d="M852.551 210.985 L852.551 214.967 Q850.745 213.971 848.917 213.485 Q847.111 212.976 845.259 212.976 Q841.116 212.976 838.824 215.615 Q836.532 218.231 836.532 222.976 Q836.532 227.721 838.824 230.36 Q841.116 232.976 845.259 232.976 Q847.111 232.976 848.917 232.49 Q850.745 231.981 852.551 230.985 L852.551 234.92 Q850.768 235.754 848.847 236.17 Q846.949 236.587 844.796 236.587 Q838.94 236.587 835.491 232.906 Q832.042 229.226 832.042 222.976 Q832.042 216.633 835.514 212.999 Q839.009 209.365 845.074 209.365 Q847.042 209.365 848.917 209.782 Q850.792 210.175 852.551 210.985 Z" fill="#000000" fill-rule="nonzero" fill-opacity="1" /><path clip-path="url(#clip210)" d="M882.134 221.888 L882.134 223.971 L862.551 223.971 Q862.829 228.369 865.19 230.684 Q867.574 232.976 871.81 232.976 Q874.264 232.976 876.555 232.374 Q878.87 231.772 881.139 230.569 L881.139 234.596 Q878.847 235.568 876.44 236.078 Q874.032 236.587 871.555 236.587 Q865.352 236.587 861.717 232.976 Q858.106 229.365 858.106 223.207 Q858.106 216.842 861.532 213.115 Q864.981 209.365 870.815 209.365 Q876.046 209.365 879.078 212.745 Q882.134 216.101 882.134 221.888 M877.875 220.638 Q877.828 217.143 875.907 215.059 Q874.009 212.976 870.861 212.976 Q867.296 212.976 865.143 214.99 Q863.014 217.004 862.69 220.661 L877.875 220.638 Z" fill="#000000" fill-rule="nonzero" fill-opacity="1" /><polyline clip-path="url(#clip210)" style="stroke:#e26f46; stroke-linecap:round; stroke-linejoin:round; stroke-width:4; stroke-opacity:1; fill:none" points="313.865,270.476 456.113,270.476 "/>
<path clip-path="url(#clip210)" d="M483.756 251.529 L483.756 298.936 L479.821 298.936 L479.821 251.529 L483.756 251.529 Z" fill="#000000" fill-rule="nonzero" fill-opacity="1" /><path clip-path="url(#clip210)" d="M509.266 265.811 Q508.548 265.395 507.692 265.21 Q506.858 265.001 505.84 265.001 Q502.229 265.001 500.284 267.362 Q498.363 269.7 498.363 274.098 L498.363 287.756 L494.08 287.756 L494.08 261.83 L498.363 261.83 L498.363 265.858 Q499.705 263.497 501.858 262.362 Q504.011 261.205 507.09 261.205 Q507.529 261.205 508.062 261.274 Q508.594 261.321 509.242 261.436 L509.266 265.811 Z" fill="#000000" fill-rule="nonzero" fill-opacity="1" /><path clip-path="url(#clip210)" d="M533.432 295.626 L533.432 298.936 L508.803 298.936 L508.803 295.626 L533.432 295.626 Z" fill="#000000" fill-rule="nonzero" fill-opacity="1" /><path clip-path="url(#clip210)" d="M538.849 283.821 L546.488 283.821 L546.488 257.455 L538.177 259.122 L538.177 254.862 L546.441 253.196 L551.117 253.196 L551.117 283.821 L558.756 283.821 L558.756 287.756 L538.849 287.756 L538.849 283.821 Z" fill="#000000" fill-rule="nonzero" fill-opacity="1" /><path clip-path="url(#clip210)" d="M580.515 272.872 L592.992 272.872 L592.992 276.668 L580.515 276.668 L580.515 272.872 Z" fill="#000000" fill-rule="nonzero" fill-opacity="1" /><path clip-path="url(#clip210)" d="M629.867 265.811 Q629.149 265.395 628.293 265.21 Q627.459 265.001 626.441 265.001 Q622.83 265.001 620.885 267.362 Q618.964 269.7 618.964 274.098 L618.964 287.756 L614.682 287.756 L614.682 261.83 L618.964 261.83 L618.964 265.858 Q620.307 263.497 622.459 262.362 Q624.612 261.205 627.691 261.205 Q628.131 261.205 628.663 261.274 Q629.195 261.321 629.844 261.436 L629.867 265.811 Z" fill="#000000" fill-rule="nonzero" fill-opacity="1" /><path clip-path="url(#clip210)" d="M654.033 295.626 L654.033 298.936 L629.404 298.936 L629.404 295.626 L654.033 295.626 Z" fill="#000000" fill-rule="nonzero" fill-opacity="1" /><path clip-path="url(#clip210)" d="M662.668 283.821 L678.987 283.821 L678.987 287.756 L657.043 287.756 L657.043 283.821 Q659.705 281.066 664.288 276.436 Q668.894 271.784 670.075 270.441 Q672.32 267.918 673.2 266.182 Q674.103 264.423 674.103 262.733 Q674.103 259.978 672.158 258.242 Q670.237 256.506 667.135 256.506 Q664.936 256.506 662.482 257.27 Q660.052 258.034 657.274 259.585 L657.274 254.862 Q660.098 253.728 662.552 253.149 Q665.005 252.571 667.043 252.571 Q672.413 252.571 675.607 255.256 Q678.802 257.941 678.802 262.432 Q678.802 264.561 677.992 266.483 Q677.205 268.381 675.098 270.973 Q674.519 271.645 671.417 274.862 Q668.316 278.057 662.668 283.821 Z" fill="#000000" fill-rule="nonzero" fill-opacity="1" /><path clip-path="url(#clip210)" d="M693.686 251.529 L693.686 298.936 L689.751 298.936 L689.751 251.529 L693.686 251.529 Z" fill="#000000" fill-rule="nonzero" fill-opacity="1" /><polyline clip-path="url(#clip210)" style="stroke:#3da44d; stroke-linecap:round; stroke-linejoin:round; stroke-width:4; stroke-opacity:1; fill:none" points="313.865,322.316 456.113,322.316 "/>
<path clip-path="url(#clip210)" d="M483.756 303.369 L483.756 350.776 L479.821 350.776 L479.821 303.369 L483.756 303.369 Z" fill="#000000" fill-rule="nonzero" fill-opacity="1" /><path clip-path="url(#clip210)" d="M509.266 317.651 Q508.548 317.235 507.692 317.05 Q506.858 316.841 505.84 316.841 Q502.229 316.841 500.284 319.202 Q498.363 321.54 498.363 325.938 L498.363 339.596 L494.08 339.596 L494.08 313.67 L498.363 313.67 L498.363 317.698 Q499.705 315.337 501.858 314.202 Q504.011 313.045 507.09 313.045 Q507.529 313.045 508.062 313.114 Q508.594 313.161 509.242 313.276 L509.266 317.651 Z" fill="#000000" fill-rule="nonzero" fill-opacity="1" /><path clip-path="url(#clip210)" d="M533.432 347.466 L533.432 350.776 L508.803 350.776 L508.803 347.466 L533.432 347.466 Z" fill="#000000" fill-rule="nonzero" fill-opacity="1" /><path clip-path="url(#clip210)" d="M538.849 335.661 L546.488 335.661 L546.488 309.295 L538.177 310.962 L538.177 306.702 L546.441 305.036 L551.117 305.036 L551.117 335.661 L558.756 335.661 L558.756 339.596 L538.849 339.596 L538.849 335.661 Z" fill="#000000" fill-rule="nonzero" fill-opacity="1" /><path clip-path="url(#clip210)" d="M580.515 324.712 L592.992 324.712 L592.992 328.508 L580.515 328.508 L580.515 324.712 Z" fill="#000000" fill-rule="nonzero" fill-opacity="1" /><path clip-path="url(#clip210)" d="M629.867 317.651 Q629.149 317.235 628.293 317.05 Q627.459 316.841 626.441 316.841 Q622.83 316.841 620.885 319.202 Q618.964 321.54 618.964 325.938 L618.964 339.596 L614.682 339.596 L614.682 313.67 L618.964 313.67 L618.964 317.698 Q620.307 315.337 622.459 314.202 Q624.612 313.045 627.691 313.045 Q628.131 313.045 628.663 313.114 Q629.195 313.161 629.844 313.276 L629.867 317.651 Z" fill="#000000" fill-rule="nonzero" fill-opacity="1" /><path clip-path="url(#clip210)" d="M654.033 347.466 L654.033 350.776 L629.404 350.776 L629.404 347.466 L654.033 347.466 Z" fill="#000000" fill-rule="nonzero" fill-opacity="1" /><path clip-path="url(#clip210)" d="M672.806 320.962 Q676.163 321.679 678.038 323.948 Q679.936 326.216 679.936 329.549 Q679.936 334.665 676.417 337.466 Q672.899 340.267 666.418 340.267 Q664.242 340.267 661.927 339.827 Q659.635 339.411 657.181 338.554 L657.181 334.04 Q659.126 335.174 661.441 335.753 Q663.755 336.332 666.279 336.332 Q670.677 336.332 672.968 334.596 Q675.283 332.86 675.283 329.549 Q675.283 326.494 673.13 324.781 Q671.001 323.045 667.181 323.045 L663.154 323.045 L663.154 319.202 L667.367 319.202 Q670.816 319.202 672.644 317.837 Q674.473 316.448 674.473 313.855 Q674.473 311.193 672.575 309.781 Q670.7 308.346 667.181 308.346 Q665.26 308.346 663.061 308.763 Q660.862 309.179 658.223 310.059 L658.223 305.892 Q660.885 305.151 663.2 304.781 Q665.538 304.411 667.598 304.411 Q672.922 304.411 676.024 306.841 Q679.126 309.249 679.126 313.369 Q679.126 316.239 677.482 318.23 Q675.839 320.198 672.806 320.962 Z" fill="#000000" fill-rule="nonzero" fill-opacity="1" /><path clip-path="url(#clip210)" d="M693.686 303.369 L693.686 350.776 L689.751 350.776 L689.751 303.369 L693.686 303.369 Z" fill="#000000" fill-rule="nonzero" fill-opacity="1" /><polyline clip-path="url(#clip210)" style="stroke:#c271d2; stroke-linecap:round; stroke-linejoin:round; stroke-width:4; stroke-opacity:1; fill:none" points="313.865,374.156 456.113,374.156 "/>
<path clip-path="url(#clip210)" d="M483.756 355.209 L483.756 402.616 L479.821 402.616 L479.821 355.209 L483.756 355.209 Z" fill="#000000" fill-rule="nonzero" fill-opacity="1" /><path clip-path="url(#clip210)" d="M509.266 369.491 Q508.548 369.075 507.692 368.89 Q506.858 368.681 505.84 368.681 Q502.229 368.681 500.284 371.042 Q498.363 373.38 498.363 377.778 L498.363 391.436 L494.08 391.436 L494.08 365.51 L498.363 365.51 L498.363 369.538 Q499.705 367.177 501.858 366.042 Q504.011 364.885 507.09 364.885 Q507.529 364.885 508.062 364.954 Q508.594 365.001 509.242 365.116 L509.266 369.491 Z" fill="#000000" fill-rule="nonzero" fill-opacity="1" /><path clip-path="url(#clip210)" d="M533.432 399.306 L533.432 402.616 L508.803 402.616 L508.803 399.306 L533.432 399.306 Z" fill="#000000" fill-rule="nonzero" fill-opacity="1" /><path clip-path="url(#clip210)" d="M542.066 387.501 L558.386 387.501 L558.386 391.436 L536.441 391.436 L536.441 387.501 Q539.103 384.746 543.687 380.116 Q548.293 375.464 549.474 374.121 Q551.719 371.598 552.599 369.862 Q553.501 368.103 553.501 366.413 Q553.501 363.658 551.557 361.922 Q549.636 360.186 546.534 360.186 Q544.335 360.186 541.881 360.95 Q539.451 361.714 536.673 363.265 L536.673 358.542 Q539.497 357.408 541.951 356.829 Q544.404 356.251 546.441 356.251 Q551.812 356.251 555.006 358.936 Q558.201 361.621 558.201 366.112 Q558.201 368.241 557.39 370.163 Q556.603 372.061 554.497 374.653 Q553.918 375.325 550.816 378.542 Q547.714 381.737 542.066 387.501 Z" fill="#000000" fill-rule="nonzero" fill-opacity="1" /><path clip-path="url(#clip210)" d="M580.515 376.552 L592.992 376.552 L592.992 380.348 L580.515 380.348 L580.515 376.552 Z" fill="#000000" fill-rule="nonzero" fill-opacity="1" /><path clip-path="url(#clip210)" d="M629.867 369.491 Q629.149 369.075 628.293 368.89 Q627.459 368.681 626.441 368.681 Q622.83 368.681 620.885 371.042 Q618.964 373.38 618.964 377.778 L618.964 391.436 L614.682 391.436 L614.682 365.51 L618.964 365.51 L618.964 369.538 Q620.307 367.177 622.459 366.042 Q624.612 364.885 627.691 364.885 Q628.131 364.885 628.663 364.954 Q629.195 365.001 629.844 365.116 L629.867 369.491 Z" fill="#000000" fill-rule="nonzero" fill-opacity="1" /><path clip-path="url(#clip210)" d="M654.033 399.306 L654.033 402.616 L629.404 402.616 L629.404 399.306 L654.033 399.306 Z" fill="#000000" fill-rule="nonzero" fill-opacity="1" /><path clip-path="url(#clip210)" d="M662.668 387.501 L678.987 387.501 L678.987 391.436 L657.043 391.436 L657.043 387.501 Q659.705 384.746 664.288 380.116 Q668.894 375.464 670.075 374.121 Q672.32 371.598 673.2 369.862 Q674.103 368.103 674.103 366.413 Q674.103 363.658 672.158 361.922 Q670.237 360.186 667.135 360.186 Q664.936 360.186 662.482 360.95 Q660.052 361.714 657.274 363.265 L657.274 358.542 Q660.098 357.408 662.552 356.829 Q665.005 356.251 667.043 356.251 Q672.413 356.251 675.607 358.936 Q678.802 361.621 678.802 366.112 Q678.802 368.241 677.992 370.163 Q677.205 372.061 675.098 374.653 Q674.519 375.325 671.417 378.542 Q668.316 381.737 662.668 387.501 Z" fill="#000000" fill-rule="nonzero" fill-opacity="1" /><path clip-path="url(#clip210)" d="M693.686 355.209 L693.686 402.616 L689.751 402.616 L689.751 355.209 L693.686 355.209 Z" fill="#000000" fill-rule="nonzero" fill-opacity="1" /></svg>
