<?xml version="1.0" encoding="utf-8"?>
<svg xmlns="http://www.w3.org/2000/svg" xmlns:xlink="http://www.w3.org/1999/xlink" width="600" height="400" viewBox="0 0 2400 1600">
<defs>
  <clipPath id="clip390">
    <rect x="0" y="0" width="2400" height="1600"/>
  </clipPath>
</defs>
<path clip-path="url(#clip390)" d="M0 1600 L2400 1600 L2400 0 L0 0  Z" fill="#ffffff" fill-rule="evenodd" fill-opacity="1"/>
<defs>
  <clipPath id="clip391">
    <rect x="480" y="0" width="1681" height="1600"/>
  </clipPath>
</defs>
<path clip-path="url(#clip390)" d="M257.204 1423.18 L2352.76 1423.18 L2352.76 123.472 L257.204 123.472  Z" fill="#ffffff" fill-rule="evenodd" fill-opacity="1"/>
<defs>
  <clipPath id="clip392">
    <rect x="257" y="123" width="2097" height="1301"/>
  </clipPath>
</defs>
<polyline clip-path="url(#clip392)" style="stroke:#000000; stroke-linecap:round; stroke-linejoin:round; stroke-width:2; stroke-opacity:0.1; fill:none" points="316.512,1423.18 316.512,123.472 "/>
<polyline clip-path="url(#clip392)" style="stroke:#000000; stroke-linecap:round; stroke-linejoin:round; stroke-width:2; stroke-opacity:0.1; fill:none" points="711.899,1423.18 711.899,123.472 "/>
<polyline clip-path="url(#clip392)" style="stroke:#000000; stroke-linecap:round; stroke-linejoin:round; stroke-width:2; stroke-opacity:0.1; fill:none" points="1107.29,1423.18 1107.29,123.472 "/>
<polyline clip-path="url(#clip392)" style="stroke:#000000; stroke-linecap:round; stroke-linejoin:round; stroke-width:2; stroke-opacity:0.1; fill:none" points="1502.67,1423.18 1502.67,123.472 "/>
<polyline clip-path="url(#clip392)" style="stroke:#000000; stroke-linecap:round; stroke-linejoin:round; stroke-width:2; stroke-opacity:0.1; fill:none" points="1898.06,1423.18 1898.06,123.472 "/>
<polyline clip-path="url(#clip392)" style="stroke:#000000; stroke-linecap:round; stroke-linejoin:round; stroke-width:2; stroke-opacity:0.1; fill:none" points="2293.45,1423.18 2293.45,123.472 "/>
<polyline clip-path="url(#clip392)" style="stroke:#000000; stroke-linecap:round; stroke-linejoin:round; stroke-width:2; stroke-opacity:0.1; fill:none" points="257.204,1286.98 2352.76,1286.98 "/>
<polyline clip-path="url(#clip392)" style="stroke:#000000; stroke-linecap:round; stroke-linejoin:round; stroke-width:2; stroke-opacity:0.1; fill:none" points="257.204,1030.22 2352.76,1030.22 "/>
<polyline clip-path="url(#clip392)" style="stroke:#000000; stroke-linecap:round; stroke-linejoin:round; stroke-width:2; stroke-opacity:0.1; fill:none" points="257.204,773.451 2352.76,773.451 "/>
<polyline clip-path="url(#clip392)" style="stroke:#000000; stroke-linecap:round; stroke-linejoin:round; stroke-width:2; stroke-opacity:0.1; fill:none" points="257.204,516.685 2352.76,516.685 "/>
<polyline clip-path="url(#clip392)" style="stroke:#000000; stroke-linecap:round; stroke-linejoin:round; stroke-width:2; stroke-opacity:0.1; fill:none" points="257.204,259.918 2352.76,259.918 "/>
<polyline clip-path="url(#clip390)" style="stroke:#000000; stroke-linecap:round; stroke-linejoin:round; stroke-width:4; stroke-opacity:1; fill:none" points="257.204,1423.18 2352.76,1423.18 "/>
<polyline clip-path="url(#clip390)" style="stroke:#000000; stroke-linecap:round; stroke-linejoin:round; stroke-width:4; stroke-opacity:1; fill:none" points="316.512,1423.18 316.512,1404.28 "/>
<polyline clip-path="url(#clip390)" style="stroke:#000000; stroke-linecap:round; stroke-linejoin:round; stroke-width:4; stroke-opacity:1; fill:none" points="711.899,1423.18 711.899,1404.28 "/>
<polyline clip-path="url(#clip390)" style="stroke:#000000; stroke-linecap:round; stroke-linejoin:round; stroke-width:4; stroke-opacity:1; fill:none" points="1107.29,1423.18 1107.29,1404.28 "/>
<polyline clip-path="url(#clip390)" style="stroke:#000000; stroke-linecap:round; stroke-linejoin:round; stroke-width:4; stroke-opacity:1; fill:none" points="1502.67,1423.18 1502.67,1404.28 "/>
<polyline clip-path="url(#clip390)" style="stroke:#000000; stroke-linecap:round; stroke-linejoin:round; stroke-width:4; stroke-opacity:1; fill:none" points="1898.06,1423.18 1898.06,1404.28 "/>
<polyline clip-path="url(#clip390)" style="stroke:#000000; stroke-linecap:round; stroke-linejoin:round; stroke-width:4; stroke-opacity:1; fill:none" points="2293.45,1423.18 2293.45,1404.28 "/>
<path clip-path="url(#clip390)" d="M316.512 1454.1 Q312.901 1454.1 311.072 1457.66 Q309.267 1461.2 309.267 1468.33 Q309.267 1475.44 311.072 1479.01 Q312.901 1482.55 316.512 1482.55 Q320.146 1482.55 321.952 1479.01 Q323.781 1475.44 323.781 1468.33 Q323.781 1461.2 321.952 1457.66 Q320.146 1454.1 316.512 1454.1 M316.512 1450.39 Q322.322 1450.39 325.378 1455 Q328.456 1459.58 328.456 1468.33 Q328.456 1477.06 325.378 1481.67 Q322.322 1486.25 316.512 1486.25 Q310.702 1486.25 307.623 1481.67 Q304.568 1477.06 304.568 1468.33 Q304.568 1459.58 307.623 1455 Q310.702 1450.39 316.512 1450.39 Z" fill="#000000" fill-rule="nonzero" fill-opacity="1" /><path clip-path="url(#clip390)" d="M702.281 1481.64 L709.92 1481.64 L709.92 1455.28 L701.61 1456.95 L701.61 1452.69 L709.874 1451.02 L714.55 1451.02 L714.55 1481.64 L722.189 1481.64 L722.189 1485.58 L702.281 1485.58 L702.281 1481.64 Z" fill="#000000" fill-rule="nonzero" fill-opacity="1" /><path clip-path="url(#clip390)" d="M1101.94 1481.64 L1118.26 1481.64 L1118.26 1485.58 L1096.31 1485.58 L1096.31 1481.64 Q1098.98 1478.89 1103.56 1474.26 Q1108.17 1469.61 1109.35 1468.27 Q1111.59 1465.74 1112.47 1464.01 Q1113.37 1462.25 1113.37 1460.56 Q1113.37 1457.8 1111.43 1456.07 Q1109.51 1454.33 1106.41 1454.33 Q1104.21 1454.33 1101.75 1455.09 Q1099.32 1455.86 1096.55 1457.41 L1096.55 1452.69 Q1099.37 1451.55 1101.82 1450.97 Q1104.28 1450.39 1106.31 1450.39 Q1111.68 1450.39 1114.88 1453.08 Q1118.07 1455.77 1118.07 1460.26 Q1118.07 1462.39 1117.26 1464.31 Q1116.48 1466.2 1114.37 1468.8 Q1113.79 1469.47 1110.69 1472.69 Q1107.59 1475.88 1101.94 1481.64 Z" fill="#000000" fill-rule="nonzero" fill-opacity="1" /><path clip-path="url(#clip390)" d="M1506.92 1466.95 Q1510.28 1467.66 1512.15 1469.93 Q1514.05 1472.2 1514.05 1475.53 Q1514.05 1480.65 1510.53 1483.45 Q1507.01 1486.25 1500.53 1486.25 Q1498.36 1486.25 1496.04 1485.81 Q1493.75 1485.39 1491.3 1484.54 L1491.3 1480.02 Q1493.24 1481.16 1495.56 1481.74 Q1497.87 1482.32 1500.39 1482.32 Q1504.79 1482.32 1507.08 1480.58 Q1509.4 1478.84 1509.4 1475.53 Q1509.4 1472.48 1507.25 1470.77 Q1505.12 1469.03 1501.3 1469.03 L1497.27 1469.03 L1497.27 1465.19 L1501.48 1465.19 Q1504.93 1465.19 1506.76 1463.82 Q1508.59 1462.43 1508.59 1459.84 Q1508.59 1457.18 1506.69 1455.77 Q1504.81 1454.33 1501.3 1454.33 Q1499.37 1454.33 1497.18 1454.75 Q1494.98 1455.16 1492.34 1456.04 L1492.34 1451.88 Q1495 1451.14 1497.31 1450.77 Q1499.65 1450.39 1501.71 1450.39 Q1507.04 1450.39 1510.14 1452.83 Q1513.24 1455.23 1513.24 1459.35 Q1513.24 1462.22 1511.6 1464.21 Q1509.95 1466.18 1506.92 1466.95 Z" fill="#000000" fill-rule="nonzero" fill-opacity="1" /><path clip-path="url(#clip390)" d="M1901.07 1455.09 L1889.26 1473.54 L1901.07 1473.54 L1901.07 1455.09 M1899.84 1451.02 L1905.72 1451.02 L1905.72 1473.54 L1910.65 1473.54 L1910.65 1477.43 L1905.72 1477.43 L1905.72 1485.58 L1901.07 1485.58 L1901.07 1477.43 L1885.47 1477.43 L1885.47 1472.92 L1899.84 1451.02 Z" fill="#000000" fill-rule="nonzero" fill-opacity="1" /><path clip-path="url(#clip390)" d="M2283.73 1451.02 L2302.08 1451.02 L2302.08 1454.96 L2288.01 1454.96 L2288.01 1463.43 Q2289.03 1463.08 2290.05 1462.92 Q2291.06 1462.73 2292.08 1462.73 Q2297.87 1462.73 2301.25 1465.9 Q2304.63 1469.08 2304.63 1474.49 Q2304.63 1480.07 2301.16 1483.17 Q2297.68 1486.25 2291.36 1486.25 Q2289.19 1486.25 2286.92 1485.88 Q2284.67 1485.51 2282.27 1484.77 L2282.27 1480.07 Q2284.35 1481.2 2286.57 1481.76 Q2288.8 1482.32 2291.27 1482.32 Q2295.28 1482.32 2297.61 1480.21 Q2299.95 1478.1 2299.95 1474.49 Q2299.95 1470.88 2297.61 1468.77 Q2295.28 1466.67 2291.27 1466.67 Q2289.4 1466.67 2287.52 1467.08 Q2285.67 1467.5 2283.73 1468.38 L2283.73 1451.02 Z" fill="#000000" fill-rule="nonzero" fill-opacity="1" /><path clip-path="url(#clip390)" d="M1192.43 1522.27 L1192.43 1532.4 L1204.5 1532.4 L1204.5 1536.95 L1192.43 1536.95 L1192.43 1556.3 Q1192.43 1560.66 1193.61 1561.9 Q1194.82 1563.14 1198.48 1563.14 L1204.5 1563.14 L1204.5 1568.04 L1198.48 1568.04 Q1191.7 1568.04 1189.12 1565.53 Q1186.55 1562.98 1186.55 1556.3 L1186.55 1536.95 L1182.25 1536.95 L1182.25 1532.4 L1186.55 1532.4 L1186.55 1522.27 L1192.43 1522.27 Z" fill="#000000" fill-rule="nonzero" fill-opacity="1" /><path clip-path="url(#clip390)" d="M1212.2 1532.4 L1218.06 1532.4 L1218.06 1568.04 L1212.2 1568.04 L1212.2 1532.4 M1212.2 1518.52 L1218.06 1518.52 L1218.06 1525.93 L1212.2 1525.93 L1212.2 1518.52 Z" fill="#000000" fill-rule="nonzero" fill-opacity="1" /><path clip-path="url(#clip390)" d="M1258.06 1539.24 Q1260.26 1535.29 1263.32 1533.41 Q1266.37 1531.54 1270.51 1531.54 Q1276.08 1531.54 1279.1 1535.45 Q1282.13 1539.33 1282.13 1546.53 L1282.13 1568.04 L1276.24 1568.04 L1276.24 1546.72 Q1276.24 1541.59 1274.42 1539.11 Q1272.61 1536.63 1268.89 1536.63 Q1264.33 1536.63 1261.69 1539.65 Q1259.05 1542.68 1259.05 1547.9 L1259.05 1568.04 L1253.16 1568.04 L1253.16 1546.72 Q1253.16 1541.56 1251.35 1539.11 Q1249.53 1536.63 1245.75 1536.63 Q1241.26 1536.63 1238.62 1539.68 Q1235.98 1542.71 1235.98 1547.9 L1235.98 1568.04 L1230.09 1568.04 L1230.09 1532.4 L1235.98 1532.4 L1235.98 1537.93 Q1237.98 1534.66 1240.78 1533.1 Q1243.58 1531.54 1247.43 1531.54 Q1251.32 1531.54 1254.02 1533.51 Q1256.76 1535.48 1258.06 1539.24 Z" fill="#000000" fill-rule="nonzero" fill-opacity="1" /><path clip-path="url(#clip390)" d="M1324.3 1548.76 L1324.3 1551.62 L1297.37 1551.62 Q1297.75 1557.67 1301 1560.85 Q1304.28 1564 1310.1 1564 Q1313.48 1564 1316.63 1563.17 Q1319.81 1562.35 1322.93 1560.69 L1322.93 1566.23 Q1319.78 1567.57 1316.47 1568.27 Q1313.16 1568.97 1309.75 1568.97 Q1301.22 1568.97 1296.23 1564 Q1291.26 1559.04 1291.26 1550.57 Q1291.26 1541.82 1295.97 1536.69 Q1300.71 1531.54 1308.74 1531.54 Q1315.93 1531.54 1320.1 1536.18 Q1324.3 1540.8 1324.3 1548.76 M1318.44 1547.04 Q1318.38 1542.23 1315.74 1539.37 Q1313.13 1536.5 1308.8 1536.5 Q1303.9 1536.5 1300.94 1539.27 Q1298.01 1542.04 1297.56 1547.07 L1318.44 1547.04 Z" fill="#000000" fill-rule="nonzero" fill-opacity="1" /><path clip-path="url(#clip390)" d="M1368.7 1518.58 Q1364.44 1525.9 1362.37 1533.06 Q1360.3 1540.23 1360.3 1547.58 Q1360.3 1554.93 1362.37 1562.16 Q1364.47 1569.35 1368.7 1576.64 L1363.61 1576.64 Q1358.83 1569.16 1356.45 1561.93 Q1354.09 1554.71 1354.09 1547.58 Q1354.09 1540.48 1356.45 1533.29 Q1358.8 1526.09 1363.61 1518.58 L1368.7 1518.58 Z" fill="#000000" fill-rule="nonzero" fill-opacity="1" /><path clip-path="url(#clip390)" d="M1402.79 1533.45 L1402.79 1538.98 Q1400.31 1537.71 1397.63 1537.07 Q1394.96 1536.44 1392.09 1536.44 Q1387.73 1536.44 1385.54 1537.77 Q1383.37 1539.11 1383.37 1541.79 Q1383.37 1543.82 1384.93 1545 Q1386.49 1546.15 1391.2 1547.2 L1393.21 1547.64 Q1399.45 1548.98 1402.06 1551.43 Q1404.7 1553.85 1404.7 1558.21 Q1404.7 1563.17 1400.75 1566.07 Q1396.84 1568.97 1389.96 1568.97 Q1387.1 1568.97 1383.98 1568.39 Q1380.89 1567.85 1377.45 1566.74 L1377.45 1560.69 Q1380.7 1562.38 1383.85 1563.24 Q1387 1564.07 1390.09 1564.07 Q1394.23 1564.07 1396.46 1562.66 Q1398.68 1561.23 1398.68 1558.65 Q1398.68 1556.27 1397.06 1554.99 Q1395.47 1553.72 1390.03 1552.54 L1387.99 1552.07 Q1382.55 1550.92 1380.13 1548.56 Q1377.71 1546.18 1377.71 1542.04 Q1377.71 1537.01 1381.27 1534.27 Q1384.84 1531.54 1391.39 1531.54 Q1394.64 1531.54 1397.51 1532.01 Q1400.37 1532.49 1402.79 1533.45 Z" fill="#000000" fill-rule="nonzero" fill-opacity="1" /><path clip-path="url(#clip390)" d="M1413.1 1518.58 L1418.19 1518.58 Q1422.97 1526.09 1425.32 1533.29 Q1427.71 1540.48 1427.71 1547.58 Q1427.71 1554.71 1425.32 1561.93 Q1422.97 1569.16 1418.19 1576.64 L1413.1 1576.64 Q1417.33 1569.35 1419.4 1562.16 Q1421.5 1554.93 1421.5 1547.58 Q1421.5 1540.23 1419.4 1533.06 Q1417.33 1525.9 1413.1 1518.58 Z" fill="#000000" fill-rule="nonzero" fill-opacity="1" /><polyline clip-path="url(#clip390)" style="stroke:#000000; stroke-linecap:round; stroke-linejoin:round; stroke-width:4; stroke-opacity:1; fill:none" points="257.204,1423.18 257.204,123.472 "/>
<polyline clip-path="url(#clip390)" style="stroke:#000000; stroke-linecap:round; stroke-linejoin:round; stroke-width:4; stroke-opacity:1; fill:none" points="257.204,1286.98 276.102,1286.98 "/>
<polyline clip-path="url(#clip390)" style="stroke:#000000; stroke-linecap:round; stroke-linejoin:round; stroke-width:4; stroke-opacity:1; fill:none" points="257.204,1030.22 276.102,1030.22 "/>
<polyline clip-path="url(#clip390)" style="stroke:#000000; stroke-linecap:round; stroke-linejoin:round; stroke-width:4; stroke-opacity:1; fill:none" points="257.204,773.451 276.102,773.451 "/>
<polyline clip-path="url(#clip390)" style="stroke:#000000; stroke-linecap:round; stroke-linejoin:round; stroke-width:4; stroke-opacity:1; fill:none" points="257.204,516.685 276.102,516.685 "/>
<polyline clip-path="url(#clip390)" style="stroke:#000000; stroke-linecap:round; stroke-linejoin:round; stroke-width:4; stroke-opacity:1; fill:none" points="257.204,259.918 276.102,259.918 "/>
<path clip-path="url(#clip390)" d="M114.26 1287.44 L143.936 1287.44 L143.936 1291.37 L114.26 1291.37 L114.26 1287.44 Z" fill="#000000" fill-rule="nonzero" fill-opacity="1" /><path clip-path="url(#clip390)" d="M154.075 1269.7 L172.431 1269.7 L172.431 1273.64 L158.357 1273.64 L158.357 1282.11 Q159.376 1281.76 160.394 1281.6 Q161.413 1281.42 162.431 1281.42 Q168.218 1281.42 171.598 1284.59 Q174.977 1287.76 174.977 1293.18 Q174.977 1298.75 171.505 1301.86 Q168.033 1304.94 161.714 1304.94 Q159.538 1304.94 157.269 1304.56 Q155.024 1304.19 152.616 1303.45 L152.616 1298.75 Q154.7 1299.89 156.922 1300.44 Q159.144 1301 161.621 1301 Q165.626 1301 167.964 1298.89 Q170.302 1296.79 170.302 1293.18 Q170.302 1289.56 167.964 1287.46 Q165.626 1285.35 161.621 1285.35 Q159.746 1285.35 157.871 1285.77 Q156.019 1286.19 154.075 1287.06 L154.075 1269.7 Z" fill="#000000" fill-rule="nonzero" fill-opacity="1" /><path clip-path="url(#clip390)" d="M184.19 1298.38 L189.075 1298.38 L189.075 1304.26 L184.19 1304.26 L184.19 1298.38 Z" fill="#000000" fill-rule="nonzero" fill-opacity="1" /><path clip-path="url(#clip390)" d="M209.26 1272.78 Q205.649 1272.78 203.82 1276.35 Q202.014 1279.89 202.014 1287.02 Q202.014 1294.12 203.82 1297.69 Q205.649 1301.23 209.26 1301.23 Q212.894 1301.23 214.699 1297.69 Q216.528 1294.12 216.528 1287.02 Q216.528 1279.89 214.699 1276.35 Q212.894 1272.78 209.26 1272.78 M209.26 1269.08 Q215.07 1269.08 218.125 1273.69 Q221.204 1278.27 221.204 1287.02 Q221.204 1295.75 218.125 1300.35 Q215.07 1304.94 209.26 1304.94 Q203.449 1304.94 200.371 1300.35 Q197.315 1295.75 197.315 1287.02 Q197.315 1278.27 200.371 1273.69 Q203.449 1269.08 209.26 1269.08 Z" fill="#000000" fill-rule="nonzero" fill-opacity="1" /><path clip-path="url(#clip390)" d="M115.256 1030.67 L144.931 1030.67 L144.931 1034.6 L115.256 1034.6 L115.256 1030.67 Z" fill="#000000" fill-rule="nonzero" fill-opacity="1" /><path clip-path="url(#clip390)" d="M159.052 1043.56 L175.371 1043.56 L175.371 1047.5 L153.427 1047.5 L153.427 1043.56 Q156.089 1040.81 160.672 1036.18 Q165.278 1031.53 166.459 1030.18 Q168.704 1027.66 169.584 1025.92 Q170.487 1024.16 170.487 1022.47 Q170.487 1019.72 168.542 1017.98 Q166.621 1016.25 163.519 1016.25 Q161.32 1016.25 158.866 1017.01 Q156.436 1017.78 153.658 1019.33 L153.658 1014.6 Q156.482 1013.47 158.936 1012.89 Q161.39 1012.31 163.427 1012.31 Q168.797 1012.31 171.991 1015 Q175.186 1017.68 175.186 1022.17 Q175.186 1024.3 174.376 1026.22 Q173.589 1028.12 171.482 1030.72 Q170.903 1031.39 167.802 1034.6 Q164.7 1037.8 159.052 1043.56 Z" fill="#000000" fill-rule="nonzero" fill-opacity="1" /><path clip-path="url(#clip390)" d="M185.186 1041.62 L190.07 1041.62 L190.07 1047.5 L185.186 1047.5 L185.186 1041.62 Z" fill="#000000" fill-rule="nonzero" fill-opacity="1" /><path clip-path="url(#clip390)" d="M200.301 1012.94 L218.658 1012.94 L218.658 1016.87 L204.584 1016.87 L204.584 1025.34 Q205.602 1025 206.621 1024.84 Q207.639 1024.65 208.658 1024.65 Q214.445 1024.65 217.824 1027.82 Q221.204 1030.99 221.204 1036.41 Q221.204 1041.99 217.732 1045.09 Q214.26 1048.17 207.94 1048.17 Q205.764 1048.17 203.496 1047.8 Q201.25 1047.43 198.843 1046.69 L198.843 1041.99 Q200.926 1043.12 203.149 1043.68 Q205.371 1044.23 207.848 1044.23 Q211.852 1044.23 214.19 1042.13 Q216.528 1040.02 216.528 1036.41 Q216.528 1032.8 214.19 1030.69 Q211.852 1028.59 207.848 1028.59 Q205.973 1028.59 204.098 1029 Q202.246 1029.42 200.301 1030.3 L200.301 1012.94 Z" fill="#000000" fill-rule="nonzero" fill-opacity="1" /><path clip-path="url(#clip390)" d="M164.028 759.25 Q160.417 759.25 158.589 762.814 Q156.783 766.356 156.783 773.486 Q156.783 780.592 158.589 784.157 Q160.417 787.699 164.028 787.699 Q167.663 787.699 169.468 784.157 Q171.297 780.592 171.297 773.486 Q171.297 766.356 169.468 762.814 Q167.663 759.25 164.028 759.25 M164.028 755.546 Q169.839 755.546 172.894 760.152 Q175.973 764.736 175.973 773.486 Q175.973 782.212 172.894 786.819 Q169.839 791.402 164.028 791.402 Q158.218 791.402 155.14 786.819 Q152.084 782.212 152.084 773.486 Q152.084 764.736 155.14 760.152 Q158.218 755.546 164.028 755.546 Z" fill="#000000" fill-rule="nonzero" fill-opacity="1" /><path clip-path="url(#clip390)" d="M184.19 784.851 L189.075 784.851 L189.075 790.731 L184.19 790.731 L184.19 784.851 Z" fill="#000000" fill-rule="nonzero" fill-opacity="1" /><path clip-path="url(#clip390)" d="M209.26 759.25 Q205.649 759.25 203.82 762.814 Q202.014 766.356 202.014 773.486 Q202.014 780.592 203.82 784.157 Q205.649 787.699 209.26 787.699 Q212.894 787.699 214.699 784.157 Q216.528 780.592 216.528 773.486 Q216.528 766.356 214.699 762.814 Q212.894 759.25 209.26 759.25 M209.26 755.546 Q215.07 755.546 218.125 760.152 Q221.204 764.736 221.204 773.486 Q221.204 782.212 218.125 786.819 Q215.07 791.402 209.26 791.402 Q203.449 791.402 200.371 786.819 Q197.315 782.212 197.315 773.486 Q197.315 764.736 200.371 760.152 Q203.449 755.546 209.26 755.546 Z" fill="#000000" fill-rule="nonzero" fill-opacity="1" /><path clip-path="url(#clip390)" d="M159.052 530.029 L175.371 530.029 L175.371 533.965 L153.427 533.965 L153.427 530.029 Q156.089 527.275 160.672 522.645 Q165.278 517.992 166.459 516.65 Q168.704 514.127 169.584 512.391 Q170.487 510.631 170.487 508.942 Q170.487 506.187 168.542 504.451 Q166.621 502.715 163.519 502.715 Q161.32 502.715 158.866 503.479 Q156.436 504.243 153.658 505.793 L153.658 501.071 Q156.482 499.937 158.936 499.358 Q161.39 498.78 163.427 498.78 Q168.797 498.78 171.991 501.465 Q175.186 504.15 175.186 508.641 Q175.186 510.77 174.376 512.692 Q173.589 514.59 171.482 517.182 Q170.903 517.854 167.802 521.071 Q164.7 524.266 159.052 530.029 Z" fill="#000000" fill-rule="nonzero" fill-opacity="1" /><path clip-path="url(#clip390)" d="M185.186 528.085 L190.07 528.085 L190.07 533.965 L185.186 533.965 L185.186 528.085 Z" fill="#000000" fill-rule="nonzero" fill-opacity="1" /><path clip-path="url(#clip390)" d="M200.301 499.405 L218.658 499.405 L218.658 503.34 L204.584 503.34 L204.584 511.812 Q205.602 511.465 206.621 511.303 Q207.639 511.117 208.658 511.117 Q214.445 511.117 217.824 514.289 Q221.204 517.46 221.204 522.877 Q221.204 528.455 217.732 531.557 Q214.26 534.636 207.94 534.636 Q205.764 534.636 203.496 534.266 Q201.25 533.895 198.843 533.154 L198.843 528.455 Q200.926 529.59 203.149 530.145 Q205.371 530.701 207.848 530.701 Q211.852 530.701 214.19 528.594 Q216.528 526.488 216.528 522.877 Q216.528 519.266 214.19 517.159 Q211.852 515.053 207.848 515.053 Q205.973 515.053 204.098 515.469 Q202.246 515.886 200.301 516.766 L200.301 499.405 Z" fill="#000000" fill-rule="nonzero" fill-opacity="1" /><path clip-path="url(#clip390)" d="M154.075 242.638 L172.431 242.638 L172.431 246.573 L158.357 246.573 L158.357 255.046 Q159.376 254.698 160.394 254.536 Q161.413 254.351 162.431 254.351 Q168.218 254.351 171.598 257.522 Q174.977 260.694 174.977 266.11 Q174.977 271.689 171.505 274.791 Q168.033 277.87 161.714 277.87 Q159.538 277.87 157.269 277.499 Q155.024 277.129 152.616 276.388 L152.616 271.689 Q154.7 272.823 156.922 273.379 Q159.144 273.934 161.621 273.934 Q165.626 273.934 167.964 271.828 Q170.302 269.721 170.302 266.11 Q170.302 262.499 167.964 260.393 Q165.626 258.286 161.621 258.286 Q159.746 258.286 157.871 258.703 Q156.019 259.12 154.075 259.999 L154.075 242.638 Z" fill="#000000" fill-rule="nonzero" fill-opacity="1" /><path clip-path="url(#clip390)" d="M184.19 271.319 L189.075 271.319 L189.075 277.198 L184.19 277.198 L184.19 271.319 Z" fill="#000000" fill-rule="nonzero" fill-opacity="1" /><path clip-path="url(#clip390)" d="M209.26 245.717 Q205.649 245.717 203.82 249.282 Q202.014 252.823 202.014 259.953 Q202.014 267.059 203.82 270.624 Q205.649 274.166 209.26 274.166 Q212.894 274.166 214.699 270.624 Q216.528 267.059 216.528 259.953 Q216.528 252.823 214.699 249.282 Q212.894 245.717 209.26 245.717 M209.26 242.013 Q215.07 242.013 218.125 246.62 Q221.204 251.203 221.204 259.953 Q221.204 268.68 218.125 273.286 Q215.07 277.87 209.26 277.87 Q203.449 277.87 200.371 273.286 Q197.315 268.68 197.315 259.953 Q197.315 251.203 200.371 246.62 Q203.449 242.013 209.26 242.013 Z" fill="#000000" fill-rule="nonzero" fill-opacity="1" /><path clip-path="url(#clip390)" d="M58.657 958.313 L77.5631 958.313 L77.5631 964.202 L28.3562 964.202 L28.3562 958.313 L33.7671 958.313 Q30.5842 956.467 29.0564 953.666 Q27.4968 950.834 27.4968 946.919 Q27.4968 940.426 32.6531 936.384 Q37.8093 932.31 46.212 932.31 Q54.6147 932.31 59.771 936.384 Q64.9272 940.426 64.9272 946.919 Q64.9272 950.834 63.3994 953.666 Q61.8398 956.467 58.657 958.313 M46.212 938.389 Q39.7508 938.389 36.0905 941.062 Q32.3984 943.704 32.3984 948.351 Q32.3984 952.998 36.0905 955.672 Q39.7508 958.313 46.212 958.313 Q52.6732 958.313 56.3653 955.672 Q60.0256 952.998 60.0256 948.351 Q60.0256 943.704 56.3653 941.062 Q52.6732 938.389 46.212 938.389 Z" fill="#000000" fill-rule="nonzero" fill-opacity="1" /><path clip-path="url(#clip390)" d="M32.4621 908.788 Q32.4621 913.499 36.1542 916.236 Q39.8145 918.973 46.212 918.973 Q52.6095 918.973 56.3017 916.268 Q59.9619 913.531 59.9619 908.788 Q59.9619 904.109 56.2698 901.372 Q52.5777 898.635 46.212 898.635 Q39.8781 898.635 36.186 901.372 Q32.4621 904.109 32.4621 908.788 M27.4968 908.788 Q27.4968 901.149 32.4621 896.789 Q37.4273 892.428 46.212 892.428 Q54.9649 892.428 59.9619 896.789 Q64.9272 901.149 64.9272 908.788 Q64.9272 916.459 59.9619 920.819 Q54.9649 925.148 46.212 925.148 Q37.4273 925.148 32.4621 920.819 Q27.4968 916.459 27.4968 908.788 Z" fill="#000000" fill-rule="nonzero" fill-opacity="1" /><path clip-path="url(#clip390)" d="M29.4065 859.995 L34.9447 859.995 Q33.6716 862.478 33.035 865.151 Q32.3984 867.825 32.3984 870.689 Q32.3984 875.05 33.7352 877.246 Q35.072 879.41 37.7456 879.41 Q39.7826 879.41 40.9603 877.851 Q42.1061 876.291 43.1565 871.581 L43.6021 869.575 Q44.9389 863.337 47.3897 860.727 Q49.8086 858.085 54.1691 858.085 Q59.1344 858.085 62.0308 862.032 Q64.9272 865.947 64.9272 872.822 Q64.9272 875.687 64.3543 878.806 Q63.8132 881.893 62.6992 885.331 L56.6518 885.331 Q58.3387 882.084 59.198 878.933 Q60.0256 875.782 60.0256 872.695 Q60.0256 868.557 58.6251 866.329 Q57.1929 864.101 54.6147 864.101 Q52.2276 864.101 50.9545 865.724 Q49.6813 867.316 48.5037 872.758 L48.0262 874.795 Q46.8804 880.238 44.5251 882.657 Q42.138 885.076 38.0002 885.076 Q32.9713 885.076 30.2341 881.511 Q27.4968 877.946 27.4968 871.39 Q27.4968 868.143 27.9743 865.279 Q28.4517 862.414 29.4065 859.995 Z" fill="#000000" fill-rule="nonzero" fill-opacity="1" /><path clip-path="url(#clip390)" d="M28.3562 848.76 L28.3562 842.903 L64.0042 842.903 L64.0042 848.76 L28.3562 848.76 M14.479 848.76 L14.479 842.903 L21.895 842.903 L21.895 848.76 L14.479 848.76 Z" fill="#000000" fill-rule="nonzero" fill-opacity="1" /><path clip-path="url(#clip390)" d="M18.2347 824.856 L28.3562 824.856 L28.3562 812.793 L32.9077 812.793 L32.9077 824.856 L52.2594 824.856 Q56.6199 824.856 57.8613 823.679 Q59.1026 822.469 59.1026 818.809 L59.1026 812.793 L64.0042 812.793 L64.0042 818.809 Q64.0042 825.588 61.4897 828.167 Q58.9434 830.745 52.2594 830.745 L32.9077 830.745 L32.9077 835.042 L28.3562 835.042 L28.3562 830.745 L18.2347 830.745 L18.2347 824.856 Z" fill="#000000" fill-rule="nonzero" fill-opacity="1" /><path clip-path="url(#clip390)" d="M28.3562 805.091 L28.3562 799.234 L64.0042 799.234 L64.0042 805.091 L28.3562 805.091 M14.479 805.091 L14.479 799.234 L21.895 799.234 L21.895 805.091 L14.479 805.091 Z" fill="#000000" fill-rule="nonzero" fill-opacity="1" /><path clip-path="url(#clip390)" d="M32.4621 773.167 Q32.4621 777.877 36.1542 780.615 Q39.8145 783.352 46.212 783.352 Q52.6095 783.352 56.3017 780.647 Q59.9619 777.909 59.9619 773.167 Q59.9619 768.488 56.2698 765.751 Q52.5777 763.014 46.212 763.014 Q39.8781 763.014 36.186 765.751 Q32.4621 768.488 32.4621 773.167 M27.4968 773.167 Q27.4968 765.528 32.4621 761.167 Q37.4273 756.807 46.212 756.807 Q54.9649 756.807 59.9619 761.167 Q64.9272 765.528 64.9272 773.167 Q64.9272 780.838 59.9619 785.198 Q54.9649 789.527 46.212 789.527 Q37.4273 789.527 32.4621 785.198 Q27.4968 780.838 27.4968 773.167 Z" fill="#000000" fill-rule="nonzero" fill-opacity="1" /><path clip-path="url(#clip390)" d="M42.4881 717.467 L64.0042 717.467 L64.0042 723.323 L42.679 723.323 Q37.6183 723.323 35.1038 725.297 Q32.5894 727.27 32.5894 731.217 Q32.5894 735.959 35.6131 738.697 Q38.6368 741.434 43.8567 741.434 L64.0042 741.434 L64.0042 747.322 L28.3562 747.322 L28.3562 741.434 L33.8944 741.434 Q30.6797 739.333 29.0883 736.5 Q27.4968 733.636 27.4968 729.912 Q27.4968 723.769 31.3163 720.618 Q35.1038 717.467 42.4881 717.467 Z" fill="#000000" fill-rule="nonzero" fill-opacity="1" /><path clip-path="url(#clip390)" d="M14.5426 670.997 Q21.8632 675.262 29.0246 677.331 Q36.186 679.4 43.5384 679.4 Q50.8908 679.4 58.1159 677.331 Q65.3091 675.23 72.5979 670.997 L72.5979 676.09 Q65.1182 680.864 57.8931 683.251 Q50.668 685.607 43.5384 685.607 Q36.4406 685.607 29.2474 683.251 Q22.0542 680.896 14.5426 676.09 L14.5426 670.997 Z" fill="#000000" fill-rule="nonzero" fill-opacity="1" /><path clip-path="url(#clip390)" d="M35.1993 631.88 Q31.2526 629.684 29.3747 626.628 Q27.4968 623.573 27.4968 619.435 Q27.4968 613.865 31.4117 610.841 Q35.2948 607.818 42.4881 607.818 L64.0042 607.818 L64.0042 613.706 L42.679 613.706 Q37.5546 613.706 35.072 615.52 Q32.5894 617.334 32.5894 621.058 Q32.5894 625.61 35.6131 628.252 Q38.6368 630.893 43.8567 630.893 L64.0042 630.893 L64.0042 636.782 L42.679 636.782 Q37.5228 636.782 35.072 638.596 Q32.5894 640.41 32.5894 644.198 Q32.5894 648.685 35.6449 651.327 Q38.6686 653.969 43.8567 653.969 L64.0042 653.969 L64.0042 659.857 L28.3562 659.857 L28.3562 653.969 L33.8944 653.969 Q30.616 651.964 29.0564 649.163 Q27.4968 646.362 27.4968 642.511 Q27.4968 638.628 29.4702 635.922 Q31.4436 633.185 35.1993 631.88 Z" fill="#000000" fill-rule="nonzero" fill-opacity="1" /><path clip-path="url(#clip390)" d="M14.5426 597.06 L14.5426 591.967 Q22.0542 587.193 29.2474 584.837 Q36.4406 582.45 43.5384 582.45 Q50.668 582.45 57.8931 584.837 Q65.1182 587.193 72.5979 591.967 L72.5979 597.06 Q65.3091 592.826 58.1159 590.758 Q50.8908 588.657 43.5384 588.657 Q36.186 588.657 29.0246 590.758 Q21.8632 592.826 14.5426 597.06 Z" fill="#000000" fill-rule="nonzero" fill-opacity="1" /><path clip-path="url(#clip390)" d="M1159.25 18.8205 L1159.25 41.5461 L1169.54 41.5461 Q1175.25 41.5461 1178.37 38.5889 Q1181.49 35.6318 1181.49 30.163 Q1181.49 24.7348 1178.37 21.7777 Q1175.25 18.8205 1169.54 18.8205 L1159.25 18.8205 M1151.07 12.096 L1169.54 12.096 Q1179.71 12.096 1184.89 16.714 Q1190.12 21.2916 1190.12 30.163 Q1190.12 39.1155 1184.89 43.6931 Q1179.71 48.2706 1169.54 48.2706 L1159.25 48.2706 L1159.25 72.576 L1151.07 72.576 L1151.07 12.096 Z" fill="#000000" fill-rule="nonzero" fill-opacity="1" /><path clip-path="url(#clip390)" d="M1215.39 32.4315 Q1209.4 32.4315 1205.92 37.1306 Q1202.43 41.7891 1202.43 49.9314 Q1202.43 58.0738 1205.87 62.7728 Q1209.36 67.4314 1215.39 67.4314 Q1221.35 67.4314 1224.83 62.7323 Q1228.32 58.0333 1228.32 49.9314 Q1228.32 41.8701 1224.83 37.1711 Q1221.35 32.4315 1215.39 32.4315 M1215.39 26.1121 Q1225.12 26.1121 1230.67 32.4315 Q1236.22 38.7509 1236.22 49.9314 Q1236.22 61.0714 1230.67 67.4314 Q1225.12 73.7508 1215.39 73.7508 Q1205.63 73.7508 1200.08 67.4314 Q1194.57 61.0714 1194.57 49.9314 Q1194.57 38.7509 1200.08 32.4315 Q1205.63 26.1121 1215.39 26.1121 Z" fill="#000000" fill-rule="nonzero" fill-opacity="1" /><path clip-path="url(#clip390)" d="M1277.49 28.5427 L1277.49 35.5912 Q1274.33 33.9709 1270.93 33.1607 Q1267.53 32.3505 1263.88 32.3505 Q1258.33 32.3505 1255.54 34.0519 Q1252.78 35.7533 1252.78 39.156 Q1252.78 41.7486 1254.77 43.2475 Q1256.75 44.7058 1262.75 46.0426 L1265.3 46.6097 Q1273.24 48.3111 1276.56 51.4303 Q1279.93 54.509 1279.93 60.0587 Q1279.93 66.3781 1274.9 70.0644 Q1269.92 73.7508 1261.17 73.7508 Q1257.52 73.7508 1253.55 73.0216 Q1249.62 72.3329 1245.25 70.9151 L1245.25 63.2184 Q1249.38 65.3654 1253.39 66.4591 Q1257.4 67.5124 1261.33 67.5124 Q1266.6 67.5124 1269.43 65.73 Q1272.27 63.9071 1272.27 60.6258 Q1272.27 57.5877 1270.2 55.9673 Q1268.18 54.3469 1261.25 52.8481 L1258.66 52.2405 Q1251.73 50.7821 1248.65 47.7845 Q1245.57 44.7463 1245.57 39.4801 Q1245.57 33.0797 1250.11 29.5959 Q1254.65 26.1121 1262.99 26.1121 Q1267.12 26.1121 1270.77 26.7198 Q1274.42 27.3274 1277.49 28.5427 Z" fill="#000000" fill-rule="nonzero" fill-opacity="1" /><path clip-path="url(#clip390)" d="M1291.79 27.2059 L1299.25 27.2059 L1299.25 72.576 L1291.79 72.576 L1291.79 27.2059 M1291.79 9.54393 L1299.25 9.54393 L1299.25 18.9825 L1291.79 18.9825 L1291.79 9.54393 Z" fill="#000000" fill-rule="nonzero" fill-opacity="1" /><path clip-path="url(#clip390)" d="M1322.22 14.324 L1322.22 27.2059 L1337.57 27.2059 L1337.57 32.9987 L1322.22 32.9987 L1322.22 57.6282 Q1322.22 63.1779 1323.72 64.7578 Q1325.25 66.3376 1329.91 66.3376 L1337.57 66.3376 L1337.57 72.576 L1329.91 72.576 Q1321.28 72.576 1318 69.3758 Q1314.72 66.1351 1314.72 57.6282 L1314.72 32.9987 L1309.25 32.9987 L1309.25 27.2059 L1314.72 27.2059 L1314.72 14.324 L1322.22 14.324 Z" fill="#000000" fill-rule="nonzero" fill-opacity="1" /><path clip-path="url(#clip390)" d="M1347.37 27.2059 L1354.83 27.2059 L1354.83 72.576 L1347.37 72.576 L1347.37 27.2059 M1347.37 9.54393 L1354.83 9.54393 L1354.83 18.9825 L1347.37 18.9825 L1347.37 9.54393 Z" fill="#000000" fill-rule="nonzero" fill-opacity="1" /><path clip-path="url(#clip390)" d="M1388 32.4315 Q1382.01 32.4315 1378.52 37.1306 Q1375.04 41.7891 1375.04 49.9314 Q1375.04 58.0738 1378.48 62.7728 Q1381.97 67.4314 1388 67.4314 Q1393.96 67.4314 1397.44 62.7323 Q1400.93 58.0333 1400.93 49.9314 Q1400.93 41.8701 1397.44 37.1711 Q1393.96 32.4315 1388 32.4315 M1388 26.1121 Q1397.73 26.1121 1403.28 32.4315 Q1408.82 38.7509 1408.82 49.9314 Q1408.82 61.0714 1403.28 67.4314 Q1397.73 73.7508 1388 73.7508 Q1378.24 73.7508 1372.69 67.4314 Q1367.18 61.0714 1367.18 49.9314 Q1367.18 38.7509 1372.69 32.4315 Q1378.24 26.1121 1388 26.1121 Z" fill="#000000" fill-rule="nonzero" fill-opacity="1" /><path clip-path="url(#clip390)" d="M1458.89 45.1919 L1458.89 72.576 L1451.44 72.576 L1451.44 45.4349 Q1451.44 38.994 1448.93 35.7938 Q1446.42 32.5936 1441.39 32.5936 Q1435.36 32.5936 1431.87 36.4419 Q1428.39 40.2903 1428.39 46.9338 L1428.39 72.576 L1420.9 72.576 L1420.9 27.2059 L1428.39 27.2059 L1428.39 34.2544 Q1431.06 30.163 1434.67 28.1376 Q1438.32 26.1121 1443.06 26.1121 Q1450.87 26.1121 1454.88 30.9732 Q1458.89 35.7938 1458.89 45.1919 Z" fill="#000000" fill-rule="nonzero" fill-opacity="1" /><polyline clip-path="url(#clip392)" style="stroke:#009af9; stroke-linecap:round; stroke-linejoin:round; stroke-width:4; stroke-opacity:1; fill:none" points="316.512,773.451 336.281,734.762 356.051,696.146 375.82,657.772 395.59,619.84 415.359,582.551 435.128,546.08 454.898,510.578 474.667,476.172 494.436,442.977 514.206,411.101 533.975,380.648 553.744,351.724 573.514,324.439 593.283,298.905 613.052,275.239 632.822,253.557 652.591,233.97 672.361,216.579 692.13,201.467 711.899,188.694 731.669,178.291 751.438,170.264 771.207,164.597 790.977,161.268 810.746,160.256 830.515,161.556 850.285,165.178 870.054,171.144 889.823,179.479 909.593,190.197 929.362,203.29 949.132,218.726 968.901,236.442 988.67,256.354 1008.44,278.363 1028.21,302.358 1047.98,328.223 1067.75,355.843 1087.52,385.102 1107.29,415.88 1127.06,448.055 1146.83,481.493 1166.59,516.051 1186.36,551.569 1206.13,587.876 1225.9,624.799 1245.67,662.173 1265.44,699.85 1285.21,737.712 1304.98,775.661 1324.75,813.615 1344.52,851.491 1364.29,889.185 1384.06,926.572 1403.83,963.499 1423.6,999.796 1443.37,1035.29 1463.13,1069.8 1482.9,1103.17 1502.67,1135.27 1522.44,1165.94 1542.21,1195.07 1561.98,1222.53 1581.75,1248.21 1601.52,1271.97 1621.29,1293.71 1641.06,1313.31 1660.83,1330.67 1680.6,1345.72 1700.37,1358.41 1720.14,1368.71 1739.91,1376.64 1759.68,1382.21 1779.44,1385.46 1799.21,1386.4 1818.98,1385.02 1838.75,1381.32 1858.52,1375.26 1878.29,1366.82 1898.06,1355.99 1917.83,1342.79 1937.6,1327.26 1957.37,1309.49 1977.14,1289.58 1996.91,1267.63 2016.68,1243.77 2036.45,1218.13 2056.22,1190.84 2075.98,1162.02 2095.75,1131.8 2115.52,1100.29 2135.29,1067.61 2155.06,1033.88 2174.83,999.188 2194.6,963.636 2214.37,927.309 2234.14,890.283 2253.91,852.623 2273.68,814.38 2293.45,775.596 "/>
<polyline clip-path="url(#clip392)" style="stroke:#e26f46; stroke-linecap:round; stroke-linejoin:round; stroke-width:4; stroke-opacity:1; fill:none" points="316.512,773.451 336.281,812.049 356.051,850.332 375.82,887.592 395.59,922.971 415.359,955.659 435.128,984.978 454.898,1010.41 474.667,1031.58 494.436,1048.24 514.206,1060.22 533.975,1067.44 553.744,1069.89 573.514,1067.61 593.283,1060.7 613.052,1049.34 632.822,1033.76 652.591,1014.26 672.361,991.201 692.13,965.004 711.899,936.136 731.669,905.091 751.438,872.373 771.207,838.473 790.977,803.863 810.746,768.992 830.515,734.298 850.285,700.218 870.054,667.207 889.823,635.737 909.593,606.3 929.362,579.389 949.132,555.478 968.901,535.007 988.67,518.356 1008.44,505.841 1028.21,497.699 1047.98,494.093 1067.75,495.102 1087.52,500.722 1107.29,510.861 1127.06,525.335 1146.83,543.86 1166.59,566.051 1186.36,591.428 1206.13,619.44 1225.9,649.502 1245.67,681.046 1265.44,713.57 1285.21,746.657 1304.98,779.976 1324.75,813.237 1344.52,846.14 1364.29,878.325 1384.06,909.343 1403.83,938.662 1423.6,965.704 1443.37,989.892 1463.13,1010.7 1482.9,1027.69 1502.67,1040.51 1522.44,1048.92 1542.21,1052.77 1561.98,1052.02 1581.75,1046.69 1601.52,1036.91 1621.29,1022.87 1641.06,1004.86 1660.83,983.213 1680.6,958.358 1700.37,930.755 1720.14,900.893 1739.91,869.269 1759.68,836.364 1779.44,802.64 1799.21,768.535 1818.98,734.479 1838.75,700.907 1858.52,668.273 1878.29,637.054 1898.06,607.741 1917.83,580.823 1937.6,556.764 1957.37,535.982 1977.14,518.834 1996.91,505.601 2016.68,496.487 2036.45,491.616 2056.22,491.036 2075.98,494.721 2095.75,502.582 2115.52,514.473 2135.29,530.199 2155.06,549.533 2174.83,572.224 2194.6,598.013 2214.37,626.645 2234.14,657.878 2253.91,691.492 2273.68,727.298 2293.45,765.139 "/>
<polyline clip-path="url(#clip392)" style="stroke:#3da44d; stroke-linecap:round; stroke-linejoin:round; stroke-width:4; stroke-opacity:1; fill:none" points="316.512,752.91 336.281,752.873 356.051,752.836 375.82,752.225 395.59,750.702 415.359,748.206 435.128,744.854 454.898,740.849 474.667,736.404 494.436,731.707 514.206,726.904 533.975,722.09 553.744,717.317 573.514,712.6 593.283,707.919 613.052,703.235 632.822,698.49 652.591,693.624 672.361,688.578 692.13,683.308 711.899,677.791 731.669,672.032 751.438,666.061 771.207,659.928 790.977,653.689 810.746,647.396 830.515,641.083 850.285,634.77 870.054,628.463 889.823,622.165 909.593,615.894 929.362,609.687 949.132,603.602 968.901,597.722 988.67,592.137 1008.44,586.938 1028.21,582.205 1047.98,577.991 1067.75,574.318 1087.52,571.171 1107.29,568.49 1127.06,566.184 1146.83,564.132 1166.59,562.212 1186.36,560.326 1206.13,558.433 1225.9,556.572 1245.67,554.862 1265.44,553.476 1285.21,552.595 1304.98,552.344 1324.75,552.758 1344.52,553.766 1364.29,555.216 1384.06,556.925 1403.83,558.735 1423.6,560.555 1443.37,562.379 1463.13,564.272 1482.9,566.345 1502.67,568.724 1522.44,571.521 1542.21,574.818 1561.98,578.657 1581.75,583.042 1601.52,587.939 1621.29,593.285 1641.06,598.999 1660.83,604.994 1680.6,611.187 1700.37,617.513 1720.14,623.93 1739.91,630.419 1759.68,636.974 1779.44,643.596 1799.21,650.274 1818.98,656.977 1838.75,663.654 1858.52,670.239 1878.29,676.661 1898.06,682.861 1917.83,688.796 1937.6,694.447 1957.37,699.812 1977.14,704.902 1996.91,709.731 2016.68,714.312 2036.45,718.649 2056.22,722.74 2075.98,726.572 2095.75,730.132 2115.52,733.406 2135.29,736.387 2155.06,739.081 2174.83,741.51 2194.6,743.712 2214.37,745.743 2234.14,747.675 2253.91,749.589 2273.68,751.573 2293.45,753.714 "/>
<path clip-path="url(#clip390)" d="M2007.82 374.156 L2282.9 374.156 L2282.9 166.796 L2007.82 166.796  Z" fill="#ffffff" fill-rule="evenodd" fill-opacity="1"/>
<polyline clip-path="url(#clip390)" style="stroke:#000000; stroke-linecap:round; stroke-linejoin:round; stroke-width:4; stroke-opacity:1; fill:none" points="2007.82,374.156 2282.9,374.156 2282.9,166.796 2007.82,166.796 2007.82,374.156 "/>
<polyline clip-path="url(#clip390)" style="stroke:#009af9; stroke-linecap:round; stroke-linejoin:round; stroke-width:4; stroke-opacity:1; fill:none" points="2031.1,218.636 2170.8,218.636 "/>
<path clip-path="url(#clip390)" d="M2209.27 213.971 Q2208.56 213.555 2207.7 213.37 Q2206.87 213.161 2205.85 213.161 Q2202.24 213.161 2200.29 215.522 Q2198.37 217.86 2198.37 222.258 L2198.37 235.916 L2194.09 235.916 L2194.09 209.99 L2198.37 209.99 L2198.37 214.018 Q2199.71 211.657 2201.87 210.522 Q2204.02 209.365 2207.1 209.365 Q2207.54 209.365 2208.07 209.434 Q2208.6 209.481 2209.25 209.596 L2209.27 213.971 Z" fill="#000000" fill-rule="nonzero" fill-opacity="1" /><path clip-path="url(#clip390)" d="M2233.44 243.786 L2233.44 247.096 L2208.81 247.096 L2208.81 243.786 L2233.44 243.786 Z" fill="#000000" fill-rule="nonzero" fill-opacity="1" /><path clip-path="url(#clip390)" d="M2259 209.99 L2249.62 222.606 L2259.48 235.916 L2254.46 235.916 L2246.91 225.731 L2239.37 235.916 L2234.34 235.916 L2244.41 222.351 L2235.2 209.99 L2240.22 209.99 L2247.1 219.226 L2253.97 209.99 L2259 209.99 Z" fill="#000000" fill-rule="nonzero" fill-opacity="1" /><polyline clip-path="url(#clip390)" style="stroke:#e26f46; stroke-linecap:round; stroke-linejoin:round; stroke-width:4; stroke-opacity:1; fill:none" points="2031.1,270.476 2170.8,270.476 "/>
<path clip-path="url(#clip390)" d="M2209.27 265.811 Q2208.56 265.395 2207.7 265.21 Q2206.87 265.001 2205.85 265.001 Q2202.24 265.001 2200.29 267.362 Q2198.37 269.7 2198.37 274.098 L2198.37 287.756 L2194.09 287.756 L2194.09 261.83 L2198.37 261.83 L2198.37 265.858 Q2199.71 263.497 2201.87 262.362 Q2204.02 261.205 2207.1 261.205 Q2207.54 261.205 2208.07 261.274 Q2208.6 261.321 2209.25 261.436 L2209.27 265.811 Z" fill="#000000" fill-rule="nonzero" fill-opacity="1" /><path clip-path="url(#clip390)" d="M2233.44 295.626 L2233.44 298.936 L2208.81 298.936 L2208.81 295.626 L2233.44 295.626 Z" fill="#000000" fill-rule="nonzero" fill-opacity="1" /><path clip-path="url(#clip390)" d="M2248.23 290.163 Q2246.43 294.793 2244.71 296.205 Q2243 297.617 2240.13 297.617 L2236.73 297.617 L2236.73 294.052 L2239.23 294.052 Q2240.99 294.052 2241.96 293.219 Q2242.93 292.385 2244.11 289.283 L2244.87 287.339 L2234.39 261.83 L2238.9 261.83 L2247 282.108 L2255.11 261.83 L2259.62 261.83 L2248.23 290.163 Z" fill="#000000" fill-rule="nonzero" fill-opacity="1" /><polyline clip-path="url(#clip390)" style="stroke:#3da44d; stroke-linecap:round; stroke-linejoin:round; stroke-width:4; stroke-opacity:1; fill:none" points="2031.1,322.316 2170.8,322.316 "/>
<path clip-path="url(#clip390)" d="M2209.27 317.651 Q2208.56 317.235 2207.7 317.05 Q2206.87 316.841 2205.85 316.841 Q2202.24 316.841 2200.29 319.202 Q2198.37 321.54 2198.37 325.938 L2198.37 339.596 L2194.09 339.596 L2194.09 313.67 L2198.37 313.67 L2198.37 317.698 Q2199.71 315.337 2201.87 314.202 Q2204.02 313.045 2207.1 313.045 Q2207.54 313.045 2208.07 313.114 Q2208.6 313.161 2209.25 313.276 L2209.27 317.651 Z" fill="#000000" fill-rule="nonzero" fill-opacity="1" /><path clip-path="url(#clip390)" d="M2233.44 347.466 L2233.44 350.776 L2208.81 350.776 L2208.81 347.466 L2233.44 347.466 Z" fill="#000000" fill-rule="nonzero" fill-opacity="1" /><path clip-path="url(#clip390)" d="M2235.59 313.67 L2255.82 313.67 L2255.82 317.559 L2239.81 336.193 L2255.82 336.193 L2255.82 339.596 L2235.01 339.596 L2235.01 335.707 L2251.03 317.073 L2235.59 317.073 L2235.59 313.67 Z" fill="#000000" fill-rule="nonzero" fill-opacity="1" /></svg>
