<?xml version="1.0" encoding="utf-8"?>
<svg xmlns="http://www.w3.org/2000/svg" xmlns:xlink="http://www.w3.org/1999/xlink" width="600" height="400" viewBox="0 0 2400 1600">
<defs>
  <clipPath id="clip390">
    <rect x="0" y="0" width="2400" height="1600"/>
  </clipPath>
</defs>
<path clip-path="url(#clip390)" d="M0 1600 L2400 1600 L2400 0 L0 0  Z" fill="#ffffff" fill-rule="evenodd" fill-opacity="1"/>
<defs>
  <clipPath id="clip391">
    <rect x="480" y="0" width="1681" height="1600"/>
  </clipPath>
</defs>
<path clip-path="url(#clip390)" d="M255.607 1423.18 L2352.76 1423.18 L2352.76 123.472 L255.607 123.472  Z" fill="#ffffff" fill-rule="evenodd" fill-opacity="1"/>
<defs>
  <clipPath id="clip392">
    <rect x="255" y="123" width="2098" height="1301"/>
  </clipPath>
</defs>
<polyline clip-path="url(#clip392)" style="stroke:#000000; stroke-linecap:round; stroke-linejoin:round; stroke-width:2; stroke-opacity:0.1; fill:none" points="314.96,1423.18 314.96,123.472 "/>
<polyline clip-path="url(#clip392)" style="stroke:#000000; stroke-linecap:round; stroke-linejoin:round; stroke-width:2; stroke-opacity:0.1; fill:none" points="710.649,1423.18 710.649,123.472 "/>
<polyline clip-path="url(#clip392)" style="stroke:#000000; stroke-linecap:round; stroke-linejoin:round; stroke-width:2; stroke-opacity:0.1; fill:none" points="1106.34,1423.18 1106.34,123.472 "/>
<polyline clip-path="url(#clip392)" style="stroke:#000000; stroke-linecap:round; stroke-linejoin:round; stroke-width:2; stroke-opacity:0.1; fill:none" points="1502.03,1423.18 1502.03,123.472 "/>
<polyline clip-path="url(#clip392)" style="stroke:#000000; stroke-linecap:round; stroke-linejoin:round; stroke-width:2; stroke-opacity:0.1; fill:none" points="1897.71,1423.18 1897.71,123.472 "/>
<polyline clip-path="url(#clip392)" style="stroke:#000000; stroke-linecap:round; stroke-linejoin:round; stroke-width:2; stroke-opacity:0.1; fill:none" points="2293.4,1423.18 2293.4,123.472 "/>
<polyline clip-path="url(#clip392)" style="stroke:#000000; stroke-linecap:round; stroke-linejoin:round; stroke-width:2; stroke-opacity:0.1; fill:none" points="255.607,1363.07 2352.76,1363.07 "/>
<polyline clip-path="url(#clip392)" style="stroke:#000000; stroke-linecap:round; stroke-linejoin:round; stroke-width:2; stroke-opacity:0.1; fill:none" points="255.607,1028.18 2352.76,1028.18 "/>
<polyline clip-path="url(#clip392)" style="stroke:#000000; stroke-linecap:round; stroke-linejoin:round; stroke-width:2; stroke-opacity:0.1; fill:none" points="255.607,693.289 2352.76,693.289 "/>
<polyline clip-path="url(#clip392)" style="stroke:#000000; stroke-linecap:round; stroke-linejoin:round; stroke-width:2; stroke-opacity:0.1; fill:none" points="255.607,358.398 2352.76,358.398 "/>
<polyline clip-path="url(#clip390)" style="stroke:#000000; stroke-linecap:round; stroke-linejoin:round; stroke-width:4; stroke-opacity:1; fill:none" points="255.607,1423.18 2352.76,1423.18 "/>
<polyline clip-path="url(#clip390)" style="stroke:#000000; stroke-linecap:round; stroke-linejoin:round; stroke-width:4; stroke-opacity:1; fill:none" points="314.96,1423.18 314.96,1404.28 "/>
<polyline clip-path="url(#clip390)" style="stroke:#000000; stroke-linecap:round; stroke-linejoin:round; stroke-width:4; stroke-opacity:1; fill:none" points="710.649,1423.18 710.649,1404.28 "/>
<polyline clip-path="url(#clip390)" style="stroke:#000000; stroke-linecap:round; stroke-linejoin:round; stroke-width:4; stroke-opacity:1; fill:none" points="1106.34,1423.18 1106.34,1404.28 "/>
<polyline clip-path="url(#clip390)" style="stroke:#000000; stroke-linecap:round; stroke-linejoin:round; stroke-width:4; stroke-opacity:1; fill:none" points="1502.03,1423.18 1502.03,1404.28 "/>
<polyline clip-path="url(#clip390)" style="stroke:#000000; stroke-linecap:round; stroke-linejoin:round; stroke-width:4; stroke-opacity:1; fill:none" points="1897.71,1423.18 1897.71,1404.28 "/>
<polyline clip-path="url(#clip390)" style="stroke:#000000; stroke-linecap:round; stroke-linejoin:round; stroke-width:4; stroke-opacity:1; fill:none" points="2293.4,1423.18 2293.4,1404.28 "/>
<path clip-path="url(#clip390)" d="M314.96 1454.1 Q311.349 1454.1 309.52 1457.66 Q307.715 1461.2 307.715 1468.33 Q307.715 1475.44 309.52 1479.01 Q311.349 1482.55 314.96 1482.55 Q318.594 1482.55 320.4 1479.01 Q322.229 1475.44 322.229 1468.33 Q322.229 1461.2 320.4 1457.66 Q318.594 1454.1 314.96 1454.1 M314.96 1450.39 Q320.77 1450.39 323.826 1455 Q326.904 1459.58 326.904 1468.33 Q326.904 1477.06 323.826 1481.67 Q320.77 1486.25 314.96 1486.25 Q309.15 1486.25 306.071 1481.67 Q303.016 1477.06 303.016 1468.33 Q303.016 1459.58 306.071 1455 Q309.15 1450.39 314.96 1450.39 Z" fill="#000000" fill-rule="nonzero" fill-opacity="1" /><path clip-path="url(#clip390)" d="M701.031 1481.64 L708.669 1481.64 L708.669 1455.28 L700.359 1456.95 L700.359 1452.69 L708.623 1451.02 L713.299 1451.02 L713.299 1481.64 L720.938 1481.64 L720.938 1485.58 L701.031 1485.58 L701.031 1481.64 Z" fill="#000000" fill-rule="nonzero" fill-opacity="1" /><path clip-path="url(#clip390)" d="M1100.99 1481.64 L1117.31 1481.64 L1117.31 1485.58 L1095.36 1485.58 L1095.36 1481.64 Q1098.03 1478.89 1102.61 1474.26 Q1107.22 1469.61 1108.4 1468.27 Q1110.64 1465.74 1111.52 1464.01 Q1112.43 1462.25 1112.43 1460.56 Q1112.43 1457.8 1110.48 1456.07 Q1108.56 1454.33 1105.46 1454.33 Q1103.26 1454.33 1100.8 1455.09 Q1098.37 1455.86 1095.6 1457.41 L1095.6 1452.69 Q1098.42 1451.55 1100.87 1450.97 Q1103.33 1450.39 1105.36 1450.39 Q1110.74 1450.39 1113.93 1453.08 Q1117.12 1455.77 1117.12 1460.26 Q1117.12 1462.39 1116.31 1464.31 Q1115.53 1466.2 1113.42 1468.8 Q1112.84 1469.47 1109.74 1472.69 Q1106.64 1475.88 1100.99 1481.64 Z" fill="#000000" fill-rule="nonzero" fill-opacity="1" /><path clip-path="url(#clip390)" d="M1506.27 1466.95 Q1509.63 1467.66 1511.5 1469.93 Q1513.4 1472.2 1513.4 1475.53 Q1513.4 1480.65 1509.88 1483.45 Q1506.37 1486.25 1499.88 1486.25 Q1497.71 1486.25 1495.39 1485.81 Q1493.1 1485.39 1490.65 1484.54 L1490.65 1480.02 Q1492.59 1481.16 1494.91 1481.74 Q1497.22 1482.32 1499.75 1482.32 Q1504.14 1482.32 1506.44 1480.58 Q1508.75 1478.84 1508.75 1475.53 Q1508.75 1472.48 1506.6 1470.77 Q1504.47 1469.03 1500.65 1469.03 L1496.62 1469.03 L1496.62 1465.19 L1500.83 1465.19 Q1504.28 1465.19 1506.11 1463.82 Q1507.94 1462.43 1507.94 1459.84 Q1507.94 1457.18 1506.04 1455.77 Q1504.17 1454.33 1500.65 1454.33 Q1498.73 1454.33 1496.53 1454.75 Q1494.33 1455.16 1491.69 1456.04 L1491.69 1451.88 Q1494.35 1451.14 1496.67 1450.77 Q1499 1450.39 1501.06 1450.39 Q1506.39 1450.39 1509.49 1452.83 Q1512.59 1455.23 1512.59 1459.35 Q1512.59 1462.22 1510.95 1464.21 Q1509.31 1466.18 1506.27 1466.95 Z" fill="#000000" fill-rule="nonzero" fill-opacity="1" /><path clip-path="url(#clip390)" d="M1900.72 1455.09 L1888.92 1473.54 L1900.72 1473.54 L1900.72 1455.09 M1899.5 1451.02 L1905.38 1451.02 L1905.38 1473.54 L1910.31 1473.54 L1910.31 1477.43 L1905.38 1477.43 L1905.38 1485.58 L1900.72 1485.58 L1900.72 1477.43 L1885.12 1477.43 L1885.12 1472.92 L1899.5 1451.02 Z" fill="#000000" fill-rule="nonzero" fill-opacity="1" /><path clip-path="url(#clip390)" d="M2283.68 1451.02 L2302.04 1451.02 L2302.04 1454.96 L2287.96 1454.96 L2287.96 1463.43 Q2288.98 1463.08 2290 1462.92 Q2291.02 1462.73 2292.04 1462.73 Q2297.82 1462.73 2301.2 1465.9 Q2304.58 1469.08 2304.58 1474.49 Q2304.58 1480.07 2301.11 1483.17 Q2297.64 1486.25 2291.32 1486.25 Q2289.14 1486.25 2286.87 1485.88 Q2284.63 1485.51 2282.22 1484.77 L2282.22 1480.07 Q2284.31 1481.2 2286.53 1481.76 Q2288.75 1482.32 2291.23 1482.32 Q2295.23 1482.32 2297.57 1480.21 Q2299.91 1478.1 2299.91 1474.49 Q2299.91 1470.88 2297.57 1468.77 Q2295.23 1466.67 2291.23 1466.67 Q2289.35 1466.67 2287.48 1467.08 Q2285.62 1467.5 2283.68 1468.38 L2283.68 1451.02 Z" fill="#000000" fill-rule="nonzero" fill-opacity="1" /><path clip-path="url(#clip390)" d="M1191.64 1522.27 L1191.64 1532.4 L1203.7 1532.4 L1203.7 1536.95 L1191.64 1536.95 L1191.64 1556.3 Q1191.64 1560.66 1192.81 1561.9 Q1194.02 1563.14 1197.68 1563.14 L1203.7 1563.14 L1203.7 1568.04 L1197.68 1568.04 Q1190.9 1568.04 1188.33 1565.53 Q1185.75 1562.98 1185.75 1556.3 L1185.75 1536.95 L1181.45 1536.95 L1181.45 1532.4 L1185.75 1532.4 L1185.75 1522.27 L1191.64 1522.27 Z" fill="#000000" fill-rule="nonzero" fill-opacity="1" /><path clip-path="url(#clip390)" d="M1211.4 1532.4 L1217.26 1532.4 L1217.26 1568.04 L1211.4 1568.04 L1211.4 1532.4 M1211.4 1518.52 L1217.26 1518.52 L1217.26 1525.93 L1211.4 1525.93 L1211.4 1518.52 Z" fill="#000000" fill-rule="nonzero" fill-opacity="1" /><path clip-path="url(#clip390)" d="M1257.27 1539.24 Q1259.46 1535.29 1262.52 1533.41 Q1265.57 1531.54 1269.71 1531.54 Q1275.28 1531.54 1278.3 1535.45 Q1281.33 1539.33 1281.33 1546.53 L1281.33 1568.04 L1275.44 1568.04 L1275.44 1546.72 Q1275.44 1541.59 1273.63 1539.11 Q1271.81 1536.63 1268.09 1536.63 Q1263.54 1536.63 1260.89 1539.65 Q1258.25 1542.68 1258.25 1547.9 L1258.25 1568.04 L1252.36 1568.04 L1252.36 1546.72 Q1252.36 1541.56 1250.55 1539.11 Q1248.74 1536.63 1244.95 1536.63 Q1240.46 1536.63 1237.82 1539.68 Q1235.18 1542.71 1235.18 1547.9 L1235.18 1568.04 L1229.29 1568.04 L1229.29 1532.4 L1235.18 1532.4 L1235.18 1537.93 Q1237.18 1534.66 1239.98 1533.1 Q1242.78 1531.54 1246.64 1531.54 Q1250.52 1531.54 1253.22 1533.51 Q1255.96 1535.48 1257.27 1539.24 Z" fill="#000000" fill-rule="nonzero" fill-opacity="1" /><path clip-path="url(#clip390)" d="M1323.5 1548.76 L1323.5 1551.62 L1296.57 1551.62 Q1296.96 1557.67 1300.2 1560.85 Q1303.48 1564 1309.31 1564 Q1312.68 1564 1315.83 1563.17 Q1319.01 1562.35 1322.13 1560.69 L1322.13 1566.23 Q1318.98 1567.57 1315.67 1568.27 Q1312.36 1568.97 1308.96 1568.97 Q1300.43 1568.97 1295.43 1564 Q1290.46 1559.04 1290.46 1550.57 Q1290.46 1541.82 1295.17 1536.69 Q1299.92 1531.54 1307.94 1531.54 Q1315.13 1531.54 1319.3 1536.18 Q1323.5 1540.8 1323.5 1548.76 M1317.64 1547.04 Q1317.58 1542.23 1314.94 1539.37 Q1312.33 1536.5 1308 1536.5 Q1303.1 1536.5 1300.14 1539.27 Q1297.21 1542.04 1296.77 1547.07 L1317.64 1547.04 Z" fill="#000000" fill-rule="nonzero" fill-opacity="1" /><path clip-path="url(#clip390)" d="M1367.9 1518.58 Q1363.64 1525.9 1361.57 1533.06 Q1359.5 1540.23 1359.5 1547.58 Q1359.5 1554.93 1361.57 1562.16 Q1363.67 1569.35 1367.9 1576.64 L1362.81 1576.64 Q1358.04 1569.16 1355.65 1561.93 Q1353.29 1554.71 1353.29 1547.58 Q1353.29 1540.48 1355.65 1533.29 Q1358 1526.09 1362.81 1518.58 L1367.9 1518.58 Z" fill="#000000" fill-rule="nonzero" fill-opacity="1" /><path clip-path="url(#clip390)" d="M1401.99 1533.45 L1401.99 1538.98 Q1399.51 1537.71 1396.83 1537.07 Q1394.16 1536.44 1391.3 1536.44 Q1386.94 1536.44 1384.74 1537.77 Q1382.58 1539.11 1382.58 1541.79 Q1382.58 1543.82 1384.13 1545 Q1385.69 1546.15 1390.4 1547.2 L1392.41 1547.64 Q1398.65 1548.98 1401.26 1551.43 Q1403.9 1553.85 1403.9 1558.21 Q1403.9 1563.17 1399.95 1566.07 Q1396.04 1568.97 1389.16 1568.97 Q1386.3 1568.97 1383.18 1568.39 Q1380.09 1567.85 1376.65 1566.74 L1376.65 1560.69 Q1379.9 1562.38 1383.05 1563.24 Q1386.2 1564.07 1389.29 1564.07 Q1393.43 1564.07 1395.66 1562.66 Q1397.88 1561.23 1397.88 1558.65 Q1397.88 1556.27 1396.26 1554.99 Q1394.67 1553.72 1389.23 1552.54 L1387.19 1552.07 Q1381.75 1550.92 1379.33 1548.56 Q1376.91 1546.18 1376.91 1542.04 Q1376.91 1537.01 1380.47 1534.27 Q1384.04 1531.54 1390.6 1531.54 Q1393.84 1531.54 1396.71 1532.01 Q1399.57 1532.49 1401.99 1533.45 Z" fill="#000000" fill-rule="nonzero" fill-opacity="1" /><path clip-path="url(#clip390)" d="M1412.3 1518.58 L1417.4 1518.58 Q1422.17 1526.09 1424.53 1533.29 Q1426.91 1540.48 1426.91 1547.58 Q1426.91 1554.71 1424.53 1561.93 Q1422.17 1569.16 1417.4 1576.64 L1412.3 1576.64 Q1416.54 1569.35 1418.6 1562.16 Q1420.71 1554.93 1420.71 1547.58 Q1420.71 1540.23 1418.6 1533.06 Q1416.54 1525.9 1412.3 1518.58 Z" fill="#000000" fill-rule="nonzero" fill-opacity="1" /><polyline clip-path="url(#clip390)" style="stroke:#000000; stroke-linecap:round; stroke-linejoin:round; stroke-width:4; stroke-opacity:1; fill:none" points="255.607,1423.18 255.607,123.472 "/>
<polyline clip-path="url(#clip390)" style="stroke:#000000; stroke-linecap:round; stroke-linejoin:round; stroke-width:4; stroke-opacity:1; fill:none" points="255.607,1363.07 274.504,1363.07 "/>
<polyline clip-path="url(#clip390)" style="stroke:#000000; stroke-linecap:round; stroke-linejoin:round; stroke-width:4; stroke-opacity:1; fill:none" points="255.607,1028.18 274.504,1028.18 "/>
<polyline clip-path="url(#clip390)" style="stroke:#000000; stroke-linecap:round; stroke-linejoin:round; stroke-width:4; stroke-opacity:1; fill:none" points="255.607,693.289 274.504,693.289 "/>
<polyline clip-path="url(#clip390)" style="stroke:#000000; stroke-linecap:round; stroke-linejoin:round; stroke-width:4; stroke-opacity:1; fill:none" points="255.607,358.398 274.504,358.398 "/>
<path clip-path="url(#clip390)" d="M114.26 1363.52 L143.936 1363.52 L143.936 1367.46 L114.26 1367.46 L114.26 1363.52 Z" fill="#000000" fill-rule="nonzero" fill-opacity="1" /><path clip-path="url(#clip390)" d="M164.028 1348.87 Q160.417 1348.87 158.589 1352.44 Q156.783 1355.98 156.783 1363.11 Q156.783 1370.21 158.589 1373.78 Q160.417 1377.32 164.028 1377.32 Q167.663 1377.32 169.468 1373.78 Q171.297 1370.21 171.297 1363.11 Q171.297 1355.98 169.468 1352.44 Q167.663 1348.87 164.028 1348.87 M164.028 1345.17 Q169.839 1345.17 172.894 1349.77 Q175.973 1354.36 175.973 1363.11 Q175.973 1371.83 172.894 1376.44 Q169.839 1381.02 164.028 1381.02 Q158.218 1381.02 155.14 1376.44 Q152.084 1371.83 152.084 1363.11 Q152.084 1354.36 155.14 1349.77 Q158.218 1345.17 164.028 1345.17 Z" fill="#000000" fill-rule="nonzero" fill-opacity="1" /><path clip-path="url(#clip390)" d="M184.19 1374.47 L189.075 1374.47 L189.075 1380.35 L184.19 1380.35 L184.19 1374.47 Z" fill="#000000" fill-rule="nonzero" fill-opacity="1" /><path clip-path="url(#clip390)" d="M203.287 1376.42 L219.607 1376.42 L219.607 1380.35 L197.662 1380.35 L197.662 1376.42 Q200.325 1373.66 204.908 1369.03 Q209.514 1364.38 210.695 1363.04 Q212.94 1360.51 213.82 1358.78 Q214.723 1357.02 214.723 1355.33 Q214.723 1352.57 212.778 1350.84 Q210.857 1349.1 207.755 1349.1 Q205.556 1349.1 203.102 1349.87 Q200.672 1350.63 197.894 1352.18 L197.894 1347.46 Q200.718 1346.32 203.172 1345.75 Q205.625 1345.17 207.662 1345.17 Q213.033 1345.17 216.227 1347.85 Q219.422 1350.54 219.422 1355.03 Q219.422 1357.16 218.611 1359.08 Q217.824 1360.98 215.718 1363.57 Q215.139 1364.24 212.037 1367.46 Q208.936 1370.65 203.287 1376.42 Z" fill="#000000" fill-rule="nonzero" fill-opacity="1" /><path clip-path="url(#clip390)" d="M162.431 1013.98 Q158.82 1013.98 156.991 1017.54 Q155.186 1021.09 155.186 1028.22 Q155.186 1035.32 156.991 1038.89 Q158.82 1042.43 162.431 1042.43 Q166.065 1042.43 167.871 1038.89 Q169.7 1035.32 169.7 1028.22 Q169.7 1021.09 167.871 1017.54 Q166.065 1013.98 162.431 1013.98 M162.431 1010.28 Q168.241 1010.28 171.297 1014.88 Q174.376 1019.47 174.376 1028.22 Q174.376 1036.94 171.297 1041.55 Q168.241 1046.13 162.431 1046.13 Q156.621 1046.13 153.542 1041.55 Q150.487 1036.94 150.487 1028.22 Q150.487 1019.47 153.542 1014.88 Q156.621 1010.28 162.431 1010.28 Z" fill="#000000" fill-rule="nonzero" fill-opacity="1" /><path clip-path="url(#clip390)" d="M182.593 1039.58 L187.477 1039.58 L187.477 1045.46 L182.593 1045.46 L182.593 1039.58 Z" fill="#000000" fill-rule="nonzero" fill-opacity="1" /><path clip-path="url(#clip390)" d="M207.662 1013.98 Q204.051 1013.98 202.223 1017.54 Q200.417 1021.09 200.417 1028.22 Q200.417 1035.32 202.223 1038.89 Q204.051 1042.43 207.662 1042.43 Q211.297 1042.43 213.102 1038.89 Q214.931 1035.32 214.931 1028.22 Q214.931 1021.09 213.102 1017.54 Q211.297 1013.98 207.662 1013.98 M207.662 1010.28 Q213.473 1010.28 216.528 1014.88 Q219.607 1019.47 219.607 1028.22 Q219.607 1036.94 216.528 1041.55 Q213.473 1046.13 207.662 1046.13 Q201.852 1046.13 198.774 1041.55 Q195.718 1036.94 195.718 1028.22 Q195.718 1019.47 198.774 1014.88 Q201.852 1010.28 207.662 1010.28 Z" fill="#000000" fill-rule="nonzero" fill-opacity="1" /><path clip-path="url(#clip390)" d="M164.028 679.088 Q160.417 679.088 158.589 682.653 Q156.783 686.194 156.783 693.324 Q156.783 700.43 158.589 703.995 Q160.417 707.537 164.028 707.537 Q167.663 707.537 169.468 703.995 Q171.297 700.43 171.297 693.324 Q171.297 686.194 169.468 682.653 Q167.663 679.088 164.028 679.088 M164.028 675.384 Q169.839 675.384 172.894 679.991 Q175.973 684.574 175.973 693.324 Q175.973 702.051 172.894 706.657 Q169.839 711.24 164.028 711.24 Q158.218 711.24 155.14 706.657 Q152.084 702.051 152.084 693.324 Q152.084 684.574 155.14 679.991 Q158.218 675.384 164.028 675.384 Z" fill="#000000" fill-rule="nonzero" fill-opacity="1" /><path clip-path="url(#clip390)" d="M184.19 704.689 L189.075 704.689 L189.075 710.569 L184.19 710.569 L184.19 704.689 Z" fill="#000000" fill-rule="nonzero" fill-opacity="1" /><path clip-path="url(#clip390)" d="M203.287 706.634 L219.607 706.634 L219.607 710.569 L197.662 710.569 L197.662 706.634 Q200.325 703.879 204.908 699.25 Q209.514 694.597 210.695 693.254 Q212.94 690.731 213.82 688.995 Q214.723 687.236 214.723 685.546 Q214.723 682.791 212.778 681.055 Q210.857 679.319 207.755 679.319 Q205.556 679.319 203.102 680.083 Q200.672 680.847 197.894 682.398 L197.894 677.676 Q200.718 676.541 203.172 675.963 Q205.625 675.384 207.662 675.384 Q213.033 675.384 216.227 678.069 Q219.422 680.754 219.422 685.245 Q219.422 687.375 218.611 689.296 Q217.824 691.194 215.718 693.787 Q215.139 694.458 212.037 697.676 Q208.936 700.87 203.287 706.634 Z" fill="#000000" fill-rule="nonzero" fill-opacity="1" /><path clip-path="url(#clip390)" d="M161.945 344.196 Q158.334 344.196 156.505 347.761 Q154.7 351.303 154.7 358.432 Q154.7 365.539 156.505 369.104 Q158.334 372.645 161.945 372.645 Q165.579 372.645 167.385 369.104 Q169.214 365.539 169.214 358.432 Q169.214 351.303 167.385 347.761 Q165.579 344.196 161.945 344.196 M161.945 340.493 Q167.755 340.493 170.811 345.099 Q173.889 349.682 173.889 358.432 Q173.889 367.159 170.811 371.766 Q167.755 376.349 161.945 376.349 Q156.135 376.349 153.056 371.766 Q150.001 367.159 150.001 358.432 Q150.001 349.682 153.056 345.099 Q156.135 340.493 161.945 340.493 Z" fill="#000000" fill-rule="nonzero" fill-opacity="1" /><path clip-path="url(#clip390)" d="M182.107 369.798 L186.991 369.798 L186.991 375.678 L182.107 375.678 L182.107 369.798 Z" fill="#000000" fill-rule="nonzero" fill-opacity="1" /><path clip-path="url(#clip390)" d="M210.024 345.192 L198.218 363.641 L210.024 363.641 L210.024 345.192 M208.797 341.118 L214.676 341.118 L214.676 363.641 L219.607 363.641 L219.607 367.53 L214.676 367.53 L214.676 375.678 L210.024 375.678 L210.024 367.53 L194.422 367.53 L194.422 363.016 L208.797 341.118 Z" fill="#000000" fill-rule="nonzero" fill-opacity="1" /><path clip-path="url(#clip390)" d="M41.4059 763.205 L41.4059 783.479 Q50.9226 783.002 54.9649 780.806 Q59.9301 778.068 59.9301 773.326 Q59.9301 768.552 54.933 765.91 Q50.5407 763.586 41.4059 763.205 M35.995 763.3 Q26.9557 764.191 23.7729 765.91 Q18.744 768.647 18.744 773.326 Q18.744 778.196 23.7092 780.774 Q27.7196 782.811 35.995 783.416 L35.995 763.3 M13.9697 773.326 Q13.9697 765.687 20.7174 761.327 Q27.4332 756.966 39.337 756.966 Q51.2091 756.966 57.9567 761.327 Q64.7362 765.687 64.7362 773.326 Q64.7362 780.997 57.9567 785.325 Q51.2091 789.686 39.337 789.686 Q27.4332 789.686 20.7174 785.325 Q13.9697 780.997 13.9697 773.326 Z" fill="#000000" fill-rule="nonzero" fill-opacity="1" /><path clip-path="url(#clip390)" d="M856.678 17.6457 Q847.766 17.6457 842.5 24.2892 Q837.274 30.9327 837.274 42.3968 Q837.274 53.8203 842.5 60.4638 Q847.766 67.1073 856.678 67.1073 Q865.59 67.1073 870.775 60.4638 Q876.001 53.8203 876.001 42.3968 Q876.001 30.9327 870.775 24.2892 Q865.59 17.6457 856.678 17.6457 M868.142 71.4823 L878.917 83.2704 L869.033 83.2704 L860.081 73.5887 Q858.744 73.6697 858.015 73.7103 Q857.326 73.7508 856.678 73.7508 Q843.918 73.7508 836.261 65.2439 Q828.646 56.6965 828.646 42.3968 Q828.646 28.0566 836.261 19.5497 Q843.918 11.0023 856.678 11.0023 Q869.398 11.0023 877.014 19.5497 Q884.629 28.0566 884.629 42.3968 Q884.629 52.9291 880.376 60.4233 Q876.163 67.9175 868.142 71.4823 Z" fill="#000000" fill-rule="nonzero" fill-opacity="1" /><path clip-path="url(#clip390)" d="M896.336 54.671 L896.336 27.2059 L903.79 27.2059 L903.79 54.3874 Q903.79 60.8284 906.302 64.0691 Q908.813 67.2693 913.836 67.2693 Q919.872 67.2693 923.356 63.421 Q926.88 59.5726 926.88 52.9291 L926.88 27.2059 L934.334 27.2059 L934.334 72.576 L926.88 72.576 L926.88 65.6084 Q924.166 69.7404 920.561 71.7658 Q916.996 73.7508 912.256 73.7508 Q904.438 73.7508 900.387 68.8897 Q896.336 64.0286 896.336 54.671 M915.092 26.1121 L915.092 26.1121 Z" fill="#000000" fill-rule="nonzero" fill-opacity="1" /><path clip-path="url(#clip390)" d="M970.306 49.7694 Q961.272 49.7694 957.789 51.8354 Q954.305 53.9013 954.305 58.8839 Q954.305 62.8538 956.897 65.2034 Q959.53 67.5124 964.027 67.5124 Q970.225 67.5124 973.952 63.1374 Q977.719 58.7219 977.719 51.4303 L977.719 49.7694 L970.306 49.7694 M985.173 46.6907 L985.173 72.576 L977.719 72.576 L977.719 65.6895 Q975.167 69.8214 971.359 71.8063 Q967.551 73.7508 962.042 73.7508 Q955.074 73.7508 950.943 69.8619 Q946.851 65.9325 946.851 59.3701 Q946.851 51.7138 951.955 47.825 Q957.1 43.9361 967.268 43.9361 L977.719 43.9361 L977.719 43.2069 Q977.719 38.0623 974.316 35.2672 Q970.954 32.4315 964.837 32.4315 Q960.948 32.4315 957.262 33.3632 Q953.576 34.295 950.173 36.1584 L950.173 29.2718 Q954.264 27.692 958.113 26.9223 Q961.961 26.1121 965.607 26.1121 Q975.45 26.1121 980.312 31.2163 Q985.173 36.3204 985.173 46.6907 Z" fill="#000000" fill-rule="nonzero" fill-opacity="1" /><path clip-path="url(#clip390)" d="M1030.38 34.0924 L1030.38 9.54393 L1037.83 9.54393 L1037.83 72.576 L1030.38 72.576 L1030.38 65.7705 Q1028.03 69.8214 1024.43 71.8063 Q1020.86 73.7508 1015.84 73.7508 Q1007.61 73.7508 1002.43 67.1883 Q997.285 60.6258 997.285 49.9314 Q997.285 39.2371 1002.43 32.6746 Q1007.61 26.1121 1015.84 26.1121 Q1020.86 26.1121 1024.43 28.0971 Q1028.03 30.0415 1030.38 34.0924 M1004.98 49.9314 Q1004.98 58.1548 1008.34 62.8538 Q1011.75 67.5124 1017.66 67.5124 Q1023.58 67.5124 1026.98 62.8538 Q1030.38 58.1548 1030.38 49.9314 Q1030.38 41.7081 1026.98 37.0496 Q1023.58 32.3505 1017.66 32.3505 Q1011.75 32.3505 1008.34 37.0496 Q1004.98 41.7081 1004.98 49.9314 Z" fill="#000000" fill-rule="nonzero" fill-opacity="1" /><path clip-path="url(#clip390)" d="M1079.48 34.1734 Q1078.22 33.4443 1076.72 33.1202 Q1075.26 32.7556 1073.48 32.7556 Q1067.16 32.7556 1063.76 36.8875 Q1060.4 40.9789 1060.4 48.6757 L1060.4 72.576 L1052.9 72.576 L1052.9 27.2059 L1060.4 27.2059 L1060.4 34.2544 Q1062.75 30.1225 1066.51 28.1376 Q1070.28 26.1121 1075.67 26.1121 Q1076.44 26.1121 1077.37 26.2337 Q1078.3 26.3147 1079.44 26.5172 L1079.48 34.1734 Z" fill="#000000" fill-rule="nonzero" fill-opacity="1" /><path clip-path="url(#clip390)" d="M1103.05 32.4315 Q1097.06 32.4315 1093.57 37.1306 Q1090.09 41.7891 1090.09 49.9314 Q1090.09 58.0738 1093.53 62.7728 Q1097.02 67.4314 1103.05 67.4314 Q1109.01 67.4314 1112.49 62.7323 Q1115.98 58.0333 1115.98 49.9314 Q1115.98 41.8701 1112.49 37.1711 Q1109.01 32.4315 1103.05 32.4315 M1103.05 26.1121 Q1112.78 26.1121 1118.33 32.4315 Q1123.88 38.7509 1123.88 49.9314 Q1123.88 61.0714 1118.33 67.4314 Q1112.78 73.7508 1103.05 73.7508 Q1093.29 73.7508 1087.74 67.4314 Q1082.23 61.0714 1082.23 49.9314 Q1082.23 38.7509 1087.74 32.4315 Q1093.29 26.1121 1103.05 26.1121 Z" fill="#000000" fill-rule="nonzero" fill-opacity="1" /><path clip-path="url(#clip390)" d="M1143.6 14.324 L1143.6 27.2059 L1158.96 27.2059 L1158.96 32.9987 L1143.6 32.9987 L1143.6 57.6282 Q1143.6 63.1779 1145.1 64.7578 Q1146.64 66.3376 1151.3 66.3376 L1158.96 66.3376 L1158.96 72.576 L1151.3 72.576 Q1142.67 72.576 1139.39 69.3758 Q1136.11 66.1351 1136.11 57.6282 L1136.11 32.9987 L1130.64 32.9987 L1130.64 27.2059 L1136.11 27.2059 L1136.11 14.324 L1143.6 14.324 Z" fill="#000000" fill-rule="nonzero" fill-opacity="1" /><path clip-path="url(#clip390)" d="M1186.34 32.4315 Q1180.35 32.4315 1176.86 37.1306 Q1173.38 41.7891 1173.38 49.9314 Q1173.38 58.0738 1176.82 62.7728 Q1180.3 67.4314 1186.34 67.4314 Q1192.3 67.4314 1195.78 62.7323 Q1199.26 58.0333 1199.26 49.9314 Q1199.26 41.8701 1195.78 37.1711 Q1192.3 32.4315 1186.34 32.4315 M1186.34 26.1121 Q1196.06 26.1121 1201.61 32.4315 Q1207.16 38.7509 1207.16 49.9314 Q1207.16 61.0714 1201.61 67.4314 Q1196.06 73.7508 1186.34 73.7508 Q1176.58 73.7508 1171.03 67.4314 Q1165.52 61.0714 1165.52 49.9314 Q1165.52 38.7509 1171.03 32.4315 Q1176.58 26.1121 1186.34 26.1121 Z" fill="#000000" fill-rule="nonzero" fill-opacity="1" /><path clip-path="url(#clip390)" d="M1245.81 34.1734 Q1244.55 33.4443 1243.05 33.1202 Q1241.59 32.7556 1239.81 32.7556 Q1233.49 32.7556 1230.09 36.8875 Q1226.73 40.9789 1226.73 48.6757 L1226.73 72.576 L1219.23 72.576 L1219.23 27.2059 L1226.73 27.2059 L1226.73 34.2544 Q1229.08 30.1225 1232.84 28.1376 Q1236.61 26.1121 1242 26.1121 Q1242.77 26.1121 1243.7 26.2337 Q1244.63 26.3147 1245.77 26.5172 L1245.81 34.1734 Z" fill="#000000" fill-rule="nonzero" fill-opacity="1" /><path clip-path="url(#clip390)" d="M1304.87 17.6457 Q1295.96 17.6457 1290.69 24.2892 Q1285.47 30.9327 1285.47 42.3968 Q1285.47 53.8203 1290.69 60.4638 Q1295.96 67.1073 1304.87 67.1073 Q1313.78 67.1073 1318.97 60.4638 Q1324.19 53.8203 1324.19 42.3968 Q1324.19 30.9327 1318.97 24.2892 Q1313.78 17.6457 1304.87 17.6457 M1304.87 11.0023 Q1317.59 11.0023 1325.21 19.5497 Q1332.82 28.0566 1332.82 42.3968 Q1332.82 56.6965 1325.21 65.2439 Q1317.59 73.7508 1304.87 73.7508 Q1292.11 73.7508 1284.45 65.2439 Q1276.84 56.737 1276.84 42.3968 Q1276.84 28.0566 1284.45 19.5497 Q1292.11 11.0023 1304.87 11.0023 Z" fill="#000000" fill-rule="nonzero" fill-opacity="1" /><path clip-path="url(#clip390)" d="M1371.59 34.1734 Q1370.33 33.4443 1368.83 33.1202 Q1367.38 32.7556 1365.59 32.7556 Q1359.27 32.7556 1355.87 36.8875 Q1352.51 40.9789 1352.51 48.6757 L1352.51 72.576 L1345.01 72.576 L1345.01 27.2059 L1352.51 27.2059 L1352.51 34.2544 Q1354.86 30.1225 1358.63 28.1376 Q1362.39 26.1121 1367.78 26.1121 Q1368.55 26.1121 1369.48 26.2337 Q1370.41 26.3147 1371.55 26.5172 L1371.59 34.1734 Z" fill="#000000" fill-rule="nonzero" fill-opacity="1" /><path clip-path="url(#clip390)" d="M1379.41 27.2059 L1386.86 27.2059 L1386.86 72.576 L1379.41 72.576 L1379.41 27.2059 M1379.41 9.54393 L1386.86 9.54393 L1386.86 18.9825 L1379.41 18.9825 L1379.41 9.54393 Z" fill="#000000" fill-rule="nonzero" fill-opacity="1" /><path clip-path="url(#clip390)" d="M1441.26 48.0275 L1441.26 51.6733 L1406.99 51.6733 Q1407.48 59.3701 1411.61 63.421 Q1415.78 67.4314 1423.2 67.4314 Q1427.49 67.4314 1431.5 66.3781 Q1435.55 65.3249 1439.52 63.2184 L1439.52 70.267 Q1435.51 71.9684 1431.3 72.8596 Q1427.09 73.7508 1422.75 73.7508 Q1411.89 73.7508 1405.53 67.4314 Q1399.22 61.1119 1399.22 50.3365 Q1399.22 39.1965 1405.21 32.6746 Q1411.25 26.1121 1421.46 26.1121 Q1430.61 26.1121 1435.92 32.0264 Q1441.26 37.9003 1441.26 48.0275 M1433.81 45.84 Q1433.73 39.7232 1430.37 36.0774 Q1427.05 32.4315 1421.54 32.4315 Q1415.3 32.4315 1411.53 35.9558 Q1407.8 39.4801 1407.24 45.8805 L1433.81 45.84 Z" fill="#000000" fill-rule="nonzero" fill-opacity="1" /><path clip-path="url(#clip390)" d="M1491.21 45.1919 L1491.21 72.576 L1483.76 72.576 L1483.76 45.4349 Q1483.76 38.994 1481.25 35.7938 Q1478.73 32.5936 1473.71 32.5936 Q1467.68 32.5936 1464.19 36.4419 Q1460.71 40.2903 1460.71 46.9338 L1460.71 72.576 L1453.21 72.576 L1453.21 27.2059 L1460.71 27.2059 L1460.71 34.2544 Q1463.38 30.163 1466.99 28.1376 Q1470.63 26.1121 1475.37 26.1121 Q1483.19 26.1121 1487.2 30.9732 Q1491.21 35.7938 1491.21 45.1919 Z" fill="#000000" fill-rule="nonzero" fill-opacity="1" /><path clip-path="url(#clip390)" d="M1513.45 14.324 L1513.45 27.2059 L1528.8 27.2059 L1528.8 32.9987 L1513.45 32.9987 L1513.45 57.6282 Q1513.45 63.1779 1514.95 64.7578 Q1516.49 66.3376 1521.15 66.3376 L1528.8 66.3376 L1528.8 72.576 L1521.15 72.576 Q1512.52 72.576 1509.24 69.3758 Q1505.96 66.1351 1505.96 57.6282 L1505.96 32.9987 L1500.49 32.9987 L1500.49 27.2059 L1505.96 27.2059 L1505.96 14.324 L1513.45 14.324 Z" fill="#000000" fill-rule="nonzero" fill-opacity="1" /><path clip-path="url(#clip390)" d="M1559.23 49.7694 Q1550.19 49.7694 1546.71 51.8354 Q1543.23 53.9013 1543.23 58.8839 Q1543.23 62.8538 1545.82 65.2034 Q1548.45 67.5124 1552.95 67.5124 Q1559.15 67.5124 1562.87 63.1374 Q1566.64 58.7219 1566.64 51.4303 L1566.64 49.7694 L1559.23 49.7694 M1574.09 46.6907 L1574.09 72.576 L1566.64 72.576 L1566.64 65.6895 Q1564.09 69.8214 1560.28 71.8063 Q1556.47 73.7508 1550.96 73.7508 Q1543.99 73.7508 1539.86 69.8619 Q1535.77 65.9325 1535.77 59.3701 Q1535.77 51.7138 1540.88 47.825 Q1546.02 43.9361 1556.19 43.9361 L1566.64 43.9361 L1566.64 43.2069 Q1566.64 38.0623 1563.24 35.2672 Q1559.87 32.4315 1553.76 32.4315 Q1549.87 32.4315 1546.18 33.3632 Q1542.5 34.295 1539.09 36.1584 L1539.09 29.2718 Q1543.18 27.692 1547.03 26.9223 Q1550.88 26.1121 1554.53 26.1121 Q1564.37 26.1121 1569.23 31.2163 Q1574.09 36.3204 1574.09 46.6907 Z" fill="#000000" fill-rule="nonzero" fill-opacity="1" /><path clip-path="url(#clip390)" d="M1596.82 14.324 L1596.82 27.2059 L1612.17 27.2059 L1612.17 32.9987 L1596.82 32.9987 L1596.82 57.6282 Q1596.82 63.1779 1598.32 64.7578 Q1599.86 66.3376 1604.52 66.3376 L1612.17 66.3376 L1612.17 72.576 L1604.52 72.576 Q1595.89 72.576 1592.61 69.3758 Q1589.32 66.1351 1589.32 57.6282 L1589.32 32.9987 L1583.86 32.9987 L1583.86 27.2059 L1589.32 27.2059 L1589.32 14.324 L1596.82 14.324 Z" fill="#000000" fill-rule="nonzero" fill-opacity="1" /><path clip-path="url(#clip390)" d="M1621.97 27.2059 L1629.43 27.2059 L1629.43 72.576 L1621.97 72.576 L1621.97 27.2059 M1621.97 9.54393 L1629.43 9.54393 L1629.43 18.9825 L1621.97 18.9825 L1621.97 9.54393 Z" fill="#000000" fill-rule="nonzero" fill-opacity="1" /><path clip-path="url(#clip390)" d="M1662.61 32.4315 Q1656.61 32.4315 1653.13 37.1306 Q1649.64 41.7891 1649.64 49.9314 Q1649.64 58.0738 1653.09 62.7728 Q1656.57 67.4314 1662.61 67.4314 Q1668.56 67.4314 1672.04 62.7323 Q1675.53 58.0333 1675.53 49.9314 Q1675.53 41.8701 1672.04 37.1711 Q1668.56 32.4315 1662.61 32.4315 M1662.61 26.1121 Q1672.33 26.1121 1677.88 32.4315 Q1683.43 38.7509 1683.43 49.9314 Q1683.43 61.0714 1677.88 67.4314 Q1672.33 73.7508 1662.61 73.7508 Q1652.84 73.7508 1647.29 67.4314 Q1641.78 61.0714 1641.78 49.9314 Q1641.78 38.7509 1647.29 32.4315 Q1652.84 26.1121 1662.61 26.1121 Z" fill="#000000" fill-rule="nonzero" fill-opacity="1" /><path clip-path="url(#clip390)" d="M1733.5 45.1919 L1733.5 72.576 L1726.04 72.576 L1726.04 45.4349 Q1726.04 38.994 1723.53 35.7938 Q1721.02 32.5936 1716 32.5936 Q1709.96 32.5936 1706.48 36.4419 Q1702.99 40.2903 1702.99 46.9338 L1702.99 72.576 L1695.5 72.576 L1695.5 27.2059 L1702.99 27.2059 L1702.99 34.2544 Q1705.67 30.163 1709.27 28.1376 Q1712.92 26.1121 1717.66 26.1121 Q1725.48 26.1121 1729.49 30.9732 Q1733.5 35.7938 1733.5 45.1919 Z" fill="#000000" fill-rule="nonzero" fill-opacity="1" /><path clip-path="url(#clip390)" d="M1777.29 28.5427 L1777.29 35.5912 Q1774.13 33.9709 1770.72 33.1607 Q1767.32 32.3505 1763.68 32.3505 Q1758.13 32.3505 1755.33 34.0519 Q1752.58 35.7533 1752.58 39.156 Q1752.58 41.7486 1754.56 43.2475 Q1756.55 44.7058 1762.54 46.0426 L1765.09 46.6097 Q1773.03 48.3111 1776.35 51.4303 Q1779.72 54.509 1779.72 60.0587 Q1779.72 66.3781 1774.69 70.0644 Q1769.71 73.7508 1760.96 73.7508 Q1757.32 73.7508 1753.35 73.0216 Q1749.42 72.3329 1745.04 70.9151 L1745.04 63.2184 Q1749.17 65.3654 1753.18 66.4591 Q1757.19 67.5124 1761.12 67.5124 Q1766.39 67.5124 1769.23 65.73 Q1772.06 63.9071 1772.06 60.6258 Q1772.06 57.5877 1769.99 55.9673 Q1767.97 54.3469 1761.04 52.8481 L1758.45 52.2405 Q1751.52 50.7821 1748.44 47.7845 Q1745.37 44.7463 1745.37 39.4801 Q1745.37 33.0797 1749.9 29.5959 Q1754.44 26.1121 1762.78 26.1121 Q1766.92 26.1121 1770.56 26.7198 Q1774.21 27.3274 1777.29 28.5427 Z" fill="#000000" fill-rule="nonzero" fill-opacity="1" /><polyline clip-path="url(#clip392)" style="stroke:#ff0000; stroke-linecap:round; stroke-linejoin:round; stroke-width:4; stroke-opacity:1; fill:none" points="314.96,1028.18 394.098,628.348 473.235,272.853 552.373,482.845 631.511,807.448 710.649,1082.72 789.786,1268.31 868.924,1366.06 948.062,1386.4 1027.2,1346.06 1106.34,1276.96 1185.47,1208.24 1264.61,1152.66 1343.75,1112.56 1422.89,1085.65 1502.03,1068.35 1581.16,1057.48 1660.3,1050.83 1739.44,1047.23 1818.58,1046.27 1897.71,1047.85 1976.85,1051.5 2055.99,1055.36 2135.13,1054.6 2214.26,1040.21 2293.4,1028.18 "/>
<polyline clip-path="url(#clip392)" style="stroke:#008000; stroke-linecap:round; stroke-linejoin:round; stroke-width:4; stroke-opacity:1; fill:none" points="314.96,1028.18 394.098,544.894 473.235,160.256 552.373,520.464 631.511,985.277 710.649,1277.66 789.786,1383.5 868.924,1382.34 948.062,1334.11 1027.2,1272.57 1106.34,1214.69 1185.47,1167.16 1264.61,1131.04 1343.75,1104.74 1422.89,1085.88 1502.03,1072.31 1581.16,1062.48 1660.3,1055.52 1739.44,1051.14 1818.58,1049.48 1897.71,1050.69 1976.85,1054.33 2055.99,1058.34 2135.13,1057.36 2214.26,1041.44 2293.4,1028.18 "/>
<polyline clip-path="url(#clip392)" style="stroke:#0000ff; stroke-linecap:round; stroke-linejoin:round; stroke-width:4; stroke-opacity:1; fill:none" points="314.96,1028.18 394.098,800.169 473.235,532.52 552.373,537.509 631.511,666.145 710.649,846.149 789.786,1010.15 868.924,1110.55 948.062,1158.06 1027.2,1182.58 1106.34,1193.72 1185.47,1190.39 1264.61,1176.17 1343.75,1156.12 1422.89,1134.41 1502.03,1113.8 1581.16,1095.92 1660.3,1081.78 1739.44,1072.14 1818.58,1067.74 1897.71,1068.99 1976.85,1075.09 2055.99,1082.21 2135.13,1080.67 2214.26,1052.11 2293.4,1028.18 "/>
<path clip-path="url(#clip390)" d="M1915.04 374.156 L2282.85 374.156 L2282.85 166.796 L1915.04 166.796  Z" fill="#ffffff" fill-rule="evenodd" fill-opacity="1"/>
<polyline clip-path="url(#clip390)" style="stroke:#000000; stroke-linecap:round; stroke-linejoin:round; stroke-width:4; stroke-opacity:1; fill:none" points="1915.04,374.156 2282.85,374.156 2282.85,166.796 1915.04,166.796 1915.04,374.156 "/>
<polyline clip-path="url(#clip390)" style="stroke:#ff0000; stroke-linecap:round; stroke-linejoin:round; stroke-width:4; stroke-opacity:1; fill:none" points="1938.34,218.636 2078.15,218.636 "/>
<path clip-path="url(#clip390)" d="M2105.85 222.976 Q2105.85 227.675 2107.77 230.36 Q2109.71 233.022 2113.09 233.022 Q2116.47 233.022 2118.42 230.36 Q2120.36 227.675 2120.36 222.976 Q2120.36 218.277 2118.42 215.615 Q2116.47 212.93 2113.09 212.93 Q2109.71 212.93 2107.77 215.615 Q2105.85 218.277 2105.85 222.976 M2120.36 232.027 Q2119.02 234.342 2116.96 235.476 Q2114.92 236.587 2112.05 236.587 Q2107.35 236.587 2104.39 232.837 Q2101.45 229.087 2101.45 222.976 Q2101.45 216.865 2104.39 213.115 Q2107.35 209.365 2112.05 209.365 Q2114.92 209.365 2116.96 210.499 Q2119.02 211.61 2120.36 213.925 L2120.36 209.99 L2124.62 209.99 L2124.62 245.777 L2120.36 245.777 L2120.36 232.027 Z" fill="#000000" fill-rule="nonzero" fill-opacity="1" /><path clip-path="url(#clip390)" d="M2132.95 225.684 L2132.95 209.99 L2137.21 209.99 L2137.21 225.522 Q2137.21 229.203 2138.65 231.055 Q2140.08 232.883 2142.95 232.883 Q2146.4 232.883 2148.39 230.684 Q2150.41 228.485 2150.41 224.689 L2150.41 209.99 L2154.67 209.99 L2154.67 235.916 L2150.41 235.916 L2150.41 231.934 Q2148.86 234.295 2146.8 235.453 Q2144.76 236.587 2142.05 236.587 Q2137.58 236.587 2135.27 233.809 Q2132.95 231.031 2132.95 225.684 M2143.67 209.365 L2143.67 209.365 Z" fill="#000000" fill-rule="nonzero" fill-opacity="1" /><path clip-path="url(#clip390)" d="M2175.22 222.883 Q2170.06 222.883 2168.07 224.064 Q2166.08 225.244 2166.08 228.092 Q2166.08 230.36 2167.56 231.703 Q2169.06 233.022 2171.63 233.022 Q2175.17 233.022 2177.3 230.522 Q2179.46 227.999 2179.46 223.832 L2179.46 222.883 L2175.22 222.883 M2183.72 221.124 L2183.72 235.916 L2179.46 235.916 L2179.46 231.981 Q2178 234.342 2175.82 235.476 Q2173.65 236.587 2170.5 236.587 Q2166.52 236.587 2164.16 234.365 Q2161.82 232.119 2161.82 228.369 Q2161.82 223.994 2164.73 221.772 Q2167.67 219.55 2173.48 219.55 L2179.46 219.55 L2179.46 219.133 Q2179.46 216.194 2177.51 214.596 Q2175.59 212.976 2172.1 212.976 Q2169.87 212.976 2167.77 213.508 Q2165.66 214.041 2163.72 215.106 L2163.72 211.17 Q2166.05 210.268 2168.25 209.828 Q2170.45 209.365 2172.54 209.365 Q2178.16 209.365 2180.94 212.282 Q2183.72 215.198 2183.72 221.124 Z" fill="#000000" fill-rule="nonzero" fill-opacity="1" /><path clip-path="url(#clip390)" d="M2209.55 213.925 L2209.55 199.897 L2213.81 199.897 L2213.81 235.916 L2209.55 235.916 L2209.55 232.027 Q2208.21 234.342 2206.15 235.476 Q2204.11 236.587 2201.24 236.587 Q2196.54 236.587 2193.58 232.837 Q2190.64 229.087 2190.64 222.976 Q2190.64 216.865 2193.58 213.115 Q2196.54 209.365 2201.24 209.365 Q2204.11 209.365 2206.15 210.499 Q2208.21 211.61 2209.55 213.925 M2195.04 222.976 Q2195.04 227.675 2196.96 230.36 Q2198.9 233.022 2202.28 233.022 Q2205.66 233.022 2207.61 230.36 Q2209.55 227.675 2209.55 222.976 Q2209.55 218.277 2207.61 215.615 Q2205.66 212.93 2202.28 212.93 Q2198.9 212.93 2196.96 215.615 Q2195.04 218.277 2195.04 222.976 Z" fill="#000000" fill-rule="nonzero" fill-opacity="1" /><path clip-path="url(#clip390)" d="M2239.06 231.981 L2246.7 231.981 L2246.7 205.615 L2238.39 207.282 L2238.39 203.022 L2246.66 201.356 L2251.33 201.356 L2251.33 231.981 L2258.97 231.981 L2258.97 235.916 L2239.06 235.916 L2239.06 231.981 Z" fill="#000000" fill-rule="nonzero" fill-opacity="1" /><polyline clip-path="url(#clip390)" style="stroke:#008000; stroke-linecap:round; stroke-linejoin:round; stroke-width:4; stroke-opacity:1; fill:none" points="1938.34,270.476 2078.15,270.476 "/>
<path clip-path="url(#clip390)" d="M2105.85 274.816 Q2105.85 279.515 2107.77 282.2 Q2109.71 284.862 2113.09 284.862 Q2116.47 284.862 2118.42 282.2 Q2120.36 279.515 2120.36 274.816 Q2120.36 270.117 2118.42 267.455 Q2116.47 264.77 2113.09 264.77 Q2109.71 264.77 2107.77 267.455 Q2105.85 270.117 2105.85 274.816 M2120.36 283.867 Q2119.02 286.182 2116.96 287.316 Q2114.92 288.427 2112.05 288.427 Q2107.35 288.427 2104.39 284.677 Q2101.45 280.927 2101.45 274.816 Q2101.45 268.705 2104.39 264.955 Q2107.35 261.205 2112.05 261.205 Q2114.92 261.205 2116.96 262.339 Q2119.02 263.45 2120.36 265.765 L2120.36 261.83 L2124.62 261.83 L2124.62 297.617 L2120.36 297.617 L2120.36 283.867 Z" fill="#000000" fill-rule="nonzero" fill-opacity="1" /><path clip-path="url(#clip390)" d="M2132.95 277.524 L2132.95 261.83 L2137.21 261.83 L2137.21 277.362 Q2137.21 281.043 2138.65 282.895 Q2140.08 284.723 2142.95 284.723 Q2146.4 284.723 2148.39 282.524 Q2150.41 280.325 2150.41 276.529 L2150.41 261.83 L2154.67 261.83 L2154.67 287.756 L2150.41 287.756 L2150.41 283.774 Q2148.86 286.135 2146.8 287.293 Q2144.76 288.427 2142.05 288.427 Q2137.58 288.427 2135.27 285.649 Q2132.95 282.871 2132.95 277.524 M2143.67 261.205 L2143.67 261.205 Z" fill="#000000" fill-rule="nonzero" fill-opacity="1" /><path clip-path="url(#clip390)" d="M2175.22 274.723 Q2170.06 274.723 2168.07 275.904 Q2166.08 277.084 2166.08 279.932 Q2166.08 282.2 2167.56 283.543 Q2169.06 284.862 2171.63 284.862 Q2175.17 284.862 2177.3 282.362 Q2179.46 279.839 2179.46 275.672 L2179.46 274.723 L2175.22 274.723 M2183.72 272.964 L2183.72 287.756 L2179.46 287.756 L2179.46 283.821 Q2178 286.182 2175.82 287.316 Q2173.65 288.427 2170.5 288.427 Q2166.52 288.427 2164.16 286.205 Q2161.82 283.959 2161.82 280.209 Q2161.82 275.834 2164.73 273.612 Q2167.67 271.39 2173.48 271.39 L2179.46 271.39 L2179.46 270.973 Q2179.46 268.034 2177.51 266.436 Q2175.59 264.816 2172.1 264.816 Q2169.87 264.816 2167.77 265.348 Q2165.66 265.881 2163.72 266.946 L2163.72 263.01 Q2166.05 262.108 2168.25 261.668 Q2170.45 261.205 2172.54 261.205 Q2178.16 261.205 2180.94 264.122 Q2183.72 267.038 2183.72 272.964 Z" fill="#000000" fill-rule="nonzero" fill-opacity="1" /><path clip-path="url(#clip390)" d="M2209.55 265.765 L2209.55 251.737 L2213.81 251.737 L2213.81 287.756 L2209.55 287.756 L2209.55 283.867 Q2208.21 286.182 2206.15 287.316 Q2204.11 288.427 2201.24 288.427 Q2196.54 288.427 2193.58 284.677 Q2190.64 280.927 2190.64 274.816 Q2190.64 268.705 2193.58 264.955 Q2196.54 261.205 2201.24 261.205 Q2204.11 261.205 2206.15 262.339 Q2208.21 263.45 2209.55 265.765 M2195.04 274.816 Q2195.04 279.515 2196.96 282.2 Q2198.9 284.862 2202.28 284.862 Q2205.66 284.862 2207.61 282.2 Q2209.55 279.515 2209.55 274.816 Q2209.55 270.117 2207.61 267.455 Q2205.66 264.77 2202.28 264.77 Q2198.9 264.77 2196.96 267.455 Q2195.04 270.117 2195.04 274.816 Z" fill="#000000" fill-rule="nonzero" fill-opacity="1" /><path clip-path="url(#clip390)" d="M2242.28 283.821 L2258.6 283.821 L2258.6 287.756 L2236.66 287.756 L2236.66 283.821 Q2239.32 281.066 2243.9 276.436 Q2248.51 271.784 2249.69 270.441 Q2251.93 267.918 2252.81 266.182 Q2253.72 264.423 2253.72 262.733 Q2253.72 259.978 2251.77 258.242 Q2249.85 256.506 2246.75 256.506 Q2244.55 256.506 2242.1 257.27 Q2239.67 258.034 2236.89 259.585 L2236.89 254.862 Q2239.71 253.728 2242.17 253.149 Q2244.62 252.571 2246.66 252.571 Q2252.03 252.571 2255.22 255.256 Q2258.42 257.941 2258.42 262.432 Q2258.42 264.561 2257.6 266.483 Q2256.82 268.381 2254.71 270.973 Q2254.13 271.645 2251.03 274.862 Q2247.93 278.057 2242.28 283.821 Z" fill="#000000" fill-rule="nonzero" fill-opacity="1" /><polyline clip-path="url(#clip390)" style="stroke:#0000ff; stroke-linecap:round; stroke-linejoin:round; stroke-width:4; stroke-opacity:1; fill:none" points="1938.34,322.316 2078.15,322.316 "/>
<path clip-path="url(#clip390)" d="M2105.85 326.656 Q2105.85 331.355 2107.77 334.04 Q2109.71 336.702 2113.09 336.702 Q2116.47 336.702 2118.42 334.04 Q2120.36 331.355 2120.36 326.656 Q2120.36 321.957 2118.42 319.295 Q2116.47 316.61 2113.09 316.61 Q2109.71 316.61 2107.77 319.295 Q2105.85 321.957 2105.85 326.656 M2120.36 335.707 Q2119.02 338.022 2116.96 339.156 Q2114.92 340.267 2112.05 340.267 Q2107.35 340.267 2104.39 336.517 Q2101.45 332.767 2101.45 326.656 Q2101.45 320.545 2104.39 316.795 Q2107.35 313.045 2112.05 313.045 Q2114.92 313.045 2116.96 314.179 Q2119.02 315.29 2120.36 317.605 L2120.36 313.67 L2124.62 313.67 L2124.62 349.457 L2120.36 349.457 L2120.36 335.707 Z" fill="#000000" fill-rule="nonzero" fill-opacity="1" /><path clip-path="url(#clip390)" d="M2132.95 329.364 L2132.95 313.67 L2137.21 313.67 L2137.21 329.202 Q2137.21 332.883 2138.65 334.735 Q2140.08 336.563 2142.95 336.563 Q2146.4 336.563 2148.39 334.364 Q2150.41 332.165 2150.41 328.369 L2150.41 313.67 L2154.67 313.67 L2154.67 339.596 L2150.41 339.596 L2150.41 335.614 Q2148.86 337.975 2146.8 339.133 Q2144.76 340.267 2142.05 340.267 Q2137.58 340.267 2135.27 337.489 Q2132.95 334.711 2132.95 329.364 M2143.67 313.045 L2143.67 313.045 Z" fill="#000000" fill-rule="nonzero" fill-opacity="1" /><path clip-path="url(#clip390)" d="M2175.22 326.563 Q2170.06 326.563 2168.07 327.744 Q2166.08 328.924 2166.08 331.772 Q2166.08 334.04 2167.56 335.383 Q2169.06 336.702 2171.63 336.702 Q2175.17 336.702 2177.3 334.202 Q2179.46 331.679 2179.46 327.512 L2179.46 326.563 L2175.22 326.563 M2183.72 324.804 L2183.72 339.596 L2179.46 339.596 L2179.46 335.661 Q2178 338.022 2175.82 339.156 Q2173.65 340.267 2170.5 340.267 Q2166.52 340.267 2164.16 338.045 Q2161.82 335.799 2161.82 332.049 Q2161.82 327.674 2164.73 325.452 Q2167.67 323.23 2173.48 323.23 L2179.46 323.23 L2179.46 322.813 Q2179.46 319.874 2177.51 318.276 Q2175.59 316.656 2172.1 316.656 Q2169.87 316.656 2167.77 317.188 Q2165.66 317.721 2163.72 318.786 L2163.72 314.85 Q2166.05 313.948 2168.25 313.508 Q2170.45 313.045 2172.54 313.045 Q2178.16 313.045 2180.94 315.962 Q2183.72 318.878 2183.72 324.804 Z" fill="#000000" fill-rule="nonzero" fill-opacity="1" /><path clip-path="url(#clip390)" d="M2209.55 317.605 L2209.55 303.577 L2213.81 303.577 L2213.81 339.596 L2209.55 339.596 L2209.55 335.707 Q2208.21 338.022 2206.15 339.156 Q2204.11 340.267 2201.24 340.267 Q2196.54 340.267 2193.58 336.517 Q2190.64 332.767 2190.64 326.656 Q2190.64 320.545 2193.58 316.795 Q2196.54 313.045 2201.24 313.045 Q2204.11 313.045 2206.15 314.179 Q2208.21 315.29 2209.55 317.605 M2195.04 326.656 Q2195.04 331.355 2196.96 334.04 Q2198.9 336.702 2202.28 336.702 Q2205.66 336.702 2207.61 334.04 Q2209.55 331.355 2209.55 326.656 Q2209.55 321.957 2207.61 319.295 Q2205.66 316.61 2202.28 316.61 Q2198.9 316.61 2196.96 319.295 Q2195.04 321.957 2195.04 326.656 Z" fill="#000000" fill-rule="nonzero" fill-opacity="1" /><path clip-path="url(#clip390)" d="M2252.42 320.962 Q2255.78 321.679 2257.65 323.948 Q2259.55 326.216 2259.55 329.549 Q2259.55 334.665 2256.03 337.466 Q2252.51 340.267 2246.03 340.267 Q2243.85 340.267 2241.54 339.827 Q2239.25 339.411 2236.79 338.554 L2236.79 334.04 Q2238.74 335.174 2241.05 335.753 Q2243.37 336.332 2245.89 336.332 Q2250.29 336.332 2252.58 334.596 Q2254.9 332.86 2254.9 329.549 Q2254.9 326.494 2252.74 324.781 Q2250.61 323.045 2246.79 323.045 L2242.77 323.045 L2242.77 319.202 L2246.98 319.202 Q2250.43 319.202 2252.26 317.837 Q2254.09 316.448 2254.09 313.855 Q2254.09 311.193 2252.19 309.781 Q2250.31 308.346 2246.79 308.346 Q2244.87 308.346 2242.67 308.763 Q2240.48 309.179 2237.84 310.059 L2237.84 305.892 Q2240.5 305.151 2242.81 304.781 Q2245.15 304.411 2247.21 304.411 Q2252.54 304.411 2255.64 306.841 Q2258.74 309.249 2258.74 313.369 Q2258.74 316.239 2257.1 318.23 Q2255.45 320.198 2252.42 320.962 Z" fill="#000000" fill-rule="nonzero" fill-opacity="1" /></svg>
